<svg xmlns="http://www.w3.org/2000/svg" width="23.713" height="23.808" viewBox="0 0 23.713 23.808">
  <g id="admin" transform="translate(-155.287 -789.151)">
    <g id="ic_header_perfil_hover" transform="translate(155.287 789.151)">
      <g id="Group_167" data-name="Group 167" transform="translate(0 0)">
        <g id="Group_166" data-name="Group 166">
          <g id="Group_162" data-name="Group 162" transform="translate(0 11.456)">
            <g id="Group_161" data-name="Group 161">
              <g id="Group_160" data-name="Group 160">
                <path id="Path_102" data-name="Path 102" d="M1098.311,259.009a.6.6,0,0,0-.815.108c-.233.216-.116.541.116.758,2.212,1.407,3.726,2.6,4.192,4.978a2.649,2.649,0,0,1-.233,2.273c-.815.866-3.493.866-8.15.866h-1.164c-4.657,0-7.451,0-8.15-.866-.349-.325-.349-1.082-.116-2.273.466-2.272,1.746-3.355,4.191-4.978.233-.216.349-.541.117-.758a.6.6,0,0,0-.815-.108c-2.329,1.515-4.075,2.814-4.657,5.627-.233,1.19-.349,2.273.349,3.138,1.048,1.19,3.726,1.19,9.082,1.19h1.164c5.239,0,7.917,0,8.965-1.19a3.578,3.578,0,0,0,.466-3.138C1102.385,261.931,1100.639,260.524,1098.311,259.009Z" transform="translate(-1082.188 -258.468)" fill="#ff3646"/>
                <path id="Path_103" data-name="Path 103" d="M1093.485,269.538h-1.164c-5.472,0-8.15,0-9.431-1.407a4.013,4.013,0,0,1-.466-3.463c.582-3.03,2.445-4.437,4.89-5.952a1.017,1.017,0,0,1,.815-.108c.233,0,.466.216.7.433a.847.847,0,0,1-.233,1.3c-2.445,1.515-3.609,2.6-3.958,4.653-.233.974-.233,1.623,0,1.84.582.649,3.609.649,7.8.649h1.164c4.191,0,7.1,0,7.8-.649.233-.216.233-.866.116-1.948-.349-2.272-1.746-3.246-3.959-4.653a.86.86,0,0,1-.233-1.3,1.074,1.074,0,0,1,.7-.433,2.119,2.119,0,0,1,.815.108c2.445,1.515,4.308,3.03,4.89,5.952.233,1.3.349,2.489-.582,3.463C1101.635,269.538,1098.957,269.538,1093.485,269.538Zm-5.938-10.5.233.325c-2.329,1.407-3.959,2.705-4.424,5.411-.233,1.082-.349,2.056.349,2.814.932,1.082,3.726,1.082,8.732,1.082h1.164c4.89,0,7.684,0,8.616-1.082a3.249,3.249,0,0,0,.349-2.814c-.466-2.6-2.1-3.9-4.424-5.411h-.116c-.116.108-.116.108,0,.216,2.329,1.407,3.959,2.705,4.308,5.3.233,1.407.116,2.164-.349,2.6-.931.974-3.609.974-8.5.974h-1.164c-4.89,0-7.568,0-8.5-.974-.466-.541-.466-1.3-.233-2.6.466-2.381,1.863-3.679,4.308-5.3,0,0,.116-.108,0-.108Z" transform="translate(-1082.253 -258.5)" fill="#ff3646"/>
              </g>
            </g>
          </g>
          <g id="Group_165" data-name="Group 165" transform="translate(4.712)">
            <g id="Group_164" data-name="Group 164">
              <g id="Group_163" data-name="Group 163">
                <path id="Path_104" data-name="Path 104" d="M1092.172,249.2a5.212,5.212,0,0,0-5.472,5.411c0,3.355,2.678,6.6,5.472,6.6s5.472-3.246,5.472-6.6A5.149,5.149,0,0,0,1092.172,249.2Zm0,10.93c-2.212,0-4.424-2.705-4.424-5.519a4.123,4.123,0,0,1,4.424-4.329,4.246,4.246,0,0,1,4.424,4.329C1096.6,257.316,1094.385,260.13,1092.172,260.13Z" transform="translate(-1086.234 -248.767)" fill="#ff3646"/>
                <path id="Path_105" data-name="Path 105" d="M1092.238,261.678c-3.027,0-5.938-3.463-5.938-7.034a5.753,5.753,0,0,1,5.938-5.844,5.686,5.686,0,0,1,5.938,5.844C1098.292,258.215,1095.265,261.678,1092.238,261.678Zm0-12.012a4.8,4.8,0,0,0-5.006,4.978c0,3.138,2.445,6.168,5.006,6.168s5.006-3.138,5.006-6.168A4.678,4.678,0,0,0,1092.238,249.666Zm0,10.93c-2.445,0-4.89-2.922-4.89-5.952a4.6,4.6,0,0,1,4.89-4.761,4.66,4.66,0,0,1,4.89,4.761C1097.128,257.565,1094.683,260.6,1092.238,260.6Zm0-9.848a3.771,3.771,0,0,0-3.958,3.9c0,2.489,1.979,5.086,3.958,5.086,1.863,0,3.959-2.705,3.959-5.086A3.771,3.771,0,0,0,1092.238,250.748Z" transform="translate(-1086.3 -248.8)" fill="#ff3646"/>
              </g>
            </g>
          </g>
        </g>
      </g>
    </g>
    <g id="Ellipse_109" data-name="Ellipse 109" transform="translate(169 802.959)" fill="#fff" stroke="#ff3646" stroke-width="1.3">
      <circle cx="5" cy="5" r="5" stroke="none"/>
      <circle cx="5" cy="5" r="4.35" fill="none"/>
    </g>
    <path id="Path_2137" data-name="Path 2137" d="M278.4,154.144l.458-.564,2.523-3.106a.494.494,0,1,1,.776.612q-.586.723-1.176,1.443l-2.145,2.629a.492.492,0,0,1-.756.047q-.752-.741-1.5-1.485a.492.492,0,0,1,.6-.772.668.668,0,0,1,.108.088q.537.529,1.072,1.06A.551.551,0,0,1,278.4,154.144Z" transform="translate(-105.412 655.44)" fill="#ff3646" stroke="#ff3646" stroke-width="0.2"/>
  </g>
</svg>
