<svg xmlns="http://www.w3.org/2000/svg" viewBox="-2764.713 1923 21.889 29">
  <defs>
    <style>
      .cls-1 {
        fill: none;
        stroke: #ff3646;
        stroke-miterlimit: 10;
        stroke-width: 2px;
      }
    </style>
  </defs>
  <g id="Group_798" data-name="Group 798" transform="translate(-2764.713 1923)">
    <path id="Path_445" data-name="Path 445" class="cls-1" d="M19.341,28H2.548A1.566,1.566,0,0,1,1,26.426V2.574A1.566,1.566,0,0,1,2.548,1H19.341a1.566,1.566,0,0,1,1.548,1.574V26.426A1.566,1.566,0,0,1,19.341,28Z" transform="translate(0 0)"/>
    <ellipse id="Ellipse_19" data-name="Ellipse 19" class="cls-1" cx="6.346" cy="6.455" rx="6.346" ry="6.455" transform="translate(4.637 10.84)"/>
    <line id="Line_25" data-name="Line 25" class="cls-1" x2="19.889" transform="translate(1 7.14)"/>
    <line id="Line_26" data-name="Line 26" class="cls-1" x2="1.857" transform="translate(3.399 4.07)"/>
    <line id="Line_27" data-name="Line 27" class="cls-1" x2="1.857" transform="translate(6.417 4.07)"/>
    <path id="Path_446" data-name="Path 446" class="cls-1" d="M5.7,21.563c1.7-.787,3.869-1.5,6.036,0,2.476,1.732,5.262.315,6.655-.63" transform="translate(-1.063 -4.19)"/>
  </g>
</svg>
