<svg xmlns="http://www.w3.org/2000/svg" viewBox="0 0 59 59"><defs><style>.a{fill:none;}.b{fill:#fff;stroke:#fff;}</style></defs><g transform="translate(-540 -658)"><circle class="a" cx="29.5" cy="29.5" r="29.5" transform="translate(540 658)"/><g transform="translate(555.714 673.336)"><path class="b" d="M20.342,24.664a9.584,9.584,0,0,0,1.211-.075l.226-.029.133-.185a10.65,10.65,0,0,0,1.693-5.8l.007-.245-.183-.163A10.685,10.685,0,0,0,16.879,15.7l-.171,0-.138.1a15.35,15.35,0,0,0-2.1,2.142,10.351,10.351,0,0,1-2.936-2.691,10.357,10.357,0,0,1-2.074-3.4,15.471,15.471,0,0,0,2.508-1.65l.127-.115.035-.167a10.716,10.716,0,0,0-1.158-6.9l-.125-.213-.243-.04a13.31,13.31,0,0,0-6.526.853l-.207.094L3.8,3.929c-.947,2.815-.213,8.027,4.7,14.236C13.241,23.72,17.8,24.664,20.342,24.664ZM4.724,4.483a12.653,12.653,0,0,1,5.461-.715,9.852,9.852,0,0,1,.946,5.766,14.886,14.886,0,0,1-2.483,1.545l-.363.159.054.392a9.587,9.587,0,0,0,2.379,4.29,9.586,9.586,0,0,0,3.749,3.162l.375.128.226-.325a15.006,15.006,0,0,1,2-2.137A9.851,9.851,0,0,1,22.544,18.8a9.636,9.636,0,0,1-1.357,4.775c-2.028.2-6.791-.117-11.884-6.074C4.8,11.8,4.016,6.988,4.724,4.483Z" transform="translate(0 0)"/></g></g></svg>