<svg xmlns="http://www.w3.org/2000/svg" viewBox="121.117 289.97 24.134 24.134">
  <defs>
    <style>
      .cls-1 {
        fill: #ff3646;
        stroke: #ff3646;
      }
    </style>
  </defs>
  <g id="Group_352" data-name="Group 352" transform="translate(121.617 290.47)">
    <g id="noun_323929_cc">
      <path id="Path_237" data-name="Path 237" class="cls-1" d="M20.234,32.8A11.567,11.567,0,1,1,31.8,21.232,11.58,11.58,0,0,1,20.234,32.8Zm0-21.993A10.426,10.426,0,1,0,30.66,21.232,10.438,10.438,0,0,0,20.234,10.806Z" transform="translate(-8.667 -9.665)"/>
      <path id="Path_238" data-name="Path 238" class="cls-1" d="M54.579,54.981l-2.5-2.5L54.4,50.157a1.124,1.124,0,0,0-1.589-1.589L50.487,50.89l-2.435-2.436a1.124,1.124,0,0,0-1.589,1.589L48.9,52.479l-2.616,2.616a1.124,1.124,0,0,0,1.589,1.589l2.616-2.616,2.5,2.5a1.124,1.124,0,1,0,1.589-1.589Z" transform="translate(-38.864 -40.812)"/>
    </g>
  </g>
</svg>
