<svg xmlns="http://www.w3.org/2000/svg" viewBox="-2763 2028 23.5 23.5">
  <defs>
    <style>
      .cls-1 {
        fill: #ff3646;
      }
    </style>
  </defs>
  <g id="Group_804" data-name="Group 804" transform="translate(-2763 2028)">
    <path id="Path_449" data-name="Path 449" class="cls-1" d="M13,23.5H10.4a1.752,1.752,0,0,1-1.7-1.7V20.1L8,19.8,6.8,21a1.825,1.825,0,0,1-2.4,0L2.6,19.2A1.76,1.76,0,0,1,2,17.9a1.656,1.656,0,0,1,.5-1.2l1.2-1.2-.3-.8H1.7A1.685,1.685,0,0,1,0,13V10.4A1.752,1.752,0,0,1,1.7,8.7H3.4L3.7,8,2.5,6.8A2.078,2.078,0,0,1,2,5.6a1.656,1.656,0,0,1,.5-1.2L4.3,2.6a1.825,1.825,0,0,1,2.4,0L7.9,3.8l.8-.3V1.8A1.859,1.859,0,0,1,10.5,0H13a1.752,1.752,0,0,1,1.7,1.7V3.4l.8.3,1.2-1.1A1.729,1.729,0,0,1,17.9,2h0a1.656,1.656,0,0,1,1.2.5L21,4.4a1.69,1.69,0,0,1,0,2.4L19.8,8l.3.8h1.7a1.752,1.752,0,0,1,1.7,1.7V13a1.752,1.752,0,0,1-1.7,1.7H20.1l-.3.8,1.1,1.2a1.69,1.69,0,0,1,0,2.4L19.2,21a1.825,1.825,0,0,1-2.4,0l-1.2-1.2-.8.3v1.7A1.844,1.844,0,0,1,13,23.5Zm-2.2-2h2V20.1a2.215,2.215,0,0,1,1.3-1.9l.7-.3a1.884,1.884,0,0,1,.8-.2,1.816,1.816,0,0,1,1.4.6l1,1,1.4-1.4-1-1a2.179,2.179,0,0,1-.4-2.3l.3-.7a1.96,1.96,0,0,1,1.8-1.3h1.4v-2H20.1a2.149,2.149,0,0,1-1.9-1.4L18,8.7a2.014,2.014,0,0,1,.4-2.2l1-1L18,4.1l-1,1a2.179,2.179,0,0,1-2.3.4L14,5.2a1.96,1.96,0,0,1-1.3-1.8V2h-2V3.4A2.215,2.215,0,0,1,9.4,5.3l-.7.2a1.884,1.884,0,0,1-.8.2,1.816,1.816,0,0,1-1.4-.6l-1-1L4.2,5.6l1,1a2.179,2.179,0,0,1,.4,2.3l-.4.6a1.96,1.96,0,0,1-1.8,1.3H2v2H3.4a2.215,2.215,0,0,1,1.9,1.3l.3.7A2.014,2.014,0,0,1,5.2,17l-1,1,1.4,1.4,1-1A2.179,2.179,0,0,1,8.9,18l.7.3a1.96,1.96,0,0,1,1.3,1.8v1.4Zm1-5.4a4.4,4.4,0,1,1,4.4-4.4,4.439,4.439,0,0,1-4.4,4.4Zm0-6.7a2.4,2.4,0,1,0,2.4,2.4,2.433,2.433,0,0,0-2.4-2.4Z"/>
  </g>
</svg>
