<svg xmlns="http://www.w3.org/2000/svg" xmlns:xlink="http://www.w3.org/1999/xlink" viewBox="0 0 1175.613 782.499" width="1175.613" height="782.499"><defs><style>.a{fill:#fff;}.b{filter:url(#a);}</style><filter id="a" x="0" y="0" width="1175.613" height="782.499" filterUnits="userSpaceOnUse"><feOffset dy="7" input="SourceAlpha"/><feGaussianBlur stdDeviation="3" result="b"/><feFlood flood-opacity="0.161"/><feComposite operator="in" in2="b"/><feComposite in="SourceGraphic"/></filter></defs><g class="b" transform="matrix(1, 0, 0, 1, 0, 0)"><path class="a" d="M-668.39-8340.5H-1806a10.013,10.013,0,0,1-10-10v-312.115c.657.025,1.33.039,2,.039a51.361,51.361,0,0,0,20.96-4.438,53.081,53.081,0,0,0,9.147-5.207,54.89,54.89,0,0,0,7.97-6.9,56.317,56.317,0,0,0,6.575-8.358,57.406,57.406,0,0,0,4.965-9.593,58.5,58.5,0,0,0,4.232-21.984,58.489,58.489,0,0,0-4.232-21.981,57.329,57.329,0,0,0-4.965-9.593,56.35,56.35,0,0,0-6.575-8.359,54.89,54.89,0,0,0-7.97-6.9,53.113,53.113,0,0,0-9.147-5.207,51.363,51.363,0,0,0-20.96-4.438c-.664,0-1.338.014-2,.039V-9095a10.012,10.012,0,0,1,10-10H-668.39a10.012,10.012,0,0,1,10,10v319.469h-.008a51.356,51.356,0,0,0-20.953,4.438,53.112,53.112,0,0,0-9.148,5.207,54.856,54.856,0,0,0-7.97,6.9,56.279,56.279,0,0,0-6.576,8.359,57.334,57.334,0,0,0-4.965,9.593,58.489,58.489,0,0,0-4.232,21.981,58.5,58.5,0,0,0,4.232,21.984,57.4,57.4,0,0,0,4.965,9.593,56.289,56.289,0,0,0,6.576,8.358,54.856,54.856,0,0,0,7.97,6.9,53.1,53.1,0,0,0,9.148,5.207,51.366,51.366,0,0,0,20.962,4.438V-8350.5A10.013,10.013,0,0,1-668.39-8340.5Z" transform="translate(1825 9107)"/></g></svg>
