<svg xmlns="http://www.w3.org/2000/svg" viewBox="-304 2242 22.339 22.338">
  <defs>
    <style>
      .cls-1 {
        fill: #fff;
      }
    </style>
  </defs>
  <g id="Group_837" data-name="Group 837" transform="translate(-303.961 2242.038)">
    <g id="Group_835" data-name="Group 835">
      <path id="Path_458" data-name="Path 458" class="cls-1" d="M7.6,22.3h0a1.087,1.087,0,0,1-1-.7L0,1.3A1.093,1.093,0,0,1,.2.3,1.254,1.254,0,0,1,1.3,0L21.6,6.6a.961.961,0,0,1,.7.9,1.1,1.1,0,0,1-.6,1l-9.4,3.8L8.5,21.7a.875.875,0,0,1-.9.6ZM2.6,2.6,7.7,18.4l2.9-7.2a.9.9,0,0,1,.6-.6l7.2-2.9L2.6,2.6Z"/>
    </g>
    <g id="Group_836" data-name="Group 836">
      <path id="Path_459" data-name="Path 459" class="cls-1" d="M11.5,12.5a.908.908,0,0,1-.7-.3L.3,1.7A.967.967,0,0,1,.3.3.967.967,0,0,1,1.7.3L12.2,10.8a.967.967,0,0,1,0,1.4.779.779,0,0,1-.7.3Z"/>
    </g>
  </g>
</svg>
