<svg xmlns="http://www.w3.org/2000/svg" viewBox="-2345 1865 25.462 24.225">
  <defs>
    <style>
      .cls-1 {
        fill: #fff;
      }
    </style>
  </defs>
  <g id="Group_814" data-name="Group 814" transform="translate(-2344.974 1865.1)">
    <g id="Group_811" data-name="Group 811">
      <path id="Path_454" data-name="Path 454" class="cls-1" d="M19.8,24.1a1.421,1.421,0,0,1-.6-.2l-6.6-4.8L6,23.9a.913.913,0,0,1-1.2,0,1.19,1.19,0,0,1-.4-1.1L7,15.1.4,10.3A1.286,1.286,0,0,1,0,9.1a.993.993,0,0,1,1-.7H9.2L11.7.6a.993.993,0,0,1,1-.7,1.2,1.2,0,0,1,1,.7l2.5,7.8h8.2a1.2,1.2,0,0,1,1,.7.949.949,0,0,1-.4,1.1L18.4,15l2.5,7.8a.949.949,0,0,1-.4,1.1,1.078,1.078,0,0,1-.7.2Zm-7.2-7.2a1.421,1.421,0,0,1,.6.2l4.7,3.4L16.1,15a.949.949,0,0,1,.4-1.1l4.7-3.4H15.4a1.2,1.2,0,0,1-1-.7L12.6,4.3,10.8,9.8a.993.993,0,0,1-1,.7H4.1l4.7,3.4A1,1,0,0,1,9.2,15L7.4,20.5l4.7-3.4a.764.764,0,0,1,.5-.2Z"/>
    </g>
  </g>
</svg>
