<svg xmlns="http://www.w3.org/2000/svg" width="24.615" height="23.587" viewBox="0 0 24.615 23.587">
  <path id="Path_2122" data-name="Path 2122" d="M-725.545,1477.48a1,1,0,0,1-.4.694q-2.513,2.072-5.026,4.145a1.051,1.051,0,0,0-.377,1.174c.534,2.036,1.06,4.075,1.594,6.111a1.082,1.082,0,0,1-.131.978,1.02,1.02,0,0,1-1.433.234c-.82-.519-1.636-1.043-2.454-1.566-.988-.631-1.982-1.254-2.962-1.9a1.07,1.07,0,0,0-1.284.008q-2.683,1.731-5.376,3.448a1.009,1.009,0,0,1-1.59-.559,1.292,1.292,0,0,1,.02-.635q.784-3.059,1.594-6.111a1.148,1.148,0,0,0-.425-1.3q-2.466-2.013-4.925-4.034a1.007,1.007,0,0,1-.375-1.152,1.012,1.012,0,0,1,.985-.7c2.126-.126,4.251-.258,6.377-.381a1.13,1.13,0,0,0,1.085-.794c.76-1.966,1.539-3.924,2.309-5.886a1.162,1.162,0,0,1,.509-.641,1.018,1.018,0,0,1,1.461.553c.293.725.571,1.455.856,2.183.5,1.28,1,2.559,1.5,3.841a1.088,1.088,0,0,0,1.042.758q3.168.18,6.335.382A1.056,1.056,0,0,1-725.545,1477.48Z" transform="translate(749.66 -1467.974)" fill="none" stroke="#707070" stroke-width="1"/>
</svg>
