<svg xmlns="http://www.w3.org/2000/svg" xmlns:xlink="http://www.w3.org/1999/xlink" viewBox="0 0 1783 1087" width="1783" height="1087"><defs><style>.a,.d,.e{fill:#fff;}.a,.c{stroke:#707070;}.b{clip-path:url(#a);}.c{fill:#ff3646;}.d{opacity:0.12;}.e{opacity:0.252;}.f{fill:#c20d19;opacity:0.179;}.g{stroke:none;}.h{fill:none;}</style><clipPath id="a"><rect class="a" width="1783" height="1087"/></clipPath></defs><g class="b"><g class="c"><rect class="g" width="1783" height="1087"/><rect class="h" x="0.5" y="0.5" width="1782" height="1086"/></g><path class="d" d="M1793.328,10093.391,3680.281,9031.656H1812.563Z" transform="translate(-1813 -9051)"/><path class="e" d="M31.77,144.619c4.474,8.949,14,12.269,22.228,8.083,38.538-20.5,150.687-81.694,159.636-86.89,7.505-4.33,7.217-10.392,4.474-16.743-6.784-14.289-13.856-27.857-21.65-41.28-3.464-5.918-7.65-9.815-17.32-6.639C158.931,7.5,29.028,57.151,9.11,65.667,1.027,69.42-2.437,77.935,1.748,86.451c10.1,18.186,20.5,37.816,30.022,58.167" transform="translate(1647.037 438.505)"/><path class="f" d="M38.571,175.536C44,186.4,55.565,190.428,65.551,185.347c46.777-24.878,182.9-99.161,193.767-105.468,9.11-5.256,8.76-12.614,5.431-20.323C256.515,42.212,247.93,25.743,238.47,9.45c-4.2-7.183-9.285-11.913-21.024-8.059C192.919,9.1,35.242,69.367,11.065,79.7,1.254,84.259-2.95,94.6,2.13,104.932c12.264,22.075,24.878,45.9,36.441,70.6" transform="translate(-70.963 675.505)"/><path class="f" d="M38.571,175.536C44,186.4,55.565,190.428,65.551,185.347c46.777-24.878,182.9-99.161,193.767-105.468,9.11-5.256,8.76-12.614,5.431-20.323C256.515,42.212,247.93,25.743,238.47,9.45c-4.2-7.183-9.285-11.913-21.024-8.059C192.919,9.1,35.242,69.367,11.065,79.7,1.254,84.259-2.95,94.6,2.13,104.932c12.264,22.075,24.878,45.9,36.441,70.6" transform="translate(1085.037 863.505)"/></g></svg>
