<svg xmlns="http://www.w3.org/2000/svg" width="98.192" height="24.305" viewBox="0 0 98.192 24.305"><g transform="translate(-1044.344 -581.26)"><rect width="98.192" height="24.305" rx="4" transform="translate(1044.344 581.26)"/><g transform="translate(1051.15 586.121)"><path d="M1547.314-471.189c-.02-.38-.04-.76-.061-1.14a.5.5,0,0,0-.022-.108c-.1-.354-.283-.451-.587-.252a.748.748,0,0,1-1.17-.6,2.9,2.9,0,0,1,.046-.724,13.987,13.987,0,0,1,1.032-3.01,21.39,21.39,0,0,1,1.816-3.237,4.8,4.8,0,0,1,1.819-1.665,4.4,4.4,0,0,1,3.056-.3,4.184,4.184,0,0,1,2.267,1.526,15.929,15.929,0,0,1,2.154,3.609,13.345,13.345,0,0,1,1.04,3.552,2.382,2.382,0,0,1-.083,1.213.787.787,0,0,1-1,.533c-.1-.022-.2-.049-.3-.071-.184-.042-.275-.016-.324.161a2.135,2.135,0,0,0-.084.635,2.836,2.836,0,0,1-.186,1.3,2.03,2.03,0,0,1-.558.827.584.584,0,0,1-.879-.084c-.123-.153-.212-.334-.322-.5a1.77,1.77,0,0,0-.247-.329.358.358,0,0,0-.6.09c-.117.212-.191.448-.291.669a7.933,7.933,0,0,1-.353.733,1,1,0,0,1-1.268.514,1.233,1.233,0,0,1-.725-.608c-.164-.3-.286-.618-.441-.921a4.439,4.439,0,0,0-.38-.638.411.411,0,0,0-.623-.092,4.105,4.105,0,0,0-.453.384c-.185.173-.354.364-.543.533a.927.927,0,0,1-1.547-.3,2.428,2.428,0,0,1-.238-1.26c.008-.147.018-.294.027-.441Zm9.189.121a3.655,3.655,0,0,1,.086-.666.635.635,0,0,1,.841-.5c.076.02.153.037.23.054.383.085.6-.044.639-.437a3.982,3.982,0,0,0-.009-1.015,13.687,13.687,0,0,0-1.481-4.315,16.286,16.286,0,0,0-1.264-2.076,5.858,5.858,0,0,0-1.108-1.194,3.818,3.818,0,0,0-2.829-.728,3.882,3.882,0,0,0-2.695,1.609,15.713,15.713,0,0,0-1.43,2.314,15.556,15.556,0,0,0-1.575,4.083,2.078,2.078,0,0,0-.052.532c.023.429.262.554.637.349a.678.678,0,0,1,1.049.359,2.5,2.5,0,0,1,.144.807c.011.436-.035.873-.043,1.31a1.7,1.7,0,0,0,.3,1.083.444.444,0,0,0,.632.146,2.028,2.028,0,0,0,.371-.283c.281-.253.541-.53.837-.764a.774.774,0,0,1,.978-.04,1.422,1.422,0,0,1,.369.4c.159.273.279.569.419.854a4.786,4.786,0,0,0,.327.622.7.7,0,0,0,1.26-.01,7.414,7.414,0,0,0,.334-.7,6.674,6.674,0,0,1,.294-.668.77.77,0,0,1,1.348-.062c.153.206.272.438.418.65.157.228.289.233.48.035a.593.593,0,0,0,.053-.064A2.25,2.25,0,0,0,1556.5-471.069Z" transform="translate(-1545.469 482.367)"/><path d="M1563.163-464.287a2.268,2.268,0,0,1-.441,1.709.588.588,0,0,1-.053.065c-.193.2-.327.195-.486-.035-.148-.214-.268-.448-.423-.656a.78.78,0,0,0-1.364.063,6.631,6.631,0,0,0-.3.675,7.47,7.47,0,0,1-.338.7.709.709,0,0,1-1.275.01,4.788,4.788,0,0,1-.331-.628c-.142-.287-.263-.586-.424-.863a1.434,1.434,0,0,0-.374-.409.785.785,0,0,0-.99.04c-.3.236-.562.517-.846.772a2.044,2.044,0,0,1-.376.286.45.45,0,0,1-.64-.147,1.712,1.712,0,0,1-.307-1.094c.009-.441.055-.883.044-1.323a2.534,2.534,0,0,0-.146-.816.687.687,0,0,0-1.062-.363c-.379.207-.621.082-.645-.352a2.078,2.078,0,0,1,.053-.538,15.706,15.706,0,0,1,1.594-4.125,15.861,15.861,0,0,1,1.447-2.337,3.93,3.93,0,0,1,2.727-1.626,3.87,3.87,0,0,1,2.863.736,5.917,5.917,0,0,1,1.121,1.206,16.443,16.443,0,0,1,1.279,2.1,13.818,13.818,0,0,1,1.5,4.359,4.029,4.029,0,0,1,.009,1.025c-.038.4-.259.527-.646.441-.078-.017-.156-.034-.232-.055a.642.642,0,0,0-.85.507A3.669,3.669,0,0,0,1563.163-464.287Zm-6.609-3.517c-.01.241.139.344.33.26a.924.924,0,0,0,.121-.07c.248-.157.342-.138.507.106.024.035.039.081.071.1a.713.713,0,0,0,.236.12.44.44,0,0,0,.393-.171.513.513,0,0,1,.855.007c.046.046.094.091.136.141.208.248.38.129.49-.074.015-.028.025-.06.038-.09.139-.315.361-.373.649-.176a1.244,1.244,0,0,0,.294.158.272.272,0,0,0,.217-.014c.037-.028.041-.14.019-.2-.12-.316-.24-.634-.385-.94-.191-.406-.458-.417-.715-.048a1.384,1.384,0,0,1-.194.236.277.277,0,0,1-.455-.048c-.044-.06-.081-.125-.121-.188-.135-.209-.261-.244-.465-.1a4.74,4.74,0,0,0-.409.358.309.309,0,0,1-.522-.036c-.03-.036-.059-.072-.091-.106a.307.307,0,0,0-.439-.072A1.209,1.209,0,0,0,1556.554-467.8Zm-.451-3.064a.549.549,0,0,0,.558.6.81.81,0,0,0,.747-.436.862.862,0,0,0,0-.926.5.5,0,0,0-.774-.174A1.247,1.247,0,0,0,1556.1-470.868Zm3.582-.267a.913.913,0,0,0,.339.69.61.61,0,0,0,.706.088.693.693,0,0,0,.38-.777c-.1-.388-.509-.772-.807-.761-.014,0-.028,0-.042,0A.731.731,0,0,0,1559.686-471.135Z" transform="translate(-1552.073 475.626)" fill="#fff"/><path d="M1626.505-360.655a.979.979,0,0,1,.449-.682.245.245,0,0,1,.352.058c.026.027.05.056.074.085a.247.247,0,0,0,.42.029,3.748,3.748,0,0,1,.329-.29c.164-.117.265-.089.374.08.032.051.062.1.1.152a.222.222,0,0,0,.366.039,1.124,1.124,0,0,0,.156-.191c.207-.3.421-.29.574.039.116.248.213.5.309.761.018.048.015.139-.015.161a.218.218,0,0,1-.175.011.991.991,0,0,1-.236-.128c-.231-.159-.41-.112-.522.143-.011.024-.018.05-.031.073-.088.165-.226.261-.393.06-.033-.04-.072-.076-.109-.114a.41.41,0,0,0-.687-.006.353.353,0,0,1-.316.139.571.571,0,0,1-.19-.1c-.026-.017-.038-.055-.057-.083-.132-.2-.208-.213-.407-.086a.739.739,0,0,1-.1.057C1626.617-360.376,1626.5-360.46,1626.505-360.655Z" transform="translate(-1621.597 368.431)"/><path d="M1618.5-413.769a1.012,1.012,0,0,1,.424-.759.4.4,0,0,1,.622.141.7.7,0,0,1,0,.75.65.65,0,0,1-.6.353A.443.443,0,0,1,1618.5-413.769Z" transform="translate(-1614.353 418.45)"/><path d="M1682.208-413.562a.591.591,0,0,1,.462-.611l.034,0c.24-.009.566.3.648.616a.562.562,0,0,1-.305.63.487.487,0,0,1-.567-.071A.742.742,0,0,1,1682.208-413.562Z" transform="translate(-1674.439 418.028)"/></g><text transform="translate(1104 597)" fill="#ffa700" font-size="12" font-family="Lato-Bold, Lato" font-weight="700"><tspan x="-28.911" y="0">Halloween</tspan></text></g></svg>