<svg xmlns="http://www.w3.org/2000/svg" width="24.062" height="18.917" viewBox="0 0 24.062 18.917">
  <g id="ic_banner_admin" transform="translate(-1572.23 580.521)">
    <path id="Path_2530" data-name="Path 2530" d="M1584.275-580.52h9.072a2.8,2.8,0,0,1,2.859,2.175,2.966,2.966,0,0,1,.08.767q.007,6.519,0,13.039a2.827,2.827,0,0,1-2.954,2.934q-9.072,0-18.145,0a2.833,2.833,0,0,1-2.912-2.368,4.008,4.008,0,0,1-.044-.636q0-6.451,0-12.9a2.877,2.877,0,0,1,1.175-2.468,2.825,2.825,0,0,1,1.729-.542Q1579.7-580.516,1584.275-580.52Zm-6.144,10.38c-.038.036-.067.06-.092.087-1.4,1.509-2.8,3.022-4.2,4.525a.746.746,0,0,0-.252.662,4.31,4.31,0,0,0,.162,1.044,1.478,1.478,0,0,0,1.5.866q9.014-.006,18.028,0c.1,0,.2,0,.3-.009a1.433,1.433,0,0,0,1.342-1.318c.038-.91.018-1.822.032-2.733a.479.479,0,0,0-.172-.393q-3.36-3.146-6.714-6.3l-.255-.237-.3.313q-2.648,2.812-5.3,5.624a.719.719,0,0,1-1.071.1c-.441-.323-.879-.65-1.319-.975Zm16.792,1c.006-.127.014-.2.014-.272q0-4.057,0-8.114a2.175,2.175,0,0,0-.049-.5,1.5,1.5,0,0,0-1.591-1.153q-9.026,0-18.052,0a1.957,1.957,0,0,0-.518.055,1.494,1.494,0,0,0-1.139,1.581q0,5.014,0,10.029v.194l.065.042a1.51,1.51,0,0,1,.126-.183q1.819-1.966,3.641-3.928a.735.735,0,0,1,1.183-.117l1.189.883,1.766,1.31.26-.273q2.68-2.845,5.361-5.69a.7.7,0,0,1,1.172-.04q2.036,1.911,4.07,3.824C1593.238-570.715,1594.058-569.947,1594.923-569.136Z" fill="#ff3646"/>
    <path id="Path_2531" data-name="Path 2531" d="M1639.2-539.909a2.824,2.824,0,0,1-2.83-2.864,2.824,2.824,0,0,1,2.843-2.8,2.839,2.839,0,0,1,2.825,2.852A2.838,2.838,0,0,1,1639.2-539.909Zm1.483-2.845a1.489,1.489,0,0,0-1.516-1.465,1.481,1.481,0,0,0-1.452,1.479,1.524,1.524,0,0,0,1.505,1.49A1.517,1.517,0,0,0,1640.679-542.754Z" transform="translate(-58.288 -31.757)" fill="#ff3646"/>
  </g>
</svg>
