<svg xmlns="http://www.w3.org/2000/svg" width="26.309" height="20.875" viewBox="0 0 26.309 20.875"><g transform="translate(-644.87 -393.048)"><path d="M654.709,407.069c.05.111.085.192.124.272q.871,1.8,1.744,3.6a1.835,1.835,0,0,1-.129,2.007,1.8,1.8,0,0,1-2.994-.173c-.522-.977-.982-1.988-1.469-2.985l-1.023-2.092c-.376.092-.754.181-1.131.276a3.547,3.547,0,0,1-3.842-1.163,3.586,3.586,0,0,1,1.912-5.788c.934-.251,1.874-.481,2.81-.724a12.209,12.209,0,0,0,4.658-2.5,23.482,23.482,0,0,0,3.43-3.5c.113-.141.206-.3.312-.446a1.134,1.134,0,0,1,1.627-.313,3.934,3.934,0,0,1,1.208,1.282,16.33,16.33,0,0,1,1.79,4.063,23.62,23.62,0,0,1,1.215,7.323,5.735,5.735,0,0,1-.342,2.113,2.316,2.316,0,0,1-.456.736,1.1,1.1,0,0,1-1.34.156c-.849-.384-1.695-.783-2.569-1.1a15.978,15.978,0,0,0-5.251-1.046C654.911,407.068,654.829,407.069,654.709,407.069Zm3.8-11.184a23.194,23.194,0,0,1-4.2,3.691,14,14,0,0,1-5.212,1.933l1.335,5.537a14.877,14.877,0,0,1,5.524-.722,21.106,21.106,0,0,1,5.387,1.349A24.806,24.806,0,0,1,658.506,395.885Zm5.739,9.88-.063-.009a23.963,23.963,0,0,0-1.153-6.556,15.262,15.262,0,0,0-1.788-4.007,4.852,4.852,0,0,0-.8-.916c-.34-.3-.583-.224-.789.184a1.917,1.917,0,0,0-.141.374,10.312,10.312,0,0,0-.128,3.631.254.254,0,0,0,.167.162,2.337,2.337,0,0,1,1.352.891,4.882,4.882,0,0,1,1.035,3.441,2.565,2.565,0,0,1-.881,1.923.266.266,0,0,0-.04.247c.317.679.621,1.366.981,2.023a3.5,3.5,0,0,0,1.135,1.344.374.374,0,0,0,.608-.131,1.505,1.505,0,0,0,.214-.5C664.064,407.166,664.15,406.464,664.246,405.764Zm-15.9-4.051a2.822,2.822,0,0,0-2.221,1.795,2.681,2.681,0,0,0,.627,3,2.814,2.814,0,0,0,2.921.706Zm4.845,8.8c.31.63.593,1.243.914,1.836a1.137,1.137,0,0,0,.458.436.989.989,0,0,0,1.159-.172,1.038,1.038,0,0,0,.226-1.2c-.123-.283-.267-.556-.4-.833-.149-.3-.3-.608-.453-.921Zm1.566-1.556c-.291-.6-.566-1.179-.855-1.75a.25.25,0,0,0-.213-.085c-.646.109-1.29.231-1.972.357l1.138,2.342Zm4.744-9.534a26.7,26.7,0,0,0,1.155,4.75C661.724,403.12,661.019,399.95,659.5,399.427Z" transform="translate(0)" fill="#ff3646" stroke="#ff3646" stroke-width="0.5"/><path d="M792.666,395.771a1.721,1.721,0,0,1-.234.351q-1.088.938-2.191,1.859a.409.409,0,0,1-.582-.007.4.4,0,0,1,.08-.576c.74-.634,1.479-1.269,2.235-1.884a.55.55,0,0,1,.435-.045C792.507,395.5,792.569,395.65,792.666,395.771Z" transform="translate(-124.635 -1.826)" fill="#ff3646" stroke="#ff3646" stroke-width="0.5"/><path d="M810.349,475.28l-.869-.215c-.614-.151-1.229-.3-1.842-.454-.273-.068-.4-.253-.351-.483s.251-.335.531-.268q1.347.324,2.691.662a.387.387,0,0,1,.328.433A.418.418,0,0,1,810.349,475.28Z" transform="translate(-139.916 -69.478)" fill="#ff3646" stroke="#ff3646" stroke-width="0.5"/><path d="M803.942,436.888c-.261-.007-.413-.1-.451-.309a.34.34,0,0,1,.257-.425q1.281-.331,2.568-.639a.349.349,0,0,1,.431.255.328.328,0,0,1-.194.456C805.669,436.466,804.779,436.679,803.942,436.888Z" transform="translate(-136.643 -36.394)" fill="#ff3646" stroke="#ff3646" stroke-width="0.5"/></g></svg>