<svg xmlns="http://www.w3.org/2000/svg" viewBox="0 0 27.239 27"><defs><style>.a{fill:#0fbbd8;}.b{fill:#fff;}</style></defs><g transform="translate(-1367.761 -337)"><ellipse class="a" cx="13.619" cy="13.5" rx="13.619" ry="13.5" transform="translate(1367.761 337)"/><path class="b" d="M34.5,42.041a.774.774,0,0,1-.542-.2L30.7,38.614a.811.811,0,0,1,0-1.075.829.829,0,0,1,1.085,0L34.5,40.227,42.091,32.7a.829.829,0,0,1,1.085,0,.811.811,0,0,1,0,1.075l-8.134,8.062a.774.774,0,0,1-.542.2" transform="translate(1344.765 313.472)"/></g></svg>