<svg xmlns="http://www.w3.org/2000/svg" width="11.543" height="11.543" viewBox="0 0 11.543 11.543"><path d="M-576.138,1105.688c.041-.05.067-.087.1-.118q2.1-2.106,4.21-4.211a.926.926,0,0,1,.543-.3.837.837,0,0,1,.814.434.772.772,0,0,1-.087.891c-.046.053-.094.105-.144.155l-4.215,4.222c-.021.021-.045.038-.088.074a1.109,1.109,0,0,1,.108.082q2.117,2.117,4.235,4.234a.806.806,0,0,1,.251.875.811.811,0,0,1-1.285.383,1.966,1.966,0,0,1-.148-.135l-4.219-4.218a1.143,1.143,0,0,1-.075-.092c-.036.044-.06.079-.088.107q-2.122,2.12-4.243,4.241a.829.829,0,0,1-.725.279.833.833,0,0,1-.689-1.019.957.957,0,0,1,.271-.425l4.219-4.218c.031-.031.069-.056.126-.1a1.369,1.369,0,0,1-.124-.1l-4.216-4.221a.956.956,0,0,1-.274-.423.823.823,0,0,1,.365-.906.784.784,0,0,1,.949.072c.045.039.087.081.129.123l4.214,4.208C-576.2,1105.608-576.18,1105.639-576.138,1105.688Z" transform="translate(581.913 -1101.053)" fill="#fff"/></svg>