<svg xmlns="http://www.w3.org/2000/svg" viewBox="0 0 65.372 61.885"><defs><style>.a{fill:#fff;stroke:#707070;}.b{fill:none;}.c{fill:#707070;}.d{stroke:none;}</style></defs><g transform="translate(-462.081 -1180)"><g class="a" transform="translate(462.081 1180)"><rect class="d" width="65.372" height="61.885" rx="10"/><rect class="b" x="0.5" y="0.5" width="64.372" height="60.885" rx="9.5"/></g><g transform="translate(467.411 1187)"><g transform="translate(0 0)"><path class="b" d="M4.567-2H50.242A4.581,4.581,0,0,1,54.81,2.567V26.318a4.581,4.581,0,0,1-4.567,4.567H4.567A4.581,4.581,0,0,1,0,26.318V2.567A4.581,4.581,0,0,1,4.567-2Z" transform="translate(0 2)"/><path class="c" d="M50.242,30.886H4.567A4.581,4.581,0,0,1,0,26.318V2.567A4.581,4.581,0,0,1,4.567-2H50.242A4.581,4.581,0,0,1,54.81,2.567V26.318A4.581,4.581,0,0,1,50.242,30.886ZM4.567-.63a3.178,3.178,0,0,0-3.2,3.2V26.318a3.178,3.178,0,0,0,3.2,3.2H50.242a3.178,3.178,0,0,0,3.2-3.2V2.567a3.178,3.178,0,0,0-3.2-3.2Z" transform="translate(0 2)"/><g transform="translate(3.197 6.623)"><rect class="c" width="48.415" height="1.37"/></g><g transform="translate(3.197 13.017)"><rect class="c" width="48.415" height="1.37"/></g><g transform="translate(3.197 19.412)"><rect class="c" width="48.415" height="1.37"/></g><g transform="translate(3.197 25.806)"><rect class="c" width="48.415" height="1.37"/></g><g transform="translate(19.914 15.758)"><path class="c" d="M7702.6,3635h15.119" transform="translate(-7702.6 -3634.315)"/><rect class="c" width="15.118" height="1.37"/></g><g transform="translate(31.059 2.74)"><g transform="translate(0 0)"><rect class="c" width="2.284" height="2.74"/></g><g transform="translate(0 0)"><path class="c" d="M2.284.74H0V-2H2.284ZM.457.284h1.37V-1.543H.457Z" transform="translate(0 2)"/></g></g><g transform="translate(31.059 9.135)"><g transform="translate(0 0)"><rect class="c" width="2.284" height="2.74"/></g><g transform="translate(0 0)"><path class="c" d="M2.284.74H0V-2H2.284ZM.457.284h1.37V-1.543H.457Z" transform="translate(0 2)"/></g></g><g transform="translate(31.059 21.467)"><g transform="translate(0 0)"><rect class="c" width="2.284" height="2.74"/></g><g transform="translate(0 0)"><path class="c" d="M2.284.74H0V-2H2.284ZM.457.284h1.37V-1.543H.457Z" transform="translate(0 2)"/></g></g><g transform="translate(31.059 27.862)"><g transform="translate(0 0)"><rect class="c" width="2.284" height="2.74"/></g><g transform="translate(0 0)"><path class="c" d="M2.284.74H0V-2H2.284ZM.457.284h1.37V-1.543H.457Z" transform="translate(0 2)"/></g></g><g transform="translate(21.467 2.74)"><g transform="translate(0 0)"><rect class="c" width="2.284" height="2.74"/></g><g transform="translate(0 0)"><path class="c" d="M2.284.74H0V-2H2.284ZM.457.284h1.37V-1.543H.457Z" transform="translate(0 2)"/></g></g><g transform="translate(21.467 9.135)"><g transform="translate(0 0)"><rect class="c" width="2.284" height="2.74"/></g><g transform="translate(0 0)"><path class="c" d="M2.284.74H0V-2H2.284ZM.457.284h1.37V-1.543H.457Z" transform="translate(0 2)"/></g></g><g transform="translate(21.467 21.467)"><g transform="translate(0 0)"><rect class="c" width="2.284" height="2.74"/></g><g transform="translate(0 0)"><path class="c" d="M2.284.74H0V-2H2.284ZM.457.284h1.37V-1.543H.457Z" transform="translate(0 2)"/></g></g><g transform="translate(21.467 27.862)"><g transform="translate(0 0)"><rect class="c" width="2.284" height="2.74"/></g><g transform="translate(0 0)"><path class="c" d="M2.284.74H0V-2H2.284ZM.457.284h1.37V-1.543H.457Z" transform="translate(0 2)"/></g></g></g><g transform="translate(21.97 34.073)"><path class="c" d="M55.728,74.6,48.1,87.754a8.166,8.166,0,0,0,4.111,2.375l7.628-13.154A7.68,7.68,0,0,0,55.728,74.6Zm.776,1.873a4.81,4.81,0,0,1,1.325.776l-6.3,10.962a4.81,4.81,0,0,1-1.325-.776Z" transform="translate(-48.1 -74.6)"/></g><g transform="translate(19.909 33.838)"><path class="c" d="M45.147,86.789l.913-1.553a6.339,6.339,0,0,1,2.284-8.678,6.451,6.451,0,0,1,3.2-.868l.913-1.553a7.963,7.963,0,0,0-8.815,7.034h0A7.927,7.927,0,0,0,45.147,86.789Z" transform="translate(-43.589 -74.085)"/></g><g transform="translate(26.948 37.088)"><path class="c" d="M59,93.852l.913-1.553a6.335,6.335,0,0,0,6.349-6.349,6.009,6.009,0,0,0-.868-3.2l.913-1.553A7.975,7.975,0,0,1,59,93.852Z" transform="translate(-59 -81.2)"/></g></g></g></svg>