<svg xmlns="http://www.w3.org/2000/svg" viewBox="0 0 65.372 61.885"><defs><style>.a{fill:#fff;}.b,.d{fill:#707070;}.c,.d{stroke:none;}</style></defs><g transform="translate(-339 -1180)"><g class="a" transform="translate(339 1180)"><path class="c" d="M 55.37162017822266 61.38513946533203 L 10 61.38513946533203 C 4.761680126190186 61.38513946533203 0.5000000596046448 57.12345886230469 0.5000000596046448 51.88513946533203 L 0.5000000596046448 9.999998092651367 C 0.5000000596046448 4.761677742004395 4.761680126190186 0.4999978244304657 10 0.4999978244304657 L 55.37162017822266 0.4999978244304657 C 60.60993957519531 0.4999978244304657 64.87162017822266 4.761677742004395 64.87162017822266 9.999998092651367 L 64.87162017822266 51.88513946533203 C 64.87162017822266 57.12345886230469 60.60993957519531 61.38513946533203 55.37162017822266 61.38513946533203 Z"/><path class="d" d="M 10 0.9999961853027344 C 5.037380218505859 0.9999961853027344 1 5.037376403808594 1 9.999996185302734 L 1 51.88513946533203 C 1 56.84775924682617 5.037380218505859 60.88513946533203 10 60.88513946533203 L 55.37162017822266 60.88513946533203 C 60.3342399597168 60.88513946533203 64.37162017822266 56.84775924682617 64.37162017822266 51.88513946533203 L 64.37162017822266 9.999996185302734 C 64.37162017822266 5.037376403808594 60.3342399597168 0.9999961853027344 55.37162017822266 0.9999961853027344 L 10 0.9999961853027344 M 10 -3.814697265625e-06 L 55.37162017822266 -3.814697265625e-06 C 60.89447021484375 -3.814697265625e-06 65.37162017822266 4.477146148681641 65.37162017822266 9.999996185302734 L 65.37162017822266 51.88513946533203 C 65.37162017822266 57.40797805786133 60.89447021484375 61.88513946533203 55.37162017822266 61.88513946533203 L 10 61.88513946533203 C 4.477149963378906 61.88513946533203 0 57.40797805786133 0 51.88513946533203 L 0 9.999996185302734 C 0 4.477146148681641 4.477149963378906 -3.814697265625e-06 10 -3.814697265625e-06 Z"/></g><g transform="translate(344.497 1186)"><path class="b" d="M28.775,1.855a24.086,24.086,0,0,0-7.926,1.336l-.668-1.2A3.63,3.63,0,0,0,17.821.163a4.22,4.22,0,0,0-3.34.623C4.107,7.465-1.192,18.2-.479,30.842a4.431,4.431,0,0,0,1.514,3.028,3.611,3.611,0,0,0,2.315.846,2.94,2.94,0,0,0,.623-.045l2.315-.356A23.983,23.983,0,1,0,28.775,1.855ZM3.8,33.291a2.209,2.209,0,0,1-1.87-.49A2.863,2.863,0,0,1,.9,30.753C-.078,15.168,8.2,6.441,15.283,1.81a3.1,3.1,0,0,1,1.647-.49,3.37,3.37,0,0,1,.668.045,2.356,2.356,0,0,1,1.514,1.247L21.74,7.465a2.915,2.915,0,0,1-.757,3.829c-6.1,5.121-8.727,10.419-9.172,18.3a3.173,3.173,0,0,1-2.627,2.939ZM16.619,21.58a2.623,2.623,0,0,1-2.583,2.627h-.089a23.181,23.181,0,0,1,1.692-4.542A2.131,2.131,0,0,1,16.619,21.58ZM28.73,48.519A22.69,22.69,0,0,1,7.58,34.048l1.826-.312a4.46,4.46,0,0,0,3.74-4.141,26.754,26.754,0,0,1,.49-4.23h.356a3.953,3.953,0,0,0,3.918-3.918,3.9,3.9,0,0,0-1.558-3.117,24.722,24.722,0,0,1,5.432-6.145,4.488,4.488,0,0,0,1.024-5.477L21.473,4.215a22.626,22.626,0,0,1,28.764,14.07,23.413,23.413,0,0,1,1.247,7.391A22.871,22.871,0,0,1,28.73,48.519Z" transform="translate(0.543 -0.052)"/><path class="b" d="M63,46.85a8.95,8.95,0,1,0-8.95,8.95A8.95,8.95,0,0,0,63,46.85Zm-8.905,7.57a7.548,7.548,0,1,1,.134,0Z" transform="translate(-24.777 -21.048)"/><path class="b" d="M60.528,22.792A3.9,3.9,0,1,0,56.7,18.963,3.8,3.8,0,0,0,60.528,22.792Zm0-6.5a2.632,2.632,0,0,1,2.627,2.627,2.627,2.627,0,1,1-2.627-2.627Z" transform="translate(-31.211 -8.344)"/><path class="b" d="M82.918,76a3.918,3.918,0,1,0,3.918,3.918h0A3.953,3.953,0,0,0,82.918,76Zm0,6.5a2.632,2.632,0,0,1-2.627-2.627,2.6,2.6,0,0,1,2.627-2.627,2.632,2.632,0,0,1,2.627,2.627h0A2.691,2.691,0,0,1,82.918,82.5Z" transform="translate(-43.582 -42.183)"/><path class="b" d="M93.418,39.7a3.918,3.918,0,1,0,3.918,3.918h0A3.906,3.906,0,0,0,93.507,39.7Zm0,6.456a2.632,2.632,0,0,1-2.627-2.627A2.6,2.6,0,0,1,93.418,40.9a2.632,2.632,0,0,1,2.627,2.627h0a2.661,2.661,0,0,1-2.627,2.627Z" transform="translate(-49.407 -22.046)"/><path class="b" d="M37.118,76a3.918,3.918,0,1,0,3.918,3.918h0A3.953,3.953,0,0,0,37.118,76Zm0,6.5a2.627,2.627,0,1,1,2.627-2.627h0A2.6,2.6,0,0,1,37.118,82.5Z" transform="translate(-18.176 -42.183)"/></g></g></svg>