<svg xmlns="http://www.w3.org/2000/svg" viewBox="0 0 20.543 20.543"><defs><style>.a{fill:#707070;fill-rule:evenodd;}</style></defs><g transform="translate(166.861 -36.243)"><g transform="translate(-166.861 36.243)"><path class="a" d="M18.278,281.125a3.324,3.324,0,0,0-2.451,5.569.367.367,0,1,0,.541-.5,2.59,2.59,0,1,1,3.859-.043.367.367,0,1,0,.552.483,3.324,3.324,0,0,0-2.5-5.513Zm-6.214,1.834a.367.367,0,0,0-.259.107L1.166,293.705a.367.367,0,0,0,0,.519l3.668,3.668L8.5,301.561a.367.367,0,0,0,.519,0L19.66,290.922a.367.367,0,0,0,.107-.259v-7.337a.367.367,0,0,0-.367-.367H17.2a.367.367,0,1,0,0,.734h1.834v6.818L8.762,300.783l-3.409-3.409-3.409-3.409,10.272-10.272H13.9a.367.367,0,1,0,0-.734Zm4.745,2.478a.367.367,0,0,0-.221.643.734.734,0,1,1-1.223.547.367.367,0,1,0-.734,0,1.467,1.467,0,1,0,2.446-1.093.366.366,0,0,0-.232-.1h-.037Zm-5.792,3.681a.367.367,0,0,0-.336.277l-1.611,6.014a.367.367,0,1,0,.709.19l1.611-6.014a.367.367,0,0,0-.373-.466Zm1.879,1.634a1.089,1.089,0,0,0-.626.143,1.107,1.107,0,1,0,.626-.143Zm-.12.73a.37.37,0,1,1-.139.048.374.374,0,0,1,.139-.048Zm-5.061.567a1.091,1.091,0,0,0-.626.143,1.1,1.1,0,1,0,.626-.143Zm-.12.731a.368.368,0,1,1-.14.047.379.379,0,0,1,.14-.047Z" transform="translate(-1.058 -281.125)"/></g></g></svg>