<svg xmlns="http://www.w3.org/2000/svg" width="21.607" height="20.762" viewBox="0 0 21.607 20.762">
  <path id="Path_2126" data-name="Path 2126" d="M-729.357,1476.026a.843.843,0,0,1-.337.582q-2.107,1.737-4.214,3.475a.882.882,0,0,0-.316.985c.448,1.707.889,3.417,1.337,5.124a.906.906,0,0,1-.109.82.855.855,0,0,1-1.2.2q-1.031-.653-2.058-1.313c-.829-.529-1.662-1.052-2.484-1.591a.9.9,0,0,0-1.077.007q-2.25,1.452-4.508,2.892a.846.846,0,0,1-1.333-.47,1.084,1.084,0,0,1,.017-.532q.657-2.566,1.337-5.125a.962.962,0,0,0-.356-1.088q-2.068-1.688-4.13-3.382a.844.844,0,0,1-.314-.966.85.85,0,0,1,.826-.591c1.783-.106,3.564-.216,5.347-.319a.948.948,0,0,0,.909-.666c.637-1.648,1.291-3.29,1.936-4.935a.976.976,0,0,1,.427-.538.854.854,0,0,1,1.225.464c.245.608.479,1.22.717,1.831.42,1.074.843,2.146,1.259,3.221a.911.911,0,0,0,.874.635q2.656.151,5.312.32A.886.886,0,0,1-729.357,1476.026Z" transform="translate(750.063 -1467.573)" fill="none" stroke="#ff3646" stroke-linecap="round" stroke-width="1.8"/>
</svg>
