<svg xmlns="http://www.w3.org/2000/svg" viewBox="0 0 65.372 61.885"><defs><style>.a,.d{fill:#fff;}.a{stroke:#707070;}.b{fill:none;}.c{fill:#707070;}.e{stroke:none;}</style></defs><g transform="translate(-707.628 -1180)"><g class="a" transform="translate(707.628 1180)"><rect class="e" width="65.372" height="61.885" rx="10"/><rect class="b" x="0.5" y="0.5" width="64.372" height="60.885" rx="9.5"/></g><g transform="translate(712.59 1186.023)"><g transform="translate(0 -0.013)"><rect class="b" width="53.009" height="49.475"/></g><g transform="translate(11.125 -0.023)"><g transform="translate(29.26 18.85)"><path class="c" d="M66.266,46.426a.51.51,0,0,0,.53.53c.618,0,1.281-.928,1.281-2.165a2.148,2.148,0,0,0-1.1-2.12.579.579,0,0,0-.707.353.525.525,0,0,0,.309.663h.044a1.73,1.73,0,0,1,.4,1.149,1.454,1.454,0,0,1-.353,1.1A.518.518,0,0,0,66.266,46.426Z" transform="translate(-66.238 -42.648)"/></g><g transform="translate(3.755 18.828)"><path class="c" d="M9.914,45.869a1.9,1.9,0,0,1,0-2.209.579.579,0,0,0,.4-.663.57.57,0,0,0-.574-.4c-.574.044-1.237.928-1.237,2.165s.663,2.209,1.281,2.209h0a.51.51,0,0,0,.53-.53.811.811,0,0,0-.4-.574Z" transform="translate(-8.5 -42.6)"/></g><path class="c" d="M29.6,36.873l-5.566-1.5V33.692a.537.537,0,0,0-.53-.53h-.133l-.8.221a13.665,13.665,0,0,0,7.112-8.216c1.9.088,3.4-1.811,3.4-4.2,0-2.165-1.325-3.976-3-4.152.928-3.976,1.1-9.1-1.149-11.441a4,4,0,0,0-3.666-1.149C21.469-3.37,5.389,1.489,4.682,1.71a.55.55,0,0,0-.353.663l.133.265c.663.618,1.723,1.9,1.679,2.606a.545.545,0,0,1-.177.353c-3.136,2.341-3.755,6.052-1.855,11.4a4.182,4.182,0,0,0-2.43,4.02c0,2.12,1.193,3.887,2.827,4.152a13.614,13.614,0,0,0,6.714,8.04c-.088,0-.133.044-.221.088a.544.544,0,0,0-.221.442v1.679l-5.61,1.5A6.871,6.871,0,0,0,0,43.631v5.3a.51.51,0,0,0,.53.53H34.279a.51.51,0,0,0,.53-.53h0v-5.3A6.95,6.95,0,0,0,29.6,36.873ZM16.256,34.62h2.076l.442-.044.574-.088h0a.137.137,0,0,0-.044.088v2.43c-.177.044-.309.088-.486.133l-.309.044h-.088a6.84,6.84,0,0,1-1.9,0h-.177l-.309-.088c-.177-.044-.309-.088-.486-.133V34.8a.4.4,0,0,0-.044-.221h.353Zm-1.767.574v1.281L11.883,35.5v-1.06Zm1.458,3.048h0l.486.088h1.9l.486-.088h0l-.53.972H16.477ZM22.971,35.5l-1.325.486-1.325.442V35.15l2.606-.8V35.5ZM6.582,6.437A1.51,1.51,0,0,0,7.2,5.288,4.9,4.9,0,0,0,5.831,2.505c3.4-.883,15.947-3.755,18.641,2.518a.563.563,0,0,0,.618.309,2.989,2.989,0,0,1,3.092.8c1.634,1.723,1.988,6.052.839,10.823-1.414-.088-3.092-3.313-3.755-4.992a.523.523,0,0,0-.707-.309h0c-.133.044-11.75,4.815-17.228,2.253a.548.548,0,0,0-.663.177L5.124,16.243C3.4,11.561,3.931,8.469,6.582,6.437ZM5.478,24.46a.518.518,0,0,0-.486-.4c-1.193,0-2.165-1.414-2.165-3.092s.928-3,2.12-3.092h0a.527.527,0,0,0,.4-.221l1.9-2.65c5.433,2.12,14.887-1.325,17.228-2.209.618,1.458,2.43,5.168,4.638,5.168a2.217,2.217,0,0,0,.53-.088h0c.088,0,.177-.044.265-.044,1.237,0,2.209,1.414,2.209,3.092s-1.016,3.092-2.209,3.092c-.133,0-.265-.044-.353-.044a.541.541,0,0,0-.663.4A12.364,12.364,0,0,1,20.5,33.029l-.486.133-.309.044a13.733,13.733,0,0,1-1.944.265H15.991l-.663-.088h-.221A12.169,12.169,0,0,1,5.478,24.46ZM1.1,43.631a5.953,5.953,0,0,1,4.417-5.743l5.7-1.546,3.048,1.1h.044l.088.088,1.237,2.253-1.5,8.614H3.269V46.149a.51.51,0,0,0-.53-.53.51.51,0,0,0-.53.53h0V48.4H1.1ZM15.2,48.358l1.414-8.084h1.546l1.414,8.084Zm18.553,0h-1.1V46.1a.53.53,0,1,0-1.06,0h0v2.253H20.718l-1.5-8.57,1.237-2.253.088-.088h.044l3-1.149,5.7,1.546A5.953,5.953,0,0,1,33.7,43.587Z" transform="translate(0 0.023)"/><g transform="translate(6.096 6.647)"><path class="c" d="M14.242,19.43a.443.443,0,0,1-.442-.442c0-.177,0-1.855.839-2.474a1.152,1.152,0,0,1,1.193-.133c.972.309,3.755-.618,5.257-1.325a.435.435,0,0,1,.353.8c-.442.177-4.285,1.9-5.919,1.325-.221-.088-.353-.044-.4.044-.353.265-.486,1.193-.486,1.767a.382.382,0,0,1-.4.442Z" transform="translate(-13.8 -15.023)"/></g></g><g transform="translate(16.41 39.302)"><circle class="c" cx="3.313" cy="3.313" r="3.313"/><path class="c" d="M3.313,6.626A3.337,3.337,0,0,1,0,3.313,3.337,3.337,0,0,1,3.313,0,3.337,3.337,0,0,1,6.626,3.313,3.337,3.337,0,0,1,3.313,6.626Zm0-6.184A2.871,2.871,0,1,0,6.184,3.313,2.866,2.866,0,0,0,3.313.442Z"/></g><g transform="translate(18.41 39.882)"><path class="d" d="M43.171,97.106h1.018V93.917l-.678.611-.068.068h-.2a.066.066,0,0,1-.068-.068l-.271-.339L44.392,92.9h.678v4.274h.882v.611H43.239v-.678Z" transform="translate(-42.9 -92.9)"/></g></g></g></svg>