<svg xmlns="http://www.w3.org/2000/svg" viewBox="0 0 65.372 61.885"><defs><style>.a{fill:#fff;stroke:#707070;}.b{fill:none;}.c{fill:#707070;}.d{stroke:none;}</style></defs><g transform="translate(-217.547 -1180)"><g class="a" transform="translate(217.547 1180)"><rect class="d" width="65.372" height="61.885" rx="10"/><rect class="b" x="0.5" y="0.5" width="64.372" height="60.885" rx="9.5"/></g><g transform="translate(221.798 1186)"><g transform="translate(1.536)"><rect class="b" width="52.665" height="49.154"/></g><g transform="translate(0 17.994)"><path class="c" d="M0,60.179V42.009l8.778-.922A4.632,4.632,0,0,1,9.875,41a6.162,6.162,0,0,1,6.144,6.144,6.084,6.084,0,0,1-3.2,5.4l-.088.044ZM1.317,43.194V57.853l10.27-6.1v-.044l.483-.263a4.828,4.828,0,0,0-2.194-9.129A5.4,5.4,0,0,0,9,42.4H8.953Z" transform="translate(0 -41)"/></g><g transform="translate(13.434 9.114) rotate(-18)"><g transform="translate(0 0)"><path class="c" d="M4.872,24.226a7.142,7.142,0,0,1-2.809-1.712A6.971,6.971,0,0,1,0,17.555V7.022A7.043,7.043,0,0,1,7.022,0H8.339a7.043,7.043,0,0,1,7.022,7.022V17.555a7.043,7.043,0,0,1-7.022,7.022H7.022A6.9,6.9,0,0,1,4.872,24.226ZM7.022,1.317A5.789,5.789,0,0,0,2.984,2.984,5.605,5.605,0,0,0,1.317,7.022V17.555a5.789,5.789,0,0,0,1.668,4.038,5.605,5.605,0,0,0,4.038,1.668H8.339a5.789,5.789,0,0,0,4.038-1.668,5.605,5.605,0,0,0,1.668-4.038V7.022a5.789,5.789,0,0,0-1.668-4.038A5.605,5.605,0,0,0,8.339,1.317Z" transform="translate(0 0)"/></g></g><g transform="translate(47.18 3.072)"><g transform="translate(0)"><path class="b" d="M7.011,0h0a3.521,3.521,0,0,1,3.511,3.511V7.022a3.521,3.521,0,0,1-3.511,3.511h0A3.521,3.521,0,0,1,3.5,7.022V3.511A3.521,3.521,0,0,1,7.011,0Z" transform="translate(-3.5)"/></g><g transform="translate(0)"><path class="c" d="M7.011,10.533A3.521,3.521,0,0,1,3.5,7.022V3.511a3.511,3.511,0,0,1,7.022,0V7.022A3.521,3.521,0,0,1,7.011,10.533Zm0-9.216A2.173,2.173,0,0,0,4.817,3.511V7.022a2.194,2.194,0,0,0,4.389,0V3.511A2.173,2.173,0,0,0,7.011,1.317Z" transform="translate(-3.5)"/></g></g><g transform="translate(49.154 12.508)"><path class="c" d="M113.229,31.7,112,31.309s.746-2.326.922-2.809l1.229.439C113.975,29.422,113.229,31.7,113.229,31.7Z" transform="translate(-112 -28.5)"/></g><g transform="translate(20.276 14.878)"><path class="c" d="M72.533,68.4H46.2l.176-7.68a9.1,9.1,0,0,1,.79-3.862c.834-1.317,1.756-1.668,6.188-1.668,2.063-.044,7.373-.439,8.821-.571.351-.746,1.317-2.633,2.458-4.915,4.652-9.3,7.373-14.4,8.031-15.054,1.448-1.492,4.872-.307,5.267-.176l.527.176ZM47.561,67.079H71.436l5.486-31.555c-1.1-.307-2.765-.571-3.335,0-.219.219-1.361,1.887-7.812,14.746-1.492,2.94-2.633,5.223-2.633,5.223l-.176.351-.351.044c-.263,0-6.89.527-9.3.571-4.389,0-4.608.395-5.091,1.1a7.959,7.959,0,0,0-.571,3.16Z" transform="translate(-46.2 -33.9)"/></g><g transform="translate(35.347 35.089)"><path class="c" d="M89.475,80.061a1.991,1.991,0,0,0-2.5,1.185l-1.624,4.3a.491.491,0,0,1-.351.307l-2.809.483a2.013,2.013,0,0,0,.351,3.994h4.652a2.015,2.015,0,0,0,1.931-1.492l1.712-6.32a2.043,2.043,0,0,0-1.361-2.458Zm-.132,2.063-1.712,6.32a.462.462,0,0,1-.439.351H82.5a.487.487,0,0,1-.483-.483.514.514,0,0,1,.4-.483l2.809-.483a2.063,2.063,0,0,0,1.536-1.273l1.624-4.3a.528.528,0,0,1,.439-.307.264.264,0,0,1,.176.044.468.468,0,0,1,.351.614Z" transform="translate(-80.539 -79.952)"/></g></g></g></svg>