<svg xmlns="http://www.w3.org/2000/svg" viewBox="0 0 65.372 61.885"><defs><style>.a{fill:#fff;}.a,.c{stroke:#707070;}.b{fill:none;}.c{fill:#707070;stroke-width:0.3px;}.d{stroke:none;}</style></defs><g transform="translate(-589.628 -1180)"><g class="a" transform="translate(589.628 1180)"><rect class="d" width="65.372" height="61.885" rx="10"/><rect class="b" x="0.5" y="0.5" width="64.372" height="60.885" rx="9.5"/></g><g transform="translate(594.59 1186.013)"><g transform="translate(0 -0.013)"><rect class="b" width="53.009" height="49.475"/></g></g><g transform="translate(594.05 1189)"><g transform="translate(0.95 11.328)"><g transform="translate(0.002)"><path class="c" d="M-8006.251-3669.546h-5.258v-.047l-14.272-.094a4.119,4.119,0,0,1-.8.094,4.775,4.775,0,0,1-4.554-3.474l-.845-3.192a4.707,4.707,0,0,1,3.239-5.728l.8-14.084a4.929,4.929,0,0,1,4.93-4.93h36.994a5.071,5.071,0,0,1,5.164,4.93l.845,14.084a4.705,4.705,0,0,1,3.427,5.587c0,.047-.047.094-.047.141l-.892,3.192a4.924,4.924,0,0,1-5.634,3.38l-17.6.094h-.235Zm-4.789-.47h10.094l17.887-.094a4.468,4.468,0,0,0,5.117-3.052l.892-3.192a.172.172,0,0,1,.047-.141,4.189,4.189,0,0,0-3.192-5.023l-.282-.047-.845-14.46a4.57,4.57,0,0,0-4.695-4.46h-37.042a4.488,4.488,0,0,0-4.46,4.46l-.8,14.46-.235.047a4.223,4.223,0,0,0-3,5.164l.845,3.192a4.267,4.267,0,0,0,4.084,3.146,4.045,4.045,0,0,0,.751-.047l14.835.047Z" transform="translate(8032.136 3701.002)"/></g><g transform="translate(0 0.001)"><path class="c" d="M-8005.878-3669.545h-5.634v-.047l-14.272-.094a4.119,4.119,0,0,1-.8.094,4.72,4.72,0,0,1-4.554-3.474l-.845-3.192a4.727,4.727,0,0,1,.47-3.568,4.558,4.558,0,0,1,2.77-2.159l.8-14.084a4.929,4.929,0,0,1,4.929-4.93h37a5.043,5.043,0,0,1,5.164,4.93l.845,14.084a4.776,4.776,0,0,1,2.958,2.253,4.5,4.5,0,0,1,.422,3.474l-.892,3.192a4.861,4.861,0,0,1-4.742,3.474,6.427,6.427,0,0,1-.892-.094l-17.605.094H-8001Zm4.46-.469h0Zm-9.625,0Zm-14.788-.141,14.554.094h0l-14.554-.094Zm43.38.094h0Zm-43.755-.047h-.375A.519.519,0,0,0-8026.207-3670.109Zm-.375.047Zm44.365,0Zm.657-.047a3.542,3.542,0,0,1-.7.047C-7981.982-3670.062-7981.794-3670.109-7981.56-3670.109Zm-.892.047Zm0,0Zm0,0Zm-.047,0Zm-.563-.094a2.29,2.29,0,0,0,.563.047,2.29,2.29,0,0,1-.563-.047Zm-27.511-.329h9.624l17.887-.094h.047a4.3,4.3,0,0,0,.751.047,3.945,3.945,0,0,0,3.85-2.817l.892-3.192a3.569,3.569,0,0,0-.329-2.77,4.039,4.039,0,0,0-2.441-1.831l-.563-.141-.845-14.788a4.111,4.111,0,0,0-4.226-4.038h-36.995a3.987,3.987,0,0,0-3.991,3.99l-.845,14.835-.563.141a3.917,3.917,0,0,0-2.3,1.737,3.587,3.587,0,0,0-.375,2.864l.845,3.192a3.76,3.76,0,0,0,4.272,2.723h.094l15.211.141Zm-20.845-8.31a5.241,5.241,0,0,0-.234,1.455A3.8,3.8,0,0,1-8031.418-3678.794Zm51.6-2.629a4.167,4.167,0,0,1,2.347,1.925,3.778,3.778,0,0,1,.517,1.549,3.778,3.778,0,0,0-.517-1.549A4.165,4.165,0,0,0-7979.823-3681.423Zm-47.652-14.648-.8,14.366.8-14.366Zm46.2-.141v.141h0Zm-41.737-4.319a4.439,4.439,0,0,0-4.46,4.366,4.5,4.5,0,0,1,4.46-4.366h0Z" transform="translate(8032.142 3701)"/></g></g><g transform="translate(10.879 11.61)"><rect class="c" width="0.939" height="21.314" transform="translate(0 0)"/></g><g transform="translate(46.09 11.61)"><rect class="c" width="0.939" height="21.314" transform="translate(0 0)"/></g><g transform="translate(11.447 20.536)"><rect class="c" width="0.939" height="34.976" transform="translate(0 0.939) rotate(-89.717)"/></g><g transform="translate(8.579 32.455)"><path class="c" d="M56.73,77.953V68.939H18.139v8.685H17.2V68H57.669v9.953Z" transform="translate(-17.2 -68)"/></g><g transform="translate(4.682 30.199)"><path class="c" d="M12.844,66.061c-.657-2.019-3.9-1.925-3.9-1.925L8.9,63.2c.141,0,3.991-.188,4.883,2.535Z" transform="translate(-8.9 -63.194)"/></g><g transform="translate(48.202 30.283)"><path class="c" d="M102.351,66.391l-.751-.61c.094-.141,2.77-3.38,5.587-2.113l-.376.845C104.652,63.574,102.351,66.344,102.351,66.391Z" transform="translate(-101.6 -63.375)"/></g><g transform="translate(14.4 10.624)"><rect class="c" width="0.469" height="1.174" transform="translate(0 0)"/></g><g transform="translate(36.935 10.624)"><rect class="c" width="0.469" height="1.174" transform="translate(0 0)"/></g><g transform="translate(10.316 1)"><g transform="translate(0 0)"><g transform="translate(0)"><path class="c" d="M11.872,2.859H2.013A2.1,2.1,0,0,1-.1.746L.839-4.934A2.094,2.094,0,0,1,2.952-7h7.981a2.1,2.1,0,0,1,2.113,2.113L13.984.7A2.115,2.115,0,0,1,11.872,2.859ZM2.952-6.531A1.663,1.663,0,0,0,1.308-4.887L.369.793a1.655,1.655,0,0,0,1.643,1.6h9.859A1.663,1.663,0,0,0,13.515.746L12.576-4.84a1.674,1.674,0,0,0-1.643-1.69H2.952Z" transform="translate(0.1 7)"/></g><g transform="translate(0)"><path class="c" d="M11.872,2.859H2.013A2.1,2.1,0,0,1-.1.746L.839-4.934A2.094,2.094,0,0,1,2.952-7h7.981a2.1,2.1,0,0,1,2.113,2.113L13.984.7A2.115,2.115,0,0,1,11.872,2.859Zm1.174-4.929L13.515.746a1.633,1.633,0,0,1-1.643,1.643A1.663,1.663,0,0,0,13.515.746ZM1.308-4.887.369.746a1.655,1.655,0,0,0,1.643,1.6A1.583,1.583,0,0,1,.369.793l.939-5.681ZM2.952-6.061A1.162,1.162,0,0,0,1.778-4.887v.094L.839.84A1.179,1.179,0,0,0,2.013,1.92h9.859A1.184,1.184,0,0,0,13.045.793L12.106-4.84a1.174,1.174,0,0,0-1.174-1.221H2.952Zm9.624,1.033v.141h0Zm-9.624-1.5a1.673,1.673,0,0,0-1.643,1.5,1.673,1.673,0,0,1,1.643-1.5h0Z" transform="translate(0.1 7)"/></g></g><g transform="translate(9.624 9.624)"><rect class="c" width="0.469" height="1.033" transform="translate(0 0)"/></g></g><g transform="translate(32.851 1)"><g transform="translate(0 0)"><g transform="translate(0)"><path class="c" d="M11.872,2.859H2.013A2.1,2.1,0,0,1-.1.746L.839-4.934A2.094,2.094,0,0,1,2.952-7h7.981a2.1,2.1,0,0,1,2.113,2.113L13.984.7A2.115,2.115,0,0,1,11.872,2.859ZM2.952-6.531A1.663,1.663,0,0,0,1.308-4.887L.369.793a1.655,1.655,0,0,0,1.643,1.6h9.859A1.663,1.663,0,0,0,13.515.746L12.576-4.84a1.674,1.674,0,0,0-1.643-1.69H2.952Z" transform="translate(0.1 7)"/></g><g transform="translate(0)"><path class="c" d="M11.872,2.859H2.013A2.1,2.1,0,0,1-.1.746L.839-4.934A2.094,2.094,0,0,1,2.952-7h7.981a2.1,2.1,0,0,1,2.113,2.113L13.984.7A2.115,2.115,0,0,1,11.872,2.859Zm1.174-4.929L13.515.746a1.633,1.633,0,0,1-1.643,1.643A1.663,1.663,0,0,0,13.515.746ZM1.308-4.887.369.746a1.655,1.655,0,0,0,1.643,1.6A1.583,1.583,0,0,1,.369.793l.939-5.681ZM2.952-6.061A1.162,1.162,0,0,0,1.778-4.887v.094L.839.84A1.179,1.179,0,0,0,2.013,1.92h9.859A1.184,1.184,0,0,0,13.045.793L12.106-4.84a1.174,1.174,0,0,0-1.174-1.221H2.952Zm9.624,1.033v.141h0Zm-9.624-1.5a1.673,1.673,0,0,0-1.643,1.5,1.673,1.673,0,0,1,1.643-1.5h0Z" transform="translate(0.1 7)"/></g></g><g transform="translate(9.624 9.624)"><rect class="c" width="0.469" height="1.033" transform="translate(0 0)"/></g></g></g></g></svg>