<svg xmlns="http://www.w3.org/2000/svg" viewBox="0 0 97.304 83.905"><defs><style>.a{fill:#707070;}</style></defs><g transform="translate(-3.579 -6.855)"><g transform="translate(3.579 6.856)"><path class="a" d="M98.6,6.946h0L5.245,21.963a2.022,2.022,0,0,0-.812,3.653L27.365,41.851,23.712,68.435a1.988,1.988,0,0,0,3.247,1.826L39.947,59.709l6.291,29.426a1.962,1.962,0,0,0,3.653.609L100.625,9.99h0A2.073,2.073,0,0,0,98.6,6.946ZM10.724,25.007l73.869-11.77L29.6,38.6ZM28.177,63.971l3.044-21.714C50.3,33.53,64.1,27.036,85.2,17.3,84.8,17.7,85,17.5,28.177,63.971Zm20.9,19.482L43.4,56.868,90.478,18.513Z" transform="translate(-3.579 -6.856)"/></g></g></svg>