<svg xmlns="http://www.w3.org/2000/svg" viewBox="0 0 16.008 16"><defs><style>.a{fill:#ff3646;}.b{fill:#fff;}</style></defs><g transform="translate(-1139.572 -642)"><path class="a" d="M8,0A8,8,0,1,1,0,8,8,8,0,0,1,8,0Z" transform="translate(1139.572 642)"/><g transform="translate(1143.574 646)"><path class="b" d="M.461,7.958a.476.476,0,0,1-.335-.126.509.509,0,0,1,0-.67L7.208.126a.509.509,0,0,1,.67,0,.509.509,0,0,1,0,.67L.8,7.832a.476.476,0,0,1-.335.126" transform="translate(0 0)"/><path class="b" d="M7.5,7.958a.476.476,0,0,1-.335-.126L.126.8a.509.509,0,0,1,0-.67.509.509,0,0,1,.67,0l7.04,7.037a.509.509,0,0,1,0,.67.476.476,0,0,1-.335.126" transform="translate(0 0)"/></g></g></svg>