<svg xmlns="http://www.w3.org/2000/svg" width="151.386" height="137.903" viewBox="0 0 151.386 137.903">
  <g id="ic_mico_alegre" transform="translate(-31.955 -348.732)">
    <g id="Group_2175" data-name="Group 2175">
      <circle id="Ellipse_224" data-name="Ellipse 224" cx="68.688" cy="68.688" r="68.688" transform="translate(41.584 348.995)" fill="#fff"/>
      <circle id="Ellipse_225" data-name="Ellipse 225" cx="67.952" cy="67.952" r="67.952" transform="translate(42.321 349.732)" fill="none" stroke="#b0b0b0" stroke-width="2" stroke-dasharray="0 10"/>
    </g>
    <circle id="Ellipse_226" data-name="Ellipse 226" cx="62.957" cy="62.957" r="62.957" transform="translate(47.573 355.467)" fill="#563dbf" opacity="0.047"/>
    <g id="Group_2176" data-name="Group 2176" opacity="0.042">
      <path id="Path_3236" data-name="Path 3236" d="M109.883,465.1a47.652,47.652,0,0,1-26.765-8.175,48.015,48.015,0,0,1-17.345-21.063,47.567,47.567,0,0,1-3.761-18.633,48.075,48.075,0,0,1,3.782-18.683,47.117,47.117,0,0,1,7.112-11.761A47.9,47.9,0,1,1,109.883,465.1Z" fill="#563dbf"/>
      <path id="Path_3237" data-name="Path 3237" d="M109.883,369.729A47.493,47.493,0,0,0,73.19,387.023a46.74,46.74,0,0,0-7.056,11.669,47.7,47.7,0,0,0-3.754,18.54,47.291,47.291,0,0,0,8.112,26.559,47.743,47.743,0,0,0,12.832,12.831,47.437,47.437,0,0,0,53.118,0,47.625,47.625,0,0,0,17.211-20.9,47.446,47.446,0,0,0-4.379-45.049,47.649,47.649,0,0,0-20.9-17.212,47.22,47.22,0,0,0-18.49-3.732m0-.737a48.2,48.2,0,1,1-44.429,29.415A48.24,48.24,0,0,1,109.883,368.992Z" fill="#707070"/>
    </g>
    <g id="Group_2177" data-name="Group 2177">
      <path id="Path_3238" data-name="Path 3238" d="M180.968,429.752h2.373v2.4h-2.373Z" fill="#563dbf"/>
      <path id="Path_3239" data-name="Path 3239" d="M35.276,415.057v-2.4h2.4v2.4Z" fill="#563dbf"/>
      <path id="Path_3240" data-name="Path 3240" d="M62.221,468.211h-2.4v-2.4h2.4Z" fill="#563dbf"/>
    </g>
    <g id="Group_2178" data-name="Group 2178">
      <path id="Path_3241" data-name="Path 3241" d="M159.4,364.443l3.251-3.252a.614.614,0,0,0-.868-.868l-3.252,3.251-3.251-3.251a.614.614,0,0,0-.869.868l3.252,3.252-3.252,3.251a.615.615,0,0,0,.869.869l3.251-3.252,3.252,3.252a.614.614,0,1,0,.892-.845l-.024-.024Z" fill="#563dbf"/>
    </g>
    <g id="Group_2179" data-name="Group 2179">
      <path id="Path_3242" data-name="Path 3242" d="M37.112,462.416l3.252-3.251a.615.615,0,0,0-.869-.869l-3.252,3.252L32.992,458.3a.615.615,0,0,0-.869.869l3.252,3.251-3.252,3.252a.614.614,0,0,0,.869.868l3.251-3.251,3.252,3.251a.614.614,0,1,0,.893-.844l-.024-.024Z" fill="#563dbf"/>
    </g>
    <g id="Group_2190" data-name="Group 2190">
      <g id="Group_2180" data-name="Group 2180">
        <path id="Path_3243" data-name="Path 3243" d="M139.531,400.385a12.067,12.067,0,0,1,.117,3.716,13.418,13.418,0,0,1-6.118,9.754.921.921,0,0,0-.364.533,1.088,1.088,0,0,0,.3,1.2,12.277,12.277,0,0,1,3.065,10.307,11.747,11.747,0,0,1-.962,3.256c-.354.748-.712,1.5-1.137,2.213a18.1,18.1,0,0,1-1.36,1.914,23.538,23.538,0,0,1-1.569,1.8,26.385,26.385,0,0,1-4.4,3.629,35.857,35.857,0,0,1-8.153,3.989,42.691,42.691,0,0,1-5.746,1.532,38.914,38.914,0,0,1-12.546.41,27.733,27.733,0,0,1-9.594-3,16.262,16.262,0,0,1-6.155-5.422,12.345,12.345,0,0,1-1.124-11.614.408.408,0,0,0-.054-.472.67.67,0,0,1-.135-.209c-.153-.436-.569-.51-.962-.624a22.259,22.259,0,0,1-2.161-.685,13.12,13.12,0,0,1-6.256-5.15,12.768,12.768,0,0,1-1.8-4.456,12.547,12.547,0,0,1,.052-4.812,13.336,13.336,0,0,1,4.849-7.892,14.264,14.264,0,0,1,5.665-2.827.649.649,0,0,0,.4-.353,26.407,26.407,0,0,1,5.9-6.573,28.426,28.426,0,0,1,14.49-6.015,27.945,27.945,0,0,1,10.766.749,26.518,26.518,0,0,1,8.983,4.312.707.707,0,0,0,.55.131,14.117,14.117,0,0,1,14.06,6.833A12.9,12.9,0,0,1,139.531,400.385Z" fill="#fff"/>
        <path id="Path_3244" data-name="Path 3244" d="M139.531,400.381a12.724,12.724,0,0,0-1.4-3.818,14.108,14.108,0,0,0-14.06-6.829.719.719,0,0,1-.546-.133,26.657,26.657,0,0,0-8.983-4.313,27.946,27.946,0,0,0-10.765-.749,28.444,28.444,0,0,0-14.5,6.016,26.377,26.377,0,0,0-5.893,6.573.66.66,0,0,1-.4.349,14.244,14.244,0,0,0-5.669,2.832,13.322,13.322,0,0,0-4.846,7.89,12.463,12.463,0,0,0-.05,4.811,12.653,12.653,0,0,0,1.8,4.454,13.074,13.074,0,0,0,6.253,5.151,19.726,19.726,0,0,0,2.165.685c.39.114.8.19.961.628a.735.735,0,0,0,.134.209.4.4,0,0,1,.055.469,12.353,12.353,0,0,0,1.121,11.618,16.259,16.259,0,0,0,6.154,5.419,25.423,25.423,0,0,0,5.051,2.051c.383.107.765.215,1.152.3a30.871,30.871,0,0,0,3.393.643,37.067,37.067,0,0,0,9.455.059c1.024-.118,2.052-.272,3.089-.469a42.083,42.083,0,0,0,5.747-1.529,36.4,36.4,0,0,0,6.523-2.975c.106-.06.205-.119.3-.185.449-.262.889-.544,1.329-.833a26.236,26.236,0,0,0,4.4-3.624c.557-.58,1.083-1.185,1.573-1.8a18.621,18.621,0,0,0,1.357-1.918c.084-.141.167-.282.237-.421.325-.585.613-1.186.9-1.795a11.82,11.82,0,0,0,.96-3.251,12.292,12.292,0,0,0-3.065-10.31,1.081,1.081,0,0,1-.306-1.2.875.875,0,0,1,.366-.532,13.406,13.406,0,0,0,6.117-9.757A12,12,0,0,0,139.531,400.381Zm-65.4,11.009a11.84,11.84,0,0,1,7.8-11.686c-.132.286-.241.52-.344.747a25.752,25.752,0,0,0-1.451,4.194.549.549,0,0,1-.149.259,7.8,7.8,0,0,0-2.251,4.862,8.266,8.266,0,0,0,0,1.758,7.343,7.343,0,0,0,2.138,4.441,2.192,2.192,0,0,1,.5,1.073,25.076,25.076,0,0,0,1.559,4.047.589.589,0,0,1,.056.14A11.246,11.246,0,0,1,74.134,411.39Zm60.114,9.23a11.037,11.037,0,0,1-.823,8.734,19.343,19.343,0,0,1-5.305,6.36,29,29,0,0,1-4.982,3.244c-.9.476-1.832.9-2.78,1.295-.429.184-.867.354-1.305.517a40.913,40.913,0,0,1-6.747,1.82c-.357.064-.722.13-1.1.182-.682.1-1.381.19-2.089.248a35.3,35.3,0,0,1-9.521-.359c-.007,0-.021-.005-.028,0q-.654-.122-1.289-.266a23.537,23.537,0,0,1-6.625-2.511,14.734,14.734,0,0,1-4.816-4.188,10.571,10.571,0,0,1-1.467-9.951c.041-.144.09-.288.145-.433a9.736,9.736,0,0,1,.4-.948.414.414,0,0,0-.05-.49c-.121-.155-.235-.311-.35-.473-.2-.28-.4-.566-.586-.861a20.687,20.687,0,0,1-1.815-3.407,22.431,22.431,0,0,1-1.76-8.379,22.773,22.773,0,0,1,2.99-11.627,25.511,25.511,0,0,1,7.815-8.444,27.052,27.052,0,0,1,16.133-4.537,25.789,25.789,0,0,1,9.96,2.449A24.2,24.2,0,0,1,125.72,394a22.8,22.8,0,0,1,3.177,4.321,22.3,22.3,0,0,1,2.494,15.371c-.055.277-.117.563-.186.842l-.029.128c-.047.221-.116.438-.163.659a.421.421,0,0,0-.015.057c-.011.036-.014.071-.024.107a.238.238,0,0,0,.058.225A11.376,11.376,0,0,1,134.248,420.62Zm-.622-9.1c.021-.539.083-1.027.068-1.514-.04-1.2-.108-2.409-.163-3.617a.883.883,0,0,1,.062-.348,7.769,7.769,0,0,0-2.255-9.312,16.111,16.111,0,0,0-1.783-1.123,1.539,1.539,0,0,1-.289-.228,26.1,26.1,0,0,0-3.364-3.828c-.024-.025-.055-.057-.126-.133a12.226,12.226,0,0,1,4.267.7,11.49,11.49,0,0,1,6.429,5.363A11.187,11.187,0,0,1,133.626,411.518Z" fill="#563dbf"/>
      </g>
      <g id="Group_2183" data-name="Group 2183">
        <g id="Group_2181" data-name="Group 2181">
          <path id="Path_3245" data-name="Path 3245" d="M127.665,450.94a5.615,5.615,0,0,1-2.413-.54,6.454,6.454,0,0,1-2.82-8.508,8.218,8.218,0,0,1,2-2.616c3.527-3.352,7.086-6.744,10.64-10.145.534-.5,1.062-1,1.6-1.521a1.047,1.047,0,0,1,.729-.295,1.01,1.01,0,0,1,.212.022,1.044,1.044,0,0,1,.755.624c1.189,2.889,2.635,4.584,4.687,5.5a1.04,1.04,0,0,1,.377,1.616c-.243.292-.523.634-.756.959,0,0-5.627,6.928-6.282,7.736q-1.362,1.68-2.724,3.348c-.487.646-1.041,1.308-1.62,1.933A6.151,6.151,0,0,1,127.665,450.94Z" fill="#fff"/>
          <path id="Path_3246" data-name="Path 3246" d="M137.4,428.356c1.1,2.673,2.623,4.894,5.227,6.052-.3.364-.572.7-.8,1.021-1.422,1.746-2.85,3.512-4.272,5.257-1.572,1.929-3.126,3.86-4.693,5.772q-.744.985-1.578,1.886a5.115,5.115,0,0,1-3.611,1.555,4.588,4.588,0,0,1-1.965-.44,5.4,5.4,0,0,1-2.312-7.144,7.16,7.16,0,0,1,1.728-2.254q5.345-5.078,10.677-10.179c.532-.5,1.064-1,1.6-1.526m0-2.082a2.092,2.092,0,0,0-1.457.589c-.532.515-1.057,1.012-1.583,1.508-3.537,3.384-7.117,6.8-10.65,10.153a9.214,9.214,0,0,0-2.194,2.875c-.012.024-.023.048-.034.072a7.5,7.5,0,0,0,3.328,9.87,6.66,6.66,0,0,0,2.86.639,7.169,7.169,0,0,0,5.095-2.171c.018-.017.035-.035.052-.054.591-.637,1.158-1.314,1.687-2.012q1.367-1.668,2.727-3.351.969-1.2,1.944-2.394,1.068-1.311,2.139-2.632t2.133-2.625c.028-.034.054-.069.08-.105.211-.3.477-.62.709-.9a2.079,2.079,0,0,0-.756-3.231c-1.788-.795-3.066-2.319-4.146-4.941a2.089,2.089,0,0,0-1.508-1.249,2.124,2.124,0,0,0-.426-.043Z" fill="#563dbf"/>
        </g>
        <g id="Group_2182" data-name="Group 2182">
          <path id="Path_3247" data-name="Path 3247" d="M144.411,433.929a7,7,0,0,1-3.264-.809,8.3,8.3,0,0,1-3.565-3.79,9.947,9.947,0,0,1-1.1-5.294,6.568,6.568,0,0,1,.1-.822,15.376,15.376,0,0,1,.444-1.7,9.823,9.823,0,0,1,2.445-3.8,2.7,2.7,0,0,1,.463-.371,2.816,2.816,0,0,1,3.884.842,1.027,1.027,0,0,1,.16.45q.858-.492,1.752-.895a11.866,11.866,0,0,1,4.807-1.166l.082,0c.127,0,.263.009.423.021l.122.008a1.046,1.046,0,0,1,.911.68l.008.022a1.2,1.2,0,0,1,.572-.145,1.212,1.212,0,0,1,.754.26,4.142,4.142,0,0,1,1.55,2.158,1.078,1.078,0,0,1,.044.245,1.44,1.44,0,0,1-.286.941,1.142,1.142,0,0,1-.119.132l-.12.112a1.046,1.046,0,0,1,.673,1.136l-.1.649a10.964,10.964,0,0,1-1.077,3.073,21.01,21.01,0,0,1-4.317,5.794,7.6,7.6,0,0,1-2.834,1.847,6.959,6.959,0,0,1-2.4.427Z" fill="#fff"/>
          <path id="Path_3248" data-name="Path 3248" d="M150.607,417.61c.138,0,.287.014.477.027-.235.227-.438.4-.629.589-1.391,1.289-2.788,2.593-4.179,3.882a.784.784,0,0,0-.249.871.677.677,0,0,0,.641.458.662.662,0,0,0,.088-.006,1.019,1.019,0,0,0,.443-.2c1.092-1.015,2.189-2.044,3.28-3.059.677-.642,1.351-1.268,2.029-1.909l.01-.012a.176.176,0,0,1,.247-.01,3.092,3.092,0,0,1,1.185,1.633.4.4,0,0,1-.078.259c-1.376,1.293-2.773,2.6-4.165,3.886-.306.289-.626.574-.935.879l-.041.042a.713.713,0,0,0,.055,1.008.73.73,0,0,0,1-.012c1.205-1.113,2.39-2.216,3.579-3.333a7.846,7.846,0,0,1,.74-.623c-.035.221-.064.428-.1.65a9.884,9.884,0,0,1-.969,2.744,20.006,20.006,0,0,1-4.113,5.526,6.584,6.584,0,0,1-2.477,1.625,5.929,5.929,0,0,1-4.815-.325,7.312,7.312,0,0,1-3.107-3.311,8.963,8.963,0,0,1-1.01-4.784,5.378,5.378,0,0,1,.081-.7,14.026,14.026,0,0,1,.411-1.566,8.7,8.7,0,0,1,2.176-3.375,1.7,1.7,0,0,1,.3-.245,1.769,1.769,0,0,1,2.439.529c-.316.22-.649.435-.95.659-.677.526-1.373,1.062-2.054,1.6a2.574,2.574,0,0,0-.389.348c-.137.174-.294.309-.426.468a.655.655,0,0,0-.106.566c.107.2.191.472.511.519a.8.8,0,0,0,.732-.211c.21-.2.437-.4.664-.6.065-.048,2.069-1.6,2.282-1.751a18.91,18.91,0,0,1,2.957-1.663,10.918,10.918,0,0,1,4.408-1.075h.048m0-2.082-.1,0a12.941,12.941,0,0,0-5.241,1.27q-.441.2-.874.419a3.868,3.868,0,0,0-5.672-.242,10.842,10.842,0,0,0-2.68,4.166l-.017.051a16.162,16.162,0,0,0-.471,1.8l-.007.035a7.5,7.5,0,0,0-.112.958,11.033,11.033,0,0,0,1.223,5.829,9.334,9.334,0,0,0,3.973,4.21,8.036,8.036,0,0,0,6.546.456,8.746,8.746,0,0,0,3.231-2.105,22.069,22.069,0,0,0,4.495-6.047,11.93,11.93,0,0,0,1.162-3.3c0-.026.01-.052.014-.079l.046-.307.051-.339a2.078,2.078,0,0,0-.319-1.464,2.464,2.464,0,0,0,.182-1.076,2.065,2.065,0,0,0-.086-.487,5.2,5.2,0,0,0-1.923-2.691,2.264,2.264,0,0,0-1.381-.468c-.045,0-.089,0-.133,0a2.091,2.091,0,0,0-1.29-.559l-.118-.008c-.189-.013-.349-.023-.5-.023Z" fill="#563dbf"/>
        </g>
      </g>
      <path id="Path_3249" data-name="Path 3249" d="M134.456,456.349c-.106.262-.227.518-.355.769-.11.22-.229.428-.348.635-.137.23-.282.455-.435.666a45.844,45.844,0,0,1-41.571,2.637c-.043-.149-.079-.292-.115-.435l-.107-.428a27.12,27.12,0,0,1-.816-4.862c-.239-3.61.581-6.868,3.587-9.233a33.171,33.171,0,0,1,2.97-2.1c.756-.482,1.523-.923,2.307-1.338a34.432,34.432,0,0,1,7.775-2.985c.293-.079.587-.151.882-.209a36,36,0,0,1,4.559-.752,42.356,42.356,0,0,1,9.086.083c.418.048.844.1,1.263.164a1.787,1.787,0,0,1,.192.022,15.574,15.574,0,0,1,2.359.533.412.412,0,0,1,.087.026,13.465,13.465,0,0,1,6.847,4.727,8.3,8.3,0,0,1,.836,1.456C134.9,448.853,135.488,453.858,134.456,456.349Z" fill="#563dbf"/>
      <g id="Group_2184" data-name="Group 2184">
        <path id="Path_3250" data-name="Path 3250" d="M132.077,415.084a9.959,9.959,0,0,0-3.747-1.58,15.15,15.15,0,0,0-.759-8.261c-5.24-12.072-20.56-8.386-21.43,4.094-1.656-2.392-2.945-4.735-5.462-6.087-11.381-6.108-21.83,6.756-14.021,17.228-.323.585-1.635,4.4-1.924,5Z" fill="#fff"/>
        <path id="Path_3251" data-name="Path 3251" d="M85.526,425.8l-1.584-.635c.11-.233.459-1.185.767-2.025.43-1.173.747-2.03.965-2.555-3.049-4.385-4.065-11.186.808-16.208,2.992-3.083,8.408-5.185,14.641-1.84A12.861,12.861,0,0,1,105.6,407a12.393,12.393,0,0,1,9.847-9.8c4.305-.752,9.961.879,12.927,7.711a15.139,15.139,0,0,1,.9,7.962,10.473,10.473,0,0,1,3.351,1.563l-1.112,1.283a9.138,9.138,0,0,0-3.383-1.42l-.773-.147.1-.742a14.251,14.251,0,0,0-.7-7.848c-2.583-5.95-7.4-7.39-11.04-6.753-4.013.7-8.277,4.239-8.718,10.554l-.173,2.484-1.426-2.058c-.25-.362-.492-.723-.732-1.079-1.333-1.987-2.485-3.7-4.443-4.753-5.344-2.87-9.952-1.106-12.482,1.5-4.357,4.491-3.251,10.681-.378,14.532l.3.4-.245.444c-.151.275-.708,1.794-1.076,2.8C85.927,424.794,85.661,425.516,85.526,425.8Z" fill="#563dbf"/>
      </g>
      <g id="Group_2186" data-name="Group 2186">
        <path id="Path_3252" data-name="Path 3252" d="M126.667,419.83c.1.53-1.448,1.273-3.464,1.658s-3.731.268-3.833-.263,1.448-1.273,3.464-1.658S126.565,419.3,126.667,419.83Z" fill="#563dbf"/>
        <path id="Path_3253" data-name="Path 3253" d="M98.522,425.359c.05.538-1.565,1.127-3.609,1.316s-3.739-.093-3.789-.631,1.565-1.127,3.608-1.316S98.471,424.821,98.522,425.359Z" fill="#563dbf"/>
        <path id="Path_3254" data-name="Path 3254" d="M120.552,414.637c.317,1.5-.211,2.88-1.179,3.082s-2.009-.849-2.326-2.348.212-2.879,1.18-3.082S120.236,413.138,120.552,414.637Z" fill="#563dbf"/>
        <path id="Path_3255" data-name="Path 3255" d="M107.473,421.5a1.036,1.036,0,1,1-1.274-.931A1.119,1.119,0,0,1,107.473,421.5Z" fill="#563dbf"/>
        <path id="Path_3256" data-name="Path 3256" d="M100.891,428.394s8.93-4.959,17.85-3.456c0,0,1.581,11.171-7.173,12.678C111.568,437.616,102.255,439.114,100.891,428.394Z" fill="#563dbf"/>
        <path id="Path_3257" data-name="Path 3257" d="M111.632,420.61a1.036,1.036,0,1,1-1.274-.931A1.12,1.12,0,0,1,111.632,420.61Z" fill="#563dbf"/>
        <g id="Group_2185" data-name="Group 2185">
          <path id="Path_3258" data-name="Path 3258" d="M94.62,420.693l-.465-.134c.539-1.855,1.387-2.941,2.518-3.228,1.837-.466,3.692,1.372,3.77,1.45l-.343.339c-.017-.017-1.739-1.718-3.309-1.322C95.839,418.041,95.108,419.014,94.62,420.693Z" fill="#563dbf" stroke="#563dbf" stroke-miterlimit="10" stroke-width="1"/>
        </g>
      </g>
      <g id="Group_2189" data-name="Group 2189">
        <g id="Group_2187" data-name="Group 2187">
          <path id="Path_3259" data-name="Path 3259" d="M93.566,457.339a5.66,5.66,0,0,1-3.519-1.2,6.446,6.446,0,0,1-.86-8.918,8.223,8.223,0,0,1,2.529-2.112c4.184-2.492,8.408-5.016,12.63-7.549.633-.374,1.259-.744,1.895-1.132a1.045,1.045,0,0,1,.98-.058,1.039,1.039,0,0,1,.6.774c.518,3.08,1.551,5.052,3.35,6.394a1.039,1.039,0,0,1,.009,1.659c-.3.233-.655.506-.951.769l-7.748,6.083q-1.75,1.377-3.5,2.741c-.616.521-1.3,1.044-2.008,1.528A6.339,6.339,0,0,1,93.566,457.339Z" fill="#fff"/>
          <path id="Path_3260" data-name="Path 3260" d="M106.787,437.317c.479,2.849,1.471,5.351,3.753,7.054-.377.288-.713.554-1.011.819-1.775,1.389-3.559,2.8-5.334,4.185-1.962,1.535-3.906,3.075-5.859,4.6q-.945.8-1.958,1.491a5.265,5.265,0,0,1-2.812.837,4.638,4.638,0,0,1-2.874-.978,5.4,5.4,0,0,1-.667-7.477,7.2,7.2,0,0,1,2.186-1.818q6.341-3.772,12.675-7.573c.63-.373,1.26-.746,1.9-1.135m0-2.082a2.1,2.1,0,0,0-1.09.305c-.633.385-1.255.753-1.878,1.122-4.2,2.519-8.449,5.058-12.643,7.554a9.228,9.228,0,0,0-2.778,2.32c-.017.02-.033.041-.049.063A7.488,7.488,0,0,0,89.4,456.957a6.691,6.691,0,0,0,4.164,1.423,7.351,7.351,0,0,0,3.934-1.163l.062-.041c.718-.492,1.422-1.027,2.092-1.59q1.706-1.328,3.407-2.67,1.209-.951,2.425-1.9,1.335-1.045,2.673-2.1t2.662-2.089c.034-.027.068-.055.1-.085.272-.242.6-.5.891-.72a2.076,2.076,0,0,0-.02-3.316c-1.566-1.17-2.475-2.938-2.945-5.733a2.089,2.089,0,0,0-2.061-1.738Z" fill="#563dbf"/>
        </g>
        <g id="Group_2188" data-name="Group 2188">
          <path id="Path_3261" data-name="Path 3261" d="M113.929,444.47a6.978,6.978,0,0,1-4.542-1.68,8.29,8.29,0,0,1-2.634-4.482,9.942,9.942,0,0,1,.1-5.407,6.552,6.552,0,0,1,.276-.778,15.311,15.311,0,0,1,.811-1.561,9.845,9.845,0,0,1,3.23-3.171,2.755,2.755,0,0,1,.536-.26,2.786,2.786,0,0,1,.956-.168,2.817,2.817,0,0,1,2.642,1.846,1.036,1.036,0,0,1,.056.474c.629-.193,1.266-.356,1.907-.487a11.97,11.97,0,0,1,4.948-.078,4.84,4.84,0,0,1,.48.128l.123.037a1.041,1.041,0,0,1,.739.864l0,.02a1.257,1.257,0,0,1,.322-.042,1.223,1.223,0,0,1,.947.45,4.138,4.138,0,0,1,1.032,2.447,1.03,1.03,0,0,1-.012.248,1.437,1.437,0,0,1-.491.856,1.07,1.07,0,0,1-.142.1l-.142.084a1,1,0,0,1,.155.122,1.037,1.037,0,0,1,.248,1.135l-.239.611a10.961,10.961,0,0,1-1.733,2.758,21.049,21.049,0,0,1-5.5,4.7,7.634,7.634,0,0,1-3.174,1.176,7,7,0,0,1-.9.058Z" fill="#fff"/>
          <path id="Path_3262" data-name="Path 3262" d="M112.66,428a1.765,1.765,0,0,1,1.66,1.159c-.356.145-.729.282-1.073.434-.776.363-1.575.733-2.359,1.11a2.608,2.608,0,0,0-.457.253c-.172.14-.355.237-.519.364a.654.654,0,0,0-.229.528c.06.217.081.5.383.619a.791.791,0,0,0,.761-.044c.249-.151.514-.293.78-.435.074-.033,2.373-1.105,2.614-1.205a19.01,19.01,0,0,1,3.253-.971,10.961,10.961,0,0,1,4.538-.076c.148.029.3.08.506.141-.28.17-.515.292-.744.436-1.644.95-3.3,1.914-4.939,2.865a.782.782,0,0,0-.435.794.673.673,0,0,0,.61.6h.041a1.023,1.023,0,0,0,.435-.1c1.291-.749,2.589-1.511,3.879-2.26.8-.477,1.6-.939,2.4-1.415l.012-.009a.176.176,0,0,1,.244.044,3.085,3.085,0,0,1,.793,1.854.4.4,0,0,1-.134.235c-1.63.958-3.281,1.922-4.925,2.872-.363.215-.738.422-1.108.651l-.049.032a.713.713,0,0,0-.17,1,.73.73,0,0,0,.982.209c1.422-.82,2.823-1.634,4.231-2.462a7.682,7.682,0,0,1,.86-.444c-.083.208-.158.4-.241.612a9.871,9.871,0,0,1-1.554,2.463,20.08,20.08,0,0,1-5.238,4.482,6.615,6.615,0,0,1-2.777,1.039A5.941,5.941,0,0,1,110.069,442a7.3,7.3,0,0,1-2.295-3.914,8.962,8.962,0,0,1,.079-4.888,5.325,5.325,0,0,1,.236-.67,13.988,13.988,0,0,1,.748-1.437,8.729,8.729,0,0,1,2.872-2.811,1.779,1.779,0,0,1,.951-.278m0-2.082a3.875,3.875,0,0,0-2.053.591,10.869,10.869,0,0,0-3.539,3.471l-.028.046a16.033,16.033,0,0,0-.859,1.65l-.014.032a7.379,7.379,0,0,0-.322.909,11.031,11.031,0,0,0-.1,5.955,9.313,9.313,0,0,0,2.939,4.982,8.044,8.044,0,0,0,5.248,1.953,7.953,7.953,0,0,0,1.034-.067,8.736,8.736,0,0,0,3.618-1.34,22.1,22.1,0,0,0,5.728-4.906,11.929,11.929,0,0,0,1.867-2.965c.011-.025.021-.049.031-.074l.114-.29.125-.319a2.076,2.076,0,0,0,.014-1.5,2.47,2.47,0,0,0,.417-1.009,2.1,2.1,0,0,0,.024-.494,5.188,5.188,0,0,0-1.279-3.05,2.268,2.268,0,0,0-1.372-.784,2.082,2.082,0,0,0-1.134-.829l-.113-.034a5.962,5.962,0,0,0-.58-.154,13.061,13.061,0,0,0-5.393.084c-.316.065-.632.137-.946.216a3.87,3.87,0,0,0-3.424-2.076Z" fill="#563dbf"/>
        </g>
      </g>
    </g>
  </g>
</svg>
