<svg xmlns="http://www.w3.org/2000/svg" viewBox="0 0 30.074 21.185"><defs><style>.a{fill:#07d1d9;}</style></defs><g transform="translate(40.949 -954.387)"><path class="a" d="M28.264,952.393a1.951,1.951,0,0,0-1.237.53c-.53.53-4.551,4.64-8.616,8.837-3.579,3.667-6.451,6.628-7.512,7.733l-8-6.142a1.763,1.763,0,0,0-2.165,2.784h0l9.279,7.07a1.808,1.808,0,0,0,2.342-.133c.53-.53,4.551-4.64,8.616-8.837s8.263-8.484,8.616-8.837a1.8,1.8,0,0,0,.044-2.519,1.868,1.868,0,0,0-1.37-.486Z" transform="translate(-41 2)"/></g></svg>