<svg xmlns="http://www.w3.org/2000/svg" width="169.125" height="157.233" viewBox="0 0 169.125 157.233">
  <g id="ic_mico_sinresultados" transform="translate(249.564 -330.068)">
    <g id="Grupo_2287" data-name="Grupo 2287" transform="translate(-249.564 330.227)">
      <g id="Grupo_2284" data-name="Grupo 2284" transform="translate(7.206)">
        <circle id="Elipse_237" data-name="Elipse 237" cx="78.458" cy="78.458" r="78.458" fill="#fff"/>
        <circle id="Elipse_238" data-name="Elipse 238" cx="77.616" cy="77.616" r="77.616" transform="translate(0.841 0.841)" fill="none" stroke="#b0b0b0" stroke-width="2" stroke-dasharray="0 10"/>
      </g>
      <circle id="Elipse_239" data-name="Elipse 239" cx="71.912" cy="71.912" r="71.912" transform="translate(14.047 7.393)" fill="#563dbf" opacity="0.047"/>
      <g id="Grupo_2285" data-name="Grupo 2285" transform="translate(30.118 22.841)" opacity="0.042">
        <path id="Trazado_3236" data-name="Trazado 3236" d="M-158.59,467.233a54.33,54.33,0,0,1-21.284-4.3,54.631,54.631,0,0,1-9.288-5.041,55.087,55.087,0,0,1-8.093-6.678,55.088,55.088,0,0,1-6.677-8.093,54.657,54.657,0,0,1-5.041-9.288,54.332,54.332,0,0,1-4.3-21.284,54.914,54.914,0,0,1,4.321-21.339,53.81,53.81,0,0,1,8.123-13.434,54.762,54.762,0,0,1,11.606-10.547,54.5,54.5,0,0,1,30.631-9.359,54.344,54.344,0,0,1,21.284,4.3,54.7,54.7,0,0,1,9.288,5.042,55.143,55.143,0,0,1,8.093,6.677,55.033,55.033,0,0,1,6.677,8.093,54.728,54.728,0,0,1,5.042,9.288,54.332,54.332,0,0,1,4.3,21.284,54.333,54.333,0,0,1-4.3,21.284,54.719,54.719,0,0,1-5.042,9.288,55.023,55.023,0,0,1-6.677,8.093,55.087,55.087,0,0,1-8.093,6.678,54.633,54.633,0,0,1-9.288,5.041A54.33,54.33,0,0,1-158.59,467.233Z" transform="translate(213.691 -357.451)" fill="#563dbf"/>
        <path id="Trazado_3237" data-name="Trazado 3237" d="M-158.669,358.213a54.085,54.085,0,0,0-30.4,9.288,54.355,54.355,0,0,0-11.517,10.466,53.425,53.425,0,0,0-8.059,13.329,54.5,54.5,0,0,0-4.288,21.177,53.928,53.928,0,0,0,4.263,21.12,54.237,54.237,0,0,0,5,9.216,54.691,54.691,0,0,0,6.625,8.031,54.738,54.738,0,0,0,8.031,6.626,54.268,54.268,0,0,0,9.216,5,53.928,53.928,0,0,0,21.12,4.263,53.921,53.921,0,0,0,21.12-4.263,54.274,54.274,0,0,0,9.217-5,54.687,54.687,0,0,0,8.03-6.626,54.642,54.642,0,0,0,6.626-8.031,54.235,54.235,0,0,0,5-9.216,53.913,53.913,0,0,0,4.264-21.12,53.906,53.906,0,0,0-4.264-21.12,54.281,54.281,0,0,0-5-9.217,54.64,54.64,0,0,0-6.626-8.03,54.643,54.643,0,0,0-8.03-6.626,54.268,54.268,0,0,0-9.217-5,53.906,53.906,0,0,0-21.12-4.264m0-.841a55.1,55.1,0,0,1,55.1,55.1,55.1,55.1,0,0,1-55.1,55.1,55.1,55.1,0,0,1-55.1-55.1,55.2,55.2,0,0,1,4.354-21.5A55.036,55.036,0,0,1-158.669,357.372Z" transform="translate(213.77 -357.372)" fill="#707070"/>
      </g>
      <g id="Grupo_2286" data-name="Grupo 2286" transform="translate(0 19.706)">
        <path id="Trazado_3238" data-name="Trazado 3238" d="M-228.432,358.7a.857.857,0,0,1-.792.852,6.761,6.761,0,0,0-1.4.3,3.243,3.243,0,0,0-2.009,2.771c0,.092-.03.213-.03.3a.824.824,0,0,1-.826.823h-.026a.79.79,0,0,1-.824-.756.735.735,0,0,1,0-.1,3.5,3.5,0,0,0-1.309-2.649,3.683,3.683,0,0,0-2.009-.73.822.822,0,0,1-.882-.759.886.886,0,0,1,0-.094c0-.487.3-.792.883-.822a3.411,3.411,0,0,0,3.319-3.35.808.808,0,0,1,.761-.851c.02,0,.04,0,.061,0a.768.768,0,0,1,.822.708.872.872,0,0,1,0,.114,3.4,3.4,0,0,0,2.524,3.228c.3.092.639.092.944.152A.936.936,0,0,1-228.432,358.7Zm-5.085,1.157c.365-.365.822-.822,1.187-1.157-.365-.365-.792-.822-1.127-1.157-.4.365-.883.792-1.218,1.127C-234.309,359.068-233.882,359.495-233.517,359.86Z" transform="translate(247.816 -353.646)" fill="#563dbf"/>
        <path id="Trazado_3239" data-name="Trazado 3239" d="M-53.64,461.322a.555.555,0,0,1-.512.552,4.386,4.386,0,0,0-.906.2,2.1,2.1,0,0,0-1.3,1.793c0,.059-.019.138-.019.2a.533.533,0,0,1-.535.532h-.017a.511.511,0,0,1-.533-.489.533.533,0,0,1,0-.063,2.267,2.267,0,0,0-.847-1.714,2.38,2.38,0,0,0-1.3-.473.532.532,0,0,1-.57-.491c0-.02,0-.04,0-.061,0-.316.2-.513.571-.532a2.207,2.207,0,0,0,2.147-2.167.524.524,0,0,1,.492-.551h.04a.5.5,0,0,1,.532.459.529.529,0,0,1,0,.073,2.2,2.2,0,0,0,1.636,2.088c.2.059.414.059.611.1A.606.606,0,0,1-53.64,461.322Zm-3.29.749c.236-.236.532-.532.768-.749-.236-.236-.512-.532-.729-.749-.252.236-.571.512-.788.729C-57.442,461.559-57.166,461.838-56.93,462.071Z" transform="translate(219.531 -370.203)" fill="#563dbf"/>
        <path id="Trazado_3240" data-name="Trazado 3240" d="M-51.785,439.854h2.71v2.74h-2.71Z" transform="translate(218.199 -367.318)" fill="#563dbf"/>
        <path id="Trazado_3241" data-name="Trazado 3241" d="M-249.564,419.388v-2.74h2.74v2.74Z" transform="translate(249.564 -363.637)" fill="#563dbf"/>
        <path id="Trazado_3242" data-name="Trazado 3242" d="M-213.5,491.545h-2.741V488.8h2.741Z" transform="translate(244.28 -375.08)" fill="#563dbf"/>
      </g>
    </g>
    <path id="Trazado_3258" data-name="Trazado 3258" d="M-180.926,431.116c.894.82,1.739,1.663,2.658,2.434a12.317,12.317,0,0,0,5.962,2.757c.1.025.224.025.323.05.348,0,.4.076.252.4-.646,1.416-1.292,2.861-1.935,4.274-1.416,3.1-2.807,6.235-4.223,9.39-.944,2.112-1.863,4.223-2.832,6.336a6.859,6.859,0,0,1-9.166,3.174,6.9,6.9,0,0,1-1.293-.818,6.728,6.728,0,0,1-2.188-3.08,6.888,6.888,0,0,1,.745-6.012c2.435-3.876,4.82-7.776,7.2-11.651,1.441-2.356,2.906-4.7,4.348-7.055A.449.449,0,0,1-180.926,431.116Z" transform="translate(-409.982 33.807) rotate(-57)" fill="#fff" stroke="#fff" stroke-width="1"/>
    <path id="Trazado_3243" data-name="Trazado 3243" d="M-132.8,445.64a40.934,40.934,0,0,1-22.483,6.186,40.967,40.967,0,0,1-22.434-6.161c-.1.174-.174.373-.273.547-.5,1.069-.919,2.162-1.491,3.18a9.122,9.122,0,0,1-10.657,4,8.861,8.861,0,0,1-5.316-4.544,8.773,8.773,0,0,1,.3-8.894c2.285-3.754,4.6-7.481,6.906-11.232a1.372,1.372,0,0,0,.149-.447,17.183,17.183,0,0,1,1.615-6.757,11.908,11.908,0,0,1,.77-1.466.753.753,0,0,0,.05-.841,1.2,1.2,0,0,1-.174-.446.773.773,0,0,0-.522-.548,17.043,17.043,0,0,1-5.043-3.449,17.406,17.406,0,0,1-3.552-5.094,16.227,16.227,0,0,1-1.191-10.64,16.9,16.9,0,0,1,10.26-12.4,16.288,16.288,0,0,1,5.416-1.267.68.68,0,0,0,.447-.252,33.568,33.568,0,0,1,7.2-6.186,32.479,32.479,0,0,1,9.888-4.17,32.987,32.987,0,0,1,9.241-.841,33.438,33.438,0,0,1,12.646,3.251,32.5,32.5,0,0,1,10.459,7.975.815.815,0,0,0,.6.3,15.237,15.237,0,0,1,4.919,1.094,17.181,17.181,0,0,1,9.876,22.2,17.176,17.176,0,0,1-5.8,7.637,14.808,14.808,0,0,1-3.2,1.864c-.348.148-.447.421-.6.719a1.206,1.206,0,0,0,.05,1.317,16.615,16.615,0,0,1,2.261,7.876,1.068,1.068,0,0,0,.2.6c2.112,3.4,4.2,6.832,6.335,10.236a10.952,10.952,0,0,1,1.767,4.05,9.021,9.021,0,0,1-2.311,7.851,10.4,10.4,0,0,1-5.292,3.006,6.441,6.441,0,0,1-4.3-.474,10.994,10.994,0,0,1-4.2-2.931,12.046,12.046,0,0,1-1.714-3.08C-132.258,446.857-132.531,446.261-132.8,445.64Zm-42.66-43.5c.969-.841,1.888-1.69,2.861-2.434a16.124,16.124,0,0,1,7.031-3.378A7.267,7.267,0,0,1-158,399.232a3.969,3.969,0,0,0,.447.621q1.118.931,2.236,1.79c.646-.522,1.292-1.043,1.963-1.59a4.182,4.182,0,0,0,.646-.673,7.583,7.583,0,0,1,3.9-2.9,8.7,8.7,0,0,1,5.217.2,18.909,18.909,0,0,1,7.1,4.273c.447.4.894.82,1.317,1.243a3.747,3.747,0,0,0,.323-.224,5.012,5.012,0,0,1,6.236.373,6.594,6.594,0,0,1,1.59,2.356,15.558,15.558,0,0,1,1.515,7.478c-.025.421-.05.869-.075,1.292a30.486,30.486,0,0,0-22.988-36.474,30.486,30.486,0,0,0-36.474,22.988,30.487,30.487,0,0,0,.087,13.859c0-.174-.025-.273-.025-.373a15.6,15.6,0,0,1,1.863-9.664,5.046,5.046,0,0,1,3.6-2.683,4.956,4.956,0,0,1,4.051,1.021Zm19.279,1.59c.05.72.125,1.341.149,1.963a24.509,24.509,0,0,1-.968,7.229,36.12,36.12,0,0,1-3.578,8.447,11.645,11.645,0,0,1-8.646,5.89.483.483,0,0,0-.421.323c-1.714,3.876-3.45,7.726-5.192,11.6a.376.376,0,0,0,.075.472,18.4,18.4,0,0,0,3.727,3.205,27.127,27.127,0,0,0,10.881,4.05,36.722,36.722,0,0,0,8.1.252,24.423,24.423,0,0,0,2.658-.4,28.1,28.1,0,0,0,6.633-2.062,22.164,22.164,0,0,0,6.608-4.571,1.083,1.083,0,0,0,.252-1.466q-2.384-5.218-4.671-10.459c-.273-.621-.547-1.043-1.267-1.019a.755.755,0,0,1-.224-.05,11.587,11.587,0,0,1-7.031-4.522,26.781,26.781,0,0,1-2.957-5.589,32.6,32.6,0,0,1-1.767-5.469,22.653,22.653,0,0,1-.621-6.46c.025-.447.075-.869.125-1.416-.348.447-.646.8-.944,1.168-.321-.38-.62-.724-.916-1.121Zm4.223.025a.663.663,0,0,1-.075.1.364.364,0,0,0-.025.174,18.618,18.618,0,0,0,.447,7.13,31.6,31.6,0,0,0,1.987,5.764,23.4,23.4,0,0,0,2.435,4.447,9.488,9.488,0,0,0,11.83,2.657,13.879,13.879,0,0,0,5.913-5.863,13.486,13.486,0,0,0-.05-13.39,2.777,2.777,0,0,0-3.775-1.079,2.824,2.824,0,0,0-.448.309c.1.125.174.2.252.3a38.057,38.057,0,0,1,4.074,5.863,1.088,1.088,0,0,1-.174,1.341,1.068,1.068,0,0,1-1.324.225,2.256,2.256,0,0,1-.673-.771,34.687,34.687,0,0,0-6.9-8.521,17.986,17.986,0,0,0-5.167-3.3c-.547-.224-1.094-.348-1.739-.571a2.05,2.05,0,0,0,.149.323c.621,1.069,1.242,2.162,1.863,3.229,1.043,1.813,2.112,3.627,3.155,5.469a1.218,1.218,0,0,1,.174.969,1.11,1.11,0,0,1-.944.841,1.182,1.182,0,0,1-1.242-.673c-1.863-3.254-3.751-6.509-5.615-9.76-.125-.224-.252-.224-.447-.149a5.163,5.163,0,0,0-2.388,1.789.493.493,0,0,0-.05.646c.6,1.019,1.192,2.038,1.767,3.056.522.919,1.043,1.864,1.565,2.783.7,1.218,1.441,2.41,2.112,3.627a1.126,1.126,0,0,1-.481,1.518,1.129,1.129,0,0,1-.613.123,1.181,1.181,0,0,1-.994-.7c-.6-1.069-1.192-2.136-1.813-3.206-.472-.841-.994-1.664-1.466-2.484-.473-.723-.869-1.443-1.318-2.213Zm-24.943.224a2.726,2.726,0,0,0-3.839.35,2.762,2.762,0,0,0-.26.37,13.016,13.016,0,0,0-1.734,8.422,13.88,13.88,0,0,0,7.152,10.687,9.093,9.093,0,0,0,8.2.6,8.97,8.97,0,0,0,4.571-3.826,32.827,32.827,0,0,0,3.8-9.142,20.4,20.4,0,0,0,.673-5.738c-.025-.621-.125-1.267-.174-1.888a.144.144,0,0,1-.1-.025c-.273.447-.522.894-.8,1.342-1.267,2.187-2.509,4.375-3.776,6.534a1.129,1.129,0,0,1-1.482.59,1.158,1.158,0,0,1-.133-.069,1.177,1.177,0,0,1-.422-1.611c.015-.026.032-.052.05-.077.944-1.641,1.888-3.282,2.832-4.9.841-1.466,1.714-2.957,2.559-4.447a.389.389,0,0,0,.05-.4,4.782,4.782,0,0,0-2.807-2.087,2.048,2.048,0,0,1-.149.252l-3.652,6.335c-.673,1.143-1.317,2.285-1.987,3.45a1.157,1.157,0,0,1-.894.646,1.14,1.14,0,0,1-1.118-.472,1.2,1.2,0,0,1,.025-1.366c1.565-2.683,3.106-5.391,4.671-8.078.149-.252.273-.522.472-.841-.2.025-.323.05-.447.075-.673.252-1.366.447-2.013.746a20.969,20.969,0,0,0-5.813,4.273,36.708,36.708,0,0,0-5.714,7.527,1.167,1.167,0,0,1-1.565.472,1.116,1.116,0,0,1-.449-1.514c.009-.017.018-.034.029-.051a17.808,17.808,0,0,1,1.143-1.863c1.017-1.42,2.061-2.836,3.1-4.278Zm-4.467,18.06c-.025.05-.1.125-.149.2-1.44,2.356-2.906,4.7-4.348,7.055-2.411,3.9-4.8,7.777-7.207,11.652a6.889,6.889,0,0,0-.745,6.012,6.592,6.592,0,0,0,2.188,3.08A6.854,6.854,0,0,0-182,448.981a6.835,6.835,0,0,0,.822-1.3c.969-2.112,1.888-4.223,2.832-6.335,1.391-3.13,2.807-6.285,4.2-9.415.646-1.44,1.292-2.861,1.935-4.273.149-.323.1-.4-.252-.4a1.4,1.4,0,0,1-.323-.05,12.535,12.535,0,0,1-5.962-2.757C-179.634,423.7-180.478,422.858-181.373,422.038Zm42.879,5.267c.252.547.447,1.019.673,1.515,1.168,2.608,2.335,5.243,3.5,7.851,1.292,2.882,2.559,5.738,3.85,8.62a29.285,29.285,0,0,0,1.317,2.832A6.823,6.823,0,0,0-120.8,451.1a6.914,6.914,0,0,0,4.4-7.354,8.519,8.519,0,0,0-1.366-3.329q-4.994-8.012-9.937-16.071c-.5-.8-.969-1.59-1.491-2.41C-131.712,424.771-134.618,426.858-138.493,427.305Zm-48.544-12c-.025-.1-.025-.174-.05-.252a31.826,31.826,0,0,1-.994-6.311.794.794,0,0,0-.149-.373,9.782,9.782,0,0,1-1.541-3.925A10.49,10.49,0,0,1-185.8,394.16a1.118,1.118,0,0,0,.323-.421,35.129,35.129,0,0,1,2.584-4.745c.2-.323.4-.621.646-.968a14.837,14.837,0,0,0-11.712,17.411,14.838,14.838,0,0,0,6.916,9.867Zm63.5,0a14.8,14.8,0,0,0,6.757-16.3,14.9,14.9,0,0,0-11.577-11.03c.348.522.673.969.944,1.441.673,1.192,1.292,2.385,1.935,3.578a3.65,3.65,0,0,0,.82,1.317,10.518,10.518,0,0,1,2.335,13.962,1.3,1.3,0,0,0-.2.62c-.174,1.342-.323,2.708-.547,4.05C-123.165,413.741-123.389,414.511-123.538,415.306Zm-52.373,26.209c-.273.6-.547,1.218-.819,1.813-.1.224.075.273.2.347a30.84,30.84,0,0,0,5.143,2.733,41.844,41.844,0,0,0,18.365,3.057,42.26,42.26,0,0,0,7.676-1.069,34.451,34.451,0,0,0,11.08-4.6c.5-.324.5-.324.252-.869-.224-.5-.447-.994-.673-1.514a1.542,1.542,0,0,0-.2.174,23.544,23.544,0,0,1-8.422,5.441,33.56,33.56,0,0,1-23.079.323,24.517,24.517,0,0,1-6.757-3.578C-174.094,443.105-174.964,442.31-175.911,441.515Z" transform="translate(-8.405 -6.922)" fill="#563dbf"/>
    <path id="Trazado_3244" data-name="Trazado 3244" d="M-173.436,402.579a4.991,4.991,0,0,0-4.074-1.019,4.938,4.938,0,0,0-3.6,2.683,15.776,15.776,0,0,0-1.863,9.665c0,.1.025.2.025.373A30.517,30.517,0,0,1-160.375,377.5a30.517,30.517,0,0,1,36.782,22.575,30.511,30.511,0,0,1,.093,13.81c.025-.421.05-.869.075-1.292a15.5,15.5,0,0,0-1.515-7.478,7.328,7.328,0,0,0-1.59-2.356,5.084,5.084,0,0,0-6.236-.373,3.39,3.39,0,0,1-.323.224c-.447-.421-.869-.841-1.317-1.242a19.307,19.307,0,0,0-7.1-4.278,8.7,8.7,0,0,0-5.217-.2,7.582,7.582,0,0,0-3.9,2.906,3.27,3.27,0,0,1-.646.673c-.646.547-1.317,1.069-1.963,1.59-.745-.6-1.491-1.168-2.236-1.789a2.807,2.807,0,0,1-.447-.621,7.267,7.267,0,0,0-7.577-2.906,16.123,16.123,0,0,0-7.031,3.378C-171.549,400.913-172.467,401.755-173.436,402.579Z" transform="translate(-10.43 -7.362)" fill="#fff"/>
    <path id="Trazado_3245" data-name="Trazado 3245" d="M-152.1,409.347c.323.4.6.746.894,1.118.3-.373.6-.721.944-1.168-.05.547-.1.969-.125,1.416a21.009,21.009,0,0,0,.621,6.459A32.548,32.548,0,0,0-148,422.641a29.33,29.33,0,0,0,2.957,5.59,11.652,11.652,0,0,0,7.031,4.521.71.71,0,0,0,.224.05c.72-.024.994.4,1.267,1.019q2.272,5.255,4.671,10.46a1.112,1.112,0,0,1-.252,1.466,22.047,22.047,0,0,1-6.609,4.571,28.54,28.54,0,0,1-6.629,2.059,18.912,18.912,0,0,1-2.658.4,36.729,36.729,0,0,1-8.1-.252,27.263,27.263,0,0,1-10.881-4.05,19.088,19.088,0,0,1-3.727-3.2.38.38,0,0,1-.075-.472c1.739-3.876,3.45-7.726,5.192-11.6a.523.523,0,0,1,.421-.323,11.71,11.71,0,0,0,8.646-5.89,35.66,35.66,0,0,0,3.578-8.447,22.974,22.974,0,0,0,.968-7.229C-151.977,410.687-152.052,410.042-152.1,409.347Zm.919,37.463c.273-.025.6-.025.919-.05a11.956,11.956,0,0,0,7.229-2.956,9.411,9.411,0,0,0,2.981-4.745,1.571,1.571,0,0,0-.348-1.491,2.253,2.253,0,0,0-1.789-.77H-160.2a3.133,3.133,0,0,0-.673.076,1.821,1.821,0,0,0-1.525,2.076,1.8,1.8,0,0,0,.059.258,9.179,9.179,0,0,0,2.311,3.975,12.19,12.19,0,0,0,8.847,3.626Zm-2.957-14.556A1.161,1.161,0,0,0-153,431.085a1.173,1.173,0,0,0-1.143-1.143,1.146,1.146,0,0,0-1.168,1.122v.02a1.166,1.166,0,0,0,1.166,1.166h0Zm7.006-1.168a1.135,1.135,0,0,0-1.143-1.118,1.143,1.143,0,0,0-1.143,1.143,1.143,1.143,0,0,0,1.143,1.143,1.161,1.161,0,0,0,1.143-1.169Z" transform="translate(-12.486 -12.539)" fill="#fff"/>
    <path id="Trazado_3246" data-name="Trazado 3246" d="M-143.6,408.405c.447.746.841,1.492,1.292,2.211.5.841.994,1.664,1.466,2.486.621,1.068,1.218,2.136,1.813,3.2a1.181,1.181,0,0,0,.994.7,1.122,1.122,0,0,0,1.219-1.013,1.116,1.116,0,0,0-.125-.627c-.673-1.242-1.416-2.435-2.112-3.627-.522-.919-1.043-1.863-1.565-2.783-.6-1.019-1.168-2.037-1.767-3.056a.493.493,0,0,1,.05-.646,5.159,5.159,0,0,1,2.385-1.789c.2-.075.323-.075.447.149,1.863,3.255,3.751,6.509,5.615,9.76a1.165,1.165,0,0,0,1.541.584,1.163,1.163,0,0,0,.647-.758,1.217,1.217,0,0,0-.174-.968c-1.043-1.813-2.112-3.627-3.155-5.469-.621-1.069-1.242-2.161-1.863-3.229-.05-.075-.05-.149-.149-.323.646.2,1.192.348,1.739.571a17.952,17.952,0,0,1,5.167,3.3,34.65,34.65,0,0,1,6.906,8.521,2.514,2.514,0,0,0,.673.77,1.065,1.065,0,0,0,1.317-.224,1.124,1.124,0,0,0,.174-1.341,37.979,37.979,0,0,0-4.074-5.863c-.075-.075-.149-.174-.252-.3a2.776,2.776,0,0,1,3.913.322,2.735,2.735,0,0,1,.31.448,13.482,13.482,0,0,1,.055,13.4,13.882,13.882,0,0,1-5.913,5.863,9.5,9.5,0,0,1-11.825-2.658,23.354,23.354,0,0,1-2.434-4.447,31.594,31.594,0,0,1-1.987-5.764,18.653,18.653,0,0,1-.447-7.13c0-.05.025-.1.025-.174C-143.68,408.5-143.655,408.479-143.6,408.405Z" transform="translate(-16.759 -11.574)" fill="#fff"/>
    <path id="Trazado_3247" data-name="Trazado 3247" d="M-174.313,408.639c-1.043,1.441-2.087,2.861-3.08,4.3-.421.6-.77,1.242-1.143,1.863a1.113,1.113,0,0,0,.362,1.531c.019.012.039.023.059.034a1.14,1.14,0,0,0,1.55-.443l.015-.028a36.664,36.664,0,0,1,5.714-7.527,20.955,20.955,0,0,1,5.813-4.274c.646-.3,1.341-.5,2.013-.745a1.866,1.866,0,0,1,.447-.075c-.174.324-.323.572-.472.841-1.565,2.684-3.106,5.391-4.671,8.078a1.2,1.2,0,0,0-.025,1.367,1.053,1.053,0,0,0,1.118.472,1.157,1.157,0,0,0,.894-.646c.673-1.143,1.317-2.285,1.987-3.45l3.652-6.335a2.056,2.056,0,0,0,.149-.252,4.78,4.78,0,0,1,2.807,2.087c.05.074,0,.273-.05.4-.841,1.491-1.714,2.957-2.559,4.446-.944,1.64-1.888,3.255-2.832,4.895a1.137,1.137,0,0,0,.219,1.592,1.141,1.141,0,0,0,.154.1,1.124,1.124,0,0,0,1.542-.381,1.061,1.061,0,0,0,.072-.141c1.267-2.188,2.509-4.348,3.776-6.534.252-.446.522-.894.8-1.341a.153.153,0,0,1,.1.025c.05.621.149,1.267.174,1.888a20.4,20.4,0,0,1-.673,5.738,33.126,33.126,0,0,1-3.8,9.142,8.978,8.978,0,0,1-4.571,3.827,9.1,9.1,0,0,1-8.2-.6,14.044,14.044,0,0,1-7.152-10.686,13.014,13.014,0,0,1,1.739-8.422,2.67,2.67,0,0,1,3.627-1.053A2.748,2.748,0,0,1-174.313,408.639Z" transform="translate(-10.993 -11.584)" fill="#fff"/>
    <path id="Trazado_3248" data-name="Trazado 3248" d="M-180.926,431.116c.894.82,1.739,1.663,2.658,2.434a12.317,12.317,0,0,0,5.962,2.757c.1.025.224.025.323.05.348,0,.4.076.252.4-.646,1.416-1.292,2.861-1.935,4.274-1.416,3.1-2.807,6.235-4.223,9.39-.944,2.112-1.863,4.223-2.832,6.336a6.859,6.859,0,0,1-9.166,3.174,6.9,6.9,0,0,1-1.293-.818,6.728,6.728,0,0,1-2.188-3.08,6.888,6.888,0,0,1,.745-6.012c2.435-3.876,4.82-7.776,7.2-11.651,1.441-2.356,2.906-4.7,4.348-7.055A.449.449,0,0,1-180.926,431.116Z" transform="translate(-8.852 -15.999)" fill="#fff"/>
    <path id="Trazado_3249" data-name="Trazado 3249" d="M-186.6,417.979a14.821,14.821,0,0,1-5.074-20.338,14.817,14.817,0,0,1,9.87-6.916c-.224.348-.421.646-.646.969a31.394,31.394,0,0,0-2.559,4.77,1.764,1.764,0,0,1-.323.421,10.489,10.489,0,0,0-3.975,10.286,9.793,9.793,0,0,0,1.541,3.925.973.973,0,0,1,.149.373,33.709,33.709,0,0,0,.994,6.311A1.317,1.317,0,0,1-186.6,417.979Z" transform="translate(-8.845 -9.594)" fill="#fff"/>
    <path id="Trazado_3250" data-name="Trazado 3250" d="M-110.676,417.969c.174-.8.373-1.565.5-2.335.2-1.342.348-2.684.547-4.051a1.31,1.31,0,0,1,.2-.621A10.508,10.508,0,0,0-111.77,397a3.649,3.649,0,0,1-.82-1.317l-1.935-3.578c-.273-.472-.6-.918-.944-1.441a14.894,14.894,0,0,1,11.577,11.03A14.864,14.864,0,0,1-110.676,417.969Z" transform="translate(-21.265 -9.585)" fill="#fff"/>
    <path id="Trazado_3251" data-name="Trazado 3251" d="M-172.18,454.251c.919.77,1.789,1.564,2.733,2.285a25.22,25.22,0,0,0,6.757,3.578A32.905,32.905,0,0,0-151.414,462a32.425,32.425,0,0,0,11.8-2.211,23.333,23.333,0,0,0,8.422-5.441,1.552,1.552,0,0,1,.2-.174c.224.522.447,1.019.673,1.514.252.547.252.547-.252.869a35.53,35.53,0,0,1-11.076,4.6,43.734,43.734,0,0,1-26.036-1.987,32.029,32.029,0,0,1-5.143-2.733c-.124-.075-.3-.149-.2-.348C-172.726,455.467-172.449,454.849-172.18,454.251Z" transform="translate(-12.133 -19.656)" fill="#fff"/>
    <path id="Trazado_3252" data-name="Trazado 3252" d="M-149.6,451.994a12.156,12.156,0,0,1-8.844-3.627,9.188,9.188,0,0,1-2.311-3.975,1.812,1.812,0,0,1,1.188-2.272,1.753,1.753,0,0,1,.278-.063,3.077,3.077,0,0,1,.673-.075H-140.6a2.175,2.175,0,0,1,1.789.77,1.623,1.623,0,0,1,.348,1.491,9.311,9.311,0,0,1-2.981,4.744,11.955,11.955,0,0,1-7.229,2.956C-149,451.968-149.324,451.994-149.6,451.994Zm6.484-3.006a19.735,19.735,0,0,0-12.993,0,11.716,11.716,0,0,0,12.993,0Z" transform="translate(-14.071 -17.722)" fill="#563dbf"/>
    <path id="Trazado_3253" data-name="Trazado 3253" d="M-151.207,436.14a1.13,1.13,0,0,1-1.143-1.117c0-.017,0-.034,0-.051a1.156,1.156,0,0,1,1.155-1.155,1.156,1.156,0,0,1,1.155,1.155A1.182,1.182,0,0,1-151.207,436.14Z" transform="translate(-15.416 -16.428)" fill="#563dbf"/>
    <path id="Trazado_3254" data-name="Trazado 3254" d="M-143.1,434.975a1.145,1.145,0,0,1-1.122,1.168h-.02A1.178,1.178,0,0,1-145.412,435a1.156,1.156,0,0,1,1.143-1.168,1.156,1.156,0,0,1,1.168,1.143Z" transform="translate(-16.517 -16.43)" fill="#563dbf"/>
    <path id="Trazado_3255" data-name="Trazado 3255" d="M-142.222,450.1a11.671,11.671,0,0,1-12.993,0A19.587,19.587,0,0,1-142.222,450.1Z" transform="translate(-14.962 -18.834)" fill="#fff"/>
    <path id="Trazado_3257" data-name="Trazado 3257" d="M-230.1,484.252c.206-.206.407-.4.6-.6l3.805-3.805a.512.512,0,0,1,.548-.143.5.5,0,0,1,.362.419.513.513,0,0,1-.156.47l-1.048,1.047-3.678,3.678a.535.535,0,0,1-.753.071.57.57,0,0,1-.046-.044l-1.9-1.647a.53.53,0,0,1-.088-.744.53.53,0,0,1,.745-.088.423.423,0,0,1,.035.03c.5.436,1.005.87,1.506,1.3A.644.644,0,0,0-230.1,484.252Z" transform="translate(-2.695 -19.256)" fill="#563dbf"/>
  </g>
</svg>
