<svg xmlns="http://www.w3.org/2000/svg" width="148.5" height="132.857" viewBox="0 0 148.5 132.857">
  <g id="ic_mico_sonriente" transform="translate(-256.949 -689.603)">
    <path id="Path_3287" data-name="Path 3287" d="M433.435,704.476c.315-.306.621-.6.923-.9l5.8-5.65a.794.794,0,0,1,.836-.213.78.78,0,0,1,.315,1.32l-1.6,1.555-5.611,5.461a.83.83,0,0,1-1.148.1.763.763,0,0,1-.071-.065l-2.905-2.446a.774.774,0,0,1-.134-1.106.824.824,0,0,1,1.136-.13.637.637,0,0,1,.053.045c.77.648,1.533,1.292,2.3,1.937A1.159,1.159,0,0,0,433.435,704.476Z" transform="translate(-46.864 -2.262)" fill="#563dbf"/>
    <g id="Group_2202" data-name="Group 2202" transform="translate(264.271 689.894)">
      <ellipse id="Ellipse_230" data-name="Ellipse 230" cx="67.946" cy="66.138" rx="67.946" ry="66.138" transform="translate(0)" fill="#fff"/>
      <ellipse id="Ellipse_231" data-name="Ellipse 231" cx="67.217" cy="65.429" rx="67.217" ry="65.429" transform="translate(0.729 0.709)" fill="none" stroke="#b0b0b0" stroke-width="2" stroke-dasharray="0 10"/>
    </g>
    <ellipse id="Ellipse_232" data-name="Ellipse 232" cx="62.276" cy="60.62" rx="62.276" ry="60.62" transform="translate(272.398 695.412)" fill="#563dbf" opacity="0.047"/>
    <g id="Group_2203" data-name="Group 2203" transform="translate(286.316 708.435)" opacity="0.042">
      <path id="Path_3288" data-name="Path 3288" d="M345.1,808.722a47.964,47.964,0,0,1-26.476-7.872,47.41,47.41,0,0,1-7.008-5.628,46.737,46.737,0,0,1-5.783-6.822,45.729,45.729,0,0,1-4.366-7.83,44.759,44.759,0,0,1-3.721-17.941,45.445,45.445,0,0,1,10.776-29.313,47,47,0,0,1,10.051-8.892,48.307,48.307,0,0,1,53-.018,47.428,47.428,0,0,1,7.009,5.629,46.775,46.775,0,0,1,5.782,6.822,45.733,45.733,0,0,1,4.366,7.83,45.119,45.119,0,0,1,0,35.883,45.729,45.729,0,0,1-4.366,7.83,46.774,46.774,0,0,1-5.782,6.822,47.555,47.555,0,0,1-15.052,9.878A48.179,48.179,0,0,1,345.1,808.722Z" transform="translate(-297.387 -716.179)" fill="#563dbf"/>
      <path id="Path_3289" data-name="Path 3289" d="M344.969,716.743a47.755,47.755,0,0,0-26.323,7.829,46.684,46.684,0,0,0-9.973,8.824,44.859,44.859,0,0,0-7,46.891,45.377,45.377,0,0,0,4.332,7.77,46.355,46.355,0,0,0,5.738,6.77,47.163,47.163,0,0,0,14.936,9.8,47.913,47.913,0,0,0,44.562-4.217,47.11,47.11,0,0,0,6.954-5.586,46.355,46.355,0,0,0,5.738-6.77,45.381,45.381,0,0,0,4.332-7.77,44.77,44.77,0,0,0,0-35.607,45.353,45.353,0,0,0-4.332-7.769,46.4,46.4,0,0,0-5.738-6.77,47.171,47.171,0,0,0-14.936-9.8,47.8,47.8,0,0,0-18.29-3.594m0-.709c26.353,0,47.717,20.8,47.717,46.449s-21.364,46.449-47.717,46.449-47.718-20.8-47.718-46.449a45.475,45.475,0,0,1,3.769-18.126C308.154,727.794,325.151,716.034,344.969,716.034Z" transform="translate(-297.251 -716.034)" fill="#707070"/>
    </g>
    <g id="Group_2204" data-name="Group 2204" transform="translate(258.985 754.76)">
      <path id="Path_3290" data-name="Path 3290" d="M457.522,804.552h2.347v2.31h-2.347Z" transform="translate(-313.405 -788.092)" fill="#563dbf"/>
      <path id="Path_3291" data-name="Path 3291" d="M259.743,783.656v-2.31h2.373v2.31Z" transform="translate(-259.743 -781.346)" fill="#563dbf"/>
      <path id="Path_3292" data-name="Path 3292" d="M295.438,855.813h-2.373V853.5h2.373Z" transform="translate(-268.784 -802.323)" fill="#563dbf"/>
    </g>
    <g id="Group_2205" data-name="Group 2205" transform="translate(256.949 794.262)">
      <path id="Path_3293" data-name="Path 3293" d="M262.05,841.166l3.216-3.131a.581.581,0,0,0-.023-.836.621.621,0,0,0-.836,0l-3.216,3.131-3.216-3.131a.62.62,0,0,0-.859.023.58.58,0,0,0,0,.813l3.216,3.131-3.216,3.131a.581.581,0,0,0,.024.836.62.62,0,0,0,.835,0L261.191,842l3.216,3.131a.619.619,0,0,0,.859.023.58.58,0,0,0,.024-.836l-.024-.023Z" transform="translate(-256.949 -837.037)" fill="#563dbf"/>
    </g>
    <g id="Group_2215" data-name="Group 2215" transform="translate(286.707 718.749)">
      <g id="Group_2208" data-name="Group 2208" transform="translate(66.142 33.628)">
        <g id="Group_2206" data-name="Group 2206" transform="translate(0 11.786)">
          <path id="Path_3294" data-name="Path 3294" d="M395.929,819.9a5.7,5.7,0,0,1-1.763-.279,6.224,6.224,0,0,1-3.8-7.858,7.887,7.887,0,0,1,1.648-2.746c3.037-3.6,6.1-7.238,9.159-10.885.461-.542.916-1.078,1.375-1.633a1.106,1.106,0,0,1,.851-.4c.031,0,.061,0,.092,0a1.1,1.1,0,0,1,.862.541c1.492,2.6,3.091,4.037,5.182,4.664a1.083,1.083,0,0,1,.7.653,1.041,1.041,0,0,1-.109.941c-.236.356-.445.683-.62,1,0,0-4.65,7.231-5.187,8.068q-1.136,1.768-2.273,3.528a23.719,23.719,0,0,1-1.351,2.031A6.086,6.086,0,0,1,395.929,819.9Z" transform="translate(-388.965 -795.038)" fill="#fff"/>
          <path id="Path_3295" data-name="Path 3295" d="M402.989,796.73c1.39,2.419,3.138,4.359,5.813,5.162-.252.382-.474.73-.662,1.065-1.178,1.827-2.359,3.673-3.537,5.5-1.3,2.018-2.587,4.036-3.887,6.037a23.375,23.375,0,0,1-1.313,1.978,4.991,4.991,0,0,1-3.881,1.929,4.593,4.593,0,0,1-1.419-.224,5.157,5.157,0,0,1-3.1-6.538,6.859,6.859,0,0,1,1.416-2.346q4.6-5.451,9.194-10.924c.459-.54.917-1.08,1.379-1.638m0-2.128a2.209,2.209,0,0,0-1.7.792c-.456.551-.909,1.084-1.361,1.617-3.039,3.624-6.121,7.286-9.169,10.895a8.919,8.919,0,0,0-1.821,3.033c-.009.026-.018.051-.026.077a7.287,7.287,0,0,0,4.5,9.178,6.824,6.824,0,0,0,2.11.333,7.165,7.165,0,0,0,5.608-2.752c.015-.021.031-.04.047-.062.5-.678.976-1.391,1.41-2.119q1.134-1.746,2.258-3.5.8-1.25,1.61-2.5.885-1.372,1.771-2.754t1.766-2.746c.025-.038.047-.076.07-.116.168-.3.387-.639.579-.928a2.081,2.081,0,0,0,.216-1.881,2.164,2.164,0,0,0-1.409-1.3c-1.8-.541-3.2-1.826-4.55-4.167a2.19,2.19,0,0,0-1.724-1.081c-.061-.006-.123-.008-.184-.008Z" transform="translate(-388.558 -794.602)" fill="#563dbf"/>
        </g>
        <g id="Group_2207" data-name="Group 2207" transform="translate(11.848)">
          <path id="Path_3296" data-name="Path 3296" d="M414.482,796.95a7.053,7.053,0,0,1-2.476-.448,8.2,8.2,0,0,1-3.957-3.225,9.47,9.47,0,0,1-1.716-4.947,5.977,5.977,0,0,1,0-.8,14.131,14.131,0,0,1,.232-1.68,9.388,9.388,0,0,1,1.943-3.932,2.755,2.755,0,0,1,.417-.416,2.88,2.88,0,0,1,1.8-.632,2.849,2.849,0,0,1,2.177,1,1.055,1.055,0,0,1,.2.343q.743-.537,1.528-1a11.856,11.856,0,0,1,4.57-1.674c.153-.022.31-.032.5-.041l.18-.007a1.1,1.1,0,0,1,.949.536,1.261,1.261,0,0,1,.66-.184,1.282,1.282,0,0,1,.656.178,4.093,4.093,0,0,1,1.793,1.907,1.054,1.054,0,0,1,.076.243,1.414,1.414,0,0,1-.173.969,1.025,1.025,0,0,1-.109.153l-.038.044c.032.011.063.023.095.036a1.061,1.061,0,0,1,.646,1.006l-.018.628a10.343,10.343,0,0,1-.689,3.071,20.048,20.048,0,0,1-3.528,6.034,7.488,7.488,0,0,1-2.563,2.1,7.087,7.087,0,0,1-3.148.741Z" transform="translate(-405.225 -778.422)" fill="#fff"/>
          <path id="Path_3297" data-name="Path 3297" d="M419.465,780.114c-.2.244-.38.43-.543.634-1.2,1.388-2.408,2.791-3.611,4.179a.737.737,0,0,0-.138.858.666.666,0,0,0,.6.367.656.656,0,0,0,.165-.021,1,1,0,0,0,.409-.24c.943-1.092,1.889-2.2,2.832-3.291.583-.689,1.165-1.363,1.75-2.053l.008-.011a.171.171,0,0,1,.14-.07.18.18,0,0,1,.1.031,3,3,0,0,1,1.349,1.419.369.369,0,0,1-.046.255c-1.187,1.39-2.392,2.793-3.6,4.181-.264.311-.541.619-.807.945a.523.523,0,0,0-.035.045.672.672,0,0,0,.174.953.728.728,0,0,0,.976-.127c1.042-1.2,2.065-2.385,3.092-3.587a7.48,7.48,0,0,1,.646-.679c-.007.215-.012.415-.018.631a9.288,9.288,0,0,1-.617,2.725,19.092,19.092,0,0,1-3.35,5.736,6.418,6.418,0,0,1-2.22,1.833,5.95,5.95,0,0,1-4.731.246,7.159,7.159,0,0,1-3.422-2.795,8.485,8.485,0,0,1-1.552-4.44,4.932,4.932,0,0,1-.005-.681,13.056,13.056,0,0,1,.214-1.539,8.254,8.254,0,0,1,1.719-3.464,1.707,1.707,0,0,1,.266-.268,1.765,1.765,0,0,1,2.44.223c-.281.246-.581.489-.847.737-.6.579-1.212,1.17-1.811,1.763a2.538,2.538,0,0,0-.338.376c-.112.182-.249.328-.359.5a.612.612,0,0,0-.035.55c.128.177.241.428.559.435a.768.768,0,0,0,.079,0,.781.781,0,0,0,.609-.289c.181-.216.378-.43.576-.644.057-.053,1.825-1.763,2.015-1.931a18.658,18.658,0,0,1,2.683-1.924,10.889,10.889,0,0,1,4.168-1.532c.146-.021.306-.025.514-.035m0-2.128c-.039,0-.079,0-.119,0l-.115.006c-.187.009-.379.018-.6.05a13.016,13.016,0,0,0-5.006,1.831q-.363.215-.718.445a4,4,0,0,0-5.09-.074,3.906,3.906,0,0,0-.582.582,10.43,10.43,0,0,0-2.143,4.33c0,.018-.008.036-.012.055a15.432,15.432,0,0,0-.247,1.781l0,.036a7.218,7.218,0,0,0,0,.94,10.568,10.568,0,0,0,1.906,5.474,9.269,9.269,0,0,0,4.434,3.6,8.19,8.19,0,0,0,6.544-.326,8.654,8.654,0,0,0,2.942-2.412A21.147,21.147,0,0,0,424.344,788a11.338,11.338,0,0,0,.747-3.315c0-.028,0-.055,0-.082l.009-.3.01-.328a2.088,2.088,0,0,0-.472-1.392,2.444,2.444,0,0,0,.035-1.038,2.091,2.091,0,0,0-.152-.483,5.171,5.171,0,0,0-2.247-2.4,2.393,2.393,0,0,0-1.2-.321,2.488,2.488,0,0,0-.364.028,2.228,2.228,0,0,0-1.245-.379Z" transform="translate(-404.818 -777.986)" fill="#563dbf"/>
        </g>
      </g>
      <g id="Group_2211" data-name="Group 2211" transform="translate(0 42.899)">
        <g id="Group_2209" data-name="Group 2209" transform="translate(11.797 9.4)">
          <path id="Path_3298" data-name="Path 3298" d="M331.55,827.282a6.1,6.1,0,0,1-3.925-1.468,24.141,24.141,0,0,1-1.739-1.743c-.928-.952-1.881-1.941-2.837-2.931l-6.438-6.663c-.272-.316-.534-.588-.828-.885a1.043,1.043,0,0,1-.293-.9,1.069,1.069,0,0,1,.561-.772c1.861-.977,3.1-2.634,4.016-5.374a1.078,1.078,0,0,1,.737-.693,1.129,1.129,0,0,1,.3-.041,1.11,1.11,0,0,1,.7.248c.544.443,1.081.871,1.618,1.3q5.438,4.377,10.872,8.718a7.73,7.73,0,0,1,2.051,2.258,6.033,6.033,0,0,1-2.091,8.257A5.606,5.606,0,0,1,331.55,827.282Z" transform="translate(-314.384 -804.745)" fill="#fff"/>
          <path id="Path_3299" data-name="Path 3299" d="M320.7,806.438c.548.446,1.089.877,1.63,1.307q5.43,4.37,10.868,8.715a6.745,6.745,0,0,1,1.8,1.974,4.964,4.964,0,0,1-1.688,6.794,4.47,4.47,0,0,1-2.169.555,4.981,4.981,0,0,1-3.208-1.207,23.149,23.149,0,0,1-1.634-1.641c-1.625-1.668-3.239-3.354-4.87-5.036-1.475-1.523-2.957-3.064-4.432-4.587-.243-.284-.522-.576-.837-.893,2.392-1.255,3.681-3.422,4.536-5.98m0-2.129a2.244,2.244,0,0,0-.6.083,2.16,2.16,0,0,0-1.476,1.387c-.823,2.46-1.9,3.93-3.495,4.767A2.128,2.128,0,0,0,314,812.091a2.092,2.092,0,0,0,.587,1.8c.238.24.509.519.728.775.029.035.06.068.091.1q1.1,1.138,2.209,2.287t2.222,2.3q1.012,1.044,2.016,2.086,1.414,1.467,2.829,2.924c.555.615,1.146,1.208,1.757,1.763l.058.051a7.215,7.215,0,0,0,4.642,1.729,6.729,6.729,0,0,0,3.248-.833,7.077,7.077,0,0,0,2.536-9.648c-.013-.024-.027-.048-.041-.071a8.841,8.841,0,0,0-2.337-2.571c-3.591-2.868-7.233-5.79-10.827-8.682-.546-.433-1.079-.858-1.62-1.3a2.227,2.227,0,0,0-1.4-.5Z" transform="translate(-313.977 -804.309)" fill="#563dbf"/>
        </g>
        <g id="Group_2210" data-name="Group 2210">
          <path id="Path_3300" data-name="Path 3300" d="M309.953,808.793a6.916,6.916,0,0,1-1.848-.252,7.459,7.459,0,0,1-2.9-1.573,19.687,19.687,0,0,1-4.5-5.089,10.07,10.07,0,0,1-1.232-2.749l-.149-.635a1.051,1.051,0,0,1,.433-1.109l.047-.031-.01-.007a1.076,1.076,0,0,1-.132-.124,1.41,1.41,0,0,1-.364-.915,1.019,1.019,0,0,1,.026-.253,3.944,3.944,0,0,1,1.35-2.162,1.286,1.286,0,0,1,1.255-.254,1.088,1.088,0,0,1,.871-.682l.118-.016c.183-.026.334-.046.479-.052.174-.008.342-.011.511-.011a11.7,11.7,0,0,1,4.209.778c.532.189,1.063.4,1.586.645a1.024,1.024,0,0,1,.117-.33,2.785,2.785,0,0,1,2.442-1.415,2.835,2.835,0,0,1,1.319.326,2.786,2.786,0,0,1,.5.341,9.216,9.216,0,0,1,2.59,3.358,14.013,14.013,0,0,1,.552,1.566,5.915,5.915,0,0,1,.16.806,9.184,9.184,0,0,1-.7,5.064,7.815,7.815,0,0,1-3.124,3.758,6.869,6.869,0,0,1-3.6,1.017Z" transform="translate(-298.195 -791.492)" fill="#fff"/>
          <path id="Path_3301" data-name="Path 3301" d="M311.844,793.184a1.7,1.7,0,0,1,.8.2,1.667,1.667,0,0,1,.305.206,8.143,8.143,0,0,1,2.308,2.984,12.844,12.844,0,0,1,.5,1.426,4.923,4.923,0,0,1,.128.65,8.182,8.182,0,0,1-.619,4.512,6.839,6.839,0,0,1-2.717,3.288,5.771,5.771,0,0,1-4.551.634,6.318,6.318,0,0,1-2.469-1.339,18.786,18.786,0,0,1-4.3-4.847,9.083,9.083,0,0,1-1.115-2.482c-.049-.2-.091-.394-.14-.6a7.355,7.355,0,0,1,.747.528c1.21.955,2.413,1.9,3.638,2.848a.707.707,0,0,0,.955-.058.653.653,0,0,0-.019-.94c-.014-.013-.028-.025-.042-.036-.316-.262-.64-.5-.951-.751-1.414-1.1-2.834-2.216-4.233-3.322a.366.366,0,0,1-.093-.235,2.865,2.865,0,0,1,1.01-1.6.168.168,0,0,1,.122-.051.166.166,0,0,1,.114.044l.01.01c.69.549,1.374,1.084,2.064,1.633,1.109.867,2.224,1.748,3.333,2.615a.985.985,0,0,0,.436.154h.036a.642.642,0,0,0,.624-.471.721.721,0,0,0-.3-.792c-1.414-1.1-2.833-2.215-4.247-3.317-.2-.164-.4-.309-.64-.5.2-.028.353-.053.5-.06s.305-.01.458-.01a10.641,10.641,0,0,1,3.807.7,18.333,18.333,0,0,1,2.927,1.341c.213.125,2.228,1.428,2.292,1.469.23.167.459.334.673.508a.764.764,0,0,0,.49.177.78.78,0,0,0,.22-.032c.3-.065.361-.326.448-.517a.6.6,0,0,0-.14-.518c-.137-.139-.3-.253-.439-.406a2.409,2.409,0,0,0-.394-.3c-.685-.455-1.385-.906-2.065-1.347-.3-.187-.634-.364-.949-.547a1.69,1.69,0,0,1,1.48-.857m0-2.128A3.9,3.9,0,0,0,308.8,792.5q-.362-.145-.727-.275a12.815,12.815,0,0,0-4.583-.842c-.184,0-.369,0-.554.011-.23.011-.426.039-.6.064l-.111.016a2.21,2.21,0,0,0-1.245.609,2.4,2.4,0,0,0-1.441.575,5,5,0,0,0-1.7,2.736,2.056,2.056,0,0,0-.052.5,2.435,2.435,0,0,0,.227.979,2.078,2.078,0,0,0-.171,1.428l.072.309.066.284c.007.026.013.053.02.079a11.193,11.193,0,0,0,1.36,3.036,20.9,20.9,0,0,0,4.741,5.35,8.568,8.568,0,0,0,3.287,1.768,8.009,8.009,0,0,0,6.323-.878,8.943,8.943,0,0,0,3.577-4.289,10.238,10.238,0,0,0,.759-5.593,6.94,6.94,0,0,0-.179-.9l-.01-.035a14.938,14.938,0,0,0-.582-1.658l-.022-.05a10.324,10.324,0,0,0-2.9-3.752,3.841,3.841,0,0,0-.678-.455,3.955,3.955,0,0,0-1.841-.455Z" transform="translate(-297.788 -791.056)" fill="#563dbf"/>
        </g>
      </g>
      <g id="Group_2212" data-name="Group 2212" transform="translate(25.712 53.256)">
        <path id="Path_3302" data-name="Path 3302" d="M355.767,836.19a49.334,49.334,0,0,1-19.413-3.944,1.073,1.073,0,0,1-.612-.678c-.05-.166-.091-.326-.131-.484l-.112-.438a27.934,27.934,0,0,1-.884-5.161c-.309-4.563,1.054-7.946,4.165-10.339a36.059,36.059,0,0,1,3.2-2.214c.771-.481,1.585-.942,2.483-1.407a37.836,37.836,0,0,1,8.376-3.144c.315-.082.646-.162.979-.226a39.351,39.351,0,0,1,4.869-.783c1.431-.143,2.907-.216,4.389-.216a48.551,48.551,0,0,1,5.348.3c.434.049.873.1,1.307.165.063,0,.126.012.189.021a18.173,18.173,0,0,1,2.646.575,1.441,1.441,0,0,1,.175.054,15.225,15.225,0,0,1,7.681,5.206,9.434,9.434,0,0,1,.988,1.677c1.531,3.247,2.322,8.727,1.058,11.709-.12.289-.259.58-.408.864-.12.234-.253.464-.387.693-.17.279-.34.535-.52.777a1.082,1.082,0,0,1-.325.289,49.2,49.2,0,0,1-20.017,6.45C359.137,836.105,357.44,836.19,355.767,836.19Z" transform="translate(-333.48 -806.094)" fill="#563dbf"/>
        <path id="Path_3303" data-name="Path 3303" d="M362.669,807.786a47.257,47.257,0,0,1,5.224.294c.437.049.882.1,1.321.167.066,0,.134.016.2.023a16.556,16.556,0,0,1,2.467.545.444.444,0,0,1,.091.026,14.088,14.088,0,0,1,7.161,4.832,8.387,8.387,0,0,1,.874,1.488c1.51,3.2,2.122,8.316,1.043,10.862-.111.267-.237.53-.372.786-.115.226-.239.437-.364.649-.144.235-.3.465-.455.68a48.3,48.3,0,0,1-19.567,6.3q-2.484.248-4.932.247a48.435,48.435,0,0,1-18.977-3.855c-.045-.152-.082-.3-.12-.444l-.111-.438a27.156,27.156,0,0,1-.854-4.97c-.25-3.69.608-7.02,3.752-9.437a34.773,34.773,0,0,1,3.106-2.15c.791-.492,1.593-.943,2.413-1.367a36.6,36.6,0,0,1,8.131-3.051c.307-.08.614-.154.923-.213a38.375,38.375,0,0,1,4.768-.769c1.4-.14,2.832-.21,4.278-.21m0-2.128h0c-1.519,0-3.033.074-4.5.221a40.934,40.934,0,0,0-5.008.805c-.315.062-.652.14-1.029.239a38.894,38.894,0,0,0-8.592,3.229c-.912.472-1.751.948-2.561,1.452a37.257,37.257,0,0,0-3.29,2.278c-3.361,2.584-4.9,6.368-4.57,11.242a28.978,28.978,0,0,0,.914,5.347l.054.21.058.226c.044.172.089.343.142.522a2.147,2.147,0,0,0,1.224,1.358,50.446,50.446,0,0,0,19.852,4.033c1.709,0,3.444-.087,5.155-.258a50.284,50.284,0,0,0,20.467-6.6,2.161,2.161,0,0,0,.648-.578c.191-.257.376-.532.564-.841l.02-.033c.13-.223.278-.475.42-.754q.25-.477.442-.939c1.411-3.328.538-9.108-1.084-12.546a10.488,10.488,0,0,0-1.1-1.86,16.335,16.335,0,0,0-8.217-5.587c-.066-.023-.141-.047-.227-.068a19,19,0,0,0-2.717-.594l-.066-.008c-.047-.008-.127-.019-.228-.028-.431-.061-.869-.115-1.3-.163a49.577,49.577,0,0,0-5.473-.309Z" transform="translate(-333.074 -805.658)" fill="#563dbf"/>
      </g>
      <g id="Group_2213" data-name="Group 2213" transform="translate(8.587 0)">
        <path id="Path_3304" data-name="Path 3304" d="M379.982,746.993a12.065,12.065,0,0,1,.122,3.8,13.683,13.683,0,0,1-6.4,9.97.941.941,0,0,0-.381.545,1.1,1.1,0,0,0,.319,1.227,12.36,12.36,0,0,1,3.205,10.536,11.818,11.818,0,0,1-1.006,3.328,25.475,25.475,0,0,1-1.189,2.262,18.307,18.307,0,0,1-1.422,1.956,24.186,24.186,0,0,1-1.641,1.841,27.462,27.462,0,0,1-4.6,3.709,37.848,37.848,0,0,1-8.527,4.078,45.5,45.5,0,0,1-6.009,1.565,41.638,41.638,0,0,1-13.121.419,29.478,29.478,0,0,1-10.034-3.063,16.9,16.9,0,0,1-6.437-5.542,12.375,12.375,0,0,1-1.175-11.871.41.41,0,0,0-.057-.482.679.679,0,0,1-.141-.214c-.16-.445-.6-.521-1.006-.638a23.426,23.426,0,0,1-2.26-.7,13.655,13.655,0,0,1-6.544-5.264,12.883,12.883,0,0,1-1.887-4.555,12.534,12.534,0,0,1,.055-4.918,13.59,13.59,0,0,1,5.071-8.068,15.072,15.072,0,0,1,5.925-2.889.673.673,0,0,0,.423-.361,27.214,27.214,0,0,1,6.167-6.719,30.783,30.783,0,0,1,26.413-5.383,28.031,28.031,0,0,1,9.394,4.408.751.751,0,0,0,.576.134c5.993-.733,11.952,2.1,14.7,6.985A13.007,13.007,0,0,1,379.982,746.993Z" transform="translate(-309.572 -730.575)" fill="#fff"/>
        <path id="Path_3305" data-name="Path 3305" d="M379.982,746.99a12.845,12.845,0,0,0-1.466-3.9c-2.749-4.881-8.71-7.715-14.705-6.981a.765.765,0,0,1-.571-.135,28.159,28.159,0,0,0-9.394-4.409,30.792,30.792,0,0,0-26.418,5.384,27.184,27.184,0,0,0-6.162,6.719.684.684,0,0,1-.423.356,15.032,15.032,0,0,0-5.928,2.9,13.572,13.572,0,0,0-5.069,8.064,12.465,12.465,0,0,0-.052,4.918,12.787,12.787,0,0,0,1.886,4.553,13.607,13.607,0,0,0,6.54,5.265,21.218,21.218,0,0,0,2.264.7c.408.116.841.194,1.006.641a.742.742,0,0,0,.14.214.408.408,0,0,1,.058.48,12.381,12.381,0,0,0,1.172,11.876,16.888,16.888,0,0,0,6.436,5.539,26.935,26.935,0,0,0,5.283,2.1c.4.109.8.219,1.2.307a32.994,32.994,0,0,0,3.549.658,39.714,39.714,0,0,0,9.887.06c1.071-.121,2.146-.279,3.231-.479a44.955,44.955,0,0,0,6.01-1.563,38.468,38.468,0,0,0,6.822-3.041c.111-.061.214-.121.317-.189.47-.268.93-.556,1.39-.852a27.276,27.276,0,0,0,4.605-3.7c.582-.593,1.132-1.212,1.645-1.84a19.153,19.153,0,0,0,1.419-1.96c.087-.144.175-.288.248-.431.34-.6.641-1.212.942-1.834a11.876,11.876,0,0,0,1-3.323,12.376,12.376,0,0,0-3.205-10.539,1.087,1.087,0,0,1-.32-1.223.9.9,0,0,1,.383-.544,13.674,13.674,0,0,0,6.4-9.973A12,12,0,0,0,379.982,746.99Zm-68.394,11.253c-.4-5.785,3.718-10.382,8.16-11.945-.138.292-.251.531-.358.763a25.836,25.836,0,0,0-1.519,4.287.56.56,0,0,1-.155.265,8.372,8.372,0,0,0-2.356,6.767,7.441,7.441,0,0,0,2.236,4.54,2.223,2.223,0,0,1,.519,1.1,25.335,25.335,0,0,0,1.63,4.137.617.617,0,0,1,.059.144A11.568,11.568,0,0,1,311.588,758.242Zm62.87,9.434a11.061,11.061,0,0,1-.861,8.928,19.915,19.915,0,0,1-5.548,6.5,30.464,30.464,0,0,1-5.211,3.315c-.944.487-1.916.926-2.907,1.324-.449.188-.906.362-1.365.529a43.563,43.563,0,0,1-7.056,1.86c-.375.066-.756.133-1.145.186-.714.106-1.444.194-2.185.254a37.759,37.759,0,0,1-9.957-.367c-.007,0-.023,0-.03,0q-.683-.125-1.347-.272a25.032,25.032,0,0,1-6.929-2.566,15.322,15.322,0,0,1-5.037-4.281,10.6,10.6,0,0,1-1.534-10.171c.043-.147.093-.3.151-.443a9.659,9.659,0,0,1,.418-.968.418.418,0,0,0-.053-.5c-.127-.158-.246-.318-.366-.484-.214-.285-.42-.578-.613-.88a21.007,21.007,0,0,1-1.9-3.482,22.5,22.5,0,0,1-1.841-8.565,22.858,22.858,0,0,1,3.128-11.885,25.434,25.434,0,0,1,5.306-6.434,25.828,25.828,0,0,1,2.867-2.2,28.79,28.79,0,0,1,16.872-4.637,27.489,27.489,0,0,1,10.416,2.5,25.311,25.311,0,0,1,7.806,5.53,23.291,23.291,0,0,1,3.322,4.417,22.339,22.339,0,0,1,2.609,15.711c-.058.284-.122.575-.195.86l-.031.132c-.049.226-.121.447-.171.673a.429.429,0,0,0-.016.058c-.01.037-.014.073-.025.109a.241.241,0,0,0,.06.23A11.611,11.611,0,0,1,374.457,767.677Zm-.651-9.3c.023-.551.087-1.05.071-1.547-.042-1.23-.113-2.463-.171-3.7a.858.858,0,0,1,.066-.355,7.828,7.828,0,0,0-2.359-9.519,16.876,16.876,0,0,0-1.865-1.147,1.671,1.671,0,0,1-.3-.234,26.8,26.8,0,0,0-3.518-3.912c-.025-.026-.058-.058-.131-.136a13.044,13.044,0,0,1,4.463.716,11.955,11.955,0,0,1,6.724,5.481A11.264,11.264,0,0,1,373.806,758.373Z" transform="translate(-309.572 -730.575)" fill="#563dbf"/>
      </g>
      <g id="Group_2214" data-name="Group 2214" transform="translate(19.987 12.998)">
        <path id="Path_3306" data-name="Path 3306" d="M376.76,767.687a10.554,10.554,0,0,0-3.919-1.615,15.168,15.168,0,0,0-.794-8.444c-5.48-12.34-21.5-8.572-22.412,4.185-1.732-2.445-3.08-4.84-5.712-6.222-11.9-6.244-22.83,6.906-14.663,17.609-.338.6-1.711,4.494-2.012,5.116Z" transform="translate(-325.545 -749.242)" fill="#fff"/>
        <path id="Path_3307" data-name="Path 3307" d="M327.747,778.3l-1.656-.65c.114-.238.48-1.211.8-2.07.449-1.2.78-2.075,1.009-2.612-3.189-4.483-4.251-11.435.845-16.567,3.128-3.151,8.794-5.3,15.312-1.881a13.3,13.3,0,0,1,4.685,4.566,12.832,12.832,0,0,1,10.3-10.014c4.5-.768,10.417.9,13.519,7.882a15.156,15.156,0,0,1,.947,8.138,11.034,11.034,0,0,1,3.5,1.6L375.85,768a9.668,9.668,0,0,0-3.539-1.451l-.807-.151.109-.758a14.252,14.252,0,0,0-.736-8.021c-2.7-6.082-7.735-7.554-11.546-6.9-4.2.717-8.656,4.332-9.117,10.788l-.181,2.539-1.491-2.1c-.262-.37-.515-.739-.766-1.1-1.394-2.031-2.6-3.783-4.646-4.859-5.59-2.933-10.408-1.131-13.055,1.534-4.556,4.59-3.4,10.917-.4,14.854l.313.409-.256.453c-.159.281-.742,1.833-1.127,2.86C328.167,777.27,327.888,778.008,327.747,778.3Z" transform="translate(-325.217 -748.9)" fill="#563dbf"/>
      </g>
      <path id="Path_3308" data-name="Path 3308" d="M384.893,781.539c.106.542-1.514,1.3-3.623,1.695s-3.9.274-4.008-.268,1.514-1.3,3.622-1.7S384.785,781,384.893,781.539Z" transform="translate(-319.349 -745.245)" fill="#563dbf" opacity="0.31"/>
      <path id="Path_3309" data-name="Path 3309" d="M344.459,789.424c.052.549-1.637,1.152-3.774,1.345s-3.911-.1-3.964-.646,1.637-1.152,3.775-1.345S344.407,788.873,344.459,789.424Z" transform="translate(-308.351 -747.477)" fill="#563dbf" opacity="0.31"/>
      <path id="Path_3310" data-name="Path 3310" d="M377.559,773.267c.332,1.532-.22,2.943-1.232,3.151s-2.1-.868-2.433-2.4.221-2.943,1.234-3.15S377.228,771.734,377.559,773.267Z" transform="translate(-318.411 -742.281)" fill="#563dbf"/>
      <path id="Path_3311" data-name="Path 3311" d="M359.4,783.748a1.139,1.139,0,0,1-.751,1.432,1.173,1.173,0,0,1-1.332-.951,1.14,1.14,0,0,1,.751-1.433A1.173,1.173,0,0,1,359.4,783.748Z" transform="translate(-313.928 -745.749)" fill="#563dbf"/>
      <path id="Path_3312" data-name="Path 3312" d="M350.741,792.519s9.339-5.068,18.669-3.532c0,0,1.653,11.418-7.5,12.959C361.908,801.946,352.168,803.477,350.741,792.519Z" transform="translate(-312.155 -747.471)" fill="#563dbf"/>
      <path id="Path_3313" data-name="Path 3313" d="M365.366,782.468a1.139,1.139,0,0,1-.751,1.433,1.173,1.173,0,0,1-1.332-.952,1.14,1.14,0,0,1,.751-1.433A1.173,1.173,0,0,1,365.366,782.468Z" transform="translate(-315.547 -745.377)" fill="#563dbf"/>
      <path id="Path_3314" data-name="Path 3314" d="M368.258,801.959a10.334,10.334,0,0,1-11.252,0A17.4,17.4,0,0,1,368.258,801.959Z" transform="translate(-313.855 -751.055)" fill="#fff"/>
      <path id="Path_3315" data-name="Path 3315" d="M347.458,778.216c.332,1.532-.221,2.943-1.233,3.15s-2.1-.868-2.432-2.4.221-2.943,1.234-3.15S347.127,776.683,347.458,778.216Z" transform="translate(-310.244 -743.719)" fill="#563dbf"/>
    </g>
  </g>
</svg>
