<svg xmlns="http://www.w3.org/2000/svg" width="201" height="186.49" viewBox="0 0 201 186.49">
  <g id="ic_pregunta_modal" transform="translate(-67.529 -625.955)">
    <g id="Group_2102" data-name="Group 2102">
      <g id="Group_2099" data-name="Group 2099">
        <circle id="Ellipse_23" data-name="Ellipse 23" cx="93.245" cy="93.245" r="93.245" transform="translate(76.093 625.955)" fill="#fff"/>
        <circle id="Ellipse_24" data-name="Ellipse 24" cx="92.245" cy="92.245" r="92.245" transform="translate(77.093 626.955)" fill="none" stroke="#b0b0b0" stroke-width="2" stroke-dasharray="0 10"/>
      </g>
      <circle id="Ellipse_25" data-name="Ellipse 25" cx="85.465" cy="85.465" r="85.465" transform="translate(84.223 634.741)" fill="#563dbf" opacity="0.047"/>
      <g id="Group_2100" data-name="Group 2100" opacity="0.042">
        <path id="Path_3210" data-name="Path 3210" d="M168.809,783.572a64.672,64.672,0,0,1-36.334-11.1,65.173,65.173,0,0,1-23.545-28.592,64.573,64.573,0,0,1-5.107-25.3,65.265,65.265,0,0,1,5.135-25.362,64.01,64.01,0,0,1,9.654-15.966,65.025,65.025,0,1,1,50.2,106.313Z" fill="#563dbf"/>
        <path id="Path_3211" data-name="Path 3211" d="M168.809,654.1A64.484,64.484,0,0,0,119,677.577a63.474,63.474,0,0,0-9.579,15.842,64.767,64.767,0,0,0-5.1,25.168,64.174,64.174,0,0,0,11.013,36.054,64.674,64.674,0,0,0,28.372,23.364,64.406,64.406,0,0,0,61.155-5.945,64.683,64.683,0,0,0,23.365-28.373,64.392,64.392,0,0,0-5.946-61.154,64.66,64.66,0,0,0-28.373-23.365,64.083,64.083,0,0,0-25.1-5.067m0-1A65.433,65.433,0,1,1,108.5,693.032,65.486,65.486,0,0,1,168.809,653.1Z" fill="#707070"/>
      </g>
      <g id="Group_2101" data-name="Group 2101">
        <path id="Path_3212" data-name="Path 3212" d="M265.308,735.583h3.221v3.257h-3.221Z" fill="#563dbf"/>
        <path id="Path_3213" data-name="Path 3213" d="M67.529,715.634v-3.257h3.257v3.257Z" fill="#563dbf"/>
      </g>
    </g>
    <text id="_" data-name="?" transform="translate(146.098 752.147)" fill="#563dbf" font-size="90" font-family="VAGRoundedStd-Bold, VAG Rounded Std" font-weight="700"><tspan x="0" y="0">?</tspan></text>
    <path id="Path_3215" data-name="Path 3215" d="M259.04,653.1a.66.66,0,0,1-.609.656,5.148,5.148,0,0,0-1.077.234,2.49,2.49,0,0,0-1.545,2.131c0,.07-.023.164-.023.234a.634.634,0,0,1-.636.632h-.02a.6.6,0,0,1-.632-.656,2.7,2.7,0,0,0-1.007-2.037,2.821,2.821,0,0,0-1.545-.562.634.634,0,0,1-.678-.585.562.562,0,0,1,0-.071c0-.375.234-.609.679-.632a2.624,2.624,0,0,0,2.552-2.576.62.62,0,0,1,.585-.655.362.362,0,0,1,.047,0,.59.59,0,0,1,.632.545.628.628,0,0,1,0,.087,2.618,2.618,0,0,0,1.944,2.482c.234.07.492.07.726.117A.72.72,0,0,1,259.04,653.1Zm-3.91.89c.281-.281.632-.632.913-.89-.281-.281-.609-.632-.866-.89-.3.281-.679.609-.937.866C254.521,653.383,254.849,653.715,255.13,653.992Z" fill="#563dbf"/>
    <path id="Path_3216" data-name="Path 3216" d="M107.7,799.231a.91.91,0,0,1-.841.906,7.2,7.2,0,0,0-1.487.323,3.442,3.442,0,0,0-2.133,2.942c0,.1-.032.226-.032.323a.877.877,0,0,1-.878.874H102.3a.84.84,0,0,1-.875-.8.862.862,0,0,1,0-.1,3.725,3.725,0,0,0-1.39-2.812A3.906,3.906,0,0,0,97.9,800.1a.874.874,0,0,1-.936-.808.766.766,0,0,1,0-.1c0-.518.323-.841.937-.873a3.623,3.623,0,0,0,3.523-3.557.857.857,0,0,1,.808-.9h.065a.815.815,0,0,1,.873.752.872.872,0,0,1,0,.12,3.611,3.611,0,0,0,2.684,3.427c.323.1.679.1,1,.162A.994.994,0,0,1,107.7,799.231Zm-5.4,1.229c.388-.388.873-.873,1.26-1.229-.388-.388-.841-.872-1.2-1.229-.414.388-.937.841-1.294,1.2C101.458,799.619,101.911,800.078,102.3,800.46Z" transform="translate(0 -5)" fill="#563dbf"/>
  </g>
</svg>
