<svg xmlns="http://www.w3.org/2000/svg" width="205.408" height="186.401" viewBox="0 0 205.408 186.401">
  <g id="ic_reportar_abuso" transform="translate(-335.746 -225.205)">
    <g id="Group_2157" data-name="Group 2157" transform="translate(340.251 225.205)">
      <g id="Group_2154" data-name="Group 2154" transform="translate(8.56)">
        <circle id="Ellipse_220" data-name="Ellipse 220" cx="93.2" cy="93.2" r="93.2" fill="#fff"/>
        <circle id="Ellipse_221" data-name="Ellipse 221" cx="92.2" cy="92.2" r="92.2" transform="translate(1 1)" fill="none" stroke="#b0b0b0" stroke-width="2" stroke-dasharray="0 10"/>
      </g>
      <circle id="Ellipse_222" data-name="Ellipse 222" cx="85.424" cy="85.424" r="85.424" transform="translate(16.686 8.782)" fill="#563dbf" opacity="0.047"/>
      <g id="Group_2155" data-name="Group 2155" transform="translate(35.777 27.133)" opacity="0.042">
        <path id="Path_3209" data-name="Path 3209" d="M441.5,382.76a64.662,64.662,0,0,1-36.316-11.093,65.157,65.157,0,0,1-23.534-28.579,64.538,64.538,0,0,1-5.1-25.283,65.229,65.229,0,0,1,5.133-25.349,63.961,63.961,0,0,1,9.649-15.958A64.992,64.992,0,1,1,441.5,382.76Z" transform="translate(-376.047 -252.351)" fill="#563dbf"/>
        <path id="Path_3210" data-name="Path 3210" d="M441.5,253.351a64.456,64.456,0,0,0-49.787,23.466,63.465,63.465,0,0,0-9.574,15.833,64.736,64.736,0,0,0-5.094,25.156,64.133,64.133,0,0,0,11.008,36.037A64.653,64.653,0,0,0,416.414,377.2a64.36,64.36,0,0,0,61.124-5.943,64.658,64.658,0,0,0,23.354-28.358,64.367,64.367,0,0,0-5.943-61.125,64.643,64.643,0,0,0-28.358-23.353,64.043,64.043,0,0,0-25.089-5.066m0-1a65.4,65.4,0,1,1-60.283,39.912A65.454,65.454,0,0,1,441.5,252.351Z" transform="translate(-376.047 -252.351)" fill="#707070"/>
      </g>
      <g id="Group_2156" data-name="Group 2156" transform="translate(0 86.38)">
        <path id="Path_3211" data-name="Path 3211" d="M538.032,334.833h3.219v3.255h-3.219Z" transform="translate(-340.348 -311.638)" fill="#563dbf"/>
        <path id="Path_3212" data-name="Path 3212" d="M340.253,314.882v-3.255h3.255v3.255Z" transform="translate(-340.253 -311.627)" fill="#563dbf"/>
        <path id="Path_3213" data-name="Path 3213" d="M376.83,387.039h-3.255v-3.255h3.255Z" transform="translate(-340.269 -311.662)" fill="#563dbf"/>
      </g>
    </g>
    <g id="Group_2158" data-name="Group 2158" transform="translate(393.342 271.248)">
      <path id="Path_3214" data-name="Path 3214" d="M490.824,302.419a17.544,17.544,0,0,1-.729,5.305A19.3,19.3,0,0,1,479.147,320.1a1.326,1.326,0,0,0-.642.67,1.581,1.581,0,0,0,.141,1.778,17.816,17.816,0,0,1,1.835,15.374,17.031,17.031,0,0,1-2.135,4.392c-.678.978-1.362,1.964-2.132,2.869a25.617,25.617,0,0,1-2.372,2.391,33.146,33.146,0,0,1-2.641,2.18,37.527,37.527,0,0,1-7.066,4.094,50.833,50.833,0,0,1-12.427,3.705,60.418,60.418,0,0,1-8.452.792,55.006,55.006,0,0,1-17.747-2.435,39.386,39.386,0,0,1-12.778-6.564,23.346,23.346,0,0,1-7.355-9.179,17.929,17.929,0,0,1,1.209-16.763.594.594,0,0,0,.037-.683.975.975,0,0,1-.139-.331c-.111-.655-.678-.861-1.2-1.116a31.258,31.258,0,0,1-2.875-1.493,18.8,18.8,0,0,1-7.564-8.818,18.522,18.522,0,0,1-1.467-6.761,18.236,18.236,0,0,1,1.23-6.821,19.189,19.189,0,0,1,8.717-10.041,20.259,20.259,0,0,1,8.649-2.652.923.923,0,0,0,.654-.4,37.812,37.812,0,0,1,9.874-7.916,40.294,40.294,0,0,1,21.829-5.056,39.528,39.528,0,0,1,14.965,3.652,37.785,37.785,0,0,1,11.6,8.283,1,1,0,0,0,.743.319c8.234.361,15.583,5.671,18.138,13.086A18.733,18.733,0,0,1,490.824,302.419Z" transform="translate(-393.37 -271.271)" fill="#fff"/>
      <path id="Path_3215" data-name="Path 3215" d="M490.825,302.414a18.51,18.51,0,0,0-1.055-5.76c-2.55-7.411-9.9-12.72-18.139-13.079a1.027,1.027,0,0,1-.736-.32,37.992,37.992,0,0,0-11.6-8.286,39.56,39.56,0,0,0-14.965-3.651,40.316,40.316,0,0,0-21.836,5.056,37.772,37.772,0,0,0-9.869,7.916.94.94,0,0,1-.654.4,20.22,20.22,0,0,0-8.655,2.659,19.164,19.164,0,0,0-8.713,10.037,18.1,18.1,0,0,0-1.227,6.82,18.386,18.386,0,0,0,1.467,6.76,18.729,18.729,0,0,0,7.559,8.818,28.233,28.233,0,0,0,2.881,1.494c.522.255,1.085.463,1.2,1.121a1.073,1.073,0,0,0,.138.33.587.587,0,0,1-.035.679,17.937,17.937,0,0,0-1.215,16.768,23.339,23.339,0,0,0,7.356,9.176,36.181,36.181,0,0,0,6.613,4.127c.513.245,1.025.489,1.548.7a43.845,43.845,0,0,0,4.619,1.731,52.507,52.507,0,0,0,13.287,2.358c1.469.078,2.953.106,4.459.077a59.672,59.672,0,0,0,8.452-.79,51.559,51.559,0,0,0,9.89-2.656c.163-.06.317-.12.471-.19.695-.264,1.382-.559,2.07-.864a37.4,37.4,0,0,0,7.065-4.087c.923-.69,1.808-1.421,2.645-2.177a26.673,26.673,0,0,0,2.37-2.4c.152-.18.3-.361.435-.542.6-.752,1.147-1.536,1.7-2.331a17.136,17.136,0,0,0,2.133-4.386,17.841,17.841,0,0,0-1.836-15.379,1.566,1.566,0,0,1-.142-1.772,1.262,1.262,0,0,1,.642-.669A19.29,19.29,0,0,0,490.1,307.724,17.456,17.456,0,0,0,490.825,302.414Zm-94.644-.1c.816-8.13,7.441-13.568,13.784-14.718-.254.374-.463.68-.662.978a37.232,37.232,0,0,0-3.05,5.606.785.785,0,0,1-.271.333,11.73,11.73,0,0,0-3.523,4.163,11.912,11.912,0,0,0-.813,2.2,12.083,12.083,0,0,0-.424,2.5,10.645,10.645,0,0,0,1.942,6.821,3.183,3.183,0,0,1,.44,1.642,36.423,36.423,0,0,0,1.22,6.121.9.9,0,0,1,.046.214A16.2,16.2,0,0,1,396.181,302.317Zm82.35,27.567a16.024,16.024,0,0,1-3.256,12.2,27.745,27.745,0,0,1-8.991,7.754,41.32,41.32,0,0,1-7.787,3.408c-1.385.458-2.8.845-4.223,1.17-.648.158-1.3.294-1.96.421a57.843,57.843,0,0,1-9.928.961c-.519.006-1.047.011-1.584,0-.985-.016-1.989-.063-3-.15a49.939,49.939,0,0,1-13.307-2.8c-.01,0-.029-.012-.039-.012q-.891-.33-1.748-.688a33.515,33.515,0,0,1-8.718-5.159,21.169,21.169,0,0,1-5.769-7.107,15.347,15.347,0,0,1,.328-14.483q.139-.291.307-.581a13.815,13.815,0,0,1,.791-1.249.6.6,0,0,0,.046-.708c-.133-.25-.256-.5-.378-.757-.22-.446-.429-.9-.618-1.363a29.979,29.979,0,0,1-1.735-5.274,32.612,32.612,0,0,1-.463-12.322,32.981,32.981,0,0,1,7-15.791,35.5,35.5,0,0,1,8.65-7.717,35.088,35.088,0,0,1,4.373-2.393,38.29,38.29,0,0,1,23.784-2.563,36.588,36.588,0,0,1,13.423,5.874,34.622,34.622,0,0,1,9.2,9.477,32.9,32.9,0,0,1,3.431,6.9,32.389,32.389,0,0,1-.184,22.426c-.145.381-.3.771-.465,1.15l-.071.176c-.12.3-.269.593-.388.9a.76.76,0,0,0-.035.078c-.023.049-.037.1-.06.146a.349.349,0,0,0,.028.333A16.437,16.437,0,0,1,478.531,329.884Zm1.31-13.076c.16-.761.364-1.438.46-2.133.233-1.717.427-3.447.641-5.177a1.244,1.244,0,0,1,.171-.479,11.268,11.268,0,0,0-.936-13.766,22.872,22.872,0,0,0-2.238-2.022,2.237,2.237,0,0,1-.353-.395,37.54,37.54,0,0,0-3.813-6.244c-.027-.042-.064-.094-.145-.22a17.308,17.308,0,0,1,5.835,2.022,16.476,16.476,0,0,1,7.756,9.162A16.2,16.2,0,0,1,479.841,316.808Z" transform="translate(-393.37 -271.271)" fill="#563dbf"/>
    </g>
    <g id="Group_2159" data-name="Group 2159" transform="translate(501.666 240.347)">
      <path id="Path_3216" data-name="Path 3216" d="M508.743,246.173l4.412-4.412a.834.834,0,0,0-1.178-1.178l-4.412,4.412-4.412-4.412a.834.834,0,0,0-1.178,1.178l4.412,4.412-4.412,4.412a.834.834,0,0,0,1.178,1.178l4.412-4.412,4.412,4.412a.834.834,0,0,0,1.211-1.146l-.033-.032Z" transform="translate(-501.746 -240.354)" fill="#563dbf"/>
    </g>
    <g id="Group_2160" data-name="Group 2160" transform="translate(501.666 240.347)">
      <path id="Path_3217" data-name="Path 3217" d="M508.743,246.173l4.412-4.412a.834.834,0,0,0-1.178-1.178l-4.412,4.412-4.412-4.412a.834.834,0,0,0-1.178,1.178l4.412,4.412-4.412,4.412a.834.834,0,0,0,1.178,1.178l4.412-4.412,4.412,4.412a.834.834,0,0,0,1.211-1.146l-.033-.032Z" transform="translate(-501.746 -240.354)" fill="#563dbf"/>
    </g>
    <g id="Group_2161" data-name="Group 2161" transform="translate(335.746 373.283)">
      <path id="Path_3218" data-name="Path 3218" d="M342.743,379.173l4.412-4.412a.834.834,0,0,0-1.178-1.178l-4.412,4.412-4.412-4.412a.834.834,0,0,0-1.178,1.178l4.412,4.412-4.412,4.412a.834.834,0,0,0,1.178,1.178l4.412-4.412,4.412,4.412a.834.834,0,0,0,1.211-1.146l-.033-.032Z" transform="translate(-335.746 -373.354)" fill="#563dbf"/>
    </g>
    <g id="Group_2162" data-name="Group 2162" transform="translate(406.535 292.024)">
      <path id="Path_3219" data-name="Path 3219" d="M477.8,323.9a14.417,14.417,0,0,0-4.833-3.375c1.391-3.857,2.238-7.9,1.408-12-3.794-18.769-26.608-18.113-31.594-.6-1.627-3.9-2.749-7.628-5.909-10.309-14.287-12.115-32.961,3.077-25.045,20.335-.635.738-3.64,5.772-4.231,6.553" transform="translate(-406.57 -292.057)" fill="#fff"/>
      <path id="Path_3220" data-name="Path 3220" d="M408.622,325.2l-2.053-1.379c.225-.3,1.008-1.55,1.7-2.655.962-1.542,1.668-2.669,2.135-3.35-3-7.162-2.395-17.155,6.02-22.846,5.165-3.5,13.471-4.866,21.3,1.77,2.529,2.146,3.823,4.83,5,7.706a17.982,17.982,0,0,1,16.9-11c6.324.22,13.847,4.24,16,14.862a22.149,22.149,0,0,1-1.112,11.613,15.149,15.149,0,0,1,4.278,3.231l-1.961,1.494a13.216,13.216,0,0,0-4.367-3.037l-1.05-.442.371-1.026c1.6-4.444,2.037-8.063,1.363-11.391-1.869-9.251-8.256-12.746-13.61-12.932-5.9-.2-13,3.556-15.525,12.421l-.994,3.485-1.4-3.359c-.247-.591-.481-1.177-.713-1.756-1.292-3.23-2.408-6.019-4.866-8.1-6.71-5.69-13.768-4.561-18.137-1.606-7.523,5.091-7.817,14.24-4.907,20.588l.3.66-.48.559c-.3.347-1.544,2.343-2.368,3.664C409.494,323.89,408.9,324.838,408.622,325.2Z" transform="translate(-406.569 -292.056)" fill="#563dbf"/>
    </g>
    <path id="Path_3221" data-name="Path 3221" d="M461.822,318.885c-.008,2.23-1.177,4.035-2.612,4.029s-2.591-1.82-2.582-4.05,1.178-4.035,2.614-4.029S461.831,316.654,461.822,318.885Z" transform="translate(-0.058 -0.043)" fill="#563dbf"/>
    <path id="Path_3222" data-name="Path 3222" d="M441.175,324.68a1.5,1.5,0,1,1-1.522-1.713A1.632,1.632,0,0,1,441.175,324.68Z" transform="translate(-0.049 -0.047)" fill="#563dbf"/>
    <path id="Path_3223" data-name="Path 3223" d="M447.345,324.68a1.5,1.5,0,1,1-1.522-1.713A1.631,1.631,0,0,1,447.345,324.68Z" transform="translate(-0.052 -0.047)" fill="#563dbf"/>
    <path id="Path_3224" data-name="Path 3224" d="M429.714,318.368c-.008,2.231-1.177,4.035-2.612,4.03s-2.591-1.82-2.582-4.051,1.178-4.035,2.614-4.028S429.724,316.138,429.714,318.368Z" transform="translate(-0.043 -0.043)" fill="#563dbf"/>
    <path id="Path_3226" data-name="Path 3226" d="M421.278,309.657a11.168,11.168,0,0,0,3.01-1.443,5.577,5.577,0,0,0,1.88-1.454c.533-.637,1.329-1.252,1.373-2.161" transform="translate(-0.041 -0.038)" fill="none" stroke="#563dbf" stroke-miterlimit="10" stroke-width="1"/>
    <path id="Path_3227" data-name="Path 3227" d="M462.874,308.5a14.254,14.254,0,0,1-3.009-.954,5.9,5.9,0,0,1-1.88-.963c-.533-.422-1.329-.829-1.373-1.429" transform="translate(-0.058 -0.039)" fill="none" stroke="#563dbf" stroke-miterlimit="10" stroke-width="1"/>
    <g id="Group_2165" data-name="Group 2165" transform="translate(407.101 327.776)">
      <g id="Group_2163" data-name="Group 2163" transform="translate(5.823)">
        <path id="Path_3228" data-name="Path 3228" d="M429.112,361.362a11.681,11.681,0,0,1-2.253-.22,14.057,14.057,0,0,1-7.615-4.4,16.981,16.981,0,0,1-4.411-8.085,10.445,10.445,0,0,1-.248-1.376,25.55,25.55,0,0,1-.119-3,16.672,16.672,0,0,1,2.086-7.38,4.335,4.335,0,0,1,.542-.795,4.542,4.542,0,0,1,6.4-.515,1.491,1.491,0,0,1,.525,1.055,34.589,34.589,0,0,1,2.8-2.751,20.117,20.117,0,0,1,7.242-4.276c.249-.082.513-.145.837-.218l.187-.042a1.52,1.52,0,0,1,.335-.038,1.5,1.5,0,0,1,1.2.6,1.475,1.475,0,0,1,.215.4,1.786,1.786,0,0,1,2.188-.743,6.873,6.873,0,0,1,3.5,2.687,1.431,1.431,0,0,1,.163.322,2.195,2.195,0,0,1,0,1.486,1.571,1.571,0,0,1-.109.235c-.147.256-.293.512-.441.769a1.5,1.5,0,0,1,.457-.071,1.445,1.445,0,0,1,.368.046,1.5,1.5,0,0,1,1.117,1.241l.164,1.124a18.69,18.69,0,0,1-.232,5.526,36.036,36.036,0,0,1-4.179,11.664A12.822,12.822,0,0,1,436.162,359a11.771,11.771,0,0,1-7.05,2.365Z" transform="translate(-412.962 -327.827)" fill="#fff"/>
        <path id="Path_3229" data-name="Path 3229" d="M435.422,330.825c-.275.495-.523.879-.743,1.291-1.647,2.831-3.3,5.688-4.946,8.519a1.355,1.355,0,0,0,.028,1.566,1.163,1.163,0,0,0,1.428.385,1.755,1.755,0,0,0,.632-.551c1.291-2.227,2.584-4.481,3.875-6.707.795-1.4,1.592-2.775,2.389-4.177l.01-.024a.3.3,0,0,1,.4-.141,5.35,5.35,0,0,1,2.776,2.113.684.684,0,0,1,0,.468c-1.62,2.831-3.269,5.688-4.919,8.519-.36.633-.745,1.264-1.1,1.924a.934.934,0,0,0-.046.09,1.261,1.261,0,0,0,1.147,1.77,1.252,1.252,0,0,0,1.1-.651c1.43-2.445,2.831-4.864,4.233-7.31a13.527,13.527,0,0,1,.907-1.4c.054.385.109.742.164,1.126a17.149,17.149,0,0,1-.219,5.03,34.694,34.694,0,0,1-4.012,11.209,11.344,11.344,0,0,1-3.27,3.929,10.189,10.189,0,0,1-8.106,1.869,12.637,12.637,0,0,1-6.789-3.93,15.586,15.586,0,0,1-4.067-7.42,9.364,9.364,0,0,1-.219-1.208,24.474,24.474,0,0,1-.11-2.8,15.1,15.1,0,0,1,1.9-6.678,3.133,3.133,0,0,1,.377-.557,3.043,3.043,0,0,1,4.29-.343c-.41.522-.852,1.044-1.237,1.566-.852,1.209-1.731,2.446-2.583,3.682a4.381,4.381,0,0,0-.468.77c-.138.358-.33.66-.468.99a1.135,1.135,0,0,0,.111.99c.251.251.5.616.962.616a.994.994,0,0,0,.141-.011,1.357,1.357,0,0,0,1.1-.715c.246-.44.522-.88.8-1.319.083-.112,2.611-3.684,2.886-4.042a32.685,32.685,0,0,1,4.042-4.232,18.777,18.777,0,0,1,6.734-3.984c.247-.082.522-.137.879-.22m0-3a3,3,0,0,0-.676.077l-.2.046c-.3.068-.61.138-.943.248a21.657,21.657,0,0,0-7.793,4.6q-.808.708-1.573,1.465a6.041,6.041,0,0,0-9.009,1.94,18.171,18.171,0,0,0-2.258,7.977c0,.026,0,.052,0,.078a27.513,27.513,0,0,0,.123,3.143l.005.051a12.471,12.471,0,0,0,.283,1.569,18.573,18.573,0,0,0,4.8,8.773,15.542,15.542,0,0,0,8.352,4.811,13.192,13.192,0,0,0,10.537-2.41,14.429,14.429,0,0,0,4.106-4.9,37.564,37.564,0,0,0,4.319-12.086,20.1,20.1,0,0,0,.252-5.879c0-.039-.008-.077-.014-.115l-.077-.53-.087-.591a3,3,0,0,0-1.31-2.079,3.679,3.679,0,0,0-.16-1.937,2.927,2.927,0,0,0-.322-.636,8.38,8.38,0,0,0-4.235-3.265,3.323,3.323,0,0,0-1.165-.213,3.278,3.278,0,0,0-1.383.306,3,3,0,0,0-1.562-.439Z" transform="translate(-412.962 -327.826)" fill="#563dbf"/>
      </g>
      <g id="Group_2164" data-name="Group 2164" transform="translate(0 26.135)">
        <path id="Path_3230" data-name="Path 3230" d="M410.135,369.08a1.5,1.5,0,0,1-1.242-2.339c1.52-2.251,3-4.492,4.493-6.736q1.277-1.928,2.566-3.864a1.5,1.5,0,0,1,1.144-.664c.034,0,.069,0,.1,0a1.5,1.5,0,0,1,1.12.5l.175.193a7.1,7.1,0,0,1,.483.566,14.334,14.334,0,0,0,2.528,2.376,41.283,41.283,0,0,0,3.657,2.035,10.809,10.809,0,0,0,3.807.691c.174,0,.349-.005.523-.013h.037a2.467,2.467,0,0,1,.382.027,1.438,1.438,0,0,1,1.233.7,1.494,1.494,0,0,1,.047,1.446c-.333.694-.667,1.388-1,2.055-.334.639-.628,1.227-.923,1.844a2.082,2.082,0,0,1-1.875,1.183Z" transform="translate(-407.136 -353.975)" fill="#fff"/>
        <path id="Path_3231" data-name="Path 3231" d="M417.2,356.973c.22.247.413.44.578.66a15.9,15.9,0,0,0,2.886,2.72,42.96,42.96,0,0,0,3.9,2.171,12.335,12.335,0,0,0,4.4.812q.3,0,.6-.014c.083,0,.165.027.275.027-.33.688-.659,1.374-.989,2.034-.33.633-.633,1.236-.935,1.869a.578.578,0,0,1-.522.33H410.134c2.4-3.545,4.7-7.063,7.065-10.608m0-3c-.069,0-.138,0-.208.007a3,3,0,0,0-2.287,1.327q-1.3,1.951-2.585,3.891c-1.455,2.195-2.96,4.466-4.47,6.7a3,3,0,0,0,2.484,4.678h17.261a3.591,3.591,0,0,0,3.233-2.048c.279-.584.569-1.164.881-1.762l.024-.046c.337-.674.674-1.375,1.01-2.078a3,3,0,0,0-2.484-4.288,3.589,3.589,0,0,0-.495-.035l-.146,0c-.15.008-.3.011-.452.011a9.314,9.314,0,0,1-3.212-.569c-1.161-.575-2.307-1.212-3.407-1.9a12.919,12.919,0,0,1-2.223-2.1c-.186-.241-.364-.435-.523-.608l-.161-.178a3,3,0,0,0-2.241-1.006Z" transform="translate(-407.136 -353.974)" fill="#563dbf"/>
      </g>
    </g>
    <g id="Group_2168" data-name="Group 2168" transform="translate(437.836 328.225)">
      <g id="Group_2166" data-name="Group 2166" transform="translate(0 0)">
        <path id="Path_3232" data-name="Path 3232" d="M454.624,361.811a11.769,11.769,0,0,1-7.049-2.362A12.94,12.94,0,0,1,443.869,355a35.982,35.982,0,0,1-4.15-11.626,18.633,18.633,0,0,1-.234-5.44l.172-1.183a1.5,1.5,0,0,1,1.942-1.216l-.441-.768a1.629,1.629,0,0,1-.109-.236,2.194,2.194,0,0,1,0-1.486,1.5,1.5,0,0,1,.163-.322,6.883,6.883,0,0,1,3.5-2.687,1.8,1.8,0,0,1,2.192.735,1.5,1.5,0,0,1,1.41-.992,1.538,1.538,0,0,1,.336.038l.19.043c.321.073.584.135.826.215a20.17,20.17,0,0,1,7.276,4.3,34.044,34.044,0,0,1,2.772,2.724,1.5,1.5,0,0,1,.525-1.056,4.541,4.541,0,0,1,6.4.512,4.449,4.449,0,0,1,.564.834,16.6,16.6,0,0,1,2.066,7.306,25.935,25.935,0,0,1-.114,3.011,11.185,11.185,0,0,1-.258,1.428,17.041,17.041,0,0,1-4.452,8.106,13.982,13.982,0,0,1-7.546,4.347,11.737,11.737,0,0,1-2.273.223Z" transform="translate(-437.886 -328.276)" fill="#fff"/>
        <path id="Path_3233" data-name="Path 3233" d="M448.31,331.274c.358.083.632.138.88.22a18.782,18.782,0,0,1,6.733,3.984,32.76,32.76,0,0,1,4.042,4.232c.276.358,2.8,3.93,2.886,4.042.276.441.551.88.8,1.319a1.359,1.359,0,0,0,1.1.715.844.844,0,0,0,.14.011c.46,0,.711-.365.963-.615a1.135,1.135,0,0,0,.11-.989c-.138-.33-.33-.633-.468-.99a4.379,4.379,0,0,0-.468-.77c-.852-1.237-1.731-2.474-2.583-3.682-.385-.522-.828-1.045-1.236-1.566a3.043,3.043,0,0,1,4.666.9,15.078,15.078,0,0,1,1.9,6.678,24.452,24.452,0,0,1-.11,2.8,9.348,9.348,0,0,1-.219,1.209,15.583,15.583,0,0,1-4.067,7.419,12.637,12.637,0,0,1-6.789,3.93,10.193,10.193,0,0,1-8.106-1.868,11.368,11.368,0,0,1-3.27-3.93,34.7,34.7,0,0,1-4.012-11.208,17.153,17.153,0,0,1-.219-5.03c.055-.386.11-.743.164-1.126a13.4,13.4,0,0,1,.907,1.4c1.4,2.446,2.8,4.865,4.233,7.31a1.252,1.252,0,0,0,1.649.522,1.236,1.236,0,0,0,.6-1.642.938.938,0,0,0-.046-.09c-.357-.66-.743-1.291-1.1-1.923-1.649-2.831-3.3-5.689-4.919-8.519a.684.684,0,0,1,0-.468,5.346,5.346,0,0,1,2.776-2.113.29.29,0,0,1,.13-.03.3.3,0,0,1,.272.171l.011.023c.8,1.4,1.593,2.776,2.388,4.178,1.291,2.226,2.584,4.479,3.875,6.706a1.767,1.767,0,0,0,.632.552,1.167,1.167,0,0,0,1.429-.386,1.357,1.357,0,0,0,.027-1.566c-1.649-2.83-3.3-5.688-4.946-8.519-.22-.412-.468-.8-.743-1.291m0-3a3,3,0,0,0-1.562.44,3.278,3.278,0,0,0-1.382-.307,3.323,3.323,0,0,0-1.166.213,8.379,8.379,0,0,0-4.235,3.265,2.965,2.965,0,0,0-.322.636,3.678,3.678,0,0,0-.16,1.937,3,3,0,0,0-1.31,2.079l-.086.592-.078.529c0,.038-.01.077-.014.115a20.106,20.106,0,0,0,.252,5.879,37.578,37.578,0,0,0,4.319,12.087,14.434,14.434,0,0,0,4.1,4.9,13.192,13.192,0,0,0,10.5,2.423,15.565,15.565,0,0,0,8.4-4.82,18.575,18.575,0,0,0,4.8-8.772,12.293,12.293,0,0,0,.283-1.57l0-.051a27.269,27.269,0,0,0,.123-3.143c0-.026,0-.052,0-.078a18.172,18.172,0,0,0-2.258-7.977,6.041,6.041,0,0,0-9.009-1.94q-.766-.759-1.573-1.465a21.649,21.649,0,0,0-7.779-4.595,9.449,9.449,0,0,0-.957-.252l-.2-.047a2.993,2.993,0,0,0-.676-.077Z" transform="translate(-437.885 -328.275)" fill="#563dbf"/>
      </g>
      <g id="Group_2167" data-name="Group 2167" transform="translate(13.006 26.135)">
        <path id="Path_3234" data-name="Path 3234" d="M456.343,369.53a2.085,2.085,0,0,1-1.879-1.192c-.291-.608-.585-1.2-.906-1.812-.346-.69-.68-1.384-1.012-2.078a1.5,1.5,0,0,1,1.35-2.149,1.085,1.085,0,0,1,.277-.028c.246.01.421.015.595.015a10.8,10.8,0,0,0,3.807-.69,41.788,41.788,0,0,0,3.657-2.035,14.514,14.514,0,0,0,2.574-2.434,6.268,6.268,0,0,1,.437-.509l.175-.193a1.5,1.5,0,0,1,1.12-.5c.034,0,.069,0,.1,0a1.5,1.5,0,0,1,1.144.664q1.291,1.937,2.566,3.864c1.488,2.244,2.973,4.485,4.493,6.736a1.5,1.5,0,0,1-1.242,2.339Z" transform="translate(-450.899 -354.424)" fill="#fff"/>
        <path id="Path_3235" data-name="Path 3235" d="M466.537,357.422c2.364,3.545,4.67,7.063,7.065,10.608H456.341a.577.577,0,0,1-.522-.331c-.3-.632-.6-1.236-.934-1.868-.33-.66-.66-1.347-.99-2.034.11,0,.192-.028.275-.028q.3.015.6.015a12.336,12.336,0,0,0,4.4-.813,42.632,42.632,0,0,0,3.9-2.171,15.893,15.893,0,0,0,2.885-2.72c.165-.22.358-.413.578-.66m0-3a3,3,0,0,0-2.241,1.007l-.161.178c-.159.173-.337.368-.522.608a12.933,12.933,0,0,1-2.224,2.1c-1.1.685-2.246,1.322-3.407,1.9a9.31,9.31,0,0,1-3.212.57c-.151,0-.3,0-.452-.011-.049,0-.1,0-.146,0a3.5,3.5,0,0,0-.5.036,3,3,0,0,0-2.483,4.288c.337.7.674,1.4,1.01,2.077l.024.046c.312.6.6,1.178.888,1.775a3.586,3.586,0,0,0,3.226,2.036H473.6a3,3,0,0,0,2.485-4.677c-1.511-2.237-3.015-4.506-4.47-6.7q-1.288-1.943-2.586-3.893a3,3,0,0,0-2.287-1.327c-.069-.005-.139-.007-.208-.007Z" transform="translate(-450.898 -354.423)" fill="#563dbf"/>
      </g>
    </g>
  </g>
</svg>
