<svg xmlns="http://www.w3.org/2000/svg" width="22.9" height="20.074" viewBox="0 0 22.9 20.074">
  <g id="usuarios_" transform="translate(-376.6 -640.88)">
    <path id="Trazado_2528" data-name="Trazado 2528" d="M388.416,657.973v2.12H393.7c.343,0,.525.128.518.365s-.181.347-.517.347H382.389c-.327,0-.513-.127-.516-.352s.185-.36.509-.36h5.3v-2.12h-9.7a1.248,1.248,0,0,1-.728-.171,1.06,1.06,0,0,1-.49-.876c0-.057,0-.114,0-.171,0-4.831.007-9.663-.008-14.494a1.171,1.171,0,0,1,1.23-1.229q10.066.02,20.132,0a1.168,1.168,0,0,1,1.238,1.242c-.012,4.838-.006,9.676-.007,14.513a1.074,1.074,0,0,1-.8,1.147,1.984,1.984,0,0,1-.453.038q-4.7,0-9.39,0Zm-.362-.706h10.075c.4,0,.5-.1.5-.51q0-7.256,0-14.512c0-.392-.106-.5-.494-.5H377.968c-.4,0-.5.109-.5.512q0,7.247,0,14.493c0,.417.1.518.516.518Z" transform="translate(0)" fill="#ff3646" stroke="#ff3646" stroke-width="0.3"/>
    <path id="Trazado_2529" data-name="Trazado 2529" d="M511.709,680.326H506.93c-.4,0-.52-.122-.521-.524q0-.543,0-1.085c0-.375.132-.508.5-.508h9.616c.345,0,.472.126.472.467,0,.406,0,.812,0,1.219,0,.3-.135.43-.451.431q-1.428,0-2.856,0Zm-4.575-.705h8.67c.489,0,.48,0,.492-.483,0-.189-.057-.233-.237-.232q-4.359.008-8.718,0c-.067,0-.134.008-.208.013Z" transform="translate(-119.78 -34.346)" fill="#ff3646" stroke="#ff3646" stroke-width="0.3"/>
    <path id="Trazado_2530" data-name="Trazado 2530" d="M510.3,715.16h3.371c.386,0,.5.116.5.5,0,.4,0,.8,0,1.2a.372.372,0,0,1-.38.427,1.908,1.908,0,0,1-.228.008h-6.552a1.7,1.7,0,0,1-.228-.009.374.374,0,0,1-.375-.418c-.006-.425-.005-.851,0-1.276a.387.387,0,0,1,.443-.428c.673,0,1.346,0,2.019,0Zm3.167.731h-6.329v.689h4.7c.489,0,.978,0,1.467,0,.12,0,.174-.033.168-.162C513.461,716.249,513.467,716.078,513.467,715.891Z" transform="translate(-119.778 -68.481)" fill="#ff3646" stroke="#ff3646" stroke-width="0.3"/>
    <path id="Trazado_2531" data-name="Trazado 2531" d="M508.923,754.333h-1.979c-.365,0-.489-.125-.49-.492,0-.393,0-.786,0-1.18,0-.316.138-.455.452-.455q2.017,0,4.033,0c.327,0,.457.136.458.465q0,.609,0,1.218c0,.307-.133.443-.439.444C510.28,754.335,509.6,754.333,508.923,754.333Zm1.756-1.4h-3.5v.679h3.5Z" transform="translate(-119.821 -102.704)" fill="#ff3646" stroke="#ff3646" stroke-width="0.3"/>
    <path id="Trazado_2532" data-name="Trazado 2532" d="M507.87,791.478c-.317,0-.635,0-.952,0s-.466-.131-.468-.457q0-.6,0-1.2c0-.329.132-.457.466-.458q.942,0,1.885,0c.352,0,.472.119.474.466q0,.6,0,1.2c0,.322-.13.448-.452.45S508.187,791.478,507.87,791.478Zm.694-1.4h-1.391v.676h1.391Z" transform="translate(-119.815 -137.03)" fill="#ff3646" stroke="#ff3646" stroke-width="0.3"/>
    <path id="Trazado_2533" data-name="Trazado 2533" d="M407.852,688.188q-1.4,0-2.8,0a.345.345,0,0,1-.367-.265.336.336,0,0,1,.186-.4.783.783,0,0,1,.279-.037q2.266,0,4.533,0c.336,0,.673,0,1.009,0a.33.33,0,0,1,.328.347.338.338,0,0,1-.33.348c-.057,0-.114,0-.171,0Z" transform="translate(-25.798 -42.917)" fill="#ff3646" stroke="#ff3646" stroke-width="0.3"/>
    <path id="Trazado_2534" data-name="Trazado 2534" d="M407.868,798.614q1.39,0,2.781,0a.35.35,0,0,1,.37.264.339.339,0,0,1-.184.4.769.769,0,0,1-.279.04q-2.257,0-4.514,0c-.311,0-.622,0-.933,0-.273,0-.425-.13-.426-.351s.153-.352.423-.353Z" transform="translate(-25.805 -145.577)" fill="#ff3646" stroke="#ff3646" stroke-width="0.3"/>
    <path id="Trazado_2535" data-name="Trazado 2535" d="M425.668,762.283c-.692,0-1.384,0-2.075,0a.352.352,0,1,1,.007-.7c.647,0,1.295,0,1.942,0q1.114,0,2.228,0a.336.336,0,0,1,.359.251.317.317,0,0,1-.151.394.6.6,0,0,1-.273.054C427.026,762.285,426.347,762.283,425.668,762.283Z" transform="translate(-42.92 -111.366)" fill="#ff3646" stroke="#ff3646" stroke-width="0.3"/>
    <path id="Trazado_2536" data-name="Trazado 2536" d="M499.4,827.052h-1.676c-.272,0-.424-.128-.424-.352s.15-.352.425-.352c1.13,0,2.26.006,3.39,0a.364.364,0,0,1,.371.53.373.373,0,0,1-.353.18C500.553,827.05,499.975,827.052,499.4,827.052Z" transform="translate(-111.363 -171.193)" fill="#ff3646" stroke="#ff3646" stroke-width="0.3"/>
    <path id="Trazado_2537" data-name="Trazado 2537" d="M443.493,725.243c-.45,0-.9,0-1.351,0-.257,0-.4-.131-.4-.35s.148-.349.4-.349q1.361,0,2.721,0c.245,0,.39.129.395.34s-.141.357-.4.359C444.407,725.245,443.95,725.243,443.493,725.243Z" transform="translate(-60.036 -77.15)" fill="#ff3646" stroke="#ff3646" stroke-width="0.3"/>
    <path id="Trazado_2538" data-name="Trazado 2538" d="M515.937,688.064v-.7c.074,0,.141-.013.208-.013q4.359,0,8.718,0c.18,0,.242.044.237.232-.013.483,0,.483-.492.483h-8.67Z" transform="translate(-128.582 -42.789)" fill="#ff3646" stroke="#ff3646" stroke-width="0.3"/>
    <path id="Trazado_2539" data-name="Trazado 2539" d="M522.344,724.762c0,.187-.006.358,0,.529.006.129-.048.163-.168.162-.489,0-.978,0-1.467,0h-4.7v-.689Z" transform="translate(-128.654 -77.352)" fill="#ff3646" stroke="#ff3646" stroke-width="0.3"/>
    <path id="Trazado_2540" data-name="Trazado 2540" d="M519.452,761.745v.679h-3.5v-.679Z" transform="translate(-128.594 -111.517)" fill="#ff3646" stroke="#ff3646" stroke-width="0.3"/>
    <path id="Trazado_2541" data-name="Trazado 2541" d="M517.348,798.8v.676h-1.391V798.8Z" transform="translate(-128.6 -145.753)" fill="#ff3646" stroke="#ff3646" stroke-width="0.3"/>
  </g>
</svg>
