<svg xmlns="http://www.w3.org/2000/svg" width="30.419" height="30" viewBox="0 0 30.419 30"><g transform="translate(-1428.811 -462.877)"><g transform="translate(1428.811 462.877)"><path d="M33.21,18a15,15,0,1,0,15.21,15A15.12,15.12,0,0,0,33.21,18Zm0,1.875A13.126,13.126,0,1,1,19.9,33,13.2,13.2,0,0,1,33.21,19.875Zm-5.332,7.017a.948.948,0,0,0-.807.627.929.929,0,0,0,.242.984l4.56,4.5-4.56,4.5a.93.93,0,0,0-.33.94.944.944,0,0,0,.713.7.958.958,0,0,0,.953-.325l4.56-4.5,4.56,4.5a.958.958,0,0,0,.953.325.944.944,0,0,0,.713-.7.93.93,0,0,0-.33-.94L34.546,33l4.56-4.5a.928.928,0,0,0,.216-1.036.944.944,0,0,0-1.553-.283l-4.56,4.5-4.56-4.5a.957.957,0,0,0-.683-.293Q27.922,26.89,27.877,26.892Z" transform="translate(-18 -18)" fill="#5c5c5c"/></g></g></svg>