<svg xmlns="http://www.w3.org/2000/svg" viewBox="0 0 72.833 67.3"><defs><style>.a{fill:#fff;}</style></defs><path class="a" d="M57.579,9.2H51.417l-.3-.3L39.5.9a5.723,5.723,0,0,0-6.162,0L22.122,8.6a.918.918,0,0,0-.4.6H15.253a4.677,4.677,0,0,0-4.647,4.6v2.8c-.1,0-.1,0-.2.1L2.727,22A5.485,5.485,0,0,0,0,26.8V61.6a5.726,5.726,0,0,0,5.758,5.7H67.075a5.727,5.727,0,0,0,5.758-5.7V26.8A5.613,5.613,0,0,0,70.206,22l-7.778-5.4a.1.1,0,0,1-.1-.1V13.7A4.822,4.822,0,0,0,57.579,9.2ZM34.446,2.6a3.958,3.958,0,0,1,3.94,0l9.6,6.6H24.951ZM12.728,13.8a2.661,2.661,0,0,1,2.626-2.6H57.579a2.661,2.661,0,0,1,2.626,2.6V36.1L48.589,46.3,39.4,38.6a4.612,4.612,0,0,0-5.859,0l-9.192,7.7L12.728,36.1ZM2.121,26.8A3.443,3.443,0,0,1,3.94,23.7L10.708,19V34.4L2.121,26.8Zm0,34.7v-32L22.729,47.6,3.131,64.1A3.976,3.976,0,0,1,2.121,61.5Zm64.953,3.7H5.859a2.245,2.245,0,0,1-.808-.1l29.8-25a2.477,2.477,0,0,1,3.233,0l29.8,25A1.988,1.988,0,0,1,67.075,65.2Zm3.738-3.7A3.533,3.533,0,0,1,69.8,64L50.2,47.6,70.812,29.5ZM69.095,23.7a3.552,3.552,0,0,1,1.717,3.1h0l-8.586,7.5V19Z" transform="translate(0 0)"/><path class="a" d="M23.11,22.2H49.374a1,1,0,1,0,0-2H23.11a1,1,0,1,0,0,2Z" transform="translate(0.225 0)"/><path class="a" d="M50.384,30.2a.95.95,0,0,0-1.01-1H23.11a1,1,0,1,0,0,2H49.374A.95.95,0,0,0,50.384,30.2Z" transform="translate(0.225 0)"/></svg>