<svg xmlns="http://www.w3.org/2000/svg" viewBox="0 0 161.279 89.964">
  <defs>
    <style>
      .cls-1 {
        fill: #e5e5e5;
      }

      .cls-2 {
        fill: #fff;
      }

      .cls-2, .cls-3 {
        stroke: #ae1631;
        stroke-miterlimit: 10;
        stroke-width: 3.364px;
      }

      .cls-3 {
        fill: #e72f3c;
      }
    </style>
  </defs>
  <g id="icono_check" transform="translate(-0.021 0)">
    <g id="Group_209" data-name="Group 209">
      <path id="Path_166" data-name="Path 166" class="cls-1" d="M140.9,67.4c-11.6,2.9-23.1,5.1-35,5.6,8-3,16.1-6,24.1-9,8.5-3.2,7.9-15.8,1.2-19.3a57.738,57.738,0,0,0,11.1-9.5c5.5-6.1.7-16.5-7.1-17,7.2-6,4.8-16.1-4.7-17.7C117.1-1.8,99.6,4.4,86.7,7.6,54.1,15.6,35,26,1.7,16,0,15.5-.6,18.1.8,18.8c11,6.3,14.2,8.8,21.3,8.2-5.6,8.6-1.2,20.1,9.2,23.1a27.5,27.5,0,0,0,7.5.9,18.2,18.2,0,0,0-2.7,5.8C31.7,73.9,49,79.5,62.4,77.9c.2,5.7,4.3,10.8,12.2,11.6,23.8,2.5,47.6-5.6,69.8-12.6C150.8,74.9,147.1,65.9,140.9,67.4Z"/>
      <circle id="Ellipse_7" data-name="Ellipse 7" class="cls-1" cx="2.5" cy="2.5" r="2.5" transform="translate(20 7.6)"/>
      <circle id="Ellipse_8" data-name="Ellipse 8" class="cls-1" cx="4.2" cy="4.2" r="4.2" transform="translate(152.9 61.4)"/>
    </g>
    <g id="Group_211" data-name="Group 211">
      <path id="Path_167" data-name="Path 167" class="cls-2" d="M83.9,12.6A30.3,30.3,0,1,1,53.6,42.9,30.344,30.344,0,0,1,83.9,12.6Z"/>
      <g id="Group_210" data-name="Group 210">
        <path id="Path_168" data-name="Path 168" class="cls-3" d="M72.1,41.2l6.8,6.7L95.7,29.4l5,5.1L78.9,58,67.1,46.2Z"/>
      </g>
    </g>
  </g>
</svg>
