<svg xmlns="http://www.w3.org/2000/svg" viewBox="0 0 161.279 89.964">
  <defs>
    <style>
      .cls-1 {
        fill: #e5e5e5;
      }

      .cls-2 {
        fill: #e72f3c;
      }

      .cls-2, .cls-3 {
        stroke: #ae1631;
        stroke-miterlimit: 10;
        stroke-width: 3.364px;
      }

      .cls-3 {
        fill: #fff;
      }
    </style>
  </defs>
  <g id="icono_error" transform="translate(-0.021 0)">
    <g id="Group_213" data-name="Group 213">
      <path id="Path_169" data-name="Path 169" class="cls-1" d="M140.9,67.4c-11.6,2.9-23.1,5.1-35,5.6,8-3,16.1-6,24.1-9,8.5-3.2,7.9-15.8,1.2-19.3a57.738,57.738,0,0,0,11.1-9.5c5.5-6.1.7-16.5-7.1-17,7.2-6,4.8-16.1-4.7-17.7C117.1-1.8,99.6,4.4,86.7,7.6,54.1,15.6,35,26,1.7,16,0,15.5-.6,18.1.8,18.8c11,6.3,14.2,8.8,21.3,8.2-5.6,8.6-1.2,20.1,9.2,23.1a27.5,27.5,0,0,0,7.5.9,18.2,18.2,0,0,0-2.7,5.8C31.7,73.9,49,79.5,62.4,77.9c.2,5.7,4.3,10.8,12.2,11.6,23.8,2.5,47.6-5.6,69.8-12.6C150.8,74.9,147.1,65.9,140.9,67.4Z"/>
      <circle id="Ellipse_9" data-name="Ellipse 9" class="cls-1" cx="2.5" cy="2.5" r="2.5" transform="translate(20 7.6)"/>
      <circle id="Ellipse_10" data-name="Ellipse 10" class="cls-1" cx="4.2" cy="4.2" r="4.2" transform="translate(152.9 61.4)"/>
    </g>
    <path id="Path_170" data-name="Path 170" class="cls-2" d="M87.3,14.3A30.3,30.3,0,1,1,57,44.5,30.28,30.28,0,0,1,87.3,14.3Z"/>
    <path id="Path_171" data-name="Path 171" class="cls-3" d="M73.8,36.1l8.4,8.4L73.8,53l5.1,5,8.4-8.4L95.7,58l5-5-8.4-8.5,8.4-8.4-5-5-8.4,8.4-8.4-8.4Z"/>
  </g>
</svg>
