<svg xmlns="http://www.w3.org/2000/svg" viewBox="4910 1083.437 240 133.875">
  <defs>
    <style>
      .cls-1 {
        fill: #e5e5e5;
      }

      .cls-2 {
        fill: #fff;
      }

      .cls-2, .cls-3 {
        stroke: #ae1631;
        stroke-miterlimit: 10;
        stroke-width: 5px;
      }

      .cls-3 {
        fill: #ff2334;
      }
    </style>
  </defs>
  <g id="icono_error_pagina_no_encontrada" transform="translate(4909.979 1083.437)">
    <path id="Path_169" data-name="Path 169" class="cls-1" d="M209.664,100.3c-17.262,4.316-34.375,7.589-52.084,8.333,11.9-4.464,23.958-8.929,35.863-13.393,12.649-4.762,11.756-23.512,1.786-28.72a85.921,85.921,0,0,0,16.518-14.137c8.185-9.077,1.042-24.554-10.566-25.3C211.9,18.155,208.324,3.125,194.187.744c-19.941-3.423-45.982,5.8-65.179,10.566C80.5,23.214,52.073,38.691,2.52,23.81-.01,23.066-.9,26.935,1.18,27.976c16.369,9.375,21.131,13.1,31.7,12.2-8.333,12.8-1.786,29.911,13.691,34.375a40.915,40.915,0,0,0,11.161,1.339,27.088,27.088,0,0,0-4.018,8.631c-6.548,25.447,19.2,33.78,39.137,31.4.3,8.482,6.4,16.072,18.155,17.262,35.417,3.72,70.834-8.333,103.87-18.75C224.4,111.459,218.89,98.066,209.664,100.3Z" transform="translate(0 0)"/>
    <circle id="Ellipse_9" data-name="Ellipse 9" class="cls-1" cx="3.72" cy="3.72" r="3.72" transform="translate(29.752 11.31)"/>
    <circle id="Ellipse_10" data-name="Ellipse 10" class="cls-1" cx="6.25" cy="6.25" r="6.25" transform="translate(227.521 91.37)"/>
    <g id="Group_385" data-name="Group 385" transform="translate(50.576 2.796)">
      <g id="Group_383" data-name="Group 383" transform="translate(1.039 0.975)">
        <path id="Path_239" data-name="Path 239" class="cls-2" d="M134.786,92.277,78.58,7.837c-5.228-9.15-13.594-9.15-18.823,0L3.29,92.277c-5.228,9.15-1.046,16.47,9.411,16.47H125.636C135.832,108.747,140.015,101.427,134.786,92.277Z" transform="translate(-1.039 -0.975)"/>
      </g>
      <g id="Group_384" data-name="Group 384" transform="translate(59.757 79.99)">
        <circle id="Ellipse_22" data-name="Ellipse 22" class="cls-3" cx="9.15" cy="9.15" r="9.15"/>
      </g>
      <path id="Path_240" data-name="Path 240" class="cls-3" d="M32.779,10.3c5.751,0,9.411,4.183,9.15,8.627L39.576,48.991c-.261,3.137-1.307,5.751-6.8,5.751s-6.536-2.614-6.8-5.751L23.629,18.927C23.106,14.744,27.027,10.3,32.779,10.3Z" transform="translate(36.39 15.053)"/>
    </g>
  </g>
</svg>
