<svg xmlns="http://www.w3.org/2000/svg" viewBox="602.36 137 161.279 89.964">
  <defs>
    <style>
      .cls-1 {
        fill: #e5e5e5;
      }

      .cls-2 {
        fill: #e72f3c;
      }

      .cls-3 {
        fill: none;
      }

      .cls-3, .cls-4 {
        stroke: #ae1631;
        stroke-miterlimit: 10;
        stroke-width: 3.364px;
      }

      .cls-4 {
        fill: #fff;
      }
    </style>
  </defs>
  <g id="icono_chat" transform="translate(602.339 137)">
    <path id="Path_119" data-name="Path 119" class="cls-1" d="M140.9,67.4c-11.6,2.9-23.1,5.1-35,5.6,8-3,16.1-6,24.1-9,8.5-3.2,7.9-15.8,1.2-19.3a57.738,57.738,0,0,0,11.1-9.5c5.5-6.1.7-16.5-7.1-17,7.2-6,4.8-16.1-4.7-17.7C117.1-1.8,99.6,4.4,86.7,7.6,54.1,15.6,35,26,1.7,16,0,15.5-.6,18.1.8,18.8c11,6.3,14.2,8.8,21.3,8.2-5.6,8.6-1.2,20.1,9.2,23.1a27.5,27.5,0,0,0,7.5.9,18.2,18.2,0,0,0-2.7,5.8C31.7,73.9,49,79.5,62.4,77.9c.2,5.7,4.3,10.8,12.2,11.6,23.8,2.5,47.6-5.6,69.8-12.6C150.8,74.9,147.1,65.9,140.9,67.4Z"/>
    <g id="Group_178" data-name="Group 178">
      <path id="Path_120" data-name="Path 120" class="cls-2" d="M129.3,29.4H110.8V51.3a5.015,5.015,0,0,1-5,5H77.2V66.4a5.015,5.015,0,0,0,5,5h30.4l8.6,12.8a1.7,1.7,0,0,0,3.1-.9V71.5h5a5.015,5.015,0,0,0,5-5v-32A4.974,4.974,0,0,0,129.3,29.4Z"/>
      <path id="Path_121" data-name="Path 121" class="cls-3" d="M112.5,29.4h16.8a5.015,5.015,0,0,1,5,5v32a5.015,5.015,0,0,1-5,5h-5V83.3a1.681,1.681,0,0,1-3.1.9l-8.6-12.8H82.2a5.015,5.015,0,0,1-5-5V56.3"/>
      <path id="Path_122" data-name="Path 122" class="cls-4" d="M35.1,12.6V51.3a5.015,5.015,0,0,0,5,5h6.7V74.5a1.7,1.7,0,0,0,3,1.1L65.7,56.3h40a5.015,5.015,0,0,0,5-5V12.6a5.015,5.015,0,0,0-5-5H40.2A4.974,4.974,0,0,0,35.1,12.6Z"/>
      <path id="Path_123" data-name="Path 123" class="cls-3" d="M105.8,29.4H82.2a5.015,5.015,0,0,0-5,5V51.2"/>
    </g>
    <circle id="Ellipse_5" data-name="Ellipse 5" class="cls-1" cx="2.5" cy="2.5" r="2.5" transform="translate(20 7.6)"/>
    <circle id="Ellipse_6" data-name="Ellipse 6" class="cls-1" cx="4.2" cy="4.2" r="4.2" transform="translate(152.9 61.4)"/>
  </g>
</svg>
