<svg xmlns="http://www.w3.org/2000/svg" width="156.8" height="143.531" viewBox="0 0 156.8 143.531"><g transform="translate(-110.801 -142.346)"><g transform="translate(110.801 142.579)"><g transform="translate(0)"><g transform="translate(6.57)"><circle cx="71.533" cy="71.533" r="71.533" fill="#fff"/><circle cx="70.765" cy="70.765" r="70.765" transform="translate(0.767 0.767)" fill="none" stroke="#b0b0b0" stroke-width="2" stroke-dasharray="0 10"/></g><circle cx="65.564" cy="65.564" r="65.564" transform="translate(12.807 6.74)" fill="#563dbf" opacity="0.047"/><g transform="translate(27.459 20.825)" opacity="0.042"><path d="M-163.416,457.58a49.535,49.535,0,0,1-19.4-3.918,49.811,49.811,0,0,1-8.469-4.6,50.223,50.223,0,0,1-7.378-6.088,50.224,50.224,0,0,1-6.088-7.378,49.832,49.832,0,0,1-4.6-8.468,49.537,49.537,0,0,1-3.918-19.406,50.067,50.067,0,0,1,3.939-19.456,49.06,49.06,0,0,1,7.406-12.248,49.928,49.928,0,0,1,10.581-9.616,49.693,49.693,0,0,1,27.927-8.533,49.547,49.547,0,0,1,19.4,3.917,49.868,49.868,0,0,1,8.469,4.6,50.276,50.276,0,0,1,7.378,6.087,50.177,50.177,0,0,1,6.087,7.378,49.9,49.9,0,0,1,4.6,8.469,49.536,49.536,0,0,1,3.918,19.4,49.537,49.537,0,0,1-3.918,19.406,49.888,49.888,0,0,1-4.6,8.468,50.166,50.166,0,0,1-6.087,7.378,50.224,50.224,0,0,1-7.378,6.088,49.813,49.813,0,0,1-8.469,4.6A49.535,49.535,0,0,1-163.416,457.58Z" transform="translate(213.654 -357.489)" fill="#563dbf"/><path d="M-163.533,358.139a49.311,49.311,0,0,0-27.712,8.468,49.556,49.556,0,0,0-10.5,9.543,48.71,48.71,0,0,0-7.348,12.152A49.689,49.689,0,0,0-213,407.609a49.168,49.168,0,0,0,3.887,19.256,49.45,49.45,0,0,0,4.561,8.4,49.862,49.862,0,0,0,6.041,7.322,49.906,49.906,0,0,0,7.322,6.041,49.478,49.478,0,0,0,8.4,4.561,49.168,49.168,0,0,0,19.256,3.887,49.162,49.162,0,0,0,19.255-3.887,49.483,49.483,0,0,0,8.4-4.561,49.86,49.86,0,0,0,7.322-6.041,49.819,49.819,0,0,0,6.041-7.322,49.448,49.448,0,0,0,4.561-8.4,49.154,49.154,0,0,0,3.888-19.256,49.148,49.148,0,0,0-3.888-19.255,49.49,49.49,0,0,0-4.561-8.4,49.817,49.817,0,0,0-6.041-7.322,49.821,49.821,0,0,0-7.322-6.041,49.48,49.48,0,0,0-8.4-4.561,49.148,49.148,0,0,0-19.255-3.888m0-.767A50.237,50.237,0,0,1-113.3,407.609a50.237,50.237,0,0,1-50.237,50.237,50.237,50.237,0,0,1-50.237-50.237,50.329,50.329,0,0,1,3.969-19.6A50.178,50.178,0,0,1-163.533,357.372Z" transform="translate(213.77 -357.372)" fill="#707070"/></g><g transform="translate(0 17.967)"><path d="M-229.325,358.257a.781.781,0,0,1-.722.777,6.164,6.164,0,0,0-1.277.278,2.957,2.957,0,0,0-1.832,2.526c0,.084-.028.194-.028.278a.752.752,0,0,1-.753.75h-.024a.72.72,0,0,1-.751-.69.666.666,0,0,1,0-.087,3.194,3.194,0,0,0-1.194-2.415,3.358,3.358,0,0,0-1.832-.666.749.749,0,0,1-.8-.692.811.811,0,0,1,0-.086c0-.444.278-.722.8-.75a3.11,3.11,0,0,0,3.026-3.054.736.736,0,0,1,.694-.776c.018,0,.037,0,.055,0a.7.7,0,0,1,.75.646.794.794,0,0,1,0,.1,3.1,3.1,0,0,0,2.3,2.943c.278.084.583.084.861.139A.853.853,0,0,1-229.325,358.257Zm-4.636,1.055c.333-.333.75-.75,1.082-1.055-.333-.333-.722-.749-1.027-1.055-.361.333-.8.722-1.111,1.027C-234.682,358.59-234.293,358.979-233.96,359.311Z" transform="translate(246.997 -353.646)" fill="#563dbf"/><path d="M-54.217,461.033a.506.506,0,0,1-.467.5,4,4,0,0,0-.826.18,1.913,1.913,0,0,0-1.185,1.635c0,.054-.018.126-.018.18a.486.486,0,0,1-.488.485h-.015a.466.466,0,0,1-.486-.446.487.487,0,0,1,0-.057,2.067,2.067,0,0,0-.773-1.563,2.17,2.17,0,0,0-1.185-.431.485.485,0,0,1-.52-.448c0-.018,0-.037,0-.055,0-.288.18-.467.521-.485a2.012,2.012,0,0,0,1.958-1.976.477.477,0,0,1,.449-.5h.036a.453.453,0,0,1,.485.418.482.482,0,0,1,0,.067,2.007,2.007,0,0,0,1.491,1.9c.18.054.377.054.557.09A.553.553,0,0,1-54.217,461.033Zm-3,.683c.216-.216.485-.485.7-.683-.216-.216-.467-.485-.664-.683-.23.216-.521.467-.719.664C-57.684,461.249-57.432,461.5-57.217,461.716Z" transform="translate(205.465 -377.957)" fill="#563dbf"/><path d="M-51.785,439.854h2.471v2.5h-2.471Z" transform="translate(203.51 -373.72)" fill="#563dbf"/><path d="M-249.564,419.147v-2.5h2.5v2.5Z" transform="translate(249.564 -368.317)" fill="#563dbf"/><path d="M-213.743,491.3h-2.5v-2.5h2.5Z" transform="translate(241.805 -385.119)" fill="#563dbf"/></g></g><path d="M11.686,0c.815.747,1.586,1.517,2.423,2.219a11.23,11.23,0,0,0,5.436,2.514c.091.023.2.023.295.045.317,0,.362.069.23.362-.589,1.291-1.178,2.608-1.764,3.9-1.291,2.831-2.559,5.685-3.85,8.561-.861,1.926-1.7,3.85-2.582,5.777a6.253,6.253,0,0,1-9.536,2.148A6.134,6.134,0,0,1,.343,22.714a6.28,6.28,0,0,1,.68-5.481c2.22-3.533,4.394-7.09,6.568-10.623C8.9,4.463,10.241,2.33,11.555.178A.41.41,0,0,1,11.686,0Z" transform="translate(87.186 91.966) rotate(-57)" fill="#fff" stroke="#fff" stroke-width="1"/><path d="M-138.432,439.306a37.321,37.321,0,0,1-20.5,5.64,37.351,37.351,0,0,1-20.454-5.617c-.091.159-.159.34-.249.5-.453.974-.838,1.971-1.359,2.9a8.317,8.317,0,0,1-9.716,3.646,8.079,8.079,0,0,1-4.847-4.143,8,8,0,0,1,.272-8.109c2.084-3.423,4.19-6.821,6.3-10.241a1.251,1.251,0,0,0,.136-.407,15.666,15.666,0,0,1,1.472-6.161,10.856,10.856,0,0,1,.7-1.336.687.687,0,0,0,.045-.767,1.1,1.1,0,0,1-.159-.407.7.7,0,0,0-.476-.5,15.539,15.539,0,0,1-4.6-3.145,15.869,15.869,0,0,1-3.239-4.644,14.8,14.8,0,0,1-1.086-9.7,15.408,15.408,0,0,1,9.355-11.3,14.851,14.851,0,0,1,4.938-1.155.62.62,0,0,0,.407-.23,30.605,30.605,0,0,1,6.568-5.64,29.612,29.612,0,0,1,9.015-3.8,30.075,30.075,0,0,1,8.426-.767,30.487,30.487,0,0,1,11.529,2.964,29.633,29.633,0,0,1,9.536,7.271.743.743,0,0,0,.544.272,13.892,13.892,0,0,1,4.485,1,15.664,15.664,0,0,1,9,20.24,15.66,15.66,0,0,1-5.289,6.963,13.5,13.5,0,0,1-2.922,1.7c-.317.135-.407.384-.544.656a1.1,1.1,0,0,0,.045,1.2,15.148,15.148,0,0,1,2.061,7.181.974.974,0,0,0,.181.544c1.926,3.1,3.828,6.229,5.776,9.332a9.986,9.986,0,0,1,1.611,3.692,8.224,8.224,0,0,1-2.107,7.158,9.481,9.481,0,0,1-4.825,2.74,5.872,5.872,0,0,1-3.923-.432,10.023,10.023,0,0,1-3.828-2.673,10.982,10.982,0,0,1-1.563-2.809C-137.934,440.415-138.183,439.872-138.432,439.306Zm-38.894-39.661c.883-.767,1.721-1.54,2.608-2.219a14.7,14.7,0,0,1,6.41-3.08,6.625,6.625,0,0,1,6.908,2.65,3.618,3.618,0,0,0,.407.566q1.02.849,2.038,1.632c.589-.476,1.178-.951,1.79-1.45a3.812,3.812,0,0,0,.589-.614,6.914,6.914,0,0,1,3.556-2.647,7.935,7.935,0,0,1,4.756.181,17.24,17.24,0,0,1,6.478,3.9c.407.363.815.747,1.2,1.133a3.411,3.411,0,0,0,.295-.2,4.57,4.57,0,0,1,5.685.34,6.012,6.012,0,0,1,1.45,2.148,14.185,14.185,0,0,1,1.381,6.818c-.023.384-.045.792-.068,1.178A27.8,27.8,0,0,0-152.8,376.716a27.8,27.8,0,0,0-33.254,20.959,27.8,27.8,0,0,0,.079,12.636c0-.159-.023-.249-.023-.34a14.219,14.219,0,0,1,1.7-8.811,4.6,4.6,0,0,1,3.284-2.446,4.519,4.519,0,0,1,3.694.931Zm17.577,1.45c.045.657.114,1.223.136,1.79a22.346,22.346,0,0,1-.883,6.591,32.933,32.933,0,0,1-3.262,7.7,10.617,10.617,0,0,1-7.882,5.37.44.44,0,0,0-.384.295c-1.563,3.534-3.145,7.044-4.734,10.577a.343.343,0,0,0,.068.43,16.777,16.777,0,0,0,3.4,2.922,24.732,24.732,0,0,0,9.921,3.692,33.48,33.48,0,0,0,7.384.23,22.265,22.265,0,0,0,2.423-.362,25.625,25.625,0,0,0,6.047-1.88,20.207,20.207,0,0,0,6.025-4.167.987.987,0,0,0,.23-1.336q-2.174-4.757-4.258-9.536c-.249-.566-.5-.951-1.155-.929a.689.689,0,0,1-.2-.045,10.564,10.564,0,0,1-6.41-4.123,24.418,24.418,0,0,1-2.7-5.1,29.721,29.721,0,0,1-1.611-4.987,20.654,20.654,0,0,1-.566-5.889c.023-.407.068-.792.114-1.291-.317.407-.589.725-.861,1.065-.292-.347-.565-.66-.835-1.022Zm3.85.023a.6.6,0,0,1-.068.09.332.332,0,0,0-.023.159,16.975,16.975,0,0,0,.407,6.5,28.807,28.807,0,0,0,1.812,5.255,21.339,21.339,0,0,0,2.22,4.054,8.65,8.65,0,0,0,10.786,2.423,12.654,12.654,0,0,0,5.391-5.346,12.3,12.3,0,0,0-.045-12.208,2.532,2.532,0,0,0-3.442-.983,2.574,2.574,0,0,0-.408.282c.09.114.159.181.23.272a34.7,34.7,0,0,1,3.715,5.345.992.992,0,0,1-.159,1.223.974.974,0,0,1-1.208.2,2.057,2.057,0,0,1-.614-.7,31.625,31.625,0,0,0-6.291-7.769,16.4,16.4,0,0,0-4.711-3.013c-.5-.2-1-.317-1.586-.521a1.869,1.869,0,0,0,.136.295c.566.974,1.132,1.971,1.7,2.944.951,1.653,1.926,3.307,2.877,4.986a1.11,1.11,0,0,1,.159.883,1.012,1.012,0,0,1-.861.767,1.078,1.078,0,0,1-1.132-.614c-1.7-2.967-3.42-5.934-5.119-8.9-.114-.2-.23-.2-.407-.136a4.707,4.707,0,0,0-2.177,1.631.449.449,0,0,0-.045.589c.544.929,1.087,1.858,1.611,2.786.476.838.951,1.7,1.427,2.537.634,1.11,1.313,2.2,1.926,3.307a1.027,1.027,0,0,1-.439,1.384,1.03,1.03,0,0,1-.558.112,1.077,1.077,0,0,1-.906-.634c-.544-.974-1.087-1.948-1.653-2.923-.43-.767-.906-1.517-1.336-2.265-.431-.659-.792-1.316-1.2-2.018Zm-22.741.2a2.485,2.485,0,0,0-3.5.319,2.516,2.516,0,0,0-.237.337,11.867,11.867,0,0,0-1.581,7.678,12.655,12.655,0,0,0,6.521,9.743,8.291,8.291,0,0,0,7.474.543,8.179,8.179,0,0,0,4.168-3.488,29.93,29.93,0,0,0,3.465-8.335,18.6,18.6,0,0,0,.614-5.232c-.023-.566-.114-1.155-.159-1.721a.132.132,0,0,1-.091-.023c-.249.407-.476.815-.725,1.224-1.155,1.994-2.288,3.989-3.443,5.957a1.029,1.029,0,0,1-1.351.538,1.055,1.055,0,0,1-.121-.063,1.074,1.074,0,0,1-.385-1.469c.014-.024.029-.048.045-.071.861-1.5,1.721-2.993,2.582-4.463.767-1.336,1.563-2.7,2.333-4.054a.355.355,0,0,0,.045-.362,4.36,4.36,0,0,0-2.559-1.9,1.867,1.867,0,0,1-.136.23l-3.329,5.776c-.614,1.042-1.2,2.084-1.812,3.145a1.055,1.055,0,0,1-.815.589,1.039,1.039,0,0,1-1.02-.43,1.09,1.09,0,0,1,.023-1.246c1.427-2.446,2.831-4.915,4.258-7.365.136-.23.249-.476.43-.767-.181.023-.295.045-.407.068-.614.23-1.246.407-1.835.68a19.119,19.119,0,0,0-5.3,3.9,33.468,33.468,0,0,0-5.21,6.863,1.064,1.064,0,0,1-1.427.43,1.018,1.018,0,0,1-.41-1.381l.026-.046a16.236,16.236,0,0,1,1.042-1.7c.927-1.3,1.879-2.586,2.83-3.9Zm-4.073,16.466c-.023.045-.09.114-.136.181-1.313,2.148-2.65,4.281-3.964,6.432-2.2,3.557-4.372,7.091-6.571,10.623a6.281,6.281,0,0,0-.68,5.481,6.01,6.01,0,0,0,1.995,2.809,6.249,6.249,0,0,0,8.786-.962,6.231,6.231,0,0,0,.749-1.186c.883-1.926,1.721-3.85,2.582-5.776,1.268-2.854,2.559-5.731,3.828-8.584.589-1.313,1.178-2.608,1.764-3.9.136-.295.091-.362-.23-.362a1.274,1.274,0,0,1-.295-.045,11.429,11.429,0,0,1-5.436-2.514C-181.128,419.305-181.9,418.535-182.714,417.787Zm39.095,4.8c.23.5.407.929.614,1.381,1.065,2.378,2.129,4.78,3.194,7.158,1.178,2.627,2.333,5.232,3.51,7.859a26.7,26.7,0,0,0,1.2,2.582,6.221,6.221,0,0,0,7.611,2.718,6.3,6.3,0,0,0,4.009-6.7,7.768,7.768,0,0,0-1.246-3.035q-4.554-7.3-9.06-14.652c-.453-.725-.883-1.45-1.359-2.2C-137.436,420.279-140.086,422.181-143.619,422.59Zm-44.259-10.94c-.023-.09-.023-.159-.045-.23a29.016,29.016,0,0,1-.906-5.754.724.724,0,0,0-.136-.34,8.918,8.918,0,0,1-1.4-3.579,9.564,9.564,0,0,1,3.624-9.378,1.019,1.019,0,0,0,.295-.384,32.028,32.028,0,0,1,2.356-4.326c.181-.295.362-.566.589-.883a13.528,13.528,0,0,0-10.679,15.874,13.528,13.528,0,0,0,6.306,9Zm57.894,0a13.493,13.493,0,0,0,6.161-14.859,13.58,13.58,0,0,0-10.555-10.057c.317.476.614.883.861,1.313.614,1.087,1.178,2.174,1.764,3.262a3.328,3.328,0,0,0,.747,1.2,9.59,9.59,0,0,1,2.129,12.73,1.188,1.188,0,0,0-.181.565c-.159,1.224-.295,2.469-.5,3.692C-129.644,410.222-129.848,410.924-129.984,411.649Zm-47.75,23.9c-.249.544-.5,1.11-.747,1.653-.091.2.068.249.181.317a28.118,28.118,0,0,0,4.689,2.492,38.151,38.151,0,0,0,16.744,2.787,38.529,38.529,0,0,0,7-.974,31.41,31.41,0,0,0,10.1-4.189c.453-.3.453-.3.23-.792-.2-.453-.407-.906-.614-1.381a1.4,1.4,0,0,0-.181.159,21.466,21.466,0,0,1-7.678,4.96,30.6,30.6,0,0,1-21.042.295,22.354,22.354,0,0,1-6.161-3.262C-176.077,436.995-176.87,436.27-177.734,435.545Z" transform="translate(237.222 -340.391)" fill="#563dbf"/><path d="M-174.351,400.29a4.55,4.55,0,0,0-3.715-.929,4.5,4.5,0,0,0-3.284,2.446,14.383,14.383,0,0,0-1.7,8.811c0,.091.023.181.023.34a27.823,27.823,0,0,1,20.583-33.536,27.823,27.823,0,0,1,33.536,20.583,27.818,27.818,0,0,1,.084,12.591c.023-.384.045-.792.068-1.178a14.133,14.133,0,0,0-1.381-6.818,6.681,6.681,0,0,0-1.45-2.148,4.636,4.636,0,0,0-5.685-.34,3.091,3.091,0,0,1-.295.2c-.407-.384-.792-.767-1.2-1.132a17.6,17.6,0,0,0-6.478-3.9A7.934,7.934,0,0,0-150,395.1a6.913,6.913,0,0,0-3.557,2.65,2.981,2.981,0,0,1-.589.614c-.589.5-1.2.974-1.79,1.45-.68-.544-1.359-1.065-2.038-1.631a2.559,2.559,0,0,1-.407-.566,6.625,6.625,0,0,0-6.908-2.65,14.7,14.7,0,0,0-6.41,3.08C-172.63,398.772-173.467,399.539-174.351,400.29Z" transform="translate(234.25 -341.037)" fill="#fff"/><path d="M-153.755,409.342c.295.362.544.68.815,1.02.272-.34.544-.657.861-1.065-.045.5-.091.884-.114,1.291a19.155,19.155,0,0,0,.566,5.889,29.674,29.674,0,0,0,1.611,4.986,26.742,26.742,0,0,0,2.7,5.1,10.624,10.624,0,0,0,6.41,4.122.648.648,0,0,0,.2.045c.657-.022.906.362,1.155.929q2.071,4.792,4.258,9.536a1.014,1.014,0,0,1-.23,1.336,20.1,20.1,0,0,1-6.025,4.168,26.019,26.019,0,0,1-6.044,1.877,17.243,17.243,0,0,1-2.423.362,33.492,33.492,0,0,1-7.384-.23,24.857,24.857,0,0,1-9.921-3.692,17.4,17.4,0,0,1-3.4-2.922.347.347,0,0,1-.068-.43c1.586-3.533,3.145-7.044,4.734-10.577a.477.477,0,0,1,.384-.295,10.676,10.676,0,0,0,7.882-5.37,32.512,32.512,0,0,0,3.262-7.7,20.947,20.947,0,0,0,.883-6.591C-153.641,410.564-153.71,409.976-153.755,409.342Zm.838,34.156c.249-.023.544-.023.838-.045a10.9,10.9,0,0,0,6.591-2.695,8.58,8.58,0,0,0,2.718-4.326,1.432,1.432,0,0,0-.317-1.359,2.054,2.054,0,0,0-1.631-.7h-16.421a2.855,2.855,0,0,0-.614.069,1.66,1.66,0,0,0-1.39,1.893,1.64,1.64,0,0,0,.054.236,8.368,8.368,0,0,0,2.107,3.624,11.114,11.114,0,0,0,8.066,3.306Zm-2.7-13.272a1.059,1.059,0,0,0,1.042-1.065,1.069,1.069,0,0,0-1.042-1.042,1.045,1.045,0,0,0-1.065,1.023v.018a1.063,1.063,0,0,0,1.063,1.063h0Zm6.387-1.065a1.035,1.035,0,0,0-1.042-1.02,1.042,1.042,0,0,0-1.042,1.042,1.042,1.042,0,0,0,1.042,1.042,1.058,1.058,0,0,0,1.043-1.066Z" transform="translate(231.231 -348.638)" fill="#fff"/><path d="M-143.629,407.946c.407.681.767,1.36,1.178,2.016.453.767.906,1.518,1.336,2.266.566.974,1.11,1.948,1.653,2.921a1.076,1.076,0,0,0,.906.635,1.023,1.023,0,0,0,1.112-.924,1.018,1.018,0,0,0-.114-.572c-.614-1.132-1.291-2.22-1.926-3.307-.476-.838-.951-1.7-1.427-2.537-.544-.929-1.065-1.857-1.611-2.786a.449.449,0,0,1,.045-.589,4.7,4.7,0,0,1,2.174-1.631c.181-.068.295-.068.407.136,1.7,2.967,3.42,5.935,5.119,8.9a1.062,1.062,0,0,0,1.4.532,1.06,1.06,0,0,0,.59-.691,1.109,1.109,0,0,0-.159-.883c-.951-1.653-1.926-3.307-2.877-4.986-.566-.974-1.132-1.971-1.7-2.944-.045-.068-.045-.136-.136-.295.589.181,1.087.317,1.586.521a16.367,16.367,0,0,1,4.711,3.013,31.592,31.592,0,0,1,6.3,7.769,2.292,2.292,0,0,0,.614.7.971.971,0,0,0,1.2-.2,1.025,1.025,0,0,0,.159-1.223,34.626,34.626,0,0,0-3.715-5.345c-.068-.068-.136-.159-.23-.272a2.531,2.531,0,0,1,3.568.294,2.494,2.494,0,0,1,.282.408,12.292,12.292,0,0,1,.05,12.218,12.657,12.657,0,0,1-5.391,5.345,8.662,8.662,0,0,1-10.782-2.423,21.292,21.292,0,0,1-2.219-4.054,28.806,28.806,0,0,1-1.812-5.255,17.006,17.006,0,0,1-.407-6.5c0-.045.023-.09.023-.159C-143.7,408.037-143.675,408.014-143.629,407.946Z" transform="translate(224.956 -347.22)" fill="#fff"/><path d="M-174.837,408.166c-.951,1.313-1.9,2.608-2.809,3.919-.384.544-.7,1.132-1.042,1.7a1.015,1.015,0,0,0,.33,1.4c.018.011.035.021.054.031a1.04,1.04,0,0,0,1.413-.4l.014-.025a33.426,33.426,0,0,1,5.21-6.863,19.105,19.105,0,0,1,5.3-3.9c.589-.271,1.223-.453,1.835-.68a1.7,1.7,0,0,1,.407-.068c-.159.3-.295.522-.43.767-1.427,2.447-2.832,4.915-4.258,7.365a1.09,1.09,0,0,0-.023,1.246.96.96,0,0,0,1.02.43,1.055,1.055,0,0,0,.815-.589c.614-1.042,1.2-2.084,1.812-3.145l3.329-5.776a1.875,1.875,0,0,0,.136-.23,4.358,4.358,0,0,1,2.559,1.9c.045.068,0,.249-.045.362-.767,1.359-1.563,2.7-2.333,4.054-.861,1.5-1.721,2.967-2.582,4.463a1.037,1.037,0,0,0,.2,1.451,1.041,1.041,0,0,0,.14.09,1.024,1.024,0,0,0,1.406-.348.965.965,0,0,0,.066-.129c1.155-1.995,2.288-3.964,3.443-5.957.23-.407.476-.815.725-1.223a.14.14,0,0,1,.091.023c.045.566.136,1.155.159,1.721a18.6,18.6,0,0,1-.614,5.232,30.2,30.2,0,0,1-3.465,8.335,8.185,8.185,0,0,1-4.168,3.489,8.3,8.3,0,0,1-7.474-.544,12.8,12.8,0,0,1-6.521-9.743,11.865,11.865,0,0,1,1.586-7.678,2.434,2.434,0,0,1,3.306-.96A2.506,2.506,0,0,1-174.837,408.166Z" transform="translate(233.422 -347.236)" fill="#fff"/><path d="M-182.057,431.116c.815.747,1.586,1.517,2.423,2.219a11.23,11.23,0,0,0,5.436,2.514c.091.023.2.023.295.045.317,0,.362.069.23.362-.589,1.291-1.178,2.608-1.764,3.9-1.291,2.831-2.559,5.685-3.85,8.561-.861,1.926-1.7,3.85-2.582,5.777a6.254,6.254,0,0,1-8.357,2.894,6.292,6.292,0,0,1-1.179-.746,6.134,6.134,0,0,1-1.995-2.809,6.28,6.28,0,0,1,.68-5.481c2.22-3.533,4.394-7.09,6.568-10.623,1.313-2.148,2.65-4.281,3.964-6.432A.41.41,0,0,1-182.057,431.116Z" transform="translate(236.566 -353.719)" fill="#fff"/><path d="M-187.232,415.574a13.513,13.513,0,0,1-4.626-18.543,13.509,13.509,0,0,1,9-6.305c-.2.317-.384.589-.589.884a28.623,28.623,0,0,0-2.333,4.349,1.608,1.608,0,0,1-.295.384,9.563,9.563,0,0,0-3.624,9.378,8.928,8.928,0,0,0,1.4,3.579.887.887,0,0,1,.136.34,30.733,30.733,0,0,0,.906,5.754A1.2,1.2,0,0,1-187.232,415.574Z" transform="translate(236.577 -344.314)" fill="#fff"/><path d="M-111.1,415.559c.159-.725.34-1.427.453-2.129.181-1.224.317-2.447.5-3.693a1.194,1.194,0,0,1,.181-.566,9.581,9.581,0,0,0-2.13-12.73,3.327,3.327,0,0,1-.747-1.2l-1.764-3.262c-.249-.43-.544-.837-.861-1.313a13.58,13.58,0,0,1,10.555,10.056A13.552,13.552,0,0,1-111.1,415.559Z" transform="translate(218.34 -344.3)" fill="#fff"/><path d="M-172.257,454.244c.838.7,1.631,1.426,2.492,2.084a23,23,0,0,0,6.161,3.262,30,30,0,0,0,10.281,1.721,29.563,29.563,0,0,0,10.759-2.016,21.273,21.273,0,0,0,7.678-4.96,1.411,1.411,0,0,1,.181-.159c.2.476.407.929.614,1.38.23.5.23.5-.23.793a32.394,32.394,0,0,1-10.1,4.2,39.874,39.874,0,0,1-23.738-1.812,29.206,29.206,0,0,1-4.689-2.492c-.113-.068-.272-.136-.181-.317C-172.755,455.353-172.5,454.79-172.257,454.244Z" transform="translate(231.748 -359.088)" fill="#fff"/><path d="M-150.589,451.11a11.083,11.083,0,0,1-8.063-3.307,8.377,8.377,0,0,1-2.107-3.624,1.652,1.652,0,0,1,1.083-2.071,1.6,1.6,0,0,1,.253-.058,2.8,2.8,0,0,1,.614-.068h16.422a1.984,1.984,0,0,1,1.631.7,1.48,1.48,0,0,1,.317,1.359,8.489,8.489,0,0,1-2.718,4.325,10.9,10.9,0,0,1-6.591,2.7C-150.045,451.087-150.34,451.11-150.589,451.11Zm5.912-2.741a17.993,17.993,0,0,0-11.846,0,10.682,10.682,0,0,0,11.846,0Z" transform="translate(228.903 -356.248)" fill="#563dbf"/><path d="M-151.308,435.935a1.03,1.03,0,0,1-1.043-1.018c0-.015,0-.031,0-.047a1.054,1.054,0,0,1,1.053-1.053,1.054,1.054,0,0,1,1.053,1.053A1.077,1.077,0,0,1-151.308,435.935Z" transform="translate(226.928 -354.348)" fill="#563dbf"/><path d="M-143.305,434.874a1.044,1.044,0,0,1-1.023,1.065h-.018a1.074,1.074,0,0,1-1.065-1.042,1.054,1.054,0,0,1,1.042-1.065,1.054,1.054,0,0,1,1.065,1.042Z" transform="translate(225.312 -354.351)" fill="#563dbf"/><path d="M-143.369,450a10.641,10.641,0,0,1-11.846,0A17.858,17.858,0,0,1-143.369,450Z" transform="translate(227.595 -357.881)" fill="#fff"/></g><g transform="translate(124.188 255.493)"><g transform="translate(0 0)"><path d="M2.5.527A2.491,2.491,0,0,0,.56,2.391,2.387,2.387,0,0,0,1.012,4.41H1L5.152,9.136a.512.512,0,0,0,.765,0L10.068,4.41h-.01a2.387,2.387,0,0,0,.45-2.019A2.513,2.513,0,0,0,7.771.49,2.48,2.48,0,0,0,5.533,2.935,2.439,2.439,0,0,0,4.6,1.027a2.568,2.568,0,0,0-2.1-.5Z" transform="translate(-0.498 -0.475)" fill="#563dbf"/></g></g><g transform="translate(257.857 213.91)"><g transform="translate(2 1)"><path d="M1.936.511A1.772,1.772,0,0,0,.542,1.82,1.646,1.646,0,0,0,.867,3.237H.86L3.842,6.555a.373.373,0,0,0,.549,0L7.373,3.237H7.366A1.646,1.646,0,0,0,7.689,1.82,1.8,1.8,0,0,0,5.723.485,1.757,1.757,0,0,0,4.115,2.2,1.7,1.7,0,0,0,3.447.863,1.878,1.878,0,0,0,1.936.511Z" transform="translate(-0.498 -0.475)" fill="none" stroke="#433490" stroke-linecap="round" stroke-linejoin="round" stroke-width="1"/></g></g></g></svg>