<?xml version="1.0" encoding="UTF-8"?>
<svg width="221px" height="86px" viewBox="0 0 221 86" version="1.1" xmlns="http://www.w3.org/2000/svg" xmlns:xlink="http://www.w3.org/1999/xlink">
    <!-- Generator: Sketch 41 (35326) - http://www.bohemiancoding.com/sketch -->
    <title>Group</title>
    <desc>Created with Sketch.</desc>
    <defs></defs>
    <g id="Page-1" stroke="none" stroke-width="1" fill="none" fill-rule="evenodd">
        <g id="Group">
            <path d="M195.603426,79.3497606 C193.854316,81.0387263 191.406687,82.7025208 188.080203,84.009183 C180.20174,87.1443389 171.423304,85.8902766 166.643113,77.5323198 C166.310123,76.9507978 165.990673,76.3351265 165.684907,75.6882503 C161.839969,79.6745189 157.128363,83.1903541 152.553354,83.1903541 C146.541231,83.1903541 142.188897,76.3077648 141.377445,73.7922632 C140.706153,75.4077906 137.755418,82.6444681 130.37858,82.6444681 C114.488873,82.6444681 116.952736,61.9893234 121.991116,53.387931 C127.545875,43.9160717 135.785802,40.4194508 138.382449,39.6817671 C141.001226,38.9219528 144.947834,41.8210499 141.775794,43.5767372 C138.603754,45.3324245 130.304812,49.1314958 129.707288,65.1908708 C129.49336,70.9595577 131.256424,73.7553791 132.80556,74.3160187 C135.778425,75.3856601 139.857816,68.1416058 140.861066,61.9745697 C141.982346,55.0403425 140.993849,53.4616993 141.421706,51.573229 C141.997099,49.0208432 150.384563,49.1610031 150.97471,51.4183154 C151.564857,53.6756276 149.160008,75.9905608 155.061478,76.5438236 C157.770343,76.77953 160.776166,74.3442849 163.752504,70.6318786 C158.700096,54.2927572 159.83703,27.2417571 168.487322,16.7914406 C176.756757,6.80320273 185.188482,9.59164727 188.013811,12.7268032 C198.061064,23.8584508 177.14773,61.0303345 174.034704,64.5638396 C174.034704,65.0433341 175.288767,76.1749817 181.227121,78.520816 C184.586038,79.8481303 188.635145,78.276651 191.850605,76.1118318 C189.450263,73.2349865 187.777671,69.0971325 187.541693,63.2950236 C186.94417,48.5413488 193.634961,40.9358294 205.474785,41.8505573 C218.288352,42.8095461 221.180072,54.2362673 220.22846,63.1253563 L220.250591,63.1253563 C219.026036,74.3307724 212.652448,81.9067844 205.179712,81.9067844 C202.085707,81.9067844 198.631291,81.2036673 195.603426,79.3497606 Z M101.299087,40.3456824 C101.299087,48.0987385 102.27283,70.9152966 102.420367,76.0348218 C102.523642,79.7232405 101.933495,84.0386904 106.994006,84.0386904 C112.947114,84.0386904 112.799577,77.3626525 112.799577,74.301265 C112.799577,71.2398775 112.93236,43.1636343 112.799577,38.6121256 C114.968367,38.2063996 124.484487,37.2105265 124.484487,33.0057292 C124.484487,28.8009319 114.695424,30.5566192 112.393851,30.792678 C112.327459,29.4353399 111.781573,20.1110174 111.781573,17.226674 C111.781573,13.6120237 110.837338,11.192421 105.968625,10.28507 C101.099913,9.37771899 100.731071,12.9702388 100.657302,13.6784152 C100.590911,14.4160934 100.657301,31.6776386 100.657302,31.6778985 C98.5549038,32.1573929 89.1863203,31.0434905 90.3297301,37.7932967 C90.9715149,41.6882668 99.181935,40.6333791 101.299087,40.3456824 Z M30.6511155,39.8071733 C38.0279529,38.6047488 49.9046611,29.066498 47.8096393,14.7259261 C45.7146174,0.385354186 29.3675457,-1.90146541 18.4793337,1.44761877 C9.10337338,4.30983169 -1.55615668,13.4866174 0.701155572,21.3650798 C1.3576941,23.6297689 2.24291459,24.3674526 6.00510167,24.4633515 C9.76728875,24.5592504 16.8638063,20.5314971 18.287536,18.9676076 C19.7112656,17.4037181 17.9703319,13.7595604 17.4834607,12.0702646 C17.107242,10.012127 18.2654054,9.40722634 19.8809328,9.79082188 L39.2598847,14.777564 C39.7699099,14.8702125 40.1938961,15.2237278 40.3767363,15.7087834 C40.5595766,16.193839 40.4744438,16.7392652 40.152482,17.1455288 L29.537213,32.4819737 C29.1517268,33.1530482 28.4436875,33.5739996 27.6699867,33.5920978 C26.8962859,33.6101961 26.1693381,33.2228116 25.7528954,32.5704958 C23.9898313,29.2140348 23.7168883,28.4247132 21.5628518,27.569 C19.4088152,26.7132869 13.3819391,30.2320383 10.8664375,32.6663947 C4.40432795,38.8998223 7.17801882,73.0176953 10.1287538,79.5830806 C12.1426304,84.009183 18.2432749,85.3517675 20.6702544,79.9888067 C23.0972339,74.6258459 16.7162696,48.4380731 22.049723,45.6570054 C25.4578219,43.8791875 27.2135092,45.7750348 29.1536175,48.2757826 C32.7830215,52.9895817 47.1604776,73.7184949 50.0153136,76.3962868 C52.8701497,79.0740788 56.757743,83.1092089 60.8518878,80.0404445 C64.1493341,77.569204 62.9469096,74.0799599 61.5895715,71.1882396 C55.378688,57.352767 44.396974,46.213947 30.6511155,39.8071733 L30.6511155,39.8071733 Z M96.3197221,63.1253563 C95.1541818,74.3307724 88.7805942,81.9067844 81.2488432,81.9067844 C73.7170922,81.9067844 64.200972,77.8052628 63.610825,63.2950236 C63.0133012,48.5413488 69.7040927,40.9358294 81.5439167,41.8505573 C94.416498,42.8095461 97.3082183,54.2362673 96.3566062,63.1253563 L96.3197221,63.1253563 Z M81.2488432,77.3110147 C87.3421109,77.4364209 93.191943,58.7361381 87.7994749,51.2412713 C84.5167822,46.6750089 78.6890807,47.3241706 76.7342187,52.7166388 C74.8900094,57.9837007 74.6982116,77.1782316 81.2488432,77.3110147 Z M173.016701,55.5936054 C174.779765,52.6428704 192.196478,16.8357016 180.452553,14.9324776 C168.487322,20.0962637 172.743758,52.6059862 173.016701,55.5936054 Z M205.179712,77.3110147 C211.272979,77.4364209 217.122811,58.7361381 211.730343,51.2412713 C208.447651,46.6750089 202.619949,47.3241706 200.665087,52.7166388 C198.761863,57.9837007 198.540558,77.1782316 205.179712,77.3110147 Z" id="Combined-Shape" fill="#FFFFFF"></path>
            <path d="M91.8567354,28.0558713 C92.0555077,28.3501239 92.1176408,28.7158367 92.027201,29.0592252 C91.9367613,29.4026137 91.7025459,29.6902759 91.3846178,29.8484428 C90.4330058,30.4017056 78.4308913,36.9375835 74.3072392,39.1358811 C73.8797668,39.3496646 73.3832031,39.3783019 72.9339883,39.2150779 C72.4847735,39.0518539 72.1224203,38.7111256 71.9318976,38.2727911 C70.9065172,36.0597399 69.7999916,33.9942254 68.737727,32.0467403 C68.5188207,31.6545128 68.4791337,31.1870957 68.6287775,30.7635757 C68.7784212,30.3400556 69.1029464,30.0013268 69.5196718,29.8336891 C71.6442009,28.9115844 85.5421626,23.6076383 87.6888223,22.9215925 C88.0310732,22.7560751 88.427052,22.7416776 88.7804195,22.8819028 C89.133787,23.022128 89.4121503,23.3041215 89.5477853,23.6592762 C90.3813679,25.0903827 91.1338054,26.5509965 91.8714891,28.0853787" id="_Trazado_-path" fill="#ED2F3C"></path>
        </g>
    </g>
</svg>