<svg xmlns="http://www.w3.org/2000/svg" width="81.937" height="31.166" viewBox="0 0 81.937 31.166"><g transform="translate(-77.226 137.459)"><path d="M200.2-108.488v.006h-.69c-3.68.011-7.135,2.572-7.287,7.589-.139,4.573,2.361,7.766,6.589,7.766a5.2,5.2,0,0,0,4.7-2.305c.2,1.535,1.067,2.011,2.818,2.011v-15.066Zm3.153,8.879a3.808,3.808,0,0,1-3.99,4.065c-2.444,0-4.2-1.557-4.084-5.316.11-3.6,1.925-5.188,4.343-5.188.193,0,.361-.005.529-.016h3.2Z" transform="translate(-74.14 -18.678)" fill="#8b8b8b"/><path d="M129.241-108.8l.011,10.461c0,1.519-1.324,2.289-3.067,2.289-1.845,0-3.067-.77-3.067-2.289l0-7.824c-.019-2.236-1.482-2.637-2.779-2.637v11.1c0,2.8,2.661,4.177,5.757,4.177,3,0,5.937-1.38,5.937-4.177l-.005-8.135c0-2.193-.856-2.968-2.781-2.968" transform="translate(-27.792 -18.474)" fill="#8b8b8b"/><path d="M164.478-103.038v9.322h2.768v-9.413a2.929,2.929,0,0,1,3.265-3.2h.818c2.431,0,2.818-1.187,2.818-2.471h-3.875c-3.436,0-5.8,1.893-5.8,5.766" transform="translate(-56.253 -18.474)" fill="#8b8b8b"/><path d="M85.4-102.054l-3.385-.883c-.939-.241-1.789-.631-1.789-1.717,0-1.123.719-1.674,2.225-1.674h3.011c1.332,0,2.912-.412,2.912-2.476H82.711c-3.485.006-5.485,1.679-5.485,4.081,0,2.241,1.487,3.5,4.15,4.171l2.952.738c1.216.315,1.655,1.037,1.655,1.786,0,1.128-.749,1.808-2.583,1.829l-5.653.037v2.439H83.5c3.487,0,5.482-1.781,5.482-4.134s-.976-3.519-3.586-4.2" transform="translate(0 -18.474)" fill="#8b8b8b"/><path d="M253.617-102.366c.038,0,.062.021.048.075a3.6,3.6,0,0,1-1.72,2,2.768,2.768,0,0,1-2.466.262.088.088,0,0,1-.048-.08.075.075,0,0,1,.072-.064,11.378,11.378,0,0,0,4.07-2.182l.024-.016Zm.182-2.663a25.357,25.357,0,0,1-5.143,1.995,14.928,14.928,0,0,1-5.3.743,2.954,2.954,0,0,1-1.76-.8c-.018-.027-.045-.054-.032-.08a.088.088,0,0,1,.075-.075l.42-.027c.9-.059,2.522-.1,4.412-.358a45.676,45.676,0,0,0,7.3-1.492c.04,0,.07.032.027.091m.163.9a.056.056,0,0,1,.04.08,6.915,6.915,0,0,1-1.471,1.278,15.915,15.915,0,0,1-2.23,1.235,13.944,13.944,0,0,1-2.364.894,6.772,6.772,0,0,1-2.27.235,2.6,2.6,0,0,1-1.257-.449.234.234,0,0,1-.024-.064.127.127,0,0,1,.091-.07,33.449,33.449,0,0,0,5.428-1.31,17.606,17.606,0,0,0,4.057-1.829m8.643-7.5c.037.011.05.032.037.1-.783.62-4.361,3.455-6.292,4.958l-.061.059c-.561.4-.939.492-.992-.39-.024-.209-.05-.38-.05-.38-.035-.193.021-.187.1-.23.618-.369,1.832-1,2.782-1.551,1.716-.968,3.711-2.118,4.482-2.562m-2.637,3.781c.035.005.061.032.045.091-.776.845-3.624,3.835-4.926,5.14-.134.134-.2.07-.147-.059a8.9,8.9,0,0,0,.356-1.032,1.008,1.008,0,0,1,.284-.62c1.669-1.343,3.284-2.675,4.346-3.5ZM263.5-113.1c.016,0,.067-.005.072.021s.043.038-.008.075c-.372.225-8.373,3.364-8.445,3.39a.95.95,0,0,1-1.278-.358c-.158-.236-.294-.433-.342-.519-.027-.043-.118-.134.118-.187,0,0,2.255-.572,4.263-1.059,2.308-.551,4.934-1.182,5.621-1.364m.84-1.086a.058.058,0,0,1,.053.059s-.021.043-.048.043c-.607.091-11.729,1.54-11.812,1.546a1.121,1.121,0,0,1-.193.021,1.2,1.2,0,0,1-.193-.011,2.455,2.455,0,0,1-1.5-.765,2.5,2.5,0,0,1-.508-.77.05.05,0,0,1,.005-.069c.013-.032.048-.037.07-.043,0,0,3.736-.011,6.081,0,1.759,0,3.634,0,5.151,0,1.321,0,2.377,0,2.891-.011m.724-.936a.056.056,0,0,1,.046.059c0,.027-.032.037-.064.037-1.632-.112-16.257-1.086-16.257-1.086a1.764,1.764,0,0,1-.379-.059,3.115,3.115,0,0,1-2.1-2.059.073.073,0,0,1,0-.091.089.089,0,0,1,.091-.037s17.24,2.984,18.663,3.236m-3.032-2.7c.011.07-.014.091-.072.075-.626-.3-2.04-.946-3.474-1.62-1.2-.572-9.445-4.263-10-4.541l-.982-.481a3.348,3.348,0,0,1-.414-.219,2.814,2.814,0,0,1-.8-.653,3.466,3.466,0,0,1-.423-.722,3.959,3.959,0,0,1-.209-1.434.073.073,0,0,1,.043-.059c.027-.016.053-.016.1,0l1.029.594.556.321L250.4-124.8c4.207,2.5,10.1,6.065,11.633,6.98m1.794,1.615a.059.059,0,0,1,.037.048.069.069,0,0,1-.083.048c-.463-.134-1.441-.385-2.677-.706-2.824-.738-13.5-3.466-13.681-3.514l-.048-.016a3.476,3.476,0,0,1-1.575-.9,2.21,2.21,0,0,1-.324-.4,3.247,3.247,0,0,1-.463-1.412.128.128,0,0,1,.024-.064c.008-.022.054-.032.1-.016l1.749.653c4.15,1.524,15.144,5.594,16.938,6.284" transform="translate(-105.948 -6.428)" fill="#8b8b8b" fill-rule="evenodd"/><path d="M200.2-108.488v.006h-.69c-3.68.011-7.135,2.572-7.287,7.589-.139,4.573,2.361,7.766,6.589,7.766a5.2,5.2,0,0,0,4.7-2.305c.2,1.535,1.067,2.011,2.818,2.011v-15.066Zm3.153,8.879a3.808,3.808,0,0,1-3.99,4.065c-2.444,0-4.2-1.557-4.084-5.316.11-3.6,1.925-5.188,4.343-5.188.193,0,.361-.005.529-.016h3.2Z" transform="translate(-74.14 -18.678)" fill="#8b8b8b"/><path d="M129.241-108.8l.011,10.461c0,1.519-1.324,2.289-3.067,2.289-1.845,0-3.067-.77-3.067-2.289l0-7.824c-.019-2.236-1.482-2.637-2.779-2.637v11.1c0,2.8,2.661,4.177,5.757,4.177,3,0,5.937-1.38,5.937-4.177l-.005-8.135c0-2.193-.856-2.968-2.781-2.968" transform="translate(-27.792 -18.474)" fill="#8b8b8b"/><path d="M164.478-103.038v9.322h2.768v-9.413a2.929,2.929,0,0,1,3.265-3.2h.818c2.431,0,2.818-1.187,2.818-2.471h-3.875c-3.436,0-5.8,1.893-5.8,5.766" transform="translate(-56.253 -18.474)" fill="#8b8b8b"/><path d="M85.4-102.054l-3.385-.883c-.939-.241-1.789-.631-1.789-1.717,0-1.123.719-1.674,2.225-1.674h3.011c1.332,0,2.912-.412,2.912-2.476H82.711c-3.485.006-5.485,1.679-5.485,4.081,0,2.241,1.487,3.5,4.15,4.171l2.952.738c1.216.315,1.655,1.037,1.655,1.786,0,1.128-.749,1.808-2.583,1.829l-5.653.037v2.439H83.5c3.487,0,5.482-1.781,5.482-4.134s-.976-3.519-3.586-4.2" transform="translate(0 -18.474)" fill="#8b8b8b"/><path d="M253.617-102.366c.038,0,.062.021.048.075a3.6,3.6,0,0,1-1.72,2,2.768,2.768,0,0,1-2.466.262.088.088,0,0,1-.048-.08.075.075,0,0,1,.072-.064,11.378,11.378,0,0,0,4.07-2.182l.024-.016Zm.182-2.663a25.357,25.357,0,0,1-5.143,1.995,14.928,14.928,0,0,1-5.3.743,2.954,2.954,0,0,1-1.76-.8c-.018-.027-.045-.054-.032-.08a.088.088,0,0,1,.075-.075l.42-.027c.9-.059,2.522-.1,4.412-.358a45.676,45.676,0,0,0,7.3-1.492c.04,0,.07.032.027.091m.163.9a.056.056,0,0,1,.04.08,6.915,6.915,0,0,1-1.471,1.278,15.915,15.915,0,0,1-2.23,1.235,13.944,13.944,0,0,1-2.364.894,6.772,6.772,0,0,1-2.27.235,2.6,2.6,0,0,1-1.257-.449.234.234,0,0,1-.024-.064.127.127,0,0,1,.091-.07,33.449,33.449,0,0,0,5.428-1.31,17.606,17.606,0,0,0,4.057-1.829m8.643-7.5c.037.011.05.032.037.1-.783.62-4.361,3.455-6.292,4.958l-.061.059c-.561.4-.939.492-.992-.39-.024-.209-.05-.38-.05-.38-.035-.193.021-.187.1-.23.618-.369,1.832-1,2.782-1.551,1.716-.968,3.711-2.118,4.482-2.562m-2.637,3.781c.035.005.061.032.045.091-.776.845-3.624,3.835-4.926,5.14-.134.134-.2.07-.147-.059a8.9,8.9,0,0,0,.356-1.032,1.008,1.008,0,0,1,.284-.62c1.669-1.343,3.284-2.675,4.346-3.5ZM263.5-113.1c.016,0,.067-.005.072.021s.043.038-.008.075c-.372.225-8.373,3.364-8.445,3.39a.95.95,0,0,1-1.278-.358c-.158-.236-.294-.433-.342-.519-.027-.043-.118-.134.118-.187,0,0,2.255-.572,4.263-1.059,2.308-.551,4.934-1.182,5.621-1.364m.84-1.086a.058.058,0,0,1,.053.059s-.021.043-.048.043c-.607.091-11.729,1.54-11.812,1.546a1.121,1.121,0,0,1-.193.021,1.2,1.2,0,0,1-.193-.011,2.455,2.455,0,0,1-1.5-.765,2.5,2.5,0,0,1-.508-.77.05.05,0,0,1,.005-.069c.013-.032.048-.037.07-.043,0,0,3.736-.011,6.081,0,1.759,0,3.634,0,5.151,0,1.321,0,2.377,0,2.891-.011m.724-.936a.056.056,0,0,1,.046.059c0,.027-.032.037-.064.037-1.632-.112-16.257-1.086-16.257-1.086a1.764,1.764,0,0,1-.379-.059,3.115,3.115,0,0,1-2.1-2.059.073.073,0,0,1,0-.091.089.089,0,0,1,.091-.037s17.24,2.984,18.663,3.236m-3.032-2.7c.011.07-.014.091-.072.075-.626-.3-2.04-.946-3.474-1.62-1.2-.572-9.445-4.263-10-4.541l-.982-.481a3.348,3.348,0,0,1-.414-.219,2.814,2.814,0,0,1-.8-.653,3.466,3.466,0,0,1-.423-.722,3.959,3.959,0,0,1-.209-1.434.073.073,0,0,1,.043-.059c.027-.016.053-.016.1,0l1.029.594.556.321L250.4-124.8c4.207,2.5,10.1,6.065,11.633,6.98m1.794,1.615a.059.059,0,0,1,.037.048.069.069,0,0,1-.083.048c-.463-.134-1.441-.385-2.677-.706-2.824-.738-13.5-3.466-13.681-3.514l-.048-.016a3.476,3.476,0,0,1-1.575-.9,2.21,2.21,0,0,1-.324-.4,3.247,3.247,0,0,1-.463-1.412.128.128,0,0,1,.024-.064c.008-.022.054-.032.1-.016l1.749.653c4.15,1.524,15.144,5.594,16.938,6.284" transform="translate(-105.948 -6.428)" fill="#8b8b8b" fill-rule="evenodd"/><text transform="translate(83.106 -133.459)" fill="#8b8b8b" font-size="5" font-family="Helvetica"><tspan x="0" y="0">Respaldado por:</tspan></text></g></svg>