<?xml version="1.0" encoding="UTF-8"?>
<svg width="72px" height="28px" viewBox="0 0 72 28" version="1.1" xmlns="http://www.w3.org/2000/svg" xmlns:xlink="http://www.w3.org/1999/xlink">
    <!-- Generator: Sketch 41 (35326) - http://www.bohemiancoding.com/sketch -->
    <title>Combined Shape</title>
    <desc>Created with Sketch.</desc>
    <defs></defs>
    <g id="Page-1" stroke="none" stroke-width="1" fill="none" fill-rule="evenodd">
        <g id="Artboard" transform="translate(-117.000000, -200.000000)" fill="#FFFFFF">
            <path d="M180.886373,225.939208 C180.313937,226.49196 179.512895,227.036475 178.424227,227.46411 C175.845821,228.490161 172.972878,228.07974 171.408452,225.344409 C171.299474,225.154093 171.194927,224.9526 171.094858,224.740895 C169.836514,226.045492 168.294534,227.196129 166.797258,227.196129 C164.829655,227.196129 163.405254,224.943646 163.139688,224.120391 C162.919993,224.649109 161.954298,227.017476 159.54006,227.017476 C154.339792,227.017476 155.146147,220.25761 156.795072,217.442609 C158.612993,214.342728 161.309696,213.198379 162.159508,212.956955 C163.016562,212.708289 164.308179,213.657084 163.270057,214.231673 C162.231935,214.806261 159.515917,216.049594 159.320364,221.305389 C159.250351,223.193323 159.827354,224.108319 160.334344,224.291801 C161.307282,224.641866 162.642355,222.271084 162.970692,220.252782 C163.337656,217.983398 163.014148,217.466751 163.154174,216.848707 C163.342484,216.01338 166.087473,216.059251 166.280612,216.798008 C166.473751,217.536764 165.686709,224.839833 167.618099,225.020901 C168.504637,225.098041 169.488361,224.301052 170.462435,223.086083 C168.80892,217.738733 169.181007,208.885679 172.012012,205.465576 C174.718372,202.196698 177.477846,203.10928 178.402499,204.135331 C181.690691,207.778416 174.846327,219.943759 173.827519,221.100179 C173.827519,221.257105 174.237939,224.900189 176.1814,225.667917 C177.280683,226.102311 178.605845,225.588008 179.658177,224.879522 C178.872611,223.938009 178.325217,222.583802 178.247988,220.68493 C178.052435,215.856455 180.242148,213.367376 184.117,213.666741 C188.310531,213.980592 189.256912,217.720246 188.945475,220.629403 L188.952718,220.629403 C188.551954,224.29663 186.466053,226.776052 184.02043,226.776052 C183.007847,226.776052 181.877311,226.545941 180.886373,225.939208 Z M150.023135,213.174237 C150.023135,215.711601 150.341814,223.178838 150.390099,224.854319 C150.423898,226.061438 150.230759,227.473767 151.886926,227.473767 C153.835216,227.473767 153.786931,225.288882 153.786931,224.286973 C153.786931,223.285064 153.830388,214.096476 153.786931,212.606891 C154.496717,212.474108 157.611084,212.148186 157.611084,210.77207 C157.611084,209.395955 154.407391,209.970543 153.654148,210.047799 C153.63242,209.603579 153.453767,206.551983 153.453767,205.608016 C153.453767,204.425039 153.144744,203.633169 151.551347,203.336218 C149.95795,203.039267 149.837239,204.215001 149.813096,204.446768 C149.791368,204.688189 149.813096,210.337422 149.813096,210.337507 C149.125038,210.494433 146.058957,210.129883 146.433163,212.338911 C146.643202,213.613628 149.330249,213.268392 150.023135,213.174237 Z M126.90198,212.997997 C129.316218,212.604477 133.203141,209.482867 132.517497,204.789589 C131.831854,200.096311 126.481903,199.347897 122.918488,200.443961 C119.849992,201.380686 116.361419,204.383997 117.100175,206.962403 C117.315043,207.703574 117.604751,207.944998 118.836012,207.976383 C120.067274,208.007768 122.38977,206.689594 122.855718,206.177776 C123.321666,205.665958 122.751906,204.473324 122.592566,203.920464 C122.46944,203.246891 122.848475,203.048924 123.377193,203.174464 L129.719396,204.806489 C129.886313,204.83681 130.025072,204.952506 130.084911,205.111252 C130.14475,205.269997 130.116888,205.4485 130.011519,205.581459 L126.537431,210.600659 C126.411271,210.820284 126.179549,210.95805 125.926338,210.963973 C125.673127,210.969896 125.435217,210.843115 125.298927,210.62963 C124.721924,209.531152 124.632597,209.272829 123.92764,208.992777 C123.222682,208.712726 121.25025,209.864317 120.426995,210.661015 C118.312123,212.701046 119.219876,223.866896 120.185571,226.015567 C120.844658,227.46411 122.841233,227.903501 123.635517,226.14835 C124.429801,224.393199 122.341485,215.822656 124.086979,214.912488 C125.202357,214.330657 125.776946,214.951116 126.41189,215.769542 C127.599695,217.31224 132.305044,224.096248 133.239354,224.972616 C134.173664,225.848985 135.445968,227.169573 136.78587,226.16525 C137.865034,225.35648 137.471513,224.214546 137.027293,223.268165 C134.994641,218.740192 131.400625,215.09476 126.90198,212.997997 L126.90198,212.997997 Z M146.932911,209.152117 C146.997963,209.248418 147.018298,209.368105 146.988699,209.480487 C146.959101,209.592869 146.882449,209.687013 146.778399,209.738777 C146.466963,209.919844 142.538998,212.058859 141.189439,212.778302 C141.049539,212.848267 140.887027,212.85764 140.740012,212.804221 C140.592996,212.750802 140.474407,212.639291 140.412055,212.495836 C140.076476,211.771565 139.71434,211.095578 139.36669,210.458219 C139.295048,210.329854 139.282059,210.176881 139.331033,210.038275 C139.380008,209.899668 139.486216,209.788811 139.622599,209.733948 C140.317899,209.432168 144.866323,207.696331 145.568866,207.471807 C145.680876,207.417638 145.810469,207.412926 145.926116,207.458818 C146.041764,207.50471 146.132865,207.596999 146.177254,207.713231 C146.450063,208.181593 146.696315,208.659612 146.937739,209.161774 L146.932911,209.152117 Z M148.393524,220.629403 C148.012075,224.29663 145.926173,226.776052 143.461237,226.776052 C140.9963,226.776052 137.881933,225.433736 137.688794,220.68493 C137.493241,215.856455 139.682955,213.367376 143.557806,213.666741 C147.770651,213.980592 148.717032,217.720246 148.405596,220.629403 L148.393524,220.629403 Z M143.461237,225.271982 C145.455397,225.313024 147.369888,219.192931 145.60508,216.740066 C144.530744,215.245653 142.623496,215.458106 141.983723,217.222913 C141.380164,218.946679 141.317394,225.228526 143.461237,225.271982 Z M173.494354,218.164466 C174.071357,217.198771 179.771372,205.480061 175.927905,204.857188 C172.012012,206.547154 173.405027,217.1867 173.494354,218.164466 Z M184.02043,225.271982 C186.01459,225.313024 187.929081,219.192931 186.164273,216.740066 C185.089937,215.245653 183.18269,215.458106 182.542917,217.222913 C181.920043,218.946679 181.847616,225.228526 184.02043,225.271982 Z" id="Combined-Shape"></path>
        </g>
    </g>
</svg>