<?xml version="1.0" encoding="UTF-8" standalone="no"?>
<svg width="53px" height="40px" viewBox="0 0 53 40" version="1.1" xmlns="http://www.w3.org/2000/svg" xmlns:xlink="http://www.w3.org/1999/xlink">
    <!-- Generator: Sketch 39.1 (31720) - http://www.bohemiancoding.com/sketch -->
    <title>Page 1</title>
    <desc>Created with Sketch.</desc>
    <defs></defs>
    <g id="Page-1" stroke="none" stroke-width="1" fill="none" fill-rule="evenodd">
        <g id="Group-Copy-3" fill="#FEFEFE">
            <g id="Page-1">
                <g id="Group-3" transform="translate(0.000000, 0.572908)">
                    <path d="M47.6909247,8.33653699 C46.6527055,8.33653699 45.7836507,7.47619452 45.7836507,6.42490685 C45.7836507,5.39903014 46.6527055,4.53650959 47.6909247,4.53650959 C48.7472945,4.53650959 49.6003767,5.37579726 49.6003767,6.42490685 C49.6003767,7.47619452 48.7472945,8.33653699 47.6909247,8.33653699 L47.6909247,8.33653699 Z M33.0455,22.0468384 L32.8944863,20.3101808 L32.8175274,20.3101808 C32.4000616,21.0608932 31.3524041,22.3212767 29.361637,22.3212767 C27.0913493,22.3212767 25.4715822,20.7566877 25.4715822,16.9595644 L25.4715822,9.74430411 L28.9115,9.74430411 L28.9115,16.3598658 C28.9115,18.1437151 29.4248014,19.227674 30.6459795,19.227674 C31.6036096,19.227674 32.1611986,18.4958384 32.3768288,17.8968658 C32.4566918,17.6688932 32.4995274,17.400263 32.4995274,17.0619342 L32.4995274,9.74430411 L35.9503356,9.74430411 L35.9503356,18.1052356 C35.9503356,19.7054 36.0011575,21.0122493 36.0381849,22.0468384 L33.0455,22.0468384 Z M18.9765411,22.3212767 C17.5223082,22.3212767 16.2336096,21.9451945 15.3979521,21.4406055 L16.005637,18.7274411 C16.641637,19.1550712 17.9484863,19.6298932 18.9765411,19.6298932 C20.0176644,19.6298932 20.4438425,19.2436466 20.4438425,18.6214411 C20.4438425,17.9709205 20.0917192,17.6688932 18.8313356,17.1831808 C16.5283767,16.3598658 15.6426233,14.9528247 15.6636781,13.5218247 C15.6636781,11.2108795 17.4330068,9.46623562 20.1650479,9.46623562 C21.4668151,9.46623562 22.5936096,9.81763288 23.2702671,10.1944411 L22.6879932,12.8139479 C22.1921164,12.5366055 21.2177877,12.1336603 20.2862945,12.1336603 C19.4484589,12.1336603 18.9765411,12.5075644 18.9765411,13.1108932 C18.9765411,13.7193041 19.4070753,14.0177014 20.7582123,14.5513315 C22.8695,15.3274548 23.7233082,16.5333863 23.743637,18.3186877 C23.743637,20.633989 22.1441986,22.3212767 18.9765411,22.3212767 L18.9765411,22.3212767 Z M49.1241027,2.46878356 C48.5215,0.923071233 47.700363,-0.123860274 45.3001164,0.21809863 C40.3195685,0.96300274 35.6497603,1.81826301 28.3466507,3.27612603 C24.7085274,3.97311233 20.8961575,4.77029041 16.5762945,5.70904384 C12.2244863,6.6434411 7.74344521,7.62720822 2.73821233,8.89630411 C0.655965753,9.45607123 -0.495513699,11.3524548 0.205828767,13.4942356 C1.85100685,18.1792904 3.52522603,23.2019479 4.99543151,28.3777973 C5.70766438,30.6567973 7.8175,31.8111808 9.9375,31.1563041 C19.8310753,27.8049616 27.7658288,25.0656603 34.7458562,22.6066055 C36.1681438,22.1136329 37.4873356,21.6359068 38.7811164,21.1850438 L38.7811164,12.5627425 L37.3036507,12.5627425 L37.3036507,9.74430411 L38.7811164,9.74430411 L38.7811164,9.26948219 C38.7811164,7.77676986 39.1833356,6.15482466 40.1569384,5.15218082 C41.0383356,4.23012603 42.2159521,3.90776986 43.2374726,3.90776986 C43.9816507,3.90776986 44.5690068,4.03482466 45.0409247,4.15824932 L44.9175,7.10374247 C44.6205548,6.99846849 44.2502808,6.92949589 43.8030479,6.92949589 C42.6581027,6.92949589 42.1948973,7.90963288 42.1948973,9.11774247 L42.1948973,9.74430411 L44.413637,9.74430411 L44.413637,12.5627425 L42.2159521,12.5627425 L42.2159521,19.9624137 C42.851226,19.7402493 43.4763356,19.518811 44.1137877,19.2915644 C44.784637,19.0563315 45.3894178,18.8450575 45.9542671,18.6403178 L45.9542671,9.95775616 C47.462226,9.76172877 47.4455274,9.83287945 49.2155822,9.88370137 L49.2155822,17.4823041 C49.7782534,17.2826466 50.3539932,17.0793589 50.9631301,16.8521123 C52.8798425,16.1246329 53.0722397,14.6827425 52.6540479,13.0615233 C51.5809795,9.41976986 50.4476507,5.94355068 49.1241027,2.46878356 L49.1241027,2.46878356 Z" id="Fill-1"></path>
                </g>
                <path d="M6.65549315,38.5581534 C6.65549315,39.5361123 6.00860274,39.7786055 5.49893151,39.7786055 C4.97619178,39.7786055 4.33365753,39.5361123 4.33365753,38.5581534 L4.33365753,36.0504548 L4.72353425,36.0504548 L4.72353425,38.2895233 C4.72353425,38.8601808 4.76128767,39.4119616 5.49893151,39.4119616 C6.22641096,39.4119616 6.27069863,38.8601808 6.27069863,38.2895233 L6.27069863,36.0504548 L6.65549315,36.0504548 L6.65549315,38.5581534 Z" id="Fill-4"></path>
                <path d="M7.49920959,39.7025178 L7.13256575,39.7025178 L7.13256575,37.1127781 L7.49920959,37.1127781 L7.49920959,37.376326 C7.71701781,37.2064356 7.91740137,37.0387233 8.20999041,37.0387233 C8.57953836,37.0387233 8.8721274,37.2369288 8.8721274,37.9121342 L8.8721274,39.7025178 L8.50693562,39.7025178 L8.50693562,38.0079699 C8.50693562,37.7378877 8.55557945,37.3356685 8.16497671,37.3356685 C7.93773014,37.3356685 7.6451411,37.5578329 7.49920959,37.7349836 L7.49920959,39.7025178 Z" id="Fill-7"></path>
                <path d="M10.6238137,38.2894507 C10.2789507,38.3939986 9.64512877,38.5333959 9.64512877,39.0002315 C9.64512877,39.2136836 9.81066301,39.4314918 10.0335534,39.4314918 C10.3239644,39.4314918 10.5925945,39.2274781 10.7704712,39.0060397 L10.7704712,38.245889 L10.6238137,38.2894507 Z M10.8096767,39.7023 L10.7704712,39.3734096 C10.5599233,39.5796014 10.3239644,39.7785329 10.021211,39.7785329 C9.62262192,39.7785329 9.30316986,39.4452863 9.30316986,39.0358068 C9.30316986,38.2930808 10.0800192,38.1355329 10.6550329,37.980163 L10.7704712,37.9467658 L10.7704712,37.7979301 C10.7704712,37.5060671 10.5679096,37.3477932 10.2789507,37.3477932 C9.99289589,37.3477932 9.79396438,37.5322041 9.64512877,37.7572726 L9.38448493,37.5605192 C9.60592329,37.2534096 9.88471781,37.0392315 10.2789507,37.0392315 C10.6281699,37.0392315 11.1371151,37.2534096 11.1371151,37.8436699 L11.1371151,39.1301904 C11.1436493,39.3218616 11.1313068,39.5193411 11.2053616,39.7023 L10.8096767,39.7023 Z" id="Fill-9"></path>
                <path d="M13.2797671,39.7025178 L12.9094932,39.7025178 L12.9094932,37.1127781 L13.2797671,37.1127781 L13.2797671,37.3385726 C13.5062877,37.1614219 13.6921507,37.0387233 13.9999863,37.0387233 C14.2758767,37.0387233 14.4827945,37.1541616 14.6185616,37.3886685 C14.8617808,37.1948192 15.0883014,37.0416274 15.4128356,37.0387233 C15.7802055,37.0387233 16.0764247,37.2369288 16.0764247,37.9121342 L16.0764247,39.7025178 L15.7105068,39.7025178 L15.7105068,38.0079699 C15.7105068,37.7378877 15.7555205,37.3356685 15.3685479,37.3356685 C15.1013699,37.3327644 14.8291096,37.5157233 14.6795479,37.6790795 L14.6795479,39.7025178 L14.3121781,39.7025178 L14.3121781,38.0079699 C14.3121781,37.7378877 14.3579178,37.3356685 13.9680411,37.3356685 C13.6551233,37.348737 13.4649041,37.5128192 13.2797671,37.6790795 L13.2797671,39.7025178 Z" id="Fill-12"></path>
                <path d="M17.8273849,38.2894507 C17.4781658,38.3939986 16.8443438,38.5333959 16.8443438,39.0002315 C16.8443438,39.2136836 17.0106041,39.4314918 17.2342205,39.4314918 C17.5260836,39.4314918 17.7925356,39.2274781 17.9725904,39.0060397 L17.9725904,38.245889 L17.8273849,38.2894507 Z M18.0074397,39.7023 L17.9725904,39.3734096 C17.7598644,39.5796014 17.5260836,39.7785329 17.2226041,39.7785329 C16.8174808,39.7785329 16.503837,39.4452863 16.503837,39.0358068 C16.503837,38.2930808 17.2799603,38.1355329 17.8542479,37.980163 L17.9725904,37.9467658 L17.9725904,37.7979301 C17.9725904,37.5060671 17.7707548,37.3477932 17.4781658,37.3477932 C17.1892068,37.3477932 16.9931795,37.5322041 16.8443438,37.7572726 L16.5866041,37.5605192 C16.8022342,37.2534096 17.086111,37.0392315 17.4781658,37.0392315 C17.828837,37.0392315 18.3392342,37.2534096 18.3392342,37.8436699 L18.3392342,39.1301904 C18.3414123,39.3218616 18.331974,39.5193411 18.4082068,39.7023 L18.0074397,39.7023 Z" id="Fill-14"></path>
                <path d="M19.2113384,37.6705123 L19.2207767,37.6705123 C19.3630781,37.3604986 19.5525712,37.0773479 19.9373658,37.0773479 L20.0803932,37.0773479 L20.0803932,37.4069644 C19.6019411,37.3394438 19.3485575,37.8592795 19.2113384,38.2331836 L19.2113384,39.702663 L18.8439685,39.702663 L18.8439685,37.1114712 L19.2113384,37.1114712 L19.2113384,37.6705123 Z" id="Fill-17"></path>
                <path d="M21.7857589,37.8356836 C21.6986356,37.5960945 21.5585123,37.3361767 21.2651973,37.3477932 C20.702526,37.3477932 20.595074,37.9641904 20.595074,38.404889 C20.595074,38.8477658 20.702526,39.4656151 21.2651973,39.4656151 C21.5802932,39.4547247 21.7603479,39.2013411 21.8707041,38.9486836 L22.1669233,39.0815466 C22.0202658,39.4750534 21.681211,39.7785329 21.2651973,39.7785329 C20.6894575,39.7785329 20.2277041,39.3799438 20.2277041,38.404889 C20.2277041,37.4334644 20.6894575,37.0392315 21.2651973,37.0392315 C21.6979096,37.0392315 21.9563753,37.3035055 22.1008548,37.6948342 L21.7857589,37.8356836 Z" id="Fill-19"></path>
                <path d="M23.8546466,38.2894507 C23.5068795,38.3939986 22.8723315,38.5333959 22.8723315,39.0002315 C22.8723315,39.2136836 23.0407699,39.4314918 23.2629342,39.4314918 C23.5533452,39.4314918 23.8219753,39.2274781 24.0005781,39.0060397 L24.0005781,38.245889 L23.8546466,38.2894507 Z M24.0347014,39.7023 L24.0005781,39.3734096 C23.787126,39.5796014 23.5533452,39.7785329 23.2469616,39.7785329 C22.8490986,39.7785329 22.5281945,39.4452863 22.5281945,39.0358068 C22.5281945,38.2930808 23.3072219,38.1355329 23.8822356,37.980163 L24.0005781,37.9467658 L24.0005781,37.7979301 C24.0005781,37.5060671 23.7943863,37.3477932 23.5068795,37.3477932 C23.2193726,37.3477932 23.0226192,37.5322041 22.8723315,37.7572726 L22.6102356,37.5605192 C22.8294959,37.2534096 23.1104685,37.0392315 23.5068795,37.0392315 C23.8582767,37.0392315 24.3657699,37.2534096 24.3657699,37.8436699 L24.3657699,39.1301904 C24.3715781,39.3218616 24.3599616,39.5193411 24.4332904,39.7023 L24.0347014,39.7023 Z" id="Fill-22"></path>
                <path d="M26.5318726,39.3742808 L26.9870918,39.3742808 C27.8757493,39.3742808 28.0296671,39.1049247 28.0296671,38.7048836 C28.0296671,38.2721712 27.8300096,37.9548973 27.0270233,37.9548973 L26.5318726,37.9548973 L26.5318726,39.3742808 Z M26.8781877,37.6231027 C27.3479274,37.6231027 27.9454479,37.631089 27.9454479,36.992911 C27.9454479,36.3503767 27.3769685,36.3794178 26.9035986,36.3794178 L26.5318726,36.3794178 L26.5318726,37.6231027 L26.8781877,37.6231027 Z M26.1485301,39.7024452 L26.1485301,36.0512534 L27.1533521,36.0512534 C28.0892014,36.0512534 28.3295164,36.5805274 28.3295164,36.992911 C28.3295164,37.3769795 28.1080781,37.684089 27.7276397,37.7821027 C28.1632562,37.9084315 28.4151877,38.2228014 28.4151877,38.6852808 C28.4151877,39.114363 28.2293247,39.7024452 27.2078041,39.7024452 L26.1485301,39.7024452 Z" id="Fill-25"></path>
                <path d="M30.1067589,38.2894507 C29.7582658,38.3939986 29.1237178,38.5333959 29.1237178,39.0002315 C29.1237178,39.2136836 29.2914301,39.4314918 29.5114164,39.4314918 C29.8090877,39.4314918 30.0719096,39.2274781 30.2519644,39.0060397 L30.2519644,38.245889 L30.1067589,38.2894507 Z M30.2926219,39.7023 L30.2519644,39.3734096 C30.0414164,39.5796014 29.8090877,39.7785329 29.500526,39.7785329 C29.101937,39.7785329 28.784663,39.4452863 28.784663,39.0358068 C28.784663,38.2930808 29.5586082,38.1355329 30.1328959,37.980163 L30.2519644,37.9467658 L30.2519644,37.7979301 C30.2519644,37.5067932 30.0472247,37.3477932 29.7582658,37.3477932 C29.472937,37.3477932 29.2740055,37.5322041 29.1237178,37.7572726 L28.8674301,37.5605192 C29.0808822,37.2534096 29.3654849,37.0392315 29.7582658,37.0392315 C30.108211,37.0392315 30.6164301,37.2534096 30.6164301,37.8436699 L30.6164301,39.1301904 C30.6273205,39.3218616 30.6106219,39.5193411 30.6875808,39.7023 L30.2926219,39.7023 Z" id="Fill-27"></path>
                <path d="M31.4814918,39.7025178 L31.115574,39.7025178 L31.115574,37.1127781 L31.4814918,37.1127781 L31.4814918,37.376326 C31.6942178,37.2064356 31.8967795,37.0387233 32.1944507,37.0387233 C32.5581904,37.0387233 32.8573137,37.2369288 32.8573137,37.9121342 L32.8573137,39.7025178 L32.4899438,39.7025178 L32.4899438,38.0079699 C32.4899438,37.7378877 32.5378616,37.3356685 32.149437,37.3356685 C31.9236425,37.3356685 31.6310534,37.5578329 31.4814918,37.7349836 L31.4814918,39.7025178 Z" id="Fill-30"></path>
                <path d="M34.835811,37.8356836 C34.7465096,37.5968205 34.6078384,37.3361767 34.3181534,37.3477932 C33.7533041,37.3477932 33.645126,37.9641904 33.645126,38.404889 C33.645126,38.8477658 33.7533041,39.4656151 34.3181534,39.4656151 C34.6325233,39.4547247 34.811126,39.2013411 34.9214822,38.9486836 L35.2155233,39.0815466 C35.0703178,39.4750534 34.7327151,39.7785329 34.3181534,39.7785329 C33.7380575,39.7785329 33.2770301,39.3799438 33.2770301,38.404889 C33.2770301,37.4334644 33.7380575,37.0392315 34.3181534,37.0392315 C34.7436055,37.0392315 35.0064274,37.3035055 35.1494548,37.6948342 L34.835811,37.8356836 Z" id="Fill-32"></path>
                <path d="M37.2840479,38.4050342 C37.2840479,37.9643356 37.1736918,37.3479384 36.6102945,37.3479384 C36.0468973,37.3479384 35.9408973,37.9643356 35.9408973,38.4050342 C35.9408973,38.8471849 36.0468973,39.4657603 36.6102945,39.4657603 C37.1736918,39.4657603 37.2840479,38.8471849 37.2840479,38.4050342 M35.5742534,38.4050342 C35.5742534,37.4328836 36.0345548,37.0393767 36.6102945,37.0393767 C37.1867603,37.0393767 37.6514178,37.4328836 37.6514178,38.4050342 C37.6514178,39.380089 37.1867603,39.7786781 36.6102945,39.7786781 C36.0345548,39.7786781 35.5742534,39.380089 35.5742534,38.4050342" id="Fill-35"></path>
                <polygon id="Fill-38" points="38.0837671 39.7028808 38.4453288 39.7028808 38.4453288 36.050963 38.0837671 36.050963"></polygon>
                <path d="M40.5887795,38.4050342 C40.5887795,37.9643356 40.4784233,37.3479384 39.9193822,37.3479384 C39.3530808,37.3479384 39.2463548,37.9643356 39.2463548,38.4050342 C39.2463548,38.8471849 39.3530808,39.4657603 39.9193822,39.4657603 C40.4784233,39.4657603 40.5887795,38.8471849 40.5887795,38.4050342 M38.8789849,38.4050342 C38.8789849,37.4328836 39.3356562,37.0393767 39.9193822,37.0393767 C40.4943959,37.0393767 40.9539712,37.4328836 40.9539712,38.4050342 C40.9539712,39.380089 40.4943959,39.7786781 39.9193822,39.7786781 C39.3356562,39.7786781 38.8789849,39.380089 38.8789849,38.4050342" id="Fill-40"></path>
                <path d="M41.7451233,39.7025178 L41.3755753,39.7025178 L41.3755753,37.1127781 L41.7451233,37.1127781 L41.7451233,37.3385726 C41.9716438,37.1614219 42.1596849,37.0387233 42.4595342,37.0387233 C42.7325205,37.0387233 42.9459726,37.1541616 43.0839178,37.3886685 C43.327863,37.1948192 43.5536575,37.0416274 43.8781918,37.0387233 C44.2433836,37.0387233 44.5388767,37.2369288 44.5388767,37.9121342 L44.5388767,39.7025178 L44.174411,39.7025178 L44.174411,38.0079699 C44.174411,37.7378877 44.2194247,37.3356685 43.8339041,37.3356685 C43.566726,37.3327644 43.2951918,37.5157233 43.1376438,37.6790795 L43.1376438,39.7025178 L42.7746301,39.7025178 L42.7746301,38.0079699 C42.7746301,37.7378877 42.8203699,37.3356685 42.4319452,37.3356685 C42.1168493,37.348737 41.9295342,37.5128192 41.7451233,37.6790795 L41.7451233,39.7025178 Z" id="Fill-41"></path>
                <path d="M45.4072055,38.975111 C45.5066712,39.1965493 45.7556986,39.4593712 46.0127123,39.4593712 C46.2639178,39.4593712 46.6305616,39.2096178 46.6305616,38.4501932 C46.6305616,38.0603164 46.5194795,37.3567959 46.0090822,37.3567959 C45.7288356,37.3567959 45.5139315,37.5477411 45.4072055,37.7764397 L45.4072055,38.975111 Z M45.4072055,39.7025904 L45.0362055,39.7025904 L45.0362055,36.0513986 L45.4072055,36.0513986 L45.4072055,37.3763986 C45.5712877,37.1977959 45.7992603,37.0387959 46.0519178,37.0387959 C46.4976986,37.0387959 47.0124521,37.4431932 47.0124521,38.4581795 C47.0124521,39.4550151 46.4156575,39.7780973 46.0664384,39.7780973 C45.7774795,39.7780973 45.579274,39.6241795 45.4072055,39.4041932 L45.4072055,39.7025904 Z" id="Fill-42"></path>
                <path d="M47.4509726,39.7028808 L47.8147123,39.7028808 L47.8147123,37.1124151 L47.4509726,37.1124151 L47.4509726,39.7028808 Z M47.4509726,36.4546342 L47.8147123,36.4546342 L47.8147123,36.050963 L47.4509726,36.050963 L47.4509726,36.4546342 Z" id="Fill-43"></path>
                <path d="M49.5762,38.2894507 C49.2291589,38.3939986 48.594611,38.5333959 48.594611,39.0002315 C48.594611,39.2136836 48.7652274,39.4314918 48.9859397,39.4314918 C49.2763507,39.4314918 49.5406247,39.2274781 49.7185014,39.0060397 L49.7185014,38.245889 L49.5762,38.2894507 Z M49.761337,39.7023 L49.7185014,39.3734096 C49.5115836,39.5796014 49.2763507,39.7785329 48.9706932,39.7785329 C48.5728301,39.7785329 48.251926,39.4452863 48.251926,39.0358068 C48.251926,38.2930808 49.0324055,38.1355329 49.603789,37.980163 L49.7185014,37.9467658 L49.7185014,37.7979301 C49.7185014,37.5067932 49.5202959,37.3477932 49.2291589,37.3477932 C48.9423781,37.3477932 48.7470767,37.5322041 48.594611,37.7572726 L48.3368712,37.5605192 C48.5525014,37.2534096 48.8363781,37.0392315 49.2291589,37.0392315 C49.5798301,37.0392315 50.0895014,37.2534096 50.0895014,37.8436699 L50.0895014,39.1301904 C50.0938575,39.3218616 50.080063,39.5193411 50.158474,39.7023 L49.761337,39.7023 Z" id="Fill-44"></path>
            </g>
        </g>
    </g>
</svg>