<svg xmlns="http://www.w3.org/2000/svg" width="71.707" height="32.635" viewBox="0 0 71.707 32.635"><path d="M149,602.335l-.012,4-.673,0,.012-4.005a1.135,1.135,0,0,0-.436-1,2.138,2.138,0,0,0-1.232-.312,3.12,3.12,0,0,0-.681.069,1.427,1.427,0,0,0-.525.217,1.009,1.009,0,0,0-.344.4,1.384,1.384,0,0,0-.125.616l-.012,4.005-.673,0,.012-4.005a1.137,1.137,0,0,0-.43-1,2.164,2.164,0,0,0-1.238-.308,3.439,3.439,0,0,0-.68.061,1.419,1.419,0,0,0-.521.212,1.081,1.081,0,0,0-.339.4,1.435,1.435,0,0,0-.125.627l-.012,4.006-.672,0,.012-4a2.018,2.018,0,0,1,.184-.895,1.646,1.646,0,0,1,.5-.612,2,2,0,0,1,.743-.347,3.692,3.692,0,0,1,.918-.106,3.565,3.565,0,0,1,1.157.184,1.8,1.8,0,0,1,.846.622,1.868,1.868,0,0,1,.816-.605,3.269,3.269,0,0,1,1.2-.189,3.586,3.586,0,0,1,.93.117,2.129,2.129,0,0,1,.742.355,1.628,1.628,0,0,1,.489.616,2.056,2.056,0,0,1,.175.886" transform="translate(-140.293 -573.997)" fill="#00aec7"/><path d="M244.854,585.125l-.672,0,0-.654.672,0Zm-.021,6.892-.672,0,.018-5.881.672,0Z" transform="translate(-233.97 -559.675)" fill="#00aec7"/><path d="M268.362,605.024a1.4,1.4,0,0,1-.21.783,1.564,1.564,0,0,1-.573.512,2.721,2.721,0,0,1-.851.279,6.094,6.094,0,0,1-1.031.079,4.965,4.965,0,0,1-1.729-.265,1.585,1.585,0,0,1-.938-.793l.588-.32a.757.757,0,0,0,.191.255,1.349,1.349,0,0,0,.383.236,2.789,2.789,0,0,0,.614.166,5.27,5.27,0,0,0,.892.067,3.738,3.738,0,0,0,1.479-.222.787.787,0,0,0,.511-.778.863.863,0,0,0-.149-.511,1.057,1.057,0,0,0-.415-.337,2.354,2.354,0,0,0-.631-.18,5.737,5.737,0,0,0-.79-.054,6.645,6.645,0,0,1-.977-.076,3.042,3.042,0,0,1-.854-.257,1.557,1.557,0,0,1-.608-.5,1.347,1.347,0,0,1-.227-.808,1.457,1.457,0,0,1,.2-.79,1.492,1.492,0,0,1,.568-.518,2.729,2.729,0,0,1,.851-.284,5.816,5.816,0,0,1,1.053-.085,4.056,4.056,0,0,1,1.681.308,1.925,1.925,0,0,1,.975.939l-.6.31a1.1,1.1,0,0,0-.7-.678,3.67,3.67,0,0,0-1.355-.224,3.9,3.9,0,0,0-1.47.22.818.818,0,0,0-.531.812.728.728,0,0,0,.143.466,1.019,1.019,0,0,0,.411.3,2.319,2.319,0,0,0,.63.164,6.105,6.105,0,0,0,.812.05,5.34,5.34,0,0,1,1.052.1,2.773,2.773,0,0,1,.843.309,1.613,1.613,0,0,1,.56.536,1.488,1.488,0,0,1,.2.793" transform="translate(-250.988 -574.242)" fill="#00aec7"/><path d="M347.869,580.549a2.324,2.324,0,0,1-.795.893,3.543,3.543,0,0,1-1.231.488,7.659,7.659,0,0,1-1.586.147,7.487,7.487,0,0,1-1.61-.164,3.613,3.613,0,0,1-1.228-.5,2.351,2.351,0,0,1-.783-.852,2.538,2.538,0,0,1-.275-1.229,2.393,2.393,0,0,1,.15-.818,1.886,1.886,0,0,1,.485-.726,2.548,2.548,0,0,1,.873-.521,3.712,3.712,0,0,1,1.316-.2l4,.012,0-1.031a1.519,1.519,0,0,0-.806-1.419,2.954,2.954,0,0,0-.917-.322,6.382,6.382,0,0,0-1.15-.1c-1.392,0-2.314.331-2.774,1.009l-.868-.429a2.9,2.9,0,0,1,1.372-1.164,5.86,5.86,0,0,1,2.274-.371,6.731,6.731,0,0,1,1.531.172,3.743,3.743,0,0,1,1.219.513,2.392,2.392,0,0,1,1.1,2.117l-.01,3.154a2.927,2.927,0,0,1-.285,1.34m-4.688-2.522a3.362,3.362,0,0,0-.686.067,1.9,1.9,0,0,0-.582.218,1.124,1.124,0,0,0-.572,1.035,1.493,1.493,0,0,0,.223.854,1.65,1.65,0,0,0,.621.542,3,3,0,0,0,.931.292,7.3,7.3,0,0,0,1.145.088,4.355,4.355,0,0,0,2.171-.428,1.579,1.579,0,0,0,.745-1.482l0-1.173Z" transform="translate(-320.732 -549.56)" fill="gray"/><rect width="10.99" height="0.981" transform="translate(29.28 32.398) rotate(-89.827)" fill="gray"/><path d="M472.1,551.01l-.979,0,0-.955.979,0Zm-.03,10.036-.979,0,.026-8.564.979,0Z" transform="translate(-438.634 -528.634)" fill="gray"/><path d="M505.312,581.024a2.342,2.342,0,0,1-.8.893,3.532,3.532,0,0,1-1.231.487,7.653,7.653,0,0,1-1.587.147,7.488,7.488,0,0,1-1.61-.164,3.592,3.592,0,0,1-1.227-.5,2.343,2.343,0,0,1-.783-.852,2.522,2.522,0,0,1-.276-1.229,2.432,2.432,0,0,1,.148-.818,1.894,1.894,0,0,1,.486-.726,2.554,2.554,0,0,1,.872-.521,3.718,3.718,0,0,1,1.315-.2l4,.012,0-1.031a1.515,1.515,0,0,0-.8-1.419,2.962,2.962,0,0,0-.917-.322,6.37,6.37,0,0,0-1.151-.1q-2.083-.006-2.772,1.01l-.868-.429a2.878,2.878,0,0,1,1.371-1.164,5.864,5.864,0,0,1,2.272-.371,6.737,6.737,0,0,1,1.532.172,3.75,3.75,0,0,1,1.221.513,2.4,2.4,0,0,1,1.1,2.117l-.01,3.154a2.95,2.95,0,0,1-.285,1.34m-4.691-2.522a3.353,3.353,0,0,0-.684.067,1.944,1.944,0,0,0-.584.218,1.13,1.13,0,0,0-.571,1.035,1.491,1.491,0,0,0,.224.854,1.645,1.645,0,0,0,.619.542,3.035,3.035,0,0,0,.935.292,7.253,7.253,0,0,0,1.143.088,4.347,4.347,0,0,0,2.17-.428,1.578,1.578,0,0,0,.744-1.482l0-1.173Z" transform="translate(-462.727 -549.989)" fill="gray"/><path d="M604.07,558.873a2.729,2.729,0,0,1-.3,1.32,2.479,2.479,0,0,1-.827.891,3.764,3.764,0,0,1-1.238.506,7.175,7.175,0,0,1-1.532.152,6.474,6.474,0,0,1-1.6-.187,3.7,3.7,0,0,1-1.236-.541,2.549,2.549,0,0,1-.8-.9,2.667,2.667,0,0,1-.283-1.269l.009-3.044a2.779,2.779,0,0,1,.291-1.3,2.429,2.429,0,0,1,.813-.891,3.716,3.716,0,0,1,1.239-.512,7.064,7.064,0,0,1,1.587-.162,4.713,4.713,0,0,1,2.906.782l.009-3.076.98,0Zm-1.023-3.576a1.268,1.268,0,0,0-.332-.632,2.277,2.277,0,0,0-.866-.542,4.761,4.761,0,0,0-1.659-.233,6.9,6.9,0,0,0-1.156.088,2.914,2.914,0,0,0-.926.31,1.668,1.668,0,0,0-.628.583,1.7,1.7,0,0,0-.227.91l-.009,3.084a1.773,1.773,0,0,0,.207.9,1.607,1.607,0,0,0,.6.594,2.868,2.868,0,0,0,.926.328,6.5,6.5,0,0,0,1.194.1,6.372,6.372,0,0,0,1.185-.1,2.935,2.935,0,0,0,.922-.315,1.587,1.587,0,0,0,.6-.581,1.785,1.785,0,0,0,.212-.9l.009-3.1a3.165,3.165,0,0,0-.053-.5" transform="translate(-551.527 -529.166)" fill="gray"/><path d="M694.893,580.24l.009-3.075a2.464,2.464,0,0,1,1.009-2.121,4.892,4.892,0,0,1,2.887-.718,5.009,5.009,0,0,1,2.9.723,2.439,2.439,0,0,1,1.011,2.14l-.009,3.075a2.475,2.475,0,0,1-1.024,2.158,4.99,4.99,0,0,1-2.905.71,4.912,4.912,0,0,1-2.883-.728,2.486,2.486,0,0,1-1-2.165m6.829.033.009-3.084a3.662,3.662,0,0,0-.046-.5,1.239,1.239,0,0,0-.316-.632,2.182,2.182,0,0,0-.87-.542,5.008,5.008,0,0,0-1.7-.233,4.891,4.891,0,0,0-1.681.223,2.195,2.195,0,0,0-.864.536,1.239,1.239,0,0,0-.321.63,3.608,3.608,0,0,0-.049.5l-.009,3.084a3.531,3.531,0,0,0,.046.486,1.27,1.27,0,0,0,.317.639,2.2,2.2,0,0,0,.861.56,4.773,4.773,0,0,0,1.68.238,4.884,4.884,0,0,0,1.7-.228,2.177,2.177,0,0,0,.873-.554,1.269,1.269,0,0,0,.32-.637,3.545,3.545,0,0,0,.049-.485" transform="translate(-640.481 -550.526)" fill="gray"/><path d="M799.653,580.878a2.021,2.021,0,0,1-.308,1.14,2.252,2.252,0,0,1-.833.745,3.969,3.969,0,0,1-1.238.405,8.958,8.958,0,0,1-1.5.115,7.207,7.207,0,0,1-2.519-.388,2.3,2.3,0,0,1-1.365-1.155l.858-.467a1.1,1.1,0,0,0,.277.372,1.885,1.885,0,0,0,.559.343,4.015,4.015,0,0,0,.894.246,8.082,8.082,0,0,0,1.3.094,5.589,5.589,0,0,0,2.156-.319,1.154,1.154,0,0,0,.742-1.134,1.251,1.251,0,0,0-.215-.748,1.546,1.546,0,0,0-.606-.489,3.169,3.169,0,0,0-.917-.261,7.9,7.9,0,0,0-1.151-.079,9.294,9.294,0,0,1-1.424-.112,4.345,4.345,0,0,1-1.242-.375,2.291,2.291,0,0,1-.884-.729,1.952,1.952,0,0,1-.331-1.177,2.13,2.13,0,0,1,.3-1.152,2.2,2.2,0,0,1,.828-.754,4.18,4.18,0,0,1,1.238-.413,8.661,8.661,0,0,1,1.533-.124,5.951,5.951,0,0,1,2.449.448,2.827,2.827,0,0,1,1.419,1.368l-.872.452a1.612,1.612,0,0,0-1.024-.988,5.4,5.4,0,0,0-1.974-.324,5.607,5.607,0,0,0-2.14.321,1.183,1.183,0,0,0-.775,1.179,1.074,1.074,0,0,0,.209.68,1.487,1.487,0,0,0,.6.434,3.409,3.409,0,0,0,.919.238,8.962,8.962,0,0,0,1.181.073,7.676,7.676,0,0,1,1.532.148,4.04,4.04,0,0,1,1.227.449,2.329,2.329,0,0,1,.815.781,2.157,2.157,0,0,1,.291,1.157" transform="translate(-727.961 -550.649)" fill="gray"/><path d="M548.857,406.862a15.48,15.48,0,0,0-2.068-3.977,3.39,3.39,0,0,1-.363.019,3.471,3.471,0,0,1-3.445-3.225c-.013-.255,0-.44,0-.474-.125-.094-.253-.193-.393-.3a9.416,9.416,0,0,0-3.253-1.348l-.891.969c.082.078.161.158.237.239h-.005a4.842,4.842,0,0,1,1.211,2.129s0,.01,0,.014c.014.064.026.126.036.188,0,.016.005.033.006.048.008.053.014.106.018.157,0,.025,0,.049,0,.074,0,.043,0,.087,0,.13s0,.063,0,.094,0,.073-.007.108-.01.073-.016.11-.008.058-.014.086c-.011.051-.025.1-.04.15a.342.342,0,0,1-.011.038,37.321,37.321,0,0,1-1.842,4.37l-.012,0c-.577,1-1.074,1.9-1.478,2.562-.28.519.1.92.61.546.628-.445,1.481-.981,2.423-1.618a37.379,37.379,0,0,1,4.23-2.207l.016-.008a1.609,1.609,0,0,1,.2-.068c.03-.008.06-.016.091-.022l.085-.017a2.343,2.343,0,0,1,.317-.034,5.255,5.255,0,0,1,3.371,1.737,5.11,5.11,0,0,1,1,1.807c.077.172.24.105.241-.1a5.256,5.256,0,0,0-.256-2.172" transform="translate(-497.57 -391.099)" fill="#8ed32d"/><path d="M447.969,382.591h0a3.461,3.461,0,0,1-5.25.161c-.361.059-.729.113-1.125.146a6.536,6.536,0,0,0-2.826,1.418l-.464,1.351c1.561-.087,3.618.434,4.124,1.379.091.17.183.329.276.481a49.236,49.236,0,0,1,2.506,6.3c.193.7.6.768.742-.026a48.88,48.88,0,0,1,1.658-6.687c.06-.141.119-.284.175-.437.649-1.744,4.435-2.743,6.668-.979a12,12,0,0,0-6.48-3.11" transform="translate(-409.062 -377.603)" fill="gray"/><path d="M486.522,334.5a2.741,2.741,0,1,1-2.732-2.75,2.741,2.741,0,0,1,2.732,2.75" transform="translate(-447.61 -331.75)" fill="gray"/><path d="M616.4,391.091a2.741,2.741,0,1,1-2.733-2.749,2.742,2.742,0,0,1,2.733,2.749" transform="translate(-564.746 -382.79)" fill="#8ed32d"/><path d="M366.3,396.928a44.626,44.626,0,0,1-4.68-7.443s0-.009-.005-.013c-.019-.047-.037-.095-.052-.144-.006-.019-.01-.04-.016-.061s-.02-.069-.027-.1-.009-.047-.012-.071-.012-.067-.016-.1-.006-.051-.008-.077-.005-.068-.007-.1,0-.053,0-.08,0-.069,0-.1,0-.056,0-.083.005-.071.008-.109.005-.055.009-.084.01-.075.017-.112.009-.055.015-.083.015-.08.024-.12.012-.052.019-.079c.011-.047.024-.093.038-.141.005-.02.01-.04.016-.06.02-.067.043-.134.067-.2,0-.014.011-.028.016-.042.02-.054.04-.107.063-.161l.032-.074c.018-.043.038-.087.058-.129.013-.028.026-.054.039-.081s.041-.081.062-.123l.045-.083c.022-.04.044-.079.068-.119s.033-.056.049-.084l.073-.117c.018-.027.035-.055.054-.082s.052-.078.08-.116l.056-.079c.029-.04.06-.079.09-.118.018-.024.037-.048.057-.072.034-.043.069-.085.1-.128.017-.019.033-.04.049-.059.048-.055.1-.11.148-.163l.016-.017c.057-.06.115-.12.175-.177l.034-.031c.048-.047.1-.092.148-.136.019-.017.038-.032.058-.049.043-.037.087-.075.132-.11.021-.018.045-.035.067-.053.042-.034.086-.067.13-.1l.073-.051c.043-.031.088-.061.134-.092.024-.016.05-.033.075-.048q.069-.044.139-.085l.075-.044c.049-.027.1-.054.149-.08l.07-.037c.055-.028.111-.053.168-.078l.058-.026c.068-.03.137-.057.208-.083a.156.156,0,0,1,.023-.009,4.053,4.053,0,0,1,1.019-.229,6.541,6.541,0,0,0-.787.019.005.005,0,0,1,0,0l-.054.005-.106.009-.125.011-.18.021-.1.013-.155.021-.105.015-.253.041-.092.017-.2.039-.115.024-.232.052-.082.018c-.1.024-.2.051-.309.079l-.118.032c-.078.021-.157.045-.236.069l-.115.034c-.111.034-.224.071-.34.111l-.1.035q-.134.046-.271.1l-.127.049c-.106.041-.212.084-.32.129l-.061.024c-.124.053-.249.109-.375.168l-.125.059c-.1.047-.2.095-.3.146l-.109.056q-.2.1-.393.214l-.1.056c-.107.061-.213.125-.32.191-.04.024-.08.048-.12.073-.137.087-.275.176-.413.27s-.266.186-.4.284h0c0,.027,0,.056,0,.083a3.475,3.475,0,0,1-3.37,3.458c-.22.328-.42.655-.6.979q-.121.22-.23.438c-.018.036-.034.072-.052.108-.053.109-.106.217-.154.324-.022.048-.042.094-.062.142-.042.095-.084.19-.123.283l-.061.156c-.035.088-.071.176-.1.262l-.012.031a10.827,10.827,0,0,0-.376,1.188,12.327,12.327,0,0,0-.412,2.759c0,.207.16.274.239.1a5.214,5.214,0,0,1,1.265-2.078c.059-.06.118-.118.179-.174l.036-.033c.056-.052.112-.1.169-.151l.026-.022q.2-.168.409-.313c.012-.009.025-.017.038-.025q.087-.06.174-.114l.038-.025a4.818,4.818,0,0,1,.424-.231l.037-.017c.058-.027.117-.053.175-.076l.047-.02c.064-.025.127-.049.19-.07l.018-.007c.072-.023.142-.044.212-.062l.031-.009c.058-.014.115-.027.172-.037l.051-.009c.055-.01.109-.017.163-.024l.038,0c.067-.007.133-.01.2-.011h.016a1.668,1.668,0,0,1,.171.006l.049,0c.047,0,.094.011.139.02a.357.357,0,0,1,.045.009,1.667,1.667,0,0,1,.175.043l.032.011a44.148,44.148,0,0,1,7.783,3.954c.544.332.885-.1.564-.594" transform="translate(-332.124 -379.041)" fill="#00aec7"/><path d="M348.695,387.036a2.742,2.742,0,1,0-2.733-2.75,2.741,2.741,0,0,0,2.733,2.75" transform="translate(-325.784 -376.667)" fill="#00aac7"/><path d="M351.444,384.31a2.741,2.741,0,1,1-2.733-2.749,2.741,2.741,0,0,1,2.733,2.749" transform="translate(-325.784 -376.675)" fill="#00aec7"/></svg>