<svg xmlns="http://www.w3.org/2000/svg" xmlns:xlink="http://www.w3.org/1999/xlink" viewBox="0 0 94 94">
  <defs>
    <style>
      .cls-1 {
        fill: none;
      }

      .cls-2 {
        clip-path: url(#clip-path);
      }

      .cls-3, .cls-6 {
        fill: #210049;
      }

      .cls-4 {
        fill: #ff2f73;
      }

      .cls-4, .cls-5, .cls-6 {
        fill-rule: evenodd;
      }

      .cls-5 {
        fill: #2fcad7;
      }
    </style>
    <clipPath id="clip-path">
      <rect id="Rectangle_48" data-name="Rectangle 48" width="45.15" height="51.462"/>
    </clipPath>
  </defs>
  <g id="logo_nequi" transform="translate(-610 -1509)">
    <rect id="Rectangle_82" data-name="Rectangle 82" class="cls-1" width="94" height="94" rx="15" transform="translate(610 1509)"/>
    <g id="Group_392" data-name="Group 392" transform="translate(634.925 1529.269)">
      <g id="Group_198" data-name="Group 198" class="cls-2">
        <g id="Group_189" data-name="Group 189" class="cls-2">
          <path id="Path_142" data-name="Path 142" class="cls-3" d="M451.547,432.872a.278.278,0,0,0-.272-.272h-.9a.271.271,0,0,0-.272.272v8.914a.278.278,0,0,0,.272.272h.9a.271.271,0,0,0,.272-.272Z" transform="translate(-406.397 -390.596)"/>
        </g>
        <g id="Group_190" data-name="Group 190" class="cls-2">
          <path id="Path_143" data-name="Path 143" class="cls-3" d="M8.023,432.7H7.149a.263.263,0,0,0-.262.272v6.253l-5.962-6.4a.354.354,0,0,0-.262-.126h-.3a.267.267,0,0,0-.262.262v8.923a.269.269,0,0,0,.262.272h.893a.263.263,0,0,0,.262-.272l-.01-6.408,6.137,6.573s.117.117.184.117h.194a.267.267,0,0,0,.262-.262l.01-.165v-8.758a.294.294,0,0,0-.272-.282" transform="translate(-0.09 -390.686)"/>
        </g>
        <g id="Group_191" data-name="Group 191" class="cls-2">
          <path id="Path_144" data-name="Path 144" class="cls-3" d="M128.073,442.057h.379a.271.271,0,0,0,.272-.272v-.806a.271.271,0,0,0-.272-.272h-3.525v-2.932h3.534a.271.271,0,0,0,.272-.272V436.7a.271.271,0,0,0-.272-.272h-3.525V433.95h3.525a.271.271,0,0,0,.272-.272v-.806a.271.271,0,0,0-.272-.272h-4.69a.271.271,0,0,0-.272.272v8.914a.276.276,0,0,0,.262.272Z" transform="translate(-111.508 -390.596)"/>
        </g>
        <g id="Group_192" data-name="Group 192" class="cls-2">
          <path id="Path_145" data-name="Path 145" class="cls-3" d="M347.184,432.962a.274.274,0,0,0-.262-.262h-.884a.261.261,0,0,0-.262.262l.01,5.311a2.931,2.931,0,0,1-.291,1.6,2,2,0,0,1-1.728.952,2.032,2.032,0,0,1-1.748-.952,2.931,2.931,0,0,1-.291-1.6l.01-5.311a.274.274,0,0,0-.262-.262h-.913a.261.261,0,0,0-.262.262v5.69a3.286,3.286,0,0,0,.709,2.185,3.485,3.485,0,0,0,5.447,0,3.3,3.3,0,0,0,.709-2.185Z" transform="translate(-307.258 -390.686)"/>
        </g>
        <g id="Group_193" data-name="Group 193" class="cls-2">
          <path id="Path_146" data-name="Path 146" class="cls-3" d="M217.073,441.41a4.786,4.786,0,0,1-2.534.738,4.915,4.915,0,0,1-3.6-1.622,4.474,4.474,0,0,1-1.136-3.068,4.753,4.753,0,1,1,9.506.078,4.2,4.2,0,0,1-1.3,3.127m-.952-.971a3.006,3.006,0,0,0,.874-2.253,3.365,3.365,0,0,0-3.4-3.447,3.318,3.318,0,0,0-3.36,3.476,3.212,3.212,0,0,0,.981,2.418,3.419,3.419,0,0,0,2.321.971,3.348,3.348,0,0,0,1.622-.408" transform="translate(-189.429 -390.686)"/>
        </g>
        <g id="Group_194" data-name="Group 194" class="cls-2">
          <path id="Path_147" data-name="Path 147" class="cls-3" d="M262.2,494.389c.214.214.146.388-.165.388h-.942a.587.587,0,0,1-.388-.165l-3.088-3.049a.332.332,0,0,1,.233-.563h.709a.588.588,0,0,1,.388.165Z" transform="translate(-232.516 -443.325)"/>
        </g>
        <g id="Group_195" data-name="Group 195" class="cls-2">
          <path id="Path_148" data-name="Path 148" class="cls-4" d="M42.6,9.1,59.895.247A2.612,2.612,0,0,1,63,.8L77.868,17.462a2.561,2.561,0,0,1-.039,3.486L61.759,38.163a3.771,3.771,0,0,1-5.515-.33L40.679,16.909A5.217,5.217,0,0,1,42.6,9.1" transform="translate(-35.795 0.035)"/>
        </g>
        <g id="Group_196" data-name="Group 196" class="cls-2">
          <path id="Path_149" data-name="Path 149" class="cls-5" d="M27.707,26.422,38.961,11.129A2.579,2.579,0,0,1,42,10.3l21.167,8.525a2.618,2.618,0,0,1,1.612,3.127l-6.2,22.235A3.71,3.71,0,0,1,53.5,46.259L29.678,34.219a5.209,5.209,0,0,1-1.971-7.8" transform="translate(-24.095 -9.129)"/>
        </g>
        <g id="Group_197" data-name="Group 197" class="cls-2">
          <path id="Path_150" data-name="Path 150" class="cls-6" d="M73.959,27.43,61.482,22.4l-9.1,4.661L45.5,36.411a6.7,6.7,0,0,0,.456.748l9.3,12.5L68.823,56.51l9.108-9.749L81.1,35.421Z" transform="translate(-41.082 -20.225)"/>
        </g>
      </g>
    </g>
  </g>
</svg>
