<svg xmlns="http://www.w3.org/2000/svg" viewBox="0 0 94 94">
  <defs>
    <style>
      .cls-1 {
        fill: none;
      }

      .cls-2 {
        fill: #fd6250;
      }
    </style>
  </defs>
  <g id="logo_rappi" transform="translate(-1124 -1509)">
    <rect id="Rectangle_78" data-name="Rectangle 78" class="cls-1" width="94" height="94" rx="15" transform="translate(1124 1509)"/>
    <g id="Group_388" data-name="Group 388" transform="translate(1139.805 1542.541)">
      <path id="Path_120" data-name="Path 120" class="cls-2" d="M6.93,23.5c-.134.468-.253.915-.357,1.346-.134.543-.253,1.034-.364,1.48s-.186.781-.231,1.034a.994.994,0,0,1-.855.825,2.6,2.6,0,0,1-1.294-.1,2.948,2.948,0,0,1-1.2-.744,1.873,1.873,0,0,1-.558-1.376,10.713,10.713,0,0,1,.342-2.142c.223-.974.543-2.134.959-3.435s.907-2.722,1.472-4.246c.476-1.309,1.026-2.625,1.621-3.919a1.348,1.348,0,0,1,1.063-.773,8.174,8.174,0,0,1,2.736.089.759.759,0,0,1,.521,1.048c-.5,1.115-.959,2.223-1.368,3.3-.335.877-.647,1.74-.952,2.58A.1.1,0,0,0,8.6,18.6a10.217,10.217,0,0,0,1.182-.647A8.887,8.887,0,0,0,11.5,16.508a7.251,7.251,0,0,0,1.227-1.844,5.185,5.185,0,0,0,.461-2.164,2.671,2.671,0,0,0-.811-2.156,3.462,3.462,0,0,0-2.275-.684,5.445,5.445,0,0,0-2.8.729A8.217,8.217,0,0,0,5.131,12.2a8.771,8.771,0,0,0-1.413,2.253,5.461,5.461,0,0,0-.5,2.03.817.817,0,0,1-.6.825,1.636,1.636,0,0,1-1.108-.052,2.357,2.357,0,0,1-1.026-.811A2.493,2.493,0,0,1,0,14.82,4.638,4.638,0,0,1,.677,12.7,8.828,8.828,0,0,1,2.64,10.344a11.682,11.682,0,0,1,3.2-1.933A11.35,11.35,0,0,1,10.232,7.6a12.035,12.035,0,0,1,2.774.327,8.7,8.7,0,0,1,2.469.982,5.84,5.84,0,0,1,1.785,1.643,3.943,3.943,0,0,1,.692,2.305,5.684,5.684,0,0,1-.61,2.6A7.5,7.5,0,0,1,15.7,17.594a10.667,10.667,0,0,1-2.4,1.636,15.935,15.935,0,0,1-2.38.967.079.079,0,0,0-.067.1c.015.416.045.818.089,1.212.045.454.112.892.186,1.309s.164.811.268,1.19c.082.29.171.58.26.848.059.171.126.342.186.5a9.3,9.3,0,0,0,.424.907,8.25,8.25,0,0,0,.483.788,5.887,5.887,0,0,0,.528.662,6.451,6.451,0,0,0,.565.543,5.5,5.5,0,0,0,.6.424,4.895,4.895,0,0,0,.625.312,3.921,3.921,0,0,0,.654.2,4.121,4.121,0,0,0,.677.1,5.613,5.613,0,0,0,.706-.007,5.056,5.056,0,0,0,.736-.119,6.443,6.443,0,0,0,.766-.238,6.147,6.147,0,0,0,.788-.357c.1-.052.2-.1.3-.164a.731.731,0,0,1,.848,1.182c-.141.119-.275.238-.416.357-.335.275-.669.528-1,.758s-.632.416-.944.595c-.156.089-.32.178-.491.26a9.1,9.1,0,0,1-.967.424,9.969,9.969,0,0,1-.952.3,6.869,6.869,0,0,1-.937.164,6.432,6.432,0,0,1-.654.037c-.089,0-.171,0-.26-.007a5.659,5.659,0,0,1-.877-.1c-.141-.03-.283-.059-.424-.1s-.275-.082-.409-.134a5.263,5.263,0,0,1-.781-.357,6.284,6.284,0,0,1-.721-.468,6.353,6.353,0,0,1-.543-.461,7.367,7.367,0,0,1-.61-.654,7.952,7.952,0,0,1-.543-.744c-.171-.26-.335-.543-.483-.825s-.29-.595-.416-.907-.245-.64-.349-.982-.2-.692-.283-1.056-.156-.744-.216-1.13q-.078-.513-.134-1.048a.107.107,0,0,0-.2.007" transform="translate(0 -7.035)"/>
      <path id="Path_121" data-name="Path 121" class="cls-2" d="M775.162,2.781A2.781,2.781,0,1,1,772.381,0a2.777,2.777,0,0,1,2.781,2.781" transform="translate(-712.372)"/>
      <path id="Path_122" data-name="Path 122" class="cls-2" d="M256.229,90.638a.8.8,0,0,0-.662-.349.746.746,0,0,0-.625.327c-.164.238-.372.521-.6.84a12.169,12.169,0,0,1-.833,1,9.156,9.156,0,0,1-.84.8.92.92,0,0,1-.558.275c-.074,0-.2,0-.231-.349a4.649,4.649,0,0,1,.164-1.42,17.2,17.2,0,0,1,.61-1.941c.268-.714.535-1.4.8-2.023.275-.654.506-1.2.714-1.666s.335-.766.387-.9a.983.983,0,0,0-.178-1.086,2.028,2.028,0,0,0-1.026-.632,2.863,2.863,0,0,0-1.331-.022,1.779,1.779,0,0,0-1.182.863,18.922,18.922,0,0,0-.967,1.911c-.394.863-.773,1.814-1.13,2.833-.216.617-.416,1.249-.595,1.889a5.384,5.384,0,0,1-1.762,2.692,11.312,11.312,0,0,1-.959.7q-.223.145-.446.268a.052.052,0,0,1-.067-.074c.26-.335.506-.706.758-1.093a15.806,15.806,0,0,0,1.376-2.863,13.084,13.084,0,0,0,.8-3.145,6.918,6.918,0,0,0-.1-2.432,3.11,3.11,0,0,0-.93-1.629,2.441,2.441,0,0,0-1.666-.6,3.838,3.838,0,0,0-2.1.6,8.479,8.479,0,0,0-1.182.915c-.03.03-.052.022-.074-.007a1.579,1.579,0,0,0-.32-.357,2.392,2.392,0,0,0-1.086-.5,2.5,2.5,0,0,0-1.257.082,1.614,1.614,0,0,0-.982.892c-.4.863-.825,1.874-1.257,3s-.855,2.3-1.257,3.488c-.045.134-.089.268-.134.394a5.307,5.307,0,0,1-1.822,2.558q-.335.257-.692.491-.223.145-.446.268a.052.052,0,0,1-.067-.074c.26-.335.506-.706.758-1.093a15.57,15.57,0,0,0,1.376-2.863,13.086,13.086,0,0,0,.8-3.145,6.917,6.917,0,0,0-.1-2.432,3.11,3.11,0,0,0-.93-1.629,2.441,2.441,0,0,0-1.666-.6,3.82,3.82,0,0,0-2.1.6,8.479,8.479,0,0,0-1.182.915c-.03.03-.052.022-.074-.007a1.579,1.579,0,0,0-.32-.357,2.392,2.392,0,0,0-1.086-.5,2.5,2.5,0,0,0-1.257.082,1.614,1.614,0,0,0-.982.892c-.4.863-.825,1.874-1.257,3-.409,1.056-.8,2.149-1.175,3.257a5.2,5.2,0,0,1-1.339,2.127c-.164.156-.32.3-.476.431a.92.92,0,0,1-.558.275c-.074,0-.2,0-.231-.349a4.583,4.583,0,0,1,.164-1.413,17.2,17.2,0,0,1,.61-1.941c.268-.706.535-1.391.8-2.023s.506-1.2.714-1.666.342-.766.387-.9a.983.983,0,0,0-.178-1.086,2.033,2.033,0,0,0-1.048-.632,2.775,2.775,0,0,0-1.331-.015,1.81,1.81,0,0,0-1.167.863c-.059.089-.119.193-.178.3a.048.048,0,0,1-.089-.015,2.647,2.647,0,0,0-.26-.714,2.092,2.092,0,0,0-.781-.811,2.526,2.526,0,0,0-1.309-.312,5.589,5.589,0,0,0-3.711,1.688,12.01,12.01,0,0,0-2.974,5.213,13.082,13.082,0,0,0-.625,3.131,6.779,6.779,0,0,0,.231,2.432,3.317,3.317,0,0,0,1.019,1.606,2.591,2.591,0,0,0,1.7.595,3.746,3.746,0,0,0,1.361-.245,4.85,4.85,0,0,0,1.13-.61,5.353,5.353,0,0,0,.729-.632.3.3,0,0,1,.5.119,2.211,2.211,0,0,0,.3.654,1.712,1.712,0,0,0,1.51.706,3.8,3.8,0,0,0,2.268-.84,12.066,12.066,0,0,0,1.019-.848.1.1,0,0,1,.164.1c-.193.64-.364,1.234-.521,1.792-.26.937-.476,1.747-.64,2.4a6.134,6.134,0,0,0-.238,1.227,2,2,0,0,0,.5,1.368,2.632,2.632,0,0,0,1.1.751,2.325,2.325,0,0,0,.788.141,1.863,1.863,0,0,0,.409-.045.973.973,0,0,0,.781-.818v-.007q.067-.446.245-1.182c.126-.513.275-1.093.446-1.725s.364-1.339.6-2.149c.1-.379.223-.773.342-1.182a.1.1,0,0,1,.178-.022,2.17,2.17,0,0,0,.178.275,2.085,2.085,0,0,0,1.785.758c.164.007.327.007.483.007h0a8.934,8.934,0,0,0,3.309-.6,13.443,13.443,0,0,0,2.64-1.391.1.1,0,0,1,.149.112c-.223.744-.431,1.443-.61,2.082-.268.944-.476,1.755-.639,2.4a6.339,6.339,0,0,0-.238,1.227,2.012,2.012,0,0,0,.5,1.368,2.632,2.632,0,0,0,1.1.751,2.326,2.326,0,0,0,.788.141,1.863,1.863,0,0,0,.409-.045.973.973,0,0,0,.781-.818v-.007q.067-.446.245-1.182c.126-.513.275-1.093.446-1.725s.372-1.339.6-2.149c.1-.379.223-.773.342-1.182a.1.1,0,0,1,.178-.022,2.174,2.174,0,0,0,.178.275,2.076,2.076,0,0,0,1.785.758c.164.007.327.007.483.007h0a8.934,8.934,0,0,0,3.309-.6,12.872,12.872,0,0,0,3.041-1.681c.149-.112.3-.231.439-.342a.1.1,0,0,1,.164.082v.112a3.047,3.047,0,0,0,.439,1.718,1.712,1.712,0,0,0,1.51.706,3.871,3.871,0,0,0,2.283-.84,12.862,12.862,0,0,0,2.03-1.859A20.535,20.535,0,0,0,255.3,92.7c.454-.677.766-1.145.937-1.42a.6.6,0,0,0-.007-.647m-38.482-3.621a12.345,12.345,0,0,1-.312,1.688,16.661,16.661,0,0,1-.625,1.941,19.855,19.855,0,0,1-.825,1.859,9.825,9.825,0,0,1-.848,1.413,3.773,3.773,0,0,1-.766.818.573.573,0,0,1-.3.141.094.094,0,0,1-.045-.007c-.03-.015-.141-.089-.193-.424a4.749,4.749,0,0,1-.015-1.19,10.869,10.869,0,0,1,.3-1.666,15.356,15.356,0,0,1,.625-1.941c.268-.677.543-1.3.825-1.859a10.975,10.975,0,0,1,.848-1.428,4.1,4.1,0,0,1,.758-.833.561.561,0,0,1,.3-.141.056.056,0,0,1,.037.007c.03.015.149.089.216.431a3.869,3.869,0,0,1,.015,1.19m13.474.03a15.426,15.426,0,0,1-.409,1.673,18.207,18.207,0,0,1-.706,1.941c-.3.669-.625,1.3-.944,1.866a11.929,11.929,0,0,1-.93,1.428,4.133,4.133,0,0,1-.811.833.605.605,0,0,1-.32.149.094.094,0,0,1-.045-.007c-.03-.015-.134-.082-.178-.416a3.855,3.855,0,0,1,.067-1.2,15.2,15.2,0,0,1,.409-1.688,20.266,20.266,0,0,1,.706-1.948,15.907,15.907,0,0,1,.922-1.852,11.583,11.583,0,0,1,.944-1.413,4.5,4.5,0,0,1,.811-.825.605.605,0,0,1,.32-.149.094.094,0,0,1,.045.007c.03.015.134.082.178.416a3.936,3.936,0,0,1-.059,1.182m12.448,0a15.436,15.436,0,0,1-.409,1.673,18.207,18.207,0,0,1-.706,1.941c-.3.669-.625,1.3-.944,1.866a11.931,11.931,0,0,1-.93,1.428,4.133,4.133,0,0,1-.811.833.605.605,0,0,1-.32.149.094.094,0,0,1-.045-.007c-.03-.015-.134-.082-.178-.416a3.855,3.855,0,0,1,.067-1.2,15.21,15.21,0,0,1,.409-1.688,20.271,20.271,0,0,1,.706-1.948,15.91,15.91,0,0,1,.922-1.852,11.581,11.581,0,0,1,.944-1.413,4,4,0,0,1,.811-.818.605.605,0,0,1,.32-.149.094.094,0,0,1,.045.007c.03.015.134.082.178.416a3.463,3.463,0,0,1-.059,1.175" transform="translate(-194.056 -76.643)"/>
    </g>
  </g>
</svg>
