<svg xmlns="http://www.w3.org/2000/svg" viewBox="0 0 94 94">
  <defs>
    <style>
      .cls-1 {
        fill: none;
      }
    </style>
  </defs>
  <g id="logo_uber" transform="translate(-999 -1509)">
    <rect id="Rectangle_79" data-name="Rectangle 79" class="cls-1" width="94" height="94" rx="15" transform="translate(999 1509)"/>
    <g id="Group_389" data-name="Group 389" transform="translate(1018.92 1533.269)">
      <path id="Path_123" data-name="Path 123" d="M8.642,355.16v6.334a2.98,2.98,0,0,1-.741,2.289,3.39,3.39,0,0,1-2.384.712,3.39,3.39,0,0,1-2.384-.712,2.98,2.98,0,0,1-.741-2.289v-6.6H.285A.239.239,0,0,0,0,355.16V361.6a4.363,4.363,0,0,0,1.529,3.713,6.392,6.392,0,0,0,3.979,1.054A6.528,6.528,0,0,0,9.5,365.312a4.393,4.393,0,0,0,1.538-3.713v-6.7H8.927A.239.239,0,0,0,8.642,355.16Z" transform="translate(0 -321.189)"/>
      <path id="Path_124" data-name="Path 124" d="M329.875,356.642a.386.386,0,0,0,.2-.047.293.293,0,0,0,.114-.142l.608-1.52c.029-.085,0-.133-.095-.133h-8.5a1.481,1.481,0,0,0-.845.19.688.688,0,0,0-.256.6v9.82a.644.644,0,0,0,.19.5,1.036,1.036,0,0,0,.646.161h7.93a.386.386,0,0,0,.2-.047.293.293,0,0,0,.114-.142l.608-1.51c.029-.095,0-.142-.095-.142h-7.227v-1.994a.854.854,0,0,1,.313-.76,1.856,1.856,0,0,1,1.083-.247H328a.386.386,0,0,0,.2-.047.294.294,0,0,0,.114-.142l.589-1.453c.028-.095,0-.142-.095-.142h-5.347v-2.83h6.41Z" transform="translate(-290.605 -321.105)"/>
      <path id="Path_125" data-name="Path 125" d="M172.53,360.086a2.222,2.222,0,0,0,1-1.007,3.278,3.278,0,0,0,.313-1.463,2.417,2.417,0,0,0-1.282-2.374,6.311,6.311,0,0,0-2.859-.494h-4.805a1.5,1.5,0,0,0-.855.19.66.66,0,0,0-.247.6v9.82a.644.644,0,0,0,.19.5,1.036,1.036,0,0,0,.646.161h5.907a4.557,4.557,0,0,0,2.745-.722,2.784,2.784,0,0,0,1.073-2.4,3.544,3.544,0,0,0-.446-1.795A2.176,2.176,0,0,0,172.53,360.086Zm-6.4-3.542h3.751a1.677,1.677,0,0,1,1.254.361,1.478,1.478,0,0,1,.332,1.092,1.518,1.518,0,0,1-.332,1.1,1.718,1.718,0,0,1-1.254.361h-3.751Zm5.537,7.313a1.844,1.844,0,0,1-1.349.389h-4.179v-2.089a.837.837,0,0,1,.323-.76,1.89,1.89,0,0,1,1.092-.247h2.773a1.844,1.844,0,0,1,1.349.389,1.542,1.542,0,0,1,.342,1.168A1.562,1.562,0,0,1,171.666,363.856Z" transform="translate(-148.237 -321.053)"/>
      <path id="Path_126" data-name="Path 126" d="M476.694,366.054l-2.536-4.331a2.975,2.975,0,0,0,1.614-.959,3.574,3.574,0,0,0,.665-2.308,3.049,3.049,0,0,0-1.206-2.754,6.062,6.062,0,0,0-3.3-.712H467.1a1.48,1.48,0,0,0-.845.19.688.688,0,0,0-.256.6V366c0,.18.095.266.285.266h2.051v-3.3a.837.837,0,0,1,.323-.76,1.891,1.891,0,0,1,1.092-.247h2.089l2.279,4.112a.345.345,0,0,0,.114.142.386.386,0,0,0,.2.047h2.146c.066-.009.114-.028.123-.076A.157.157,0,0,0,476.694,366.054Zm-2.973-6.277a1.871,1.871,0,0,1-1.444.418h-3.941v-3.4h3.941a1.883,1.883,0,0,1,1.444.427,1.816,1.816,0,0,1,.342,1.282A1.775,1.775,0,0,1,473.721,359.776Z" transform="translate(-421.744 -321.276)"/>
      <path id="Path_127" data-name="Path 127" d="M192.364,11.4a11.4,11.4,0,0,0-22.764-.788h8.167V8.471a.265.265,0,0,1,.266-.266h5.86a.265.265,0,0,1,.266.266v5.86a.265.265,0,0,1-.266.266h-5.86a.265.265,0,0,1-.266-.266V12.194H169.6a11.4,11.4,0,0,0,22.764-.8Z" transform="translate(-153.493)"/>
    </g>
  </g>
</svg>
