<svg xmlns="http://www.w3.org/2000/svg" width="102.8" height="40" viewBox="0 0 102.8 40">
  <g id="ic_logo_rotalo" transform="translate(-574.956 -237.302)">
    <path id="Trazado_112" data-name="Trazado 112" d="M588.977,255.788a10.663,10.663,0,0,0,8-11.681c-.92-6.714-8.554-7.726-13.613-6.163-4.323,1.288-9.29,5.611-8.278,9.29.276,1.1.736,1.472,2.483,1.472s5.059-1.84,5.7-2.575-.184-2.391-.368-3.219c-.184-.92.368-1.2,1.1-1.1l9.014,2.3a.7.7,0,0,1,.46,1.1l-4.967,7.174a1,1,0,0,1-1.748,0c-.828-1.564-.92-1.931-1.931-2.3s-3.771,1.2-4.967,2.391c-3.035,2.943-1.748,18.764-.368,21.891.92,2.116,3.771,2.667,4.875.184s-1.84-14.717.644-16c1.564-.828,2.391.092,3.311,1.2,1.655,2.207,8.37,11.865,9.75,13.061,1.288,1.288,3.127,3.127,5.059,1.656,1.564-1.2,1.012-2.759.368-4.139A31.058,31.058,0,0,0,588.977,255.788Z" transform="translate(0 0)" fill="#ff3646"/>
    <path id="Trazado_113" data-name="Trazado 113" d="M675.653,257.1c-5.519-.46-8.646,3.127-8.37,10.026a9.838,9.838,0,0,0,2.023,5.979c-1.472,1.012-3.4,1.747-4.967,1.1-2.759-1.1-3.311-6.254-3.311-6.53,1.472-1.656,11.222-18.948,6.531-24.1-1.288-1.472-5.243-2.759-9.106,1.932-4.047,4.875-4.507,17.476-2.207,25.018-1.38,1.748-2.76,2.851-4.047,2.759-2.759-.276-1.656-10.669-1.931-11.681s-4.139-1.1-4.415.092c-.184.92.276,1.656-.276,4.875-.46,2.851-2.391,6.254-3.771,5.7-.735-.276-1.563-1.564-1.471-4.231.276-7.45,4.139-9.29,5.611-10.026,1.472-.828-.368-2.116-1.564-1.748a14.1,14.1,0,0,0-7.634,6.347c-2.3,3.955-3.5,13.613,3.863,13.613,3.4,0,4.783-3.4,5.151-4.139.368,1.2,2.392,4.415,5.243,4.415,2.115,0,4.323-1.656,6.071-3.5.184.276.276.644.46.92,2.208,3.863,6.347,4.507,10.026,3.035a10.4,10.4,0,0,0,3.5-2.207,8.867,8.867,0,0,0,4.415,1.2c3.5,0,6.439-3.5,6.99-8.738C683.011,262.9,681.632,257.563,675.653,257.1Zm-11.59-12.509c5.427.92-2.667,17.568-3.495,18.947C660.477,262.162,658.453,246.985,664.064,244.594Zm11.5,29.065c-3.035-.092-2.943-9.014-2.116-11.405a2.814,2.814,0,0,1,5.151-.736C681.08,265.013,678.413,273.751,675.561,273.659Z" transform="translate(-4.815 -0.395)" fill="#ff3646"/>
    <path id="Trazado_114" data-name="Trazado 114" d="M615.768,258.4c-5.519-.46-8.646,3.127-8.37,10.026.276,6.714,4.691,8.646,8.186,8.646s6.439-3.5,6.99-8.738C623.127,264.191,621.747,258.857,615.768,258.4Zm-.092,16.556c-3.035-.092-2.943-9.014-2.116-11.405a2.814,2.814,0,0,1,5.151-.736C621.2,266.307,618.528,275.045,615.677,274.953Z" transform="translate(-2.601 -1.689)" fill="#ff3646"/>
    <path id="Trazado_115" data-name="Trazado 115" d="M631.389,255.646c1.012-.184,5.427-.644,5.427-2.575s-4.6-1.1-5.61-1.012c0-.644-.276-4.967-.276-6.346,0-1.656-.46-2.851-2.667-3.219-2.3-.46-2.391,1.288-2.483,1.564v8.37c-1.012.184-5.335-.276-4.783,2.851,0,1.472,2.575,1.472,4.139,1.288.46,0,.828-.092,1.012-.092,0,3.587.46,14.257.552,16.648.092,1.748-.184,3.771,2.116,3.771,2.759,0,2.667-3.127,2.667-4.507C631.389,270.823,631.481,257.762,631.389,255.646Z" transform="translate(-3.689 -0.41)" fill="#ff3646"/>
    <path id="Trazado_116" data-name="Trazado 116" d="M611.457,255.972a.738.738,0,0,0,1.1.368c1.931-1.012,7.542-4.047,7.91-4.323a.534.534,0,0,0,.184-.828c-.368-.736-.736-1.38-1.1-2.024a.691.691,0,0,0-.828-.368c-1.012.276-7.45,2.759-8.462,3.219a.773.773,0,0,0-.368,1.012A22.806,22.806,0,0,1,611.457,255.972Z" transform="translate(-2.797 -0.92)" fill="#ff3646"/>
  </g>
</svg>
