<?xml version="1.0" encoding="UTF-8"?>
<svg width="157px" height="61px" viewBox="0 0 157 61" version="1.1" xmlns="http://www.w3.org/2000/svg" xmlns:xlink="http://www.w3.org/1999/xlink">
    <!-- Generator: Sketch 41 (35326) - http://www.bohemiancoding.com/sketch -->
    <title>Combined Shape</title>
    <desc>Created with Sketch.</desc>
    <defs></defs>
    <g id="Page-1" stroke="none" stroke-width="1" fill="none" fill-rule="evenodd">
        <path d="M138.815539,56.292687 C137.575261,57.4903172 135.83967,58.6700987 133.48089,59.5966411 C127.894344,61.8197516 121.669634,60.9305074 118.280044,55.0039562 C118.043924,54.5916043 117.817405,54.1550374 117.600589,53.6963433 C114.874179,56.5229702 111.533221,59.0160169 108.289124,59.0160169 C104.025983,59.0160169 100.939782,54.1356354 100.364389,52.3519161 C99.8883815,53.4974719 97.7960422,58.6289341 92.5651938,58.6289341 C81.2979465,58.6289341 83.0450498,43.9825588 86.6177193,37.8833896 C90.5565481,31.1669803 96.3994057,28.6875582 98.2406643,28.1644734 C100.097615,27.625696 102.896119,29.6814194 100.646855,30.9263613 C98.3975897,32.1713032 92.5128853,34.8651901 92.0891866,46.252747 C91.937492,50.3432704 93.1876648,52.3257619 94.2861429,52.7233064 C96.3941748,53.4817794 99.286834,48.3450863 99.9982293,43.9720971 C100.793318,39.0550996 100.092385,37.9356981 100.395774,36.5966009 C100.80378,34.7867274 106.751255,34.8861135 107.169722,36.4867531 C107.58819,38.0873927 105.882934,53.9107089 110.067612,54.3030226 C111.988444,54.4701598 114.119846,52.7433496 116.23034,50.1109161 C112.647723,38.5249917 113.453913,19.343375 119.587756,11.933151 C125.451537,4.85058231 131.430397,6.82784299 133.433812,9.05095353 C140.558227,16.9443037 125.728772,43.3025485 123.521354,45.8081248 C123.521354,46.14813 124.410599,54.0414801 128.621431,55.7048899 C131.00321,56.6460764 133.874394,55.5317547 136.154448,53.9967011 C134.452387,51.9567562 133.266367,49.0226416 133.099038,44.9084189 C132.675339,34.4467222 137.419718,29.0537176 145.81523,29.7023428 C154.901214,30.3823531 156.951706,38.4849372 156.276927,44.7881094 L156.292619,44.7881094 C155.424298,52.7337681 150.904845,58.1058493 145.605996,58.1058493 C143.412065,58.1058493 140.962571,57.6072753 138.815539,56.292687 Z M71.4901058,22.4890029 C71.4901058,22.4890029 71.4430282,10.2488178 71.4901058,9.72573297 C71.5424143,9.22357153 71.8039568,6.67614838 75.2563167,7.31954273 C78.7086766,7.96293708 79.3782252,9.67865533 79.3782252,12.241771 C79.3782252,14.2870327 79.7653079,20.898825 79.8123856,21.8613011 C81.4444102,21.693914 88.385746,20.4489721 88.385746,23.4305556 C88.385746,26.4121392 81.6379516,27.1183037 80.1000822,27.4060004 C80.1942375,30.6334338 80.1000822,50.5420426 80.1000822,52.7128447 C80.1000822,54.8836467 80.2046992,59.6175645 75.9834046,59.6175645 C72.3950426,59.6175645 72.8135105,56.5575182 72.7402786,53.942094 C72.6356616,50.3118853 71.9451897,34.1328713 71.9451897,28.6352497 C70.4439362,28.8392528 64.622002,29.5872641 64.1669182,26.8253762 C63.3561367,22.03915 69.9993141,22.8290081 71.4901058,22.4890029 Z M21.8493551,28.2533978 C27.0802034,27.4007695 35.5018692,20.6372826 34.0163083,10.4685134 C32.5307474,0.299744253 20.9391875,-1.32181873 13.2184553,1.05298641 C6.57004705,3.08255557 -0.988528808,9.58973091 0.612110786,15.1762769 C1.07765629,16.7821474 1.70535809,17.3052322 4.37309075,17.3732332 C7.0408234,17.4412343 12.0728995,14.5851911 13.0824532,13.4762512 C14.092007,12.3673114 12.8575268,9.7832723 12.5122908,8.58540803 C12.2455175,7.12600134 13.0667607,6.69707178 14.2123165,6.96907589 L27.9537551,10.5051294 C28.3154093,10.5708256 28.616054,10.8215001 28.7457044,11.1654486 C28.8753548,11.5093971 28.8149879,11.8961539 28.5866877,12.1842317 L21.059497,23.0591654 C20.7861522,23.5350182 20.2840879,23.833511 19.7354638,23.8463443 C19.1868396,23.8591776 18.6713675,23.5844868 18.3760718,23.1219356 C17.125899,20.7418996 16.9323576,20.1821988 15.4049499,19.5754204 C13.8775422,18.968642 9.60393909,21.4637567 7.8202198,23.1899366 C3.23799665,27.6100035 5.20479563,51.802677 7.29713497,56.4581321 C8.72515657,59.5966411 13.0510681,60.5486555 14.7720173,56.7458287 C16.4929664,52.943002 11.9682825,34.3734904 15.7501859,32.4014605 C18.1668378,31.1408261 19.4117797,32.4851541 20.7874928,34.2584117 C23.3610702,37.6009238 33.5559937,52.2996076 35.580332,54.1984056 C37.6046703,56.0972035 40.3613274,58.9584776 43.2644482,56.7824447 C45.6026374,55.0301105 44.7500091,52.5559192 43.787533,50.5054267 C39.3834519,40.6948188 31.5964184,32.7963828 21.8493551,28.2533978 L21.8493551,28.2533978 Z M65.2497038,19.9206564 C65.3906514,20.1293082 65.4347094,20.3886319 65.3705794,20.6321255 C65.3064494,20.8756192 65.1403694,21.0795978 64.9149295,21.1917525 C64.24015,21.5840662 55.7295598,26.2185978 52.8055156,27.7773906 C52.5023988,27.9289825 52.15029,27.949289 51.8317558,27.8335483 C51.5132217,27.7178077 51.2562803,27.4762004 51.1211824,27.1653813 C50.3940945,25.5961268 49.6094672,24.1314893 48.8562251,22.7505453 C48.7010006,22.4724203 48.6728589,22.1409791 48.7789699,21.8406649 C48.885081,21.5403507 49.1151988,21.3001612 49.410695,21.1812908 C50.9171793,20.5274348 60.7720976,16.7664548 62.2942745,16.2799859 C62.5369615,16.1626191 62.8177464,16.1524099 63.0683161,16.2518423 C63.3188858,16.3512748 63.5162707,16.5512338 63.6124482,16.8030708 C64.2035341,17.8178554 64.7370806,18.8535633 65.2601655,19.9415798 L65.2497038,19.9206564 Z M68.414367,44.7881094 C67.587893,52.7337681 63.06844,58.1058493 57.7277439,58.1058493 C52.3870477,58.1058493 45.6392533,55.1974976 45.2207855,44.9084189 C44.7970867,34.4467222 49.5414662,29.0537176 57.9369778,29.7023428 C67.0648082,30.3823531 69.1153007,38.4849372 68.4405213,44.7881094 L68.414367,44.7881094 Z M57.7277439,54.8470308 C62.0484246,54.9359552 66.1964873,41.6757547 62.3727372,36.3612127 C60.0450097,33.1233176 55.9126395,33.5836323 54.5264647,37.4073824 C53.2187526,41.1422081 53.0827505,54.7528755 57.7277439,54.8470308 Z M122.799497,39.4474133 C124.04967,37.3550739 136.399703,11.9645361 128.072192,10.6149772 C119.587756,14.276571 122.605956,37.3289197 122.799497,39.4474133 Z M145.605996,54.8470308 C149.926677,54.9359552 154.07474,41.6757547 150.250989,36.3612127 C147.923262,33.1233176 143.790892,33.5836323 142.404717,37.4073824 C141.055158,41.1422081 140.898233,54.7528755 145.605996,54.8470308 Z" id="Combined-Shape" fill="#ED2F3C"></path>
    </g>
</svg>