<svg xmlns="http://www.w3.org/2000/svg" viewBox="0 0 94 94">
  <defs>
    <style>
      .cls-1 {
        fill: none;
      }

      .cls-2, .cls-3 {
        fill: #253081;
      }

      .cls-3 {
        fill-rule: evenodd;
      }

      .cls-4 {
        fill: #ffe500;
      }

      .cls-5 {
        fill: #e42313;
      }
    </style>
  </defs>
  <g id="logo_bancolombia" transform="translate(-743 -1509)">
    <g id="Group_394" data-name="Group 394">
      <rect id="Rectangle_81" data-name="Rectangle 81" class="cls-1" width="94" height="94" rx="15" transform="translate(743 1509)"/>
      <g id="Group_391" data-name="Group 391" transform="translate(752 1547.045)">
        <g id="Group_187" data-name="Group 187" transform="translate(0 7.983)">
          <path id="Path_128" data-name="Path 128" class="cls-2" d="M22,19.462v6.143h1.634V22.111s.056-1.465,1.184-1.747a.8.8,0,0,1,1.071.676l.056,4.509h1.578V20.476A1.768,1.768,0,0,0,25.607,18.9a2.191,2.191,0,0,0-2.142,1.353l.056-1.24L22,19.462Z" transform="translate(-9.601 -16.25)"/>
          <path id="Path_129" data-name="Path 129" class="cls-2" d="M37.529,19.369,37.3,20.778s-1.691-.507-2.2.169a2.812,2.812,0,0,0-.451,2.367,1.461,1.461,0,0,0,1.916,1.127l.9-.225.056,1.353a5.245,5.245,0,0,1-2.142.338,2.7,2.7,0,0,1-2.367-2.142,4.353,4.353,0,0,1,.733-3.663,3.234,3.234,0,0,1,2.367-.9h.169l1.24.169Z" transform="translate(-14.366 -16.382)"/>
          <path id="Path_130" data-name="Path 130" class="cls-3" d="M14.5,22.878s-1.691-.113-2.085.62a.74.74,0,0,0,.056.845c.338.451,1.071.225,1.071.225a1.151,1.151,0,0,0,.9-.9l.056-.225v-.564ZM11.29,19.553v1.353a5.991,5.991,0,0,1,1.916-.507s1.014,0,1.24.62v.845s-2.367-.113-2.874.676a2.186,2.186,0,0,0-.564,2.705,1.678,1.678,0,0,0,1.522.676,2.134,2.134,0,0,0,2.085-1.184l.056-.056v1.071h1.522l-.056-4.847a1.924,1.924,0,0,0-1.465-1.691,6.7,6.7,0,0,0-3.1.169l-.282.169Z" transform="translate(-4.696 -16.34)"/>
          <path id="Path_131" data-name="Path 131" class="cls-3" d="M1.578,20.734V23.1H3.1a1.356,1.356,0,0,0,.958-1.071,1.218,1.218,0,0,0-.9-1.3Zm0-3.551v2.311H2.762s1.071-.113,1.184-1.071A1.112,1.112,0,0,0,3.1,17.24l-1.522-.056ZM0,16v8.454L3.1,24.4s2.423-.113,2.536-2.085c0,0,.338-2.029-1.465-2.367a2.072,2.072,0,0,0,1.3-1.8A2.094,2.094,0,0,0,3.551,16Z" transform="translate(0 -14.986)"/>
          <path id="Path_132" data-name="Path 132" class="cls-3" d="M45.065,20.509a1.421,1.421,0,0,0-1.522,1.24c-.225,1.184,0,2.2.733,2.592a1.7,1.7,0,0,0,1.409-.056c.564-.395.789-1.127.676-2.536a1.3,1.3,0,0,0-1.184-1.24ZM44.953,19.1A3.233,3.233,0,0,0,41.8,22.369c-.113,3.212,1.973,3.607,3.043,3.551a3.293,3.293,0,0,0,3.212-3.494c0-2.874-1.578-3.1-2.931-3.269l-.169-.056Z" transform="translate(-18.239 -16.338)"/>
          <path id="Path_133" data-name="Path 133" class="cls-3" d="M61.465,20.509a1.421,1.421,0,0,0-1.522,1.24c-.225,1.184,0,2.2.733,2.592a1.7,1.7,0,0,0,1.409-.056c.564-.395.789-1.127.676-2.536a1.259,1.259,0,0,0-1.184-1.24ZM61.353,19.1A3.233,3.233,0,0,0,58.2,22.369c-.113,3.212,1.973,3.607,3.043,3.551a3.293,3.293,0,0,0,3.212-3.494c0-2.874-1.578-3.1-2.931-3.269l-.169-.056Z" transform="translate(-25.396 -16.338)"/>
          <path id="Path_134" data-name="Path 134" class="cls-3" d="M107.5,22.878s-1.691-.113-2.085.62a.74.74,0,0,0,.056.845c.338.451,1.071.225,1.071.225a1.151,1.151,0,0,0,.9-.9l.056-.225v-.564Zm-3.212-3.325v1.353a5.991,5.991,0,0,1,1.916-.507s1.014,0,1.24.62v.845s-2.367-.113-2.874.676a2.186,2.186,0,0,0-.564,2.705,1.678,1.678,0,0,0,1.522.676,2.134,2.134,0,0,0,2.085-1.184l.056-.056v1.071h1.522l-.056-4.847a1.924,1.924,0,0,0-1.465-1.691,6.7,6.7,0,0,0-3.1.169l-.282.169Z" transform="translate(-45.283 -16.34)"/>
          <path id="Path_135" data-name="Path 135" class="cls-2" d="M54.1,15.095l1.578-.395.056,9.13H54.1Z" transform="translate(-23.61 -14.418)"/>
          <path id="Path_136" data-name="Path 136" class="cls-2" d="M70.513,19.549l1.465-.338-.056,1.24A2.228,2.228,0,0,1,74.063,19.1a1.721,1.721,0,0,1,1.8,1.071A2.239,2.239,0,0,1,77.9,19.1a1.689,1.689,0,0,1,1.916,1.578v5.072H78.234l-.056-4.509a.8.8,0,0,0-1.071-.676c-.845.169-1.071,1.071-1.127,1.522V25.8H74.345L74.289,21.3a.8.8,0,0,0-1.071-.676c-1.127.225-1.184,1.747-1.184,1.747v3.494H70.4l.113-6.312Z" transform="translate(-30.724 -16.336)"/>
          <path id="Path_137" data-name="Path 137" class="cls-3" d="M90.334,22.59V20a1.386,1.386,0,0,1,1.127-1.184s.789-.225,1.071.958a3.434,3.434,0,0,1,0,1.691s-.169.958-.845,1.127a3.934,3.934,0,0,1-1.353.056V22.59Zm-.056-7.89a6.279,6.279,0,0,0-1.578.395V23.6a11.023,11.023,0,0,0,3.607.169s2.2-.507,2.029-3.607c0,0,.169-2.592-2.2-2.705a2.032,2.032,0,0,0-1.86,1.071V14.7Z" transform="translate(-38.71 -14.418)"/>
          <path id="Path_138" data-name="Path 138" class="cls-2" d="M101.5,17.131v6.425H99.756V17.131Zm-1.8-1.916a1.014,1.014,0,1,1,1.014,1.014A.976.976,0,0,1,99.7,15.214Z" transform="translate(-43.511 -14.2)"/>
        </g>
        <path id="Path_139" data-name="Path 139" class="cls-2" d="M110.236,1.333c.282-.225,4.283-1.578,10.257-1.353a.829.829,0,0,1,.62.451l.62,1.3s.338.395-.169.451c0,0-4.509.282-5.918.507s-4.283.958-4.283.958a.7.7,0,0,1-.62-.113l-.676-1.8c0,.056-.169-.169.169-.395Z" transform="translate(-48.017 0)"/>
        <path id="Path_140" data-name="Path 140" class="cls-4" d="M106.569,8.033c.282-.225,8.059-2.931,14.033-2.649,0,0,.282,0,.451.395l.676,1.747s.225.395-.338.507c0,0-5.974,1.071-7.665,1.522-2.2.564-5.974,1.86-5.974,1.86a.608.608,0,0,1-.733-.282l-.62-2.2c.056-.056-.113-.733.169-.9Z" transform="translate(-46.435 -2.36)"/>
        <path id="Path_141" data-name="Path 141" class="cls-5" d="M116.122,13.474c.282-.225,2.536-1.014,8.4-2.085,0,0,.62-.113.789.282l.733,2.2s.225.507-.451.789c0,0-2.367.9-3.72,1.353-1.522.507-4.114,1.578-4.114,1.578a.643.643,0,0,1-.845-.451l-1.014-3.1a.6.6,0,0,1,.225-.564Z" transform="translate(-50.577 -4.983)"/>
      </g>
    </g>
  </g>
</svg>
