<svg xmlns="http://www.w3.org/2000/svg" viewBox="-2766 1881.835 26 18.765">
  <defs>
    <style>
      .cls-1 {
        fill: #ff3646;
      }
    </style>
  </defs>
  <g id="Group_797" data-name="Group 797" transform="translate(-2766 1881.835)">
    <g id="Group_794" data-name="Group 794">
      <path id="Path_442" data-name="Path 442" class="cls-1" d="M23.174,18.765H2.713A2.751,2.751,0,0,1,0,16.052V2.713A2.751,2.751,0,0,1,2.713,0H23.287A2.751,2.751,0,0,1,26,2.713V16.165a2.923,2.923,0,0,1-2.826,2.6ZM2.713,2.261a.486.486,0,0,0-.452.452V16.165a.486.486,0,0,0,.452.452H23.287a.486.486,0,0,0,.452-.452V2.713a.486.486,0,0,0-.452-.452Z"/>
    </g>
    <g id="Group_795" data-name="Group 795" transform="translate(0.744 8.761)">
      <path id="Path_443" data-name="Path 443" class="cls-1" d="M23.088,17.189H2.627A1.971,1.971,0,0,1,.705,15.833a.748.748,0,0,1,.113-.678L8.731,8.033a.56.56,0,0,1,.791.791L1.836,15.607a.977.977,0,0,0,.678.339H23.088a.806.806,0,0,0,.678-.339l-7.8-6.9a.56.56,0,0,1,.791-.791L24.9,15.154a.394.394,0,0,1,.113.565,1.938,1.938,0,0,1-1.922,1.47Z" transform="translate(-0.659 -7.75)"/>
    </g>
    <g id="Group_796" data-name="Group 796" transform="translate(0.678 0.565)">
      <path id="Path_444" data-name="Path 444" class="cls-1" d="M12.809,13.048a.415.415,0,0,1-.339-.113L.826,2.535A.831.831,0,0,1,.6,1.857,2.2,2.2,0,0,1,2.522.5H23.1a1.971,1.971,0,0,1,1.922,1.357.5.5,0,0,1-.113.565l-11.643,10.4c-.113.226-.226.226-.452.226ZM1.843,1.97,12.809,11.8,23.774,1.97A.977.977,0,0,0,23.1,1.63H2.635a1.026,1.026,0,0,0-.791.339Z" transform="translate(-0.6 -0.5)"/>
    </g>
  </g>
</svg>
