<svg xmlns="http://www.w3.org/2000/svg" viewBox="-2447 1653.238 24.48 27.287">
  <defs>
    <style>
      .cls-1 {
        fill: #ff3646;
      }
    </style>
  </defs>
  <g id="Group_809" data-name="Group 809" transform="translate(-2447 1653.263)">
    <g id="Group_805" data-name="Group 805" transform="translate(0 -0.025)">
      <path id="Path_450" data-name="Path 450" class="cls-1" d="M21.915,27.262H2.566A2.6,2.6,0,0,1,0,24.7V10.585A.972.972,0,0,1,.428,9.73L11.652.216a1.124,1.124,0,0,1,1.39,0L24.16,9.73a1.214,1.214,0,0,1,.321.855V24.7a2.532,2.532,0,0,1-2.566,2.566ZM2.138,11.12V24.8a.46.46,0,0,0,.428.428H22.022a.46.46,0,0,0,.428-.428V11.12L12.4,2.46,2.138,11.12Z" transform="translate(0 0.025)"/>
    </g>
    <g id="Group_806" data-name="Group 806" transform="translate(0.704 14.808)">
      <path id="Path_451" data-name="Path 451" class="cls-1" d="M21.869,25.77H2.52A1.864,1.864,0,0,1,.7,24.487a.707.707,0,0,1,.107-.641L11.821,14.01a.517.517,0,0,1,.748,0L23.58,23.845c.214.107.214.428.107.641a1.864,1.864,0,0,1-1.817,1.283Zm-20.1-1.39a.97.97,0,0,0,.748.321H21.976a.762.762,0,0,0,.641-.321l-10.369-9.3L1.772,24.38Z" transform="translate(-0.659 -13.85)"/>
    </g>
    <g id="Group_807" data-name="Group 807" transform="translate(15.02 10.959)">
      <path id="Path_452" data-name="Path 452" class="cls-1" d="M14.638,18.214A.81.81,0,0,1,14.21,18a.517.517,0,0,1,0-.748l7.7-6.842a.529.529,0,1,1,.748.748l-7.59,6.949c-.107,0-.321.107-.428.107Z" transform="translate(-14.05 -10.25)"/>
    </g>
    <g id="Group_808" data-name="Group 808" transform="translate(0.695 11.066)">
      <path id="Path_453" data-name="Path 453" class="cls-1" d="M8.828,18.207a.393.393,0,0,1-.321-.107L.81,11.259a.517.517,0,0,1,0-.748.517.517,0,0,1,.748,0l7.7,6.842a.517.517,0,0,1,0,.748.643.643,0,0,1-.428.107Z" transform="translate(-0.65 -10.35)"/>
    </g>
  </g>
</svg>
