<svg xmlns="http://www.w3.org/2000/svg" viewBox="119.895 235.336 27.396 23.014">
  <defs>
    <style>
      .cls-1 {
        fill: #ff2334;
        stroke: #ff2334;
        stroke-width: 1.5px;
      }
    </style>
  </defs>
  <g id="noun_78714_cc" transform="translate(120.645 236.086)">
    <g id="Group_349" data-name="Group 349" transform="translate(0 0)">
      <path id="Path_233" data-name="Path 233" class="cls-1" d="M40.189,52.605a.424.424,0,0,1-.208-.053c-.521-.291-12.741-7.186-12.741-14.006,0-4.32,2.9-7.455,6.886-7.455a9.181,9.181,0,0,1,6.062,2.993,9.177,9.177,0,0,1,6.062-2.993c3.99,0,6.886,3.135,6.886,7.455,0,6.82-12.219,13.715-12.74,14.006A.428.428,0,0,1,40.189,52.605Zm-6.062-20.66c-3.5,0-6.033,2.776-6.033,6.6,0,5.866,10.476,12.2,12.095,13.141,1.619-.944,12.094-7.279,12.094-13.141,0-3.825-2.537-6.6-6.033-6.6A8.328,8.328,0,0,0,40.523,35a.442.442,0,0,1-.667,0A8.331,8.331,0,0,0,34.127,31.945Z" transform="translate(-27.241 -31.091)"/>
    </g>
    <g id="Group_350" data-name="Group 350" transform="translate(3.206 2.933)">
      <path id="Path_234" data-name="Path 234" class="cls-1" d="M31.715,38.729a.426.426,0,0,1-.388-.6,5.963,5.963,0,0,1,4.159-3.457.427.427,0,0,1,.188.832,5.127,5.127,0,0,0-3.57,2.978A.428.428,0,0,1,31.715,38.729Z" transform="translate(-31.288 -34.658)"/>
    </g>
  </g>
</svg>
