<svg xmlns="http://www.w3.org/2000/svg" viewBox="121.617 138 23.604 25.27">
  <defs>
    <style>
      .cls-1 {
        fill: #ff2334;
      }
    </style>
  </defs>
  <g id="Group_347" data-name="Group 347" transform="translate(121.617 138)">
    <g id="Group_166" data-name="Group 166">
      <g id="Group_162" data-name="Group 162" transform="translate(0 12.317)">
        <g id="Group_161" data-name="Group 161">
          <g id="Group_160" data-name="Group 160">
            <path id="Path_102" data-name="Path 102" class="cls-1" d="M1099.731,259.029a.635.635,0,0,0-.762,1.016c2.413,1.651,4.063,3.048,4.571,5.841a3.31,3.31,0,0,1-.254,2.667c-.889,1.016-3.809,1.016-8.889,1.016h-1.27c-5.079,0-8.127,0-8.889-1.016-.381-.381-.381-1.27-.127-2.667.508-2.667,1.9-3.937,4.571-5.841a.635.635,0,0,0-.762-1.016c-2.54,1.778-4.444,3.3-5.079,6.6-.254,1.4-.381,2.667.381,3.683,1.143,1.4,4.063,1.4,9.9,1.4h1.27c5.714,0,8.635,0,9.778-1.4a4.463,4.463,0,0,0,.508-3.683C1104.175,262.458,1102.27,260.807,1099.731,259.029Z" transform="translate(-1082.147 -258.395)"/>
            <path id="Path_103" data-name="Path 103" class="cls-1" d="M1094.5,271.452h-1.27c-5.968,0-8.889,0-10.286-1.651-.889-1.143-.762-2.667-.508-4.063.635-3.556,2.667-5.206,5.333-6.984a1.043,1.043,0,0,1,.889-.127c.254,0,.508.254.762.508a1.037,1.037,0,0,1-.254,1.524c-2.667,1.778-3.936,3.048-4.318,5.46-.254,1.143-.254,1.9,0,2.159.635.762,3.937.762,8.508.762h1.27c4.571,0,7.746,0,8.508-.762.254-.254.254-1.016.127-2.286-.381-2.667-1.9-3.81-4.318-5.46a1.055,1.055,0,0,1-.254-1.524,1.166,1.166,0,0,1,.762-.508,2.16,2.16,0,0,1,.889.127c2.667,1.778,4.7,3.556,5.333,6.984.254,1.524.381,2.921-.635,4.063C1103.392,271.452,1100.471,271.452,1094.5,271.452Zm-6.476-12.317.254.381c-2.54,1.651-4.318,3.175-4.825,6.349-.254,1.27-.381,2.413.381,3.3,1.016,1.27,4.063,1.27,9.524,1.27h1.27c5.333,0,8.381,0,9.4-1.27a4.058,4.058,0,0,0,.381-3.3c-.508-3.048-2.286-4.571-4.825-6.349h-.127c-.127.127-.127.127,0,.254,2.54,1.651,4.317,3.175,4.7,6.222.254,1.651.127,2.54-.381,3.048-1.016,1.143-3.936,1.143-9.27,1.143h-1.27c-5.333,0-8.254,0-9.27-1.143-.508-.635-.508-1.524-.254-3.048.508-2.794,2.032-4.317,4.7-6.222,0,0,.127-.127,0-.127Z" transform="translate(-1082.253 -258.5)"/>
          </g>
        </g>
      </g>
      <g id="Group_165" data-name="Group 165" transform="translate(5.139)">
        <g id="Group_164" data-name="Group 164">
          <g id="Group_163" data-name="Group 163">
            <path id="Path_104" data-name="Path 104" class="cls-1" d="M1092.668,249.2c-3.556,0-5.968,2.667-5.968,6.349,0,3.936,2.921,7.746,5.968,7.746s5.968-3.81,5.968-7.746A5.838,5.838,0,0,0,1092.668,249.2Zm0,12.825c-2.413,0-4.825-3.175-4.825-6.476,0-3.048,1.9-5.079,4.825-5.079a4.809,4.809,0,0,1,4.825,5.079C1097.494,258.724,1095.081,262.025,1092.668,262.025Z" transform="translate(-1086.192 -248.692)"/>
            <path id="Path_105" data-name="Path 105" class="cls-1" d="M1092.776,263.911c-3.3,0-6.476-4.063-6.476-8.254a6.518,6.518,0,0,1,6.476-6.857c3.81,0,6.476,2.921,6.476,6.857C1099.379,259.848,1096.078,263.911,1092.776,263.911Zm0-14.1c-3.175,0-5.46,2.413-5.46,5.841,0,3.683,2.667,7.238,5.46,7.238s5.46-3.683,5.46-7.238A5.306,5.306,0,0,0,1092.776,249.816Zm0,12.825c-2.667,0-5.333-3.429-5.333-6.984,0-3.3,2.159-5.587,5.333-5.587a5.273,5.273,0,0,1,5.333,5.587C1098.109,259.086,1095.443,262.641,1092.776,262.641Zm0-11.556a4.272,4.272,0,0,0-4.317,4.571c0,2.921,2.159,5.968,4.317,5.968,2.032,0,4.317-3.175,4.317-5.968A4.272,4.272,0,0,0,1092.776,251.086Z" transform="translate(-1086.3 -248.8)"/>
          </g>
        </g>
      </g>
    </g>
  </g>
</svg>
