<svg xmlns="http://www.w3.org/2000/svg" viewBox="3652 1872 180.758 103.5">
  <defs>
    <style>
      .cls-1 {
        fill: #e5e5e5;
      }

      .cls-2 {
        fill: #fff;
      }

      .cls-3, .cls-4 {
        fill: none;
        stroke-miterlimit: 10;
        stroke-width: 5px;
      }

      .cls-3 {
        stroke: #ae1631;
      }

      .cls-4 {
        stroke: #ff3646;
      }

      .cls-5 {
        fill: #ff3646;
      }
    </style>
  </defs>
  <g id="Group_1008" data-name="Group 1008" transform="translate(2913 1473)">
    <g id="icono_error_pagina_no_encontrada" transform="translate(739 399)">
      <path id="Path_169" data-name="Path 169" class="cls-1" d="M157.915,75.541c-13,3.25-25.89,5.716-39.227,6.276,8.966-3.362,18.044-6.725,27.011-10.087,9.527-3.586,8.854-17.708,1.345-21.631a64.712,64.712,0,0,0,12.441-10.647c6.164-6.837.785-18.493-7.958-19.053,8.07-6.725,5.38-18.045-5.268-19.838-15.018-2.578-34.632,4.371-49.09,7.958C60.632,17.484,39.225,29.14,1.9,17.932,0,17.372-.675,20.286.894,21.071c12.329,7.061,15.915,9.863,23.873,9.19C18.49,39.9,23.422,52.789,35.078,56.151a30.816,30.816,0,0,0,8.406,1.009,20.4,20.4,0,0,0-3.026,6.5C35.526,82.826,54.916,89.1,69.934,87.309c.224,6.388,4.819,12.1,13.674,13,26.674,2.8,53.349-6.276,78.23-14.122C169.011,83.946,164.864,73.859,157.915,75.541Z" transform="translate(-0.021 0)"/>
      <ellipse id="Ellipse_9" data-name="Ellipse 9" class="cls-1" cx="2.802" cy="2.802" rx="2.802" ry="2.802" transform="translate(22.392 8.518)"/>
      <ellipse id="Ellipse_10" data-name="Ellipse 10" class="cls-1" cx="4.707" cy="4.707" rx="4.707" ry="4.707" transform="translate(171.343 68.816)"/>
    </g>
    <g id="Group_897" data-name="Group 897" transform="translate(11 -280.672)">
      <rect id="Rectangle_144" data-name="Rectangle 144" class="cls-2" width="69.605" height="93.699" transform="translate(785.868 686.973)"/>
      <g id="Group_894" data-name="Group 894" transform="translate(785.757 686.75)">
        <path id="Path_445" data-name="Path 445" class="cls-3" d="M64.8,94.922H6.384A5.447,5.447,0,0,1,1,89.445V6.476A5.447,5.447,0,0,1,6.384,1H64.8a5.447,5.447,0,0,1,5.384,5.476V89.445A5.447,5.447,0,0,1,64.8,94.922Z" transform="translate(-1 -1)"/>
        <ellipse id="Ellipse_19" data-name="Ellipse 19" class="cls-4" cx="22.074" cy="22.454" rx="22.074" ry="22.454" transform="translate(12.652 34.228)"/>
        <line id="Line_25" data-name="Line 25" class="cls-3" x2="69.184" transform="translate(0 21.358)"/>
        <line id="Line_26" data-name="Line 26" class="cls-4" x2="6.461" transform="translate(8.345 10.679)"/>
        <line id="Line_27" data-name="Line 27" class="cls-4" x2="6.461" transform="translate(18.844 10.679)"/>
        <path id="Path_446" data-name="Path 446" class="cls-4" d="M5.7,23.734c5.922-2.738,13.46-5.2,21,0,8.614,6.024,18.305,1.1,23.151-2.191" transform="translate(6.952 33.222)"/>
      </g>
      <g id="Group_895" data-name="Group 895" transform="translate(863.815 728.573)">
        <g id="Group_800" data-name="Group 800" transform="translate(14.821)">
          <path id="Path_447" data-name="Path 447" class="cls-5" d="M11.869.489h0l6.84,6.84a1.574,1.574,0,0,1,0,2.28l-6.84,6.84a1.574,1.574,0,0,1-2.28,0h0a1.574,1.574,0,0,1,0-2.28l5.7-5.7-5.7-5.7a1.574,1.574,0,0,1,0-2.28,1.574,1.574,0,0,1,2.28,0Z" transform="translate(-9.1 0)"/>
        </g>
        <g id="Group_801" data-name="Group 801" transform="translate(0 6.84)">
          <path id="Path_448" data-name="Path 448" class="cls-5" d="M22.475,4.689a1.479,1.479,0,0,1,.489,1.14,1.539,1.539,0,0,1-1.629,1.629H1.629A1.539,1.539,0,0,1,0,5.829,1.539,1.539,0,0,1,1.629,4.2H21.335a1.268,1.268,0,0,1,1.14.489Z" transform="translate(0 -4.2)"/>
        </g>
      </g>
      <g id="Group_896" data-name="Group 896" transform="translate(776.817 745.292) rotate(179)">
        <g id="Group_800-2" data-name="Group 800" transform="translate(14.821 0)">
          <path id="Path_447-2" data-name="Path 447" class="cls-5" d="M2.769.489h0l6.84,6.84a1.574,1.574,0,0,1,0,2.28l-6.84,6.84a1.574,1.574,0,0,1-2.28,0h0a1.574,1.574,0,0,1,0-2.28l5.7-5.7-5.7-5.7a1.574,1.574,0,0,1,0-2.28,1.574,1.574,0,0,1,2.28,0Z" transform="translate(0 0)"/>
        </g>
        <g id="Group_801-2" data-name="Group 801" transform="translate(0 6.84)">
          <path id="Path_448-2" data-name="Path 448" class="cls-5" d="M22.475.489a1.479,1.479,0,0,1,.489,1.14,1.539,1.539,0,0,1-1.629,1.629H1.629A1.539,1.539,0,0,1,0,1.629,1.539,1.539,0,0,1,1.629,0H21.335a1.268,1.268,0,0,1,1.14.489Z" transform="translate(0 0)"/>
        </g>
      </g>
    </g>
  </g>
</svg>
