<svg xmlns="http://www.w3.org/2000/svg" viewBox="6550 1937 180.758 100.829">
  <defs>
    <style>
      .cls-1 {
        fill: #e5e5e5;
      }

      .cls-2 {
        fill: #fff;
      }

      .cls-3 {
        fill: #ff3646;
      }

      .cls-4 {
        fill: #ae1631;
      }
    </style>
  </defs>
  <g id="Group_1010" data-name="Group 1010" transform="translate(5817 1473)">
    <g id="icono_error_pagina_no_encontrada" transform="translate(733 464)">
      <path id="Path_169" data-name="Path 169" class="cls-1" d="M157.915,75.541c-13,3.25-25.89,5.716-39.227,6.276,8.966-3.362,18.044-6.725,27.011-10.087,9.527-3.586,8.854-17.708,1.345-21.631a64.712,64.712,0,0,0,12.441-10.647c6.164-6.837.785-18.493-7.958-19.053,8.07-6.725,5.38-18.045-5.268-19.838-15.018-2.578-34.632,4.371-49.09,7.958C60.632,17.484,39.225,29.14,1.9,17.932,0,17.372-.675,20.286.894,21.071c12.329,7.061,15.915,9.863,23.873,9.19C18.49,39.9,23.422,52.789,35.078,56.151a30.816,30.816,0,0,0,8.406,1.009,20.4,20.4,0,0,0-3.026,6.5C35.526,82.826,54.916,89.1,69.934,87.309c.224,6.388,4.819,12.1,13.674,13,26.674,2.8,53.349-6.276,78.23-14.122C169.011,83.946,164.864,73.859,157.915,75.541Z" transform="translate(-0.021 0)"/>
      <ellipse id="Ellipse_9" data-name="Ellipse 9" class="cls-1" cx="2.802" cy="2.802" rx="2.802" ry="2.802" transform="translate(22.392 8.518)"/>
      <ellipse id="Ellipse_10" data-name="Ellipse 10" class="cls-1" cx="4.707" cy="4.707" rx="4.707" ry="4.707" transform="translate(171.343 68.816)"/>
    </g>
    <path id="Path_489" data-name="Path 489" class="cls-2" d="M6469.172,2072.617s5.644,2.539,19.419,2.539,67.677-13.527,84.149-5.343,2.468,0,2.468,0l1.853,65.562h-4.32s-11.357-6.263-31.076-2.539-35.578,9.208-48.682,8.785a59.5,59.5,0,0,1-23.811-6.246Z" transform="translate(-5692.262 -1589.609)"/>
    <g id="Group_893" data-name="Group 893" transform="translate(774.339 474.994)">
      <path id="Path_486" data-name="Path 486" class="cls-3" d="M62.435,23.537c-8.975,1.693-18.245,3.471-27.262,3.471-1.651,0-3.3-.042-5.165-.212a3.185,3.185,0,0,0-2.074.8,3.109,3.109,0,0,0-1.016,2.286A4.565,4.565,0,0,1,24.8,33.866a4.692,4.692,0,0,1-4.149.762,4.665,4.665,0,0,0-.762-.085,3.125,3.125,0,0,0-1.9.635A3.068,3.068,0,0,0,16.8,37.634v29.76A3.163,3.163,0,0,0,19.128,70.4c4.487,1.143,7.789,4.868,7.789,8.763a3.092,3.092,0,0,0,2.836,3.09c1.9.127,3.81.212,5.715.212,10.541,0,20.955-2.074,31.072-4.106,9.821-1.947,19.981-3.979,29.845-3.979,1.736,0,3.471.042,5.5.212a2.949,2.949,0,0,0,2.074-.847,3.045,3.045,0,0,0,.974-2.244,6.017,6.017,0,0,1,2.117-4.7,4.655,4.655,0,0,1,4.106-.762,4.665,4.665,0,0,0,.762.085,3.125,3.125,0,0,0,1.9-.635,3.069,3.069,0,0,0,1.185-2.455V33.274a3.163,3.163,0,0,0-2.328-3.006c-4.487-1.143-7.747-4.868-7.747-8.763a1.826,1.826,0,0,0-.593-1.355,1.853,1.853,0,0,0-1.355-.55h0c-.212,0-19.812.085-37.465,3.387Zm38.862-.085c.847,4.7,4.741,8.848,9.906,10.372V61.975a8.4,8.4,0,0,0-6.477,1.651,9.739,9.739,0,0,0-3.6,6.9c-11.811-.762-23.791,1.609-35.348,3.937-11.472,2.286-23.283,4.7-35.009,3.895-.339-5.165-4.445-9.906-10.033-11.6V38.565a8.4,8.4,0,0,0,6.477-1.651,8.492,8.492,0,0,0,3.6-6.181c1.482.085,2.921.127,4.4.127,9.356,0,18.838-1.778,27.982-3.556l3.175-.593C80.553,24.087,96.132,23.579,101.3,23.452Z" transform="translate(-9.73 -11.303)"/>
      <path id="Path_487" data-name="Path 487" class="cls-4" d="M110.547,3.852A64.481,64.481,0,0,0,87.856,0C77.019,0,66.182,2.159,55.725,4.276c-10.16,2.032-20.7,4.149-30.9,4.149A58.222,58.222,0,0,1,4.291,4.953a4.61,4.61,0,0,0-1.1-.212,2.951,2.951,0,0,0-1.778.55A3.077,3.077,0,0,0,.1,7.874V71.2a3.128,3.128,0,0,0,2.032,2.921,64.719,64.719,0,0,0,22.733,3.852C35.66,77.977,46.5,75.818,57,73.7c10.16-2.032,20.7-4.149,30.9-4.149a58.056,58.056,0,0,1,20.531,3.471,4.61,4.61,0,0,0,1.1.212,2.951,2.951,0,0,0,1.778-.55,3.077,3.077,0,0,0,1.312-2.582V6.773A3.107,3.107,0,0,0,110.547,3.852Zm-1.82,65.193A62.549,62.549,0,0,0,87.856,65.7c-10.583,0-21.293,2.159-31.665,4.233C45.9,72.008,35.279,74.125,24.865,74.125A60.31,60.31,0,0,1,3.995,70.7V8.975a63.206,63.206,0,0,0,20.828,3.3c10.583,0,21.293-2.159,31.665-4.233C66.774,5.969,77.442,3.852,87.856,3.852a60.31,60.31,0,0,1,20.87,3.429V69.045Z" transform="translate(-0.1)"/>
      <path id="Path_488" data-name="Path 488" class="cls-4" d="M108,62.907c0,4.233,3.725,7.789,8.594,8.509v9.4c-2.54-.635-4.445-2.455-4.445-4.487a1.947,1.947,0,0,0-3.895,0c0,4.191,3.6,7.662,8.34,8.467v.593a1.947,1.947,0,1,0,3.895,0v-.55c4.868-.72,8.594-4.233,8.594-8.509s-3.725-7.789-8.594-8.509v-9.4c2.54.635,4.445,2.455,4.445,4.487a1.947,1.947,0,1,0,3.895,0c0-4.191-3.6-7.662-8.34-8.467v-.593a1.947,1.947,0,0,0-3.895,0v.55C111.725,55.117,108,58.631,108,62.907Zm3.895,0c0-2.117,2.032-3.979,4.7-4.53v9.1C113.927,66.844,111.895,65.023,111.895,62.907Zm13.335,13.42c0,2.117-2.032,3.979-4.741,4.53v-9.1C123.2,72.347,125.229,74.167,125.229,76.326Z" transform="translate(-62.323 -29.929)"/>
      <ellipse id="Ellipse_23" data-name="Ellipse 23" class="cls-3" cx="2.286" cy="2.286" rx="2.286" ry="2.286" transform="translate(99.779 58.927)"/>
      <ellipse id="Ellipse_24" data-name="Ellipse 24" class="cls-3" cx="2.286" cy="2.286" rx="2.286" ry="2.286" transform="translate(99.779 9.652)"/>
      <ellipse id="Ellipse_25" data-name="Ellipse 25" class="cls-3" cx="2.286" cy="2.286" rx="2.286" ry="2.286" transform="translate(8.34 63.669)"/>
      <ellipse id="Ellipse_26" data-name="Ellipse 26" class="cls-3" cx="2.286" cy="2.286" rx="2.286" ry="2.286" transform="translate(8.17 14.901)"/>
    </g>
  </g>
</svg>
