<svg xmlns="http://www.w3.org/2000/svg" viewBox="0 0 161.28 90"><defs><style>.cls-1{fill:#e5e5e5;}.cls-2{fill:#fff;}.cls-2,.cls-4{stroke:#ae1631;}.cls-2,.cls-3,.cls-4{stroke-miterlimit:10;stroke-width:3.36px;}.cls-3{fill:none;stroke:#505050;}.cls-4,.cls-5{fill:#e72f3c;}</style></defs><title>Reloj_de_arena</title><g id="Capa_2" data-name="Capa 2"><g id="icons"><path class="cls-1" d="M140.89,67.43c-11.64,2.87-23.07,5.09-35,5.59l24.11-9c8.55-3.18,7.94-15.83,1.19-19.31a55.49,55.49,0,0,0,11.11-9.52c5.47-6.09.68-16.5-7.09-17,7.18-6,4.75-16.1-4.66-17.73C117.11-1.82,99.68,4.37,86.7,7.57,54.05,15.64,35,26,1.68,16c-1.74-.52-2.27,2.06-.9,2.85,11,6.32,14.15,8.85,21.27,8.18-5.61,8.62-1.17,20.07,9.21,23.08a25.59,25.59,0,0,0,7.53.89,18.1,18.1,0,0,0-2.67,5.79c-4.42,17.05,13,22.68,26.27,21.1.16,5.66,4.32,10.81,12.24,11.63C98.43,92,122.23,84,144.48,77,150.84,74.94,147.09,65.91,140.89,67.43Z"/><circle class="cls-1" cx="22.5" cy="10.07" r="2.52"/><circle class="cls-1" cx="157.07" cy="65.58" r="4.21"/><path class="cls-2" d="M58.67,5.86v6.73A3.35,3.35,0,0,0,62,16h3.36V29.41L80.53,44.55,65.39,59.69V73.15H62a3.35,3.35,0,0,0-3.36,3.36v6.73h50.46V76.51a3.35,3.35,0,0,0-3.36-3.36H102.4V59.69L87.26,44.55,102.4,29.41V16h3.37a3.35,3.35,0,0,0,3.36-3.36V5.86Z"/><line class="cls-3" x1="102.4" y1="15.95" x2="65.39" y2="15.95"/><polyline class="cls-4" points="72.12 15.95 72.12 26.05 82.22 36.14 85.58 36.14 95.67 26.05 95.67 15.95"/><path class="cls-4" d="M65.39,73.15H62a3.35,3.35,0,0,0-3.36,3.36v6.73h50.46V76.51a3.35,3.35,0,0,0-3.36-3.36H65.39Z"/><path class="cls-4" d="M65.39,16H62a3.35,3.35,0,0,1-3.36-3.36V5.86h50.46v6.73A3.35,3.35,0,0,1,105.77,16H65.39Z"/><circle class="cls-5" cx="85.58" cy="52.96" r="3.36"/><circle class="cls-5" cx="87.26" cy="59.69" r="1.68"/></g></g></svg>