<svg xmlns="http://www.w3.org/2000/svg" viewBox="5061.818 -415 25 25">
  <defs>
    <style>
      .cls-1, .cls-4 {
        fill: #fff;
      }

      .cls-2 {
        fill: none;
      }

      .cls-3, .cls-4 {
        stroke: none;
      }
    </style>
  </defs>
  <g id="Group_476" data-name="Group 476" transform="translate(5061.819 -415)">
    <path id="Path_128" data-name="Path 128" class="cls-1" d="M10.79,10.28A3.716,3.716,0,0,0,13.6,6.131c-.366-2.319-3.051-2.685-4.759-2.2-1.464.488-3.295,1.952-2.929,3.295.122.366.244.488.854.488a3.637,3.637,0,0,0,1.952-.854c.244-.244,0-.854-.122-1.1a.447.447,0,0,1,.488-.488l3.173.854c.244,0,.244.244.122.366L10.668,9.059a.346.346,0,0,1-.61,0c-.366-.61-.366-.732-.732-.854s-1.342.488-1.708.854c-1.1.976-.61,6.589-.122,7.688.366.732,1.342.976,1.708.122s-.61-5.125.244-5.613a.769.769,0,0,1,1.1.366c.61.732,2.929,4.149,3.417,4.637s1.1,1.1,1.708.61c.488-.366.366-.976.122-1.464A9.457,9.457,0,0,0,10.79,10.28Z" transform="translate(2.472 2.367)"/>
    <g id="Path_305" data-name="Path 305" class="cls-2" transform="translate(0 0)">
      <path class="cls-3" d="M12.5,0A12.5,12.5,0,0,1,25,12.5a12.68,12.68,0,0,1-2.587,7.616A12.327,12.327,0,0,1,12.5,25a12.5,12.5,0,1,1,0-25Z"/>
      <path class="cls-4" d="M 12.50002956390381 23 C 15.7974100112915 23 18.975830078125 21.44437026977539 20.7949390411377 18.94018936157227 L 20.79654884338379 18.93796920776367 L 20.79817008972168 18.93576049804688 C 22.27980995178223 16.90784072875977 23.00005912780762 14.80268001556396 23.00005912780762 12.5 C 23.00005912780762 6.710279941558838 18.28977012634277 2 12.50002956390381 2 C 6.710289478302002 2 1.999999523162842 6.710279941558838 1.999999523162842 12.5 C 1.999999523162842 18.28972053527832 6.710289478302002 23 12.50002956390381 23 M 12.50002956390381 25 C 5.596449375152588 25 -4.360962009286595e-07 19.40356063842773 -4.360962009286595e-07 12.5 C -4.360962009286595e-07 5.596439838409424 5.596449375152588 -1.77635683940025e-15 12.50002956390381 -1.77635683940025e-15 C 19.40361022949219 -1.77635683940025e-15 25.00005912780762 5.596439838409424 25.00005912780762 12.5 C 25.00005912780762 15.24761009216309 24.11356925964355 17.78816032409668 22.41305923461914 20.11564064025879 C 20.33824920654297 22.97182083129883 16.6559886932373 25 12.50002956390381 25 Z"/>
    </g>
  </g>
</svg>
