<svg xmlns="http://www.w3.org/2000/svg" viewBox="122.339 183.92 21.957 27.363">
  <defs>
    <style>
      .cls-1 {
        fill: #ff2334;
        stroke: #ff2334;
        stroke-width: 0.5px;
      }
    </style>
  </defs>
  <g id="seguridad" transform="translate(122.589 184.192)">
    <g id="Group_351" data-name="Group 351" transform="translate(0)">
      <path id="Path_235" data-name="Path 235" class="cls-1" d="M10.8.034,10.728,0,.647,3.678A1.043,1.043,0,0,0,0,4.632V14.849c0,2.282,1.09,4.428,3.474,6.675A48.347,48.347,0,0,0,9.2,25.952l.988.681a1.027,1.027,0,0,0,1.158,0l.988-.681a54.634,54.634,0,0,0,5.722-4.428c2.316-2.248,3.406-4.359,3.406-6.675V4.632a1.043,1.043,0,0,0-.647-.954ZM2.35,4.87l8-2.929a1.159,1.159,0,0,1,.681,0l8,2.929a.963.963,0,0,1,.647.954v9.025c0,1.805-.92,3.542-2.929,5.449a43.3,43.3,0,0,1-5.449,4.257h0a1.027,1.027,0,0,1-1.158,0h0A50.4,50.4,0,0,1,4.632,20.3C2.622,18.391,1.7,16.654,1.7,14.849V5.824A1.008,1.008,0,0,1,2.35,4.87Z"/>
      <path id="Path_236" data-name="Path 236" class="cls-1" d="M26,25.405h0a.823.823,0,0,0-1.192,0l-6.028,5.858L16.394,28.5a.858.858,0,0,0-1.192-.1h0a.828.828,0,0,0-.1,1.192l2.963,3.474a.836.836,0,0,0,1.226.068l6.641-6.505A.866.866,0,0,0,26,25.405Z" transform="translate(-9.82 -16.584)"/>
    </g>
  </g>
</svg>
