<?xml version="1.0" encoding="UTF-8"?>
<svg width="269px" height="174px" viewBox="0 0 269 174" version="1.1" xmlns="http://www.w3.org/2000/svg" xmlns:xlink="http://www.w3.org/1999/xlink">
    <!-- Generator: Sketch 40.3 (33839) - http://www.bohemiancoding.com/sketch -->
    <title>Group 8</title>
    <desc>Created with Sketch.</desc>
    <defs>
        <circle id="path-1" cx="50" cy="49" r="49"></circle>
        <filter x="-50%" y="-50%" width="200%" height="200%" filterUnits="objectBoundingBox" id="filter-2">
            <feOffset dx="2" dy="2" in="SourceAlpha" result="shadowOffsetOuter1"></feOffset>
            <feComposite in="shadowOffsetOuter1" in2="SourceAlpha" operator="out" result="shadowOffsetOuter1"></feComposite>
            <feColorMatrix values="0 0 0 0 0   0 0 0 0 0   0 0 0 0 0  0 0 0 0.0418081975 0" type="matrix" in="shadowOffsetOuter1"></feColorMatrix>
        </filter>
        <mask id="mask-3" maskContentUnits="userSpaceOnUse" maskUnits="objectBoundingBox" x="0" y="0" width="98" height="98" fill="white">
            <use xlink:href="#path-1"></use>
        </mask>
        <path d="M50.5,68.5 C57.4035594,68.5 63,62.9035594 63,56 C63,56 38,56 38,56 C38,62.9035594 43.5964406,68.5 50.5,68.5 Z" id="path-4"></path>
        <mask id="mask-5" maskContentUnits="userSpaceOnUse" maskUnits="objectBoundingBox" x="0" y="0" width="25" height="12.5" fill="white">
            <use xlink:href="#path-4"></use>
        </mask>
        <path d="M43.6353629,93.1551771 C44.58375,91.9572604 45.0387097,90.6732135 44.9806452,89.3508333 C44.9224597,87.8941667 44.2647581,86.7538698 43.7227016,86.0542865 C44.3517339,84.5016667 44.5936694,82.0580365 42.4936694,80.1606563 C40.9547177,78.7708333 38.3420565,78.1480365 34.7224597,78.3201771 C32.1774194,78.4352969 30.0481452,78.9051198 29.9612903,78.9242865 L29.9518548,78.9242865 C29.4679839,79.0104167 28.9547177,79.1157135 28.4321371,79.2308333 C28.3934274,78.6173802 28.5002419,77.09375 29.6418145,73.6627969 C30.9965323,69.5805365 30.9195968,66.4561302 29.3904435,64.3673229 C27.783871,62.1726198 25.2193548,62 24.4642742,62 C23.7384677,62 23.0708468,62.2970833 22.5968952,62.8432135 C21.5228226,64.0794635 21.6485081,66.3601771 21.783629,67.4144635 C20.5064516,70.8070833 16.9260484,79.1255365 13.8966532,81.4347604 C13.8384677,81.4732135 13.7903226,81.5213698 13.7421774,81.5690469 C12.851371,82.4988698 12.2517339,83.505 11.8454032,84.3865469 C11.2740726,84.08 10.6258065,83.9073802 9.92879032,83.9073802 L4.02592742,83.9073802 C1.79987903,83.9073802 0,85.6995833 0,87.8941667 L0,103.467083 C0,105.67113 1.80979839,107.45387 4.02592742,107.45387 L9.92879032,107.45387 C10.7902016,107.45387 11.5935484,107.185297 12.2517339,106.725297 L14.5255645,106.99399 C14.8743145,107.041667 21.0677419,107.817917 27.4256855,107.693453 C28.5771774,107.779583 29.6611694,107.82738 30.6677419,107.82738 C32.4,107.82738 33.9096774,107.693453 35.167621,107.42488 C38.1289113,106.802083 40.1518548,105.55649 41.1771774,103.725833 C41.9611694,102.326786 41.9611694,100.936964 41.8354839,100.055417 C43.7615323,98.3305365 44.099879,96.4232135 44.0322581,95.0816667 C43.9935484,94.3054167 43.8191129,93.6441667 43.6353629,93.1551771 L43.6353629,93.1551771 Z" id="path-6"></path>
        <filter x="-50%" y="-50%" width="200%" height="200%" filterUnits="objectBoundingBox" id="filter-7">
            <feOffset dx="2" dy="2" in="SourceAlpha" result="shadowOffsetOuter1"></feOffset>
            <feComposite in="shadowOffsetOuter1" in2="SourceAlpha" operator="out" result="shadowOffsetOuter1"></feComposite>
            <feColorMatrix values="0 0 0 0 0   0 0 0 0 0   0 0 0 0 0  0 0 0 0.0418081975 0" type="matrix" in="shadowOffsetOuter1"></feColorMatrix>
        </filter>
        <mask id="mask-8" maskContentUnits="userSpaceOnUse" maskUnits="objectBoundingBox" x="0" y="0" width="44.9855776" height="45.8273802" fill="white">
            <use xlink:href="#path-6"></use>
        </mask>
    </defs>
    <g id="Page-1" stroke="none" stroke-width="1" fill="none" fill-rule="evenodd">
        <g id="Success-message" transform="translate(-52.000000, -133.000000)">
            <g id="Group-8" transform="translate(53.000000, 134.000000)">
                <g id="Group-2">
                    <path d="M260.819947,36.047023 C259.959194,36.047023 259.138106,36.2208148 258.389906,36.5354774 L256.600175,33.0503696 L259.101408,33.0503696 C259.372872,33.0503696 259.593654,33.2720541 259.593654,33.5441833 C259.593654,33.8166527 259.372872,34.0383372 259.101408,34.0383372 L258.567718,34.0383372 C258.286931,34.0383372 258.059199,34.2669121 258.059199,34.5487389 C258.059199,34.8304806 258.286931,35.0591405 258.567718,35.0591405 L259.101408,35.0591405 C259.933684,35.0591405 260.610691,34.3795407 260.610691,33.5441833 C260.610691,32.7091661 259.933684,32.0295663 259.101408,32.0295663 L255.766205,32.0295663 C255.588732,32.0295663 255.424226,32.1222892 255.331845,32.2741337 C255.239803,32.4263185 255.232853,32.6157626 255.313962,32.7739021 L256.20387,34.5068009 L248.864845,34.5068009 L248.124527,33.0503696 L249.295561,33.0503696 C249.576263,33.0503696 249.804079,32.8217948 249.804079,32.539968 C249.804079,32.2582262 249.576263,32.0295663 249.295561,32.0295663 L245.960018,32.0295663 C245.678977,32.0295663 245.4515,32.2582262 245.4515,32.539968 C245.4515,32.8217948 245.678977,33.0503696 245.960018,33.0503696 L246.982649,33.0503696 L247.970955,34.9946598 L246.809583,36.8009714 C245.920269,36.320173 244.90391,36.047023 243.825342,36.047023 C240.344787,36.047023 237.513186,38.8887695 237.513186,42.3822138 C237.513186,45.8755731 240.344787,48.7176598 243.825342,48.7176598 C247.134611,48.7176598 249.85705,46.1483828 250.116903,42.8926155 L251.608981,42.8926155 L251.029355,44.7859505 L250.695597,44.7859505 C250.414895,44.7859505 250.187078,45.0142702 250.187078,45.2963522 C250.187078,45.578179 250.414895,45.8067539 250.695597,45.8067539 L252.526433,45.8067539 C252.807135,45.8067539 253.034952,45.578179 253.034952,45.2963522 C253.034952,45.0142702 252.807135,44.7859505 252.526433,44.7859505 L252.093345,44.7859505 L252.76247,42.6004956 L256.993853,36.0450665 L257.486777,37.0047067 C255.699673,38.1248683 254.507876,40.1162855 254.507876,42.3822138 C254.507876,45.8755731 257.339476,48.7176598 260.819947,48.7176598 C264.300417,48.7176598 267.132102,45.8755731 267.132102,42.3822138 C267.132102,38.8887695 264.300417,36.047023 260.819947,36.047023 L260.819947,36.047023 Z M248.505238,36.0456619 L251.46702,41.8718121 L250.116903,41.8718121 C249.970195,40.035557 249.039945,38.4175836 247.663047,37.3559481 L248.505238,36.0456619 Z M249.095543,41.8718121 L244.758897,41.8718121 L247.108846,38.2175912 C248.208009,39.0925048 248.954514,40.3943694 249.095543,41.8718121 L249.095543,41.8718121 Z M243.825342,47.6968564 C240.905598,47.6968564 238.530223,45.3130254 238.530223,42.3822138 C238.530223,39.4516575 240.905598,37.0674861 243.825342,37.0674861 C244.701011,37.0674861 245.527015,37.2834711 246.255044,37.6626145 L243.397932,42.105406 C243.296907,42.2625246 243.289618,42.4622618 243.378693,42.626441 C243.467769,42.7905352 243.639224,42.8926155 243.825342,42.8926155 L249.095543,42.8926155 C248.838657,45.584474 246.573461,47.6968564 243.825342,47.6968564 L243.825342,47.6968564 Z M252.349638,41.3623462 L249.383873,35.5276042 L256.115811,35.5276042 L252.349638,41.3623462 Z M260.819947,47.6968564 C257.900287,47.6968564 255.524913,45.3130254 255.524913,42.3822138 C255.524913,40.5110812 256.494234,38.8635046 257.954868,37.9165393 L260.368043,42.6161479 C260.45839,42.7918962 260.636202,42.8929558 260.820286,42.8929558 C260.898767,42.8929558 260.97852,42.8746664 261.053018,42.836131 C261.302615,42.7068293 261.400675,42.3991421 261.272189,42.14862 L258.858082,37.44731 C259.465253,37.2034231 260.127005,37.0674861 260.819947,37.0674861 C263.739606,37.0674861 266.115065,39.4516575 266.115065,42.3822138 C266.115065,45.3130254 263.739606,47.6968564 260.819947,47.6968564 L260.819947,47.6968564 Z" id="Fill-1" fill="#ED2F3C" opacity="0.800000012" transform="translate(252.322644, 40.373613) rotate(-26.000000) translate(-252.322644, -40.373613) "></path>
                    <g id="Group-10" opacity="0.769999981" transform="translate(75.906605, 55.455918) rotate(-17.000000) translate(-75.906605, -55.455918) translate(60.906605, 40.955918)" fill="#ED2F3C">
                        <path d="M11.2973677,21.3485562 L11.0611476,23.5952198 C11.0420924,23.7765476 11.100216,23.9577682 11.2216793,24.0930138 C11.3427168,24.2286881 11.5152778,24.3060632 11.696568,24.3060632 L18.4496527,24.3060632 C18.6310493,24.3060632 18.8036102,24.2286881 18.9245413,24.0930138 C19.0460046,23.9577682 19.1042346,23.7765476 19.085073,23.5952198 L18.8488529,21.3485562 L27.260801,21.3485562 C28.5702844,21.3485562 29.6352443,20.2760218 29.6352443,18.9581806 L29.6352443,2.39198308 C29.6352443,1.07371319 28.5698586,0.00160751551 27.260801,0.00160751551 L2.37444321,0.00160751551 C1.06495987,0.00160751551 -3.87245791e-13,1.07371319 -3.87245791e-13,2.39198308 L-3.87245791e-13,18.9581806 C-3.87245791e-13,20.2760218 1.06495987,21.3485562 2.37444321,21.3485562 L11.2973677,21.3485562 Z M17.7399278,23.0200508 L12.4063993,23.0200508 L12.5818345,21.3485562 L17.5639603,21.3485562 L17.7399278,23.0200508 Z M2.37444321,1.28761992 L27.260801,1.28761992 C27.8658822,1.28761992 28.3578034,1.78284187 28.3578034,2.39198308 L28.3578034,16.9760068 L1.27744087,16.9760068 L1.27744087,2.39198308 C1.27744087,1.78284187 1.76936206,1.28761992 2.37444321,1.28761992 L2.37444321,1.28761992 Z M1.27744087,18.9581806 L1.27744087,18.2620192 L28.3578034,18.2620192 L28.3578034,18.9581806 C28.3578034,19.5668931 27.8658822,20.0625437 27.260801,20.0625437 L2.37444321,20.0625437 C1.76936206,20.0625437 1.27744087,19.5668931 1.27744087,18.9581806 L1.27744087,18.9581806 Z" id="Fill-1"></path>
                        <path d="M27.2433427,28.6263147 C27.3589511,28.434163 27.3668286,28.1950719 27.2641011,27.9958471 L26.0025218,25.5527451 C25.8926619,25.3396957 25.6740066,25.2061647 25.4357639,25.2061647 L4.1994804,25.2061647 C3.96123768,25.2061647 3.74290174,25.3396957 3.63272247,25.5527451 L2.37103671,27.9958471 C2.26841562,28.1950719 2.27629317,28.434163 2.39190157,28.6263147 C2.50793579,28.8184664 2.71498766,28.9356007 2.93790109,28.9356007 L26.6973432,28.9356007 C26.9202566,28.9356007 27.1273085,28.8184664 27.2433427,28.6263147 L27.2433427,28.6263147 Z M3.98987365,27.6495883 L4.58750307,26.4921771 L25.0477412,26.4921771 L25.6452642,27.6495883 L3.98987365,27.6495883 Z" id="Fill-4"></path>
                    </g>
                    <ellipse id="Oval" stroke="#ED2F3C" opacity="0.400000006" cx="113.542595" cy="55.2942961" rx="2.64110218" ry="2.63306172"></ellipse>
                    <ellipse id="Oval-Copy" stroke="#ED2F3C" cx="139.953617" cy="37.7405513" rx="2.64110218" ry="2.63306172"></ellipse>
                    <ellipse id="Oval-Copy-2" stroke="#ED2F3C" cx="183.971986" cy="64.0711685" rx="2.64110218" ry="2.63306172"></ellipse>
                    <g id="roller-skate" opacity="0.5" transform="translate(210.505667, 97.152113) scale(-1, 1) rotate(15.000000) translate(-210.505667, -97.152113) translate(201.005667, 88.152113)" fill="#ED2F3C">
                        <g id="Group-7" transform="translate(-0.000000, 0.000000)">
                            <path d="M17.9299247,12.8220883 C18.3462786,12.5614992 18.5946251,12.1123273 18.5946251,11.6206917 C18.5946251,11.5575651 18.5901934,11.491934 18.5808754,11.4245952 C18.3733803,9.93369313 17.2388043,8.75950526 15.757816,8.50267301 L14.7719298,8.33190689 C14.0077998,8.19962006 13.2824757,7.94722773 12.6089118,7.58036518 C12.6148776,7.56499622 12.6199911,7.54945651 12.6237978,7.53323373 C12.6475473,7.42895255 12.6213547,7.31932069 12.5527768,7.2374668 L11.2217849,5.64808956 C11.1234349,5.53071631 10.9594615,5.49337545 10.8200897,5.55650199 L10.4285647,5.733928 C10.354646,5.6396651 10.2829431,5.54358069 10.2137402,5.44533325 C10.2698752,5.42353211 10.3200445,5.38727276 10.3579982,5.33883211 C10.4227694,5.25657976 10.4460643,5.14916787 10.4216899,5.04756202 L9.94425777,3.06661806 C9.90744045,2.91321316 9.77051181,2.80534589 9.61290183,2.80534589 L9.13819694,2.80534589 L9.13819694,0.346370622 C9.13819694,0.157787899 8.98547321,0.00483837352 8.79729576,0.00483837352 L8.03072265,0.00483837352 C7.2525589,0.00483837352 6.61274421,0.607415104 6.55035929,1.37119506 L1.97682911,1.37119506 C1.80546945,1.37119506 1.6607569,1.49858658 1.63882559,1.66889733 L0.889297536,7.488493 C0.670041263,9.19239739 1.02804431,10.9269828 1.89802412,12.4025159 L0.0814753812,14.5366371 C0.0288629663,14.5984544 -1.29674049e-13,14.6771776 -1.29674049e-13,14.7582915 L-1.29674049e-13,16.1244205 C-1.29674049e-13,16.3130032 0.152723727,16.4659528 0.340901177,16.4659528 L2.24540242,16.4659528 C2.55408843,17.2239836 3.2975939,17.75962 4.16405106,17.75962 C5.08312063,17.75962 5.86389796,17.1568156 6.13423259,16.3250138 C6.40456722,17.1565879 7.18534455,17.75962 8.10441412,17.75962 C9.02365415,17.75962 9.80443147,17.1568156 10.0747661,16.3250138 C10.3448735,17.1565879 11.1256508,17.75962 12.0449476,17.75962 C12.9640172,17.75962 13.7447945,17.1568156 14.0151292,16.3250138 C14.2854638,17.1565879 15.0662411,17.75962 15.9853107,17.75962 C17.127841,17.75962 18.0570808,16.8286031 18.0570808,15.6841854 C18.0570808,14.7329612 17.4150502,13.9298481 16.5423432,13.6852541 L16.8539837,13.1671497 C17.2350544,13.1438117 17.6036822,13.0264384 17.9299247,12.8220883 L17.9299247,12.8220883 Z M17.5686262,12.2428496 C17.2982916,12.4120788 16.9864806,12.4967788 16.6681926,12.4880697 L2.51102125,12.099406 C2.13506407,11.4726374 1.86166133,10.7933298 1.69586972,10.0889195 C2.75982229,10.7519475 4.93840808,11.8895345 7.36312451,11.8895345 L17.8622558,11.8895345 C17.8061207,12.0333765 17.7046458,12.1574665 17.5686262,12.2428496 L17.5686262,12.2428496 Z M10.8655432,6.28561642 L11.7404661,7.33042049 L6.19173125,9.82855812 L5.69191331,8.63074761 L10.8655432,6.28561642 Z M9.65710535,4.78606216 L6.13599391,4.78606216 L6.13599391,3.48841039 L9.3446126,3.48841039 L9.65710535,4.78606216 Z M7.22682086,1.4934636 C7.22682086,1.04918707 7.58749431,0.68790287 8.03072265,0.68790287 L8.45639459,0.68790287 L8.45639459,2.8051182 L7.22682086,2.8051182 L7.22682086,1.4934636 Z M1.56558865,7.57615294 L2.27665169,2.05425955 L6.54501851,2.05425955 L6.54501851,2.80534589 L5.79509274,2.80534589 C5.65526644,2.80534589 5.53543967,2.88959051 5.48259999,3.01015139 L3.06788332,3.01015139 C2.87970587,3.01015139 2.72698215,3.16310092 2.72698215,3.35168364 L2.72698215,4.92256122 C2.72698215,5.11137163 2.87970587,5.26409347 3.06788332,5.26409347 L5.48259999,5.26409347 C5.53543967,5.38482512 5.65526644,5.46912666 5.79509274,5.46912666 L9.41159968,5.46912666 C9.52972194,5.65901859 9.65642355,5.84401522 9.79068179,6.02297812 L5.10908593,8.14514567 C4.94107847,8.22136428 4.86403481,8.41774533 4.93505588,8.58805607 L5.69787908,10.4155382 C5.73338962,10.5005228 5.80151304,10.5674062 5.88719287,10.6014456 C5.92736239,10.617213 5.96997504,10.625239 6.01236042,10.625239 C6.06008658,10.625239 6.10781275,10.6152207 6.15195945,10.5952411 L11.9472795,7.98616241 C12.0554019,8.05241967 12.1650017,8.1157739 12.2757946,8.17645279 L11.5626861,8.8386269 C11.4246211,8.96692918 11.4166668,9.18306217 11.5445047,9.32138273 C11.6117191,9.39384449 11.7029669,9.4307869 11.7946125,9.4307869 C11.877622,9.4307869 11.9606314,9.40050437 12.0263117,9.33959779 L12.9344724,8.49601313 C13.1189,8.57490708 13.3062252,8.6467427 13.4966753,8.71100768 L13.0303793,9.28290343 C12.9111775,9.42896539 12.9329384,9.64424455 13.0787305,9.76338239 C13.1420244,9.81518144 13.2183295,9.84056867 13.2942368,9.84056867 C13.3930413,9.84056867 13.4911072,9.79764945 13.5583784,9.71494173 L14.2113178,8.91421937 C14.3580189,8.94848644 14.5060269,8.97916742 14.6556257,9.00495311 L15.6415119,9.17571923 C16.7239299,9.3633912 17.5752738,10.1622921 17.8438471,11.20647 L7.36312451,11.20647 C4.6072794,11.20647 2.10245119,9.56085376 1.54269146,9.16729477 C1.49053358,8.6405382 1.49723797,8.10666637 1.56558865,7.57615294 L1.56558865,7.57615294 Z M3.4087845,4.58102897 L5.45419156,4.58102897 L5.45419156,3.69321589 L3.4087845,3.69321589 L3.4087845,4.58102897 Z M4.16405106,17.0765555 C3.39747794,17.0765555 2.77402651,16.4519499 2.77402651,15.6839578 C2.77402651,14.9161933 3.39747794,14.2915877 4.16405106,14.2915877 C4.9303969,14.2915877 5.55384834,14.9161933 5.55384834,15.6839578 C5.55384834,16.4519499 4.9303969,17.0765555 4.16405106,17.0765555 L4.16405106,17.0765555 Z M8.10441412,17.0765555 C7.33801146,17.0765555 6.71438957,16.4519499 6.71438957,15.6839578 C6.71438957,14.9161933 7.33801146,14.2915877 8.10441412,14.2915877 C8.87075997,14.2915877 9.49438185,14.9161933 9.49438185,15.6839578 C9.49438185,16.4519499 8.87075997,17.0765555 8.10441412,17.0765555 L8.10441412,17.0765555 Z M12.0449476,17.0765555 C11.2783745,17.0765555 10.6549231,16.4519499 10.6549231,15.6839578 C10.6549231,14.9161933 11.2783745,14.2915877 12.0449476,14.2915877 C12.8112935,14.2915877 13.4347449,14.9161933 13.4347449,15.6839578 C13.4347449,16.4519499 12.8112935,17.0765555 12.0449476,17.0765555 L12.0449476,17.0765555 Z M14.0151292,15.0431294 C13.7447945,14.2113276 12.9640172,13.6085232 12.0449476,13.6085232 C11.1256508,13.6085232 10.3448735,14.2113276 10.0745388,15.0431294 C9.80443147,14.2113276 9.02365415,13.6085232 8.10441412,13.6085232 C7.18534455,13.6085232 6.40433995,14.2113276 6.13423259,15.0431294 C5.86389796,14.2113276 5.08312063,13.6085232 4.16405106,13.6085232 C3.02152076,13.6085232 2.09222415,14.5395401 2.09222415,15.6839578 C2.09222415,15.7170864 2.09313322,15.7499873 2.09466728,15.7828883 L0.681802353,15.7828883 L0.681802353,14.8841462 L2.47153353,12.7816167 L16.0654225,13.1546838 L15.7868494,13.6180861 C14.9550505,13.6976631 14.2656915,14.2720065 14.0151292,15.0431294 L14.0151292,15.0431294 Z M17.3752784,15.6839578 C17.3752784,16.4519499 16.7516566,17.0765555 15.9853107,17.0765555 C15.218908,17.0765555 14.5952862,16.4519499 14.5952862,15.6839578 C14.5952862,14.9161933 15.218908,14.2915877 15.9853107,14.2915877 C16.7516566,14.2915877 17.3752784,14.9161933 17.3752784,15.6839578 L17.3752784,15.6839578 Z" id="Fill-6"></path>
                        </g>
                    </g>
                    <ellipse id="Oval-Copy-3" stroke="#ED2F3C" opacity="0.400000006" cx="254.103789" cy="9.06163315" rx="2.64110218" ry="2.63306172"></ellipse>
                    <ellipse id="Oval-Copy-4" stroke="#ED2F3C" cx="42.1336395" cy="77.3652046" rx="2.64110218" ry="2.63306172"></ellipse>
                    <ellipse id="Oval-Copy-6" stroke="#ED2F3C" cx="34.3095293" cy="46.5174237" rx="2.64110218" ry="2.63306172"></ellipse>
                    <ellipse id="Oval-Copy-7" stroke="#ED2F3C" opacity="0.400000006" cx="60.7205511" cy="20.1868065" rx="2.64110218" ry="2.63306172"></ellipse>
                    <ellipse id="Oval-Copy-8" stroke="#ED2F3C" cx="78.327899" cy="2.63306172" rx="2.64110218" ry="2.63306172"></ellipse>
                    <ellipse id="Oval-Copy-9" stroke="#ED2F3C" cx="148.75729" cy="2.63306172" rx="2.64110218" ry="2.63306172"></ellipse>
                    <ellipse id="Oval-Copy-10" stroke="#ED2F3C" cx="192.77566" cy="2.63306172" rx="2.64110218" ry="2.63306172"></ellipse>
                    <ellipse id="Oval-Copy-11" stroke="#ED2F3C" opacity="0.400000006" cx="227.990356" cy="28.9636789" rx="2.64110218" ry="2.63306172"></ellipse>
                    <ellipse id="Oval-Copy-12" stroke="#ED2F3C" cx="227.990356" cy="72.8480409" rx="2.64110218" ry="2.63306172"></ellipse>
                    <ellipse id="Oval-Copy-25" stroke="#ED2F3C" cx="13.1187141" cy="61.293776" rx="2.64110218" ry="2.63306172"></ellipse>
                    <ellipse id="Oval-Copy-15" stroke="#ED2F3C" opacity="0.400000006" cx="2.64110218" cy="87.0080617" rx="2.64110218" ry="2.63306172"></ellipse>
                    <ellipse id="Oval-Copy-16" stroke="#ED2F3C" cx="262.16349" cy="75.7580617" rx="2.64110218" ry="2.63306172"></ellipse>
                    <path d="M33.1235079,21.4882942 C33.1235079,14.4735445 27.3971382,8.76652364 20.3586059,8.76652364 C13.3194551,8.76652364 7.59285349,14.4735445 7.59285349,21.4882942 C7.59285349,22.6994768 7.7634841,23.8949407 8.0993334,25.0456374 C7.41557392,26.7693708 7.77137007,28.8112525 9.16811349,30.2032765 C10.0762364,31.1086391 11.2842579,31.6070894 12.5689742,31.6070894 C13.7625381,31.6070894 14.8889939,31.1763679 15.7711395,30.3895885 C15.8826254,30.4181749 15.997977,30.4344329 16.1160345,30.4344329 C16.483273,30.4344329 16.8287865,30.2921176 17.0887914,30.0329142 L17.8094293,29.3147882 C18.3457522,28.7802775 18.3457522,27.9104359 17.8094293,27.3758482 L12.0051278,21.5909277 C11.7451229,21.3321095 11.3996094,21.189409 11.0323709,21.189409 C10.6648231,21.189409 10.3193869,21.3321095 10.0593048,21.5912359 L9.33905336,22.3093618 C9.07904848,22.5681799 8.93586411,22.912526 8.93586411,23.2788318 C8.93586411,23.3964904 8.95217723,23.5112211 8.9808605,23.6222532 C8.90478414,23.7071647 8.8335012,23.7941565 8.76461499,23.8829206 C8.60248884,23.0991462 8.52061398,22.2976499 8.52061398,21.4882942 C8.52061398,17.7822404 10.2447795,14.4705394 12.9353623,12.3061448 L13.1008129,12.5638072 C13.3931348,13.0179525 13.8935842,13.2680637 14.4030794,13.2680637 C14.6763822,13.2680637 14.952159,13.1958659 15.1991752,13.0450749 C16.7508546,12.0996451 18.5350927,11.5997308 20.3586059,11.5997308 C22.1818099,11.5997308 23.9655068,12.0996451 25.5174955,13.0450749 C26.2271549,13.4766439 27.1682133,13.2605897 27.6157804,12.563499 L27.7809991,12.3058366 C30.4715819,14.4702312 32.1957474,17.7822404 32.1957474,21.4882942 C32.1957474,22.2970335 32.1138726,23.0985298 31.9519783,23.8816878 C31.8831694,23.7932319 31.811268,23.7065483 31.7357328,23.6222532 C31.7644934,23.5112211 31.7807292,23.3962593 31.7807292,23.2785236 C31.7807292,22.912526 31.6376222,22.5681799 31.3776173,22.3090536 L30.6569793,21.5909277 C30.1209657,21.0563399 29.248175,21.0563399 28.7114656,21.5909277 L22.9072413,27.37554 C22.3709184,27.9104359 22.3709184,28.7799693 22.9072413,29.31448 L23.627802,30.0329142 C23.8875749,30.2918094 24.233011,30.4344329 24.6005588,30.4344329 C24.7186937,30.4344329 24.8340452,30.4181749 24.9451445,30.3895885 C25.8275994,31.1760597 26.9541326,31.6070894 28.1473099,31.6070894 C29.4323355,31.6070894 30.640125,31.1083309 31.5485572,30.2029683 C32.4569893,29.2976056 32.9573615,28.0939741 32.9570522,26.8132905 C32.9570522,26.1965652 32.8399224,25.5979471 32.618265,25.0417077 C32.9534185,23.8925521 33.1235079,22.6979357 33.1235079,21.4882942 L33.1235079,21.4882942 Z M9.82404016,29.5495661 C8.42157555,28.1517632 8.31975383,25.9422931 9.51633293,24.4252906 L14.9659981,29.8562336 C14.2850219,30.3914378 13.4496508,30.6824637 12.5689742,30.6824637 C11.5318926,30.6824637 10.5573575,30.2800204 9.82404016,29.5495661 L9.82404016,29.5495661 Z M9.99498003,22.9630722 L10.715618,22.2449462 C10.8001215,22.1606512 10.9125352,22.1140346 11.0323709,22.1140346 C11.1519747,22.1140346 11.264311,22.1606512 11.3488918,22.2449462 L17.1534254,28.0295586 C17.327999,28.2038505 17.327999,28.4867859 17.1534254,28.6610779 L16.4328647,29.3792038 C16.3482839,29.4634989 16.2356383,29.5098072 16.1160345,29.5098072 C15.9964307,29.5098072 15.8837851,29.4634989 15.7992816,29.3792038 L9.99498003,23.5942833 C9.91016726,23.5099882 9.8636246,23.3980315 9.8636246,23.2788318 C9.8636246,23.1596322 9.91016726,23.0473672 9.99498003,22.9630722 L9.99498003,22.9630722 Z M26.8342195,12.0653569 C26.6566307,12.3419741 26.2827432,12.4274249 26.0013225,12.256138 C24.3037528,11.2220212 22.3524405,10.6754134 20.3586059,10.6754134 C18.3641528,10.6754134 16.4126086,11.2220212 14.7147296,12.2564462 C14.4338501,12.4280413 14.0602719,12.3419741 13.8821419,12.0650487 L13.6812817,11.7522941 C15.5833454,10.4526556 17.8834182,9.69114932 20.3586059,9.69114932 C22.8335617,9.69114932 25.1333253,10.4526556 27.0350797,11.7522941 L26.8342195,12.0653569 Z M24.2838059,29.3792038 L23.563168,28.6610779 C23.3886717,28.4867859 23.3886717,28.2038505 23.563168,28.0295586 L29.3674696,22.2449462 C29.4549883,22.1579544 29.5697987,22.1143428 29.6842224,22.1143428 C29.7990328,22.1143428 29.9137659,22.1579544 30.0010527,22.2449462 L30.7216133,22.9630722 C30.8065034,23.0473672 30.8529687,23.1596322 30.8529687,23.2788318 C30.8529687,23.3980315 30.8065034,23.5102965 30.7216133,23.5945915 L24.917389,29.3792038 C24.8328082,29.4634989 24.7201626,29.5101154 24.6005588,29.5101154 C24.4810324,29.5098072 24.3683095,29.4634989 24.2838059,29.3792038 L24.2838059,29.3792038 Z M30.8925532,29.5495661 C30.1593131,30.2800204 29.1847007,30.6824637 28.1476191,30.6824637 C27.2667105,30.6824637 26.4316488,30.3914378 25.7505953,29.8562336 L31.2003377,24.4246742 C31.7372791,25.1037347 32.029601,25.9359749 32.029601,26.8132905 C32.029601,27.8468679 31.6258705,28.8188036 30.8925532,29.5495661 L30.8925532,29.5495661 Z" id="headphones" fill="#ED2F3C" opacity="0.800000012" transform="translate(20.358181, 20.186807) rotate(11.000000) translate(-20.358181, -20.186807) "></path>
                    <g id="television" opacity="0.800000012" transform="translate(41.970698, 101.970698) rotate(18.000000) translate(-41.970698, -101.970698) translate(32.470698, 92.470698)" fill="#ED2F3C">
                        <path d="M17.8269116,3.08653658 L11.8629346,3.08653658 C11.8167234,2.79350006 11.7157689,2.51829413 11.5715304,2.27044893 L16.5501888,0.730193394 C16.7469909,0.66944642 16.8567268,0.462365639 16.7949459,0.267827756 C16.7334141,0.0735358117 16.5236579,-0.0348003925 16.3268557,0.0262540064 L11.0591597,1.65578546 C10.634665,1.29124212 10.0809409,1.0697739 9.47564978,1.0697739 C8.87017177,1.0697739 8.31669687,1.29124212 7.89220211,1.65578546 L2.62450612,0.0262540064 C2.42745486,-0.0348003925 2.21794776,0.0735358117 2.15616683,0.267827756 C2.09463502,0.462365639 2.20412178,0.66944642 2.40117305,0.730193394 L7.37983145,2.27044893 C7.2353438,2.51829413 7.13438928,2.79350006 7.08811586,3.08653658 L1.12445025,3.08653658 C0.504585762,3.08653658 6.71462885e-13,3.58468637 6.71462885e-13,4.1966445 L6.71462885e-13,16.683591 C6.71462885e-13,17.2957951 0.504585762,17.7936374 1.12445025,17.7936374 L1.30468614,17.7936374 L1.30468614,18.506984 C1.30468614,18.7106216 1.47209253,18.8758927 1.67836111,18.8758927 C1.88469197,18.8758927 2.05203607,18.7106216 2.05203607,18.506984 L2.05203607,17.7936374 L16.8993258,17.7936374 L16.8993258,18.506984 C16.8993258,18.7106216 17.0666699,18.8758927 17.2730007,18.8758927 C17.4795184,18.8758927 17.6466757,18.7106216 17.6466757,18.506984 L17.6466757,17.7936374 L17.8269116,17.7936374 C18.4470252,17.7936374 18.9513618,17.2957951 18.9513618,16.683591 L18.9513618,4.1966445 C18.9516109,3.58468637 18.4470252,3.08653658 17.8269116,3.08653658 L17.8269116,3.08653658 Z M9.47564978,1.80759141 C10.2675293,1.80759141 10.9319234,2.35499052 11.1020078,3.08653658 L7.84935405,3.08653658 C8.01943844,2.35499052 8.68383252,1.80759141 9.47564978,1.80759141 L9.47564978,1.80759141 Z M18.204261,16.683591 C18.204261,16.8888887 18.034924,17.0558199 17.8271607,17.0558199 L1.12445025,17.0558199 C0.91668697,17.0558199 0.747349931,16.8888887 0.747349931,16.683591 L0.747349931,4.1966445 C0.747349931,3.9912853 0.91668697,3.82435409 1.12445025,3.82435409 L17.8269116,3.82435409 C18.034924,3.82435409 18.204261,3.99153124 18.204261,4.1966445 L18.204261,16.683591 Z" id="Fill-1"></path>
                        <path d="M17.2077944,5.10926328 C17.1790837,4.94356176 17.0406372,4.81794833 16.8708642,4.80405277 C11.9637023,4.39647008 6.98765958,4.39647008 2.08049765,4.80405277 C1.91097377,4.81819427 1.77227808,4.94356176 1.74356739,5.10926328 C1.15023382,8.53224464 1.15023382,12.0034916 1.74356739,15.4264729 C1.77227808,15.5922359 1.91097377,15.7178494 2.08049765,15.7319909 C4.53423431,15.9356285 7.00497318,16.0375088 9.47564978,16.0375088 C11.9466378,16.0375088 14.4173766,15.9356285 16.8708642,15.7319909 C17.0403881,15.7178494 17.1790837,15.5922359 17.2077944,15.4264729 C17.8013771,12.0034916 17.8013771,8.53224464 17.2077944,5.10926328 L17.2077944,5.10926328 Z M16.5188001,15.0203659 C11.8437526,15.3928407 7.10785836,15.3928407 2.43274858,15.0203659 C1.91701485,11.8653967 1.91701485,8.67058542 2.43274858,5.51567776 C7.10785836,5.14289546 11.8437526,5.14289546 16.5188001,5.51567776 C17.0345961,8.67058542 17.0345961,11.8653967 16.5188001,15.0203659 L16.5188001,15.0203659 Z" id="Fill-3"></path>
                        <path d="M15.9186781,8.30671842 C15.7125963,8.31803162 15.5547187,8.49191062 15.5661158,8.69536379 C15.6386087,9.98943422 15.6211083,11.3012123 15.5136144,12.5943604 C15.4967991,12.7973217 15.649819,12.9755046 15.8554025,12.9920441 C15.8658654,12.9930278 15.8763283,12.9935197 15.886542,12.9935197 C16.0789847,12.9935197 16.2424674,12.8474933 16.2585355,12.6546155 C16.3687073,11.3281426 16.3869551,9.98217901 16.3122824,8.65453789 C16.300823,8.45108471 16.1254449,8.29571264 15.9186781,8.30671842 L15.9186781,8.30671842 Z" id="Fill-4"></path>
                        <path d="M15.8476176,7.86169149 C15.859762,7.86169149 15.8719687,7.86095368 15.8841132,7.8600314 C16.0894476,7.84029479 16.2400386,7.65995989 16.220047,7.45724453 C16.1831154,7.07899009 16.1378385,6.69563241 16.085524,6.31786984 C16.0578097,6.1158923 15.8685434,5.97466173 15.6648905,6.00202246 C15.4603035,6.02962914 15.3172482,6.21555915 15.3450247,6.41729075 C15.3958445,6.78570763 15.440125,7.1594122 15.4761224,7.52807501 C15.4948684,7.71904678 15.6573547,7.86169149 15.8476176,7.86169149 L15.8476176,7.86169149 Z" id="Fill-5"></path>
                        <path d="M17.739098,16.0360332 C17.4524893,15.8499187 17.0739565,16.1249402 17.174226,16.4498873 C17.2196898,16.5973278 17.3571399,16.7032661 17.5130869,16.7109517 C17.6758223,16.7191292 17.827908,16.6179867 17.8833365,16.4669186 C17.9405088,16.3108087 17.8799734,16.127584 17.739098,16.0360332 L17.739098,16.0360332 Z" id="Fill-6"></path>
                    </g>
                    <g id="key" opacity="0.600000024" transform="translate(167.697589, 24.816345)" fill="#ED2F3C">
                        <path d="M27.2464519,17.4046354 C26.4978314,13.1923277 25.1867615,9.0945505 23.3496038,5.22532441 C22.9385042,4.359464 22.0548752,3.82317601 21.0944164,3.85928539 C19.2639322,3.92802065 17.5170368,4.31366882 15.8754616,5.009008 C15.8700716,4.91206494 15.8627137,4.81512188 15.8520191,4.71860363 C15.5275028,1.83180752 12.8986896,-0.255399509 9.99207399,0.0672059253 C7.6483355,0.327023523 5.78773533,2.07905056 5.36568444,4.33295547 L4.02253081,3.99208294 C3.17124228,3.77602141 2.30104573,4.23065973 1.99791857,5.0494505 L0.142708469,10.0593081 C-0.0233569617,10.5090186 0.00966789989,11.0097919 0.23425407,11.4336736 C0.458498014,11.8574702 0.855224136,12.1684357 1.32244893,12.2869594 L2.83337912,12.6702286 L2.69169733,14.6553098 L1.89627729,16.0472626 C1.85649345,16.1165926 1.83382094,16.1939092 1.82979978,16.2736047 L1.72550624,18.3750855 L1.1236153,19.1480811 C1.06210008,19.227012 1.02531073,19.3220009 1.01769619,19.4214928 L0.829813815,21.8923939 L0.0728942541,23.149595 C-0.0340515412,23.3271682 -0.0224158387,23.5512162 0.10224018,23.7164698 L1.539335,25.6244893 C1.6379818,25.7555876 1.79164152,25.8289109 1.95043464,25.8289109 C2.00322308,25.8289109 2.0570382,25.8206694 2.1091422,25.8037617 L4.78381376,24.9388359 C4.9512481,24.8847143 5.0788986,24.7492829 5.12236137,24.580376 L7.8578637,13.9444223 L9.28657397,14.3067906 C9.4256035,14.3419654 9.56694306,14.3592129 9.70802596,14.3592129 C10.0415257,14.3592129 10.3714321,14.2626947 10.653769,14.0761154 C11.055543,13.8112849 11.3265864,13.3874883 11.3974273,12.9139032 L11.7690853,10.4360351 C12.1293643,10.3543855 12.4765531,10.2368813 12.8057751,10.0864964 C13.5824582,13.7907238 14.7953091,17.3950345 16.4215696,20.8200728 C16.8199213,21.658745 17.6623975,22.1881509 18.5861525,22.1881509 C18.6166107,22.1881509 18.6466411,22.1874712 18.6770992,22.1864517 C21.3918113,22.0845807 23.9224055,21.2860962 26.1987254,19.8131734 C27.0024444,19.2927735 27.4138863,18.3475575 27.2464519,17.4046354 L27.2464519,17.4046354 Z M5.63065334,7.22365989 C5.63407561,7.22365989 5.63741232,7.2243396 5.64074903,7.2243396 C5.7700251,7.55323231 5.93283938,7.86887076 6.12628294,8.1655624 C6.22492974,8.31586238 6.38971182,8.39785191 6.55774505,8.39785191 C6.65339737,8.39785191 6.75024749,8.37134338 6.83648857,8.31586238 C7.07450714,8.16292854 7.14226799,7.8472901 6.98792382,7.61100732 C6.97252363,7.58704768 6.95746566,7.56283316 6.94274992,7.53861863 L7.8231277,7.761987 C8.11581696,7.83632984 8.29300475,8.13302148 8.21814269,8.42342585 C8.14362286,8.71383021 7.84451686,8.89004398 7.55208428,8.81570114 L5.49632942,8.29436668 C5.35464763,8.25851219 5.23529613,8.16989553 5.1607763,8.04508453 C5.08625647,7.91993367 5.06520953,7.77362696 5.10131444,7.63284287 C5.13741934,7.49214374 5.22665491,7.37404483 5.35233761,7.29995688 C5.43815091,7.24957368 5.53380323,7.22365989 5.63065334,7.22365989 L5.63065334,7.22365989 Z M1.7733324,22.3122822 C1.81405736,22.2442267 1.838441,22.1679297 1.84451552,22.0892537 L2.03000231,19.6508936 L2.63617108,18.8722904 C2.70068078,18.7896212 2.73781236,18.6893646 2.7428602,18.5851996 L2.84946377,16.4448056 L3.642146,15.0582055 C3.67996204,14.9921891 3.70229232,14.918441 3.70768239,14.8424838 L3.84440189,12.9264777 L4.56093872,13.108384 L1.7184906,24.1602328 L1.13063095,23.3795905 L1.7733324,22.3122822 Z M6.8632678,13.6921665 L4.19757969,24.0563227 L2.67869272,24.5474952 L5.55587684,13.3605549 L6.43283236,13.5829887 L6.8632678,13.6921665 Z M10.3821267,12.7638581 C10.3533797,12.9553652 10.2480594,13.119939 10.0856729,13.2271626 C9.9232009,13.3343863 9.72975734,13.3669272 9.54059162,13.3190929 L1.57680881,11.2989218 C1.38764308,11.2510875 1.23389781,11.1302698 1.1429511,10.9590689 C1.05208996,10.7874431 1.03934202,10.5929623 1.10658953,10.4111409 L2.96137185,5.40128329 C3.08200671,5.07502444 3.42893887,4.89379784 3.76817093,4.97978064 L5.27644887,5.36245509 C5.2787589,5.53730944 5.28876903,5.71258861 5.30819038,5.88650837 C5.32119499,6.00095386 5.33924744,6.11480461 5.35969548,6.2283155 C5.17480759,6.26085642 4.99505309,6.32491871 4.82864544,6.42279636 C4.46699753,6.63588418 4.21066985,6.976077 4.10637631,7.38067196 C4.002425,7.78518196 4.06325577,8.20575002 4.27783181,8.56480468 C4.49206563,8.92428417 4.8346344,9.17883404 5.2420551,9.28206438 L7.29806663,9.80339884 C7.42802716,9.83661947 7.55935659,9.85284745 7.69042936,9.85284745 C7.96942955,9.85284745 8.24415191,9.77850461 8.49046947,9.63347236 C8.85211737,9.42038454 9.10878728,9.08027668 9.21273859,8.67568172 C9.31694657,8.27108675 9.25620136,7.85060366 9.04162532,7.49146403 C8.82704927,7.13206952 8.4844805,6.87751964 8.0770598,6.7742893 L6.43745242,6.35805437 C6.38800069,6.16629233 6.35086911,5.97079191 6.32888105,5.77333733 C6.32314876,5.72422858 6.31946982,5.67503486 6.31544866,5.6259261 L10.668827,6.72976856 C11.008059,6.81609121 11.2249451,7.14005606 11.1735256,7.48415719 L10.3821267,12.7638581 Z M11.9341241,9.33278744 L12.1888262,7.63454213 C12.3181878,6.77165544 11.7740476,5.95813239 10.9228446,5.74241071 L6.36259037,4.58580608 C6.67846547,2.73717584 8.19239015,1.29246085 10.1060354,1.0803926 C12.4502017,0.820914855 14.5700385,2.50352692 14.8316707,4.83143482 C14.8561399,5.05013021 14.8628133,5.27052486 14.8534021,5.48888039 C14.418261,5.71386306 13.9911623,5.96153092 13.5727903,6.23230877 C12.7686435,6.75270863 12.3576294,7.69792471 12.5250638,8.64084679 C12.5494474,8.77721279 12.5757988,8.91298405 12.6012092,9.04901021 C12.3886865,9.16184139 12.1657259,9.2568303 11.9341241,9.33278744 L11.9341241,9.33278744 Z M25.6382438,18.958868 C23.5196904,20.32958 21.1645729,21.0726685 18.6383421,21.1675725 C18.0915496,21.1875388 17.5855677,20.8808215 17.3502869,20.3853159 C15.7083695,16.9273968 14.4974865,13.2825587 13.7411658,9.53627441 C14.3307366,9.10151749 14.8303873,8.54288417 15.2040132,7.88441903 C15.3430427,7.63887526 15.2555182,7.32816468 15.0085162,7.18984452 C14.7615142,7.05177925 14.4487192,7.13869665 14.3093474,7.38398553 C14.095798,7.76028773 13.8304014,8.09589254 13.5249642,8.38459765 C13.4644756,7.87150462 13.6971041,7.369032 14.1331863,7.08661418 C16.2513975,5.71590218 18.6066006,4.97281366 21.1331736,4.87824957 C21.1501994,4.87756986 21.1675674,4.87723001 21.1845931,4.87723001 C21.7117076,4.87723001 22.1932203,5.18020893 22.4211432,5.66050614 C24.2192015,9.44731789 25.502551,13.4585176 26.2351725,17.5818687 C26.3310815,18.1215552 26.0967419,18.6621763 25.6382438,18.958868 L25.6382438,18.958868 Z" id="Fill-1"></path>
                        <path d="M24.5142863,15.4571079 C24.338553,14.9078206 23.7453033,14.6028875 23.1921796,14.777402 L18.2055111,16.3509212 C17.6523874,16.5254357 17.3452391,17.114231 17.521058,17.6638582 L17.9963251,19.1493556 C18.1386913,19.5941382 18.5537266,19.8785101 19.0002467,19.8785101 C19.1055669,19.8785101 19.2127693,19.862622 19.3184318,19.8294014 L24.3051003,18.2559671 C24.858224,18.0813676 25.1653723,17.4922325 24.9895534,16.9430301 L24.5142863,15.4571079 Z M19.0072623,18.8576768 C18.9939155,18.8619249 18.9791997,18.8543632 18.9748363,18.8406841 L18.4993126,17.3548469 C18.4949492,17.3415927 18.5026493,17.326979 18.5163383,17.3226459 L20.5205881,16.6900945 L21.0115121,18.2250405 L19.0072623,18.8576768 Z M23.9942731,17.2841575 L21.9900233,17.916454 L21.4987571,16.381423 L23.5030069,15.7492116 C23.5056591,15.748192 23.5083969,15.7478521 23.5110492,15.7478521 C23.522086,15.7478521 23.5324384,15.7548191 23.5357751,15.7657794 L24.0110422,17.2516166 C24.01532,17.2652107 24.0076199,17.2798244 23.9942731,17.2841575 L23.9942731,17.2841575 Z" id="Fill-3"></path>
                        <path d="M16.0902943,10.3636465 L21.4396375,8.67602157 C21.7096542,8.59071847 21.8590361,8.30430738 21.7731372,8.03582353 C21.6875806,7.76759457 21.3984847,7.6189089 21.128468,7.70421199 L15.7795526,9.39192186 C15.5094503,9.47713999 15.3600685,9.76389093 15.4456251,10.0321199 C15.5151826,10.249116 15.717353,10.387861 15.9349235,10.387861 C15.9864286,10.387861 16.0388748,10.3798744 16.0902943,10.3636465 L16.0902943,10.3636465 Z" id="Fill-4"></path>
                        <path d="M22.2708202,9.59065088 C22.1849213,9.32216703 21.8961677,9.17382121 21.6261509,9.25912431 L16.27715,10.9467492 C16.0067911,11.0320523 15.8574092,11.3188032 15.943308,11.5869472 C16.01278,11.8040283 16.2146937,11.9424334 16.4321787,11.9424334 C16.4836838,11.9424334 16.53613,11.9347868 16.5879773,11.9185588 L21.9368926,10.2309339 C22.2072516,10.1456308 22.3567191,9.85887984 22.2708202,9.59065088 L22.2708202,9.59065088 Z" id="Fill-5"></path>
                    </g>
                    <g id="improvement" opacity="0.5" transform="translate(99.382319, 6.428571)" fill="#ED2F3C">
                        <g id="Group-3">
                            <path d="M15.0713175,11.6266069 C14.8572562,11.4101621 14.5727435,11.2908802 14.2702052,11.2908802 C14.1967166,11.2908802 14.1244824,11.2982309 14.054097,11.3117963 L9.07027119,6.26807806 L10.0359242,5.29050139 C10.1906928,5.13386459 10.1906928,4.88019852 10.0359242,4.72356172 L9.79168825,4.47637763 L13.4580003,0.765475476 C13.5678701,0.654279388 13.603459,0.488554448 13.5487882,0.341339915 C13.4943815,0.194125383 13.3600154,0.092819331 13.2049827,0.0818601011 C11.1011467,-0.0638174666 9.03884208,0.701791659 7.52740533,2.18476257 L7.28184885,1.93624198 C7.20756785,1.86106434 7.10674378,1.81876438 7.00175997,1.81876438 C6.89677615,1.81876438 6.79595208,1.86106434 6.72167108,1.93624198 L2.7870891,5.91805095 C2.63258463,6.07468775 2.63258463,6.32862112 2.7870891,6.48525792 L3.16621932,6.86869732 L2.47193959,7.57142452 L2.09274334,7.18798512 C1.93804078,7.03134832 1.68733416,7.03134832 1.53256557,7.18798512 L0.116076441,8.62157267 C0.041795442,8.69675032 0,8.79879144 0,8.90504251 C0,9.01156088 0.041795442,9.1133347 0.116076441,9.18851234 L2.87015177,11.9758321 C2.94753606,12.0541505 3.04888836,12.0933097 3.15024065,12.0933097 C3.25159295,12.0933097 3.35294525,12.0541505 3.43032954,11.9758321 L4.84681867,10.5422445 C4.92109967,10.4670669 4.96289511,10.3652931 4.96289511,10.2587747 C4.96289511,10.1525236 4.92109967,10.0504825 4.84681867,9.97530486 L4.46768845,9.59159816 L5.16203421,8.88887096 L5.54142854,9.27257766 C5.61544543,9.3477553 5.71626951,9.39005525 5.82151743,9.39005525 C5.92650124,9.39005525 6.02732532,9.3477553 6.10160631,9.27257766 L7.0672593,8.29526829 L12.0513493,13.3394543 C11.9824825,13.7007748 12.0861458,14.0894265 12.362141,14.3684859 L18.2725975,20.3503543 C18.4863947,20.5669996 18.7711716,20.6862814 19.0737098,20.6862814 C19.3762481,20.6862814 19.6607608,20.5669996 19.8748221,20.3503543 L20.9817741,19.2299735 C21.4233664,18.7830508 21.4233664,18.0555985 20.9817741,17.6084085 L15.0713175,11.6266069 Z M12.220776,0.883487671 L9.23124637,3.90910383 L8.0875831,2.75143494 C9.21289071,1.65170295 10.677646,0.995752952 12.220776,0.883487671 L12.220776,0.883487671 Z M3.15024065,11.1254226 L0.9563431,8.90504251 L1.81265445,8.03839463 L4.00655201,10.2587747 L3.15024065,11.1254226 Z M3.90751068,9.02459167 L3.03211736,8.13863149 L3.72646312,7.43570381 L4.60179041,8.32193129 L3.90751068,9.02459167 Z M5.82151743,8.42216815 L3.62761987,6.20178808 L7.00175997,2.78665149 L9.19565752,5.00703155 L5.82151743,8.42216815 Z M8.51009342,6.83508456 L13.3569121,11.7404091 L12.4743218,12.6333859 L7.6275031,7.72806132 L8.51009342,6.83508456 Z M20.4213322,18.6630339 L19.3143803,19.7833478 C19.2501354,19.8486354 19.1644977,19.8843866 19.0734457,19.8843866 C18.9826578,19.8843866 18.8970201,19.8483681 18.8328413,19.7833478 L12.9223187,13.8015462 C12.7897354,13.6673625 12.7894713,13.4488461 12.9220546,13.3143951 L14.0295348,12.1932792 C14.0940437,12.1285262 14.1791532,12.0927751 14.2702052,12.0927751 C14.3609931,12.0927751 14.4466308,12.1285262 14.5108757,12.1935465 L20.4215963,18.175415 C20.5541796,18.3097992 20.5541796,18.5285828 20.4213322,18.6630339 L20.4213322,18.6630339 Z" id="Fill-1"></path>
                            <path d="M13.1263439,9.09562619 C12.9715753,9.25219616 12.9715753,9.50592906 13.1263439,9.66256586 C13.2811125,9.81920266 13.5317531,9.81920266 13.6865216,9.66256586 L14.5327968,8.80614214 C15.5368778,7.78994087 16.0245573,6.40774142 15.8708452,5.01458273 C15.7788028,4.17954288 16.0970556,3.34918074 16.7220064,2.792933 C16.9015353,2.63322227 17.101929,2.50137739 17.3175089,2.39980404 L16.9920591,3.45596641 C16.8571648,3.89319958 16.8986961,4.35756354 17.1088618,4.76325552 C17.3190936,5.16888067 17.6729352,5.46751968 18.1049535,5.60377499 C18.9968537,5.88544056 19.948839,5.38004632 20.2271452,4.47737999 L20.5634895,3.38626838 C20.7989438,3.77418502 20.9281597,4.22003857 20.9353567,4.68781057 C20.9464493,5.38973588 20.6823391,6.04962853 20.1920185,6.54606828 C19.9039403,6.83742342 19.5627099,7.04885636 19.1779013,7.17441973 C18.460644,7.40803844 17.8075654,7.80898587 17.2886549,8.33389289 L15.218559,10.4289769 C15.0638564,10.5856137 15.0638564,10.8392798 15.218559,10.9959166 C15.2959433,11.0742349 15.3972956,11.1133941 15.4986479,11.1133941 C15.6000662,11.1133941 15.7014185,11.0742349 15.7788028,10.9959166 L17.8490968,8.90089938 C18.2793323,8.46547047 18.8227391,8.1324168 19.4206186,7.93769 C19.9191927,7.77503899 20.3798009,7.48996536 20.7522623,7.11307478 C21.3957669,6.46180249 21.7421474,5.59595651 21.7276874,4.67498026 C21.7134914,3.75407082 21.3393133,2.89891677 20.6746139,2.26722409 C20.5750444,2.17273414 20.4344717,2.1367157 20.3026807,2.17193225 C20.1706256,2.20694833 20.0659059,2.30845485 20.0251669,2.44029973 L19.4709316,4.23854897 C19.3226337,4.71908447 18.8158062,4.98825385 18.340936,4.83843316 C18.110896,4.76559438 17.9225854,4.60661872 17.8106687,4.39070852 C17.698752,4.17459786 17.6765668,3.92768106 17.7482727,3.69479743 L18.2963674,1.91692968 C18.3371064,1.78428291 18.30746,1.63967453 18.2171344,1.53475995 C18.1271388,1.42984537 17.9896694,1.37945965 17.854511,1.4019127 C17.2368232,1.50368653 16.6644964,1.77646443 16.1989361,2.19077678 C15.3797983,2.91956556 14.9627022,4.00860562 15.0834006,5.10332576 C15.2103055,6.25317618 14.8053586,7.39601002 13.9722889,8.23913564 L13.1263439,9.09562619 Z" id="Fill-3"></path>
                            <path d="M11.1875768,14.5088843 C10.1832317,15.5250856 9.69548611,16.9070177 9.84919825,18.300711 C9.94124067,19.1354836 9.62325196,19.9658457 8.99803705,20.5220935 C8.81877224,20.6818042 8.6181145,20.8139164 8.40279865,20.9152224 L8.72824846,19.8590601 C8.86314276,19.4218269 8.82161142,18.9577302 8.61144572,18.5517709 C8.40094987,18.1461458 8.04737232,17.8477741 7.61535403,17.7112515 C7.18307163,17.5747289 6.72451026,17.6167615 6.32365698,17.829531 C5.92260561,18.0422336 5.62779258,18.4004133 5.49289829,18.8376465 L5.15661995,19.9287581 C4.92109967,19.5408414 4.79188374,19.0952552 4.78468674,18.6272159 C4.77385822,17.9252906 5.03770433,17.2653979 5.52828906,16.7689582 C5.81636728,16.4773357 6.15759768,16.2661701 6.54240627,16.1406067 C7.25939948,15.9072553 7.91274214,15.5060406 8.43138858,14.9811336 L10.5347624,12.85237 C10.6895309,12.6958 10.6895309,12.4420671 10.5347624,12.2854303 C10.3799938,12.1287935 10.1292871,12.1287935 9.97451855,12.2854303 L7.8712108,14.4141271 C7.44097526,14.849556 6.89756848,15.1826097 6.29968898,15.3774033 C5.80111491,15.5399875 5.34050669,15.8250611 4.96804526,16.2019517 C4.32454071,16.853224 3.97816016,17.7191368 3.9926202,18.6400462 C4.00681612,19.5609556 4.38079619,20.4161097 5.04569366,21.0478024 C5.14526321,21.1422923 5.28583588,21.1783108 5.41762688,21.1430942 C5.54968199,21.1080781 5.65440169,21.0065716 5.69514069,20.8747267 L6.24937598,19.0764775 C6.32108191,18.8436607 6.47816146,18.653077 6.69149649,18.5398093 C6.9050296,18.4264749 7.14926552,18.4040886 7.37937155,18.4768606 C7.60941155,18.5494321 7.79772214,18.7084077 7.90963884,18.9243179 C8.02155555,19.1404286 8.0437408,19.3876127 7.97203488,19.620229 L7.42400618,21.3980968 C7.38320115,21.5307436 7.41291355,21.6753519 7.5029091,21.7802665 C7.57897285,21.8687422 7.68831448,21.9183261 7.80207995,21.9183261 C7.82320877,21.9183261 7.84466773,21.9167891 7.86579654,21.9131138 C8.48322021,21.8113399 9.05581116,21.538562 9.52137145,21.124517 C10.3405093,20.3954609 10.7576054,19.3064208 10.636907,18.2117007 C10.510002,17.0618503 10.914949,15.9190164 11.7477546,15.0758908 C11.9025231,14.9195213 11.9025231,14.6655211 11.7477546,14.5088843 C11.592986,14.3523143 11.3422793,14.3523143 11.1875768,14.5088843 L11.1875768,14.5088843 Z" id="Fill-4"></path>
                        </g>
                    </g>
                </g>
                <g id="Group-6" transform="translate(85.000000, 55.000000)">
                    <g id="Group-5">
                        <g id="Oval-4">
                            <use fill="black" fill-opacity="1" filter="url(#filter-2)" xlink:href="#path-1"></use>
                            <use stroke="#9BA6AC" mask="url(#mask-3)" stroke-width="4" fill="#F4F4F4" fill-rule="evenodd" xlink:href="#path-1"></use>
                        </g>
                        <path d="M86.1495834,22.1536053 C92.0139939,29.7907507 95.5,39.3496981 95.5,49.7228458 C95.5,74.7454105 75.2152034,95.0302071 50.1926387,95.0302071 C32.4174714,95.0302071 17.0330728,84.7941097 9.61249385,69.8949661 C17.8944731,80.6804797 30.9200216,87.6330869 45.5694386,87.6330869 C70.5920033,87.6330869 90.8767999,67.3482903 90.8767999,42.3257256 C90.8767999,35.0783282 89.1751462,28.2283732 86.1495834,22.1536053 Z" id="Combined-Shape" fill="#E9E9E9"></path>
                        <use id="Oval-4" stroke="#9BA6AC" mask="url(#mask-5)" stroke-width="4" fill="#E8E8E8" xlink:href="#path-4"></use>
                        <circle id="Oval-8" fill="#9BA6AC" cx="30" cy="45" r="4"></circle>
                        <circle id="Oval-8-Copy" fill="#9BA6AC" cx="70" cy="45" r="4"></circle>
                        <g id="like">
                            <use fill="black" fill-opacity="1" filter="url(#filter-7)" xlink:href="#path-6"></use>
                            <use stroke="#9BA6AC" mask="url(#mask-8)" stroke-width="4" fill="#F6F6F6" fill-rule="evenodd" xlink:href="#path-6"></use>
                        </g>
                        <path d="M38.5441031,81 C39.0441726,81.2217718 39.4764122,81.4917563 39.8396538,81.8094807 C41.6602373,83.4026651 41.4504927,85.4545224 40.9051566,86.7582198 C41.3750895,87.3456431 41.9452803,88.3031228 41.9957239,89.5262507 C42.0460626,90.6366215 41.6516378,91.7148047 40.8294388,92.7206664 C40.9887399,93.1312592 41.1399657,93.6864948 41.1735249,94.3382932 C41.2321485,95.4647578 40.9388206,97.0662908 39.2690435,98.5146311 C39.3780059,99.2548448 39.3780059,100.421846 38.6983284,101.596591 C37.8094306,103.133749 36.0556507,104.179644 33.4883763,104.702592 C32.3978091,104.928106 31.0890025,105.040561 29.5872308,105.040561 C28.7145883,105.040561 27.7748274,105.000428 26.7765478,104.928106 C21.2645634,105.032615 15.8952055,104.380817 15.5928586,104.340783 L13.6215736,104.115169 C13.0509633,104.50142 12.3545062,104.726934 11.6077104,104.726934 L6.49025572,104.726934 C4.5689948,104.726934 3,103.23001 3,101.379325 L3,99.5787857 C3.28415801,99.6506242 3.58228895,99.6888785 3.88942216,99.6888785 L9.00687681,99.6888785 C9.75367261,99.6888785 10.4501297,99.4633643 11.02074,99.0771134 L12.992025,99.3027282 C13.2943719,99.3427615 18.6637299,99.9945599 24.1757142,99.8900508 C25.1739938,99.9623723 26.1137547,100.002506 26.9863973,100.002506 C28.4881689,100.002506 29.7969755,99.8900508 30.8875428,99.6645366 C33.4548172,99.1415891 35.208597,98.0956941 36.0974948,96.5585362 C36.7771723,95.3837903 36.7771723,94.2167895 36.66821,93.4765759 C38.3379871,92.0282355 38.6313149,90.4267025 38.5726913,89.3002379 C38.5391322,88.6484395 38.3879063,88.0932039 38.2286052,87.6826111 C39.0508042,86.6767494 39.445229,85.5985662 39.3948903,84.4881954 C39.3444467,83.2650676 38.7742559,82.3075878 38.3043231,81.7201645 C38.3965936,81.4995797 38.4792566,81.2575763 38.5441031,81 Z" id="Combined-Shape" fill="#E9E9E9"></path>
                        <rect id="Rectangle" fill="#9BA6AC" x="11.5" y="85" width="2" height="21"></rect>
                    </g>
                    <ellipse id="Oval-2" fill="#D8D8D8" opacity="0.400000006" cx="49.5" cy="116" rx="34.5" ry="2"></ellipse>
                    <circle id="Oval-9" fill="#FFFFFF" cx="31.5" cy="13.5" r="3.5"></circle>
                    <circle id="Oval-9-Copy" fill="#FFFFFF" cx="25.5" cy="19.5" r="5.5"></circle>
                </g>
            </g>
        </g>
    </g>
</svg>