<?xml version="1.0" encoding="UTF-8"?>
<svg width="79px" height="47px" viewBox="0 0 79 47" version="1.1" xmlns="http://www.w3.org/2000/svg" xmlns:xlink="http://www.w3.org/1999/xlink">
    <!-- Generator: Sketch 40.3 (33839) - http://www.bohemiancoding.com/sketch -->
    <title>Fill 1</title>
    <desc>Created with Sketch.</desc>
    <defs></defs>
    <g id="Page-1" stroke="none" stroke-width="1" fill="none" fill-rule="evenodd">
        <g id="Sufi-te-presta---Success" transform="translate(-148.000000, -202.000000)" fill="#E92E3B">
            <g id="Group-11" transform="translate(10.000000, 99.000000)">
                <path d="M209.305275,115.235365 C207.752978,115.235365 206.453608,113.949021 206.453608,112.377185 C206.453608,110.843342 207.752978,109.553741 209.305275,109.553741 C210.88471,109.553741 212.160199,110.808605 212.160199,112.377185 C212.160199,113.949021 210.88471,115.235365 209.305275,115.235365 L209.305275,115.235365 Z M187.408119,135.734369 L187.18233,133.137799 L187.067265,133.137799 C186.44309,134.26023 184.876681,136.144696 181.900179,136.144696 C178.50575,136.144696 176.08395,133.805396 176.08395,128.128114 L176.08395,117.340193 L181.227155,117.340193 L181.227155,127.231472 C181.227155,129.898601 181.994619,131.519286 183.820468,131.519286 C185.252272,131.519286 186.085953,130.425079 186.408353,129.529523 C186.52776,129.188669 186.591806,128.787026 186.591806,128.281173 L186.591806,117.340193 L191.751294,117.340193 L191.751294,129.841068 C191.751294,132.233559 191.82728,134.1875 191.882642,135.734369 L187.408119,135.734369 Z M166.372867,136.144696 C164.198566,136.144696 162.271764,135.582396 161.022328,134.827958 L161.93091,130.771361 C162.881827,131.410733 164.835768,132.120665 166.372867,132.120665 C167.929506,132.120665 168.566708,131.543167 168.566708,130.612875 C168.566708,129.640247 168.04023,129.188669 166.155763,128.462455 C162.712486,127.231472 161.388149,125.12773 161.419629,122.988166 C161.419629,119.532948 164.065047,116.924438 168.149867,116.924438 C170.096209,116.924438 171.78094,117.449831 172.792646,118.013217 L171.922057,121.929781 C171.180646,121.515112 169.723875,120.912647 168.33115,120.912647 C167.078457,120.912647 166.372867,121.471691 166.372867,122.37376 C166.372867,123.283428 167.016582,123.729577 169.036739,124.527436 C172.193438,125.68786 173.470012,127.490912 173.500407,130.160212 C173.500407,133.621942 171.109001,136.144696 166.372867,136.144696 L166.372867,136.144696 Z M211.448096,106.462174 C210.547113,104.151097 209.319387,102.585773 205.73065,103.097055 C198.283967,104.2108 191.301888,105.489546 180.382618,107.669275 C174.943066,108.711376 169.242988,109.90328 162.78413,111.30686 C156.27751,112.703927 149.577666,114.17481 142.094075,116.072303 C138.980797,116.909241 137.259158,119.744625 138.307773,122.946916 C140.767567,129.951791 143.270781,137.461435 145.468964,145.200124 C146.533861,148.607578 149.688389,150.333559 152.858114,149.354418 C167.650527,144.343646 179.514201,140.247971 189.950412,136.571307 C192.076951,135.834237 194.049345,135.119963 195.983745,134.445854 L195.983745,121.554191 L193.774707,121.554191 L193.774707,117.340193 L195.983745,117.340193 L195.983745,116.630261 C195.983745,114.398427 196.585125,111.973371 198.04081,110.474264 C199.358634,109.095651 201.119352,108.613679 202.646681,108.613679 C203.759342,108.613679 204.637529,108.803645 205.343119,108.988184 L205.15858,113.392148 C204.714601,113.234748 204.160985,113.131623 203.492303,113.131623 C201.780435,113.131623 201.087871,114.597078 201.087871,116.403387 L201.087871,117.340193 L204.405228,117.340193 L204.405228,121.554191 L201.119352,121.554191 L201.119352,132.617834 C202.069184,132.285664 203.003818,131.95458 203.956907,131.614812 C204.95993,131.263102 205.86417,130.947215 206.708706,130.641098 L206.708706,117.659337 C208.963336,117.366246 208.938369,117.472627 211.584872,117.548613 L211.584872,128.90969 C212.426152,128.611171 213.286971,128.307225 214.197725,127.967457 C217.063503,126.879763 217.351167,124.723916 216.725906,122.299945 C215.121504,116.854965 213.427004,111.657484 211.448096,106.462174 L211.448096,106.462174 Z" id="Fill-1"></path>
            </g>
        </g>
    </g>
</svg>