<?xml version="1.0" encoding="UTF-8" standalone="no"?>
<svg width="11px" height="280px" viewBox="0 0 11 280" version="1.1" xmlns="http://www.w3.org/2000/svg" xmlns:xlink="http://www.w3.org/1999/xlink">
    <!-- Generator: Sketch 39.1 (31720) - http://www.bohemiancoding.com/sketch -->
    <title>Page 1</title>
    <desc>Created with Sketch.</desc>
    <defs></defs>
    <g id="Page-1" stroke="none" stroke-width="1" fill="none" fill-rule="evenodd">
        <g fill="#FFFFFF">
            <polygon id="Fill-1" points="0 279.400545 1.06527273 279.400545 1.06527273 239.858818 0 239.858818"></polygon>
            <polygon id="Fill-2" points="9.23172727 279.400545 10.3020909 279.400545 10.3020909 239.858818 9.23172727 239.858818"></polygon>
            <g id="Group-92" transform="translate(0.636364, 0.036909)">
                <path d="M2.65389091,237.830982 L2.58643636,237.227073 C2.80152727,237.199073 2.93961818,237.119527 3.03570909,237.006891 C3.12734545,236.9038 3.1808,236.754255 3.1808,236.562073 C3.1808,236.365436 3.14134545,236.220345 3.05670909,236.112164 C2.97461818,236.014164 2.86961818,235.961982 2.75952727,235.961982 C2.69143636,235.958164 2.62334545,235.976618 2.57689091,236.028164 C2.52725455,236.065709 2.47634545,236.135709 2.44325455,236.2528 C2.42225455,236.318345 2.37516364,236.487618 2.30770909,236.739618 C2.22561818,237.073073 2.12443636,237.302164 2.00989091,237.433255 C1.84825455,237.634345 1.63507273,237.723436 1.39198182,237.723436 C1.2488,237.723436 1.09925455,237.671891 0.960527273,237.5828 C0.824981818,237.499436 0.719345455,237.372164 0.644890909,237.207982 C0.5768,237.039982 0.5418,236.842709 0.536709091,236.604073 C0.5418,236.220345 0.628345455,235.939073 0.791890909,235.742436 C0.965618182,235.540709 1.19025455,235.437618 1.47852727,235.433164 L1.49698182,236.056164 C1.33789091,236.074618 1.2278,236.135709 1.15716364,236.220345 C1.08461818,236.304982 1.05661818,236.439891 1.05661818,236.608527 C1.05661818,236.796255 1.09925455,236.913345 1.16670909,237.034891 C1.20870909,237.101073 1.27234545,237.119527 1.35889091,237.119527 C1.42889091,237.119527 1.48743636,237.091527 1.53961818,237.039982 C1.60707273,236.955345 1.67516364,236.7778 1.74516364,236.472982 C1.81834545,236.159255 1.8858,235.943527 1.96343636,235.799073 C2.04489091,235.667345 2.13843636,235.540709 2.27461818,235.465618 C2.40316364,235.395618 2.56225455,235.349164 2.76398182,235.349164 C2.93070909,235.349164 3.09870909,235.400709 3.25334545,235.484073 C3.40098182,235.5878 3.52061818,235.732891 3.59761818,235.901527 C3.67461818,236.079709 3.70770909,236.299891 3.70770909,236.562073 C3.70770909,236.955345 3.61670909,237.245527 3.43852727,237.461255 C3.26289091,237.671891 2.99370909,237.793436 2.65389091,237.830982 L2.65389091,237.830982 Z" id="Fill-3"></path>
                <path d="M0.588190909,234.889645 L0.588190909,234.262191 L2.24655455,234.262191 C2.51573636,234.262191 2.69391818,234.262191 2.75946364,234.248191 C2.89055455,234.2151 2.99619091,234.163555 3.06173636,234.051555 C3.13873636,233.948464 3.18328182,233.831373 3.18328182,233.653827 C3.18328182,233.475009 3.14828182,233.338827 3.07064545,233.255464 C2.99619091,233.161282 2.9141,233.100191 2.80846364,233.095736 C2.69837273,233.081736 2.52973636,233.067736 2.2841,233.067736 L0.588190909,233.067736 L0.588190909,232.454282 L2.19946364,232.459373 C2.56282727,232.459373 2.82246364,232.472736 2.98219091,232.500736 C3.12919091,232.538918 3.26282727,232.594918 3.36337273,232.692918 C3.46900909,232.786464 3.55555455,232.894009 3.6141,233.048645 C3.67519091,233.203918 3.7051,233.395464 3.7051,233.625191 C3.7051,233.920464 3.67073636,234.1451 3.60455455,234.290191 C3.53200909,234.449918 3.45055455,234.571464 3.33537273,234.651009 C3.22973636,234.730555 3.12028182,234.791645 3.00064545,234.8241 C2.82246364,234.871191 2.56282727,234.889645 2.22300909,234.889645 L0.588190909,234.889645 Z" id="Fill-5"></path>
                <path d="M1.10370909,231.2548 L1.97234545,231.2548 L1.97234545,230.908618 C1.97234545,230.674436 1.95834545,230.500709 1.92334545,230.421164 C1.89025455,230.346073 1.84825455,230.281164 1.77570909,230.234073 C1.70316364,230.181891 1.63061818,230.154527 1.53452727,230.154527 C1.42889091,230.154527 1.33343636,230.181891 1.2628,230.253164 C1.19025455,230.327618 1.14125455,230.397618 1.12725455,230.500709 C1.11325455,230.576436 1.10370909,230.725982 1.10370909,230.949982 L1.10370909,231.2548 Z M3.64725455,231.868891 L0.586345455,231.868891 L0.586345455,230.875527 C0.586345455,230.4918 0.599709091,230.253164 0.6328,230.140527 C0.672890909,229.967436 0.777890909,229.816618 0.935072727,229.704618 C1.08461818,229.577982 1.28634545,229.517527 1.52561818,229.517527 C1.71716364,229.517527 1.87625455,229.549982 2.00543636,229.615527 C2.12443636,229.695709 2.22561818,229.779709 2.30770909,229.8828 C2.3758,229.990982 2.42225455,230.093436 2.44325455,230.196527 C2.47125455,230.351164 2.49034545,230.566255 2.49034545,230.851982 L2.49034545,231.2548 L3.64725455,231.2548 L3.64725455,231.868891 Z" id="Fill-7"></path>
                <polygon id="Fill-9" points="3.64451818 229.081618 0.588063636 229.081618 0.588063636 226.819345 1.10351818 226.819345 1.10351818 228.463073 1.78251818 228.463073 1.78251818 226.931982 2.29797273 226.931982 2.29797273 228.463073 3.13160909 228.463073 3.13160909 226.762709 3.64451818 226.762709"></polygon>
                <path d="M1.88115455,225.685982 L1.88115455,225.222073 C1.88115455,224.927436 1.87415455,224.739709 1.84615455,224.674164 C1.82260909,224.594618 1.77360909,224.537982 1.71760909,224.495982 C1.65397273,224.458436 1.57188182,224.434891 1.48788182,224.434891 C1.3797,224.434891 1.2957,224.473073 1.23715455,224.519527 C1.16460909,224.571073 1.13151818,224.655709 1.11306364,224.749255 C1.10860909,224.796345 1.10351818,224.955436 1.10351818,225.189618 L1.10351818,225.685982 L1.88115455,225.685982 Z M3.64451818,226.294982 L0.583609091,226.294982 L0.583609091,224.997436 C0.583609091,224.674164 0.614154545,224.434891 0.670154545,224.285345 C0.719790909,224.140255 0.824790909,224.023164 0.962881818,223.934073 C1.10351818,223.854527 1.2747,223.802982 1.44779091,223.802982 C1.67242727,223.802982 1.86460909,223.872982 2.01479091,224.004073 C2.16242727,224.140255 2.26742727,224.332436 2.29797273,224.604164 C2.37751818,224.477527 2.4647,224.355345 2.55124545,224.280891 C2.64733636,224.191164 2.81088182,224.065164 3.05460909,223.928982 L3.64451818,223.550345 L3.64451818,224.290436 L2.98206364,224.730164 C2.74788182,224.889891 2.59579091,224.997436 2.53724545,225.058527 C2.46915455,225.114527 2.43160909,225.184527 2.40806364,225.245618 C2.37751818,225.306073 2.37306364,225.409164 2.37306364,225.5498 L2.37306364,225.676436 L3.64451818,225.685982 L3.64451818,226.294982 Z" id="Fill-11"></path>
                <polygon id="Fill-13" points="0.590545455 223.293 3.647 223.293 3.647 222.678909 0.590545455 222.678909"></polygon>
                <polygon id="Fill-15" points="3.64451818 222.154291 0.588063636 222.154291 0.588063636 221.554836 2.64224545 220.299291 0.588063636 220.299291 0.588063636 219.718927 3.64451818 219.718927 3.64451818 220.341291 1.63997273 221.587291 3.64451818 221.587291"></polygon>
                <polygon id="Fill-16" points="3.64451818 218.4399 1.10351818 218.4399 1.10351818 219.353718 0.588063636 219.353718 0.588063636 216.917718 1.10351818 216.917718 1.10351818 217.8169 3.64451818 217.8169"></polygon>
                <polygon id="Fill-17" points="3.64451818 216.5849 0.588063636 216.5849 0.588063636 214.327718 1.10351818 214.327718 1.10351818 215.9759 1.78251818 215.9759 1.78251818 214.439718 2.29797273 214.439718 2.29797273 215.9759 3.13160909 215.9759 3.13160909 214.275536 3.64451818 214.275536"></polygon>
                <polygon id="Fill-18" points="3.64451818 213.802655 0.588063636 213.802655 0.588063636 213.198745 2.64224545 211.9432 0.588063636 211.9432 0.588063636 211.367291 3.64451818 211.367291 3.64451818 211.989655 1.63997273 213.235655 3.64451818 213.235655"></polygon>
                <path d="M1.10370909,210.167809 L3.12734545,210.167809 L3.12734545,209.714082 C3.12734545,209.5359 3.1178,209.413718 3.09870909,209.334173 C3.07070909,209.240627 3.02616364,209.161082 2.97461818,209.0949 C2.91161818,209.029991 2.81107273,208.978445 2.68189091,208.931991 C2.5368,208.880445 2.35670909,208.8709 2.11107273,208.8709 C1.88134545,208.8709 1.69870909,208.880445 1.57461818,208.931991 C1.44989091,208.978445 1.35443636,209.029991 1.27234545,209.0949 C1.20934545,209.189082 1.15716364,209.264173 1.13170909,209.390173 C1.11325455,209.470355 1.10370909,209.638991 1.10370909,209.896082 L1.10370909,210.167809 Z M0.586345455,210.786991 L0.586345455,209.666991 C0.586345455,209.4099 0.599709091,209.217082 0.649345455,209.086627 C0.691345455,208.903991 0.791890909,208.749355 0.925527273,208.622082 C1.05661818,208.490991 1.2278,208.402536 1.42889091,208.322991 C1.61661818,208.2619 1.86225455,208.228809 2.14352727,208.228809 C2.39870909,208.228809 2.61443636,208.2619 2.80152727,208.3179 C3.02170909,208.402536 3.20434545,208.510082 3.33798182,208.650082 C3.44552727,208.758264 3.52061818,208.903991 3.58361818,209.086627 C3.63070909,209.226627 3.64725455,209.404809 3.64725455,209.624355 L3.64725455,210.786991 L0.586345455,210.786991 Z" id="Fill-19"></path>
                <polygon id="Fill-20" points="3.64451818 207.770245 0.588063636 207.770245 0.588063636 205.507336 1.10351818 205.507336 1.10351818 207.1517 1.78251818 207.1517 1.78251818 205.614882 2.29797273 205.614882 2.29797273 207.1517 3.13160909 207.1517 3.13160909 205.451336 3.64451818 205.451336"></polygon>
                <polygon id="Fill-21" points="3.64451818 204.987364 0.588063636 204.987364 0.588063636 204.383455 2.64224545 203.123455 0.588063636 203.123455 0.588063636 202.552 3.64451818 202.552 3.64451818 203.165455 1.63997273 204.412091 3.64451818 204.412091"></polygon>
                <path d="M2.52528182,200.004 L2.70791818,199.400091 C3.04264545,199.498091 3.28382727,199.652727 3.45500909,199.867818 C3.6141,200.069545 3.70128182,200.355273 3.70128182,200.678545 C3.70128182,201.080727 3.56764545,201.423091 3.28382727,201.680818 C3.0051,201.952545 2.62137273,202.079182 2.14600909,202.079182 C1.63755455,202.079182 1.24428182,201.952545 0.9611,201.680818 C0.684281818,201.414182 0.544281818,201.076909 0.539190909,200.635909 C0.544281818,200.275727 0.654372727,199.966455 0.871372727,199.727182 C1.00500909,199.592273 1.18764545,199.474545 1.42691818,199.413455 L1.57646364,200.018 C1.42691818,200.060636 1.29328182,200.13 1.20164545,200.252182 C1.11064545,200.373727 1.0661,200.500364 1.0661,200.669 C1.0661,200.898727 1.14373636,201.080727 1.31237273,201.222 C1.47591818,201.367091 1.74319091,201.437727 2.10337273,201.437727 C2.49219091,201.437727 2.75946364,201.367091 2.93255455,201.231545 C3.09228182,201.090909 3.17882727,200.917818 3.17882727,200.678545 C3.17882727,200.523909 3.12028182,200.388364 3.01464545,200.261727 C2.90455455,200.149727 2.74546364,200.060636 2.52528182,200.004" id="Fill-22"></path>
                <polygon id="Fill-23" points="0.590545455 198.968636 3.647 198.968636 3.647 198.350091 0.590545455 198.350091"></polygon>
                <path d="M2.42925455,196.191418 L1.29334545,196.622236 L2.42925455,197.039055 L2.42925455,196.191418 Z M3.64216364,195.066964 L3.64216364,195.737055 L2.95361818,195.999236 L2.94916364,197.221691 L3.64216364,197.474964 L3.64216364,198.144418 L0.588254545,196.954418 L0.588254545,196.289418 L3.64216364,195.066964 Z" id="Fill-24"></path>
                <polygon id="Fill-25" points="3.64451818 193.835473 0.588063636 193.835473 0.588063636 191.751382 1.10351818 191.751382 1.10351818 193.226473 1.8277 193.226473 1.8277 191.938473 2.34506364 191.938473 2.34506364 193.226473 3.64451818 193.226473"></polygon>
                <polygon id="Fill-26" points="0.590545455 191.315727 3.647 191.315727 3.647 190.701636 0.590545455 190.701636"></polygon>
                <polygon id="Fill-27" points="3.64451818 190.167727 0.588063636 190.167727 0.588063636 189.572727 2.64224545 188.312727 0.588063636 188.312727 0.588063636 187.745727 3.64451818 187.745727 3.64451818 188.359818 1.63997273 189.600727 3.64451818 189.600727"></polygon>
                <path d="M2.42925455,185.521127 L1.29334545,185.952582 L2.42925455,186.368764 L2.42925455,185.521127 Z M3.64216364,184.397309 L3.64216364,185.057218 L2.95361818,185.328945 L2.95361818,186.5514 L3.64216364,186.805309 L3.64216364,187.470309 L0.588254545,186.284764 L0.588254545,185.629309 L3.64216364,184.397309 Z" id="Fill-28"></path>
                <polygon id="Fill-29" points="3.64451818 184.139645 0.588063636 184.139645 0.588063636 183.530645 2.64224545 182.270645 0.588063636 182.270645 0.588063636 181.708736 3.64451818 181.708736 3.64451818 182.322191 1.63997273 183.558645 3.64451818 183.558645"></polygon>
                <path d="M2.52528182,179.160609 L2.70791818,178.5567 C3.04264545,178.645155 3.29337273,178.809336 3.45500909,179.011064 C3.6141,179.2217 3.70128182,179.502336 3.70128182,179.825609 C3.70128182,180.237336 3.56764545,180.570791 3.28382727,180.827882 C3.0051,181.095155 2.63091818,181.221155 2.14600909,181.226245 C1.63755455,181.221155 1.24428182,181.090064 0.9611,180.827882 C0.684281818,180.570791 0.544281818,180.209336 0.544281818,179.792518 C0.544281818,179.422791 0.654372727,179.109064 0.871372727,178.879973 C1.00500909,178.739336 1.18764545,178.631155 1.42691818,178.5567 L1.57646364,179.174609 C1.42691818,179.207064 1.29328182,179.2917 1.20164545,179.399882 C1.11064545,179.516973 1.0661,179.656973 1.0661,179.816064 C1.0661,180.041336 1.14373636,180.233518 1.31682727,180.369064 C1.47591818,180.5237 1.74319091,180.5937 2.09891818,180.5937 C2.49219091,180.5937 2.75946364,180.5237 2.93255455,180.378609 C3.09228182,180.237336 3.17882727,180.050245 3.17882727,179.825609 C3.17882727,179.670973 3.12028182,179.525882 3.01464545,179.408791 C2.90455455,179.2917 2.74546364,179.207064 2.52528182,179.160609" id="Fill-30"></path>
                <polygon id="Fill-31" points="0.590545455 178.120727 3.647 178.120727 3.647 177.502182 0.590545455 177.502182"></polygon>
                <polygon id="Fill-32" points="3.64451818 176.9824 0.588063636 176.9824 0.588063636 174.715036 1.10351818 174.715036 1.10351818 176.364491 1.78251818 176.364491 1.78251818 174.827673 2.30306364 174.827673 2.29797273 176.364491 3.13160909 176.364491 3.13160909 174.659673 3.64451818 174.659673"></polygon>
                <path d="M1.88115455,173.572509 L1.88115455,173.118145 C1.88115455,172.822873 1.87415455,172.640873 1.84615455,172.560691 C1.82260909,172.490691 1.77360909,172.439145 1.71760909,172.3876 C1.65397273,172.340509 1.57188182,172.3316 1.48788182,172.3316 C1.38479091,172.3316 1.2957,172.355145 1.23715455,172.411145 C1.16460909,172.458236 1.13151818,172.547327 1.11306364,172.649782 C1.10860909,172.691782 1.10351818,172.846418 1.10351818,173.090145 L1.10351818,173.572509 L1.88115455,173.572509 Z M3.64451818,174.1866 L0.583609091,174.1866 L0.583609091,172.893509 C0.583609091,172.556236 0.609063636,172.3316 0.670154545,172.172509 C0.719790909,172.017873 0.824790909,171.914782 0.967972727,171.825691 C1.10351818,171.731509 1.26515455,171.689509 1.44779091,171.689509 C1.67242727,171.699055 1.86460909,171.755691 2.01479091,171.886782 C2.16242727,172.026782 2.26742727,172.223418 2.29797273,172.4996 C2.37306364,172.364691 2.46915455,172.256509 2.55124545,172.162327 C2.64733636,172.078327 2.81088182,171.970782 3.05460909,171.816145 L3.64451818,171.446418 L3.64451818,172.185873 L2.98206364,172.626873 C2.74788182,172.781509 2.60024545,172.893509 2.53724545,172.949509 C2.46915455,173.005509 2.43160909,173.071691 2.40806364,173.141691 C2.37751818,173.197691 2.37306364,173.300782 2.37306364,173.450964 L2.37306364,173.572509 L3.64451818,173.572509 L3.64451818,174.1866 Z" id="Fill-33"></path>
                <path d="M2.42925455,169.539936 L1.29334545,169.975845 L2.43370909,170.378027 L2.42925455,169.539936 Z M3.64216364,168.411664 L3.64216364,169.076027 L2.94916364,169.342664 L2.94916364,170.5753 L3.64216364,170.823482 L3.64216364,171.478936 L0.588254545,170.308027 L0.588254545,169.643027 L3.64216364,168.411664 Z" id="Fill-34"></path>
                <path d="M5.84379091,217.048491 L7.87188182,217.048491 L7.87633636,216.580764 C7.87188182,216.416582 7.86233636,216.290582 7.84388182,216.214855 C7.81333636,216.111764 7.77133636,216.032218 7.71279091,215.967309 C7.6517,215.896036 7.55560909,215.835582 7.42197273,215.803127 C7.27688182,215.751582 7.09933636,215.736945 6.86451818,215.732491 C6.62588182,215.736945 6.44324545,215.751582 6.31660909,215.803127 C6.18806364,215.835582 6.09197273,215.901127 6.02642727,215.975582 C5.95388182,216.046855 5.90488182,216.144855 5.87624545,216.2664 C5.85779091,216.341491 5.84379091,216.519673 5.84379091,216.767855 L5.84379091,217.048491 Z M5.33533636,217.657491 L5.33533636,216.533673 C5.33533636,216.275945 5.34997273,216.083764 5.38688182,215.948218 C5.44097273,215.774491 5.53706364,215.624945 5.6707,215.4894 C5.8037,215.367218 5.96788182,215.264127 6.16451818,215.198582 C6.3567,215.137491 6.59979091,215.099945 6.8887,215.099945 C7.14324545,215.099945 7.35451818,215.137491 7.54606364,215.198582 C7.76179091,215.264127 7.94951818,215.381218 8.07806364,215.522491 C8.17415455,215.624945 8.26515455,215.774491 8.33324545,215.948218 C8.37079091,216.088855 8.38924545,216.275945 8.38924545,216.505036 L8.38924545,217.657491 L5.33533636,217.657491 Z" id="Fill-35"></path>
                <polygon id="Fill-36" points="8.38956364 214.645964 5.33310909 214.645964 5.33310909 212.374145 5.84156364 212.374145 5.84156364 214.027418 6.52310909 214.027418 6.52310909 212.486782 7.04047273 212.486782 7.04047273 214.027418 7.8722 214.027418 7.8722 212.323236 8.38956364 212.323236"></polygon>
                <path d="M7.27000909,208.772009 L7.44819091,208.1681 C7.77846364,208.2661 8.03364545,208.416282 8.18764545,208.636464 C8.35882727,208.8471 8.44600909,209.114373 8.44600909,209.447191 C8.44600909,209.849373 8.30282727,210.1911 8.02855455,210.439918 C7.75491818,210.721191 7.37055455,210.837645 6.89264545,210.837645 C6.37782727,210.837645 5.98646364,210.7301 5.70328182,210.439918 C5.4341,210.182191 5.28646364,209.836009 5.28646364,209.409645 C5.28646364,209.034191 5.39655455,208.725555 5.61673636,208.500282 C5.74528182,208.355827 5.93746364,208.247645 6.1761,208.186555 L6.32628182,208.790464 C6.1621,208.8331 6.03800909,208.903736 5.95146364,209.020827 C5.85537273,209.132827 5.80891818,209.269009 5.80891818,209.4421 C5.80891818,209.671827 5.89037273,209.849373 6.0571,209.9951 C6.22064545,210.135736 6.48982727,210.205736 6.84364545,210.205736 C7.22291818,210.205736 7.51119091,210.135736 7.66773636,209.9951 C7.83191818,209.854464 7.91400909,209.676282 7.91400909,209.447191 C7.91400909,209.291918 7.85991818,209.151918 7.75491818,209.034191 C7.65882727,208.917736 7.49273636,208.8331 7.27000909,208.772009" id="Fill-37"></path>
                <path d="M6.86483636,207.193509 C7.21165455,207.193509 7.46874545,207.132418 7.65138182,206.959964 C7.83401818,206.800236 7.92565455,206.594691 7.92565455,206.350964 C7.92565455,206.107236 7.83401818,205.909964 7.66092727,205.747055 C7.47829091,205.587327 7.21165455,205.521782 6.86483636,205.521782 C6.50656364,205.512236 6.24629091,205.587327 6.06874545,205.747055 C5.89565455,205.891509 5.81101818,206.097691 5.81101818,206.359873 C5.80592727,206.608055 5.89565455,206.814236 6.06874545,206.968873 C6.25138182,207.132418 6.51101818,207.193509 6.86483636,207.193509 M6.88838182,207.8356 C6.57656364,207.8356 6.31947273,207.784055 6.09674545,207.694964 C5.94465455,207.630055 5.80592727,207.535873 5.67992727,207.409236 C5.55583636,207.2966 5.4642,207.155964 5.40374545,207.021055 C5.32610909,206.823782 5.28156364,206.608055 5.28156364,206.359873 C5.28156364,205.909964 5.43174545,205.554236 5.70538182,205.2876 C5.98156364,205.015873 6.37101818,204.870782 6.87438182,204.870782 C7.3682,204.870782 7.75256364,205.006327 8.03574545,205.272964 C8.31447273,205.549782 8.44810909,205.901055 8.45701818,206.359873 C8.44810909,206.805327 8.31447273,207.175055 8.03574545,207.442327 C7.75256364,207.699418 7.37774545,207.840055 6.88838182,207.8356" id="Fill-38"></path>
                <polygon id="Fill-39" points="8.38956364 204.449191 5.36110909 204.449191 5.36110909 203.826191 7.8722 203.826191 7.8722 202.289373 8.38956364 202.289373"></polygon>
                <path d="M6.86483636,201.409091 C7.21165455,201.409091 7.46874545,201.32 7.65138182,201.165364 C7.83401818,200.997364 7.92565455,200.800091 7.92565455,200.556364 C7.92565455,200.308818 7.83401818,200.102 7.66092727,199.947364 C7.47829091,199.788273 7.21165455,199.718273 6.86483636,199.708727 C6.50656364,199.718273 6.24629091,199.788273 6.06874545,199.947364 C5.89565455,200.093091 5.81101818,200.294182 5.80592727,200.547455 C5.80592727,200.805182 5.89565455,201.011364 6.07829091,201.165364 C6.25138182,201.32 6.51101818,201.409091 6.86483636,201.409091 M6.88838182,202.041636 C6.57656364,202.041636 6.31947273,201.985 6.09674545,201.901 C5.94465455,201.825909 5.80592727,201.737455 5.67992727,201.610182 C5.55583636,201.488636 5.4642,201.357545 5.40374545,201.222 C5.32610909,201.029818 5.28156364,200.805182 5.28156364,200.556364 C5.28156364,200.102 5.43174545,199.746273 5.70538182,199.474545 C5.98156364,199.212364 6.37101818,199.067273 6.87438182,199.067273 C7.3682,199.067273 7.75256364,199.212364 8.03574545,199.474545 C8.31001818,199.746273 8.44810909,200.102 8.44810909,200.547455 C8.44810909,201.011364 8.31447273,201.367091 8.03574545,201.638818 C7.75256364,201.896545 7.37774545,202.041636 6.88838182,202.041636" id="Fill-40"></path>
                <polygon id="Fill-41" points="8.38956364 198.664773 5.33310909 198.664773 5.33310909 197.727409 7.41529091 197.184591 5.33310909 196.645591 5.33310909 195.708864 8.38956364 195.717773 8.38956364 196.280318 5.98156364 196.280318 8.38956364 196.884227 8.38956364 197.484318 5.98156364 198.083773 8.38956364 198.083773"></polygon>
                <path d="M7.07330909,194.547055 L7.87894545,194.552145 L7.87385455,193.976236 C7.87385455,193.750964 7.85985455,193.614782 7.85094545,193.545418 C7.83185455,193.451236 7.79685455,193.381236 7.73130909,193.320145 C7.67276364,193.259691 7.58621818,193.231055 7.48058182,193.231055 C7.38958182,193.231055 7.31894545,193.259691 7.25594545,193.3106 C7.18785455,193.343055 7.14585455,193.409236 7.12230909,193.502782 C7.08285455,193.577873 7.07330909,193.764964 7.07330909,194.051327 L7.07330909,194.547055 Z M5.84130909,194.552145 L6.55594545,194.552145 L6.55594545,194.149327 C6.55594545,193.896691 6.5464,193.750964 6.5464,193.694327 C6.52794545,193.582327 6.49230909,193.502782 6.43185455,193.437236 C6.37776364,193.376145 6.29121818,193.343055 6.19958182,193.343055 C6.09903636,193.343055 6.03349091,193.367236 5.9654,193.423236 C5.90685455,193.474145 5.8744,193.549873 5.85976364,193.657418 C5.85976364,193.717873 5.84130909,193.896691 5.84130909,194.186873 L5.84130909,194.552145 Z M5.33349091,195.161145 L5.33349091,193.943145 C5.33349091,193.694327 5.33794545,193.526327 5.36149091,193.3946 C5.3844,193.273055 5.42958182,193.175055 5.49512727,193.071964 C5.55303636,192.982873 5.64021818,192.903327 5.74521818,192.837145 C5.85976364,192.772236 5.9654,192.7436 6.09903636,192.7436 C6.25367273,192.7436 6.38221818,192.781782 6.50630909,192.861327 C6.62849091,192.936418 6.71249091,193.039509 6.77612727,193.175055 C6.81812727,192.982873 6.91421818,192.842236 7.04976364,192.7436 C7.1834,192.650691 7.33358182,192.5896 7.50921818,192.5896 C7.64476364,192.5896 7.78285455,192.626509 7.9114,192.6876 C8.04758182,192.762691 8.14812727,192.851782 8.23021818,192.949782 C8.30530909,193.071964 8.35430909,193.203055 8.36830909,193.376145 C8.38230909,193.474145 8.38676364,193.717873 8.38676364,194.120691 L8.38676364,195.161145 L5.33349091,195.161145 Z" id="Fill-42"></path>
                <polygon id="Fill-43" points="8.38956364 192.163173 5.33310909 192.163173 5.33310909 191.544627 8.38956364 191.540173"></polygon>
                <path d="M7.17869091,189.390282 L6.04023636,189.821736 L7.17869091,190.228373 L7.17869091,189.390282 Z M8.38714545,188.256918 L8.38714545,188.921918 L7.69605455,189.189191 L7.69605455,190.4161 L8.38714545,190.678282 L8.38714545,191.329282 L5.33069091,190.163464 L5.33069091,189.497827 L8.38714545,188.256918 Z" id="Fill-44"></path>
                <polygon id="Fill-45" points="7.04289091 276.234636 1.94943636 278.033 1.94943636 276.918727 5.71034545 275.635182 1.94943636 274.398091 1.94943636 273.297818 7.04289091 275.110182"></polygon>
                <polygon id="Fill-46" points="1.94918182 272.455273 7.04263636 272.455273 7.04263636 271.415455 1.94918182 271.415455"></polygon>
                <path d="M5.17389091,267.710227 L4.31670909,267.710227 L4.31670909,265.489955 L6.3448,265.489955 C6.55543636,265.705682 6.73807273,266.014318 6.8978,266.431136 C7.05434545,266.848591 7.13643636,267.260318 7.13643636,267.681591 C7.13643636,268.205955 7.02189091,268.6705 6.80170909,269.077136 C6.58407273,269.471682 6.26270909,269.761864 5.84143636,269.9585 C5.42907273,270.155136 4.96325455,270.258227 4.48534545,270.258227 C3.95143636,270.258227 3.47607273,270.1405 3.05925455,269.925409 C2.64243636,269.710318 2.33061818,269.381955 2.11552727,268.951136 C1.93734545,268.623409 1.85970909,268.220591 1.85525455,267.728682 C1.85525455,267.101227 1.98443636,266.604864 2.25807273,266.243409 C2.51834545,265.897227 2.88807273,265.672591 3.35707273,265.565045 L3.54352727,266.581318 C3.30043636,266.656409 3.09870909,266.796409 2.95870909,266.9835 C2.81107273,267.175682 2.74298182,267.433409 2.74298182,267.728682 C2.74298182,268.174136 2.88107273,268.539409 3.16489091,268.7965 C3.45252727,269.077136 3.87443636,269.199318 4.43634545,269.199318 C5.04025455,269.199318 5.50225455,269.077136 5.80389091,268.7965 C6.10170909,268.524773 6.26270909,268.174136 6.26270909,267.738227 C6.26270909,267.527591 6.21625455,267.307409 6.12907273,267.087227 C6.04761818,266.8715 5.94707273,266.693318 5.82298182,266.534227 L5.17389091,266.534227 L5.17389091,267.710227 Z" id="Fill-47"></path>
                <polygon id="Fill-48" points="1.94918182 264.220091 7.04263636 264.220091 7.04263636 263.194909 1.94918182 263.194909"></polygon>
                <polygon id="Fill-49" points="7.04289091 261.826982 1.99334545 261.826982 1.99334545 260.801164 6.17870909 260.796709 6.17361818 258.248709 7.04289091 258.253164"></polygon>
                <path d="M5.02657273,254.444782 L3.14102727,255.156873 L5.02657273,255.854964 L5.02657273,254.444782 Z M7.04257273,252.552873 L7.04257273,253.667782 L5.8863,254.108145 L5.8863,256.155327 L7.04257273,256.585509 L7.04257273,257.672418 L1.94657273,255.695873 L1.94657273,254.618509 L7.04257273,252.552873 Z" id="Fill-50"></path>
                <path d="M2.81081818,250.632836 L6.18354545,250.632836 L6.18354545,249.8692 C6.18354545,249.573927 6.16445455,249.372836 6.12945455,249.236655 C6.09190909,249.077564 6.01936364,248.936927 5.91372727,248.833836 C5.82272727,248.7212 5.66554545,248.628291 5.43390909,248.5672 C5.21372727,248.492109 4.89745455,248.459018 4.50418182,248.459018 C4.10581818,248.459018 3.80863636,248.492109 3.59290909,248.5672 C3.37781818,248.628291 3.21872727,248.726291 3.09909091,248.852291 C2.97945455,248.983382 2.90245455,249.142473 2.86490909,249.3302 C2.83436364,249.466382 2.81081818,249.751473 2.81081818,250.177836 L2.81081818,250.632836 Z M1.94663636,251.653564 L1.94663636,249.784564 C1.94663636,249.3582 1.98163636,249.034927 2.05481818,248.8192 C2.13436364,248.524564 2.29345455,248.266836 2.52254545,248.047291 C2.74336364,247.836018 3.017,247.676927 3.34981818,247.559836 C3.67054545,247.452291 4.06890909,247.395655 4.54172727,247.395655 C4.96554545,247.395655 5.32381818,247.452291 5.62163636,247.555382 C6.00090909,247.676927 6.30254545,247.8602 6.52781818,248.093745 C6.70090909,248.281473 6.83454545,248.506109 6.93063636,248.8192 C7.00763636,249.049564 7.04263636,249.353745 7.04263636,249.728564 L7.04263636,251.653564 L1.94663636,251.653564 Z" id="Fill-51"></path>
                <path d="M4.49030909,245.311373 C5.07067273,245.311373 5.51358182,245.175827 5.81076364,244.913009 C6.11812727,244.646373 6.26067273,244.299555 6.26067273,243.892918 C6.26067273,243.475464 6.11812727,243.152191 5.81076364,242.884918 C5.52312727,242.613827 5.07576364,242.487191 4.48076364,242.487191 C3.89976364,242.487191 3.45494545,242.613827 3.17621818,242.870918 C2.87903636,243.124191 2.74030909,243.466555 2.74030909,243.892918 C2.74030909,244.318645 2.88794545,244.664827 3.17621818,244.923191 C3.46449091,245.189827 3.90676364,245.311373 4.49030909,245.311373 M4.5304,246.370282 C4.00794545,246.370282 3.57903636,246.300282 3.22076364,246.149464 C2.95603636,246.023464 2.72694545,245.864373 2.51567273,245.662645 C2.30949091,245.460918 2.1644,245.245827 2.05430909,245.006555 C1.92576364,244.683918 1.86276364,244.318645 1.86276364,243.906282 C1.86276364,243.161736 2.0874,242.557827 2.55767273,242.098373 C3.02412727,241.644009 3.67512727,241.432736 4.50621818,241.432736 C5.3354,241.432736 5.9724,241.644009 6.44330909,242.089464 C6.90912727,242.552736 7.13885455,243.152191 7.13885455,243.892918 C7.13885455,244.655918 6.90912727,245.250282 6.44330909,245.700191 C5.98194545,246.149464 5.3354,246.370282 4.5304,246.370282" id="Fill-52"></path>
                <path d="M5.55978182,146.2412 C5.58014545,146.120291 5.58714545,145.958018 5.58714545,145.748655 C5.58714545,145.140291 5.36378182,144.579018 4.70132727,144.579018 C4.0866,144.579018 3.82314545,145.112927 3.82314545,145.754382 L3.82314545,146.2412 L5.55978182,146.2412 Z M3.38405455,146.2412 L3.38405455,145.707291 C3.38405455,145.092564 3.05250909,144.727291 2.61341818,144.727291 C2.08650909,144.727291 1.87014545,145.126291 1.87014545,145.721291 C1.87014545,145.991109 1.88987273,146.147018 1.91087273,146.2412 L3.38405455,146.2412 Z M1.51823636,146.829836 C1.45778182,146.572745 1.41705455,146.160382 1.41705455,145.754382 C1.41705455,145.167018 1.51823636,144.788382 1.7486,144.510927 C1.92423636,144.274836 2.19405455,144.126564 2.55232727,144.126564 C2.99841818,144.126564 3.38405455,144.423745 3.55269091,144.896564 L3.57305455,144.896564 C3.67423636,144.463836 4.03250909,143.957291 4.70832727,143.957291 C5.10032727,143.957291 5.40450909,144.112564 5.62087273,144.348655 C5.91169091,144.660473 6.0466,145.173382 6.0466,145.916655 C6.0466,146.322655 6.01987273,146.6332 5.99250909,146.829836 L1.51823636,146.829836 Z" id="Fill-53"></path>
                <path d="M4.11370909,140.494073 L2.80216364,140.947164 C2.50561818,141.048345 2.23516364,141.1158 1.97107273,141.183255 L1.97107273,141.196618 C2.23516364,141.264709 2.51898182,141.331527 2.7958,141.426982 L4.11370909,141.872436 L4.11370909,140.494073 Z M4.57316364,141.993982 L6.00625455,142.467436 L6.00625455,143.0758 L1.45052727,141.521164 L1.45052727,140.818618 L6.00625455,139.263982 L6.00625455,139.892709 L4.57316364,140.378891 L4.57316364,141.993982 Z" id="Fill-54"></path>
                <path d="M6.006,138.153082 L1.45090909,138.153082 L1.45090909,137.503991 L3.75518182,136.050536 C4.28972727,135.719627 4.76954545,135.449809 5.23536364,135.239809 L5.229,135.220082 C4.62063636,135.274173 4.06636364,135.2869 3.35681818,135.2869 L1.45090909,135.2869 L1.45090909,134.733264 L6.006,134.733264 L6.006,135.328264 L3.69472727,136.774082 C3.18754545,137.091627 2.66763636,137.396445 2.17445455,137.618536 L2.18081818,137.6389 C2.75545455,137.605809 3.30272727,137.598809 4.05936364,137.598809 L6.006,137.598809 L6.006,138.153082 Z" id="Fill-55"></path>
                <path d="M5.86396364,130.086664 C5.97214545,130.296027 6.08032727,130.735755 6.08032727,131.290027 C6.08032727,132.573573 5.26896364,133.533209 3.76905455,133.533209 C2.3366,133.533209 1.37632727,132.566573 1.37632727,131.154482 C1.37632727,130.593845 1.49850909,130.229209 1.57932727,130.0733 L2.05914545,130.222209 C1.95096364,130.438573 1.87014545,130.756118 1.87014545,131.134118 C1.87014545,132.201936 2.55232727,132.911482 3.74869091,132.911482 C4.8706,132.911482 5.58014545,132.270027 5.58014545,131.167845 C5.58014545,130.803209 5.50569091,130.438573 5.39114545,130.201845 L5.86396364,130.086664 Z" id="Fill-56"></path>
                <path d="M3.74888182,128.556655 C4.72888182,128.556655 5.6007,128.029745 5.6007,127.096836 C5.6007,126.163927 4.74224545,125.637018 3.70815455,125.637018 C2.79560909,125.637018 1.84997273,126.109836 1.84997273,127.089836 C1.84997273,128.069836 2.75488182,128.556655 3.74888182,128.556655 M3.68142727,125.015927 C5.24242727,125.015927 6.08051818,125.968564 6.08051818,127.130564 C6.08051818,128.340291 5.14124545,129.178382 3.76224545,129.178382 C2.31579091,129.178382 1.37015455,128.2862 1.37015455,127.070109 C1.37015455,125.819655 2.32279091,125.015927 3.68142727,125.015927" id="Fill-57"></path>
                <polygon id="Fill-58" points="1.45078182 123.815618 1.45078182 123.220618 5.51269091 123.220618 5.51269091 121.274618 6.00587273 121.274618 6.00587273 123.815618"></polygon>
                <path d="M3.74888182,119.832745 C4.72888182,119.832745 5.6007,119.305836 5.6007,118.372927 C5.6007,117.440018 4.74224545,116.913109 3.70815455,116.913109 C2.79560909,116.913109 1.84997273,117.385927 1.84997273,118.365927 C1.84997273,119.345927 2.75488182,119.832745 3.74888182,119.832745 M3.68142727,116.292018 C5.24242727,116.292018 6.08051818,117.244655 6.08051818,118.406655 C6.08051818,119.616382 5.14124545,120.454473 3.76224545,120.454473 C2.31579091,120.454473 1.37015455,119.562291 1.37015455,118.3462 C1.37015455,117.095745 2.32279091,116.292018 3.68142727,116.292018" id="Fill-59"></path>
                <path d="M4.00552727,111.2468 C3.37043636,111.280527 2.5998,111.320618 2.03916364,111.320618 L2.03916364,111.334618 C2.56607273,111.496891 3.14070909,111.679527 3.7688,111.908618 L5.97889091,112.712982 L5.97889091,113.159073 L3.80952727,113.902345 C3.16043636,114.118709 2.57943636,114.294345 2.03916364,114.422891 L2.03916364,114.436255 C2.6068,114.449618 3.36343636,114.483982 4.05261818,114.524073 L6.00625455,114.646255 L6.00625455,115.206891 L1.45052727,114.889345 L1.45052727,114.139073 L3.65425455,113.361436 C4.21489091,113.172436 4.71507273,113.024164 5.18789091,112.902618 L5.18789091,112.888618 C4.72843636,112.767073 4.22889091,112.6048 3.65425455,112.4018 L1.45052727,111.591073 L1.45052727,110.8408 L6.00625455,110.556982 L6.00625455,111.138618 L4.00552727,111.2468 Z" id="Fill-60"></path>
                <path d="M5.55978182,108.619955 C5.58014545,108.499045 5.58714545,108.336773 5.58714545,108.127409 C5.58714545,107.519045 5.36378182,106.957773 4.70132727,106.957773 C4.0866,106.957773 3.82314545,107.491682 3.82314545,108.133136 L3.82314545,108.619955 L5.55978182,108.619955 Z M3.38405455,108.619955 L3.38405455,108.086045 C3.38405455,107.471318 3.05250909,107.106045 2.61341818,107.106045 C2.08650909,107.106045 1.87014545,107.505045 1.87014545,108.100045 C1.87014545,108.369864 1.88987273,108.525773 1.91087273,108.619955 L3.38405455,108.619955 Z M1.51823636,109.208591 C1.45778182,108.9515 1.41705455,108.539136 1.41705455,108.133136 C1.41705455,107.545773 1.51823636,107.167136 1.7486,106.889682 C1.92423636,106.653591 2.19405455,106.505318 2.55232727,106.505318 C2.99841818,106.505318 3.38405455,106.8025 3.55269091,107.275318 L3.57305455,107.275318 C3.67423636,106.842591 4.03250909,106.336045 4.70832727,106.336045 C5.10032727,106.336045 5.40450909,106.491318 5.62087273,106.727409 C5.91169091,107.039227 6.0466,107.552136 6.0466,108.295409 C6.0466,108.701409 6.01987273,109.011955 5.99250909,109.208591 L1.51823636,109.208591 Z" id="Fill-61"></path>
                <polygon id="Fill-62" points="1.45090909 105.117091 6.006 105.117091 6.006 104.522091 1.45090909 104.522091"></polygon>
                <path d="M4.11370909,100.817627 L2.80216364,101.270082 C2.50561818,101.3719 2.23516364,101.439355 1.97107273,101.506809 L1.97107273,101.520173 C2.23516364,101.588264 2.51898182,101.655082 2.7958,101.750536 L4.11370909,102.195991 L4.11370909,100.817627 Z M4.57316364,102.317536 L6.00625455,102.790991 L6.00625455,103.399355 L1.45052727,101.844718 L1.45052727,101.142173 L6.00625455,99.5875364 L6.00625455,100.216264 L4.57316364,100.702445 L4.57316364,102.317536 Z" id="Fill-63"></path>
                <path d="M5.28945455,96.6769364 C5.45872727,96.4134818 5.58727273,96.0348455 5.58727273,95.6294818 C5.58727273,95.0281182 5.26909091,94.6762091 4.80963636,94.6762091 C4.39090909,94.6762091 4.14081818,94.9199364 3.91109091,95.5346636 C3.64063636,96.2785727 3.24863636,96.7380273 2.61354545,96.7380273 C1.904,96.7380273 1.37645455,96.1500273 1.37645455,95.2642091 C1.37645455,94.8053909 1.48463636,94.4604818 1.59981818,94.2644818 L2.07963636,94.4267545 C1.99118182,94.5686636 1.86327273,94.8728455 1.86327273,95.2845727 C1.86327273,95.9069364 2.23490909,96.1430273 2.54545455,96.1430273 C2.97118182,96.1430273 3.18118182,95.8662091 3.42427273,95.2374818 C3.72145455,94.4668455 4.09372727,94.0818455 4.76254545,94.0818455 C5.46509091,94.0818455 6.08045455,94.5953909 6.08045455,95.6702091 C6.08045455,96.1093 5.94490909,96.5891182 5.78263636,96.8322091 L5.28945455,96.6769364 Z" id="Fill-64"></path>
                <path d="M5.65453636,92.9911182 C5.41144545,92.9911182 5.22880909,92.8218455 5.22880909,92.5857545 C5.22880909,92.3490273 5.40444545,92.1867545 5.65453636,92.1867545 C5.89762727,92.1867545 6.08026364,92.3490273 6.08026364,92.5991182 C6.08026364,92.8288455 5.89762727,92.9911182 5.65453636,92.9911182" id="Fill-65"></path>
                <path d="M4.11370909,88.7528091 L2.80216364,89.2052636 C2.50561818,89.3070818 2.23516364,89.3745364 1.97107273,89.4419909 L1.97107273,89.4553545 C2.23516364,89.5228091 2.51898182,89.5909 2.7958,89.6850818 L4.11370909,90.1318091 L4.11370909,88.7528091 Z M4.57316364,90.2527182 L6.00625455,90.7261727 L6.00625455,91.3345364 L1.45052727,89.7799 L1.45052727,89.0773545 L6.00625455,87.5227182 L6.00625455,88.1514455 L4.57316364,88.6376273 L4.57316364,90.2527182 Z" id="Fill-66"></path>
                <path d="M5.65453636,86.5733909 C5.41144545,86.5733909 5.22880909,86.4041182 5.22880909,86.1680273 C5.22880909,85.9313 5.40444545,85.7690273 5.65453636,85.7690273 C5.89762727,85.7690273 6.08026364,85.9313 6.08026364,86.1813909 C6.08026364,86.4111182 5.89762727,86.5733909 5.65453636,86.5733909" id="Fill-67"></path>
                <polygon id="Fill-68" points="3.87036364 80.5969182 3.87036364 82.3609182 5.51281818 82.3609182 5.51281818 80.3875545 6.006 80.3875545 6.006 82.9559182 1.45090909 82.9559182 1.45090909 80.4887364 1.94409091 80.4887364 1.94409091 82.3609182 3.38354545 82.3609182 3.38354545 80.5969182"></polygon>
                <path d="M5.40444545,79.2832091 C5.51262727,79.1005727 5.63417273,78.7900273 5.63417273,78.4928455 C5.63417273,78.0664818 5.42480909,77.8641182 5.14799091,77.8641182 C4.86353636,77.8641182 4.71526364,78.0327545 4.55299091,78.4654818 C4.33662727,79.0598455 4.01908182,79.3373 3.62708182,79.3373 C3.10017273,79.3373 2.66744545,78.9045727 2.66744545,78.2090273 C2.66744545,77.8774818 2.75526364,77.5866636 2.87044545,77.4116636 L3.30253636,77.5529364 C3.22171818,77.6814818 3.10653636,77.9182091 3.10653636,78.2223909 C3.10653636,78.5736636 3.30953636,78.7633 3.55262727,78.7633 C3.82308182,78.7633 3.94462727,78.5736636 4.1139,78.1479364 C4.32326364,77.5866636 4.60708182,77.2894818 5.0939,77.2894818 C5.6749,77.2894818 6.08026364,77.7425727 6.08026364,78.5062091 C6.08026364,78.8644818 5.98608182,79.1953909 5.85053636,79.4251182 L5.40444545,79.2832091 Z" id="Fill-69"></path>
                <path d="M1.95102727,75.3683636 L2.73502727,75.3683636 L2.73502727,74.5169091 L3.18748182,74.5169091 L3.18748182,75.3683636 L4.95148182,75.3683636 C5.35748182,75.3683636 5.58720909,75.2531818 5.58720909,74.9222727 C5.58720909,74.76 5.57320909,74.6658182 5.54648182,74.5773636 L5.99893636,74.5506364 C6.03966364,74.6658182 6.08039091,74.8478182 6.08039091,75.0775455 C6.08039091,75.355 5.98557273,75.5777273 5.8303,75.7196364 C5.64766364,75.8819091 5.35748182,75.9493636 4.97184545,75.9493636 L3.18748182,75.9493636 L3.18748182,76.4559091 L2.73502727,76.4559091 L2.73502727,75.9493636 L2.12666364,75.9493636 L1.95102727,75.3683636 Z" id="Fill-70"></path>
                <path d="M4.33675455,71.6900545 C4.32339091,72.3391455 4.43793636,73.0754182 5.07302727,73.0754182 C5.46502727,73.0754182 5.6413,72.8183273 5.6413,72.5211455 C5.6413,72.0884182 5.37084545,71.8116 5.09339091,71.7167818 C5.02593636,71.6970545 4.95848182,71.6900545 4.90439091,71.6900545 L4.33675455,71.6900545 Z M5.22193636,71.1154182 C5.50575455,71.1154182 5.78257273,71.1020545 6.00593636,71.0683273 L6.00593636,71.6022364 L5.59357273,71.6493273 L5.59357273,71.6696909 C5.85066364,71.8523273 6.08039091,72.2036 6.08039091,72.6700545 C6.08039091,73.3325091 5.61393636,73.6704182 5.14111818,73.6704182 C4.35011818,73.6704182 3.91739091,72.9672364 3.92439091,71.7034182 L3.85693636,71.7034182 C3.59348182,71.7034182 3.1003,71.7778727 3.10666364,72.4466909 C3.10666364,72.7578727 3.19448182,73.0754182 3.34975455,73.3051455 L2.95139091,73.4400545 C2.78211818,73.1702364 2.66757273,72.7712364 2.66757273,72.3588727 C2.66757273,71.3585091 3.34975455,71.1154182 3.99884545,71.1154182 L5.22193636,71.1154182 Z" id="Fill-71"></path>
                <path d="M4.69470909,69.0992273 C4.76916364,69.0992273 4.84361818,69.0922273 4.91107273,69.0725 C5.32343636,68.9643182 5.60725455,68.6124091 5.60725455,68.1803182 C5.60725455,67.5515909 5.10070909,67.1869545 4.3498,67.1869545 C3.69498182,67.1869545 3.13370909,67.5242273 3.13370909,68.1669545 C3.13370909,68.5653182 3.41752727,68.9439545 3.86361818,69.0655 C3.93807273,69.0858636 4.01889091,69.0992273 4.11370909,69.0992273 L4.69470909,69.0992273 Z M1.20807273,69.6872273 L1.20807273,69.0992273 L3.26225455,69.0992273 L3.26225455,69.0858636 C2.89698182,68.8758636 2.66725455,68.4978636 2.66725455,67.9709545 C2.66725455,67.1525909 3.34307273,66.5849545 4.33007273,66.5849545 C5.49907273,66.5849545 6.08007273,67.3282273 6.08007273,68.0587727 C6.08007273,68.5315909 5.89807273,68.9102273 5.47234545,69.1603182 L5.47234545,69.1736818 L6.00625455,69.2074091 L6.00625455,69.7139545 C5.78289091,69.7005909 5.45134545,69.6872273 5.16116364,69.6872273 L1.20807273,69.6872273 Z" id="Fill-72"></path>
                <polygon id="Fill-73" points="1.20781818 65.3997273 6.006 65.3997273 6.006 64.8047273 1.20781818 64.8047273"></polygon>
                <path d="M4.05280909,61.2891364 C3.68117273,61.2821364 3.09317273,61.4444091 3.09317273,62.1138636 C3.09317273,62.7215909 3.64108182,62.9786818 4.05280909,63.0257727 L4.05280909,61.2891364 Z M4.47853636,63.0327727 C5.2829,63.0194091 5.61380909,62.5122273 5.61380909,61.9108636 C5.61380909,61.4851364 5.53935455,61.2216818 5.44517273,61.0053182 L5.8709,60.8971364 C5.96571818,61.1065 6.08026364,61.4717727 6.08026364,61.9916818 C6.08026364,62.9990455 5.41144545,63.6004091 4.42444545,63.6004091 C3.43808182,63.6004091 2.66744545,63.0194091 2.66744545,62.0661364 C2.66744545,60.9919545 3.60035455,60.7145 4.20171818,60.7145 C4.32326364,60.7145 4.41108182,60.7215 4.47853636,60.7348636 L4.47853636,63.0327727 Z" id="Fill-74"></path>
                <path d="M5.89100909,57.2111909 C5.96546364,57.3671 6.08000909,57.7113727 6.08000909,58.1511 C6.08000909,59.1374636 5.41119091,59.7795545 4.41082727,59.7795545 C3.4041,59.7795545 2.66782727,59.0903727 2.66782727,58.0219182 C2.66782727,57.6712818 2.75500909,57.3601 2.84282727,57.1978273 L3.29591818,57.3327364 C3.22146364,57.4752818 3.14064545,57.6980091 3.14064545,58.0219182 C3.14064545,58.7728273 3.70128182,59.1781909 4.3771,59.1781909 C5.13437273,59.1781909 5.60019091,58.6913727 5.60019091,58.0429182 C5.60019091,57.7043727 5.51937273,57.4816455 5.44491818,57.3130091 L5.89100909,57.2111909 Z" id="Fill-75"></path>
                <path d="M2.73509091,56.0738182 L6.006,56.0738182 L6.006,55.4788182 L2.73509091,55.4788182 L2.73509091,56.0738182 Z M1.81618182,55.4113636 C2.01854545,55.4113636 2.18081818,55.5532727 2.18081818,55.79 C2.18081818,56.0063636 2.01854545,56.1476364 1.81618182,56.1476364 C1.61318182,56.1476364 1.44454545,55.9993636 1.44454545,55.776 C1.44454545,55.5602727 1.60618182,55.4113636 1.81618182,55.4113636 L1.81618182,55.4113636 Z" id="Fill-76"></path>
                <path d="M3.62027273,54.0517727 C3.27536364,54.0517727 3.00554545,54.0651364 2.73509091,54.0785 L2.73509091,53.5585909 L3.269,53.5318636 L3.269,53.5108636 C2.95781818,53.3288636 2.66763636,53.0246818 2.66763636,52.4767727 C2.66763636,52.0376818 2.93809091,51.6997727 3.32309091,51.5578636 L3.32309091,51.5445 C3.13345455,51.4433182 2.99854545,51.3077727 2.89736364,51.1728636 C2.74845455,50.9768636 2.66763636,50.7675 2.66763636,50.4563182 C2.66763636,50.0172273 2.95145455,49.3751364 4.08672727,49.3751364 L6.006,49.3751364 L6.006,49.9561364 L4.16118182,49.9561364 C3.52609091,49.9561364 3.15445455,50.1928636 3.15445455,50.6663182 C3.15445455,51.0105909 3.40390909,51.2676818 3.68772727,51.3752273 C3.77554545,51.4025909 3.87736364,51.4229545 3.98554545,51.4229545 L6.006,51.4229545 L6.006,52.0039545 L4.046,52.0039545 C3.52609091,52.0039545 3.15445455,52.2343182 3.15445455,52.6867727 C3.15445455,53.0514091 3.451,53.3288636 3.74881818,53.4236818 C3.82963636,53.4567727 3.93781818,53.4707727 4.03963636,53.4707727 L6.006,53.4707727 L6.006,54.0517727 L3.62027273,54.0517727 Z" id="Fill-77"></path>
                <path d="M2.73509091,47.9716364 L6.006,47.9716364 L6.006,47.3766364 L2.73509091,47.3766364 L2.73509091,47.9716364 Z M1.81618182,47.3098182 C2.01854545,47.3098182 2.18081818,47.4510909 2.18081818,47.6878182 C2.18081818,47.9041818 2.01854545,48.0460909 1.81618182,48.0460909 C1.61318182,48.0460909 1.44454545,47.8978182 1.44454545,47.6744545 C1.44454545,47.4580909 1.60618182,47.3098182 1.81618182,47.3098182 L1.81618182,47.3098182 Z" id="Fill-78"></path>
                <path d="M4.05280909,43.8752364 C3.68117273,43.8682364 3.09317273,44.0305091 3.09317273,44.6993273 C3.09317273,45.3076909 3.64108182,45.5647818 4.05280909,45.6118727 L4.05280909,43.8752364 Z M4.47853636,45.6188727 C5.2829,45.6055091 5.61380909,45.0983273 5.61380909,44.4969636 C5.61380909,44.0712364 5.53935455,43.8077818 5.44517273,43.5914182 L5.8709,43.4832364 C5.96571818,43.6926 6.08026364,44.0578727 6.08026364,44.5777818 C6.08026364,45.5851455 5.41144545,46.1865091 4.42444545,46.1865091 C3.43808182,46.1865091 2.66744545,45.6055091 2.66744545,44.6522364 C2.66744545,43.5780545 3.60035455,43.3006 4.20171818,43.3006 C4.32326364,43.3006 4.41108182,43.3076 4.47853636,43.3209636 L4.47853636,45.6188727 Z" id="Fill-79"></path>
                <path d="M3.62027273,42.1221182 C3.27536364,42.1221182 3.00554545,42.1291182 2.73509091,42.1488455 L2.73509091,41.6219364 L3.27536364,41.5882091 L3.27536364,41.5748455 C2.97118182,41.4125727 2.66763636,41.0345727 2.66763636,40.4936636 C2.66763636,40.0405727 2.93809091,39.3380273 4.05936364,39.3380273 L6.006,39.3380273 L6.006,39.9323909 L4.12045455,39.9323909 C3.59354545,39.9323909 3.15445455,40.1283909 3.15445455,40.6896636 C3.15445455,41.0746636 3.43127273,41.3788455 3.76218182,41.4870273 C3.83663636,41.5137545 3.93781818,41.5271182 4.03963636,41.5271182 L6.006,41.5271182 L6.006,42.1221182 L3.62027273,42.1221182 Z" id="Fill-80"></path>
                <path d="M1.95102727,37.2129545 L2.73502727,37.2129545 L2.73502727,36.3615 L3.18748182,36.3615 L3.18748182,37.2129545 L4.95148182,37.2129545 C5.35748182,37.2129545 5.58720909,37.0977727 5.58720909,36.7668636 C5.58720909,36.6045909 5.57320909,36.5104091 5.54648182,36.4219545 L5.99893636,36.3952273 C6.03966364,36.5104091 6.08039091,36.6924091 6.08039091,36.9221364 C6.08039091,37.1995909 5.98557273,37.4223182 5.8303,37.5642273 C5.64766364,37.7265 5.35748182,37.7939545 4.97184545,37.7939545 L3.18748182,37.7939545 L3.18748182,38.3011364 L2.73502727,38.3011364 L2.73502727,37.7939545 L2.12666364,37.7939545 L1.95102727,37.2129545 Z" id="Fill-81"></path>
                <path d="M4.37716364,34.8862818 C5.09370909,34.8862818 5.63461818,34.4809182 5.63461818,33.8992818 C5.63461818,33.3322818 5.10070909,32.9059182 4.3638,32.9059182 C3.80952727,32.9059182 3.11334545,33.1833727 3.11334545,33.8859182 C3.11334545,34.5821 3.76243636,34.8862818 4.37716364,34.8862818 M4.34343636,32.2981909 C5.55316364,32.2981909 6.08007273,33.1426455 6.08007273,33.9266455 C6.08007273,34.8054636 5.43161818,35.4946455 4.39752727,35.4946455 C3.30934545,35.4946455 2.66725455,34.7711 2.66725455,33.8725545 C2.66725455,32.9332818 3.35007273,32.2981909 4.34343636,32.2981909" id="Fill-82"></path>
                <path d="M5.55978182,28.6242727 C5.58014545,28.5027273 5.58714545,28.3404545 5.58714545,28.1310909 C5.58714545,27.5227273 5.36378182,26.9614545 4.70132727,26.9614545 C4.0866,26.9614545 3.82314545,27.4953636 3.82314545,28.1374545 L3.82314545,28.6242727 L5.55978182,28.6242727 Z M3.38405455,28.6242727 L3.38405455,28.0903636 C3.38405455,27.475 3.05250909,27.1103636 2.61341818,27.1103636 C2.08650909,27.1103636 1.87014545,27.5093636 1.87014545,28.1037273 C1.87014545,28.3741818 1.88987273,28.5294545 1.91087273,28.6242727 L3.38405455,28.6242727 Z M1.51823636,29.2122727 C1.45778182,28.9551818 1.41705455,28.5434545 1.41705455,28.1374545 C1.41705455,27.5494545 1.51823636,27.1708182 1.7486,26.894 C1.92423636,26.6579091 2.19405455,26.509 2.55232727,26.509 C2.99841818,26.509 3.38405455,26.8061818 3.55269091,27.279 L3.57305455,27.279 C3.67423636,26.8469091 4.03250909,26.3397273 4.70832727,26.3397273 C5.10032727,26.3397273 5.40450909,26.4956364 5.62087273,26.7317273 C5.91169091,27.0429091 6.0466,27.5564545 6.0466,28.2997273 C6.0466,28.7050909 6.01987273,29.0162727 5.99250909,29.2122727 L1.51823636,29.2122727 Z" id="Fill-83"></path>
                <path d="M4.33675455,23.4109273 C4.32339091,24.0600182 4.43793636,24.7962909 5.07302727,24.7962909 C5.46502727,24.7962909 5.6413,24.5392 5.6413,24.2420182 C5.6413,23.8092909 5.37084545,23.5324727 5.09339091,23.4376545 C5.02593636,23.4179273 4.95848182,23.4109273 4.90439091,23.4109273 L4.33675455,23.4109273 Z M5.22193636,22.8362909 C5.50575455,22.8362909 5.78257273,22.8229273 6.00593636,22.7892 L6.00593636,23.3231091 L5.59357273,23.3702 L5.59357273,23.3905636 C5.85066364,23.5732 6.08039091,23.9244727 6.08039091,24.3909273 C6.08039091,25.0533818 5.61393636,25.3912909 5.14111818,25.3912909 C4.35011818,25.3912909 3.91739091,24.6881091 3.92439091,23.4242909 L3.85693636,23.4242909 C3.59348182,23.4242909 3.1003,23.4987455 3.10666364,24.1675636 C3.10666364,24.4787455 3.19448182,24.7962909 3.34975455,25.0260182 L2.95139091,25.1609273 C2.78211818,24.8911091 2.66757273,24.4921091 2.66757273,24.0797455 C2.66757273,23.0793818 3.34975455,22.8362909 3.99884545,22.8362909 L5.22193636,22.8362909 Z" id="Fill-84"></path>
                <path d="M3.62027273,21.4350182 C3.27536364,21.4350182 3.00554545,21.4420182 2.73509091,21.4617455 L2.73509091,20.9348364 L3.27536364,20.9011091 L3.27536364,20.8877455 C2.97118182,20.7254727 2.66763636,20.3468364 2.66763636,19.8059273 C2.66763636,19.3534727 2.93809091,18.6509273 4.05936364,18.6509273 L6.006,18.6509273 L6.006,19.2452909 L4.12045455,19.2452909 C3.59354545,19.2452909 3.15445455,19.4412909 3.15445455,20.0025636 C3.15445455,20.3875636 3.43127273,20.6917455 3.76218182,20.7999273 C3.83663636,20.8266545 3.93781818,20.8400182 4.03963636,20.8400182 L6.006,20.8400182 L6.006,21.4350182 L3.62027273,21.4350182 Z" id="Fill-85"></path>
                <path d="M5.89100909,14.9104455 C5.96546364,15.0663545 6.08000909,15.4106273 6.08000909,15.8503545 C6.08000909,16.8367182 5.41119091,17.4788091 4.41082727,17.4788091 C3.4041,17.4788091 2.66782727,16.7896273 2.66782727,15.7211727 C2.66782727,15.3705364 2.75500909,15.0593545 2.84282727,14.8970818 L3.29591818,15.0319909 C3.22146364,15.1745364 3.14064545,15.3972636 3.14064545,15.7211727 C3.14064545,16.4720818 3.70128182,16.8774455 4.3771,16.8774455 C5.13437273,16.8774455 5.60019091,16.3906273 5.60019091,15.7421727 C5.60019091,15.4036273 5.51937273,15.1809 5.44491818,15.0122636 L5.89100909,14.9104455 Z" id="Fill-86"></path>
                <path d="M4.33675455,12.0496091 C4.32339091,12.6987 4.43793636,13.4349727 5.07302727,13.4349727 C5.46502727,13.4349727 5.6413,13.1778818 5.6413,12.8807 C5.6413,12.4479727 5.37084545,12.1711545 5.09339091,12.0763364 C5.02593636,12.0566091 4.95848182,12.0496091 4.90439091,12.0496091 L4.33675455,12.0496091 Z M5.22193636,11.4749727 C5.50575455,11.4749727 5.78257273,11.4616091 6.00593636,11.4278818 L6.00593636,11.9617909 L5.59357273,12.0088818 L5.59357273,12.0292455 C5.85066364,12.2118818 6.08039091,12.5631545 6.08039091,13.0296091 C6.08039091,13.6920636 5.61393636,14.0299727 5.14111818,14.0299727 C4.35011818,14.0299727 3.91739091,13.3267909 3.92439091,12.0629727 L3.85693636,12.0629727 C3.59348182,12.0629727 3.1003,12.1374273 3.10666364,12.8062455 C3.10666364,13.1174273 3.19448182,13.4349727 3.34975455,13.6647 L2.95139091,13.7996091 C2.78211818,13.5297909 2.66757273,13.1307909 2.66757273,12.7184273 C2.66757273,11.7180636 3.34975455,11.4749727 3.99884545,11.4749727 L5.22193636,11.4749727 Z" id="Fill-87"></path>
                <path d="M3.75543636,10.0737 C3.37043636,10.0737 3.03952727,10.0807 2.73470909,10.1004273 L2.73470909,9.58051818 L3.3838,9.55379091 L3.3838,9.53279091 C2.94470909,9.38451818 2.66789091,9.01924545 2.66789091,8.62088182 C2.66789091,8.55979091 2.67425455,8.5127 2.68125455,8.45860909 L3.24189091,8.45860909 C3.22852727,8.5197 3.22852727,8.58015455 3.22852727,8.66097273 C3.22852727,9.08033636 3.53907273,9.37751818 3.98516364,9.45897273 C4.06661818,9.47233636 4.1678,9.4787 4.26198182,9.4787 L6.00625455,9.4787 L6.00625455,10.0737 L3.75543636,10.0737 Z" id="Fill-88"></path>
                <path d="M2.73509091,7.42954545 L6.006,7.42954545 L6.006,6.83454545 L2.73509091,6.83454545 L2.73509091,7.42954545 Z M1.81618182,6.76709091 C2.01854545,6.76709091 2.18081818,6.909 2.18081818,7.14572727 C2.18081818,7.36209091 2.01854545,7.504 1.81618182,7.504 C1.61318182,7.504 1.44454545,7.35509091 1.44454545,7.13236364 C1.44454545,6.916 1.60618182,6.76709091 1.81618182,6.76709091 L1.81618182,6.76709091 Z" id="Fill-89"></path>
                <path d="M4.37716364,5.03560909 C5.09370909,5.03560909 5.63461818,4.63024545 5.63461818,4.04860909 C5.63461818,3.48160909 5.10070909,3.05524545 4.3638,3.05524545 C3.80952727,3.05524545 3.11334545,3.3327 3.11334545,4.03524545 C3.11334545,4.73142727 3.76243636,5.03560909 4.37716364,5.03560909 M4.34343636,2.44751818 C5.55316364,2.44751818 6.08007273,3.29197273 6.08007273,4.07597273 C6.08007273,4.95479091 5.43161818,5.64397273 4.39752727,5.64397273 C3.30934545,5.64397273 2.66725455,4.92042727 2.66725455,4.02188182 C2.66725455,3.08260909 3.35007273,2.44751818 4.34343636,2.44751818" id="Fill-90"></path>
                <path d="M5.65453636,1.40388182 C5.41144545,1.40388182 5.22880909,1.23460909 5.22880909,0.998518182 C5.22880909,0.761790909 5.40444545,0.599518182 5.65453636,0.599518182 C5.89762727,0.599518182 6.08026364,0.761790909 6.08026364,1.01188182 C6.08026364,1.24160909 5.89762727,1.40388182 5.65453636,1.40388182" id="Fill-91"></path>
            </g>
        </g>
    </g>
</svg>