<?xml version="1.0" encoding="UTF-8"?>
<svg width="100px" height="19px" viewBox="0 0 100 19" version="1.1" xmlns="http://www.w3.org/2000/svg" xmlns:xlink="http://www.w3.org/1999/xlink">
    <!-- Generator: Sketch 41 (35326) - http://www.bohemiancoding.com/sketch -->
    <title>Page 1</title>
    <desc>Created with Sketch.</desc>
    <defs>
        <polygon id="path-1" points="0.124650602 14.5432099 12.0800723 14.5432099 12.0800723 0.22361358 0.124650602 0.22361358 0.124650602 14.5432099"></polygon>
        <polygon id="path-3" points="1.78024096 2.09267407 1.78024096 0.223637037 0.0414939759 0.223637037 0.0414939759 2.09267407 1.78024096 2.09267407"></polygon>
    </defs>
    <g id="Page-1" stroke="none" stroke-width="1" fill="none" fill-rule="evenodd">
        <g id="Success-message" transform="translate(-18.000000, -622.000000)">
            <g id="Page-1" transform="translate(18.000000, 622.000000)">
                <path d="M39.328988,10.4772099 C39.3104337,9.90392593 39.2000723,9.40218519 38.9979036,8.97198765 C38.5559759,8.00439506 37.755253,7.52071605 36.5957349,7.52071605 C35.4359759,7.52071605 34.635253,8.00439506 34.1933253,8.97198765 C33.9909157,9.40218519 33.8803133,9.90392593 33.862,10.4772099 L39.328988,10.4772099 Z M42.8632048,12.8693333 L33.862,12.8693333 C33.862,13.8012716 34.1424819,14.5537654 34.7041687,15.1270494 C35.2656145,15.7008025 36.0340482,15.9872099 37.0099518,15.9872099 C38.2798313,15.9872099 39.3658554,15.5480988 40.2677831,14.6701111 L42.448988,16.7397037 C41.6576627,17.5102593 40.8841687,18.0568025 40.1299518,18.3790988 C39.2644096,18.7555802 38.215012,18.9434691 36.982241,18.9434691 C32.5460964,18.9434691 30.3280241,16.5515802 30.3280241,11.7673333 C30.3280241,9.52767901 30.9077831,7.76255556 32.0675422,6.4724321 C33.1899518,5.23625926 34.6998313,4.61793827 36.5957349,4.61793827 C38.5465783,4.61793827 40.0928434,5.25432099 41.2342892,6.52614815 C42.3200723,7.74496296 42.8632048,9.33955556 42.8632048,11.3103951 L42.8632048,12.8693333 Z" id="Fill-1" fill="#00AFCF"></path>
                <path d="M56.4209639,14.3743914 C56.4209639,15.862021 55.8318072,17.0083543 54.6539759,17.8147988 C53.5496386,18.5672926 52.1043373,18.9435395 50.3195181,18.9435395 C48.9756627,18.9435395 47.88,18.8269593 47.033494,18.5942679 C45.9657831,18.2897988 45.0178313,17.7341074 44.1896386,16.927663 L46.5366265,14.6432062 C47.4380723,15.5214284 48.7178313,15.9600704 50.3744578,15.9600704 C52.0681928,15.9600704 52.9146988,15.4763914 52.9146988,14.5087988 C52.9146988,13.7384778 52.4079518,13.3085148 51.3959036,13.2186753 L49.1318072,13.0038111 C46.3337349,12.7349963 44.9354217,11.4272802 44.9354217,9.07949012 C44.9354217,7.68193457 45.4966265,6.57125556 46.6195181,5.74674938 C47.6501205,4.99425556 48.9387952,4.61800864 50.4850602,4.61800864 C52.9515663,4.61800864 54.7826506,5.16478642 55.9792771,6.2574037 L53.7706024,8.43466296 C53.0527711,7.80766296 51.9387952,7.49381111 50.4296386,7.49381111 C49.0674699,7.49381111 48.386506,7.94207037 48.386506,8.83765062 C48.386506,9.55449012 48.8833735,9.95771235 49.8773494,10.0470827 L52.1414458,10.2621815 C54.9942169,10.5309963 56.4209639,11.9018111 56.4209639,14.3743914" id="Fill-3" fill="#21459C"></path>
                <g id="Group-7" transform="translate(58.313253, 4.400447)">
                    <mask id="mask-2" fill="white">
                        <use xlink:href="#path-1"></use>
                    </mask>
                    <g id="Clip-6"></g>
                    <path d="M12.0800723,14.5404654 L8.57356627,14.5404654 L8.57356627,13.0917741 C7.63501205,14.0593667 6.43838554,14.5432802 4.98416867,14.5432802 C3.56657831,14.5432802 2.43453012,14.1311444 1.5880241,13.3068728 C0.612361446,12.357342 0.124650602,11.0315642 0.124650602,9.32907037 L0.124650602,0.22361358 L3.74175904,0.22361358 L3.74175904,8.84515679 C3.74175904,9.72337901 3.99621687,10.3862679 4.50561446,10.834058 C4.92416867,11.2103049 5.45163855,11.398663 6.08874699,11.398663 C6.74368675,11.398663 7.28079518,11.2103049 7.69886747,10.834058 C8.2080241,10.3862679 8.46296386,9.72337901 8.46296386,8.84515679 L8.46296386,0.22361358 L12.0800723,0.22361358 L12.0800723,14.5404654 Z" id="Fill-5" fill="#21459C" mask="url(#mask-2)"></path>
                </g>
                <path d="M82.9298072,5.93499012 L80.2240241,8.59569383 C79.6531807,8.04070617 79.0184819,7.76250864 78.3189639,7.76250864 C77.711253,7.76250864 77.1869157,7.96869383 76.7452289,8.38082963 C76.2481205,8.86450864 75.9994458,9.51871852 75.9994458,10.3427556 L75.9994458,18.940842 L72.4102892,18.940842 L72.4102892,4.62399012 L75.9167952,4.62399012 L75.9167952,6.12311358 C76.7818554,5.11986667 77.9873976,4.61789136 79.5336627,4.61789136 C80.8958313,4.61789136 82.0278795,5.05723704 82.9298072,5.93499012" id="Fill-8" fill="#21459C"></path>
                <path d="M91.2126988,13.6220148 L91.2126988,12.869521 L88.384988,12.869521 C87.0493253,12.869521 86.3808916,13.3980025 86.3808916,14.4552 C86.3808916,15.5302247 87.0676386,16.0678543 88.4404096,16.0678543 C89.6659518,16.0678543 90.4804096,15.7722988 90.8830602,15.1807185 C91.1030602,14.8581877 91.2126988,14.3388543 91.2126988,13.6220148 L91.2126988,13.6220148 Z M94.8300482,18.7825086 L91.3233012,18.7825086 L91.3233012,17.5730765 C90.4030602,18.4691259 89.224747,18.916916 87.7890843,18.916916 C86.1693253,18.916916 84.9541446,18.5136938 84.144747,17.7072494 C83.3346265,16.9010395 82.9295663,15.8440765 82.9295663,14.5358914 C82.9295663,13.3532 83.3466747,12.3813852 84.1816145,11.6197432 C85.0165542,10.8581012 86.2317349,10.477163 87.8281205,10.477163 L91.2126988,10.477163 L91.2126988,9.77838519 C91.2126988,8.30952099 90.3233012,7.57438519 88.544506,7.57438519 C87.3890843,7.57438519 86.4717349,7.96001481 85.7931807,8.7303358 L83.5095663,6.55331111 C84.1902892,5.81864444 84.9358313,5.30799012 85.7459518,5.02111358 C86.4818554,4.75253333 87.4669157,4.61812593 88.7004096,4.61812593 C92.7864337,4.61812593 94.8300482,6.26666914 94.8300482,9.56352099 L94.8300482,18.7825086 Z" id="Fill-10" fill="#21459C"></path>
                <polygon id="Fill-12" fill="#00AFCF" points="26.7593494 4.61805556 24.0236867 13.3873765 21.2239277 4.61805556 17.8579036 4.61805556 15.0901928 13.3873765 12.3224819 4.61805556 8.95621687 4.61805556 8.95621687 4.65582099 6.21549398 13.5241296 3.42103614 4.61805556 7.22891566e-05 4.61805556 4.80706024 18.9435864 7.62320482 18.9435864 10.6393494 9.90146296 13.6559759 18.9410062 16.4740482 18.9410062 19.5407952 9.90146296 22.5971807 18.9410062 25.375494 18.9410062 30.1253735 4.61805556"></polygon>
                <path d="M3.42091566,1.63843333 C3.42091566,2.5433963 2.66742169,3.27689012 1.73778313,3.27689012 C0.808385542,3.27689012 0.0548915663,2.5433963 0.0548915663,1.63843333 C0.0548915663,0.73347037 0.808385542,-2.34567901e-05 1.73778313,-2.34567901e-05 C2.66742169,-2.34567901e-05 3.42091566,0.73347037 3.42091566,1.63843333" id="Fill-14" fill="#ED1E7D"></path>
                <path d="M12.3224578,1.63843333 C12.3224578,2.5433963 11.5689639,3.27689012 10.6393253,3.27689012 C9.70992771,3.27689012 8.95643373,2.5433963 8.95643373,1.63843333 C8.95643373,0.73347037 9.70992771,-2.34567901e-05 10.6393253,-2.34567901e-05 C11.5689639,-2.34567901e-05 12.3224578,0.73347037 12.3224578,1.63843333" id="Fill-16" fill="#F68B2A"></path>
                <path d="M21.2238795,1.63843333 C21.2238795,2.5433963 20.4703855,3.27689012 19.540747,3.27689012 C18.6113494,3.27689012 17.8578554,2.5433963 17.8578554,1.63843333 C17.8578554,0.73347037 18.6113494,-2.34567901e-05 19.540747,-2.34567901e-05 C20.4703855,-2.34567901e-05 21.2238795,0.73347037 21.2238795,1.63843333" id="Fill-18" fill="#7AC142"></path>
                <path d="M30.1254217,1.63843333 C30.1254217,2.5433963 29.3719277,3.27689012 28.4422892,3.27689012 C27.5128916,3.27689012 26.7593976,2.5433963 26.7593976,1.63843333 C26.7593976,0.73347037 27.5128916,-2.34567901e-05 28.4422892,-2.34567901e-05 C29.3719277,-2.34567901e-05 30.1254217,0.73347037 30.1254217,1.63843333" id="Fill-20" fill="#21459C"></path>
                <polygon id="Fill-22" fill="#21459C" points="97.8088434 4.94975802 97.3071566 4.94975802 97.3071566 6.49321481 96.9324578 6.49321481 96.9324578 4.94975802 96.4307711 4.94975802 96.4307711 4.62417778 97.8088434 4.62417778"></polygon>
                <g id="Group-26" transform="translate(98.072289, 4.400447)">
                    <mask id="mask-4" fill="white">
                        <use xlink:href="#path-3"></use>
                    </mask>
                    <g id="Clip-25"></g>
                    <polygon id="Fill-24" fill="#21459C" mask="url(#mask-4)" points="1.78028916 2.09267407 1.4053494 2.09267407 1.4053494 1.00334074 1.03884337 1.71197037 0.785349398 1.71197037 0.416192771 1.00334074 0.416192771 2.09267407 0.0414939759 2.09267407 0.0414939759 0.223637037 0.409445783 0.223637037 0.908722892 1.23415556 1.4053494 0.223637037 1.78028916 0.223637037"></polygon>
                </g>
            </g>
        </g>
    </g>
</svg>