<svg xmlns="http://www.w3.org/2000/svg" width="80.199" height="80.199" viewBox="0 0 80.199 80.199"><g transform="translate(-973.099 -998.315)"><rect width="56.71" height="56.71" rx="28.355" transform="translate(1013.198 1078.514) rotate(-135)" fill="#00aac7" opacity="0.16"/><g transform="translate(1024.148 1039.045) rotate(45)" fill="none" stroke="#00aac7" stroke-linecap="round" stroke-width="0.8"><path d="M1,0H9.922a2,2,0,0,1,2,2V13.329a2,2,0,0,1-2,2H1a1,1,0,0,1-1-1V1A1,1,0,0,1,1,0Z" stroke="none"/><path d="M1,.4H9.922a1.6,1.6,0,0,1,1.6,1.6V13.329a1.6,1.6,0,0,1-1.6,1.6H1a.6.6,0,0,1-.6-.6V1A.6.6,0,0,1,1,.4Z" fill="none"/></g><g transform="translate(1023.941 1042.658) rotate(45)" fill="none" stroke="#00aac7" stroke-width="0.8"><rect width="6.813" height="10.219" rx="1" stroke="none"/><rect x="0.4" y="0.4" width="6.013" height="9.419" rx="0.6" fill="none"/></g><path d="M4030.275,271.881l13.658,13.612,3.554-3.561-9.086-9.014Z" transform="translate(-3015.26 749.446)" fill="none" stroke="#00aac7" stroke-linejoin="round" stroke-width="0.8"/><path d="M3.252,27.58h0L0,24.328,11.908,12.42l3.257,3.247L3.252,27.579ZM20.419,10.337h0L17.375,6.954,24.328,0l3.251,3.251L20.5,10.329l-.081.007Z" transform="translate(996.307 1026.976)" fill="none" stroke="#00aac7" stroke-width="0.8"/><path d="M4008.2,278.376l19.363,19.359,5.957-6.072h-2.134l.341-3.814-3.744.327-3.347-3.729.292-3.7-4.081.416.382-3.922-3.93.465.389-3.894-3.832.351.54-3.668Z" transform="translate(-3011.132 749.652)" fill="none" stroke="#00aac7" stroke-linejoin="round" stroke-width="0.8"/></g></svg>