<svg xmlns="http://www.w3.org/2000/svg" width="80.199" height="80.199" viewBox="0 0 80.199 80.199"><g transform="translate(-1045.099 -998.315)"><g transform="translate(-97 419)"><rect width="56.71" height="56.71" rx="28.355" transform="translate(1182.198 659.514) rotate(-135)" fill="#522fa0" opacity="0.159"/><g transform="translate(79.438 476)"><g transform="translate(1095.699 127)"><path d="M3580.49,70c-.191,0-.286.088-.478.088a3.49,3.49,0,0,0-.067.777v.143c0,.6,0,1.195,0,1.792a.415.415,0,0,1-.406.466,1.041,1.041,0,0,0-1.04,1.2c-.005.342-.153.528-.424.532s-.433-.185-.439-.52c-.013-.785-.285-1.1-1.052-1.209a.4.4,0,0,1-.388-.4c-.013-.729,0-1.459,0-2.209,0,0,0,.015,0-.656l-.582.088c-.016.192,0,.573,0,.573V71.3c0,.464,0,.928,0,1.392a1.029,1.029,0,0,0,1.022,1.159.444.444,0,0,1,.424.462c.008.125.006.25.022.374a.982.982,0,0,0,1,.884,1.006,1.006,0,0,0,.987-.91,1.77,1.77,0,0,0,.007-.187c.006-.482.083-.569.558-.629a1.025,1.025,0,0,0,.887-1.043c.008-.7,0-1.409,0-2.135C3580.523,70.664,3580.512,70.141,3580.49,70Z" transform="translate(-3570.521 -69.875)" fill="#522fa0" stroke="#522fa0" stroke-width="0.2"/><path d="M3542.3,79.637c-.009.124-.022.221-.022.318q0,3.73,0,7.461c0,.182.031.27.255.333a1.712,1.712,0,0,1,1.276,1.268,2.433,2.433,0,0,1,.07.591q.006,4.381,0,8.763a1.7,1.7,0,0,1-1.393,1.784,7.152,7.152,0,0,1-2.069-.015,1.683,1.683,0,0,1-1.314-1.73c-.007-.922,0-1.845,0-2.767q0-3.066,0-6.131a1.762,1.762,0,0,1,1.412-1.778c.192-.049.175-.157.175-.282q0-1.981,0-3.961,0-2.415,0-4.829c0-.467.087-.548.585-.548q4.448,0,8.895,0a2.757,2.757,0,0,0,2.588-1.765,2.525,2.525,0,0,0-2.5-3.241c-.006.094-.018.189-.018.284,0,.588,0,1.176,0,1.763,0,.389-.079.465-.479.465h-18.162c-.362,0-.438-.072-.439-.41,0-.695,0-1.39,0-2.122-.417,0-.814,0-1.211,0-.318,0-.378-.06-.38-.369,0-.262.005-.525,0-.787-.007-.243.119-.347.364-.347h1.23V70.374c0-.307,0-.615,0-.922s.073-.376.406-.381c.171,0,.343,0,.515,0h17.59c.526,0,.569.041.569.54,0,.588.005,1.176,0,1.763,0,.172.054.231.24.245a4.062,4.062,0,0,1,3.782,2.757,3.749,3.749,0,0,1-1.192,4.147,4.7,4.7,0,0,1-3.138,1.112q-3.618.007-7.236,0Zm7.391-10.04H3531.7v5.491h17.99Zm-6.352,24.362c0-1.492,0-2.983,0-4.474a1.276,1.276,0,0,0-1.34-1.3c-.343-.008-.687,0-1.029.007a1.26,1.26,0,0,0-1.33,1.3c0,.723,0,1.446,0,2.17q0,3.363,0,6.725a1.3,1.3,0,0,0,1.409,1.349q.43.005.858,0a1.312,1.312,0,0,0,1.433-1.384Q3543.338,96.156,3543.335,93.959Zm6.913-21.419a11.2,11.2,0,0,1,1.157.277,2.941,2.941,0,0,1,1.977,3.129,3.223,3.223,0,0,1-3.32,2.682q-4.26,0-8.521,0c-.221,0-.316.033-.315.277.01,2.821.006,5.642.007,8.463,0,.1.008.192.012.282h.494V87.3q0-3.811,0-7.622c0-.5.073-.566.591-.566h7.864a3.75,3.75,0,0,0,2.56-.982,3.382,3.382,0,0,0-.78-5.626,3.6,3.6,0,0,0-1.726-.405Zm-20.126-.432v.469h1.019v-.469Z" transform="translate(-3529.56 -69.07)" fill="#522fa0" stroke="#522fa0" stroke-width="0.2"/></g><g transform="translate(1087.208 138.441)"><path d="M2699.407,574.6v8.909c0,.507-.065.57-.582.57H2682.6c-.5,0-.579-.083-.579-.582q0-8.143,0-16.286c0-.531,0-1.063,0-1.594a1.163,1.163,0,0,1,1.195-1.245c.125-.008.25-.006.375-.006h14.191c.177,0,.354,0,.53.018a1.111,1.111,0,0,1,1.079,1.15c.014.5.009,1,.01,1.5Q2699.408,570.821,2699.407,574.6Zm-15.065-7.9c-.479,0-.915.018-1.349-.006-.3-.017-.392.09-.392.389q.011,8.035,0,16.069c0,.267.075.362.354.362q7.769-.011,15.538,0c.248,0,.35-.063.349-.333q-.01-8.082,0-16.163c0-.249-.083-.323-.325-.321-1.188.01-2.376,0-3.564.005-.049,0-.1.01-.178.018v.352c0,1.053.007,2.105,0,3.158a1.717,1.717,0,0,1-1.557,1.667c-.935.047-1.326.457-1.326,1.4q0,2.7,0,5.409a1.907,1.907,0,0,1-.316,1.123,2.024,2.024,0,0,1-2.024.765,1.732,1.732,0,0,1-1.728-1.863c0-.9,0-1.793,0-2.689a1.144,1.144,0,0,0-.842-1.177,2.967,2.967,0,0,0-.652-.038,1.8,1.8,0,0,1-1.982-1.976q0-2.861,0-5.721Zm.625,0a1.2,1.2,0,0,0-.023.141c0,2.084,0,4.169.007,6.253a1.276,1.276,0,0,0,.158.56,1.13,1.13,0,0,0,1.192.563,1.855,1.855,0,0,1,2.115,2.094c-.031.833-.01,1.667,0,2.5a1.066,1.066,0,0,0,.661,1.074,3.265,3.265,0,0,0,.821.13,1.237,1.237,0,0,0,1.406-1.383c-.036-1.833-.013-3.668-.009-5.5a1.768,1.768,0,0,1,1.62-1.79c.945-.092,1.293-.477,1.295-1.435s0-1.9,0-2.845V566.7a5.592,5.592,0,0,1-.848-.013c-.112-.018-.2-.183-.3-.281a1.617,1.617,0,0,1,.287-.263c.072-.04.183-.011.277-.011h5.174c.146-.919-.06-1.172-.923-1.172H2683.43a1.561,1.561,0,0,0-.25,0c-.262.043-.494.151-.533.442a5.649,5.649,0,0,0-.006.728h3.063c.2,0,.381.058.37.28-.009.2-.167.295-.376.29C2685.459,566.694,2685.222,566.7,2684.968,566.7Z" transform="translate(-2682.021 -564.37)" fill="#522fa0" stroke="#522fa0" stroke-width="0.2"/><path d="M2725.65,578.982c-.436,0-.872,0-1.308,0-.212,0-.417-.022-.415-.3,0-.256.195-.28.4-.279q1.323,0,2.647,0c.2,0,.4.028.4.278,0,.267-.2.3-.416.3C2726.522,578.98,2726.087,578.982,2725.65,578.982Z" transform="translate(-2718.687 -576.651)" fill="#522fa0" stroke="#522fa0" stroke-width="0.2"/></g></g></g></g></svg>