<svg xmlns="http://www.w3.org/2000/svg" width="80.199" height="80.199" viewBox="0 0 80.199 80.199"><g transform="translate(-1114.099 -998.315)"><rect width="56.71" height="56.71" rx="28.355" transform="translate(1154.198 1078.514) rotate(-135)" fill="#b0b0b0" opacity="0.16"/><g transform="translate(1069.813 973.25)"><rect width="15.532" height="3.638" transform="translate(71.559 49.75)" fill="none" stroke="#383838" stroke-miterlimit="10" stroke-width="0.8"/><rect width="3.498" height="15.672" transform="translate(94.928 62.904)" fill="none" stroke="#383838" stroke-miterlimit="10" stroke-width="0.8"/><path d="M76.491,56.5,76.48,66.917c.161,2.965.393,6.413,2.682,8.648,2.575,2.515,6.642,2.7,10.025,2.763H97.2V68.954l-7.349.036c-1.8.043-2.751-1.309-2.725-3.072.046-3.134.016-6.272,0-9.417Z" transform="translate(-2.273 -2.972)" fill="none" stroke="#383838" stroke-miterlimit="10" stroke-width="0.8"/><line y1="8.956" transform="translate(92.689 66.122)" fill="none" stroke="#383838" stroke-miterlimit="10" stroke-width="0.8"/><line x2="11.195" transform="translate(73.938 55.767)" fill="none" stroke="#383838" stroke-miterlimit="10" stroke-width="0.8"/><path d="M74.479,92.832q-1,2.33-2,4.66a13.934,13.934,0,0,0-1.106,2.756,3.392,3.392,0,0,0,3.361,3.845A3.538,3.538,0,0,0,77.96,99.7a18.086,18.086,0,0,0-1.378-3.294L74.99,92.829A.279.279,0,0,0,74.479,92.832Z" transform="translate(0 -18.893)" fill="none" stroke="#383838" stroke-miterlimit="10" stroke-width="0.8"/></g></g></svg>