<svg xmlns="http://www.w3.org/2000/svg" width="21.202" height="22.025" viewBox="0 0 21.202 22.025">
  <g id="admin_sistema_3" transform="translate(-95.95 -912.098)">
    <path id="Trazado_5846" data-name="Trazado 5846" d="M110.806,917.815a3.654,3.654,0,0,1-3.98,3.639,3.78,3.78,0,0,1-3.326-3.828v-1.083a3.78,3.78,0,0,1,3.326-3.828,3.654,3.654,0,0,1,3.98,3.639Z" transform="translate(-0.602 0)" fill="none" stroke="#333" stroke-linecap="round" stroke-linejoin="round" stroke-width="1.2"/>
    <path id="Trazado_5847" data-name="Trazado 5847" d="M108.472,925.924l-1.221,1.459a.914.914,0,0,1-1.4,0l-1.221-1.459a1.8,1.8,0,0,0-2.088-.522,10.048,10.048,0,0,0-5.986,8.194.922.922,0,0,0,.913,1.016h18.164a.922.922,0,0,0,.913-1.016,10.048,10.048,0,0,0-5.986-8.194A1.8,1.8,0,0,0,108.472,925.924Z" transform="translate(0 -1.089)" fill="none" stroke="#333" stroke-linecap="round" stroke-linejoin="round" stroke-width="1.2"/>
  </g>
</svg>
