<svg xmlns="http://www.w3.org/2000/svg" width="19.2" height="23.201" viewBox="0 0 19.2 23.201">
  <g id="art_comprados_3" transform="translate(-1010.9 -815.879)">
    <path id="Trazado_5839" data-name="Trazado 5839" d="M1024.029,821.283h-7.412L1014.5,816.5a4.162,4.162,0,0,1,3.176.957,3.042,3.042,0,0,1,2.647-.977c1.588.02,2.127.315,2.647.977a4.162,4.162,0,0,1,3.176-.957Z" transform="translate(0.176)" fill="none" stroke="#333" stroke-miterlimit="10" stroke-width="1.2"/>
    <path id="Trazado_5840" data-name="Trazado 5840" d="M1024.206,821.5h-7.412c-2.118,1.913-5.294,5.273-5.294,8.61,0,4.594,3.984,8.337,9,8.586,5.016-.25,9-3.992,9-8.586C1029.5,826.773,1026.323,823.413,1024.206,821.5Z" transform="translate(0 -0.218)" fill="none" stroke="#333" stroke-miterlimit="10" stroke-width="1.2"/>
    <path id="Trazado_5841" data-name="Trazado 5841" d="M1017.6,827.9a2.554,2.554,0,0,1,5.082,0" transform="translate(0.359 -0.395)" fill="none" stroke="#333" stroke-linecap="round" stroke-linejoin="round" stroke-width="1.2"/>
    <path id="Trazado_5842" data-name="Trazado 5842" d="M1022.682,832a2.554,2.554,0,0,1-5.082,0" transform="translate(0.359 -0.672)" fill="none" stroke="#333" stroke-linecap="round" stroke-linejoin="round" stroke-width="1.2"/>
    <path id="Trazado_5843" data-name="Trazado 5843" d="M1017.6,828c0,1.531.867,1.913,2.541,1.913,1.521,0,2.541.383,2.541,1.913" transform="translate(0.359 -0.499)" fill="none" stroke="#333" stroke-linecap="round" stroke-linejoin="round" stroke-width="1.2"/>
    <path id="Trazado_5844" data-name="Trazado 5844" d="M1020,835.5" transform="translate(0.5 -0.824)" fill="none" stroke="#333" stroke-linecap="round" stroke-linejoin="round" stroke-width="1.2"/>
    <path id="Trazado_5845" data-name="Trazado 5845" d="M1020,824.5" transform="translate(0.5 -0.347)" fill="none" stroke="#333" stroke-linecap="round" stroke-linejoin="round" stroke-width="1.2"/>
  </g>
</svg>
