<svg xmlns="http://www.w3.org/2000/svg" width="21.2" height="17.722" viewBox="0 0 21.2 17.722">
  <g id="art_publicados_1" transform="translate(-155.4 -175.4)">
    <g id="Grupo_6677" data-name="Grupo 6677" transform="translate(156 176)">
      <path id="Trazado_5838" data-name="Trazado 5838" d="M1555.63,931.022H1537.37a.87.87,0,0,1-.87-.87v-14.6a1.056,1.056,0,0,1,1.052-1.053h17.9a1.056,1.056,0,0,1,1.052,1.053v14.6A.87.87,0,0,1,1555.63,931.022Z" transform="translate(-1536.5 -914.5)" fill="none" stroke="#433490" stroke-linecap="round" stroke-linejoin="round" stroke-width="1.2"/>
      <line id="Línea_62" data-name="Línea 62" x2="20" transform="translate(0 4.348)" fill="none" stroke="#433490" stroke-linecap="round" stroke-linejoin="round" stroke-width="1.2"/>
      <circle id="Elipse_222" data-name="Elipse 222" cx="0.87" cy="0.87" r="0.87" transform="translate(1.304 1.304)" fill="#433490"/>
      <circle id="Elipse_223" data-name="Elipse 223" cx="0.87" cy="0.87" r="0.87" transform="translate(3.913 1.304)" fill="#433490"/>
      <circle id="Elipse_224" data-name="Elipse 224" cx="0.87" cy="0.87" r="0.87" transform="translate(6.522 1.304)" fill="#433490"/>
    </g>
    <g id="Grupo_6678" data-name="Grupo 6678" transform="translate(160.348 182.464)">
      <circle id="Elipse_225" data-name="Elipse 225" cx="0.977" cy="0.977" r="0.977" transform="translate(8.275)" stroke-width="1" stroke="#433490" stroke-linecap="round" stroke-linejoin="round" fill="none"/>
      <line id="Línea_63" data-name="Línea 63" y1="3.46" x2="2.643" transform="translate(0 0.977)" fill="none" stroke="#433490" stroke-linecap="round" stroke-linejoin="round" stroke-width="1"/>
      <line id="Línea_64" data-name="Línea 64" x1="5.66" y1="6.472" transform="translate(2.643 0.977)" fill="none" stroke="#433490" stroke-linecap="round" stroke-linejoin="round" stroke-width="1"/>
      <line id="Línea_65" data-name="Línea 65" y1="1.384" x2="1.322" transform="translate(5.287 2.361)" fill="none" stroke="#433490" stroke-linecap="round" stroke-linejoin="round" stroke-width="1"/>
      <line id="Línea_66" data-name="Línea 66" x1="3.965" y1="4.844" transform="translate(6.609 2.361)" fill="none" stroke="#433490" stroke-linecap="round" stroke-linejoin="round" stroke-width="1"/>
    </g>
  </g>
</svg>
