<svg xmlns="http://www.w3.org/2000/svg" width="21.2" height="21.2" viewBox="0 0 21.2 21.2">
  <g id="configuraciones_1" transform="translate(-1679.9 -239.9)">
    <path id="Trazado_5836" data-name="Trazado 5836" d="M1684.043,246.91l-1.536-2.558,1.844-1.844,2.558,1.537v0a6.914,6.914,0,0,1,1.565-.652l.722-2.9h2.609l.722,2.9a6.917,6.917,0,0,1,1.565.652v0l2.558-1.537,1.844,1.844-1.536,2.558h0a6.922,6.922,0,0,1,.652,1.565l2.9.722V251.8l-2.9.722a6.921,6.921,0,0,1-.652,1.565h0l1.536,2.557-1.844,1.844-2.558-1.536v0a6.919,6.919,0,0,1-1.565.652l-.722,2.9H1689.2l-.722-2.9a6.915,6.915,0,0,1-1.565-.652v0l-2.558,1.536-1.844-1.844,1.536-2.557h0a6.915,6.915,0,0,1-.652-1.565l-2.9-.722V249.2l2.9-.722a6.916,6.916,0,0,1,.652-1.565Z" fill="none" stroke="#433490" stroke-linecap="round" stroke-linejoin="round" stroke-width="1.2"/>
    <circle id="Elipse_221" data-name="Elipse 221" cx="4.348" cy="4.348" r="4.348" transform="translate(1686.152 246.152)" stroke-width="1.2" stroke="#433490" stroke-linecap="round" stroke-linejoin="round" fill="none"/>
  </g>
</svg>
