<svg xmlns="http://www.w3.org/2000/svg" width="12.674" height="12.654" viewBox="0 0 12.674 12.654">
  <path id="star" d="M834.194,282.814c.124-.385.246-.762.367-1.138l.973-3.035a.355.355,0,0,1,.348-.294.383.383,0,0,1,.378.293q.669,2.047,1.335,4.094a.15.15,0,0,0,.172.123q2.018.013,4.035.032a.386.386,0,0,1,.4.207.421.421,0,0,1-.137.52l-2.606,2.028c-.234.182-.465.366-.7.543a.129.129,0,0,0-.054.167q.616,2.044,1.228,4.09c.067.222.033.357-.114.462a.378.378,0,0,1-.469-.01l-2.017-1.467-1.455-1.057-2.515,1.874-.866.644a.365.365,0,0,1-.465.044.382.382,0,0,1-.137-.468q.6-2.056,1.195-4.112a.131.131,0,0,0-.053-.168q-1.64-1.286-3.276-2.577a.373.373,0,0,1-.168-.447.409.409,0,0,1,.418-.275l3.989-.075C834.063,282.813,834.126,282.814,834.194,282.814Z" transform="translate(-829.569 -278.346)" fill="#ffaa36"/>
</svg>
