<svg xmlns="http://www.w3.org/2000/svg" width="14.787" height="16.297" viewBox="0 0 14.787 16.297"><g transform="translate(-1041.493 -418.5)"><path d="M870.825,288.52a2.909,2.909,0,0,1,2.615,1.6,4.648,4.648,0,0,1,.247,2.062" transform="translate(175.158 130.48)" fill="none" stroke="#9f9f9f" stroke-linecap="round" stroke-linejoin="round" stroke-width="1"/><path d="M878.572,296.774c-.366-2.707-1.76-3.957-3.928-4.081-1.441-.14-2.126,1.375-2.9,1.3-.775.075-1.458-1.41-2.9-1.3-2.166.167-3.563,1.374-3.929,4.081-.453,3.349,1.908,7.556,3.872,8.327.983.386,1.793-.323,2.959-.286,1.055.034,1.976.671,2.959.286C876.665,304.33,879.026,300.123,878.572,296.774Z" transform="translate(177.144 129.094)" fill="none" stroke="#9f9f9f" stroke-linecap="round" stroke-linejoin="round" stroke-width="1"/></g></svg>