<svg xmlns="http://www.w3.org/2000/svg" width="15.335" height="15.957" viewBox="0 0 15.335 15.957"><g transform="translate(-1038.5 -378.493)"><circle cx="1.303" cy="1.303" r="1.303" transform="translate(1050.077 391.344)" fill="none" stroke="#433490" stroke-miterlimit="10" stroke-width="1"/><circle cx="1.303" cy="1.303" r="1.303" transform="translate(1042.258 391.344)" fill="none" stroke="#433490" stroke-miterlimit="10" stroke-width="1"/><path d="M0,0H12.38a0,0,0,0,1,0,0V0A5.864,5.864,0,0,1,6.516,5.864h-2.2A4.319,4.319,0,0,1,0,1.545V0A0,0,0,0,1,0,0Z" transform="translate(1040.955 384.176)" fill="none" stroke="#433490" stroke-linecap="round" stroke-linejoin="round" stroke-width="1"/><path d="M1022.778,193.1l-.778,4.628h5.538v-.551a4.664,4.664,0,0,0-4.029-4.62A.656.656,0,0,0,1022.778,193.1Z" transform="translate(25.797 186.444)" fill="none" stroke="#433490" stroke-linecap="round" stroke-linejoin="round" stroke-width="1"/><path d="M1008.5,197.5h1.3l.652,1.955" transform="translate(30.5 184.721)" fill="none" stroke="#433490" stroke-linecap="round" stroke-linejoin="round" stroke-width="1"/></g></svg>