<svg xmlns="http://www.w3.org/2000/svg" width="21.555" height="14.68" viewBox="0 0 21.555 14.68"><path d="M50.1,164.987c-.136.334-.255.613-.365.9-.263.68-.512,1.365-.787,2.04a.364.364,0,0,0,.184.543,3.72,3.72,0,0,1-3.677,6.464,3.723,3.723,0,0,1,.966-6.941,5.92,5.92,0,0,1,1.532,0c.227.019.321-.018.4-.224.785-2.067,1.584-4.128,2.358-6.2.144-.384.335-.564.757-.519.332.036.671,0,1.006.009a1.027,1.027,0,0,1,1,.941,1.055,1.055,0,0,1-.838,1.132c-.209.038-.433.051-.5-.214-.057-.239.107-.33.321-.378a.434.434,0,0,0,.375-.492c-.022-.282-.227-.386-.468-.406a5.525,5.525,0,0,0-.826,0,.333.333,0,0,0-.24.163c-.267.663-.517,1.332-.8,2.061h5.9c.62,0,.69-.063.81-.788-.194,0-.378,0-.562,0s-.371-.034-.39-.27c-.02-.256.171-.338.368-.349.382-.022.767-.025,1.149-.01a2.551,2.551,0,0,0,1.855-.622c.17-.149.36-.236.525-.016.145.193.041.351-.124.492a3.031,3.031,0,0,1-1.817.768c-.214.013-.289.112-.393.286a1.459,1.459,0,0,0,.088,1.626c.6,1.032,1.121,2.108,1.637,3.09a19.092,19.092,0,0,1,1.929-.123,3.725,3.725,0,0,1,3.194,2.7,3.782,3.782,0,0,1-2.727,4.6,3.74,3.74,0,0,1-4.516-2.842c-.073-.387-.21-.552-.6-.494a1.83,1.83,0,0,1-.467,0,.878.878,0,0,0-1.016.525,1.419,1.419,0,0,1-2.069.4,1.5,1.5,0,0,1-.319-2.131.5.5,0,0,0,.067-.428c-.9-1.674-1.814-3.339-2.729-5C50.252,165.2,50.194,165.127,50.1,164.987ZM48,168.669a2.532,2.532,0,0,0-1.642-.03,3.109,3.109,0,1,0,3.807,3.934,3.152,3.152,0,0,0-1.28-3.553c-.187-.119-.313-.148-.4.115-.1.306-.23.6-.345.9-.2.525-.395,1.051-.6,1.574-.078.2-.2.387-.451.291s-.2-.315-.136-.518c.015-.045.036-.089.053-.133Zm11.918.1c.461.886.9,1.719,1.33,2.559.222.434.121.594-.363.6-.862,0-1.724.007-2.586,0-.258,0-.358.087-.293.341a3.277,3.277,0,0,0,.894,1.609,3.11,3.11,0,1,0,3.072-5.208A2.755,2.755,0,0,0,59.919,168.772Zm-9.3-4.234c.043.1.056.149.078.191.96,1.751,1.925,3.5,2.875,5.254.145.27.353.163.555.182.251.023.327-.136.4-.321q.752-1.862,1.509-3.72c.208-.514.411-1.031.633-1.585Zm6.591.43c-.086.177-.13.257-.165.342-.619,1.514-1.234,3.029-1.858,4.54-.13.314-.285.6.1.866.106.073.127.26.224.359a.716.716,0,0,0,.376.239c.356.033.718-.006,1.076.017.291.019.4-.1.444-.374a3.612,3.612,0,0,1,1.007-1.943c.194-.2.529-.379.56-.6s-.218-.508-.351-.761C58.17,166.786,57.714,165.921,57.213,164.968Zm2.166,4.124a2.84,2.84,0,0,0-1.371,2.005c0,.078.169.213.265.217.49.022.982.01,1.473.01h.8Zm-4.4,2.541a.868.868,0,0,0-.863-.869.908.908,0,0,0-.861.889.892.892,0,0,0,.863.841A.834.834,0,0,0,54.981,171.634Z" transform="translate(-43.349 -160.945)" fill="#433490" stroke="#433490" stroke-width="0.2"/></svg>