<svg xmlns="http://www.w3.org/2000/svg" width="17.801" height="13.453" viewBox="0 0 17.801 13.453"><g transform="translate(0.51 0.5)"><path d="M877.627,706.5h-9.382a3.7,3.7,0,0,0-3.662,2.855,3.648,3.648,0,0,0,6.807,2.457,1.678,1.678,0,0,1,1.483-.936h.028a1.659,1.659,0,0,1,1.475.923,3.66,3.66,0,0,0,4.315,1.843,3.543,3.543,0,0,0,2.4-2.329A3.658,3.658,0,0,0,877.627,706.5Z" transform="translate(-864.5 -701.395)" fill="none" stroke="#9f9f9f" stroke-linecap="round" stroke-linejoin="round" stroke-width="1"/><line y2="2.917" transform="translate(3.647 7.293)" stroke-width="1" stroke="#9f9f9f" stroke-linecap="round" stroke-linejoin="round" fill="none"/><line x2="2.917" transform="translate(2.188 8.751)" stroke-width="1" stroke="#9f9f9f" stroke-linecap="round" stroke-linejoin="round" fill="none"/><circle cx="0.365" cy="0.365" r="0.365" transform="translate(12.763 6.928)" fill="#163567" stroke="#9f9f9f" stroke-width="1"/><circle cx="0.365" cy="0.365" r="0.365" transform="translate(12.763 9.845)" fill="#163567" stroke="#9f9f9f" stroke-width="1"/><circle cx="0.365" cy="0.365" r="0.365" transform="translate(14.221 8.387)" fill="#163567" stroke="#9f9f9f" stroke-width="1"/><circle cx="0.365" cy="0.365" r="0.365" transform="translate(11.304 8.387)" fill="#163567" stroke="#9f9f9f" stroke-width="1"/><path d="M881.793,699.5h0a2.188,2.188,0,0,1-2.188,2.188h-2.917a2.188,2.188,0,0,0-2.188,2.188v.365" transform="translate(-867.207 -699.5)" fill="none" stroke="#9f9f9f" stroke-linecap="round" stroke-linejoin="round" stroke-width="1"/></g></svg>