<svg xmlns="http://www.w3.org/2000/svg" width="17.789" height="14.127" viewBox="0 0 17.789 14.127"><g transform="translate(-1037.5 -302.373)"><path d="M196.876,513.808l.729,7.9h-2.188a.73.73,0,0,1-.729-.729l-.624-4.483a1.4,1.4,0,0,0-.584-.987A2.187,2.187,0,0,1,194.8,511.5,2.269,2.269,0,0,1,196.876,513.808Z" transform="translate(845.5 -205.71)" fill="none" stroke="#9f9f9f" stroke-linecap="round" stroke-linejoin="round" stroke-width="1"/><path d="M211.786,511.53a2.187,2.187,0,0,1,.847,3.975,1.54,1.54,0,0,0-.66.859l-.556,4.616a.73.73,0,0,1-.729.729H208.5l.729-8.022A2.247,2.247,0,0,1,211.786,511.53Z" transform="translate(841.169 -205.71)" fill="none" stroke="#9f9f9f" stroke-linecap="round" stroke-linejoin="round" stroke-width="1"/><line x2="8.022" transform="translate(1042.376 316)" stroke-width="1" stroke="#9f9f9f" stroke-linecap="round" stroke-linejoin="round" fill="none"/><path d="M206.061,520.3a10.1,10.1,0,0,0-6.555,0" transform="translate(843.603 -207.943)" fill="none" stroke="#9f9f9f" stroke-linecap="round" stroke-linejoin="round" stroke-width="1"/><path d="M195.5,510.417v-.729a2.185,2.185,0,0,1,2.188-2.188h8.022a2.185,2.185,0,0,1,2.188,2.188v.729" transform="translate(844.688 -204.627)" fill="none" stroke="#9f9f9f" stroke-linecap="round" stroke-linejoin="round" stroke-width="1"/></g></svg>