<svg xmlns="http://www.w3.org/2000/svg" width="17.773" height="17.773" viewBox="0 0 17.773 17.773"><g transform="translate(-1037.5 -140.5)"><rect width="5.834" height="12.398" transform="translate(1038 145.376)" stroke-width="1" stroke="#9f9f9f" stroke-linecap="round" stroke-linejoin="round" fill="none"/><rect width="3.646" height="2.188" transform="translate(1040.188 147.564)" stroke-width="1" stroke="#9f9f9f" stroke-linecap="round" stroke-linejoin="round" fill="none"/><rect width="3.646" height="2.188" transform="translate(1040.188 151.939)" stroke-width="1" stroke="#9f9f9f" stroke-linecap="round" stroke-linejoin="round" fill="none"/><path d="M1.823,0h0A1.823,1.823,0,0,1,3.646,1.823V3.646a0,0,0,0,1,0,0H0a0,0,0,0,1,0,0V1.823A1.823,1.823,0,0,1,1.823,0Z" transform="translate(1047.481 154.127)" fill="none" stroke="#9f9f9f" stroke-linecap="round" stroke-linejoin="round" stroke-width="1"/><line x2="0.729" transform="translate(1046.022 143.188)" stroke-width="1" stroke="#9f9f9f" stroke-linecap="round" stroke-linejoin="round" fill="none"/><line x2="0.729" transform="translate(1048.939 143.188)" stroke-width="1" stroke="#9f9f9f" stroke-linecap="round" stroke-linejoin="round" fill="none"/><line x2="0.729" transform="translate(1051.856 143.188)" stroke-width="1" stroke="#9f9f9f" stroke-linecap="round" stroke-linejoin="round" fill="none"/><line x2="0.729" transform="translate(1046.022 145.376)" stroke-width="1" stroke="#9f9f9f" stroke-linecap="round" stroke-linejoin="round" fill="none"/><line x2="0.729" transform="translate(1048.939 145.376)" stroke-width="1" stroke="#9f9f9f" stroke-linecap="round" stroke-linejoin="round" fill="none"/><line x2="0.729" transform="translate(1051.856 145.376)" stroke-width="1" stroke="#9f9f9f" stroke-linecap="round" stroke-linejoin="round" fill="none"/><line x2="0.729" transform="translate(1046.022 147.564)" stroke-width="1" stroke="#9f9f9f" stroke-linecap="round" stroke-linejoin="round" fill="none"/><line x2="0.729" transform="translate(1048.939 147.564)" stroke-width="1" stroke="#9f9f9f" stroke-linecap="round" stroke-linejoin="round" fill="none"/><line x2="0.729" transform="translate(1051.856 147.564)" stroke-width="1" stroke="#9f9f9f" stroke-linecap="round" stroke-linejoin="round" fill="none"/><line x2="0.729" transform="translate(1046.022 149.751)" stroke-width="1" stroke="#9f9f9f" stroke-linecap="round" stroke-linejoin="round" fill="none"/><line x2="0.729" transform="translate(1048.939 149.751)" stroke-width="1" stroke="#9f9f9f" stroke-linecap="round" stroke-linejoin="round" fill="none"/><line x2="0.729" transform="translate(1051.856 149.751)" stroke-width="1" stroke="#9f9f9f" stroke-linecap="round" stroke-linejoin="round" fill="none"/><line x2="0.729" transform="translate(1046.022 151.939)" stroke-width="1" stroke="#9f9f9f" stroke-linecap="round" stroke-linejoin="round" fill="none"/><line x2="0.729" transform="translate(1048.939 151.939)" stroke-width="1" stroke="#9f9f9f" stroke-linecap="round" stroke-linejoin="round" fill="none"/><line x2="0.729" transform="translate(1051.856 151.939)" stroke-width="1" stroke="#9f9f9f" stroke-linecap="round" stroke-linejoin="round" fill="none"/><rect width="10.939" height="16.773" transform="translate(1043.834 141)" stroke-width="1" stroke="#9f9f9f" stroke-linecap="round" stroke-linejoin="round" fill="none"/></g></svg>