<svg xmlns="http://www.w3.org/2000/svg" width="19" height="14.258" viewBox="0 0 19 14.258"><g transform="translate(-648 -1276)"><path d="M664.758,1282.071a66.534,66.534,0,0,1-13.258,0" transform="translate(-0.66 -1.226)" fill="none" stroke="#9f9f9f" stroke-linejoin="round" stroke-width="1"/><path d="M667.84,1290.78v1.17a.78.78,0,0,1-.78.78h-.78a.78.78,0,0,1-.78-.78V1290" transform="translate(-3.742 -2.972)" fill="none" stroke="#9f9f9f" stroke-linejoin="round" stroke-width="1"/><path d="M651.5,1290.78v1.17a.78.78,0,0,0,.78.78h.78a.78.78,0,0,0,.78-.78V1290" transform="translate(-0.66 -2.972)" fill="none" stroke="#9f9f9f" stroke-linejoin="round" stroke-width="1"/><line x2="5.459" transform="translate(654.739 1285.078)" stroke-width="1" stroke="#9f9f9f" stroke-linecap="round" stroke-linejoin="round" fill="none"/><path d="M653.84,1287.28h-1.686a.773.773,0,0,1-.654-.78" transform="translate(-0.66 -2.201)" fill="none" stroke="#9f9f9f" stroke-linecap="round" stroke-linejoin="round" stroke-width="1"/><path d="M665.5,1287.28h1.686a.773.773,0,0,0,.654-.78" transform="translate(-3.742 -2.201)" fill="none" stroke="#9f9f9f" stroke-linecap="round" stroke-linejoin="round" stroke-width="1"/><path d="M650.45,1282.06h-1.17a.773.773,0,0,1-.78-.653h0c0-.445,0-.906.78-.906h1.95" transform="translate(0 -0.881)" fill="none" stroke="#9f9f9f" stroke-linejoin="round" stroke-width="1"/><path d="M668.78,1282.06h1.233a.773.773,0,0,0,.78-.653h0c0-.445,0-.906-.78-.906H668" transform="translate(-4.293 -0.881)" fill="none" stroke="#9f9f9f" stroke-linejoin="round" stroke-width="1"/><path d="M665.877,1283.631a2.36,2.36,0,0,0-.533-1.484,9.415,9.415,0,0,1-2.1-4.332c-.208-1.209-1.829-1.315-3.09-1.315h-4.94c-1.261,0-2.882.106-3.09,1.315a9.644,9.644,0,0,1-2.1,4.342,2.34,2.34,0,0,0-.525,1.475v2.952c0,.461.794.835,1.269.835h13.839c.475,0,1.269-.374,1.269-.835Z" transform="translate(-0.22)" fill="none" stroke="#9f9f9f" stroke-linecap="round" stroke-linejoin="round" stroke-width="1"/></g></svg>