<svg xmlns="http://www.w3.org/2000/svg" viewBox="0 0 22.826 22.826"><defs><style>.a,.d{fill:#707070;}.b{fill:none;}.c,.d{stroke:none;}</style></defs><path class="a" d="M10.361,9.711a3.393,3.393,0,0,0,2.563-3.788c-.334-2.117-2.785-2.451-4.345-2.006C7.241,4.363,5.57,5.7,5.9,6.926c.111.334.223.446.78.446a3.321,3.321,0,0,0,1.783-.78c.223-.223,0-.78-.111-1A.408.408,0,0,1,8.8,5.143l2.9.78c.223,0,.223.223.111.334L10.25,8.6a.316.316,0,0,1-.557,0c-.334-.557-.334-.669-.669-.78s-1.226.446-1.56.78c-1,.891-.557,6.017-.111,7.019.334.669,1.226.891,1.56.111s-.557-4.68.223-5.125a.7.7,0,0,1,1,.334c.557.669,2.674,3.788,3.12,4.234s1,1,1.56.557c.446-.334.334-.891.111-1.337A8.634,8.634,0,0,0,10.361,9.711Z" transform="translate(1.748 1.835)"/><g class="b" transform="translate(0 0)"><path class="c" d="M11.413,0A11.413,11.413,0,0,1,22.826,11.413a11.578,11.578,0,0,1-2.362,6.953,11.255,11.255,0,0,1-9.051,4.46A11.413,11.413,0,1,1,11.413,0Z"/><path class="d" d="M 11.41311359405518 1.999996185302734 C 6.22270393371582 1.999996185302734 2.000003814697266 6.222686767578125 2.000003814697266 11.4130859375 C 2.000003814697266 16.60348510742188 6.22270393371582 20.82617568969727 11.41311359405518 20.82617568969727 C 14.36910343170166 20.82617568969727 17.21724319458008 19.43328666687012 18.84605407714844 17.19107627868652 L 18.84766387939453 17.18885612487793 L 18.84927368164062 17.1866455078125 C 20.17956352233887 15.36589622497559 20.82622337341309 13.47734546661377 20.82622337341309 11.4130859375 C 20.82622337341309 6.222686767578125 16.60352325439453 1.999996185302734 11.41311359405518 1.999996185302734 M 11.41311359405518 -3.814697265625e-06 C 17.71640396118164 -3.814697265625e-06 22.82622337341309 5.10981559753418 22.82622337341309 11.4130859375 C 22.82622337341309 13.92177581787109 22.01681327819824 16.24142646789551 20.46417427062988 18.36652565002441 C 18.56977462768555 20.97434616088867 15.20770359039307 22.82617568969727 11.41311359405518 22.82617568969727 C 5.109823226928711 22.82617568969727 3.814697265625e-06 17.71635627746582 3.814697265625e-06 11.4130859375 C 3.814697265625e-06 5.10981559753418 5.109823226928711 -3.814697265625e-06 11.41311359405518 -3.814697265625e-06 Z"/></g></svg>