<svg xmlns="http://www.w3.org/2000/svg" viewBox="0 0 22.55 18.492"><defs><style>.a{fill:#0fbbd8;}</style></defs><g transform="translate(-0.031)"><path class="a" d="M3.075,1.759H.877a.835.835,0,0,1-.828-.672A.9.9,0,0,1,.515.1,1.218,1.218,0,0,1,.954,0H3.773A.92.92,0,0,1,4.7.828L5.48,4.086C6.049,6.543,6.618,9,7.213,11.431a.784.784,0,0,0,.905.724H18.334a.736.736,0,0,0,.853-.7l1.4-6.595a.728.728,0,0,1,.026-.207H9.489A.848.848,0,0,1,8.713,3.8a.866.866,0,0,1,.724-.879A1.061,1.061,0,0,1,9.722,2.9H21.593a.874.874,0,0,1,.983.8,2.55,2.55,0,0,1-.078.621c-.543,2.535-1.086,5.069-1.6,7.6a2.513,2.513,0,0,1-2.405,1.991H7.937a2.436,2.436,0,0,1-2.431-2.043C4.73,8.586,3.954,5.276,3.179,1.991A.487.487,0,0,1,3.075,1.759Z"/><path class="a" d="M63.7,62.307a1.612,1.612,0,0,1-1.6-1.6,1.629,1.629,0,0,1,1.6-1.6,1.6,1.6,0,1,1,0,3.207Z" transform="translate(-46.016 -43.815)"/><path class="a" d="M30.4,62.307a1.6,1.6,0,1,1,1.6-1.629A1.634,1.634,0,0,1,30.4,62.307Z" transform="translate(-21.328 -43.815)"/></g></svg>