<svg xmlns="http://www.w3.org/2000/svg" viewBox="0 0 20.204 21.63"><defs><style>.a{fill:#707070;}</style></defs><g transform="translate(0 0)"><g transform="translate(0 10.543)"><path class="a" d="M1097.27,259.009a.544.544,0,0,0-.652.87c2.065,1.413,3.478,2.609,3.913,5a2.834,2.834,0,0,1-.217,2.283c-.761.87-3.261.87-7.609.87h-1.087c-4.348,0-6.957,0-7.609-.87-.326-.326-.326-1.087-.109-2.283.435-2.283,1.63-3.37,3.913-5a.543.543,0,0,0-.652-.87c-2.174,1.522-3.8,2.826-4.348,5.652a3.884,3.884,0,0,0,.326,3.152c.978,1.2,3.478,1.2,8.478,1.2h1.087c4.891,0,7.391,0,8.37-1.2a3.82,3.82,0,0,0,.435-3.152C1101.074,261.944,1099.444,260.531,1097.27,259.009Z" transform="translate(-1082.219 -258.466)"/><path class="a" d="M1092.739,269.587h-1.087c-5.109,0-7.609,0-8.8-1.413a4.292,4.292,0,0,1-.435-3.478c.544-3.043,2.283-4.457,4.565-5.978a.893.893,0,0,1,.761-.109c.217,0,.435.217.652.435a.887.887,0,0,1-.217,1.3c-2.283,1.522-3.37,2.609-3.7,4.674-.217.978-.217,1.63,0,1.848.543.652,3.37.652,7.283.652h1.087c3.913,0,6.63,0,7.283-.652.217-.217.217-.87.109-1.957-.326-2.283-1.63-3.261-3.7-4.674a.9.9,0,0,1-.217-1.3,1,1,0,0,1,.652-.435,1.85,1.85,0,0,1,.761.109c2.283,1.522,4.022,3.043,4.565,5.978.217,1.3.326,2.5-.544,3.478C1100.348,269.587,1097.848,269.587,1092.739,269.587Zm-5.543-10.543.217.326c-2.174,1.413-3.7,2.717-4.13,5.435a3.153,3.153,0,0,0,.326,2.826c.87,1.087,3.478,1.087,8.152,1.087h1.087c4.565,0,7.174,0,8.044-1.087a3.474,3.474,0,0,0,.326-2.826c-.435-2.609-1.957-3.913-4.13-5.435h-.109c-.109.109-.109.109,0,.217,2.174,1.413,3.7,2.717,4.022,5.326.217,1.413.109,2.174-.326,2.609-.87.978-3.37.978-7.935.978h-1.087c-4.565,0-7.065,0-7.935-.978-.435-.543-.435-1.3-.217-2.609.435-2.391,1.739-3.7,4.022-5.326,0,0,.109-.109,0-.109Z" transform="translate(-1082.253 -258.5)"/></g><g transform="translate(4.399)"><path class="a" d="M1091.809,249.2c-3.044,0-5.109,2.283-5.109,5.435,0,3.37,2.5,6.63,5.109,6.63s5.109-3.261,5.109-6.63A5,5,0,0,0,1091.809,249.2Zm0,10.978c-2.065,0-4.13-2.717-4.13-5.544a4,4,0,0,1,4.13-4.348,4.116,4.116,0,0,1,4.13,4.348C1095.939,257.352,1093.874,260.178,1091.809,260.178Z" transform="translate(-1086.265 -248.765)"/><path class="a" d="M1091.844,261.735c-2.826,0-5.543-3.478-5.543-7.065a5.579,5.579,0,0,1,5.543-5.87c3.261,0,5.543,2.5,5.543,5.87C1097.5,258.257,1094.67,261.735,1091.844,261.735Zm0-12.065a4.66,4.66,0,0,0-4.674,5c0,3.152,2.283,6.2,4.674,6.2s4.674-3.152,4.674-6.2A4.542,4.542,0,0,0,1091.844,249.67Zm0,10.978c-2.283,0-4.565-2.935-4.565-5.978a4.454,4.454,0,0,1,4.565-4.783,4.514,4.514,0,0,1,4.565,4.783C1096.409,257.6,1094.126,260.648,1091.844,260.648Zm0-9.891a3.657,3.657,0,0,0-3.7,3.913c0,2.5,1.848,5.109,3.7,5.109,1.739,0,3.7-2.717,3.7-5.109A3.657,3.657,0,0,0,1091.844,250.757Z" transform="translate(-1086.3 -248.8)"/></g></g></svg>