<svg xmlns="http://www.w3.org/2000/svg" width="17.821" height="14.507" viewBox="0 0 17.821 14.507"><g transform="translate(-161.896 -112.96)"><path d="M179.717,124.943a2.447,2.447,0,0,1-2.534,2.523q-2.252,0-4.5,0H164.4a2.444,2.444,0,0,1-2.438-1.91,2.477,2.477,0,0,1-.059-.6c0-2.666,0-5.065,0-7.335a2.435,2.435,0,0,1,2.511-2.509h.031c.65,0,1.324,0,1.986,0a.363.363,0,0,0,.334-.17c.178-.251.362-.5.541-.746.154-.21.314-.428.468-.644a1.35,1.35,0,0,1,1.168-.6h.011c1.208.007,2.458.007,3.716,0a1.356,1.356,0,0,1,1.179.6c.167.233.335.463.5.695s.344.471.514.709a.34.34,0,0,0,.309.157c.6,0,1.228-.005,2.05,0a2.444,2.444,0,0,1,2.438,1.928,2.543,2.543,0,0,1,.057.578C179.718,119.738,179.718,122,179.717,124.943Z" fill="#fff"/><g transform="translate(161.896 112.96)"><path d="M181.017,119.024a2.448,2.448,0,0,0-.054-.556,2.343,2.343,0,0,0-2.343-1.851q-1.024,0-2.048,0a.435.435,0,0,1-.39-.2c-.336-.47-.682-.933-1.019-1.4a1.26,1.26,0,0,0-1.1-.556q-1.858.01-3.717,0a1.257,1.257,0,0,0-1.1.557c-.333.465-.678.922-1.009,1.389a.458.458,0,0,1-.416.212c-.672-.006-1.344,0-2.016,0a2.343,2.343,0,0,0-2.412,2.409q0,3.668,0,7.335a2.4,2.4,0,0,0,.056.572,2.344,2.344,0,0,0,2.341,1.834q3.206,0,6.41,0,3.189,0,6.377,0a2.352,2.352,0,0,0,2.434-2.424Q181.021,122.683,181.017,119.024Zm-10.725-3.776q1.917.006,3.833,0a.42.42,0,0,1,.375.193c.336.47.682.933,1.019,1.4a1.249,1.249,0,0,0,1.095.561c.655-.007,1.311,0,1.966,0a1.566,1.566,0,0,1,1.66,1.625q.014,3.66,0,7.319a1.544,1.544,0,0,1-1.2,1.576,2.006,2.006,0,0,1-.49.052q-3.173,0-6.345,0t-6.344,0a1.622,1.622,0,0,1-1.368-.633,1.6,1.6,0,0,1-.321-1q-.006-3.66,0-7.319a1.574,1.574,0,0,1,1.649-1.621c.661,0,1.322-.005,1.983,0a1.24,1.24,0,0,0,1.083-.551c.341-.474.69-.941,1.03-1.416A.418.418,0,0,1,170.291,115.248Z" transform="translate(-163.297 -114.36)" fill="#fff"/><path d="M178.936,117.629a1.671,1.671,0,0,0-1.758-1.724h-.457c-.5,0-1.007,0-1.51,0a1.157,1.157,0,0,1-1.013-.52c-.172-.24-.349-.482-.52-.717s-.334-.457-.5-.687a.52.52,0,0,0-.453-.234h0c-1.266,0-2.556,0-3.833,0h0a.519.519,0,0,0-.453.232c-.179.251-.364.5-.543.747-.163.223-.326.445-.486.669a1.142,1.142,0,0,1-1,.51c-.537-.005-1.084,0-1.613,0h-.371a1.665,1.665,0,0,0-1.748,1.72c-.007,2.35,0,4.61,0,7.32a1.693,1.693,0,0,0,1.786,1.734h0q2.3,0,4.6,0h3q2.541,0,5.083,0a2.125,2.125,0,0,0,.514-.055,1.651,1.651,0,0,0,1.274-1.673C178.945,122.121,178.945,119.795,178.936,117.629Zm-14.477,8.852h0a1.522,1.522,0,0,1-1.288-.594,1.486,1.486,0,0,1-.3-.943c0-2.709-.007-4.969,0-7.319a1.475,1.475,0,0,1,1.551-1.522h1.122c.286,0,.574,0,.859,0a1.331,1.331,0,0,0,1.165-.592c.161-.223.323-.446.486-.667.179-.245.364-.5.544-.749a.317.317,0,0,1,.292-.149h0c1.277,0,2.567,0,3.834,0h0a.323.323,0,0,1,.292.151c.165.231.333.459.5.688s.348.476.519.715a1.344,1.344,0,0,0,1.177.6c.5-.006,1.013,0,1.507,0h.457a1.466,1.466,0,0,1,1.561,1.526c.009,2.165.009,4.492,0,7.318a1.444,1.444,0,0,1-1.124,1.481,1.933,1.933,0,0,1-.467.049q-2.541,0-5.082,0h-3Q166.761,126.479,164.459,126.481Zm14.477-8.852a1.671,1.671,0,0,0-1.758-1.724h-.457c-.5,0-1.007,0-1.51,0a1.157,1.157,0,0,1-1.013-.52c-.172-.24-.349-.482-.52-.717s-.334-.457-.5-.687a.52.52,0,0,0-.453-.234h0c-1.266,0-2.556,0-3.833,0h0a.519.519,0,0,0-.453.232c-.179.251-.364.5-.543.747-.163.223-.326.445-.486.669a1.142,1.142,0,0,1-1,.51c-.537-.005-1.084,0-1.613,0h-.371a1.665,1.665,0,0,0-1.748,1.72c-.007,2.35,0,4.61,0,7.32a1.693,1.693,0,0,0,1.786,1.734h0q2.3,0,4.6,0h3q2.541,0,5.083,0a2.125,2.125,0,0,0,.514-.055,1.651,1.651,0,0,0,1.274-1.673C178.945,122.121,178.945,119.795,178.936,117.629Zm-14.477,8.852h0a1.522,1.522,0,0,1-1.288-.594,1.486,1.486,0,0,1-.3-.943c0-2.709-.007-4.969,0-7.319a1.475,1.475,0,0,1,1.551-1.522h1.122c.286,0,.574,0,.859,0a1.331,1.331,0,0,0,1.165-.592c.161-.223.323-.446.486-.667.179-.245.364-.5.544-.749a.317.317,0,0,1,.292-.149h0c1.277,0,2.567,0,3.834,0h0a.323.323,0,0,1,.292.151c.165.231.333.459.5.688s.348.476.519.715a1.344,1.344,0,0,0,1.177.6c.5-.006,1.013,0,1.507,0h.457a1.466,1.466,0,0,1,1.561,1.526c.009,2.165.009,4.492,0,7.318a1.444,1.444,0,0,1-1.124,1.481,1.933,1.933,0,0,1-.467.049q-2.541,0-5.082,0h-3Q166.761,126.479,164.459,126.481Zm15.256-8.857a2.543,2.543,0,0,0-.057-.578,2.444,2.444,0,0,0-2.438-1.928c-.822,0-1.454,0-2.05,0a.34.34,0,0,1-.309-.157c-.17-.237-.345-.477-.514-.709s-.338-.462-.5-.695a1.356,1.356,0,0,0-1.179-.6c-1.257.007-2.507.007-3.716,0h-.011a1.35,1.35,0,0,0-1.168.6c-.154.215-.314.434-.468.644-.179.243-.364.5-.541.746a.363.363,0,0,1-.334.17c-.662-.006-1.335,0-1.986,0h-.031a2.435,2.435,0,0,0-2.511,2.509c0,2.27,0,4.669,0,7.335a2.477,2.477,0,0,0,.059.6,2.444,2.444,0,0,0,2.438,1.91h8.283q2.252,0,4.5,0a2.447,2.447,0,0,0,2.534-2.523C179.718,122,179.718,119.738,179.715,117.623Zm-2.532,9.644q-2.252,0-4.5,0h-3.755q-2.264,0-4.528,0a2.251,2.251,0,0,1-2.245-1.758,2.3,2.3,0,0,1-.053-.549c0-2.666,0-5.065,0-7.335a2.243,2.243,0,0,1,2.314-2.31h.031l.976,0c.335,0,.673,0,1.007,0a.559.559,0,0,0,.5-.254c.177-.249.362-.5.54-.744.155-.211.315-.429.469-.645a1.163,1.163,0,0,1,1.007-.516h.009c1.209.007,2.46.007,3.718,0h.009a1.164,1.164,0,0,1,1.008.515q.251.349.506.7c.169.231.344.471.513.707a.533.533,0,0,0,.465.24h.006c.6,0,1.227-.005,2.047,0a2.252,2.252,0,0,1,2.247,1.775,2.3,2.3,0,0,1,.052.533c0,2.115,0,4.371,0,7.319A2.256,2.256,0,0,1,177.183,127.267Zm-.005-11.363h-.457c-.5,0-1.007,0-1.51,0a1.157,1.157,0,0,1-1.013-.52c-.172-.24-.349-.482-.52-.717s-.334-.457-.5-.687a.52.52,0,0,0-.453-.234h0c-1.266,0-2.556,0-3.833,0h0a.519.519,0,0,0-.453.232c-.179.251-.364.5-.543.747-.163.223-.326.445-.486.669a1.142,1.142,0,0,1-1,.51c-.537-.005-1.084,0-1.613,0h-.371a1.665,1.665,0,0,0-1.748,1.72c-.007,2.35,0,4.61,0,7.32a1.693,1.693,0,0,0,1.786,1.734h0q2.3,0,4.6,0h3q2.541,0,5.083,0a2.125,2.125,0,0,0,.514-.055,1.651,1.651,0,0,0,1.274-1.673c.008-2.827.008-5.153,0-7.319A1.671,1.671,0,0,0,177.178,115.9Zm-12.719,10.576h0a1.522,1.522,0,0,1-1.288-.594,1.486,1.486,0,0,1-.3-.943c0-2.709-.007-4.969,0-7.319a1.475,1.475,0,0,1,1.551-1.522h1.122c.286,0,.574,0,.859,0a1.331,1.331,0,0,0,1.165-.592c.161-.223.323-.446.486-.667.179-.245.364-.5.544-.749a.317.317,0,0,1,.292-.149h0c1.277,0,2.567,0,3.834,0h0a.323.323,0,0,1,.292.151c.165.231.333.459.5.688s.348.476.519.715a1.344,1.344,0,0,0,1.177.6c.5-.006,1.013,0,1.507,0h.457a1.466,1.466,0,0,1,1.561,1.526c.009,2.165.009,4.492,0,7.318a1.444,1.444,0,0,1-1.124,1.481,1.933,1.933,0,0,1-.467.049q-2.541,0-5.082,0h-3Q166.761,126.479,164.459,126.481Z" transform="translate(-161.896 -112.96)" fill="#fff"/></g><g transform="translate(166.987 117.475)"><path d="M244.136,182.77a3.715,3.715,0,1,0-.011,7.43,3.715,3.715,0,1,0,.011-7.43Zm2.928,3.728a2.937,2.937,0,1,1-2.93-2.943A2.934,2.934,0,0,1,247.063,186.5Z" transform="translate(-240.312 -182.671)" fill="#0fbbd8" stroke="#0fbbd8" stroke-width="0.2"/><path d="M244.881,182.946a3.013,3.013,0,0,0-2.148-.89h-.005a3.025,3.025,0,0,0-2.16.9,2.976,2.976,0,0,0-.879,2.132,3.036,3.036,0,0,0,6.073.006A3.015,3.015,0,0,0,244.881,182.946Zm-2.155,4.973a2.854,2.854,0,0,1-2.838-2.83,2.779,2.779,0,0,1,.822-1.99,2.83,2.83,0,0,1,2.019-.845h.005a2.833,2.833,0,0,1-.007,5.665Zm2.155-4.973a3.013,3.013,0,0,0-2.148-.89h-.005a3.025,3.025,0,0,0-2.16.9,2.976,2.976,0,0,0-.879,2.132,3.036,3.036,0,0,0,6.073.006A3.015,3.015,0,0,0,244.881,182.946Zm-2.155,4.973a2.854,2.854,0,0,1-2.838-2.83,2.779,2.779,0,0,1,.822-1.99,2.83,2.83,0,0,1,2.019-.845h.005a2.833,2.833,0,0,1-.007,5.665Zm2.729-5.517a3.778,3.778,0,0,0-2.719-1.132h-.011a3.79,3.79,0,0,0-3.812,3.758,3.837,3.837,0,0,0,1.1,2.742,3.766,3.766,0,0,0,2.707,1.128h.059a3.832,3.832,0,0,0,3.776-3.69A3.916,3.916,0,0,0,245.455,182.4Zm-2.678,6.3h-.06a3.569,3.569,0,0,1-2.565-1.069,3.638,3.638,0,0,1-1.042-2.6,3.594,3.594,0,0,1,3.614-3.563h.011a3.584,3.584,0,0,1,2.579,1.073,3.716,3.716,0,0,1,1.04,2.663A3.63,3.63,0,0,1,242.777,188.7Zm2.1-5.755a3.013,3.013,0,0,0-2.148-.89h-.005a3.025,3.025,0,0,0-2.16.9,2.976,2.976,0,0,0-.879,2.132,3.036,3.036,0,0,0,6.073.006A3.015,3.015,0,0,0,244.881,182.946Zm-2.155,4.973a2.854,2.854,0,0,1-2.838-2.83,2.779,2.779,0,0,1,.822-1.99,2.83,2.83,0,0,1,2.019-.845h.005a2.833,2.833,0,0,1-.007,5.665Z" transform="translate(-238.911 -181.27)" fill="#0fbbd8" stroke="#0fbbd8" stroke-width="0.2"/></g><g transform="translate(175.184 117.047)"><path d="M365.893,176.79a.979.979,0,0,0,0,1.957.979.979,0,1,0,0-1.957Zm.488.984a.485.485,0,1,1-.485-.5A.5.5,0,0,1,366.381,177.774Z" transform="translate(-364.788 -176.658)" fill="#0fbbd8"/><path d="M364.461,175.459a.607.607,0,0,0-.434-.184h0a.625.625,0,0,0-.617.611.618.618,0,1,0,1.235.022A.634.634,0,0,0,364.461,175.459Zm-.434.8a.358.358,0,0,1-.352-.364.36.36,0,0,1,.352-.353h0a.348.348,0,0,1,.246.106.369.369,0,0,1,.107.26.358.358,0,0,1-.106.247A.354.354,0,0,1,364.027,176.256Zm.434-.8a.607.607,0,0,0-.434-.184h0a.625.625,0,0,0-.617.611.618.618,0,1,0,1.235.022A.634.634,0,0,0,364.461,175.459Zm-.434.8a.358.358,0,0,1-.352-.364.36.36,0,0,1,.352-.353h0a.348.348,0,0,1,.246.106.369.369,0,0,1,.107.26.358.358,0,0,1-.106.247A.354.354,0,0,1,364.027,176.256Zm0-1.466h0a1.111,1.111,0,0,0,0,2.222h0a1.121,1.121,0,0,0,.787-.336,1.089,1.089,0,0,0,.323-.779A1.117,1.117,0,0,0,364.028,174.79Zm0,1.957a.846.846,0,0,1,0-1.693h0a.853.853,0,0,1,.846.845.838.838,0,0,1-.247.59.854.854,0,0,1-.6.258Zm.435-1.288a.607.607,0,0,0-.434-.184h0a.625.625,0,0,0-.617.611.618.618,0,1,0,1.235.022A.634.634,0,0,0,364.461,175.459Zm-.434.8a.358.358,0,0,1-.352-.364.36.36,0,0,1,.352-.353h0a.348.348,0,0,1,.246.106.369.369,0,0,1,.107.26.358.358,0,0,1-.106.247A.354.354,0,0,1,364.027,176.256Z" transform="translate(-362.92 -174.79)" fill="#0fbbd8"/></g></g></svg>