<svg xmlns="http://www.w3.org/2000/svg" width="14" height="16.517" viewBox="0 0 14 16.517"><g transform="translate(-770.5 -1224)"><line x2="13" transform="translate(771 1227.017)" stroke-width="1" stroke="#a2a2a2" stroke-linecap="round" stroke-linejoin="round" fill="none"/><path d="M2.024,0H3.373A2.024,2.024,0,0,1,5.4,2.024v0a0,0,0,0,1,0,0H0a0,0,0,0,1,0,0v0A2.024,2.024,0,0,1,2.024,0Z" transform="translate(774.711 1224.5)" fill="none" stroke="#a2a2a2" stroke-linecap="round" stroke-linejoin="round" stroke-width="1"/><line y2="8.096" transform="translate(777.409 1229.223)" stroke-width="1" stroke="#a2a2a2" stroke-linecap="round" stroke-linejoin="round" fill="none"/><line y2="8.096" transform="translate(774.711 1229.223)" stroke-width="1" stroke="#a2a2a2" stroke-linecap="round" stroke-linejoin="round" fill="none"/><line y2="8.096" transform="translate(780.108 1229.223)" stroke-width="1" stroke="#a2a2a2" stroke-linecap="round" stroke-linejoin="round" fill="none"/><path d="M780.694,1240.993H775.1a2.023,2.023,0,0,1-2.021-1.923l-.579-11.57h10.794l-.579,11.57A2.023,2.023,0,0,1,780.694,1240.993Z" transform="translate(-0.488 -0.976)" fill="none" stroke="#a2a2a2" stroke-linecap="round" stroke-linejoin="round" stroke-width="1"/></g></svg>