<svg xmlns="http://www.w3.org/2000/svg" width="10.516" height="12.843" viewBox="0 0 10.516 12.843">
  <path id="flecha" d="M1222.117,395.523h8.917c.107,0,.213,0,.32,0a.843.843,0,0,1,.841.8.828.828,0,0,1-.718.905,2.163,2.163,0,0,1-.415.029h-8.944c.143.185.253.332.367.476.448.565.895,1.132,1.348,1.693.2.253.433.488.636.743a.879.879,0,0,1-.075,1.256.9.9,0,0,1-1.264-.1c-.341-.375-.644-.785-.964-1.179-.846-1.042-1.695-2.081-2.536-3.125a.9.9,0,0,1,0-1.286c.576-.725,1.152-1.45,1.736-2.169q.842-1.037,1.7-2.061a.911.911,0,0,1,1.246-.227.892.892,0,0,1,.177,1.3c-.711.888-1.434,1.765-2.152,2.648C1222.268,395.318,1222.209,395.4,1222.117,395.523Z" transform="translate(-391.131 1232.196) rotate(-90)" fill="#b9b9b9"/>
</svg>
