<svg xmlns="http://www.w3.org/2000/svg" width="17.328" height="14.005" viewBox="0 0 17.328 14.005"><path d="M-166.115-278.609c.147.011.228.021.309.021q6.3,0,12.6,0c.78,0,1.221.427,1.159,1.109a.913.913,0,0,1-.75.833,3.312,3.312,0,0,1-.586.052q-6.19,0-12.38,0c-.09,0-.179.009-.339.017.1.124.157.2.221.273,1.146,1.289,2.3,2.571,3.433,3.871a1.708,1.708,0,0,1,.379.754.932.932,0,0,1-.549,1.013,1.118,1.118,0,0,1-1.144-.242c-.506-.553-1-1.117-1.5-1.677q-1.86-2.091-3.719-4.182a1.084,1.084,0,0,1,0-1.666q2.559-2.88,5.122-5.757a1,1,0,0,1,1.231-.314.96.96,0,0,1,.546,1.118,1.2,1.2,0,0,1-.285.53c-1.17,1.331-2.35,2.652-3.527,3.976C-165.948-278.809-166.006-278.737-166.115-278.609Z" transform="translate(169.364 284.6)" fill="#707070"/></svg>