<svg xmlns="http://www.w3.org/2000/svg" width="163.649" height="140.866" viewBox="0 0 163.649 140.866"><g transform="translate(-326.137 -741.22)"><g transform="translate(326.137 741.467)"><g transform="translate(12.661)"><circle cx="70.186" cy="70.186" r="70.186" fill="#fff"/><circle cx="69.433" cy="69.433" r="69.433" transform="translate(0.753 0.753)" fill="none" stroke="#b0b0b0" stroke-width="2" stroke-dasharray="0 10"/></g><circle cx="64.33" cy="64.33" r="64.33" transform="translate(18.78 6.613)" fill="#5e3bc3" opacity="0.047"/><g transform="translate(33.157 20.433)" opacity="0.042"><path d="M419.6,866.943a48.689,48.689,0,0,1-27.349-8.353,49.064,49.064,0,0,1-17.723-21.522,48.614,48.614,0,0,1-3.843-19.04,49.122,49.122,0,0,1,3.864-19.089,48.168,48.168,0,0,1,7.267-12.018A48.944,48.944,0,1,1,419.6,866.943Z" transform="translate(-370.312 -768.737)" fill="#5e3bc3"/><path d="M419.479,769.366a48.54,48.54,0,0,0-37.493,17.671,47.768,47.768,0,0,0-7.209,11.923,48.738,48.738,0,0,0-3.836,18.944,48.308,48.308,0,0,0,8.289,27.138,48.7,48.7,0,0,0,21.356,17.587,48.467,48.467,0,0,0,46.031-4.476A48.675,48.675,0,0,0,464.2,836.8a48.478,48.478,0,0,0-4.475-46.031,48.685,48.685,0,0,0-21.356-17.586,48.226,48.226,0,0,0-18.893-3.815m0-.753a49.249,49.249,0,1,1-45.4,30.056A49.291,49.291,0,0,1,419.479,768.613Z" transform="translate(-370.188 -768.613)" fill="#717171"/></g><g transform="translate(0 17.628)"><path d="M354.46,769.411a.766.766,0,0,1-.708.762,6.04,6.04,0,0,0-1.253.273,2.9,2.9,0,0,0-1.8,2.479c0,.082-.027.191-.027.273a.738.738,0,0,1-.74.736h-.023a.707.707,0,0,1-.737-.677.662.662,0,0,1,0-.086A3.136,3.136,0,0,0,348,770.8a3.3,3.3,0,0,0-1.8-.653.736.736,0,0,1-.789-.679.625.625,0,0,1,0-.084c0-.436.272-.708.79-.736a3.053,3.053,0,0,0,2.969-3,.722.722,0,0,1,.681-.761c.018,0,.036,0,.054,0a.687.687,0,0,1,.735.634.754.754,0,0,1,0,.1,3.044,3.044,0,0,0,2.258,2.887c.272.082.572.082.845.136A.839.839,0,0,1,354.46,769.411Zm-4.549,1.035c.327-.327.735-.735,1.062-1.035-.327-.327-.708-.735-1.008-1.035-.354.327-.79.708-1.09,1.008C349.2,769.738,349.585,770.119,349.911,770.446Z" transform="translate(-330.905 -764.888)" fill="#5e3bc3"/><path d="M533.515,881.078a.5.5,0,0,1-.458.494,3.941,3.941,0,0,0-.811.176,1.879,1.879,0,0,0-1.163,1.6c0,.053-.017.123-.017.176a.476.476,0,0,1-.478.477h-.016a.457.457,0,0,1-.477-.437.472.472,0,0,1,0-.057,2.025,2.025,0,0,0-.758-1.533,2.126,2.126,0,0,0-1.163-.423.475.475,0,0,1-.51-.44c0-.018,0-.036,0-.054,0-.282.176-.458.511-.476a1.974,1.974,0,0,0,1.921-1.939.468.468,0,0,1,.44-.493h.035a.444.444,0,0,1,.476.41.3.3,0,0,1,0,.066,1.97,1.97,0,0,0,1.463,1.868c.176.053.37.053.546.088A.542.542,0,0,1,533.515,881.078Zm-2.943.67c.211-.212.476-.476.687-.67-.212-.212-.458-.476-.652-.67-.226.212-.511.458-.705.652C530.113,881.29,530.36,881.539,530.572,881.748Z" transform="translate(-375.975 -792.897)" fill="#5e3bc3"/><path d="M540.332,852.724h2.424v2.452h-2.424Z" transform="translate(-379.107 -786.609)" fill="#5e3bc3"/><path d="M326.137,836.883v-2.451h2.452v2.451Z" transform="translate(-326.137 -782.086)" fill="#5e3bc3"/><path d="M370.168,902.5h-2.452v-2.452h2.452Z" transform="translate(-336.419 -798.312)" fill="#5e3bc3"/></g></g><g transform="translate(390.28 779.479)"><path d="M429.35,791.968a18.017,18.017,0,0,1,13.418,5.275,16.931,16.931,0,0,1,5.2,12.255,15.618,15.618,0,0,1-1.2,6.166,13.211,13.211,0,0,1-2.909,4.46,23.334,23.334,0,0,1-3.451,2.754,18.119,18.119,0,0,1-2.908,1.59l-1.241.388c0,.88-.039,11.152-.117,11.617a3.727,3.727,0,0,1-.7,1.513,3.285,3.285,0,0,1-1.939,1.164,15.013,15.013,0,0,1-3.607.348,13.468,13.468,0,0,1-3.607-.388,3.03,3.03,0,0,1-1.9-1.318,4.922,4.922,0,0,1-.659-1.667c-.078-.491-.117-10.854-.117-11.889a1.58,1.58,0,0,1,.038-.272,1.8,1.8,0,0,0,.039-.348,7.21,7.21,0,0,1,1.9-5.275,9.258,9.258,0,0,1,4.15-2.559,11.858,11.858,0,0,0,4.149-2.095,4.668,4.668,0,0,0,1.9-3.878,5.379,5.379,0,0,0-1.435-4.034q-1.436-1.4-5-1.4a6.323,6.323,0,0,0-3.529.892,3.845,3.845,0,0,0-1.668,1.823l-.233.93a9.07,9.07,0,0,1-1.629,3.063,3.343,3.343,0,0,1-2.637,1.048,9.221,9.221,0,0,1-3.1-.7,12.965,12.965,0,0,1-4.072-2.249,3.285,3.285,0,0,1-1.125-2.4,11.653,11.653,0,0,1,.621-2.714l.155-.388q.155-.466.465-1.28a17.439,17.439,0,0,1,1.668-2.831,17.741,17.741,0,0,1,3.1-3.529,17.535,17.535,0,0,1,4.926-2.792A18.735,18.735,0,0,1,429.35,791.968Zm.388,50.365q4.188,0,5.817,1.629,1.4,1.4,1.4,5.739a18.627,18.627,0,0,1-.155,2.754,7.412,7.412,0,0,1-.775,2.172,3.539,3.539,0,0,1-2.211,1.706,14.034,14.034,0,0,1-4.15.5q-4.112,0-5.9-1.629-1.32-1.318-1.318-4.5v-1.24a23.637,23.637,0,0,1,.116-2.715,6.544,6.544,0,0,1,.737-2.134,3.679,3.679,0,0,1,2.21-1.745A13.469,13.469,0,0,1,429.737,842.334Z" transform="translate(-411.354 -791.968)" fill="#5e3bc3"/></g></g></svg>