<svg xmlns="http://www.w3.org/2000/svg" width="16.99" height="14.169" viewBox="0 0 16.99 14.169"><path d="M1329.335,114.952c-.567.066-1.117.112-1.66.2a12.508,12.508,0,0,0-5.529,2.266c-.5.364-.96.786-1.437,1.183a.465.465,0,0,1-.712-.038.66.66,0,0,1-.1-.356,9.107,9.107,0,0,1,.363-2.624,9.866,9.866,0,0,1,3.172-4.9,9.555,9.555,0,0,1,4.011-2.032c.612-.145,1.24-.218,1.889-.329v-.128q0-1.529,0-3.059a.482.482,0,0,1,.342-.529.446.446,0,0,1,.432.091c.037.031.07.065.1.1q3.233,3.233,6.468,6.465a.557.557,0,0,1,.209.411.545.545,0,0,1-.2.385q-1.213,1.209-2.423,2.421l-4.078,4.078a.46.46,0,0,1-.665.095.528.528,0,0,1-.194-.465q0-1.513,0-3.027Zm.952,2.129,5.417-5.417-5.417-5.4v.15q0,1.083,0,2.167c0,.586-.117.7-.7.721a9.007,9.007,0,0,0-8.551,7.093c-.053.237-.082.48-.123.72a.823.823,0,0,0,.235-.143,12.887,12.887,0,0,1,2.311-1.462,14.065,14.065,0,0,1,6.217-1.485c.435,0,.615.167.615.6q0,1.147,0,2.294Z" transform="translate(-1319.9 -104.583)" fill="#7c7c7c"/></svg>