<svg xmlns="http://www.w3.org/2000/svg" width="32.623" height="18.082" viewBox="0 0 32.623 18.082"><g transform="translate(-1510.144 -124.798)"><path d="M1526.482,124.8q6.652,0,13.3,0a2.811,2.811,0,0,1,2.894,2.237,3.352,3.352,0,0,1,.082.776q.008,6.028,0,12.055a2.867,2.867,0,0,1-3.014,3.012h-26.579a2.873,2.873,0,0,1-3.022-3q-.012-6.042,0-12.084a2.859,2.859,0,0,1,3.027-2.993Q1519.83,124.8,1526.482,124.8Zm-.035.718q-6.623,0-13.247,0a2.189,2.189,0,0,0-2.321,2.222q-.012,6.1.008,12.2a2.359,2.359,0,0,0,.241,1,2.155,2.155,0,0,0,2.132,1.174q13.2,0,26.406,0c.058,0,.116,0,.174,0a2.093,2.093,0,0,0,2.177-2.213q.008-6.057-.008-12.113a2.475,2.475,0,0,0-.22-1.036,2.125,2.125,0,0,0-2.067-1.233Z" fill="#a3a3a3"/><path d="M1544.816,148.138h-20.23a3.533,3.533,0,0,0-1-2.861,4.172,4.172,0,0,0-2.919-1.029v-.293c0-1.878,0-3.756,0-5.634,0-.221.053-.314.283-.368.573-.136,1.144-.289,1.7-.478a2.726,2.726,0,0,0,1.885-2.569c.025-.26.038-.521.058-.8h20.221a4.14,4.14,0,0,0,1.063,2.894,4.045,4.045,0,0,0,2.883,1.033v6.218a3.721,3.721,0,0,0-2.872,1.025A3.635,3.635,0,0,0,1544.816,148.138Zm-.729-.734c.013-.072.022-.109.027-.147a4.29,4.29,0,0,1,3.7-3.7c.23-.023.216-.165.216-.326q0-2.091,0-4.182c0-.092-.013-.185-.02-.271a4.413,4.413,0,0,1-3.931-3.9h-18.752a4.344,4.344,0,0,1-3.907,3.916v4.706a4.358,4.358,0,0,1,3.908,3.913Z" transform="translate(-8.247 -7.302)" fill="#a3a3a3"/><path d="M1559.519,146.039a5.684,5.684,0,1,1,5.669,5.684A5.623,5.623,0,0,1,1559.519,146.039Zm5.66,4.945a4.946,4.946,0,1,0-4.923-4.982A4.883,4.883,0,0,0,1565.179,150.984Z" transform="translate(-38.735 -12.206)" fill="#a3a3a3"/><path d="M1630.805,161.952a1.323,1.323,0,0,1,1.355-1.269,1.31,1.31,0,0,1-.073,2.618A1.347,1.347,0,0,1,1630.805,161.952Zm1.309-.528a.553.553,0,0,0-.568.568.593.593,0,0,0,.558.561.62.62,0,0,0,.572-.58A.563.563,0,0,0,1632.114,161.424Z" transform="translate(-94.66 -28.152)" fill="#a3a3a3"/><path d="M1528.871,161.963a1.286,1.286,0,0,1,1.322-1.283,1.31,1.31,0,1,1-1.322,1.283Zm.744.018a.551.551,0,0,0,.563.57.6.6,0,0,0,.557-.591.535.535,0,0,0-.561-.538A.51.51,0,0,0,1529.614,161.981Z" transform="translate(-14.691 -28.15)" fill="#a3a3a3"/><path d="M1578.136,150.619c0-.043-.006-.138,0-.233.024-.317.176-.461.48-.459a.41.41,0,0,1,.462.469c0,.223.076.311.285.384a1.606,1.606,0,0,1,1.2,1.381c.037.335-.074.494-.341.535a.462.462,0,0,1-.576-.387,1.053,1.053,0,0,0-1.363-.811.837.837,0,0,0-.7.807.816.816,0,0,0,.74.766c.266.048.539.059.805.106a1.6,1.6,0,0,1,1.434,1.789,1.65,1.65,0,0,1-1.191,1.333c-.207.071-.3.136-.291.367.009.356-.164.517-.483.51-.3-.007-.464-.167-.455-.512.006-.224-.062-.31-.282-.373a1.663,1.663,0,0,1-1.224-1.272c-.084-.347.04-.565.333-.627a.46.46,0,0,1,.62.42.938.938,0,0,0,.865.8,1.17,1.17,0,0,0,1.11-.538.734.734,0,0,0-.534-1.053c-.278-.077-.582-.062-.855-.148a2.984,2.984,0,0,1-.989-.436,1.429,1.429,0,0,1,.1-2.354A7.7,7.7,0,0,1,1578.136,150.619Z" transform="translate(-52.144 -19.714)" fill="#a3a3a3"/></g></svg>