<svg xmlns="http://www.w3.org/2000/svg" width="21.128" height="21" viewBox="0 0 21.128 21"><defs><style>.a{fill:#333;stroke:#414141;}</style></defs><g transform="translate(1427.1 596.625)"><path class="a" d="M12.472,2.875a1.043,1.043,0,0,0-.417.086l-9,3.8a1.072,1.072,0,0,0-.655.982V17.982a1.072,1.072,0,0,0,.655.982l9,3.829a1.214,1.214,0,0,0,.409.082,1.139,1.139,0,0,0,.409-.082l9-3.8a1.072,1.072,0,0,0,.655-.982V7.772a1.032,1.032,0,0,0-.638-.982l-9-3.829A1.045,1.045,0,0,0,12.472,2.875Zm.008.5a.578.578,0,0,1,.229.049l8.967,3.813L17.307,9.081A1.313,1.313,0,0,0,17,8.868L8.226,5.121l4.025-1.7A.578.578,0,0,1,12.48,3.37ZM7.6,5.383l9.18,3.911L12.906,10.93a1.072,1.072,0,0,0-.655.982l-.016,10.407L3.251,18.506a.571.571,0,0,1-.344-.524V7.739a.359.359,0,0,1,.016-.131L10.713,10.9a.209.209,0,0,0,.1.016.247.247,0,0,0,.229-.147.252.252,0,0,0-.131-.327L3.251,7.215h.016ZM22.02,7.592a.5.5,0,0,1,.016.164v10.26h.016a.554.554,0,0,1-.344.524l-8.984,3.78.016-10.407a.554.554,0,0,1,.344-.523L17.127,9.67a.453.453,0,0,1,.016.147v1.1a.245.245,0,0,0,.491,0v-1.1a.856.856,0,0,0-.066-.344Z" transform="translate(-1429 -599)"/></g></svg>