<svg xmlns="http://www.w3.org/2000/svg" width="19.347" height="24" viewBox="0 0 19.347 24">
  <g id="ic_notificaciones_campaña" transform="translate(-250.61 -11.75)">
    <path id="Path_2127" data-name="Path 2127" d="M-643.563,2776.188a7.052,7.052,0,0,1,1.195.777,2.144,2.144,0,0,1,.524,2.456,2.133,2.133,0,0,1-1.988,1.492c-1.287.047-2.577.035-3.865.028a.4.4,0,0,0-.466.328,3.122,3.122,0,0,1-2.932,2.024,3.115,3.115,0,0,1-2.913-2.052.362.362,0,0,0-.413-.3c-1.31,0-2.622.02-3.931-.031a2.292,2.292,0,0,1-2.132-2.149,2.358,2.358,0,0,1,1.643-2.4l.318-.093q0-.192,0-.385c0-2.17-.018-4.341.009-6.51a7.381,7.381,0,0,1,4.64-6.683c.143-.057.285-.115.423-.171a2.41,2.41,0,0,1,2.407-2.722,2.39,2.39,0,0,1,2.33,2.657c.607.331,1.234.608,1.79.988a7.292,7.292,0,0,1,3.219,5.2,8.216,8.216,0,0,1,.067,1.118c.006,2.049,0,4.1,0,6.147v.361Zm-13.791.414h12.526c0-.1.012-.172.012-.248q0-3.37,0-6.74a6,6,0,0,0-.066-.887,6.213,6.213,0,0,0-8.475-4.965,5.86,5.86,0,0,0-3.947,5.447c-.116,2.274-.039,4.558-.047,6.837C-657.354,2776.221-657.353,2776.4-657.353,2776.6Zm6.252,3.176h5.055c.639,0,1.278.011,1.916,0a1.192,1.192,0,0,0,1.217-1.544,1.2,1.2,0,0,0-1.292-.81h-13.745a2.339,2.339,0,0,0-.395.023,1.166,1.166,0,0,0-.785,1.763,1.259,1.259,0,0,0,1.188.57Q-654.521,2779.78-651.1,2779.778Zm-1.857.789a1.89,1.89,0,0,0,2.027,1.536,1.828,1.828,0,0,0,1.709-1.536Zm3.036-18a1.311,1.311,0,0,0-.623-1.469,1.073,1.073,0,0,0-1.236.108,1.264,1.264,0,0,0-.433,1.361Z" transform="translate(911.363 -2747.793)" fill="#707070" stroke="#707070" stroke-width="0.5"/>
  </g>
</svg>
