<svg xmlns="http://www.w3.org/2000/svg" width="14.742" height="12" viewBox="0 0 14.742 12"><g transform="translate(-161.896 -112.96)"><path d="M176.637,122.872a2.024,2.024,0,0,1-2.1,2.087H163.964a2.021,2.021,0,0,1-2.016-1.58,2.049,2.049,0,0,1-.049-.493c0-2.205,0-4.19,0-6.068a2.014,2.014,0,0,1,2.077-2.075H164c.538,0,1.1,0,1.643,0a.3.3,0,0,0,.277-.141c.147-.208.3-.416.448-.617.127-.174.26-.354.387-.533a1.117,1.117,0,0,1,.966-.495h.009c1,.005,2.033.005,3.073,0a1.122,1.122,0,0,1,.975.494c.138.192.277.383.417.575s.285.39.425.586a.281.281,0,0,0,.255.13c.493,0,1.016,0,1.7,0a2.022,2.022,0,0,1,2.017,1.595,2.1,2.1,0,0,1,.047.478C176.638,118.567,176.638,120.434,176.637,122.872Z" transform="translate(0 0)" fill="#fff"/><g transform="translate(161.896 112.96)"><path d="M177.972,118.235a2.025,2.025,0,0,0-.045-.46,1.938,1.938,0,0,0-1.938-1.532q-.847,0-1.694,0a.36.36,0,0,1-.323-.165c-.278-.389-.564-.772-.843-1.161a1.043,1.043,0,0,0-.908-.46q-1.537.008-3.074,0a1.039,1.039,0,0,0-.908.461c-.276.385-.561.763-.835,1.149a.379.379,0,0,1-.344.175c-.556,0-1.112,0-1.668,0a1.938,1.938,0,0,0-2,1.993q0,3.034,0,6.068a1.987,1.987,0,0,0,.046.473,1.939,1.939,0,0,0,1.937,1.517q2.652,0,5.3,0t5.275,0a1.946,1.946,0,0,0,2.014-2.005Q177.975,121.262,177.972,118.235Zm-8.872-3.123q1.585,0,3.171,0a.348.348,0,0,1,.31.16c.278.389.564.771.843,1.161a1.033,1.033,0,0,0,.905.464c.542-.006,1.084,0,1.626,0a1.3,1.3,0,0,1,1.373,1.344q.011,3.027,0,6.054a1.277,1.277,0,0,1-.992,1.3,1.659,1.659,0,0,1-.406.043q-2.624,0-5.248,0t-5.248,0a1.342,1.342,0,0,1-1.132-.523,1.321,1.321,0,0,1-.265-.83q0-3.027,0-6.054A1.3,1.3,0,0,1,165.4,116.9c.547,0,1.094,0,1.64,0a1.026,1.026,0,0,0,.9-.455c.282-.392.571-.779.852-1.171A.346.346,0,0,1,169.1,115.112Z" transform="translate(-163.314 -114.378)" fill="#fff"/><path d="M175.991,116.822a1.383,1.383,0,0,0-1.454-1.426h-.378c-.41,0-.833,0-1.249,0a.957.957,0,0,1-.838-.43c-.142-.2-.289-.4-.43-.593s-.276-.378-.412-.568a.43.43,0,0,0-.375-.194h0c-1.048,0-2.114,0-3.17,0h0a.429.429,0,0,0-.375.192c-.148.207-.3.416-.449.618-.134.184-.27.368-.4.553a.945.945,0,0,1-.829.422c-.445,0-.9,0-1.334,0h-.307a1.377,1.377,0,0,0-1.446,1.423c-.006,1.944,0,3.813,0,6.055a1.4,1.4,0,0,0,1.477,1.435h0q1.9,0,3.806,0h2.485q2.1,0,4.2,0a1.758,1.758,0,0,0,.425-.045,1.366,1.366,0,0,0,1.054-1.384C176,120.538,176,118.614,175.991,116.822Zm-11.975,7.322h0a1.259,1.259,0,0,1-1.066-.492,1.229,1.229,0,0,1-.248-.78c0-2.241-.005-4.111,0-6.054a1.22,1.22,0,0,1,1.283-1.259h.928c.237,0,.475,0,.71,0a1.1,1.1,0,0,0,.963-.49c.133-.185.267-.369.4-.552.148-.2.3-.412.45-.619a.263.263,0,0,1,.242-.124h0c1.056,0,2.123,0,3.171,0h0a.267.267,0,0,1,.242.125c.136.191.275.38.413.569s.288.394.429.592a1.112,1.112,0,0,0,.973.5c.415,0,.838,0,1.247,0h.378a1.213,1.213,0,0,1,1.291,1.263c.007,1.791.007,3.715,0,6.053a1.194,1.194,0,0,1-.93,1.225,1.6,1.6,0,0,1-.386.04q-2.1,0-4.2,0h-2.485Q165.92,124.143,164.016,124.144Zm11.975-7.322a1.383,1.383,0,0,0-1.454-1.426h-.378c-.41,0-.833,0-1.249,0a.957.957,0,0,1-.838-.43c-.142-.2-.289-.4-.43-.593s-.276-.378-.412-.568a.43.43,0,0,0-.375-.194h0c-1.048,0-2.114,0-3.17,0h0a.429.429,0,0,0-.375.192c-.148.207-.3.416-.449.618-.134.184-.27.368-.4.553a.945.945,0,0,1-.829.422c-.445,0-.9,0-1.334,0h-.307a1.377,1.377,0,0,0-1.446,1.423c-.006,1.944,0,3.813,0,6.055a1.4,1.4,0,0,0,1.477,1.435h0q1.9,0,3.806,0h2.485q2.1,0,4.2,0a1.758,1.758,0,0,0,.425-.045,1.366,1.366,0,0,0,1.054-1.384C176,120.538,176,118.614,175.991,116.822Zm-11.975,7.322h0a1.259,1.259,0,0,1-1.066-.492,1.229,1.229,0,0,1-.248-.78c0-2.241-.005-4.111,0-6.054a1.22,1.22,0,0,1,1.283-1.259h.928c.237,0,.475,0,.71,0a1.1,1.1,0,0,0,.963-.49c.133-.185.267-.369.4-.552.148-.2.3-.412.45-.619a.263.263,0,0,1,.242-.124h0c1.056,0,2.123,0,3.171,0h0a.267.267,0,0,1,.242.125c.136.191.275.38.413.569s.288.394.429.592a1.112,1.112,0,0,0,.973.5c.415,0,.838,0,1.247,0h.378a1.213,1.213,0,0,1,1.291,1.263c.007,1.791.007,3.715,0,6.053a1.194,1.194,0,0,1-.93,1.225,1.6,1.6,0,0,1-.386.04q-2.1,0-4.2,0h-2.485Q165.92,124.143,164.016,124.144Zm12.619-7.327a2.1,2.1,0,0,0-.047-.478,2.022,2.022,0,0,0-2.017-1.595c-.68,0-1.2,0-1.7,0a.281.281,0,0,1-.255-.13c-.141-.2-.285-.395-.425-.586s-.279-.382-.417-.575a1.122,1.122,0,0,0-.975-.494c-1.04.005-2.074.005-3.073,0h-.009a1.117,1.117,0,0,0-.966.495c-.127.178-.26.359-.387.533-.148.2-.3.41-.448.617a.3.3,0,0,1-.277.141c-.547,0-1.1,0-1.643,0h-.026a2.014,2.014,0,0,0-2.077,2.075c0,1.878,0,3.862,0,6.068a2.049,2.049,0,0,0,.049.493,2.021,2.021,0,0,0,2.016,1.58h10.577a2.024,2.024,0,0,0,2.1-2.087C176.638,120.434,176.638,118.567,176.636,116.817Zm-2.094,7.977h-6.832q-1.872,0-3.745,0a1.862,1.862,0,0,1-1.857-1.454,1.9,1.9,0,0,1-.044-.454c0-2.205,0-4.19,0-6.068a1.855,1.855,0,0,1,1.914-1.911H164l.808,0c.277,0,.557,0,.833,0a.462.462,0,0,0,.412-.21c.147-.206.3-.414.447-.615.128-.174.26-.355.388-.534a.962.962,0,0,1,.833-.426h.008c1,.005,2.035.005,3.076,0h.007a.963.963,0,0,1,.834.426q.208.289.418.576c.139.191.284.389.424.585a.441.441,0,0,0,.385.2h0c.493,0,1.015,0,1.693,0a1.863,1.863,0,0,1,1.858,1.469,1.9,1.9,0,0,1,.043.441c0,1.749,0,3.616,0,6.054A1.866,1.866,0,0,1,174.541,124.795Zm0-9.4h-.378c-.41,0-.833,0-1.249,0a.957.957,0,0,1-.838-.43c-.142-.2-.289-.4-.43-.593s-.276-.378-.412-.568a.43.43,0,0,0-.375-.194h0c-1.048,0-2.114,0-3.17,0h0a.429.429,0,0,0-.375.192c-.148.207-.3.416-.449.618-.134.184-.27.368-.4.553a.945.945,0,0,1-.829.422c-.445,0-.9,0-1.334,0h-.307a1.377,1.377,0,0,0-1.446,1.423c-.006,1.944,0,3.813,0,6.055a1.4,1.4,0,0,0,1.477,1.435h0q1.9,0,3.806,0h2.485q2.1,0,4.2,0a1.758,1.758,0,0,0,.425-.045,1.366,1.366,0,0,0,1.054-1.384c.007-2.339.007-4.263,0-6.054A1.383,1.383,0,0,0,174.537,115.4Zm-10.521,8.748h0a1.259,1.259,0,0,1-1.066-.492,1.229,1.229,0,0,1-.248-.78c0-2.241-.005-4.111,0-6.054a1.22,1.22,0,0,1,1.283-1.259h.928c.237,0,.475,0,.71,0a1.1,1.1,0,0,0,.963-.49c.133-.185.267-.369.4-.552.148-.2.3-.412.45-.619a.263.263,0,0,1,.242-.124h0c1.056,0,2.123,0,3.171,0h0a.267.267,0,0,1,.242.125c.136.191.275.38.413.569s.288.394.429.592a1.112,1.112,0,0,0,.973.5c.415,0,.838,0,1.247,0h.378a1.213,1.213,0,0,1,1.291,1.263c.007,1.791.007,3.715,0,6.053a1.194,1.194,0,0,1-.93,1.225,1.6,1.6,0,0,1-.386.04q-2.1,0-4.2,0h-2.485Q165.92,124.143,164.016,124.144Z" transform="translate(-161.896 -112.96)" fill="#fff"/></g><g transform="translate(166.107 116.695)"><path d="M243.492,182.77a3.073,3.073,0,1,0-.009,6.146,3.073,3.073,0,1,0,.009-6.146Zm2.422,3.084a2.43,2.43,0,1,1-2.423-2.434A2.427,2.427,0,0,1,245.914,185.854Z" transform="translate(-240.329 -182.688)" fill="#e2e2e2" stroke="#e2e2e2" stroke-width="0.2"/><path d="M243.849,182.656a2.492,2.492,0,0,0-1.776-.736h0a2.5,2.5,0,0,0-1.786.748,2.461,2.461,0,0,0-.727,1.763,2.512,2.512,0,0,0,5.023,0A2.494,2.494,0,0,0,243.849,182.656Zm-1.782,4.114a2.36,2.36,0,0,1-2.348-2.341,2.3,2.3,0,0,1,.68-1.646,2.341,2.341,0,0,1,1.67-.7h0a2.343,2.343,0,0,1-.006,4.686Zm1.782-4.114a2.492,2.492,0,0,0-1.776-.736h0a2.5,2.5,0,0,0-1.786.748,2.461,2.461,0,0,0-.727,1.763,2.512,2.512,0,0,0,5.023,0A2.494,2.494,0,0,0,243.849,182.656Zm-1.782,4.114a2.36,2.36,0,0,1-2.348-2.341,2.3,2.3,0,0,1,.68-1.646,2.341,2.341,0,0,1,1.67-.7h0a2.343,2.343,0,0,1-.006,4.686Zm2.257-4.563a3.125,3.125,0,0,0-2.249-.937h-.009a3.135,3.135,0,0,0-3.153,3.108,3.174,3.174,0,0,0,.909,2.268,3.115,3.115,0,0,0,2.239.933h.049a3.17,3.17,0,0,0,3.123-3.053A3.239,3.239,0,0,0,244.324,182.207Zm-2.215,5.21h-.049a2.952,2.952,0,0,1-2.122-.884,3.009,3.009,0,0,1-.862-2.15,2.973,2.973,0,0,1,2.989-2.948h.009a2.964,2.964,0,0,1,2.133.887,3.074,3.074,0,0,1,.861,2.2A3,3,0,0,1,242.109,187.416Zm1.74-4.76a2.492,2.492,0,0,0-1.776-.736h0a2.5,2.5,0,0,0-1.786.748,2.461,2.461,0,0,0-.727,1.763,2.512,2.512,0,0,0,5.023,0A2.494,2.494,0,0,0,243.849,182.656Zm-1.782,4.114a2.36,2.36,0,0,1-2.348-2.341,2.3,2.3,0,0,1,.68-1.646,2.341,2.341,0,0,1,1.67-.7h0a2.343,2.343,0,0,1-.006,4.686Z" transform="translate(-238.911 -181.27)" fill="#e2e2e2" stroke="#e2e2e2" stroke-width="0.2"/></g><g transform="translate(172.887 116.341)"><path d="M365.725,176.79a.81.81,0,0,0,0,1.619.809.809,0,1,0,0-1.619Zm.4.814a.4.4,0,1,1-.4-.413A.411.411,0,0,1,366.128,177.6Z" transform="translate(-364.811 -176.681)" fill="#e2e2e2"/><path d="M364.195,175.343a.5.5,0,0,0-.359-.153h0a.517.517,0,0,0-.51.505.511.511,0,1,0,1.021.019A.524.524,0,0,0,364.195,175.343Zm-.359.659a.3.3,0,0,1-.291-.3.3.3,0,0,1,.291-.292h0a.288.288,0,0,1,.2.087.305.305,0,0,1,.089.215.3.3,0,0,1-.088.2A.293.293,0,0,1,363.836,176Zm.359-.659a.5.5,0,0,0-.359-.153h0a.517.517,0,0,0-.51.505.511.511,0,1,0,1.021.019A.524.524,0,0,0,364.195,175.343Zm-.359.659a.3.3,0,0,1-.291-.3.3.3,0,0,1,.291-.292h0a.288.288,0,0,1,.2.087.305.305,0,0,1,.089.215.3.3,0,0,1-.088.2A.293.293,0,0,1,363.836,176Zm0-1.213h0a.919.919,0,0,0,0,1.838h0a.927.927,0,0,0,.651-.278.9.9,0,0,0,.267-.644A.924.924,0,0,0,363.837,174.79Zm0,1.619a.7.7,0,0,1,0-1.4h0a.705.705,0,0,1,.7.7.693.693,0,0,1-.2.488.707.707,0,0,1-.5.213Zm.36-1.066a.5.5,0,0,0-.359-.153h0a.517.517,0,0,0-.51.505.511.511,0,1,0,1.021.019A.524.524,0,0,0,364.195,175.343Zm-.359.659a.3.3,0,0,1-.291-.3.3.3,0,0,1,.291-.292h0a.288.288,0,0,1,.2.087.305.305,0,0,1,.089.215.3.3,0,0,1-.088.2A.293.293,0,0,1,363.836,176Z" transform="translate(-362.92 -174.79)" fill="#e2e2e2"/></g></g></svg>