<svg xmlns="http://www.w3.org/2000/svg" width="17.844" height="18" viewBox="0 0 17.844 18">
  <path id="Trazado_2132" data-name="Trazado 2132" d="M-572.986,1108.281c.064-.078.1-.135.152-.184q3.254-3.284,6.508-6.567a1.427,1.427,0,0,1,.839-.468,1.29,1.29,0,0,1,1.258.677,1.213,1.213,0,0,1-.135,1.389c-.071.083-.145.164-.222.241l-6.516,6.583c-.032.032-.07.059-.136.115a1.651,1.651,0,0,1,.166.127q3.273,3.3,6.546,6.6a1.264,1.264,0,0,1,.387,1.365,1.249,1.249,0,0,1-1.986.6c-.08-.066-.156-.136-.229-.21q-3.262-3.288-6.522-6.577c-.036-.036-.065-.081-.116-.144-.056.07-.092.123-.137.168q-3.28,3.306-6.56,6.613a1.276,1.276,0,0,1-1.121.435,1.3,1.3,0,0,1-1.066-1.589,1.5,1.5,0,0,1,.419-.663q3.262-3.287,6.522-6.577c.048-.049.107-.088.195-.159a1.971,1.971,0,0,1-.192-.149q-3.26-3.29-6.518-6.582a1.494,1.494,0,0,1-.423-.66,1.289,1.289,0,0,1,.564-1.412,1.2,1.2,0,0,1,1.468.112c.069.061.135.126.2.191l6.514,6.561C-573.085,1108.156-573.051,1108.2-572.986,1108.281Z" transform="translate(581.913 -1101.053)" fill="#707070"/>
</svg>
