<svg xmlns="http://www.w3.org/2000/svg" width="16.827" height="18.814" viewBox="0 0 16.827 18.814"><g transform="translate(-250.612 -11.75)"><path d="M-646.431,2772.571a5.9,5.9,0,0,1,.992.6,1.6,1.6,0,0,1,.435,1.914,1.761,1.761,0,0,1-1.651,1.163c-1.069.037-2.14.027-3.21.021a.335.335,0,0,0-.387.256,2.593,2.593,0,0,1-2.435,1.578,2.583,2.583,0,0,1-2.42-1.6.3.3,0,0,0-.343-.234c-1.088,0-2.178.016-3.265-.024a1.847,1.847,0,0,1-1.771-1.674,1.844,1.844,0,0,1,1.365-1.873l.264-.073c0-.1,0-.2,0-.3,0-1.691-.015-3.383.008-5.074a5.777,5.777,0,0,1,3.854-5.208l.352-.133a1.934,1.934,0,0,1,2-2.122,1.915,1.915,0,0,1,1.936,2.071c.5.258,1.025.474,1.487.77a5.65,5.65,0,0,1,2.674,4.052,6,6,0,0,1,.055.871c.005,1.6,0,3.194,0,4.79v.281Zm-11.454.323h10.4c0-.076.01-.135.01-.193q0-2.626,0-5.252a4.394,4.394,0,0,0-.055-.692,5.184,5.184,0,0,0-7.039-3.87,4.6,4.6,0,0,0-3.279,4.245c-.1,1.772-.032,3.552-.039,5.328C-657.886,2772.6-657.886,2772.733-657.886,2772.893Zm5.193,2.475h4.2c.53,0,1.061.008,1.591,0,.745-.015,1.218-.585,1.011-1.2a1,1,0,0,0-1.073-.631H-658.38a2.037,2.037,0,0,0-.328.018.9.9,0,0,0-.652,1.374,1.071,1.071,0,0,0,.987.444Q-655.533,2775.369-652.693,2775.368Zm-1.543.615a1.555,1.555,0,0,0,1.684,1.2,1.484,1.484,0,0,0,1.42-1.2Zm2.522-14.029a1,1,0,0,0-.518-1.145.938.938,0,0,0-1.026.083.951.951,0,0,0-.359,1.061Z" transform="translate(911.363 -2747.793)" fill="#707070" stroke="#707070" stroke-width="0.5"/><g transform="translate(260.289 12.715)" fill="#0fbbd8"><path d="M 3.57506537437439 6.400135517120361 C 2.01731538772583 6.400135517120361 0.7499953508377075 5.132815361022949 0.7499953508377075 3.57506537437439 C 0.7499953508377075 2.01731538772583 2.01731538772583 0.7499953508377075 3.57506537437439 0.7499953508377075 C 5.132815361022949 0.7499953508377075 6.400135517120361 2.01731538772583 6.400135517120361 3.57506537437439 C 6.400135517120361 5.132815361022949 5.132815361022949 6.400135517120361 3.57506537437439 6.400135517120361 Z" stroke="none"/><path d="M 3.57506537437439 1.499995231628418 C 2.430865287780762 1.499995231628418 1.499995231628418 2.430865287780762 1.499995231628418 3.57506537437439 C 1.499995231628418 4.719265460968018 2.430865287780762 5.650135517120361 3.57506537437439 5.650135517120361 C 4.719265460968018 5.650135517120361 5.650135517120361 4.719265460968018 5.650135517120361 3.57506537437439 C 5.650135517120361 2.430865287780762 4.719265460968018 1.499995231628418 3.57506537437439 1.499995231628418 M 3.57506537437439 -4.76837158203125e-06 C 5.549515247344971 -4.76837158203125e-06 7.150135517120361 1.600615501403809 7.150135517120361 3.57506537437439 C 7.150135517120361 5.549515247344971 5.549515247344971 7.150135517120361 3.57506537437439 7.150135517120361 C 1.600615501403809 7.150135517120361 -4.76837158203125e-06 5.549515247344971 -4.76837158203125e-06 3.57506537437439 C -4.76837158203125e-06 1.600615501403809 1.600615501403809 -4.76837158203125e-06 3.57506537437439 -4.76837158203125e-06 Z" stroke="none" fill="#0fbbd8"/></g></g></svg>