<svg id="ic_header_searchwhite" xmlns="http://www.w3.org/2000/svg" width="16.573" height="17" viewBox="0 0 16.573 17">
  <g id="Grupo_179" data-name="Grupo 179">
    <path id="Trazado_120" data-name="Trazado 120" d="M7.286,14.571a7.286,7.286,0,1,1,7.286-7.286,7.255,7.255,0,0,1-7.286,7.286Zm0-13.132a5.847,5.847,0,1,0,5.847,5.847A5.835,5.835,0,0,0,7.286,1.439Z" fill="#bfbfbf"/>
  </g>
  <g id="Grupo_180" data-name="Grupo 180" transform="translate(2.429 2.429)">
    <path id="Trazado_121" data-name="Trazado 121" d="M3.42,7.557H2.7A4.837,4.837,0,0,1,7.557,2.7v.72A4.185,4.185,0,0,0,3.42,7.557Z" transform="translate(-2.7 -2.7)" fill="#bfbfbf"/>
  </g>
  <g id="Grupo_181" data-name="Grupo 181" transform="translate(11.131 11.581)">
    <path id="Trazado_122" data-name="Trazado 122" d="M17.165,18.294a1.278,1.278,0,0,1-.54-.18l-4.048-4.048a.7.7,0,0,1,.989-.989l4.048,4.048a.706.706,0,0,1,0,.989c0,.09-.18.18-.45.18Z" transform="translate(-12.375 -12.875)" fill="#bfbfbf"/>
  </g>
</svg>
