<svg xmlns="http://www.w3.org/2000/svg" width="18.402" height="18.877" viewBox="0 0 18.402 18.877">
  <g id="ic_header_search_grey" transform="translate(0 0)">
    <g id="Grupo_179" data-name="Grupo 179">
      <path id="Trazado_120" data-name="Trazado 120" d="M8.09,16.18a8.09,8.09,0,1,1,8.09-8.09,8.056,8.056,0,0,1-8.09,8.09ZM8.09,1.6A6.492,6.492,0,1,0,14.582,8.09,6.479,6.479,0,0,0,8.09,1.6Z" fill="#707070"/>
    </g>
    <g id="Grupo_180" data-name="Grupo 180" transform="translate(2.697 2.697)">
      <path id="Trazado_121" data-name="Trazado 121" d="M3.5,8.093H2.7A5.371,5.371,0,0,1,8.093,2.7v.8A4.647,4.647,0,0,0,3.5,8.093Z" transform="translate(-2.7 -2.7)" fill="#707070"/>
    </g>
    <g id="Grupo_181" data-name="Grupo 181" transform="translate(12.36 12.859)">
      <path id="Trazado_122" data-name="Trazado 122" d="M17.693,18.893a1.42,1.42,0,0,1-.6-.2L12.6,14.2a.777.777,0,1,1,1.1-1.1l4.494,4.494a.784.784,0,0,1,0,1.1c0,.1-.2.2-.5.2Z" transform="translate(-12.375 -12.875)" fill="#707070"/>
    </g>
  </g>
</svg>
