<svg xmlns="http://www.w3.org/2000/svg" viewBox="0 0 16.079 16">
  <defs>
    <style>
      .cls-1 {
        fill: #707070;
      }
    </style>
  </defs>
  <g id="ic_header_perfil" transform="translate(-1082.253 -248.8)">
    <g id="Group_167" data-name="Group 167" transform="translate(1082.253 248.8)">
      <g id="Group_166" data-name="Group 166">
        <g id="Group_162" data-name="Group 162" transform="translate(0 7.799)">
          <g id="Group_161" data-name="Group 161">
            <g id="Group_160" data-name="Group 160">
              <path id="Path_102" data-name="Path 102" class="cls-1" d="M1094.284,258.979a.449.449,0,0,0-.605.08c-.173.161-.086.4.087.563,1.644,1.045,2.768,1.93,3.114,3.7a1.968,1.968,0,0,1-.173,1.688c-.605.643-2.6.643-6.055.643h-.865c-3.46,0-5.536,0-6.055-.643-.26-.241-.26-.8-.087-1.688.346-1.688,1.3-2.492,3.114-3.7.173-.161.26-.4.087-.563a.449.449,0,0,0-.605-.08c-1.73,1.126-3.028,2.09-3.46,4.181a2.7,2.7,0,0,0,.26,2.332c.779.884,2.768.884,6.747.884h.865c3.893,0,5.882,0,6.661-.884a2.658,2.658,0,0,0,.346-2.332C1097.312,261.15,1096.014,260.1,1094.284,258.979Z" transform="translate(-1082.306 -258.577)"/>
              <path id="Path_103" data-name="Path 103" class="cls-1" d="M1090.6,266.7h-.865c-4.066,0-6.055,0-7.007-1.045a2.981,2.981,0,0,1-.346-2.573c.432-2.251,1.817-3.3,3.633-4.422a.756.756,0,0,1,.605-.08c.173,0,.346.161.519.322a.63.63,0,0,1-.173.965c-1.817,1.126-2.682,1.93-2.941,3.457-.173.724-.173,1.206,0,1.367.432.482,2.682.482,5.8.482h.865c3.114,0,5.277,0,5.8-.482.173-.161.173-.643.087-1.447-.26-1.688-1.3-2.412-2.941-3.457a.639.639,0,0,1-.173-.965.8.8,0,0,1,.519-.322,1.575,1.575,0,0,1,.605.08c1.817,1.126,3.2,2.251,3.633,4.422a2.707,2.707,0,0,1-.432,2.573C1096.653,266.7,1094.664,266.7,1090.6,266.7Zm-4.412-7.8.173.241c-1.73,1.045-2.941,2.01-3.287,4.02a2.193,2.193,0,0,0,.26,2.09c.692.8,2.768.8,6.488.8h.865c3.633,0,5.709,0,6.4-.8a2.414,2.414,0,0,0,.26-2.09c-.346-1.93-1.557-2.895-3.287-4.02h-.086c-.087.08-.087.08,0,.161,1.73,1.045,2.941,2.01,3.2,3.94.173,1.045.087,1.608-.26,1.93-.692.724-2.682.724-6.315.724h-.865c-3.633,0-5.623,0-6.315-.724-.346-.4-.346-.965-.173-1.93.346-1.769,1.384-2.734,3.2-3.94,0,0,.087-.08,0-.08Z" transform="translate(-1082.253 -258.5)"/>
            </g>
          </g>
        </g>
        <g id="Group_165" data-name="Group 165" transform="translate(3.501)">
          <g id="Group_164" data-name="Group 164">
            <g id="Group_163" data-name="Group 163">
              <path id="Path_104" data-name="Path 104" class="cls-1" d="M1090.766,249.2a3.872,3.872,0,0,0-4.066,4.02c0,2.492,1.99,4.9,4.066,4.9s4.066-2.412,4.066-4.9A3.825,3.825,0,0,0,1090.766,249.2Zm0,8.121c-1.644,0-3.287-2.01-3.287-4.1a3.064,3.064,0,0,1,3.287-3.216,3.155,3.155,0,0,1,3.287,3.216C1094.053,255.23,1092.409,257.321,1090.766,257.321Z" transform="translate(-1086.354 -248.878)"/>
              <path id="Path_105" data-name="Path 105" class="cls-1" d="M1090.712,258.368c-2.249,0-4.412-2.573-4.412-5.226a4.275,4.275,0,0,1,4.412-4.342,4.225,4.225,0,0,1,4.412,4.342C1095.21,255.795,1092.961,258.368,1090.712,258.368Zm0-8.925a3.568,3.568,0,0,0-3.72,3.7c0,2.332,1.817,4.583,3.72,4.583s3.72-2.332,3.72-4.583A3.475,3.475,0,0,0,1090.712,249.443Zm0,8.121c-1.817,0-3.633-2.171-3.633-4.422a3.414,3.414,0,0,1,3.633-3.538,3.462,3.462,0,0,1,3.633,3.538C1094.345,255.313,1092.528,257.564,1090.712,257.564Zm0-7.317a2.8,2.8,0,0,0-2.941,2.894c0,1.849,1.47,3.779,2.941,3.779,1.384,0,2.941-2.01,2.941-3.779A2.8,2.8,0,0,0,1090.712,250.247Z" transform="translate(-1086.3 -248.8)"/>
            </g>
          </g>
        </g>
      </g>
    </g>
  </g>
</svg>
