<svg xmlns="http://www.w3.org/2000/svg" width="14.887" height="19.83" viewBox="0 0 14.887 19.83">
  <g id="ic_header_rotalo" transform="translate(-518.956 -367.302)">
    <path id="Path_112" data-name="Path 112" d="M582.1,246.727a5.436,5.436,0,0,0,4.08-5.956c-.469-3.423-4.361-3.939-6.94-3.142-2.2.657-4.737,2.861-4.221,4.736.141.563.375.75,1.266.75A5.983,5.983,0,0,0,579.2,241.8c.328-.375-.094-1.219-.188-1.641-.094-.469.188-.61.563-.563l4.6,1.172a.355.355,0,0,1,.235.563l-2.532,3.658a.508.508,0,0,1-.891,0c-.422-.8-.469-.985-.985-1.172s-1.923.61-2.532,1.219c-1.547,1.5-.891,9.567-.188,11.161a1.319,1.319,0,0,0,2.485.094c.563-1.266-.938-7.5.328-8.16.8-.422,1.219.047,1.688.61.844,1.125,4.267,6.049,4.971,6.659.657.657,1.594,1.594,2.579.844.8-.61.516-1.407.188-2.11A15.835,15.835,0,0,0,582.1,246.727Z" transform="translate(-56 130)" fill="#ff3646"/>
  </g>
</svg>
