<svg id="ic_header_search" xmlns="http://www.w3.org/2000/svg" viewBox="0 0 21.447 22">
  <defs>
    <style>
      .cls-1 {
        fill: #b0b0b0;
      }
    </style>
  </defs>
  <g id="Group_179" data-name="Group 179">
    <path id="Path_120" data-name="Path 120" class="cls-1" d="M9.429,18.857a9.429,9.429,0,1,1,9.429-9.429,9.389,9.389,0,0,1-9.429,9.429Zm0-16.995a7.566,7.566,0,1,0,7.566,7.566A7.551,7.551,0,0,0,9.429,1.862Z"/>
  </g>
  <g id="Group_180" data-name="Group 180" transform="translate(3.143 3.143)">
    <path id="Path_121" data-name="Path 121" class="cls-1" d="M3.631,8.986H2.7A6.26,6.26,0,0,1,8.986,2.7v.931A5.416,5.416,0,0,0,3.631,8.986Z" transform="translate(-2.7 -2.7)"/>
  </g>
  <g id="Group_181" data-name="Group 181" transform="translate(14.405 14.987)">
    <path id="Path_122" data-name="Path 122" class="cls-1" d="M18.573,19.888a1.654,1.654,0,0,1-.7-.233l-5.238-5.238a.905.905,0,0,1,1.28-1.28l5.238,5.238a.913.913,0,0,1,0,1.28c0,.116-.233.233-.582.233Z" transform="translate(-12.375 -12.875)"/>
  </g>
</svg>
