<svg xmlns="http://www.w3.org/2000/svg" width="264.229" height="244.986" viewBox="0 0 264.229 244.986"><g transform="translate(-711.537 -209.895)"><g transform="translate(711.537 209.895)"><g transform="translate(11.25)"><ellipse cx="122.493" cy="122.493" rx="122.493" ry="122.493" fill="#fff"/><ellipse cx="121.18" cy="121.18" rx="121.18" ry="121.18" transform="translate(1.314 1.314)" fill="none" stroke="#b0b0b0" stroke-width="2" stroke-dasharray="0 10"/></g><ellipse cx="112.273" cy="112.273" rx="112.273" ry="112.273" transform="translate(21.93 11.542)" fill="#5e3bc3" opacity="0.047"/><g transform="translate(47.022 35.66)" opacity="0.042"><path d="M362.206,883.646a104.525,104.525,0,0,1-58.713-17.934,105.3,105.3,0,0,1-38.047-46.2,104.337,104.337,0,0,1-8.253-40.875,105.419,105.419,0,0,1,8.3-40.981,103.312,103.312,0,0,1,15.6-25.8,105.073,105.073,0,1,1,81.115,171.793Z" transform="translate(-275.457 -689.884)" fill="#5e3bc3"/><path d="M342.721,674.435a84.723,84.723,0,0,0-65.437,30.841,83.408,83.408,0,0,0-12.582,20.81,85.057,85.057,0,0,0-6.694,33.062,84.31,84.31,0,0,0,14.466,47.363A84.989,84.989,0,0,0,309.747,837.2a84.6,84.6,0,0,0,80.338-7.811,84.961,84.961,0,0,0,30.693-37.272,84.608,84.608,0,0,0-7.81-80.338,84.97,84.97,0,0,0-37.273-30.694,84.183,84.183,0,0,0-32.973-6.656m0-1.314a85.957,85.957,0,1,1-79.23,52.456A86.026,86.026,0,0,1,342.721,673.121Z" transform="translate(-256.694 -673.121)" fill="#717171"/></g><g transform="translate(0 113.53)"><path d="M418.679,755.6h4.231v4.279h-4.231Z" transform="translate(-158.862 -725.118)" fill="#5e3bc3"/><path d="M220.9,736.676V732.4h4.279v4.279Z" transform="translate(-220.9 -732.397)" fill="#5e3bc3"/><path d="M258.5,808.833h-4.279v-4.279H258.5Z" transform="translate(-210.448 -709.763)" fill="#5e3bc3"/></g></g><path d="M220.9,735.257V732.4h2.86v2.86Z" transform="translate(740.183 -389.872)" fill="#5e3bc3"/><path d="M257.082,807.414h-2.86v-2.86h2.86Z" transform="translate(698.363 -560.237)" fill="#5e3bc3"/><path d="M257.082,807.414h-2.86v-2.86h2.86Z" transform="translate(470.062 -467.16)" fill="#5e3bc3"/><g transform="translate(961.515 388.823)"><path d="M388.539,666.236l3.876-3.876a.732.732,0,0,0-1.035-1.035L387.5,665.2l-3.876-3.876a.732.732,0,0,0-1.035,1.035l3.876,3.876-3.876,3.876a.732.732,0,0,0,1.035,1.035l3.876-3.876,3.876,3.876a.733.733,0,0,0,1.064-1.007l-.029-.028Z" transform="translate(-378.392 -661.124)" fill="#5e3bc3"/></g><g transform="matrix(-0.174, -0.985, 0.985, -0.174, 733.597, 253.053)"><path d="M6.147,5.112l3.876-3.876A.732.732,0,0,0,8.987.2L5.111,4.077,1.235.2A.732.732,0,0,0,.2,1.236L4.076,5.112.2,8.988a.732.732,0,0,0,1.035,1.035L5.111,6.147l3.876,3.876a.733.733,0,0,0,1.064-1.007l-.029-.028Z" fill="#5e3bc3"/></g><g transform="translate(120.994 195.957)"><g transform="translate(635.006 68.043)"><path d="M801.239,187.652a6.958,6.958,0,0,1,2.8.586,6.981,6.981,0,0,1,9.748-8.816,6.982,6.982,0,0,1,8.1-9.523V74.535a6.512,6.512,0,0,0-6.493-6.492H641.5a6.511,6.511,0,0,0-6.492,6.492V192.2a6.511,6.511,0,0,0,6.492,6.492H795.564a6.977,6.977,0,0,1,5.675-11.041Z" transform="translate(-635.006 -68.043)" fill="#fff"/></g><path d="M821.889,84.127V74.535a6.512,6.512,0,0,0-6.493-6.492H641.5a6.511,6.511,0,0,0-6.492,6.492v9.592Z" transform="translate(0)" fill="#522fa0"/><path d="M800.429,75.446a2.807,2.807,0,1,1-2.807-2.807A2.807,2.807,0,0,1,800.429,75.446Z" transform="translate(-3.135 -0.09)" fill="#95ce28"/><circle cx="2.807" cy="2.807" r="2.807" transform="translate(801.543 72.549)" fill="#e3e82d"/><path d="M820.552,75.446a2.808,2.808,0,1,1-2.808-2.807A2.808,2.808,0,0,1,820.552,75.446Z" transform="translate(-3.53 -0.09)" fill="#9b1212"/><g transform="translate(635.006 68.043)"><path d="M801.239,187.652a6.958,6.958,0,0,1,2.8.586,6.981,6.981,0,0,1,9.748-8.816,6.982,6.982,0,0,1,8.1-9.523V74.535a6.512,6.512,0,0,0-6.493-6.492H641.5a6.511,6.511,0,0,0-6.492,6.492V192.2a6.511,6.511,0,0,0,6.492,6.492H795.564a6.977,6.977,0,0,1,5.675-11.041Z" transform="translate(-635.006 -68.043)" fill="none" stroke="#fff" stroke-miterlimit="10" stroke-width="0.764"/></g></g><g transform="translate(-1.388 578.626)"><path d="M820.388-159.848a13.61,13.61,0,0,1,4.2-9.452c2.316-2.328,4.645-4.643,6.957-6.975a1.357,1.357,0,0,1,1.181-.468c2.318.236,4.638.455,6.957.678.419.04.818.123.972.585a1.046,1.046,0,0,1-.4,1.126q-5.165,5.155-10.32,10.32a6.354,6.354,0,0,0-.962,8.21,6.33,6.33,0,0,0,9.485,1.071c3.513-3.425,6.952-6.926,10.43-10.387.386-.385.72-.976,1.411-.715.65.246.553.885.609,1.411.232,2.176.468,4.352.646,6.533a1.533,1.533,0,0,1-.363,1.082c-2.631,2.643-5.2,5.366-7.98,7.839a12.91,12.91,0,0,1-11.648,3.112,13.5,13.5,0,0,1-10.033-8.011A13.963,13.963,0,0,1,820.388-159.848Z" transform="translate(0 -72.54)" fill="#a2a2a2"/><path d="M932.607-272.621c7.5.016,13.084,4.376,14.513,10.481a13.619,13.619,0,0,1-3.764,13.229c-2.29,2.38-4.658,4.686-6.981,7.034a1.306,1.306,0,0,1-1.137.429c-2.318-.23-4.638-.443-6.956-.667-.437-.042-.853-.151-1.013-.636s.171-.8.472-1.1q5.112-5.12,10.226-10.238a6.36,6.36,0,0,0,1.465-7.415,6.291,6.291,0,0,0-10.063-1.855q-5.251,5.238-10.479,10.5a4.395,4.395,0,0,1-.351.336.816.816,0,0,1-1.414-.562c-.212-1.872-.392-3.747-.582-5.622a12.1,12.1,0,0,1-.137-1.693,1.562,1.562,0,0,1,.375-.959c2.4-2.446,4.8-4.888,7.251-7.282A13.287,13.287,0,0,1,932.607-272.621Z" transform="translate(-72.649)" fill="#a2a2a2"/><path d="M842.551-199.746q-2.065,0-4.129,0c-.84,0-1.142-.307-1.056-1.152.082-.8.185-1.608.32-2.406a.822.822,0,0,1,1.186-.733c2.8.808,5.588,1.629,8.383,2.438.49.142.8.423.738.952s-.452.74-.948.743c-1.5.008-3,0-4.494,0Z" transform="translate(-12.836 -51.847)" fill="#a2a2a2"/><path d="M994.358-133.853c-.1.725-.2,1.611-.355,2.487a.777.777,0,0,1-1.077.666c-2.855-.824-5.706-1.664-8.559-2.5a.806.806,0,0,1-.654-.948.786.786,0,0,1,.847-.707c.525-.03,1.052-.037,1.579-.046q3.554-.062,7.108-.118C994.071-135.028,994.383-134.736,994.358-133.853Z" transform="translate(-123.575 -104.119)" fill="#a2a2a2"/><path d="M893.086-250.356q0,2.158,0,4.315c0,.491-.139.914-.682.994s-.863-.242-1.011-.751c-.81-2.777-1.627-5.551-2.431-8.329-.2-.7.05-1.086.778-1.207q1.138-.189,2.285-.319c.93-.1,1.227.18,1.226,1.1q0,2.1,0,4.193Z" transform="translate(-51.837 -12.823)" fill="#a2a2a2"/><path d="M958.2-103.953c0-1.458,0-2.915,0-4.373,0-.5.154-.9.692-.987.573-.1.852.256,1,.754q1.218,4.16,2.432,8.322c.2.705-.039,1.1-.76,1.216-.818.134-1.641.242-2.465.337-.747.086-1.058-.221-1.06-1.018,0-1.417,0-2.834,0-4.251Z" transform="translate(-104.153 -123.557)" fill="#a2a2a2"/></g></g></svg>