<svg xmlns="http://www.w3.org/2000/svg" viewBox="0 0 87.38 34">
  <defs>
    <style>
      .cls-1 {
        fill: #ff3646;
      }
    </style>
  </defs>
  <g id="ic_logo_rotalo" transform="translate(-574.956 -237.302)">
    <path id="Path_112" data-name="Path 112" class="cls-1" d="M586.874,253.015a9.063,9.063,0,0,0,6.8-9.929c-.782-5.707-7.271-6.567-11.571-5.238-3.675,1.095-7.9,4.769-7.036,7.9.234.938.625,1.251,2.111,1.251a9.974,9.974,0,0,0,4.847-2.189c.547-.625-.156-2.033-.313-2.736-.156-.782.313-1.016.938-.938l7.662,1.955a.592.592,0,0,1,.391.938l-4.222,6.1a.847.847,0,0,1-1.486,0c-.7-1.329-.782-1.642-1.642-1.955s-3.205,1.016-4.222,2.033c-2.58,2.5-1.485,15.949-.313,18.607.782,1.8,3.206,2.267,4.144.156s-1.564-12.509.547-13.6c1.329-.7,2.033.078,2.815,1.016,1.407,1.876,7.114,10.085,8.287,11.1,1.095,1.095,2.658,2.658,4.3,1.407,1.329-1.016.86-2.345.313-3.518A26.4,26.4,0,0,0,586.874,253.015Z" transform="translate(0 0)"/>
    <path id="Path_113" data-name="Path 113" class="cls-1" d="M669.553,254.872c-4.691-.391-7.349,2.658-7.115,8.522a8.361,8.361,0,0,0,1.72,5.082c-1.251.86-2.893,1.485-4.222.938-2.345-.938-2.814-5.316-2.814-5.551,1.251-1.407,9.538-16.105,5.551-20.484-1.095-1.251-4.456-2.345-7.74,1.642-3.44,4.144-3.831,14.854-1.876,21.265-1.173,1.485-2.345,2.424-3.44,2.345-2.345-.235-1.407-9.069-1.642-9.929s-3.518-.938-3.753.078a24.9,24.9,0,0,1-.234,4.144c-.391,2.424-2.033,5.316-3.206,4.847-.625-.235-1.329-1.329-1.251-3.6.234-6.333,3.518-7.9,4.769-8.522,1.251-.7-.313-1.8-1.329-1.485a11.983,11.983,0,0,0-6.489,5.395c-1.955,3.362-2.971,11.571,3.284,11.571,2.893,0,4.065-2.893,4.378-3.518.313,1.016,2.033,3.753,4.456,3.753,1.8,0,3.674-1.407,5.16-2.971.156.235.234.547.391.782,1.876,3.284,5.395,3.831,8.522,2.58a8.841,8.841,0,0,0,2.971-1.876A7.537,7.537,0,0,0,669.4,270.9c2.971,0,5.473-2.971,5.942-7.427C675.807,259.8,674.635,255.263,669.553,254.872ZM659.7,244.239c4.613.782-2.267,14.933-2.971,16.105C656.653,259.172,654.933,246.272,659.7,244.239Zm9.773,24.705c-2.58-.078-2.5-7.662-1.8-9.694a2.392,2.392,0,0,1,4.378-.626C674.166,261.6,671.9,269.023,669.475,268.945Z" transform="translate(-13.097 -1.075)"/>
    <path id="Path_114" data-name="Path 114" class="cls-1" d="M614.51,258.391c-4.691-.391-7.349,2.658-7.114,8.522.234,5.707,3.987,7.349,6.958,7.349s5.473-2.971,5.942-7.427C620.765,263.316,619.592,258.782,614.51,258.391Zm-.078,14.073c-2.58-.078-2.5-7.662-1.8-9.694a2.392,2.392,0,0,1,4.378-.625C619.123,265.114,616.856,272.541,614.432,272.463Z" transform="translate(-7.075 -4.594)"/>
    <path id="Path_115" data-name="Path 115" class="cls-1" d="M629.823,253.662c.86-.156,4.613-.547,4.613-2.189s-3.909-.938-4.769-.86c0-.547-.235-4.222-.235-5.395a2.359,2.359,0,0,0-2.267-2.736c-1.954-.391-2.033,1.095-2.111,1.329v7.114c-.86.156-4.535-.235-4.066,2.424,0,1.251,2.189,1.251,3.518,1.095.391,0,.7-.078.86-.078,0,3.049.391,12.118.469,14.151.078,1.485-.156,3.205,1.8,3.205,2.345,0,2.267-2.658,2.267-3.831C629.823,266.562,629.9,255.46,629.823,253.662Z" transform="translate(-10.035 -1.116)"/>
    <path id="Path_116" data-name="Path 116" class="cls-1" d="M611.212,254.892a.627.627,0,0,0,.938.313c1.642-.86,6.411-3.44,6.724-3.675a.454.454,0,0,0,.156-.7c-.313-.625-.625-1.173-.938-1.72a.587.587,0,0,0-.7-.313c-.86.235-6.333,2.345-7.193,2.736a.657.657,0,0,0-.313.86A19.4,19.4,0,0,1,611.212,254.892Z" transform="translate(-7.607 -2.503)"/>
  </g>
</svg>
