<svg xmlns="http://www.w3.org/2000/svg" width="26.811" height="27.429" viewBox="0 0 26.811 27.429">
  <g id="ic_map" transform="translate(-407.75 -551.775)">
    <path id="Trazado_5846" data-name="Trazado 5846" d="M411.8,561.5h-1.1l-2.2,14.383,6.6-3.082,6.053,2.5,6.053-2.5,6.6,3.082-2.2-14.383h-1.1" transform="translate(0 2.571)" fill="none" stroke="#522fa0" stroke-linecap="round" stroke-linejoin="round" stroke-width="1.5"/>
    <g id="pin" transform="translate(414.139 552.525)">
      <path id="Trazado_5847" data-name="Trazado 5847" d="M427.2,559.541c0,5.063-7.016,12.118-7.016,12.118s-7.025-7.025-7.016-12.118a7.016,7.016,0,0,1,14.032,0Z" transform="translate(-413.171 -552.525)" fill="none" stroke="#522fa0" stroke-miterlimit="10" stroke-width="1.5"/>
      <path id="Trazado_5848" data-name="Trazado 5848" d="M423.274,559.208a3.189,3.189,0,1,1-3.189-3.189A3.189,3.189,0,0,1,423.274,559.208Z" transform="translate(-413.069 -552.429)" fill="none" stroke="#522fa0" stroke-miterlimit="10" stroke-width="1.5"/>
    </g>
  </g>
</svg>
