<svg xmlns="http://www.w3.org/2000/svg" width="32.93" height="32.93" viewBox="0 0 32.93 32.93">
  <g id="ic_share_email" transform="translate(-1235 -883.07)">
    <circle id="Ellipse_222" data-name="Ellipse 222" cx="16.465" cy="16.465" r="16.465" transform="translate(1235 883.07)" fill="#7444ad"/>
    <path id="Path_3219" data-name="Path 3219" d="M998.824,585.6q-3.266,0-6.533,0a1.051,1.051,0,0,1-.731-.219,1.238,1.238,0,0,1-.422-.992c0-.934,0-1.868,0-2.8q0-2.75,0-5.5a1.288,1.288,0,0,1,.216-.781,1.113,1.113,0,0,1,.961-.467q3.2.007,6.4,0,3.325,0,6.651,0a1.062,1.062,0,0,1,.935.454,2.172,2.172,0,0,1,.218.553.727.727,0,0,1,.01.22q0,4.166,0,8.332a1.288,1.288,0,0,1-.381.953.89.89,0,0,1-.558.239,2.394,2.394,0,0,1-.25.009Zm6.428-9.987H992.436c.129.136.252.276.385.4.362.349.729.694,1.095,1.04l1.085,1.03c.365.346.73.694,1.1,1.039.307.288.618.573.926.86q.3.275.587.555c.3.287.6.579.9.859a.527.527,0,0,0,.653-.005c.139-.123.268-.256.4-.385q.515-.491,1.03-.982.564-.535,1.129-1.069c.351-.333.7-.668,1.053-1q.6-.57,1.208-1.137c.29-.271.583-.538.872-.811C1004.993,575.884,1005.118,575.749,1005.253,575.612Zm-12.838,9.209.021.037h12.823c-.069-.08-.121-.15-.182-.209q-.543-.525-1.089-1.046t-1.07-1.025q-.653-.623-1.307-1.245c-.215-.205-.429-.411-.648-.623-.071.062-.131.112-.188.165-.367.345-.732.692-1.1,1.036a1.064,1.064,0,0,1-1.246.285,3.381,3.381,0,0,1-.738-.57c-.33-.3-.643-.611-1-.95-.154.169-.288.333-.437.479-.377.37-.762.732-1.143,1.1-.339.325-.675.652-1.015.976q-.648.618-1.3,1.233C992.671,584.583,992.542,584.7,992.415,584.821Zm-.567-.45c.056-.047.1-.079.135-.115.219-.216.434-.435.655-.649q.531-.517,1.067-1.028.593-.569,1.189-1.135c.281-.266.566-.528.846-.8.15-.144.292-.3.44-.45-.246-.239-.492-.483-.742-.722q-.535-.513-1.074-1.021c-.416-.393-.835-.784-1.25-1.178-.308-.292-.613-.589-.921-.881-.105-.1-.217-.192-.344-.305Zm13.969-.009V576.08c-.162.161-.293.3-.43.427-.382.364-.767.726-1.15,1.089-.34.323-.677.649-1.019.971-.478.45-.958.9-1.437,1.345l-.272.257c.172.19.323.371.489.537.326.324.659.641.991.958q.6.579,1.21,1.156c.277.263.558.523.836.785.024.023.041.055.065.078C1005.333,583.9,1005.566,584.125,1005.817,584.362Z" transform="translate(252.305 318.49)" fill="#fff"/>
  </g>
</svg>
