<svg xmlns="http://www.w3.org/2000/svg" width="21.775" height="21.421" viewBox="0 0 21.775 21.421"><g transform="translate(-1289.26 -890.669)"><g transform="translate(1289.26 890.669)"><path d="M743.24,715.582A10.812,10.812,0,0,1,748.2,716.8a11,11,0,0,1,4.011,3.586,10.016,10.016,0,0,1,1.688,4.351,10.312,10.312,0,0,1-1.43,7.075,10.508,10.508,0,0,1-2.811,3.064,11.025,11.025,0,0,1-4.945,2.016,11.35,11.35,0,0,1-3.374-.043,10.578,10.578,0,0,1-2.829-.88c-.3-.142-.6-.3-.891-.458a.4.4,0,0,0-.364-.035c-1.213.421-2.429.834-3.643,1.253a.6.6,0,0,1-.533-.006.486.486,0,0,1-.195-.626c.364-1.218.726-2.436,1.1-3.651a.552.552,0,0,0-.061-.512,11.607,11.607,0,0,1-1.043-2.179,9.921,9.921,0,0,1-.148-6.575,10.381,10.381,0,0,1,2.77-4.514,10.908,10.908,0,0,1,2.732-1.941A10.776,10.776,0,0,1,743.24,715.582Zm-9.17,19.946c.1-.029.155-.045.212-.064.977-.334,1.954-.666,2.93-1a.7.7,0,0,1,.663.067c.217.141.452.254.681.374a10.016,10.016,0,0,0,11.119-1.281,9.962,9.962,0,0,0,2.727-3.868,8.177,8.177,0,0,0,.583-2.4,9.383,9.383,0,0,0-.73-4.824,9.747,9.747,0,0,0-2.805-3.732,9.877,9.877,0,0,0-2.837-1.62,9.934,9.934,0,0,0-11.126,2.951,7.948,7.948,0,0,0-1.2,1.855,9.729,9.729,0,0,0,.664,9.751.666.666,0,0,1,.082.622c-.069.2-.126.4-.187.607Z" transform="translate(-732.246 -715.578)" fill="#2dce6b"/><path d="M772.272,755.372a8.49,8.49,0,0,0,3.442,3.405l.733-.724a.527.527,0,0,1,.785-.09c.6.364,1.2.736,1.8,1.1l1.694,1.042a.484.484,0,0,1,.212.59,3.947,3.947,0,0,1-2.337,2.481,4.155,4.155,0,0,1-2.229.055,9.936,9.936,0,0,1-3.832-1.934,16.553,16.553,0,0,1-2.907-2.934,9.952,9.952,0,0,1-1.693-3.045,4.574,4.574,0,0,1-.208-2.683,3.072,3.072,0,0,1,1.845-2.116c.207-.09.417-.174.629-.249a.5.5,0,0,1,.708.25c.411.671.816,1.346,1.231,2.015.3.481.61.953.912,1.431a.491.491,0,0,1-.08.7C772.748,754.9,772.515,755.131,772.272,755.372Zm7.578,5.345-2.9-1.774-.745.739a.492.492,0,0,1-.579.135,8.5,8.5,0,0,1-.776-.371,9.6,9.6,0,0,1-2.788-2.593,13.72,13.72,0,0,1-.8-1.242.512.512,0,0,1,.1-.749c.216-.219.429-.44.651-.668l-1.766-2.907a2.344,2.344,0,0,0-1.53,1.461,2.919,2.919,0,0,0-.065,1.441,6.977,6.977,0,0,0,.948,2.356,14.182,14.182,0,0,0,2.889,3.435,10.922,10.922,0,0,0,3.42,2.107,4.088,4.088,0,0,0,1.993.258A2.521,2.521,0,0,0,779.85,760.717Z" transform="translate(-763.382 -746.073)" fill="#2dce6b"/></g></g></svg>