<svg xmlns="http://www.w3.org/2000/svg" width="179.412" height="165.327" viewBox="0 0 179.412 165.327"><g transform="translate(-6.411 -1034.441)"><g transform="translate(13.992 1034.555)"><circle cx="82.549" cy="82.549" r="82.549" transform="translate(0)" fill="#fff"/><circle cx="81.664" cy="81.664" r="81.664" transform="translate(0.885 0.885)" fill="none" stroke="#b0b0b0" stroke-width="2" stroke-dasharray="0 10"/></g><circle cx="75.661" cy="75.661" r="75.661" transform="translate(21.19 1042.333)" fill="#5e3bc3" opacity="0.047"/><g transform="translate(38.099 1058.587)" opacity="0.042"><path d="M100.236,1177.264a57.272,57.272,0,0,1-32.166-9.825,57.711,57.711,0,0,1-20.844-25.313,57.178,57.178,0,0,1-4.52-22.394,57.773,57.773,0,0,1,4.545-22.452,56.649,56.649,0,0,1,8.547-14.135,57.565,57.565,0,1,1,44.439,94.118Z" transform="translate(-42.262 -1061.758)" fill="#5e3bc3"/><path d="M100.178,1062.586a57.091,57.091,0,0,0-44.1,20.784,56.214,56.214,0,0,0-8.48,14.024,57.336,57.336,0,0,0-4.511,22.281,56.818,56.818,0,0,0,9.749,31.918,57.263,57.263,0,0,0,25.118,20.685,57.006,57.006,0,0,0,54.139-5.264,57.25,57.25,0,0,0,20.685-25.118,57.018,57.018,0,0,0-5.263-54.14,57.259,57.259,0,0,0-25.118-20.684,56.724,56.724,0,0,0-22.222-4.487m0-.885a57.924,57.924,0,1,1-53.394,35.35A57.974,57.974,0,0,1,100.178,1061.7Z" transform="translate(-42.205 -1061.701)" fill="#717171"/></g><g transform="translate(6.411 1111.064)"><path d="M204.19,1144.183h2.852v2.883H204.19Z" transform="translate(-29.098 -1123.639)" fill="#5e3bc3"/><path d="M6.411,1123.86v-2.883H9.294v2.883Z" transform="translate(-6.411 -1120.977)" fill="#5e3bc3"/><path d="M42.616,1196.017H39.733v-2.883h2.883Z" transform="translate(-10.233 -1129.254)" fill="#5e3bc3"/></g><g transform="translate(49.006 1071.46)"><g transform="translate(0 0)"><path d="M140.068,1096.734a15.44,15.44,0,0,1,.149,4.742,17.128,17.128,0,0,1-7.773,12.444,1.177,1.177,0,0,0-.463.68,1.391,1.391,0,0,0,.388,1.531,15.711,15.711,0,0,1,3.894,13.15,15.042,15.042,0,0,1-1.223,4.154c-.45.955-.9,1.918-1.445,2.823a23.054,23.054,0,0,1-1.727,2.442,29.922,29.922,0,0,1-1.995,2.3,33.536,33.536,0,0,1-5.594,4.63,45.485,45.485,0,0,1-10.359,5.089,54,54,0,0,1-7.3,1.954,49.268,49.268,0,0,1-15.941.524,35.15,35.15,0,0,1-12.19-3.824,20.694,20.694,0,0,1-7.82-6.917,15.8,15.8,0,0,1-1.428-14.817.524.524,0,0,0-.069-.6.85.85,0,0,1-.171-.267c-.2-.556-.723-.651-1.223-.8a27.783,27.783,0,0,1-2.745-.875,16.682,16.682,0,0,1-7.949-6.57,16.31,16.31,0,0,1-2.292-5.684,16.069,16.069,0,0,1,.066-6.139,17.026,17.026,0,0,1,6.161-10.068,18.1,18.1,0,0,1,7.2-3.607.827.827,0,0,0,.514-.45,33.613,33.613,0,0,1,7.492-8.386,36.034,36.034,0,0,1,18.411-7.674,35.358,35.358,0,0,1,13.679.955,33.665,33.665,0,0,1,11.414,5.5.894.894,0,0,0,.7.167,17.915,17.915,0,0,1,17.864,8.718A16.518,16.518,0,0,1,140.068,1096.734Z" transform="translate(-54.526 -1076.242)" fill="#fff"/><path d="M140.069,1096.729a16.318,16.318,0,0,0-1.782-4.872,17.9,17.9,0,0,0-17.865-8.712.917.917,0,0,1-.693-.169,33.838,33.838,0,0,0-11.413-5.5,35.406,35.406,0,0,0-13.679-.954,36.07,36.07,0,0,0-18.418,7.675,33.607,33.607,0,0,0-7.487,8.386c-.132.191-.236.381-.515.444a18.088,18.088,0,0,0-7.2,3.614,17.01,17.01,0,0,0-6.157,10.065,15.976,15.976,0,0,0-.065,6.139,16.2,16.2,0,0,0,2.292,5.683,16.618,16.618,0,0,0,7.945,6.572,25.2,25.2,0,0,0,2.751.875c.5.145,1.022.243,1.221.8a.956.956,0,0,0,.17.267.519.519,0,0,1,.071.6,15.814,15.814,0,0,0,1.423,14.823,20.7,20.7,0,0,0,7.821,6.913,32.26,32.26,0,0,0,6.417,2.616c.486.137.972.273,1.463.383a38.926,38.926,0,0,0,4.311.822,46.993,46.993,0,0,0,12.013.075c1.3-.151,2.607-.348,3.925-.6a53.23,53.23,0,0,0,7.3-1.951,46.011,46.011,0,0,0,8.287-3.8c.135-.076.26-.151.385-.235.571-.334,1.131-.694,1.689-1.063a33.39,33.39,0,0,0,5.6-4.623c.707-.74,1.376-1.512,2-2.3a23.9,23.9,0,0,0,1.725-2.446c.106-.181.212-.36.3-.538.413-.745.779-1.513,1.144-2.289a15.086,15.086,0,0,0,1.221-4.147,15.726,15.726,0,0,0-3.9-13.154,1.382,1.382,0,0,1-.388-1.527,1.124,1.124,0,0,1,.464-.679,17.112,17.112,0,0,0,7.774-12.447A15.384,15.384,0,0,0,140.069,1096.729Zm-83.094,14.045a15.1,15.1,0,0,1,9.914-14.909c-.167.364-.305.663-.436.953a32.924,32.924,0,0,0-1.844,5.351.7.7,0,0,1-.189.331,10.394,10.394,0,0,0-2.474,4.161,11.577,11.577,0,0,0-.388,4.285,9.386,9.386,0,0,0,2.717,5.666,2.812,2.812,0,0,1,.63,1.368,32.04,32.04,0,0,0,1.98,5.163.8.8,0,0,1,.072.18A14.335,14.335,0,0,1,56.975,1110.775Zm76.382,11.776a14.136,14.136,0,0,1-1.046,11.142,24.661,24.661,0,0,1-6.741,8.114,36.847,36.847,0,0,1-6.33,4.139q-1.722.911-3.532,1.653c-.545.234-1.1.451-1.659.66a51.785,51.785,0,0,1-8.572,2.321c-.454.082-.917.165-1.391.232-.868.134-1.756.242-2.655.317a44.673,44.673,0,0,1-12.1-.459c-.008,0-.027-.006-.035-.005q-.83-.154-1.637-.339a29.855,29.855,0,0,1-8.418-3.2,18.76,18.76,0,0,1-6.12-5.344,13.53,13.53,0,0,1-1.863-12.7q.078-.275.183-.552a12.346,12.346,0,0,1,.507-1.209.53.53,0,0,0-.064-.625c-.154-.2-.3-.4-.444-.6-.259-.356-.511-.722-.745-1.1a26.465,26.465,0,0,1-2.306-4.347,28.726,28.726,0,0,1-2.236-10.69,29.138,29.138,0,0,1,3.8-14.834,32.51,32.51,0,0,1,9.929-10.773,34.266,34.266,0,0,1,20.5-5.787,32.635,32.635,0,0,1,12.654,3.124,30.728,30.728,0,0,1,9.483,6.9,29.014,29.014,0,0,1,4.037,5.513,28.536,28.536,0,0,1,3.169,19.609c-.071.354-.149.718-.236,1.075l-.037.164c-.06.282-.147.558-.207.84a.642.642,0,0,0-.019.073c-.013.046-.017.091-.03.137a.3.3,0,0,0,.073.286A14.524,14.524,0,0,1,133.357,1122.551Zm-.791-11.613c.027-.688.105-1.31.087-1.931-.051-1.534-.138-3.074-.207-4.615a1.113,1.113,0,0,1,.079-.444,9.939,9.939,0,0,0-2.865-11.881,20.417,20.417,0,0,0-2.265-1.432,1.959,1.959,0,0,1-.368-.291,33.18,33.18,0,0,0-4.274-4.883c-.03-.033-.07-.073-.16-.171a15.5,15.5,0,0,1,5.422.894,14.615,14.615,0,0,1,8.169,6.841A14.312,14.312,0,0,1,132.565,1110.938Z" transform="translate(-54.526 -1076.242)" fill="#5e3bc3"/></g><g transform="translate(61.723 39.811)"><g transform="translate(0 13.71)"><path d="M133.161,1168.339a7.117,7.117,0,0,1-3.066-.688c-3.825-1.813-5.434-6.682-3.584-10.855a10.533,10.533,0,0,1,2.536-3.339q6.726-6.414,13.521-12.943c.682-.646,1.351-1.282,2.029-1.94a1.325,1.325,0,0,1,.926-.376,1.4,1.4,0,0,1,.27.027,1.325,1.325,0,0,1,.958.8c1.512,3.685,3.348,5.848,5.955,7.012a1.327,1.327,0,0,1,.481,2.061c-.428.516-.725.893-.963,1.226,0,0-7.118,8.8-7.936,9.813q-1.753,2.17-3.507,4.326a31.842,31.842,0,0,1-2.059,2.467A7.8,7.8,0,0,1,133.161,1168.339Z" transform="translate(-124.418 -1136.87)" fill="#fff"/><path d="M145.352,1139.354c1.4,3.411,3.333,6.244,6.641,7.722-.385.464-.727.89-1.021,1.3-1.807,2.227-3.621,4.48-5.428,6.707-2,2.46-3.972,4.924-5.963,7.364q-.945,1.256-2.005,2.405a6.489,6.489,0,0,1-4.588,1.984,5.81,5.81,0,0,1-2.5-.56c-3.186-1.509-4.5-5.591-2.938-9.115a9.167,9.167,0,0,1,2.2-2.876q6.791-6.476,13.567-12.986c.676-.641,1.352-1.282,2.035-1.947m0-2.656a2.655,2.655,0,0,0-1.852.752c-.675.657-1.343,1.291-2.01,1.924-4.49,4.313-9.039,8.667-13.533,12.954a11.746,11.746,0,0,0-2.788,3.667c-.015.031-.029.061-.043.092-2.14,4.826-.243,10.475,4.229,12.592a8.425,8.425,0,0,0,3.634.816,9.09,9.09,0,0,0,6.474-2.77c.022-.022.044-.045.066-.069.751-.814,1.471-1.677,2.143-2.567q1.738-2.131,3.468-4.28,1.231-1.524,2.467-3.05,1.361-1.677,2.724-3.366t2.7-3.342c.035-.043.069-.088.1-.134.269-.377.606-.791.9-1.146a2.656,2.656,0,0,0-.961-4.121c-2.272-1.015-3.9-2.959-5.268-6.3a2.654,2.654,0,0,0-1.917-1.593,2.6,2.6,0,0,0-.54-.056Z" transform="translate(-124.246 -1136.698)" fill="#5e3bc3"/></g><g transform="translate(18.582)"><path d="M156.844,1144.86a8.854,8.854,0,0,1-4.145-1.033,10.58,10.58,0,0,1-4.53-4.834,12.742,12.742,0,0,1-1.4-6.755,8.054,8.054,0,0,1,.122-1.049,19.749,19.749,0,0,1,.564-2.166,12.544,12.544,0,0,1,3.107-4.853,3.444,3.444,0,0,1,.591-.475,3.569,3.569,0,0,1,4.932,1.076,1.3,1.3,0,0,1,.2.575q1.089-.627,2.226-1.142a15.045,15.045,0,0,1,6.108-1.487l.1,0c.161,0,.335.011.537.026l.155.011a1.325,1.325,0,0,1,1.157.868l.012.03a1.5,1.5,0,0,1,.727-.189,1.547,1.547,0,0,1,.958.331,5.292,5.292,0,0,1,1.97,2.755,1.32,1.32,0,0,1,.056.317,1.84,1.84,0,0,1-.363,1.192,1.279,1.279,0,0,1-.152.172l-.152.143a1.346,1.346,0,0,1,.228.11,1.328,1.328,0,0,1,.627,1.342l-.125.829a14.023,14.023,0,0,1-1.367,3.917,26.775,26.775,0,0,1-5.485,7.392,9.664,9.664,0,0,1-3.6,2.356,8.817,8.817,0,0,1-3.056.545Z" transform="translate(-145.408 -1121.384)" fill="#fff"/><path d="M164.546,1123.868c.175,0,.366.018.607.034-.3.29-.557.508-.8.753-1.768,1.644-3.542,3.307-5.311,4.952a1,1,0,0,0-.315,1.111.86.86,0,0,0,.814.583.8.8,0,0,0,.112-.007,1.3,1.3,0,0,0,.563-.253c1.387-1.3,2.781-2.609,4.168-3.9.86-.819,1.716-1.617,2.578-2.436l.012-.014a.223.223,0,0,1,.314-.013,3.939,3.939,0,0,1,1.506,2.084.5.5,0,0,1-.1.329c-1.748,1.65-3.523,3.315-5.291,4.958-.39.369-.8.733-1.189,1.122-.018.017-.035.034-.052.053a.911.911,0,0,0,.071,1.286.922.922,0,0,0,1.275-.016c1.532-1.419,3.037-2.827,4.549-4.252a9.931,9.931,0,0,1,.939-.8c-.044.282-.081.546-.125.829a12.613,12.613,0,0,1-1.231,3.5,25.537,25.537,0,0,1-5.226,7.05,8.358,8.358,0,0,1-3.147,2.073,7.515,7.515,0,0,1-6.118-.415,9.314,9.314,0,0,1-3.948-4.223,11.477,11.477,0,0,1-1.283-6.1,6.841,6.841,0,0,1,.1-.9,17.906,17.906,0,0,1,.521-2,11.106,11.106,0,0,1,2.765-4.305,2.241,2.241,0,0,1,3.484.363c-.4.281-.824.554-1.207.84-.86.671-1.745,1.355-2.61,2.046a3.213,3.213,0,0,0-.494.443c-.174.223-.374.395-.542.6a.836.836,0,0,0-.134.722c.135.252.242.6.649.662a.984.984,0,0,0,.221.025,1,1,0,0,0,.709-.294c.266-.258.555-.508.844-.76.082-.061,2.628-2.042,2.9-2.234a24.152,24.152,0,0,1,3.756-2.122,13.864,13.864,0,0,1,5.6-1.371h.059m0-2.656-.127,0a16.418,16.418,0,0,0-6.658,1.62q-.56.255-1.111.535a4.9,4.9,0,0,0-6.393-.963,4.939,4.939,0,0,0-.814.655,13.839,13.839,0,0,0-3.406,5.315c-.008.021-.015.043-.022.065a20.735,20.735,0,0,0-.6,2.294l-.008.045a9.579,9.579,0,0,0-.143,1.221,14.127,14.127,0,0,0,1.554,7.437,11.889,11.889,0,0,0,5.048,5.372,10.169,10.169,0,0,0,8.317.581,11.1,11.1,0,0,0,4.105-2.684A28.121,28.121,0,0,0,170,1134.99a15.247,15.247,0,0,0,1.477-4.213c.006-.034.012-.066.017-.1l.059-.4.065-.428a2.651,2.651,0,0,0-.405-1.867,3.168,3.168,0,0,0,.232-1.373,2.663,2.663,0,0,0-.11-.622,6.636,6.636,0,0,0-2.443-3.432,2.868,2.868,0,0,0-1.756-.6c-.056,0-.112,0-.168,0a2.654,2.654,0,0,0-1.64-.713l-.15-.011c-.239-.017-.443-.029-.634-.029Z" transform="translate(-145.236 -1121.212)" fill="#5e3bc3"/></g></g><path d="M136.66,1177.089c-.135.335-.289.661-.452.981-.14.282-.291.546-.442.811-.174.294-.359.58-.553.849a58.046,58.046,0,0,1-52.82,3.365c-.055-.19-.1-.373-.146-.555l-.136-.546a34.84,34.84,0,0,1-1.037-6.2c-.3-4.606.738-8.762,4.557-11.78a42.605,42.605,0,0,1,3.774-2.683c.961-.614,1.935-1.177,2.931-1.707a43.716,43.716,0,0,1,9.879-3.808c.372-.1.745-.192,1.121-.266a45.66,45.66,0,0,1,5.792-.96,53.554,53.554,0,0,1,11.545.106c.531.061,1.072.13,1.605.209a2.114,2.114,0,0,1,.243.028,19.775,19.775,0,0,1,3,.68.568.568,0,0,1,.11.033,17.109,17.109,0,0,1,8.7,6.031,10.513,10.513,0,0,1,1.063,1.857C137.227,1167.526,137.971,1173.911,136.66,1177.089Z" transform="translate(-57.565 -1085.199)" fill="#5e3bc3"/><g transform="translate(13.85 16.222)"><path d="M132.531,1117.725a12.635,12.635,0,0,0-4.76-2.017,19.413,19.413,0,0,0-.965-10.539c-6.658-15.4-26.124-10.7-27.229,5.222-2.1-3.051-3.742-6.04-6.941-7.766-14.459-7.792-27.737,8.619-17.814,21.979-.411.747-2.079,5.608-2.445,6.385Z" transform="translate(-70.309 -1094.702)" fill="#fff"/><path d="M73.245,1131.26l-2.012-.81c.139-.3.583-1.512.974-2.584.546-1.5.949-2.589,1.226-3.26-3.875-5.594-5.165-14.271,1.027-20.678,3.8-3.933,10.683-6.615,18.6-2.347a16.359,16.359,0,0,1,5.692,5.7,15.782,15.782,0,0,1,12.513-12.5c5.469-.959,12.656,1.122,16.424,9.837a19.384,19.384,0,0,1,1.151,10.158,13.3,13.3,0,0,1,4.257,1.995l-1.413,1.637a11.584,11.584,0,0,0-4.3-1.811l-.982-.188.132-.946c.572-4.1.288-7.282-.893-10.013-3.282-7.59-9.4-9.427-14.027-8.616-5.1.9-10.517,5.408-11.077,13.465l-.22,3.168-1.81-2.626c-.319-.461-.626-.922-.93-1.377-1.694-2.534-3.157-4.722-5.645-6.063-6.791-3.661-12.646-1.411-15.861,1.914-5.536,5.729-4.13,13.626-.481,18.54l.38.511-.311.566c-.194.352-.9,2.289-1.369,3.571C73.755,1129.977,73.415,1130.9,73.245,1131.26Z" transform="translate(-70.17 -1094.567)" fill="#5e3bc3"/></g><g transform="translate(24.035 35.648)"><path d="M131.487,1127.33c.13.677-1.84,1.624-4.4,2.116s-4.74.342-4.87-.336,1.84-1.624,4.4-2.116S131.358,1126.654,131.487,1127.33Z" transform="translate(-86.324 -1117.679)" fill="#5e3bc3"/><path d="M91.077,1135.266c.063.685-1.988,1.438-4.586,1.678s-4.751-.119-4.815-.8,1.989-1.439,4.586-1.679S91.012,1134.58,91.077,1135.266Z" transform="translate(-81.674 -1118.56)" fill="#5e3bc3"/><path d="M123.321,1119.536c.4,1.913-.267,3.674-1.5,3.932s-2.553-1.084-2.955-3,.268-3.674,1.5-3.932S122.92,1117.624,123.321,1119.536Z" transform="translate(-85.927 -1116.509)" fill="#5e3bc3"/><path d="M104.808,1129.657a1.318,1.318,0,1,1-1.619-1.188A1.43,1.43,0,0,1,104.808,1129.657Z" transform="translate(-84.032 -1117.877)" fill="#5e3bc3"/><path d="M95.695,1139.135s11.346-6.326,22.681-4.409c0,0,2.007,14.251-9.115,16.174C109.261,1150.9,97.428,1152.812,95.695,1139.135Z" transform="translate(-83.283 -1118.557)" fill="#5e3bc3"/><path d="M110.776,1128.378a1.317,1.317,0,1,1-1.618-1.188A1.428,1.428,0,0,1,110.776,1128.378Z" transform="translate(-84.717 -1117.731)" fill="#5e3bc3"/><g transform="translate(3.854 6.367)"><path d="M86.618,1128.087l-.59-.171c.684-2.366,1.762-3.752,3.2-4.118,2.335-.594,4.692,1.751,4.791,1.849l-.436.434c-.02-.023-2.209-2.193-4.2-1.687C88.167,1124.7,87.238,1125.945,86.618,1128.087Z" transform="translate(-86.028 -1123.701)" fill="#5e3bc3" stroke="#5e3bc3" stroke-miterlimit="10" stroke-width="1"/></g></g><g transform="translate(18.487 53.072)"><g transform="translate(0 11.882)"><path d="M84.232,1177.984a7.162,7.162,0,0,1-4.471-1.532c-3.331-2.614-3.822-7.718-1.093-11.377a10.45,10.45,0,0,1,3.212-2.694c5.319-3.18,10.685-6.4,16.049-9.631.8-.477,1.6-.95,2.409-1.444a1.329,1.329,0,0,1,2,.914c.659,3.929,1.971,6.444,4.255,8.157a1.328,1.328,0,0,1,.013,2.116c-.409.313-.838.651-1.208.981-1.261.993-8.914,7.025-9.946,7.84q-2.173,1.716-4.344,3.418c-.787.668-1.659,1.334-2.553,1.949A8.021,8.021,0,0,1,84.232,1177.984Z" transform="translate(-75.579 -1149.784)" fill="#fff"/><path d="M100.858,1152.268c.609,3.635,1.87,6.826,4.769,9-.479.367-.906.707-1.285,1.045-2.255,1.772-4.522,3.568-6.777,5.34-2.492,1.957-4.963,3.922-7.445,5.861a31.113,31.113,0,0,1-2.488,1.9,6.661,6.661,0,0,1-3.572,1.068,5.88,5.88,0,0,1-3.652-1.248c-2.773-2.177-3.153-6.448-.848-9.539a9.173,9.173,0,0,1,2.778-2.319q8.055-4.814,16.1-9.662c.8-.475,1.6-.952,2.415-1.448m0-2.656a2.656,2.656,0,0,0-1.385.389c-.8.49-1.6.961-2.387,1.431-5.33,3.211-10.73,6.45-16.064,9.637a11.761,11.761,0,0,0-3.531,2.96c-.021.027-.042.053-.062.081-3.155,4.232-2.555,10.16,1.338,13.216a8.486,8.486,0,0,0,5.291,1.815,9.312,9.312,0,0,0,5-1.484l.079-.052c.913-.628,1.807-1.31,2.659-2.029q2.165-1.69,4.324-3.4,1.539-1.217,3.086-2.433,1.693-1.331,3.391-2.672t3.387-2.668c.044-.035.087-.071.128-.108.346-.309.767-.637,1.132-.918a2.655,2.655,0,0,0-.025-4.232c-1.99-1.493-3.145-3.748-3.742-7.314a2.653,2.653,0,0,0-2.619-2.217Z" transform="translate(-75.408 -1149.612)" fill="#5e3bc3"/></g><g transform="translate(23.667)"><path d="M113.171,1160.027a8.849,8.849,0,0,1-5.769-2.143,10.587,10.587,0,0,1-3.347-5.718,12.728,12.728,0,0,1,.126-6.9,8.088,8.088,0,0,1,.35-.993,19.626,19.626,0,0,1,1.031-1.992,12.542,12.542,0,0,1,4.1-4.045,3.57,3.57,0,0,1,5.254,1.808,1.327,1.327,0,0,1,.071.606q1.2-.37,2.421-.621a15.141,15.141,0,0,1,3.381-.382,15.342,15.342,0,0,1,2.907.281c.19.039.378.094.6.163l.161.048a1.33,1.33,0,0,1,.939,1.1l0,.027a1.562,1.562,0,0,1,1.612.519,5.3,5.3,0,0,1,1.311,3.124,1.313,1.313,0,0,1-.013.306,1.825,1.825,0,0,1-.628,1.1,1.329,1.329,0,0,1-.179.127l-.181.106a1.229,1.229,0,0,1,.2.157,1.326,1.326,0,0,1,.315,1.447l-.3.778a14.007,14.007,0,0,1-2.2,3.522,26.783,26.783,0,0,1-6.984,5.994,9.664,9.664,0,0,1-4.033,1.5,9.05,9.05,0,0,1-1.146.074Z" transform="translate(-102.313 -1136.363)" fill="#fff"/><path d="M111.388,1138.847a2.243,2.243,0,0,1,2.109,1.479c-.452.185-.926.358-1.362.552-.987.464-2,.936-3,1.417a3.234,3.234,0,0,0-.581.323c-.219.178-.451.3-.66.463a.838.838,0,0,0-.289.674c.076.277.1.642.486.79a1,1,0,0,0,.967-.056c.317-.193.654-.374.991-.555.094-.042,3.016-1.409,3.323-1.538a24.038,24.038,0,0,1,4.133-1.238,13.871,13.871,0,0,1,5.767-.1c.188.038.384.1.643.18-.356.218-.655.373-.946.557-2.088,1.213-4.186,2.442-6.274,3.655a1,1,0,0,0-.553,1.013.858.858,0,0,0,.775.767h.052a1.3,1.3,0,0,0,.553-.123c1.64-.956,3.289-1.929,4.928-2.884,1.021-.608,2.032-1.2,3.053-1.805l.015-.011a.224.224,0,0,1,.127-.04.22.22,0,0,1,.182.1,3.943,3.943,0,0,1,1.008,2.366.5.5,0,0,1-.171.3c-2.07,1.223-4.169,2.452-6.257,3.664-.461.274-.938.538-1.408.831-.021.012-.042.026-.062.04a.911.911,0,0,0-.216,1.27.922.922,0,0,0,1.246.267c1.808-1.046,3.587-2.084,5.376-3.14a9.953,9.953,0,0,1,1.092-.568c-.105.266-.2.515-.305.782a12.647,12.647,0,0,1-1.974,3.142,25.538,25.538,0,0,1-6.657,5.718,8.355,8.355,0,0,1-3.528,1.325,7.5,7.5,0,0,1-5.875-1.758,9.319,9.319,0,0,1-2.916-4.992,11.483,11.483,0,0,1,.1-6.237,6.649,6.649,0,0,1,.3-.854,17.892,17.892,0,0,1,.95-1.833,11.121,11.121,0,0,1,3.649-3.587,2.254,2.254,0,0,1,.444-.219,2.227,2.227,0,0,1,.764-.135m0-2.656a4.888,4.888,0,0,0-1.669.294,4.944,4.944,0,0,0-.939.459,13.843,13.843,0,0,0-4.5,4.429c-.012.019-.024.039-.035.058a20.766,20.766,0,0,0-1.092,2.1l-.018.042a9.423,9.423,0,0,0-.409,1.159,14.129,14.129,0,0,0-.131,7.6,11.9,11.9,0,0,0,3.734,6.356,10.156,10.156,0,0,0,7.983,2.406,11.089,11.089,0,0,0,4.6-1.71,28.133,28.133,0,0,0,7.278-6.26,15.294,15.294,0,0,0,2.372-3.782c.014-.032.027-.063.039-.095l.145-.371.158-.405a2.654,2.654,0,0,0,.018-1.911,3.162,3.162,0,0,0,.529-1.289,2.637,2.637,0,0,0,.031-.63,6.624,6.624,0,0,0-1.625-3.89,2.878,2.878,0,0,0-1.742-1,2.654,2.654,0,0,0-1.441-1.057l-.144-.044c-.227-.068-.461-.14-.737-.195a16.513,16.513,0,0,0-6.851.106q-.6.123-1.2.276a4.916,4.916,0,0,0-4.351-2.649Z" transform="translate(-102.141 -1136.191)" fill="#5e3bc3"/></g></g></g><path d="M174.644,1050.614c.382-.382.754-.749,1.121-1.121l7.052-7.052a.948.948,0,0,1,1.015-.266.937.937,0,0,1,.671.776.957.957,0,0,1-.289.871l-1.941,1.941-6.817,6.817a.992.992,0,0,1-1.4.13,1.075,1.075,0,0,1-.086-.081l-3.53-3.052a.982.982,0,0,1,1.216-1.543c.023.018.044.036.066.056.936.808,1.863,1.613,2.79,2.418A1.308,1.308,0,0,0,174.644,1050.614Z" transform="translate(-18.773 -0.868)" fill="#5e3bc3"/><path d="M19.517,1201.624c.382-.382.754-.749,1.121-1.121l7.052-7.052a.949.949,0,0,1,1.015-.266.936.936,0,0,1,.671.776.951.951,0,0,1-.289.871l-1.941,1.941-6.817,6.817a.99.99,0,0,1-1.394.13.832.832,0,0,1-.087-.081l-3.53-3.052a.983.983,0,1,1,1.217-1.543.8.8,0,0,1,.065.056c.936.808,1.863,1.613,2.79,2.418A1.194,1.194,0,0,0,19.517,1201.624Z" transform="translate(-0.979 -18.19)" fill="#5e3bc3"/><g transform="translate(7.879 1054.399)"><path d="M29.728,1062.291a.9.9,0,0,1-.833.9,7.066,7.066,0,0,0-1.474.32,3.413,3.413,0,0,0-2.114,2.915c0,.1-.032.224-.032.321a.867.867,0,0,1-.869.865h-.027a.833.833,0,0,1-.867-.8.96.96,0,0,1,0-.1,3.682,3.682,0,0,0-1.378-2.787,3.86,3.86,0,0,0-2.114-.768.867.867,0,0,1-.928-.8c0-.033,0-.066,0-.1,0-.513.32-.833.929-.865a3.589,3.589,0,0,0,3.492-3.524.851.851,0,0,1,.8-.9c.021,0,.042,0,.063,0a.807.807,0,0,1,.865.745.675.675,0,0,1,0,.12,3.583,3.583,0,0,0,2.656,3.4c.32.1.673.1.993.16A.983.983,0,0,1,29.728,1062.291Zm-5.35,1.217c.384-.384.865-.865,1.249-1.217-.384-.384-.833-.865-1.185-1.217-.416.384-.929.833-1.282,1.185C23.545,1062.675,23.994,1063.124,24.378,1063.508Z" transform="translate(-9.333 -1056.97)" fill="#5e3bc3"/><path d="M204.334,1164.817a.584.584,0,0,1-.539.581,4.575,4.575,0,0,0-.953.207,2.208,2.208,0,0,0-1.368,1.887c0,.062-.02.145-.02.207a.56.56,0,0,1-.562.56h-.019a.541.541,0,0,1-.559-.581,2.382,2.382,0,0,0-.892-1.8,2.5,2.5,0,0,0-1.368-.5.56.56,0,0,1-.6-.518c0-.021,0-.042,0-.063,0-.332.207-.539.6-.56a2.323,2.323,0,0,0,2.259-2.281.55.55,0,0,1,.518-.58h.042a.522.522,0,0,1,.56.483.368.368,0,0,1,0,.077,2.318,2.318,0,0,0,1.721,2.2c.207.062.436.062.643.1A.637.637,0,0,1,204.334,1164.817Zm-3.462.788c.249-.249.56-.56.808-.788-.249-.249-.539-.56-.767-.788-.266.249-.6.539-.83.767C200.334,1165.066,200.624,1165.36,200.873,1165.6Z" transform="translate(-29.793 -1068.946)" fill="#5e3bc3"/><path d="M205.848,1143.178H208.7v2.883h-2.852Z" transform="translate(-30.756 -1066.859)" fill="#5e3bc3"/><path d="M8.069,1122.855v-2.883h2.883v2.883Z" transform="translate(-8.069 -1064.197)" fill="#5e3bc3"/><path d="M44.274,1195.012H41.391v-2.883h2.883Z" transform="translate(-11.891 -1072.474)" fill="#5e3bc3"/></g></g></svg>