<svg xmlns="http://www.w3.org/2000/svg" width="32.93" height="32.93" viewBox="0 0 32.93 32.93">
  <g id="ic_share_whatsapp" transform="translate(-1280.973 -883.07)">
    <circle id="Ellipse_223" data-name="Ellipse 223" cx="16.465" cy="16.465" r="16.465" transform="translate(1280.973 883.07)" fill="#08c776"/>
    <g id="Group_2204" data-name="Group 2204" transform="translate(1289.26 890.669)">
      <path id="Path_3220" data-name="Path 3220" d="M740.472,715.581a8.09,8.09,0,0,1,3.713.913,8.229,8.229,0,0,1,3,2.683,7.494,7.494,0,0,1,1.263,3.255,7.715,7.715,0,0,1-1.07,5.293,7.864,7.864,0,0,1-2.1,2.292,8.248,8.248,0,0,1-3.7,1.508,8.492,8.492,0,0,1-2.524-.032,7.916,7.916,0,0,1-2.117-.659c-.226-.106-.449-.221-.667-.343a.3.3,0,0,0-.272-.026c-.908.315-1.817.624-2.726.937a.452.452,0,0,1-.4,0,.364.364,0,0,1-.146-.469c.272-.911.543-1.823.823-2.731a.413.413,0,0,0-.046-.383,8.683,8.683,0,0,1-.781-1.63,7.423,7.423,0,0,1-.111-4.92,7.767,7.767,0,0,1,2.073-3.378,8.161,8.161,0,0,1,2.044-1.452A8.062,8.062,0,0,1,740.472,715.581ZM733.611,730.5c.073-.022.116-.034.159-.048.731-.25,1.462-.5,2.192-.751a.527.527,0,0,1,.5.05c.162.105.338.19.51.28a7.493,7.493,0,0,0,8.319-.958,7.454,7.454,0,0,0,2.04-2.894,6.119,6.119,0,0,0,.436-1.8,7.021,7.021,0,0,0-.546-3.609,7.293,7.293,0,0,0-2.1-2.792,7.389,7.389,0,0,0-2.123-1.212,7.432,7.432,0,0,0-8.325,2.208,5.947,5.947,0,0,0-.9,1.388,7.279,7.279,0,0,0,.5,7.3.5.5,0,0,1,.062.466c-.051.15-.094.3-.14.454Z" transform="translate(-732.246 -715.578)" fill="#fff"/>
      <path id="Path_3221" data-name="Path 3221" d="M771.1,754.075a6.352,6.352,0,0,0,2.576,2.548l.549-.541a.394.394,0,0,1,.587-.067c.451.273.9.551,1.347.826l1.268.779a.362.362,0,0,1,.159.442,2.953,2.953,0,0,1-1.748,1.856,3.108,3.108,0,0,1-1.668.041,7.434,7.434,0,0,1-2.867-1.447,12.383,12.383,0,0,1-2.175-2.2,7.446,7.446,0,0,1-1.267-2.279,3.422,3.422,0,0,1-.155-2.007,2.3,2.3,0,0,1,1.381-1.583c.155-.067.312-.13.471-.186a.373.373,0,0,1,.529.187c.307.5.61,1.007.921,1.507.223.36.456.713.682,1.07a.368.368,0,0,1-.06.523C771.456,753.723,771.281,753.895,771.1,754.075Zm5.67,4-2.17-1.327-.558.553a.368.368,0,0,1-.433.1,6.357,6.357,0,0,1-.58-.277,7.181,7.181,0,0,1-2.086-1.94,10.277,10.277,0,0,1-.6-.929.383.383,0,0,1,.073-.561c.161-.164.321-.329.487-.5l-1.321-2.175a1.754,1.754,0,0,0-1.145,1.093,2.184,2.184,0,0,0-.049,1.078,5.22,5.22,0,0,0,.709,1.763,10.611,10.611,0,0,0,2.162,2.57,8.172,8.172,0,0,0,2.559,1.577,3.058,3.058,0,0,0,1.491.193A1.886,1.886,0,0,0,776.769,758.074Z" transform="translate(-764.448 -747.117)" fill="#fff"/>
    </g>
  </g>
</svg>
