<svg xmlns="http://www.w3.org/2000/svg" width="24.547" height="17.159" viewBox="0 0 24.547 17.159"><g transform="translate(-1243.443 -893.329)"><path d="M1003.394,592q-5.209,0-10.417,0a1.677,1.677,0,0,1-1.165-.349,1.973,1.973,0,0,1-.672-1.582c.007-1.489,0-2.979,0-4.468q0-4.386,0-8.771a2.053,2.053,0,0,1,.344-1.245,1.775,1.775,0,0,1,1.532-.745q5.1.012,10.206,0,5.3,0,10.6,0a1.694,1.694,0,0,1,1.491.724,3.463,3.463,0,0,1,.347.882,1.157,1.157,0,0,1,.016.351q0,6.643.005,13.286a2.054,2.054,0,0,1-.608,1.519,1.419,1.419,0,0,1-.891.381,3.817,3.817,0,0,1-.4.014Zm10.25-15.925H993.207c.206.218.4.44.614.645.578.557,1.163,1.106,1.746,1.659l1.731,1.642c.583.552,1.164,1.107,1.75,1.657.49.46.986.913,1.477,1.372q.471.439.935.885c.479.457.95.923,1.438,1.37a.84.84,0,0,0,1.041-.009c.222-.2.428-.409.641-.613q.82-.783,1.642-1.565.9-.854,1.8-1.7c.56-.531,1.118-1.065,1.678-1.6q.961-.909,1.925-1.813c.462-.432.93-.858,1.39-1.293C1013.23,576.505,1013.43,576.29,1013.644,576.072Zm-20.471,14.685.034.059h20.448c-.11-.128-.192-.239-.29-.334q-.866-.837-1.737-1.668-.853-.817-1.706-1.635-1.041-.994-2.085-1.985c-.343-.327-.684-.656-1.034-.993-.113.1-.21.178-.3.263-.585.55-1.167,1.1-1.752,1.653a1.7,1.7,0,0,1-1.988.455,5.392,5.392,0,0,1-1.177-.908c-.527-.471-1.026-.974-1.591-1.515-.245.27-.459.53-.7.764-.6.59-1.215,1.166-1.823,1.75-.54.518-1.077,1.039-1.618,1.556q-1.033.986-2.071,1.967C993.582,590.376,993.377,590.566,993.173,590.757Zm-.9-.718c.089-.075.156-.125.215-.184.349-.344.692-.694,1.044-1.036q.847-.824,1.7-1.64.946-.907,1.9-1.809c.448-.425.9-.841,1.348-1.268.24-.229.465-.474.7-.717-.392-.382-.785-.77-1.183-1.152q-.853-.817-1.712-1.628c-.664-.627-1.331-1.25-1.994-1.878-.492-.466-.978-.939-1.469-1.405-.168-.159-.346-.307-.549-.486Zm22.275-.014V576.818c-.258.257-.467.473-.685.681-.609.581-1.223,1.157-1.834,1.737-.542.515-1.08,1.036-1.625,1.549q-1.142,1.076-2.291,2.145c-.162.152-.323.305-.434.41.275.3.515.592.78.856.519.517,1.051,1.021,1.58,1.528q.963.923,1.93,1.843c.442.419.889.834,1.333,1.251.039.037.065.087.1.124C1013.772,589.3,1014.144,589.646,1014.544,590.025Z" transform="translate(252.305 318.49)" fill="#8621d0"/></g></svg>