<svg xmlns="http://www.w3.org/2000/svg" width="16.227" height="16.335" viewBox="0 0 16.227 16.335">
  <path id="refresh" d="M-1605.933,1050.337h-.112c-.347,0-.693,0-1.039,0a.373.373,0,0,1-.4-.49.36.36,0,0,1,.312-.25.741.741,0,0,1,.118,0h2.133c.3,0,.451.141.452.433,0,.693,0,1.386,0,2.08a.4.4,0,0,1-.2.389.377.377,0,0,1-.563-.337c-.007-.4,0-.794,0-1.191v-.124c-.029.011-.052.017-.073.027a5.193,5.193,0,0,0-2.3,2.138,4.7,4.7,0,0,0-.648,2.524,5.042,5.042,0,0,0,3.062,4.618,5.068,5.068,0,0,0,2.741.459,5.243,5.243,0,0,0,4.647-4.072,4.924,4.924,0,0,0-.873-4.04,5.108,5.108,0,0,0-2.381-1.811c-.057-.021-.113-.042-.169-.066a.358.358,0,0,1-.218-.486.361.361,0,0,1,.487-.2c.239.091.479.185.707.3a5.96,5.96,0,0,1,2.153,1.781,5.6,5.6,0,0,1,1.05,2.366,5.627,5.627,0,0,1-1.056,4.573,5.856,5.856,0,0,1-3.771,2.307,6.115,6.115,0,0,1-3.678-.455,5.988,5.988,0,0,1-2.166-1.686,5.525,5.525,0,0,1-1.2-2.635,5.638,5.638,0,0,1,1.157-4.578,5.785,5.785,0,0,1,1.726-1.481c.034-.019.067-.039.1-.059Z" transform="translate(120.698 1924.118) rotate(120)" fill="#fff"/>
</svg>
