<svg xmlns="http://www.w3.org/2000/svg" width="14.697" height="11.677" viewBox="0 0 14.697 11.677"><path d="M-166.608-279.6c.125.009.193.018.262.018h10.691c.662,0,1.036.356.983.924a.767.767,0,0,1-.636.694,2.858,2.858,0,0,1-.5.044q-5.25,0-10.5,0c-.076,0-.152.007-.287.015.085.1.133.168.188.228.972,1.074,1.951,2.143,2.912,3.228a1.416,1.416,0,0,1,.322.629.775.775,0,0,1-.466.844.96.96,0,0,1-.971-.2c-.43-.461-.849-.931-1.271-1.4l-3.154-3.487a.894.894,0,0,1,0-1.389q2.171-2.4,4.344-4.8a.854.854,0,0,1,1.044-.262.8.8,0,0,1,.463.932,1,1,0,0,1-.242.442c-.992,1.11-1.993,2.211-2.992,3.315C-166.467-279.771-166.516-279.712-166.608-279.6Z" transform="translate(169.364 284.6)" fill="#707070"/></svg>