<svg xmlns="http://www.w3.org/2000/svg" width="20.469" height="21.552" viewBox="0 0 20.469 21.552"><g transform="translate(0)"><path d="M2.814,4.53H1.83A11.549,11.549,0,0,1,.572,4.507a.585.585,0,0,1-.389-.984A.692.692,0,0,1,.8,3.317H6.68V1.9A1.8,1.8,0,0,1,7.756.183,2.669,2.669,0,0,1,8.6,0h3.317a1.838,1.838,0,0,1,1.922,1.922V3.294h5.88a1.074,1.074,0,0,1,.595.183.509.509,0,0,1,.137.618A.51.51,0,0,1,20,4.484a5.575,5.575,0,0,1-.618.023h-1.67V18.371a3.054,3.054,0,0,1-2.356,3.066,3.554,3.554,0,0,1-.846.092c-2.814,0-5.628-.046-8.419.023a3.19,3.19,0,0,1-3.294-3.317c.046-4.438.023-8.877.023-13.338C2.814,4.782,2.814,4.667,2.814,4.53Zm1.213,0V18.28A1.9,1.9,0,0,0,4.1,18.9a1.823,1.823,0,0,0,1.9,1.418h8.488A1.874,1.874,0,0,0,16.5,18.3c0-4.507.023-9.014.023-13.5V4.53Zm8.579-1.235V1.99c0-.549-.229-.778-.755-.778h-3.2c-.092,0-.206-.023-.275.023-.16.114-.412.252-.412.389-.046.549-.023,1.1-.023,1.647C9.494,3.294,11.05,3.294,12.606,3.294Z" transform="translate(-0.029 0)" fill="#fff"/><path d="M32,36.306v-4.53a.6.6,0,0,1,.366-.595.6.6,0,0,1,.641.069.675.675,0,0,1,.252.572V40.79a.612.612,0,0,1-.8.663.638.638,0,0,1-.435-.663C32,39.3,32,37.816,32,36.306Z" transform="translate(-24.686 -23.998)" fill="#fff"/><path d="M53.335,36.314v4.438a.844.844,0,0,1-.16.526.525.525,0,0,1-.641.183.644.644,0,0,1-.435-.526V31.784a.583.583,0,0,1,.412-.618.566.566,0,0,1,.663.183,1.063,1.063,0,0,1,.137.526C53.335,33.362,53.335,34.826,53.335,36.314Z" transform="translate(-40.187 -24.005)" fill="#fff"/></g></svg>
