<svg xmlns="http://www.w3.org/2000/svg" viewBox="0 0 201 186.49"><defs><style>.a,.d{fill:#fff;}.a{stroke:#b0b0b0;stroke-width:2px;stroke-dasharray:0 10;}.b,.c,.e{fill:#563dbf;}.b{opacity:0.047;}.c{opacity:0.042;}.f,.h{stroke:none;}.g{fill:none;}.h{fill:#707070;}</style></defs><g transform="translate(-785 -335.458)"><g class="a" transform="translate(793.564 335.458)"><ellipse class="f" cx="93.245" cy="93.245" rx="93.245" ry="93.245"/><ellipse class="g" cx="93.245" cy="93.245" rx="92.245" ry="92.245"/></g><circle class="b" cx="85.465" cy="85.465" r="85.465" transform="translate(801.694 344.244)"/><g class="c" transform="translate(820.794 362.604)"><path class="f" d="M 65.48580932617188 130.4716186523438 C 56.71255874633789 130.4716186523438 48.20201110839844 128.7534790039062 40.19055938720703 125.3649291992188 C 36.33999252319336 123.7362747192383 32.62607574462891 121.7204284667969 29.15197563171387 119.3733596801758 C 25.71076011657715 117.0485229492188 22.47477531433105 114.3785934448242 19.53390884399414 111.4377288818359 C 16.59304237365723 108.4968566894531 13.92310905456543 105.2608795166016 11.59825897216797 101.8196411132812 C 9.251209259033203 98.34555816650391 7.235359191894531 94.63164520263672 5.606709480285645 90.78107452392578 C 2.218159437179565 82.76960754394531 0.500009298324585 74.25905609130859 0.500009298324585 65.48580932617188 C 0.500009298324585 56.78204345703125 2.227576017379761 48.24922561645508 5.634742736816406 40.12437438964844 C 8.04340934753418 34.37909317016602 11.29144287109375 29.00744247436523 15.28864288330078 24.15862655639648 C 19.25949287414551 19.34175872802734 23.90017509460449 15.1242094039917 29.0817756652832 11.62317562103271 C 39.85160827636719 4.34634256362915 52.43992614746094 0.500009298324585 65.48580932617188 0.500009298324585 C 74.25905609130859 0.500009298324585 82.76960754394531 2.218159437179565 90.78107452392578 5.606709480285645 C 94.63164520263672 7.235359191894531 98.34555816650391 9.251209259033203 101.8196411132812 11.59825897216797 C 105.2608795166016 13.92310905456543 108.4968566894531 16.59304237365723 111.4377288818359 19.53390884399414 C 114.3785934448242 22.47477531433105 117.0485229492188 25.71076011657715 119.3733596801758 29.15197563171387 C 121.7204284667969 32.62607574462891 123.7362747192383 36.33999252319336 125.3649291992188 40.19055938720703 C 128.7534790039062 48.20201110839844 130.4716186523438 56.71255874633789 130.4716186523438 65.48580932617188 C 130.4716186523438 74.25905609130859 128.7534790039062 82.76960754394531 125.3649291992188 90.78107452392578 C 123.7362747192383 94.63164520263672 121.7204284667969 98.34555816650391 119.3733596801758 101.8196411132812 C 117.0485229492188 105.2608795166016 114.3785934448242 108.4968566894531 111.4377288818359 111.4377288818359 C 108.4968566894531 114.3785934448242 105.2608795166016 117.0485229492188 101.8196411132812 119.3733596801758 C 98.34555816650391 121.7204284667969 94.63164520263672 123.7362747192383 90.78107452392578 125.3649291992188 C 82.76960754394531 128.7534790039062 74.25905609130859 130.4716186523438 65.48580932617188 130.4716186523438 Z"/><path class="h" d="M 65.48580932617188 0.9999847412109375 C 52.54006195068359 0.9999847412109375 40.04855346679688 4.816680908203125 29.36170196533203 12.03746032714844 C 24.2198486328125 15.51164245605469 19.61479187011719 19.69680786132812 15.67444610595703 24.47666168212891 C 11.70833587646484 29.28778839111328 8.485626220703125 34.61746215820312 6.0958251953125 40.31773376464844 C 2.7144775390625 48.38102722167969 0.9999847412109375 56.84880828857422 0.9999847412109375 65.48580932617188 C 0.9999847412109375 74.1917724609375 2.704849243164062 82.63681030273438 6.067192077636719 90.58628082275391 C 7.683265686035156 94.40711975097656 9.68359375 98.09239196777344 12.01255798339844 101.5397338867188 C 14.31958770751953 104.95458984375 16.96908569335938 108.1657867431641 19.88744354248047 111.0841522216797 C 22.80580902099609 114.0025177001953 26.01702880859375 116.6520080566406 29.43186187744141 118.9590454101562 C 32.87921142578125 121.2880249023438 36.56449890136719 123.2883377075195 40.38531494140625 124.904411315918 C 48.33480834960938 128.2667541503906 56.77984619140625 129.9716033935547 65.48580932617188 129.9716033935547 C 74.1917724609375 129.9716033935547 82.63681030273438 128.2667541503906 90.58628082275391 124.904411315918 C 94.40711975097656 123.2883377075195 98.09239196777344 121.2880249023438 101.5397338867188 118.9590454101562 C 104.95458984375 116.6520080566406 108.1657867431641 114.0025177001953 111.0841522216797 111.0841522216797 C 114.0025177001953 108.1657867431641 116.6520080566406 104.95458984375 118.9590454101562 101.5397338867188 C 121.2880249023438 98.09239196777344 123.2883377075195 94.40711975097656 124.904411315918 90.58628082275391 C 128.2667541503906 82.63681030273438 129.9716033935547 74.1917724609375 129.9716033935547 65.48580932617188 C 129.9716033935547 56.77984619140625 128.2667541503906 48.33480834960938 124.904411315918 40.38531494140625 C 123.2883377075195 36.56449890136719 121.2880249023438 32.87921142578125 118.9590454101562 29.43186187744141 C 116.6520080566406 26.01702880859375 114.0025177001953 22.80580902099609 111.0841522216797 19.88744354248047 C 108.1657867431641 16.96908569335938 104.95458984375 14.31958770751953 101.5397338867188 12.01255798339844 C 98.09239196777344 9.68359375 94.40711975097656 7.683265686035156 90.58628082275391 6.067192077636719 C 82.63681030273438 2.704849243164062 74.1917724609375 0.9999847412109375 65.48580932617188 0.9999847412109375 M 65.48580932617188 -1.52587890625e-05 C 101.6526260375977 -1.52587890625e-05 130.9716033935547 29.31899261474609 130.9716033935547 65.48580932617188 C 130.9716033935547 101.6526260375977 101.6526260375977 130.9716033935547 65.48580932617188 130.9716033935547 C 29.31899261474609 130.9716033935547 -1.52587890625e-05 101.6526260375977 -1.52587890625e-05 65.48580932617188 C -1.52587890625e-05 56.51642608642578 1.80322265625 47.96820831298828 5.173629760742188 39.93100738525391 C 14.96340942382812 16.57999420166016 38.28837585449219 -1.52587890625e-05 65.48580932617188 -1.52587890625e-05 Z"/></g><g transform="translate(785 344.425)"><path class="d" d="M847.066,405.538l66.943-.07-6.555,38.246H854.895Z" transform="translate(-785 -344.425)"/><path class="e" d="M201.39,0c1.013-.036,1.665.688,1.737,1.882a6.6,6.6,0,0,0,5.03,6.224,14.939,14.939,0,0,0,1.773.253,1.622,1.622,0,0,1,1.556,1.592,1.566,1.566,0,0,1-1.52,1.7,7.312,7.312,0,0,0-5.139,2.316,6.584,6.584,0,0,0-1.7,4.162c-.072,1.23-.688,1.954-1.665,1.954-.941,0-1.592-.688-1.737-1.846-.4-4.017-2.569-6.188-6.586-6.586-1.447-.145-2.28-1.447-1.484-2.5a2.338,2.338,0,0,1,1.592-.8A6.913,6.913,0,0,0,198.531,5.5a6.5,6.5,0,0,0,1.23-3.619C199.8.685,200.413.034,201.39,0Zm2.316,10.024c-.724-.724-1.592-1.628-2.244-2.28-.724.724-1.592,1.592-2.316,2.28l2.244,2.244C202.114,11.578,202.982,10.709,203.706,10.022Z" transform="translate(-24.576 0.004)"/><path class="e" d="M54.614,50.807a1.019,1.019,0,0,1-.941,1.013,7.984,7.984,0,0,0-1.665.362,3.853,3.853,0,0,0-2.388,3.293c0,.109-.036.253-.036.362a.98.98,0,0,1-1.013.977.94.94,0,0,1-.977-1.013,4.163,4.163,0,0,0-1.556-3.148,4.367,4.367,0,0,0-2.388-.868A.978.978,0,0,1,42.6,50.771c0-.579.362-.941,1.049-.977a4.055,4.055,0,0,0,3.944-3.981.96.96,0,0,1,.977-1.013.912.912,0,0,1,.977.977,4.045,4.045,0,0,0,3,3.836c.362.109.76.109,1.122.181A1.112,1.112,0,0,1,54.614,50.807Zm-6.043,1.375c.434-.434.977-.977,1.411-1.375-.434-.434-.941-.977-1.339-1.375-.47.434-1.049.941-1.448,1.339C47.63,51.241,48.137,51.748,48.571,52.182Z" transform="translate(-31.577 -30.344)"/><path class="e" d="M50.374,48.687a.66.66,0,0,1-.609.656,5.166,5.166,0,0,0-1.077.234,2.493,2.493,0,0,0-1.545,2.131c0,.07-.023.164-.023.234a.634.634,0,0,1-.656.632.608.608,0,0,1-.632-.656,2.694,2.694,0,0,0-1.007-2.037,2.825,2.825,0,0,0-1.545-.562.633.633,0,0,1-.679-.656c0-.375.234-.609.679-.632a2.624,2.624,0,0,0,2.552-2.576.621.621,0,0,1,.632-.656.59.59,0,0,1,.632.632,2.617,2.617,0,0,0,1.944,2.482c.234.07.492.07.726.117A.72.72,0,0,1,50.374,48.687Zm-3.91.89c.281-.281.632-.632.913-.89-.281-.281-.609-.632-.866-.89-.3.281-.679.609-.937.866C45.855,48.968,46.183,49.3,46.464,49.577Z" transform="translate(146.783 74.059)"/><path class="e" d="M308.6,125.2h3.221v3.257H308.6Z" transform="translate(-110.821 -24.539)"/><path class="e" d="M0,66.757V63.5H3.257v3.257Z" transform="translate(0 13.955)"/><path class="e" d="M78.757,26.457H75.5V23.2h3.257Z" transform="translate(-48.178 128.412)"/></g><g transform="translate(844.074 392.054)"><path class="e" d="M127.349,120.185h-1.6c.319-1.383.638-2.695.957-4.148H78.987c-3.829,0-6.028-1.915-6.7-5.673-.355-1.95-.78-3.865-1.206-5.815-1.631-7.907-3.262-15.849-4.857-23.756a5.879,5.879,0,0,1,5.106-6.737c.567-.035,1.135-.035,1.666-.035h62.828c.248-1.17.532-2.3.78-3.475.39-1.773.709-3.546,1.17-5.283.532-2.127,1.17-2.8,3.4-2.766,2.553.071,5.07,0,7.623,0a2.384,2.384,0,1,1,0,4.751c-1.844,0-3.723.035-5.567,0-.674,0-.957.177-1.1.886q-5.159,23.561-10.389,47.156c-.532,2.376-.957,4.787-1.525,7.2-.355,1.525-.886,2.482-3.049,2.482q-23.561-.053-47.156-.035c-.355,0-.709,0-1.064-.035a2.3,2.3,0,0,1-2.2-2.588A2.213,2.213,0,0,1,79.2,120.22h48.149C127.349,120.255,127.349,120.22,127.349,120.185ZM111.216,91.217H94.056v7.765h17.161C111.216,96.323,111.216,93.77,111.216,91.217Zm4.822-4.964h17.2c.567-2.517,1.1-4.964,1.666-7.481H116.038ZM89.269,78.772c-.248,0-.39-.035-.532-.035H72.711a2.683,2.683,0,0,0-.532.035,1.188,1.188,0,0,0-1.064,1.6c.355,1.737.78,3.475,1.1,5.212.106.638.355.78.993.78,5.106-.035,10.211,0,15.317,0,.248,0,.5-.035.78-.035C89.269,83.736,89.269,81.289,89.269,78.772Zm21.947,0H94.056v7.481h17.161C111.216,83.736,111.216,81.289,111.216,78.772ZM94.056,103.839v7.339h17.161v-7.339Zm21.983-4.928c.106.035.142.106.213.106,4.574,0,9.148.035,13.721,0a.851.851,0,0,0,.6-.638c.425-1.666.745-3.333,1.135-5,.177-.745.319-1.454.5-2.2H116.038ZM73.314,91.182c.532,2.659,1.064,5.247,1.6,7.8h14.36v-7.8Zm15.955,12.658h-13.4c.425,2.021.815,4.007,1.205,5.957.213,1.1.532,1.418,1.666,1.418h10.1a1.779,1.779,0,0,0,.425-.071C89.269,108.7,89.269,106.286,89.269,103.839Zm26.769,7.375h11.31a.565.565,0,0,0,.425-.319q.8-3.457,1.6-7.02H116C116.038,106.286,116.038,108.7,116.038,111.214Z" transform="translate(-66.125 -62.496)"/><path class="e" d="M229.079,250.857a4.94,4.94,0,1,1-4.922-4.958A4.989,4.989,0,0,1,229.079,250.857Z" transform="translate(-165.563 -179.062)"/><path class="e" d="M110.558,255.678a4.94,4.94,0,1,1,4.921-4.958A4.934,4.934,0,0,1,110.558,255.678Z" transform="translate(-93.072 -178.998)"/></g></g></svg>