<svg xmlns="http://www.w3.org/2000/svg" viewBox="0 0 20.146 10.684">
  <defs>
    <style>
      .cls-1 {
        fill: #d6d6d6;
        stroke: #d6d6d6;
        stroke-width: 0.5px;
      }
    </style>
  </defs>
  <g id="ic_detalle_eye" transform="translate(0.332 0.25)">
    <path id="Path_2006" data-name="Path 2006" class="cls-1" d="M22.261,39.184c-5.226,0-9.4-4.678-9.551-4.869l-.21-.223.18-.223C12.86,33.678,17.035,29,22.261,29s9.4,4.678,9.551,4.869l.18.223-.18.223C31.661,34.506,27.487,39.184,22.261,39.184Zm-8.92-5.092c.9.923,4.565,4.456,8.92,4.456s8.019-3.533,8.92-4.456c-.9-.923-4.565-4.456-8.92-4.456S14.242,33.169,13.341,34.092Z" transform="translate(-12.5 -29)"/>
    <path id="Path_2007" data-name="Path 2007" class="cls-1" d="M34.015,39.293a5.005,5.005,0,1,1,4.715-5A4.87,4.87,0,0,1,34.015,39.293Zm0-9.357A4.367,4.367,0,1,0,38.13,34.3,4.249,4.249,0,0,0,34.015,29.937Z" transform="translate(-24.254 -29.205)"/>
    <path id="Path_2008" data-name="Path 2008" class="cls-1" d="M40.382,42.6a2.1,2.1,0,1,1,1.982-2.1A2.042,2.042,0,0,1,40.382,42.6Zm0-3.564A1.42,1.42,0,0,0,39,40.5a1.384,1.384,0,1,0,2.763,0A1.42,1.42,0,0,0,40.382,39.037Z" transform="translate(-30.621 -35.408)"/>
  </g>
</svg>
