<svg xmlns="http://www.w3.org/2000/svg" viewBox="0 0 201 186.4">
  <defs>
    <style>
      .cls-1 {
        fill: #fff;
      }

      .cls-2 {
        fill: none;
        stroke: #b0b0b0;
        stroke-width: 2px;
        stroke-dasharray: 0 10;
      }

      .cls-3, .cls-5, .cls-7, .cls-8 {
        fill: #563dbf;
      }

      .cls-3 {
        opacity: 0.047;
      }

      .cls-4 {
        opacity: 0.042;
      }

      .cls-6 {
        fill: #707070;
      }

      .cls-7 {
        opacity: 0.31;
      }

      .cls-8 {
        stroke: #563dbf;
        stroke-miterlimit: 10;
      }
    </style>
  </defs>
  <g id="Group_2075" data-name="Group 2075" transform="translate(0 -0.021)">
    <g id="Group_2063" data-name="Group 2063" transform="translate(5 -24.237)">
      <g id="Group_2060" data-name="Group 2060" transform="translate(793.564 335.458)">
        <circle id="Ellipse_122" data-name="Ellipse 122" class="cls-1" cx="93.2" cy="93.2" r="93.2" transform="translate(-790 -311.2)"/>
        <circle id="Ellipse_123" data-name="Ellipse 123" class="cls-2" cx="92.2" cy="92.2" r="92.2" transform="translate(-789 -310.2)"/>
      </g>
      <circle id="Ellipse_124" data-name="Ellipse 124" class="cls-3" cx="85.5" cy="85.5" r="85.5" transform="translate(11.7 33)"/>
      <g id="Group_2061" data-name="Group 2061" class="cls-4" transform="translate(820.794 362.604)">
        <path id="Path_2236" data-name="Path 2236" class="cls-5" d="M-724.5-180.7a64.255,64.255,0,0,1-25.3-5.1,55.747,55.747,0,0,1-11-6,66.114,66.114,0,0,1-9.6-7.9,66.118,66.118,0,0,1-7.9-9.6,69.164,69.164,0,0,1-6-11,64.254,64.254,0,0,1-5.1-25.3,65.832,65.832,0,0,1,5.1-25.4,65.784,65.784,0,0,1,9.7-16,65.655,65.655,0,0,1,13.8-12.5,64.744,64.744,0,0,1,36.4-11.1,64.255,64.255,0,0,1,25.3,5.1,55.747,55.747,0,0,1,11,6,66.113,66.113,0,0,1,9.6,7.9,66.122,66.122,0,0,1,7.9,9.6,69.165,69.165,0,0,1,6,11,64.254,64.254,0,0,1,5.1,25.3,64.255,64.255,0,0,1-5.1,25.3,55.744,55.744,0,0,1-6,11,66.115,66.115,0,0,1-7.9,9.6,66.118,66.118,0,0,1-9.6,7.9,69.166,69.166,0,0,1-11,6A65.2,65.2,0,0,1-724.5-180.7Z"/>
        <path id="Path_2237" data-name="Path 2237" class="cls-6" d="M-724.5-310.2a64.469,64.469,0,0,0-36.1,11,70.225,70.225,0,0,0-13.7,12.4,62.441,62.441,0,0,0-9.6,15.8,64.489,64.489,0,0,0-5.1,25.2,63.29,63.29,0,0,0,5.1,25.1,68.593,68.593,0,0,0,5.9,11,65.3,65.3,0,0,0,7.9,9.5,65.3,65.3,0,0,0,9.5,7.9,61.029,61.029,0,0,0,11,5.9,63.29,63.29,0,0,0,25.1,5.1,63.289,63.289,0,0,0,25.1-5.1,68.6,68.6,0,0,0,11-5.9,65.3,65.3,0,0,0,9.5-7.9,65.3,65.3,0,0,0,7.9-9.5,61.033,61.033,0,0,0,5.9-11,63.289,63.289,0,0,0,5.1-25.1,63.29,63.29,0,0,0-5.1-25.1,68.594,68.594,0,0,0-5.9-11,65.3,65.3,0,0,0-7.9-9.5,65.3,65.3,0,0,0-9.5-7.9,61.031,61.031,0,0,0-11-5.9,65.36,65.36,0,0,0-25.1-5m0-1A65.468,65.468,0,0,1-659-245.7a65.468,65.468,0,0,1-65.5,65.5A65.468,65.468,0,0,1-790-245.7a65.441,65.441,0,0,1,5.2-25.6A65.454,65.454,0,0,1-724.5-311.2Z"/>
      </g>
      <g id="Group_2062" data-name="Group 2062" transform="translate(785 344.425)">
        <path id="Path_2238" data-name="Path 2238" class="cls-5" d="M-767-290.8a.987.987,0,0,1-.9,1,10.466,10.466,0,0,0-1.7.4,3.807,3.807,0,0,0-2.4,3.3v.4a1,1,0,0,1-1,1h0a.987.987,0,0,1-1-.9v-.1a3.838,3.838,0,0,0-1.6-3.1,5.007,5.007,0,0,0-2.4-.9.987.987,0,0,1-1-.9v-.1c0-.6.4-.9,1-1a3.991,3.991,0,0,0,3.9-4,.987.987,0,0,1,.9-1h.1a.974.974,0,0,1,1,.8v.1a3.961,3.961,0,0,0,3,3.8c.4.1.8.1,1.1.2A1.071,1.071,0,0,1-767-290.8Zm-6,1.4,1.4-1.4c-.4-.4-.9-1-1.3-1.4a17.883,17.883,0,0,0-1.4,1.3A10.014,10.014,0,0,0-773-289.4Z"/>
        <path id="Path_2239" data-name="Path 2239" class="cls-5" d="M-592.8-188.5a.858.858,0,0,1-.6.7,4.253,4.253,0,0,0-1.1.2,2.36,2.36,0,0,0-1.5,2.1v.2a.576.576,0,0,1-.6.6h0a.576.576,0,0,1-.6-.6v-.1a2.61,2.61,0,0,0-1-2,3.946,3.946,0,0,0-1.5-.6.661.661,0,0,1-.7-.6v-.1c0-.4.2-.6.7-.6a2.718,2.718,0,0,0,2.6-2.6.73.73,0,0,1,.6-.7h0a.56.56,0,0,1,.6.5v.1a2.58,2.58,0,0,0,1.9,2.5,1.7,1.7,0,0,0,.7.1A4.057,4.057,0,0,1-592.8-188.5Zm-4,.9.9-.9-.9-.9a7.64,7.64,0,0,0-.9.9A7.64,7.64,0,0,1-596.8-187.6Z"/>
        <path id="Path_2240" data-name="Path 2240" class="cls-5" d="M-592.2-210.6h3.2v3.3h-3.2Z"/>
        <path id="Path_2241" data-name="Path 2241" class="cls-5" d="M-790-230.5v-3.3h3.3v3.3Z"/>
        <path id="Path_2242" data-name="Path 2242" class="cls-5" d="M-753.4-158.4h-3.3v-3.3h3.3Z"/>
      </g>
    </g>
    <path id="Path_2243" data-name="Path 2243" class="cls-5" d="M178.2,24a15.936,15.936,0,0,0,1.3-1.3l8-8a1.128,1.128,0,0,1,1.1-.3,1.154,1.154,0,0,1,.5,1.9l-2.2,2.2-7.7,7.7a1.116,1.116,0,0,1-1.6.1l-.1-.1-4-3.4a1.14,1.14,0,0,1,1.4-1.8l.1.1c1.1.9,2.1,1.8,3.2,2.7C178.1,24,178.1,24,178.2,24Z"/>
    <path id="Path_2244" data-name="Path 2244" class="cls-5" d="M22.2,159a15.933,15.933,0,0,0,1.3-1.3l8-8a1.128,1.128,0,0,1,1.1-.3,1.154,1.154,0,0,1,.5,1.9l-2.2,2.2-7.7,7.7a1.116,1.116,0,0,1-1.6.1l-.1-.1-4-3.4a1.14,1.14,0,1,1,1.4-1.8l.1.1c1.1.9,2.1,1.8,3.2,2.7C22.1,159,22.1,159,22.2,159Z"/>
    <g id="Group_2074" data-name="Group 2074">
      <g id="Group_2066" data-name="Group 2066">
        <g id="Group_2064" data-name="Group 2064">
          <path id="Path_2245" data-name="Path 2245" class="cls-1" d="M137.7,137.3a6.723,6.723,0,0,1-2.4-.4c-4.3-1.4-6.6-6.4-5.2-11.1a10.9,10.9,0,0,1,2.3-3.9L145,106.6c.6-.8,1.3-1.5,1.9-2.3a1.425,1.425,0,0,1,1.2-.6h.1a1.411,1.411,0,0,1,1.2.8c2,3.7,4.2,5.7,7.1,6.6a1.757,1.757,0,0,1,1,.9,1.5,1.5,0,0,1-.1,1.3c-.3.5-.6,1-.9,1.4,0,0-6.4,10.2-7.2,11.4-1,1.6-2,3.3-3.1,4.9a23.968,23.968,0,0,1-1.9,2.9A8.341,8.341,0,0,1,137.7,137.3Z"/>
          <path id="Path_2246" data-name="Path 2246" class="cls-5" d="M148,105.2c1.9,3.4,4.3,6.1,8,7.3a11.9,11.9,0,0,0-.9,1.5c-1.6,2.6-3.2,5.2-4.9,7.8-1.8,2.8-3.6,5.7-5.3,8.5-.6,1-1.2,1.9-1.8,2.8a6.929,6.929,0,0,1-5.3,2.7,5.822,5.822,0,0,1-1.9-.3,7.372,7.372,0,0,1-4.3-9.2,9.83,9.83,0,0,1,1.9-3.3c4.2-5.1,8.4-10.3,12.6-15.4.6-.8,1.3-1.6,1.9-2.4m0-3a2.845,2.845,0,0,0-2.3,1.1c-.6.8-1.2,1.5-1.9,2.3-4.2,5.1-8.4,10.3-12.6,15.4a13.138,13.138,0,0,0-2.5,4.3v.1c-1.7,5.4,1.1,11.3,6.2,12.9a9.291,9.291,0,0,0,2.9.5,9.616,9.616,0,0,0,7.7-3.9.1.1,0,0,1,.1-.1c.7-1,1.3-2,1.9-3,1-1.6,2.1-3.3,3.1-4.9.7-1.2,1.5-2.4,2.2-3.5l2.4-3.9,2.4-3.9c0-.1.1-.1.1-.2a9.129,9.129,0,0,1,.8-1.3,3.2,3.2,0,0,0,.3-2.7,2.652,2.652,0,0,0-1.9-1.8c-2.5-.8-4.4-2.6-6.2-5.9a3.007,3.007,0,0,0-2.4-1.5Z"/>
        </g>
        <g id="Group_2065" data-name="Group 2065">
          <path id="Path_2247" data-name="Path 2247" class="cls-1" d="M157.1,111.7a9.737,9.737,0,0,1-3.4-.6,11.367,11.367,0,0,1-5.4-4.5,14.313,14.313,0,0,1-2.4-7V98.5l.3-2.4a14.158,14.158,0,0,1,2.7-5.5l.6-.6a3.841,3.841,0,0,1,2.5-.9,3.9,3.9,0,0,1,3,1.4,2.186,2.186,0,0,1,.3.5c.7-.5,1.4-1,2.1-1.4a17.188,17.188,0,0,1,6.3-2.4,1.952,1.952,0,0,0,.7-.1h.2a1.561,1.561,0,0,1,1.3.8,1.5,1.5,0,0,1,1.8,0,5.932,5.932,0,0,1,2.5,2.7c0,.1.1.2.1.3a2.2,2.2,0,0,1-.2,1.4c0,.1-.1.1-.1.2l-.1.1a.1.1,0,0,1,.1.1,1.416,1.416,0,0,1,.9,1.4V95a14.951,14.951,0,0,1-.9,4.3,27.465,27.465,0,0,1-4.8,8.5,11.373,11.373,0,0,1-3.5,3,12.948,12.948,0,0,1-4.6.9Z"/>
          <path id="Path_2248" data-name="Path 2248" class="cls-5" d="M164.5,88.6a5.5,5.5,0,0,0-.7.9c-1.7,2-3.3,3.9-5,5.9a1.063,1.063,0,0,0-.2,1.2,1.02,1.02,0,0,0,.8.5h.2l.6-.3c1.3-1.5,2.6-3.1,3.9-4.6.8-1,1.6-1.9,2.4-2.9h0c0-.1.1-.1.2-.1h.1a4.115,4.115,0,0,1,1.9,2,.6.6,0,0,1-.1.4c-1.6,2-3.3,3.9-4.9,5.9-.4.4-.7.9-1.1,1.3v.1a.948.948,0,0,0,.2,1.3,1.421,1.421,0,0,0,.6.2.909.909,0,0,0,.8-.4l4.2-5.1c.3-.3.6-.7.9-1v.9a16.058,16.058,0,0,1-.8,3.8,28.287,28.287,0,0,1-4.6,8.1,8.331,8.331,0,0,1-3,2.6,7.683,7.683,0,0,1-3.6.9,9.818,9.818,0,0,1-2.9-.5,10.557,10.557,0,0,1-4.7-3.9,11.58,11.58,0,0,1-2.1-6.3v-1c.1-.7.2-1.5.3-2.2a11.263,11.263,0,0,1,2.4-4.9c.1-.1.2-.3.4-.4a2.1,2.1,0,0,1,1.5-.5,2.138,2.138,0,0,1,1.8.9c-.4.3-.8.7-1.2,1-.8.8-1.7,1.6-2.5,2.5l-.5.5a4.233,4.233,0,0,1-.5.7.762.762,0,0,0,0,.8c.2.2.3.6.8.6h.1a.909.909,0,0,0,.8-.4,6.469,6.469,0,0,1,.8-.9c.1-.1,2.5-2.5,2.8-2.7a25.076,25.076,0,0,1,3.7-2.7,16.492,16.492,0,0,1,5.7-2.2h.5m0-3h-.4a2.2,2.2,0,0,0-.8.1,17.032,17.032,0,0,0-6.9,2.6c-.3.2-.7.4-1,.6a5.154,5.154,0,0,0-3.6-1.3,5.233,5.233,0,0,0-3.4,1.2,3.043,3.043,0,0,0-.8.8,15.63,15.63,0,0,0-2.9,6.1v.1a10.679,10.679,0,0,0-.3,2.5v1.4a16.081,16.081,0,0,0,2.6,7.7,13.166,13.166,0,0,0,6.1,5.1,11.338,11.338,0,0,0,9-.5,11.02,11.02,0,0,0,4-3.4,31.63,31.63,0,0,0,5.1-8.9,15.191,15.191,0,0,0,1-4.7V94a3.606,3.606,0,0,0-.6-2,3.787,3.787,0,0,0,0-1.5,1.854,1.854,0,0,0-.2-.7,7.274,7.274,0,0,0-3.1-3.4,3.371,3.371,0,0,0-1.7-.5h-.5a5.018,5.018,0,0,0-1.6-.3Z"/>
        </g>
      </g>
      <g id="Group_2069" data-name="Group 2069">
        <g id="Group_2067" data-name="Group 2067">
          <path id="Path_2249" data-name="Path 2249" class="cls-1" d="M77.2,143.7a8.175,8.175,0,0,1-5.4-2.1,18.785,18.785,0,0,1-2.4-2.5l-3.9-4.2-8.8-9.3c-.4-.4-.7-.8-1.1-1.2a1.479,1.479,0,0,1-.4-1.3A1.548,1.548,0,0,1,56,122c2.6-1.4,4.3-3.7,5.5-7.6a1.651,1.651,0,0,1,1-1c.1,0,.3-.1.4-.1a1.433,1.433,0,0,1,1,.4c.7.6,1.5,1.2,2.2,1.8,5,4.1,10,8.2,14.9,12.3a9.676,9.676,0,0,1,2.8,3.2c2.3,4.3,1,9.5-2.9,11.6A7.229,7.229,0,0,1,77.2,143.7Z"/>
          <path id="Path_2250" data-name="Path 2250" class="cls-5" d="M62.8,114.9c.8.6,1.5,1.2,2.2,1.8Q72.5,123,80,129a9.669,9.669,0,0,1,2.5,2.8,7.157,7.157,0,0,1-2.3,9.6,6.109,6.109,0,0,1-3,.8,6.953,6.953,0,0,1-4.4-1.7,23.908,23.908,0,0,1-2.2-2.3c-2.2-2.4-4.4-4.7-6.7-7.1-2-2.1-4.1-4.3-6.1-6.5-.3-.4-.7-.8-1.1-1.3,3.2-1.7,5-4.8,6.1-8.4m0-3a1.949,1.949,0,0,0-.8.1,2.879,2.879,0,0,0-2,2c-1.1,3.5-2.6,5.5-4.8,6.7a2.909,2.909,0,0,0-1.5,2.2,3.17,3.17,0,0,0,.8,2.5,10.949,10.949,0,0,1,1,1.1l.1.1c1,1.1,2,2.1,3,3.2s2,2.2,3.1,3.2a38.332,38.332,0,0,0,2.8,2.9c1.3,1.4,2.6,2.8,3.9,4.1.8.9,1.6,1.7,2.4,2.5a.1.1,0,0,1,.1.1,9.618,9.618,0,0,0,6.4,2.4,8.923,8.923,0,0,0,4.5-1.2c4.6-2.6,6.1-8.7,3.5-13.6a.1.1,0,0,0-.1-.1,12.213,12.213,0,0,0-3.2-3.6c-4.9-4.1-9.9-8.2-14.9-12.2-.7-.6-1.5-1.2-2.2-1.8a5.562,5.562,0,0,0-2.1-.6Z"/>
        </g>
        <g id="Group_2068" data-name="Group 2068">
          <path id="Path_2251" data-name="Path 2251" class="cls-1" d="M53.5,123.1a6.9,6.9,0,0,1-2.5-.4,10.489,10.489,0,0,1-4-2.2,28.787,28.787,0,0,1-6.2-7.2,17.063,17.063,0,0,1-1.7-3.9l-.2-.9a1.658,1.658,0,0,1,.6-1.6h.1l-.2-.2a2.106,2.106,0,0,1-.5-1.3V105a5.054,5.054,0,0,1,1.9-3,1.656,1.656,0,0,1,1.2-.5,1.268,1.268,0,0,1,.6.1,1.549,1.549,0,0,1,1.2-1H44c.2,0,.5-.1.7-.1h.7a16.578,16.578,0,0,1,5.8,1.1c.7.3,1.5.6,2.2.9,0-.2.1-.3.2-.5a3.994,3.994,0,0,1,3.4-2,3.743,3.743,0,0,1,1.8.5,3.039,3.039,0,0,1,.7.5,13.75,13.75,0,0,1,3.6,4.7,19.452,19.452,0,0,1,.8,2.2,5.16,5.16,0,0,1,.2,1.1,13.276,13.276,0,0,1-1,7.1,11.08,11.08,0,0,1-4.3,5.3,9.231,9.231,0,0,1-5.3,1.7Z"/>
          <path id="Path_2252" data-name="Path 2252" class="cls-5" d="M56.7,101.7a2.279,2.279,0,0,1,1.1.3c.1.1.3.2.4.3a10.969,10.969,0,0,1,3.2,4.2,15.873,15.873,0,0,1,.7,2c.1.3.1.6.2.9a12.631,12.631,0,0,1-.8,6.4,9.311,9.311,0,0,1-3.7,4.6,7.57,7.57,0,0,1-6.2.9,8.785,8.785,0,0,1-3.4-1.9,27.544,27.544,0,0,1-5.9-6.8,11.948,11.948,0,0,1-1.5-3.5c-.1-.3-.1-.6-.2-.8a8.65,8.65,0,0,1,1,.7c1.7,1.3,3.3,2.7,5,4a1.421,1.421,0,0,0,.6.2.908.908,0,0,0,.7-.3.934.934,0,0,0,0-1.3l-.1-.1c-.4-.4-.9-.7-1.3-1.1-1.9-1.6-3.9-3.1-5.8-4.7a.367.367,0,0,1-.1-.3,4.254,4.254,0,0,1,1.4-2.3.349.349,0,0,1,.2-.1c.1,0,.1,0,.2.1h0c.9.8,1.9,1.5,2.8,2.3,1.5,1.2,3.1,2.5,4.6,3.7a1.421,1.421,0,0,0,.6.2h0a.961.961,0,0,0,.9-.7.949.949,0,0,0-.4-1.1c-1.9-1.6-3.9-3.1-5.8-4.7-.3-.2-.5-.4-.9-.7.3,0,.5-.1.7-.1h.6a13.024,13.024,0,0,1,5.2,1,20.883,20.883,0,0,1,4,1.9c.3.2,3.1,2,3.1,2.1.3.2.6.5.9.7a.844.844,0,0,0,.7.2h.3c.4-.1.5-.5.6-.7a.618.618,0,0,0-.2-.7l-.6-.6a1.756,1.756,0,0,0-.5-.4c-.9-.6-1.9-1.3-2.8-1.9-.4-.3-.9-.5-1.3-.8a1.8,1.8,0,0,1,1.8-1.1m0-3a5.629,5.629,0,0,0-4.2,2c-.3-.1-.7-.3-1-.4a16.806,16.806,0,0,0-6.3-1.2h-.8c-.3,0-.6.1-.8.1h-.2a2.588,2.588,0,0,0-1.7.9,3.176,3.176,0,0,0-2,.8,6.832,6.832,0,0,0-2.3,3.9,1.7,1.7,0,0,0-.1.7,3.529,3.529,0,0,0,.3,1.4,2.748,2.748,0,0,0-.2,2l.1.4.1.4v.1a13.789,13.789,0,0,0,1.9,4.3,27.494,27.494,0,0,0,6.5,7.5,11.108,11.108,0,0,0,4.5,2.5,10.323,10.323,0,0,0,3,.4,10.56,10.56,0,0,0,5.7-1.7,12.4,12.4,0,0,0,4.9-6,14.252,14.252,0,0,0,1-7.9c-.1-.4-.1-.9-.2-1.3h0a15.545,15.545,0,0,0-.8-2.3v-.1a14.884,14.884,0,0,0-4-5.3,4.7,4.7,0,0,0-.9-.6,5.135,5.135,0,0,0-2.5-.6Z"/>
        </g>
      </g>
      <g id="Group_2070" data-name="Group 2070">
        <path id="Path_2253" data-name="Path 2253" class="cls-5" d="M103.3,155.7a65.776,65.776,0,0,1-26.6-5.6,1.375,1.375,0,0,1-.8-1c-.1-.2-.1-.5-.2-.7l-.2-.6a35.673,35.673,0,0,1-1.2-7.3c-.4-6.4,1.4-11.2,5.7-14.6a43.718,43.718,0,0,1,4.4-3.1c1.1-.7,2.2-1.3,3.4-2a49.769,49.769,0,0,1,11.5-4.4c.4-.1.9-.2,1.3-.3a44.619,44.619,0,0,1,6.7-1.1q3-.3,6-.3a59.533,59.533,0,0,1,7.3.4c.6.1,1.2.1,1.8.2h.3a32.135,32.135,0,0,1,3.6.8c.1,0,.2.1.3.1a21.542,21.542,0,0,1,10.5,7.3,25.5,25.5,0,0,1,1.4,2.4c2.1,4.6,3.2,12.3,1.5,16.5l-.6,1.2c-.2.3-.3.7-.5,1a10.541,10.541,0,0,1-.7,1.1c-.1.2-.3.3-.4.4a66.319,66.319,0,0,1-27.5,9.1A41.959,41.959,0,0,1,103.3,155.7Z"/>
        <path id="Path_2254" data-name="Path 2254" class="cls-5" d="M113.3,116.3a57.922,57.922,0,0,1,7.2.4c.6.1,1.2.1,1.8.2h.3a18.728,18.728,0,0,1,3.4.8h.1a19.823,19.823,0,0,1,9.8,6.8,19.614,19.614,0,0,1,1.2,2.1c2.1,4.5,2.9,11.7,1.4,15.3-.2.4-.3.7-.5,1.1-.2.3-.3.6-.5.9s-.4.7-.6,1a63.949,63.949,0,0,1-26.9,8.9c-2.3.2-4.5.3-6.8.3a64.709,64.709,0,0,1-26-5.4c-.1-.2-.1-.4-.2-.6s-.1-.4-.2-.6a44.613,44.613,0,0,1-1.2-7c-.3-5.2.8-9.9,5.1-13.3a41.459,41.459,0,0,1,4.3-3c1.1-.7,2.2-1.3,3.3-1.9A47.25,47.25,0,0,1,99.5,118c.4-.1.8-.2,1.3-.3a46.417,46.417,0,0,1,6.5-1.1c2.1-.2,4-.3,6-.3m0-3h0c-2.1,0-4.2.1-6.2.3a49.7,49.7,0,0,0-6.9,1.1c-.4.1-.9.2-1.4.3A49.847,49.847,0,0,0,87,119.6c-1.3.7-2.4,1.3-3.5,2-1.5,1-3.1,2.1-4.5,3.2-4.6,3.6-6.7,9-6.3,15.8a38.148,38.148,0,0,0,1.3,7.5l.1.6c.1.3.1.5.2.8a2.716,2.716,0,0,0,1.7,1.9,67.023,67.023,0,0,0,27.2,5.7,57.4,57.4,0,0,0,7.1-.4,67.741,67.741,0,0,0,28.1-9.3,3.45,3.45,0,0,0,.9-.8c.3-.4.5-.8.8-1.2h0a10.91,10.91,0,0,0,.6-1.1c.2-.4.4-.9.6-1.3,1.9-4.7.7-12.8-1.5-17.7a19.977,19.977,0,0,0-1.5-2.6,22.2,22.2,0,0,0-11.3-7.9c-.1,0-.2-.1-.3-.1a22.09,22.09,0,0,0-3.7-.8h-.4a11.019,11.019,0,0,0-1.8-.2,62.822,62.822,0,0,0-7.5-.4Z"/>
      </g>
      <g id="Group_2071" data-name="Group 2071">
        <path id="Path_2255" data-name="Path 2255" class="cls-1" d="M145.8,61.3a19.012,19.012,0,0,1-8.6,19.5,1.374,1.374,0,0,0-.5.8,1.731,1.731,0,0,0,.4,1.7,17.957,17.957,0,0,1,4.4,14.9,15.883,15.883,0,0,1-1.4,4.7,31.823,31.823,0,0,1-1.6,3.2,33.246,33.246,0,0,1-4.3,5.4,34.862,34.862,0,0,1-6.3,5.2,48.814,48.814,0,0,1-11.7,5.7,49.837,49.837,0,0,1-8.2,2.2,57.39,57.39,0,0,1-18,.6,41.14,41.14,0,0,1-13.8-4.3,22.945,22.945,0,0,1-8.8-7.8,17.741,17.741,0,0,1-1.6-16.7.592.592,0,0,0-.1-.7c-.1-.1-.2-.2-.2-.3-.2-.6-.8-.7-1.4-.9-1-.3-2.1-.6-3.1-1a19.255,19.255,0,0,1-9-7.4,18.4,18.4,0,0,1-2.6-6.4,17.855,17.855,0,0,1,.1-6.9,19.709,19.709,0,0,1,7-11.4,20.729,20.729,0,0,1,8.1-4.1c.3-.1.4-.3.6-.5a38.415,38.415,0,0,1,8.5-9.5,41.5,41.5,0,0,1,20.8-8.7A40.577,40.577,0,0,1,110,39.7a38.511,38.511,0,0,1,12.9,6.2,1.077,1.077,0,0,0,.8.2c8.2-1,16.4,3,20.2,9.8A17.393,17.393,0,0,1,145.8,61.3Z"/>
        <path id="Path_2256" data-name="Path 2256" class="cls-5" d="M145.8,61.3a19.2,19.2,0,0,0-2-5.5A20.134,20.134,0,0,0,123.6,46a1.2,1.2,0,0,1-.8-.2,38.511,38.511,0,0,0-12.9-6.2,41.188,41.188,0,0,0-36.3,7.6,38.415,38.415,0,0,0-8.5,9.5,1.024,1.024,0,0,1-.6.5,20.07,20.07,0,0,0-8.1,4.1,19.111,19.111,0,0,0-7,11.4,17.855,17.855,0,0,0-.1,6.9A17.663,17.663,0,0,0,51.9,86a18.242,18.242,0,0,0,9,7.4c1,.4,2.1.7,3.1,1,.6.2,1.2.3,1.4.9,0,.1.1.2.2.3a.592.592,0,0,1,.1.7A17.967,17.967,0,0,0,67.3,113a22.856,22.856,0,0,0,8.8,7.8,37.764,37.764,0,0,0,7.2,3,8.469,8.469,0,0,0,1.7.4,38.558,38.558,0,0,0,4.9.9,56.221,56.221,0,0,0,13.6.1c1.5-.2,2.9-.4,4.4-.7a49.837,49.837,0,0,0,8.2-2.2,46.923,46.923,0,0,0,9.4-4.3,1.38,1.38,0,0,0,.4-.3c.6-.4,1.3-.8,1.9-1.2a39.606,39.606,0,0,0,6.3-5.2,28.481,28.481,0,0,0,2.3-2.6,17.261,17.261,0,0,0,1.9-2.8l.3-.6a21.018,21.018,0,0,0,1.3-2.6,19.539,19.539,0,0,0,1.4-4.7,18.055,18.055,0,0,0-4.4-14.9c-.5-.6-.7-1-.4-1.7a1.374,1.374,0,0,1,.5-.8,19.339,19.339,0,0,0,8.8-14.1A11.415,11.415,0,0,0,145.8,61.3ZM52,77.2c-.6-8.2,5.1-14.6,11.2-16.8-.2.4-.3.7-.5,1.1a35.74,35.74,0,0,0-2.1,6,.758.758,0,0,1-.2.4,11.351,11.351,0,0,0-2.8,4.7,8.519,8.519,0,0,0-.4,2.3,10.81,10.81,0,0,0,3.1,8.9,2.574,2.574,0,0,1,.7,1.5,40.654,40.654,0,0,0,2.2,5.8.349.349,0,0,1,.1.2A15.823,15.823,0,0,1,52,77.2Zm86.2,13.3a15.9,15.9,0,0,1-1.2,12.6,27.978,27.978,0,0,1-7.6,9.2,38.784,38.784,0,0,1-7.2,4.7c-1.3.7-2.6,1.3-4,1.9a10.662,10.662,0,0,1-1.9.7,59.225,59.225,0,0,1-9.7,2.6c-.5.1-1,.2-1.6.3-1,.2-2,.3-3,.4a52.925,52.925,0,0,1-13.7-.5h0a11.627,11.627,0,0,1-1.8-.4,36.472,36.472,0,0,1-9.5-3.6,22.187,22.187,0,0,1-6.9-6A15.265,15.265,0,0,1,68,98.1c.1-.2.1-.4.2-.6a14.672,14.672,0,0,1,.6-1.4.592.592,0,0,0-.1-.7,4.233,4.233,0,0,1-.5-.7,8.342,8.342,0,0,1-.8-1.2,32.943,32.943,0,0,1-2.6-4.9,31.57,31.57,0,0,1-2.5-12.1,33.383,33.383,0,0,1,4.3-16.8,35.244,35.244,0,0,1,7.3-9.1,40.839,40.839,0,0,1,3.9-3.1,38.694,38.694,0,0,1,11.9-5.3A35.358,35.358,0,0,1,100.9,41a37.146,37.146,0,0,1,14.3,3.5,33.18,33.18,0,0,1,10.7,7.8,34.343,34.343,0,0,1,4.6,6.2,30.442,30.442,0,0,1,3.7,10.6,32.315,32.315,0,0,1-.2,11.6l-.3,1.2v.2a2.92,2.92,0,0,0-.2.9v.3c0,.1,0,.3.1.3A14.8,14.8,0,0,1,138.2,90.5Zm-.9-13.1c0-.8.1-1.5.1-2.2-.1-1.7-.2-3.5-.2-5.2a.9.9,0,0,1,.1-.5,11.25,11.25,0,0,0-3.2-13.4,22.606,22.606,0,0,0-2.6-1.6c-.1-.1-.3-.2-.4-.3a35.717,35.717,0,0,0-4.8-5.5l-.2-.2a17.358,17.358,0,0,1,6.1,1,16.375,16.375,0,0,1,9.2,7.7A15.977,15.977,0,0,1,137.3,77.4Z"/>
      </g>
      <g id="Group_2072" data-name="Group 2072">
        <path id="Path_2257" data-name="Path 2257" class="cls-1" d="M135.1,82.5a15.481,15.481,0,0,0-5.4-2.3c.6-4,.6-8.1-1.1-11.9-7.5-17.4-29.5-12.1-30.8,5.9-2.4-3.4-4.2-6.8-7.8-8.8-16.3-8.8-31.3,9.7-20.1,24.8-.5.8-2.3,6.3-2.8,7.2Z"/>
        <path id="Path_2258" data-name="Path 2258" class="cls-5" d="M68.3,98,66,97a23.105,23.105,0,0,0,1.1-2.9c.6-1.7,1.1-2.9,1.4-3.7-4.4-6.3-5.8-16.1,1.2-23.4,4.3-4.4,12.1-7.5,21-2.7a18.662,18.662,0,0,1,6.4,6.4,17.732,17.732,0,0,1,14.1-14.1c6.2-1.1,14.3,1.3,18.6,11.1,1.4,3.2,1.8,6.9,1.3,11.5a13.4,13.4,0,0,1,4.8,2.3l-1.6,1.8a12.057,12.057,0,0,0-4.9-2l-1.1-.2.1-1.1c.6-4.6.3-8.2-1-11.3-3.7-8.6-10.6-10.6-15.8-9.7-5.8,1-11.9,6.1-12.5,15.2l-.2,3.6-2-3c-.4-.5-.7-1-1.1-1.6-1.9-2.9-3.6-5.3-6.4-6.8-7.7-4.1-14.3-1.6-17.9,2.2-6.2,6.5-4.7,15.4-.5,21l.4.6-.4.6c-.2.4-1,2.6-1.5,4C68.9,96.5,68.5,97.5,68.3,98Z"/>
      </g>
      <path id="Path_2259" data-name="Path 2259" class="cls-7" d="M127.4,89.3c.1.8-2.1,1.8-5,2.4s-5.4.4-5.5-.4,2.1-1.8,5-2.4C124.7,88.4,127.2,88.6,127.4,89.3Z"/>
      <path id="Path_2260" data-name="Path 2260" class="cls-7" d="M87,97.3c.1.8-2.2,1.6-5.2,1.9-2.9.3-5.4-.1-5.4-.9-.1-.8,2.2-1.6,5.2-1.9C84.5,96.1,86.9,96.5,87,97.3Z"/>
      <path id="Path_2261" data-name="Path 2261" class="cls-5" d="M118.6,81.9c.5,2.2-.3,4.1-1.7,4.4s-2.9-1.2-3.3-3.4c-.5-2.2.3-4.1,1.7-4.4C116.6,78.2,118.1,79.7,118.6,81.9Z"/>
      <path id="Path_2262" data-name="Path 2262" class="cls-5" d="M99.8,91.8a1.6,1.6,0,0,1-1,2A1.557,1.557,0,0,1,97,92.4a1.6,1.6,0,0,1,1-2A1.557,1.557,0,0,1,99.8,91.8Z"/>
      <path id="Path_2263" data-name="Path 2263" class="cls-5" d="M90.4,101.7s12.8-7.1,25.6-5c0,0,2.3,16.1-10.3,18.3C105.7,115,92.3,117.1,90.4,101.7Z"/>
      <path id="Path_2264" data-name="Path 2264" class="cls-5" d="M105.8,90.5a1.6,1.6,0,0,1-1,2,1.552,1.552,0,0,1-1.8-1.3,1.6,1.6,0,0,1,1-2C104.7,88.9,105.6,89.5,105.8,90.5Z"/>
      <g id="Group_2073" data-name="Group 2073">
        <path id="Path_2265" data-name="Path 2265" class="cls-8" d="M81.4,90.6l-.7-.2c.8-2.7,2-4.2,3.6-4.7,2.6-.7,5.3,2,5.4,2.1l-.5.5s-2.5-2.5-4.7-1.9C83.1,86.8,82.1,88.2,81.4,90.6Z"/>
      </g>
      <path id="Path_2266" data-name="Path 2266" class="cls-1" d="M112.1,109.9a13.913,13.913,0,0,1-15.4,0A23.888,23.888,0,0,1,112.1,109.9Z"/>
    </g>
  </g>
</svg>
