<svg xmlns="http://www.w3.org/2000/svg" viewBox="0 0 19 15.581">
  <defs>
    <style>
      .cls-1 {
        fill: #0cafcb;
      }
    </style>
  </defs>
  <g id="ic_header_carrito_activo" transform="translate(-0.031)">
    <path id="Path_2114" data-name="Path 2114" class="cls-1" d="M2.6,1.482H.744a.7.7,0,0,1-.7-.567A.76.76,0,0,1,.439.087,1.027,1.027,0,0,1,.809,0H3.184a.775.775,0,0,1,.785.7l.654,2.746c.479,2.07.959,4.14,1.46,6.189a.661.661,0,0,0,.763.61h8.608a.62.62,0,0,0,.719-.588L17.349,4.1a.613.613,0,0,1,.022-.174H8A.714.714,0,0,1,7.347,3.2a.73.73,0,0,1,.61-.741.894.894,0,0,1,.24-.022h10a.737.737,0,0,1,.828.676,2.149,2.149,0,0,1-.065.523c-.458,2.136-.915,4.271-1.351,6.407a2.117,2.117,0,0,1-2.027,1.678H6.693A2.052,2.052,0,0,1,4.644,10C3.991,7.235,3.337,4.446,2.683,1.678A.411.411,0,0,1,2.6,1.482Z" transform="translate(0)"/>
    <path id="Path_2115" data-name="Path 2115" class="cls-1" d="M63.451,61.8A1.358,1.358,0,0,1,62.1,60.451,1.372,1.372,0,0,1,63.451,59.1a1.351,1.351,0,1,1,0,2.7Z" transform="translate(-48.543 -46.221)"/>
    <path id="Path_2116" data-name="Path 2116" class="cls-1" d="M30.151,61.8A1.351,1.351,0,1,1,31.5,60.429,1.377,1.377,0,0,1,30.151,61.8Z" transform="translate(-22.499 -46.221)"/>
  </g>
</svg>
