<svg xmlns="http://www.w3.org/2000/svg" width="201" height="186.49" viewBox="0 0 201 186.49"><g transform="translate(226.894 -412.629)"><circle cx="93.245" cy="93.245" r="93.245" transform="translate(-218.33 412.629)" fill="#fff"/><circle cx="92.245" cy="92.245" r="92.245" transform="translate(-217.33 413.629)" fill="none" stroke="#b0b0b0" stroke-width="2" stroke-dasharray="0 10"/><circle cx="85.465" cy="85.465" r="85.465" transform="translate(-210.2 421.415)" fill="#563dbf" opacity="0.047"/><g opacity="0.042"><path d="M-125.614,570.247a64.574,64.574,0,0,1-25.3-5.107,64.96,64.96,0,0,1-11.038-5.991,65.426,65.426,0,0,1-9.618-7.936,65.477,65.477,0,0,1-7.936-9.618,65.006,65.006,0,0,1-5.992-11.039,64.586,64.586,0,0,1-5.106-25.3,65.259,65.259,0,0,1,5.134-25.361,63.992,63.992,0,0,1,9.654-15.966A65.088,65.088,0,0,1-162.018,451.4a64.776,64.776,0,0,1,36.4-11.124,64.573,64.573,0,0,1,25.295,5.107,65.035,65.035,0,0,1,11.038,5.992,65.3,65.3,0,0,1,9.618,7.935,65.477,65.477,0,0,1,7.936,9.618,65,65,0,0,1,5.992,11.039,64.586,64.586,0,0,1,5.106,25.295,64.586,64.586,0,0,1-5.106,25.3,65.006,65.006,0,0,1-5.992,11.039,65.478,65.478,0,0,1-7.936,9.618,65.374,65.374,0,0,1-9.618,7.936,64.959,64.959,0,0,1-11.038,5.991A64.573,64.573,0,0,1-125.614,570.247Z" fill="#563dbf"/><path d="M-125.614,440.775a64.282,64.282,0,0,0-36.125,11.038,64.621,64.621,0,0,0-13.687,12.439A63.464,63.464,0,0,0-185,480.093a64.749,64.749,0,0,0-5.1,25.168,64.092,64.092,0,0,0,5.067,25.1,64.5,64.5,0,0,0,5.945,10.953,64.948,64.948,0,0,0,7.875,9.544,64.943,64.943,0,0,0,9.545,7.875,64.462,64.462,0,0,0,10.953,5.946,64.091,64.091,0,0,0,25.1,5.067,64.083,64.083,0,0,0,25.1-5.067,64.462,64.462,0,0,0,10.953-5.946,64.891,64.891,0,0,0,9.545-7.875,64.949,64.949,0,0,0,7.875-9.544A64.5,64.5,0,0,0-66.2,530.362a64.092,64.092,0,0,0,5.067-25.1,64.083,64.083,0,0,0-5.067-25.1,64.5,64.5,0,0,0-5.945-10.954,64.945,64.945,0,0,0-7.875-9.544,64.891,64.891,0,0,0-9.545-7.875,64.461,64.461,0,0,0-10.953-5.945,64.066,64.066,0,0,0-25.1-5.068m0-1a65.486,65.486,0,0,1,65.485,65.486,65.486,65.486,0,0,1-65.485,65.486A65.486,65.486,0,0,1-191.1,505.261a65.623,65.623,0,0,1,5.173-25.555A65.412,65.412,0,0,1-125.614,439.775Z" fill="#707070"/></g><path d="M-29.115,522.257h3.221v3.257h-3.221Z" fill="#563dbf"/><path d="M-226.894,502.308v-3.257h3.257v3.257Z" fill="#563dbf"/><path d="M-190.315,574.465h-3.257v-3.257h3.257Z" fill="#563dbf"/><path d="M-82.152,476.963a17.473,17.473,0,0,1,.167,5.356,19.346,19.346,0,0,1-8.78,14.056,1.329,1.329,0,0,0-.523.769,1.571,1.571,0,0,0,.438,1.729,17.747,17.747,0,0,1,4.4,14.854,16.991,16.991,0,0,1-1.381,4.692c-.507,1.079-1.021,2.167-1.632,3.189a25.9,25.9,0,0,1-1.951,2.759,33.785,33.785,0,0,1-2.252,2.595,37.926,37.926,0,0,1-6.32,5.23,51.363,51.363,0,0,1-11.7,5.749,60.98,60.98,0,0,1-8.247,2.207,55.646,55.646,0,0,1-18.006.592,39.706,39.706,0,0,1-13.771-4.32,23.377,23.377,0,0,1-8.833-7.813,17.853,17.853,0,0,1-1.613-16.737.59.59,0,0,0-.078-.68.961.961,0,0,1-.193-.3c-.22-.628-.817-.735-1.381-.9a31.263,31.263,0,0,1-3.1-.988,18.84,18.84,0,0,1-8.98-7.421,18.443,18.443,0,0,1-2.589-6.421,18.151,18.151,0,0,1,.075-6.935,19.232,19.232,0,0,1,6.959-11.373,20.454,20.454,0,0,1,8.131-4.074.934.934,0,0,0,.581-.508,37.986,37.986,0,0,1,8.463-9.473,40.706,40.706,0,0,1,20.8-8.668,39.946,39.946,0,0,1,15.452,1.079,38.019,38.019,0,0,1,12.892,6.213,1.01,1.01,0,0,0,.79.189c8.224-1.033,16.4,2.966,20.179,9.848A18.662,18.662,0,0,1-82.152,476.963Z" fill="#fff"/><path d="M-82.152,476.958a18.428,18.428,0,0,0-2.012-5.5c-3.773-6.881-11.953-10.877-20.181-9.841a1.036,1.036,0,0,1-.783-.191,38.2,38.2,0,0,0-12.892-6.217,39.991,39.991,0,0,0-15.451-1.078,40.742,40.742,0,0,0-20.8,8.669,37.982,37.982,0,0,0-8.457,9.473c-.148.216-.267.43-.582.5a20.427,20.427,0,0,0-8.135,4.082,19.214,19.214,0,0,0-6.956,11.37,18.041,18.041,0,0,0-.072,6.933,18.283,18.283,0,0,0,2.588,6.419A18.776,18.776,0,0,0-166.914,509a28.562,28.562,0,0,0,3.107.988c.56.164,1.154.274,1.38.9a1.1,1.1,0,0,0,.191.3.584.584,0,0,1,.08.675,17.864,17.864,0,0,0,1.608,16.744,23.376,23.376,0,0,0,8.833,7.809,36.44,36.44,0,0,0,7.25,2.955c.548.155,1.1.309,1.652.433a44,44,0,0,0,4.871.928,53.07,53.07,0,0,0,13.569.085c1.47-.171,2.945-.393,4.434-.676a60.084,60.084,0,0,0,8.248-2.2,52.034,52.034,0,0,0,9.362-4.288c.152-.086.294-.171.435-.266.644-.377,1.276-.784,1.907-1.2a37.676,37.676,0,0,0,6.32-5.222c.8-.836,1.554-1.707,2.257-2.594a26.965,26.965,0,0,0,1.948-2.763c.12-.2.24-.407.34-.608.466-.842.88-1.709,1.293-2.586a17.073,17.073,0,0,0,1.378-4.685,17.762,17.762,0,0,0-4.4-14.858,1.561,1.561,0,0,1-.438-1.725,1.271,1.271,0,0,1,.525-.767,19.332,19.332,0,0,0,8.78-14.06A17.378,17.378,0,0,0-82.152,476.958Zm-93.861,15.865c-.555-8.156,5.1-14.637,11.2-16.841-.189.411-.345.749-.492,1.076a37.1,37.1,0,0,0-2.084,6.044.789.789,0,0,1-.213.374,11.741,11.741,0,0,0-2.795,4.7,11.892,11.892,0,0,0-.437,2.306,11.992,11.992,0,0,0,0,2.534,10.6,10.6,0,0,0,3.069,6.4,3.178,3.178,0,0,1,.712,1.545,36.247,36.247,0,0,0,2.237,5.833.872.872,0,0,1,.081.2A16.192,16.192,0,0,1-176.013,492.823Zm86.279,13.3a15.972,15.972,0,0,1-1.181,12.586,27.88,27.88,0,0,1-7.614,9.165,41.67,41.67,0,0,1-7.151,4.675c-1.3.686-2.63,1.3-3.99,1.867-.616.264-1.244.509-1.874.745a58.5,58.5,0,0,1-9.682,2.622c-.514.093-1.037.187-1.572.262-.98.151-1.982.274-3,.358a50.455,50.455,0,0,1-13.664-.518c-.01,0-.031-.007-.041-.006q-.937-.174-1.849-.383a33.721,33.721,0,0,1-9.509-3.618,21.188,21.188,0,0,1-6.912-6.036,15.281,15.281,0,0,1-2.1-14.34q.089-.311.207-.624a13.712,13.712,0,0,1,.574-1.366.6.6,0,0,0-.073-.706c-.174-.224-.337-.448-.5-.683-.293-.4-.576-.815-.841-1.24a29.885,29.885,0,0,1-2.605-4.91,32.448,32.448,0,0,1-2.526-12.075,32.914,32.914,0,0,1,4.292-16.756,35.664,35.664,0,0,1,7.282-9.071,35.563,35.563,0,0,1,3.934-3.1,38.4,38.4,0,0,1,11.907-5.344,38.249,38.249,0,0,1,11.247-1.194,36.873,36.873,0,0,1,14.3,3.529,34.729,34.729,0,0,1,10.712,7.8,32.767,32.767,0,0,1,4.559,6.227,31.76,31.76,0,0,1,3.748,10.562,32.036,32.036,0,0,1-.168,11.588c-.079.4-.168.811-.267,1.214l-.042.185c-.067.319-.166.63-.234.949a.723.723,0,0,0-.022.082c-.014.052-.019.1-.034.155a.345.345,0,0,0,.083.323A16.4,16.4,0,0,1-89.734,506.125Zm-.894-13.118c.031-.777.12-1.48.1-2.181-.057-1.733-.155-3.472-.234-5.213a1.241,1.241,0,0,1,.09-.5,11.229,11.229,0,0,0-3.237-13.42,23.055,23.055,0,0,0-2.559-1.617,2.252,2.252,0,0,1-.416-.329,37.418,37.418,0,0,0-4.828-5.516c-.034-.037-.079-.083-.18-.193a17.518,17.518,0,0,1,6.125,1.01,16.508,16.508,0,0,1,9.227,7.729A16.164,16.164,0,0,1-90.628,493.007Z" fill="#563dbf"/><g fill="#fff" stroke-linecap="round" stroke-linejoin="round"><path d="M -98.1826171875 551.3179321289062 C -99.39118957519531 551.3179321289062 -100.5561370849609 551.056396484375 -101.6451110839844 550.5405883789062 C -103.7639923095703 549.5368041992188 -105.346794128418 547.6937866210938 -106.1020202636719 545.35107421875 C -106.8421783447266 543.05517578125 -106.6969909667969 540.544189453125 -105.6931991577148 538.2808837890625 L -105.6816940307617 538.2548828125 L -105.6691970825195 538.2293701171875 C -104.9708480834961 536.8030395507812 -104.0238342285156 535.5593872070312 -102.8540725708008 534.532470703125 C -97.86840057373047 529.7777709960938 -92.72176361083984 524.8513793945312 -87.55613708496094 519.8892822265625 L -87.55246734619141 519.8857421875 L -87.54878234863281 519.8822021484375 C -86.73758697509766 519.113525390625 -86.00576019287109 518.41845703125 -85.26396179199219 517.6968383789062 L -83.67253875732422 516.1486206054688 L -82.83014678955078 518.202880859375 C -82.01815795898438 520.1829833984375 -81.12895965576172 521.754150390625 -80.11171722412109 523.006103515625 C -78.97161865234375 524.4092407226562 -77.66078186035156 525.4292602539062 -76.10430908203125 526.1243896484375 L -74.29885864257812 526.9307250976562 L -75.56186676025391 528.4521484375 C -75.91082000732422 528.8724365234375 -76.31255340576172 529.365478515625 -76.64646911621094 529.8351440429688 L -76.67407989501953 529.8740234375 L -76.70409393310547 529.9110107421875 C -77.72376251220703 531.16796875 -78.76296234130859 532.45361328125 -79.76793670654297 533.6969604492188 C -80.77372741699219 534.9412841796875 -81.81375885009766 536.2279663085938 -82.83509063720703 537.4869995117188 C -83.76258087158203 538.6294555664062 -84.70079803466797 539.7913818359375 -85.60812377929688 540.9150390625 C -86.89950561523438 542.5143432617188 -88.23473358154297 544.1679077148438 -89.55518341064453 545.7855224609375 C -90.28435516357422 546.7540283203125 -91.07262420654297 547.6987915039062 -91.89845275878906 548.5940551757812 L -91.91666412353516 548.6138305664062 L -91.93556976318359 548.6328735351562 C -93.65151214599609 550.3643798828125 -95.87008666992188 551.3179321289062 -98.1826171875 551.3179321289062 Z" stroke="none"/><path d="M -84.21800231933594 518.77197265625 C -84.98999786376953 519.5230102539062 -85.75299835205078 520.2470092773438 -86.51699829101562 520.9710083007812 C -91.62000274658203 525.8729858398438 -96.72799682617188 530.7630004882812 -101.8420028686523 535.6400146484375 C -102.8639984130859 536.531982421875 -103.7099990844727 537.6389770507812 -104.3219985961914 538.8889770507812 C -106.0879974365234 542.8709716796875 -104.6019973754883 547.47998046875 -101.0029983520508 549.1849975585938 C -100.1037368774414 549.6109619140625 -99.14439392089844 549.8179321289062 -98.1826171875 549.8179321289062 C -96.32194519042969 549.8179321289062 -94.45330810546875 549.04248046875 -93.00099945068359 547.5770263671875 C -92.20400238037109 546.7130126953125 -91.44699859619141 545.8060302734375 -90.73600006103516 544.8599853515625 C -88.48600006103516 542.10400390625 -86.25599670410156 539.3209838867188 -84 536.5419921875 C -81.95899963378906 534.0260009765625 -79.91000366210938 531.4819946289062 -77.86900329589844 528.9660034179688 C -77.53700256347656 528.4990234375 -77.1510009765625 528.0180053710938 -76.71600341796875 527.4940185546875 C -80.4530029296875 525.8250122070312 -82.63800048828125 522.625 -84.21800231933594 518.77197265625 M -84.21800231933594 515.7719116210938 C -84.01481628417969 515.7719116210938 -83.81027984619141 515.7926025390625 -83.60727691650391 515.8347778320312 C -82.63162994384766 516.0376586914062 -81.82040405273438 516.7117309570312 -81.44231414794922 517.6337280273438 C -79.89254760742188 521.4130249023438 -78.05760192871094 523.6092529296875 -75.49262237548828 524.7548217773438 C -74.63571166992188 525.1375122070312 -74.00727081298828 525.899169921875 -73.79428100585938 526.8131713867188 C -73.58129119873047 527.7271728515625 -73.80828857421875 528.6881713867188 -74.40775299072266 529.4102783203125 C -74.73895263671875 529.8092041015625 -75.11869812011719 530.2749633789062 -75.4239501953125 530.704345703125 C -75.46074676513672 530.756103515625 -75.49918365478516 530.806640625 -75.53919219970703 530.85595703125 C -76.55802917480469 532.1119384765625 -77.5968017578125 533.3970336914062 -78.60137176513672 534.639892578125 C -79.60756683349609 535.8847045898438 -80.64803314208984 537.1719360351562 -81.67018890380859 538.4319458007812 C -82.59677886962891 539.5733642578125 -83.53437042236328 540.7344970703125 -84.44107818603516 541.857421875 C -85.72776031494141 543.4508666992188 -87.05772399902344 545.097900390625 -88.37474822998047 546.7114868164062 C -89.12882232666016 547.7113647460938 -89.94319152832031 548.6867065429688 -90.79589080810547 549.6111450195312 C -90.82016754150391 549.637451171875 -90.84493255615234 549.663330078125 -90.87013244628906 549.6887817382812 C -92.86991119384766 551.7066650390625 -95.46687316894531 552.8179321289062 -98.1826171875 552.8179321289062 C -99.61499786376953 552.8179321289062 -100.9959869384766 552.5078735351562 -102.287223815918 551.896240234375 C -104.7843170166016 550.7131958007812 -106.6460571289062 548.55224609375 -107.529670715332 545.8113403320312 C -108.3831176757812 543.1639404296875 -108.2178802490234 540.2736206054688 -107.0643997192383 537.6727294921875 C -107.0490493774414 537.6381225585938 -107.0330505371094 537.6038208007812 -107.0164031982422 537.56982421875 C -106.2351760864258 535.9741821289062 -105.1760330200195 534.5804443359375 -103.867561340332 533.4262084960938 C -98.88864135742188 528.6779174804688 -93.75062561035156 523.759765625 -88.59528350830078 518.8074951171875 C -88.59039306640625 518.8027954101562 -88.58547973632812 518.798095703125 -88.58055114746094 518.79345703125 C -87.77349090576172 518.0286254882812 -87.04557800292969 517.3373413085938 -86.30991363525391 516.6216430664062 C -85.74425506591797 516.0713500976562 -84.99136352539062 515.7719116210938 -84.21800231933594 515.7719116210938 Z" stroke="none" fill="#563dbf"/></g><g fill="#fff" stroke-linecap="round" stroke-linejoin="round"><path d="M -74.14834594726562 526.8042602539062 C -74.1485595703125 526.8042602539062 -74.14864349365234 526.8042602539062 -74.14885711669922 526.8042602539062 C -75.77584075927734 526.80419921875 -77.39540100097656 526.4008178710938 -78.83244323730469 525.6378173828125 L -78.84249877929688 525.6324462890625 L -78.85247802734375 525.626953125 C -81.09221649169922 524.393798828125 -82.8489990234375 522.5205078125 -83.934814453125 520.208251953125 C -85.16011047363281 517.8533935546875 -85.71380615234375 515.2096557617188 -85.53644561767578 512.5596923828125 C -85.51587677001953 512.1588134765625 -85.46926116943359 511.7562866210938 -85.39787292480469 511.3630676269531 L -85.39541625976562 511.3495483398438 L -85.39272308349609 511.3360900878906 C -85.22824096679688 510.5158386230469 -85.01537322998047 509.7001953125 -84.76001739501953 508.9118041992188 L -84.75411987304688 508.8935852050781 L -84.74774932861328 508.8755187988281 C -84.02651214599609 506.8285217285156 -82.82150268554688 504.9500122070312 -81.26235961914062 503.4419860839844 C -81.05318450927734 503.2330017089844 -80.82469177246094 503.0487365722656 -80.5830078125 502.8942260742188 C -79.93402099609375 502.4773559570312 -79.18138885498047 502.2561340332031 -78.40911865234375 502.2561340332031 C -77.02863311767578 502.2561340332031 -75.75882720947266 502.9490051269531 -75.01241302490234 504.1095886230469 L -74.64556884765625 504.6799621582031 C -73.8773193359375 504.2427978515625 -73.08889007568359 503.841064453125 -72.285888671875 503.4778442382812 C -70.110595703125 502.4300231933594 -67.78380584716797 501.8613891601562 -65.36978149414062 501.7876892089844 L -65.36405944824219 501.7875061035156 L -65.35835266113281 501.7873840332031 C -65.32588958740234 501.78662109375 -65.29326629638672 501.7862854003906 -65.26029968261719 501.7862854003906 C -65.04917144775391 501.7862854003906 -64.84580230712891 501.8011474609375 -64.63047790527344 501.81689453125 C -64.5784912109375 501.8207092285156 -64.5242919921875 501.8246765136719 -64.46748352050781 501.8285827636719 L -61.11410140991211 502.0605773925781 L -61.78913879394531 502.7156372070312 C -61.5936393737793 502.7789001464844 -61.4099235534668 502.8765563964844 -61.24642181396484 503.0053405761719 C -60.18825912475586 503.7657165527344 -59.39946746826172 504.8684692382812 -59.02212905883789 506.1170654296875 L -58.97126007080078 506.285400390625 L -58.96070861816406 506.4609375 C -58.95441818237305 506.5655517578125 -58.95618438720703 506.6700134277344 -58.96574401855469 506.7734375 L -58.19203948974609 506.1973266601562 L -58.74739074707031 509.812744140625 C -58.77220153808594 509.9742431640625 -58.79544067382812 510.1302795410156 -58.81872940063477 510.28662109375 C -58.84141159057617 510.4388122558594 -58.86412811279297 510.59130859375 -58.88827896118164 510.7490234375 L -58.89265060424805 510.7775573730469 L -58.89810943603516 510.805908203125 C -59.19114685058594 512.326171875 -59.70526504516602 513.7921752929688 -60.42612838745117 515.1632690429688 C -61.99605178833008 518.2857666015625 -64.07419586181641 521.0911865234375 -66.60322570800781 523.5021362304688 C -67.74161529541016 524.6883544921875 -69.15655517578125 525.6168212890625 -70.69734954833984 526.1883544921875 C -71.80828857421875 526.597412109375 -72.96833801269531 526.8042602539062 -74.14834594726562 526.8042602539062 Z" stroke="none"/><path d="M -65.25996398925781 503.2862548828125 C -65.281494140625 503.2862548828125 -65.30281066894531 503.2864990234375 -65.32399749755859 503.2869873046875 C -67.51899719238281 503.35400390625 -69.67400360107422 503.8819580078125 -71.6510009765625 504.8370361328125 C -73.13500213623047 505.5069580078125 -74.55500030517578 506.3089599609375 -75.89399719238281 507.2330322265625 C -76.19999694824219 507.4509887695312 -79.07700347900391 509.68798828125 -79.16999816894531 509.7569580078125 C -79.49600219726562 510.0419921875 -79.82099914550781 510.3250122070312 -80.12300109863281 510.615966796875 C -80.33784484863281 510.830810546875 -80.62718200683594 510.947998046875 -80.9241943359375 510.947998046875 C -81.00735473632812 510.947998046875 -81.09109497070312 510.9388427734375 -81.17399597167969 510.9200439453125 C -81.63299560546875 510.85302734375 -81.75299835205078 510.45703125 -81.90699768066406 510.1719970703125 C -81.98500061035156 509.8909912109375 -81.92900085449219 509.5910034179688 -81.75599670410156 509.3569946289062 C -81.56599426269531 509.1270141601562 -81.33999633789062 508.9329833984375 -81.14399719238281 508.6810302734375 C -80.97599792480469 508.4959716796875 -80.78799438476562 508.3280029296875 -80.58599853515625 508.1810302734375 C -79.60800170898438 507.4010009765625 -78.60900115966797 506.6279907226562 -77.63800048828125 505.8699951171875 C -77.20500183105469 505.5479736328125 -76.72699737548828 505.238037109375 -76.27400207519531 504.9210205078125 C -76.75862884521484 504.16748046875 -77.57544708251953 503.7562255859375 -78.40917205810547 503.756103515625 C -78.87774658203125 503.756103515625 -79.35150909423828 503.8859252929688 -79.77500152587891 504.157958984375 C -79.93299865722656 504.259033203125 -80.0780029296875 504.3779907226562 -80.20999908447266 504.510986328125 C -81.61500549316406 505.8670043945312 -82.68399810791016 507.531982421875 -83.33300018310547 509.3740234375 C -83.572998046875 510.114990234375 -83.76899719238281 510.8680419921875 -83.9219970703125 511.6309814453125 C -83.98300170898438 511.967041015625 -84.02200317382812 512.3070068359375 -84.03900146484375 512.6480102539062 C -84.20100402832031 515.0360107421875 -83.69999694824219 517.4219970703125 -82.58999633789062 519.5430297851562 C -81.64700317382812 521.5659790039062 -80.08499908447266 523.2360229492188 -78.12899780273438 524.31298828125 C -76.88993072509766 524.9708862304688 -75.52175903320312 525.3042602539062 -74.14878082275391 525.3042602539062 C -73.15935516357422 525.3042602539062 -72.16763305664062 525.1312866210938 -71.21900177001953 524.781982421875 C -69.87100219726562 524.281982421875 -68.65499877929688 523.4810180664062 -67.66300201416016 522.4400024414062 C -65.25099945068359 520.14599609375 -63.25399780273438 517.4520263671875 -61.75998687744141 514.4769897460938 C -61.10500335693359 513.2340087890625 -60.63700103759766 511.9019775390625 -60.37100219726562 510.52197265625 C -60.32199859619141 510.2020263671875 -60.27899932861328 509.9039916992188 -60.23000335693359 509.5849609375 C -60.60201263427734 509.8619995117188 -60.95600128173828 510.1619873046875 -61.29100036621094 510.4830322265625 C -62.99900054931641 512.093017578125 -64.69899749755859 513.6829833984375 -66.42900085449219 515.2860107421875 C -66.63135528564453 515.4843139648438 -66.89473724365234 515.5838623046875 -67.15837860107422 515.5838623046875 C -67.41329193115234 515.5838623046875 -67.66843414306641 515.4908447265625 -67.86900329589844 515.3040161132812 C -68.29199981689453 514.9249877929688 -68.3280029296875 514.2739868164062 -67.947998046875 513.8510131835938 C -67.93000030517578 513.8300170898438 -67.91000366210938 513.8099975585938 -67.88999938964844 513.791015625 C -67.44599914550781 513.3519897460938 -66.98600006103516 512.9409790039062 -66.5469970703125 512.5239868164062 C -64.54900360107422 510.6669921875 -62.54499816894531 508.7879638671875 -60.56999969482422 506.9229736328125 C -60.49001312255859 506.8160400390625 -60.44999694824219 506.6839599609375 -60.45800018310547 506.551025390625 C -60.74600219726562 505.5980224609375 -61.34500122070312 504.76904296875 -62.15899658203125 504.197021484375 C -62.20714569091797 504.1526489257812 -62.26799011230469 504.1307983398438 -62.32859802246094 504.1307983398438 C -62.39640045166016 504.1307983398438 -62.46389770507812 504.1581420898438 -62.51300048828125 504.2120361328125 L -62.52700042724609 504.22802734375 C -63.5 505.1530151367188 -64.46800231933594 506.0549926757812 -65.43900299072266 506.97998046875 C -67.00599670410156 508.4420166015625 -68.57900238037109 509.926025390625 -70.14599609375 511.3890380859375 C -70.33300018310547 511.5339965820312 -70.55100250244141 511.6319580078125 -70.78299713134766 511.6749877929688 C -70.82533264160156 511.6805419921875 -70.86751556396484 511.6832275390625 -70.90927886962891 511.6832275390625 C -71.32036590576172 511.6832275390625 -71.69374084472656 511.421630859375 -71.82900238037109 511.0239868164062 C -71.98799896240234 510.572021484375 -71.84500122070312 510.0689697265625 -71.47200012207031 509.76904296875 C -69.47499847412109 507.9110107421875 -67.47100067138672 506.031982421875 -65.4739990234375 504.1749877929688 C -65.19899749755859 503.8989868164062 -64.90899658203125 503.6530151367188 -64.57099914550781 503.3250122070312 C -64.84531402587891 503.3060302734375 -65.06102752685547 503.2862548828125 -65.25996398925781 503.2862548828125 M -65.25997161865234 500.2862548828125 C -64.99391937255859 500.2862548828125 -64.75318145751953 500.3038940429688 -64.52037048339844 500.3209228515625 C -64.47039031982422 500.3245849609375 -64.41828918457031 500.3284301757812 -64.36370086669922 500.3322143554688 C -63.66043090820312 500.3809204101562 -63.01340484619141 500.6731567382812 -62.51912689208984 501.1364135742188 C -62.45582580566406 501.1326904296875 -62.39234161376953 501.1307983398438 -62.32859802246094 501.1307983398438 C -61.60624694824219 501.1307983398438 -60.91220092773438 501.36865234375 -60.34538269042969 501.8058471679688 C -59.03339385986328 502.7572631835938 -58.05561828613281 504.130126953125 -57.58627319335938 505.6831665039062 C -57.5186767578125 505.9067993164062 -57.47744750976562 506.1376342773438 -57.46341705322266 506.3707885742188 C -57.43106842041016 506.9083862304688 -57.52184295654297 507.443603515625 -57.72366333007812 507.9361572265625 C -57.32378387451172 508.5442504882812 -57.14965057373047 509.2908325195312 -57.2647705078125 510.0404052734375 C -57.28916931152344 510.1992797851562 -57.31202697753906 510.352783203125 -57.33493804931641 510.5065307617188 C -57.35797119140625 510.6611328125 -57.38104248046875 510.81591796875 -57.40557098388672 510.9761352539062 C -57.41139984130859 511.01416015625 -57.41795349121094 511.052001953125 -57.42521667480469 511.0897827148438 C -57.74521636962891 512.7498779296875 -58.305908203125 514.3508911132812 -59.09177398681641 515.8486328125 C -60.73361968994141 519.11083984375 -62.90442657470703 522.043212890625 -65.54446411132812 524.565185546875 C -66.83469390869141 525.9021606445312 -68.43441772460938 526.9488525390625 -70.17569732666016 527.5947265625 C -70.17790985107422 527.5955810546875 -70.18013000488281 527.5963745117188 -70.18234252929688 527.59716796875 C -71.45648193359375 528.06640625 -72.79099273681641 528.3042602539062 -74.14878082275391 528.3042602539062 C -76.02001953125 528.3042602539062 -77.88285064697266 527.84033203125 -79.53587341308594 526.962646484375 C -79.54929351806641 526.95556640625 -79.56265258789062 526.9483032226562 -79.57595062255859 526.9409790039062 C -82.086181640625 525.558837890625 -84.05712890625 523.4617919921875 -85.27949523925781 520.8735961914062 C -86.62031555175781 518.2847900390625 -87.22659301757812 515.3817749023438 -87.03387451171875 512.4710693359375 C -87.00971984863281 512.0103149414062 -86.95587158203125 511.5475463867188 -86.87377166748047 511.09521484375 C -86.87049102783203 511.0771484375 -86.86705017089844 511.05908203125 -86.86344146728516 511.0410766601562 C -86.68762969970703 510.1644897460938 -86.46006011962891 509.2925415039062 -86.18701934814453 508.4495849609375 C -86.17916107177734 508.4253540039062 -86.17098999023438 508.4011840820312 -86.16252136230469 508.3771362304688 C -85.36567687988281 506.115478515625 -84.03495788574219 504.0394897460938 -82.31352233886719 502.3718872070312 C -82.03196716308594 502.091796875 -81.72355651855469 501.8436279296875 -81.39624786376953 501.6337890625 L -81.39625549316406 501.6337280273438 C -80.50233459472656 501.0596313476562 -79.46949005126953 500.7561645507812 -78.40939331054688 500.7561645507812 C -76.75666809082031 500.7562866210938 -75.21999359130859 501.4801025390625 -74.17517852783203 502.7225341796875 C -73.76127624511719 502.5113525390625 -73.34281158447266 502.3099365234375 -72.92049407958984 502.11865234375 C -70.55966949462891 500.984130859375 -68.03480529785156 500.3683471679688 -65.41555786132812 500.2883911132812 C -65.40815734863281 500.2881469726562 -65.4007568359375 500.2879638671875 -65.39334869384766 500.2877807617188 C -65.34921264648438 500.2867431640625 -65.30481719970703 500.2862548828125 -65.25997161865234 500.2862548828125 Z" stroke="none" fill="#563dbf"/></g><path d="M-89.436,558.113c-.152.378-.325.747-.51,1.108-.158.318-.328.617-.5.916-.2.332-.4.655-.625.959a65.065,65.065,0,0,1-26.853,8.887,65.1,65.1,0,0,1-32.811-5.086c-.062-.215-.113-.421-.165-.627l-.154-.617a39.354,39.354,0,0,1-1.171-7.007c-.343-5.2.834-9.9,5.149-13.306a47.927,47.927,0,0,1,4.262-3.031c1.085-.694,2.186-1.33,3.311-1.928a49.388,49.388,0,0,1,11.159-4.3c.421-.114.842-.217,1.266-.3a51.544,51.544,0,0,1,6.544-1.084,60.48,60.48,0,0,1,13.04.12c.6.069,1.211.147,1.813.236a2.343,2.343,0,0,1,.275.032,22.327,22.327,0,0,1,3.386.768.677.677,0,0,1,.125.037,19.334,19.334,0,0,1,9.827,6.813,11.94,11.94,0,0,1,1.2,2.1C-88.795,547.311-87.955,554.523-89.436,558.113Z" fill="#563dbf"/><path d="M-92.857,498.983a14.371,14.371,0,0,0-5.424-2.307c.565-4.073.558-8.211-1.1-12.059-7.587-17.622-29.765-12.242-31.024,5.976-2.4-3.491-4.264-6.911-7.908-8.885-16.475-8.916-31.6,9.862-20.3,25.148-.467.855-2.368,6.417-2.785,7.305Z" fill="#fff"/><path d="M-160.248,514.625l-2.292-.927c.158-.339.664-1.73,1.11-2.956.622-1.712,1.081-2.964,1.4-3.73-4.414-6.4-5.884-16.329,1.171-23.659,4.33-4.5,12.171-7.569,21.2-2.686,2.916,1.58,4.736,3.944,6.485,6.521a18.011,18.011,0,0,1,14.256-14.3c6.231-1.1,14.419,1.282,18.713,11.255a22.274,22.274,0,0,1,1.31,11.623,15.059,15.059,0,0,1,4.851,2.282l-1.609,1.872a13.176,13.176,0,0,0-4.9-2.072l-1.118-.215.151-1.083c.651-4.691.327-8.331-1.018-11.456-3.739-8.685-10.708-10.787-15.983-9.858-5.809,1.024-11.982,6.188-12.62,15.407l-.251,3.626-2.063-3.005c-.363-.528-.713-1.055-1.06-1.575-1.93-2.9-3.6-5.4-6.432-6.938-7.737-4.189-14.408-1.615-18.071,2.19-6.307,6.555-4.705,15.591-.547,21.213l.432.584-.354.648c-.22.4-1.026,2.619-1.559,4.085C-159.667,513.156-160.052,514.21-160.248,514.625Z" fill="#563dbf"/><path d="M-100.615,505.485c.146.765-2.078,1.835-4.972,2.39s-5.354.386-5.5-.379,2.078-1.834,4.971-2.39S-100.762,504.721-100.615,505.485Z" fill="#563dbf"/><path d="M-141.01,513.454c.072.774-2.246,1.624-5.179,1.9s-5.368-.134-5.44-.909,2.247-1.625,5.18-1.9S-141.082,512.679-141.01,513.454Z" fill="#563dbf"/><path d="M-109.392,498c.455,2.161-.3,4.15-1.691,4.442s-2.885-1.224-3.339-3.384.3-4.15,1.694-4.441S-109.845,495.842-109.392,498Z" fill="#563dbf"/><path d="M-128.163,507.889a1.615,1.615,0,0,1-1.031,2.02,1.614,1.614,0,0,1-1.828-1.342,1.615,1.615,0,0,1,1.031-2.02A1.615,1.615,0,0,1-128.163,507.889Z" fill="#563dbf"/><path d="M-137.61,517.827s12.816-7.146,25.62-4.98c0,0,2.268,16.1-10.3,18.27C-122.285,531.117-135.653,533.276-137.61,517.827Z" fill="#563dbf"/><path d="M-122.195,506.61a1.613,1.613,0,0,1-1.03,2.019,1.614,1.614,0,0,1-1.828-1.342,1.614,1.614,0,0,1,1.03-2.019A1.613,1.613,0,0,1-122.195,506.61Z" fill="#563dbf"/><path d="M-146.61,506.729l-.667-.193c.774-2.673,1.99-4.238,3.613-4.652,2.637-.671,5.3,1.978,5.412,2.089l-.493.49c-.024-.026-2.5-2.477-4.75-1.906C-144.861,502.907-145.91,504.31-146.61,506.729Z" fill="#563dbf" stroke="#563dbf" stroke-miterlimit="10" stroke-width="1"/><path d="M-116,525.162a13.866,13.866,0,0,1-15.35,1.68A23.286,23.286,0,0,1-116,525.162Z" fill="#fff"/><path d="M-97.036,471.211s4.8,19.513,3.007,27.484c0,0,14.086,1.125,10.764-16.9C-86.558,463.923-97.036,471.211-97.036,471.211Z" fill="#47494d"/><path d="M-164.854,503.17c.456-5.385,1.979-40.8,31.7-46.036,30.795-5.43,40.522,30.842,40.522,30.842a1.562,1.562,0,0,0,2.541-.857c-.784-2.431-8.334-39.333-44.188-34.519-25.507,3.425-35.742,30.394-33.2,50.15C-167.479,502.75-166.035,504.657-164.854,503.17Z" fill="#47494d"/><path d="M-162.609,480.448s.365,20.991,4.3,28.566c0,0-13.929,4.9-15.386-14.2C-175.139,475.883-162.609,480.448-162.609,480.448Z" fill="#47494d"/><g fill="#fff" stroke-linecap="round" stroke-linejoin="round"><path d="M -148.7354736328125 563.82177734375 C -150.5979309082031 563.82177734375 -152.3444519042969 563.2235717773438 -153.7861785888672 562.0919189453125 C -155.6301879882812 560.6441650390625 -156.7657318115234 558.49658203125 -156.9837341308594 556.0447387695312 C -157.1973876953125 553.6419067382812 -156.5002136230469 551.2254638671875 -155.0206298828125 549.2405395507812 L -155.0034027099609 549.2174072265625 L -154.9852905273438 549.1950073242188 C -153.9866790771484 547.9575805664062 -152.7878723144531 546.9547119140625 -151.4215698242188 546.2137451171875 C -145.3533477783203 542.5873413085938 -139.244140625 538.9219970703125 -133.2629852294922 535.319091796875 L -133.2587127685547 535.3165283203125 L -133.2544097900391 535.31396484375 C -132.3937072753906 534.8032836914062 -131.4752044677734 534.2570190429688 -130.5409088134766 533.6873168945312 L -128.6466827392578 532.5323486328125 L -128.2805633544922 534.720458984375 C -127.927604675293 536.8299560546875 -127.4082870483398 538.55859375 -126.6929168701172 540.0051879882812 C -125.8913879394531 541.6260375976562 -124.8385696411133 542.9110717773438 -123.4742965698242 543.9337158203125 L -121.8916168212891 545.1201171875 L -123.4609680175781 546.3240966796875 C -124.0731658935547 546.7937622070312 -124.4814453125 547.1254272460938 -124.8261337280273 547.43310546875 L -124.8611602783203 547.46435546875 L -124.8980560302734 547.4933471679688 C -126.1705474853516 548.4935302734375 -127.4684143066406 549.5172119140625 -128.7235412597656 550.5072021484375 C -129.9796600341797 551.4979858398438 -131.2785491943359 552.5225219726562 -132.5530548095703 553.5242919921875 C -133.6879119873047 554.4160766601562 -134.8376007080078 555.32373046875 -135.9494171142578 556.2015380859375 C -137.5846710205078 557.4926147460938 -139.2754364013672 558.8275146484375 -140.9432220458984 560.1307983398438 C -141.8737640380859 560.9178466796875 -142.8517150878906 561.664794921875 -143.850341796875 562.3511352539062 L -143.8723602294922 562.3662719726562 L -143.8949127197266 562.380615234375 C -145.3770446777344 563.3234252929688 -147.0508880615234 563.82177734375 -148.7354736328125 563.82177734375 Z" stroke="none"/><path d="M -129.7599945068359 534.968017578125 C -130.6799926757812 535.5289916992188 -131.5839996337891 536.0670166015625 -132.4889984130859 536.60400390625 C -138.5500030517578 540.2550048828125 -144.6139984130859 543.8930053710938 -150.6799926757812 547.5180053710938 C -151.8739929199219 548.1610107421875 -152.9440002441406 549.0540161132812 -153.8179931640625 550.1370239257812 C -156.4210052490234 553.6290283203125 -155.9920043945312 558.4530029296875 -152.8600006103516 560.9119873046875 C -151.6648101806641 561.8501586914062 -150.2193603515625 562.32177734375 -148.7354736328125 562.32177734375 C -147.3674926757812 562.32177734375 -145.9668273925781 561.9208374023438 -144.6999969482422 561.114990234375 C -143.7310028076172 560.448974609375 -142.7929992675781 559.7319946289062 -141.8899993896484 558.9669799804688 C -139.0859985351562 556.7760009765625 -136.2949981689453 554.5570068359375 -133.4799957275391 552.344970703125 C -130.9329986572266 550.343017578125 -128.3719940185547 548.3159790039062 -125.8249969482422 546.3140258789062 C -125.3970031738281 545.9320068359375 -124.9150085449219 545.5490112304688 -124.3739929199219 545.1339721679688 C -127.6490020751953 542.6790161132812 -129.072998046875 539.073974609375 -129.7599945068359 534.968017578125 M -129.7598419189453 531.968017578125 C -129.3355712890625 531.968017578125 -128.91015625 532.0579223632812 -128.5128479003906 532.2395629882812 C -127.6068572998047 532.6536254882812 -126.9655151367188 533.490478515625 -126.8011169433594 534.4729614257812 C -126.1273651123047 538.4998168945312 -124.8238677978516 541.0474853515625 -122.5746002197266 542.7335205078125 C -121.8235321044922 543.2965087890625 -121.3792572021484 544.1785888671875 -121.3740386962891 545.1172485351562 C -121.3688049316406 546.055908203125 -121.80322265625 546.94287109375 -122.5479888916016 547.5142211914062 C -123.1290130615234 547.9599609375 -123.5116119384766 548.2703857421875 -123.8273162841797 548.5521850585938 C -123.8739776611328 548.5938110351562 -123.9219360351562 548.6339721679688 -123.9711151123047 548.6726684570312 C -125.2425994873047 549.6720581054688 -126.5399627685547 550.6953735351562 -127.7946014404297 551.6849365234375 C -129.0512084960938 552.6761474609375 -130.3506011962891 553.7010498046875 -131.6260986328125 554.70361328125 C -132.7599639892578 555.5946044921875 -133.9091644287109 556.5018920898438 -135.0205383300781 557.3793334960938 C -136.6497039794922 558.6655883789062 -138.3339233398438 559.9953002929688 -139.9971618652344 561.295166015625 C -140.958984375 562.1073608398438 -141.9691925048828 562.8783569335938 -143.0007019042969 563.5873413085938 C -143.0300445556641 563.6074829101562 -143.0597686767578 563.6271362304688 -143.0898132324219 563.646240234375 C -144.8129730224609 564.7423706054688 -146.7652130126953 565.32177734375 -148.7354736328125 565.32177734375 C -150.9370880126953 565.32177734375 -153.0038452148438 564.6129150390625 -154.7123718261719 563.2717895507812 C -156.8855895996094 561.5655517578125 -158.2227783203125 559.0462036132812 -158.4778289794922 556.1776123046875 C -158.7241821289062 553.406982421875 -157.9234924316406 550.625 -156.2232666015625 548.3440551757812 C -156.2003021240234 548.313232421875 -156.1767272949219 548.2828979492188 -156.152587890625 548.2529907226562 C -155.0359191894531 546.8692626953125 -153.6946411132812 545.7450561523438 -152.1652221679688 544.9107055664062 C -146.1073150634766 541.2904663085938 -140.0086212158203 537.6314086914062 -134.0369720458984 534.0342407226562 C -134.0312805175781 534.03076171875 -134.0255737304688 534.02734375 -134.0198516845703 534.0239868164062 C -133.1628875732422 533.5155029296875 -132.2486572265625 532.9717407226562 -131.3218078613281 532.4066162109375 C -130.8442687988281 532.115478515625 -130.3030242919922 531.968017578125 -129.7598419189453 531.968017578125 Z" stroke="none" fill="#563dbf"/></g><g fill="#fff" stroke-linecap="round" stroke-linejoin="round"><path d="M -119.5099411010742 545.2762451171875 C -119.5101013183594 545.2762451171875 -119.5102386474609 545.2762451171875 -119.5103988647461 545.2762451171875 C -121.9017562866211 545.2761840820312 -124.2164764404297 544.4163818359375 -126.0281448364258 542.8553466796875 L -126.0369644165039 542.8477172851562 L -126.0456695556641 542.8400268554688 C -127.9561233520508 541.1414794921875 -129.2544097900391 538.9259033203125 -129.8016815185547 536.43115234375 C -130.4754333496094 533.8632202148438 -130.4305419921875 531.163330078125 -129.6714172363281 528.61962890625 C -129.5632019042969 528.2310791015625 -129.4278411865234 527.8468627929688 -129.2690124511719 527.4774780273438 L -129.2650756835938 527.4683227539062 L -129.2610015869141 527.4591674804688 C -128.9247589111328 526.7050170898438 -128.5368194580078 525.9561767578125 -128.1079711914062 525.2335205078125 L -128.0978546142578 525.2164916992188 L -128.0872802734375 525.19970703125 C -126.9312362670898 523.364013671875 -125.3408126831055 521.7988891601562 -123.4874877929688 520.6727294921875 C -123.2394332885742 520.5158081054688 -122.975227355957 520.3866577148438 -122.7018890380859 520.2886352539062 C -122.2593002319336 520.1286010742188 -121.7976837158203 520.0474853515625 -121.3297958374023 520.0474853515625 C -119.6375961303711 520.0474853515625 -118.1139602661133 521.1165771484375 -117.5384292602539 522.7078247070312 L -117.3084182739258 523.34375 C -116.4622497558594 523.0873413085938 -115.6040191650391 522.8697509765625 -114.7403182983398 522.6930541992188 C -113.4846649169922 522.4047241210938 -112.1944885253906 522.2584838867188 -110.9054565429688 522.2584838867188 C -109.8060607910156 522.2584838867188 -108.7010269165039 522.365234375 -107.6210708618164 522.57568359375 L -107.6153411865234 522.5767822265625 L -107.6096267700195 522.5779418945312 C -107.3733901977539 522.6259155273438 -107.1549682617188 522.6920776367188 -106.9237289428711 522.76220703125 C -106.8697509765625 522.778564453125 -106.8133010864258 522.795654296875 -106.7538146972656 522.8134155273438 L -103.5289611816406 523.7738647460938 L -104.3397979736328 524.2701416015625 C -104.1617584228516 524.3751831054688 -104.001953125 524.511962890625 -103.8692779541016 524.6758422851562 C -103.0064315795898 525.6499633789062 -102.4808883666992 526.8992919921875 -102.3878173828125 528.2009887695312 L -102.3747100830078 528.3843383789062 L -102.4062576293945 528.5654296875 C -102.4233245849609 528.6633911132812 -102.447395324707 528.7595825195312 -102.4780883789062 528.8533325195312 L -101.5861206054688 528.4578247070312 L -102.9396896362305 531.8701171875 C -103.0002670288086 532.0228271484375 -103.0576477050781 532.1707153320312 -103.1151657104492 532.3190307617188 C -103.1704406738281 532.4614868164062 -103.2258377075195 532.604248046875 -103.2840347290039 532.75146484375 L -103.2941970825195 532.7771606445312 L -103.3052978515625 532.802490234375 C -103.9266052246094 534.2191162109375 -104.7523880004883 535.5347900390625 -105.7599334716797 536.7133178710938 C -107.9810104370117 539.4105834960938 -110.6286010742188 541.6865234375 -113.6292953491211 543.4781494140625 C -115.0012130737305 544.3834838867188 -116.5862274169922 544.975830078125 -118.2157592773438 545.1920166015625 C -118.6458740234375 545.248046875 -119.0801620483398 545.2762451171875 -119.5099411010742 545.2762451171875 Z" stroke="none"/><path d="M -121.3297958374023 521.5474853515625 C -121.6167831420898 521.5474853515625 -121.9085311889648 521.5965576171875 -122.1940002441406 521.7000122070312 C -122.3699951171875 521.7630004882812 -122.5379943847656 521.8460083007812 -122.6959991455078 521.947021484375 C -124.3659973144531 522.958984375 -125.7770004272461 524.3460083007812 -126.818000793457 525.9990234375 C -127.2149963378906 526.6680297851562 -127.5739974975586 527.3590087890625 -127.890998840332 528.0700073242188 C -128.0260009765625 528.3839721679688 -128.1390075683594 528.7059936523438 -128.2299957275391 529.0349731445312 C -128.9170074462891 531.3280029296875 -128.9559936523438 533.7659912109375 -128.3429870605469 536.0800170898438 C -127.8709945678711 538.260986328125 -126.7170104980469 540.2360229492188 -125.0490112304688 541.718994140625 C -123.499755859375 543.053955078125 -121.531135559082 543.7762451171875 -119.5103302001953 543.7762451171875 C -119.1454315185547 543.7762451171875 -118.779167175293 543.7527465820312 -118.4129943847656 543.7050170898438 C -116.9879989624023 543.5159912109375 -115.625 543.0040283203125 -114.4280014038086 542.2080078125 C -111.568000793457 540.5050048828125 -109.0239944458008 538.3200073242188 -106.9089965820312 535.7490234375 C -105.9949951171875 534.6820068359375 -105.2429962158203 533.4860229492188 -104.6790008544922 532.2000122070312 C -104.5599975585938 531.8989868164062 -104.4530029296875 531.6170043945312 -104.3339996337891 531.3170166015625 C -104.7579956054688 531.5050048828125 -105.1699981689453 531.718994140625 -105.568000793457 531.9580078125 C -107.588996887207 533.1510009765625 -109.5989990234375 534.323974609375 -111.640998840332 535.5050048828125 C -111.8108215332031 535.609619140625 -111.9994659423828 535.65966796875 -112.1859893798828 535.65966796875 C -112.5200653076172 535.65966796875 -112.8475036621094 535.4992065429688 -113.0490112304688 535.2039794921875 C -113.3779983520508 534.739990234375 -113.2689971923828 534.0980224609375 -112.8050003051758 533.7689819335938 C -112.7819976806641 533.7529907226562 -112.7589950561523 533.7379760742188 -112.7350006103516 533.7239990234375 C -112.2039947509766 533.3930053710938 -111.6660003662109 533.094970703125 -111.1449966430664 532.7849731445312 C -108.7860107421875 531.416015625 -106.4150009155273 530.0269775390625 -104.0769958496094 528.64599609375 C -103.9750061035156 528.5590209960938 -103.9069976806641 528.4400024414062 -103.8840026855469 528.3079833984375 C -103.9550018310547 527.3150024414062 -104.3550109863281 526.3740234375 -105.0230102539062 525.635986328125 C -105.0712585449219 525.5654296875 -105.1497650146484 525.5274658203125 -105.229606628418 525.5274658203125 C -105.2788162231445 525.5274658203125 -105.3285293579102 525.5418701171875 -105.3720016479492 525.572021484375 L -105.3889999389648 525.5850219726562 C -106.5429992675781 526.27099609375 -107.6849975585938 526.93701171875 -108.8379974365234 527.6240234375 C -110.6890106201172 528.7030029296875 -112.552001953125 529.802001953125 -114.4039993286133 530.8820190429688 C -114.5985412597656 530.9733276367188 -114.8114624023438 531.0213012695312 -115.0267028808594 531.0213012695312 C -115.0471267700195 531.0213012695312 -115.0675430297852 531.0208740234375 -115.0879974365234 531.02001953125 C -115.5490112304688 530.9769897460938 -115.9160003662109 530.614013671875 -115.9629974365234 530.1530151367188 C -116.0189971923828 529.677978515625 -115.7679977416992 529.218994140625 -115.3379974365234 529.0079956054688 C -112.9789962768555 527.6389770507812 -110.609001159668 526.25 -108.2509994506836 524.8800048828125 C -107.9219970703125 524.6719970703125 -107.5839996337891 524.4970092773438 -107.181999206543 524.2509765625 C -107.4739990234375 524.1640014648438 -107.6959991455078 524.0910034179688 -107.9079971313477 524.0479736328125 C -108.8981628417969 523.85498046875 -109.9021453857422 523.7584838867188 -110.9054565429688 523.7584838867188 C -112.0857620239258 523.7584838867188 -113.265266418457 523.8919677734375 -114.4219970703125 524.1589965820312 C -116.015998840332 524.4840087890625 -117.5789947509766 524.9520263671875 -119.0899963378906 525.5570068359375 C -119.4359970092773 525.7020263671875 -122.7369995117188 527.2470092773438 -122.8429946899414 527.2940063476562 C -123.2229995727539 527.4990234375 -123.6039962768555 527.7030029296875 -123.9619979858398 527.9210205078125 C -124.1455383300781 528.0364990234375 -124.3552627563477 528.0950317382812 -124.565559387207 528.0950317382812 C -124.7322311401367 528.0950317382812 -124.8992462158203 528.0582885742188 -125.0540008544922 527.9840087890625 C -125.4869995117188 527.8170166015625 -125.5169982910156 527.405029296875 -125.6029968261719 527.0919799804688 C -125.6169967651367 526.802001953125 -125.4959945678711 526.52099609375 -125.2760009765625 526.3309936523438 C -125.0400009155273 526.1489868164062 -124.7770004272461 526.0089721679688 -124.5299987792969 525.8079833984375 C -124.3239974975586 525.6640014648438 -124.1050109863281 525.5419921875 -123.8740005493164 525.4429931640625 C -122.7490005493164 524.8989868164062 -121.6029968261719 524.3660278320312 -120.4879989624023 523.8419799804688 C -119.9949951171875 523.6229858398438 -119.4599990844727 523.427001953125 -118.9489974975586 523.218017578125 C -119.3217544555664 522.1874389648438 -120.2937698364258 521.5475463867188 -121.3297958374023 521.5474853515625 M -121.3298873901367 518.5474853515625 C -121.3298187255859 518.5474853515625 -121.3297500610352 518.5474853515625 -121.3296890258789 518.5474853515625 C -119.2501068115234 518.547607421875 -117.3560943603516 519.7244873046875 -116.4161911010742 521.5386962890625 C -115.965576171875 521.4242553710938 -115.5127487182617 521.3203125 -115.0583343505859 521.22705078125 C -113.6982421875 520.9161376953125 -112.30126953125 520.7584838867188 -110.9054565429688 520.7584838867188 C -109.7099914550781 520.7584838867188 -108.508415222168 520.87451171875 -107.3341369628906 521.1033935546875 C -107.3264999389648 521.1048583984375 -107.3188781738281 521.1063842773438 -107.3112487792969 521.10791015625 C -107.0058364868164 521.169921875 -106.7428970336914 521.2496337890625 -106.4886169433594 521.32666015625 C -106.4368515014648 521.3423461914062 -106.382698059082 521.3588256835938 -106.3256454467773 521.3757934570312 C -105.6469192504883 521.5779418945312 -105.0773239135742 522.0075073242188 -104.6962127685547 522.5713500976562 C -103.9268798828125 522.6990966796875 -103.2262573242188 523.0999145507812 -102.7258911132812 523.70458984375 C -101.6576385498047 524.9209594726562 -101.0073852539062 526.4752197265625 -100.8916473388672 528.0940551757812 C -100.8742370605469 528.3375244140625 -100.8866119384766 528.5822143554688 -100.9284820556641 528.8226928710938 C -101.0191497802734 529.34326171875 -101.2247772216797 529.8353271484375 -101.5251007080078 530.2632446289062 C -101.2688140869141 530.9468994140625 -101.2648773193359 531.7161254882812 -101.5454254150391 532.4232788085938 C -101.6046142578125 532.572509765625 -101.6606750488281 532.717041015625 -101.7168731689453 532.8619384765625 C -101.7732391357422 533.0072021484375 -101.8297271728516 533.1527709960938 -101.8890838623047 533.3029174804688 C -101.9026336669922 533.337158203125 -101.9167938232422 533.3711547851562 -101.9315948486328 533.4049072265625 C -102.6101989746094 534.9522094726562 -103.5115356445312 536.3895874023438 -104.6106414794922 537.6773071289062 C -106.9327545166016 540.494873046875 -109.6983489990234 542.873779296875 -112.8317947387695 544.7490234375 C -114.3852462768555 545.7677612304688 -116.1769180297852 546.4346923828125 -118.0185165405273 546.678955078125 C -118.0207748413086 546.6792602539062 -118.0230484008789 546.6795654296875 -118.0253067016602 546.6798706054688 C -118.5161209106445 546.7438354492188 -119.015754699707 546.7762451171875 -119.5103302001953 546.7762451171875 C -122.2608795166016 546.7762451171875 -124.9233474731445 545.787353515625 -127.0073013305664 543.99169921875 C -127.0190582275391 543.9815673828125 -127.0307312011719 543.9713134765625 -127.0423278808594 543.9609985351562 C -129.1835327148438 542.0573120117188 -130.6409912109375 539.5763549804688 -131.2602844238281 536.7823486328125 C -131.9947509765625 533.96142578125 -131.9437561035156 530.9971923828125 -131.1125335693359 528.2032470703125 C -130.9869689941406 527.7548828125 -130.8304290771484 527.3115234375 -130.6470336914062 526.8849487304688 C -130.6417694091797 526.8727416992188 -130.6364288330078 526.8605346679688 -130.6309967041016 526.848388671875 C -130.2711791992188 526.0413208007812 -129.8563232421875 525.240478515625 -129.3979187011719 524.468017578125 C -129.3844299316406 524.4453125 -129.3706359863281 524.4227294921875 -129.3565368652344 524.4003295898438 C -128.0795593261719 522.3726196289062 -126.3239212036133 520.6433715820312 -124.2776412963867 519.397705078125 C -123.941276550293 519.1860961914062 -123.5829467773438 519.0113525390625 -123.2119369506836 518.8779907226562 C -122.6053085327148 518.65869140625 -121.9721221923828 518.5474853515625 -121.3298873901367 518.5474853515625 Z" stroke="none" fill="#563dbf"/></g><path d="M-114.161,518.163s18.5-4.815,25.456-13.913a6.814,6.814,0,0,1-.638,3.146c-1.629,4.031-11.992,9.832-23.873,12.949C-117.663,521.51-114.161,518.163-114.161,518.163Z" fill="#47494d"/><path d="M-114.13,520.12c.152,1.9-1.863,3.612-4.5,3.821s-4.9-1.159-5.052-3.057,1.865-3.611,4.5-3.822S-114.28,518.222-114.13,520.12Z" fill="#585858" stroke="#563dbf" stroke-width="1"/><path d="M-50.875,435.894c.432-.432.852-.846,1.266-1.266l7.966-7.966a1.071,1.071,0,0,1,1.147-.3,1.057,1.057,0,0,1,.758.877,1.076,1.076,0,0,1-.326.984l-2.193,2.193-7.7,7.7a1.121,1.121,0,0,1-1.576.147,1.2,1.2,0,0,1-.1-.091l-3.987-3.448a1.11,1.11,0,0,1-.184-1.559,1.11,1.11,0,0,1,1.559-.184c.025.02.049.041.073.063,1.057.913,2.1,1.822,3.152,2.731A1.63,1.63,0,0,0-50.875,435.894Z" fill="#563dbf"/><path d="M-213.2,580.8c.432-.432.852-.846,1.266-1.266l7.966-7.966a1.072,1.072,0,0,1,1.147-.3,1.06,1.06,0,0,1,.758.877,1.079,1.079,0,0,1-.326.984l-2.193,2.193-7.7,7.7a1.119,1.119,0,0,1-1.576.147.925.925,0,0,1-.1-.091l-3.987-3.448a1.109,1.109,0,0,1-.184-1.559,1.11,1.11,0,0,1,1.558-.184c.026.02.05.041.074.063,1.057.913,2.1,1.822,3.152,2.731A1.242,1.242,0,0,0-213.2,580.8Z" fill="#563dbf"/></g></svg>