<svg xmlns="http://www.w3.org/2000/svg" viewBox="0 0 205.425 186.4">
  <defs>
    <style>
      .cls-1 {
        fill: #fff;
      }

      .cls-2 {
        fill: none;
        stroke: #b0b0b0;
        stroke-width: 2px;
        stroke-dasharray: 0 10;
      }

      .cls-3, .cls-5 {
        fill: #563dbf;
      }

      .cls-3 {
        opacity: 0.047;
      }

      .cls-4 {
        opacity: 0.042;
      }

      .cls-6 {
        fill: #707070;
      }
    </style>
  </defs>
  <g id="ic_rechazado_carrito" transform="translate(-0.075 -0.021)">
    <g id="Group_2044" data-name="Group 2044" transform="translate(5 -24.237)">
      <g id="Group_2041" data-name="Group 2041" transform="translate(793.564 335.458)">
        <circle id="Ellipse_119" data-name="Ellipse 119" class="cls-1" cx="93.2" cy="93.2" r="93.2" transform="translate(-785.4 -311.2)"/>
        <circle id="Ellipse_120" data-name="Ellipse 120" class="cls-2" cx="92.2" cy="92.2" r="92.2" transform="translate(-784.4 -310.2)"/>
      </g>
      <circle id="Ellipse_121" data-name="Ellipse 121" class="cls-3" cx="85.5" cy="85.5" r="85.5" transform="translate(16.2 33)"/>
      <g id="Group_2042" data-name="Group 2042" class="cls-4" transform="translate(820.794 362.604)">
        <path id="Path_2209" data-name="Path 2209" class="cls-5" d="M-720-180.7a64.255,64.255,0,0,1-25.3-5.1,55.747,55.747,0,0,1-11-6,66.114,66.114,0,0,1-9.6-7.9,66.118,66.118,0,0,1-7.9-9.6,69.164,69.164,0,0,1-6-11,64.254,64.254,0,0,1-5.1-25.3,65.832,65.832,0,0,1,5.1-25.4,65.784,65.784,0,0,1,9.7-16,65.655,65.655,0,0,1,13.8-12.5,64.744,64.744,0,0,1,36.4-11.1,64.255,64.255,0,0,1,25.3,5.1,55.747,55.747,0,0,1,11,6,66.113,66.113,0,0,1,9.6,7.9,66.118,66.118,0,0,1,7.9,9.6,69.165,69.165,0,0,1,6,11,64.254,64.254,0,0,1,5.1,25.3,64.255,64.255,0,0,1-5.1,25.3,55.744,55.744,0,0,1-6,11,66.115,66.115,0,0,1-7.9,9.6,66.119,66.119,0,0,1-9.6,7.9,69.166,69.166,0,0,1-11,6A65.2,65.2,0,0,1-720-180.7Z"/>
        <path id="Path_2210" data-name="Path 2210" class="cls-6" d="M-720-310.2a64.469,64.469,0,0,0-36.1,11,70.225,70.225,0,0,0-13.7,12.4,62.441,62.441,0,0,0-9.6,15.8,64.489,64.489,0,0,0-5.1,25.2,63.29,63.29,0,0,0,5.1,25.1,68.593,68.593,0,0,0,5.9,11,65.3,65.3,0,0,0,7.9,9.5,65.3,65.3,0,0,0,9.5,7.9,61.029,61.029,0,0,0,11,5.9,63.29,63.29,0,0,0,25.1,5.1,63.289,63.289,0,0,0,25.1-5.1,68.6,68.6,0,0,0,11-5.9,65.3,65.3,0,0,0,9.5-7.9,65.3,65.3,0,0,0,7.9-9.5,61.033,61.033,0,0,0,5.9-11,63.289,63.289,0,0,0,5.1-25.1,63.29,63.29,0,0,0-5.1-25.1,68.594,68.594,0,0,0-5.9-11,65.3,65.3,0,0,0-7.9-9.5,65.3,65.3,0,0,0-9.5-7.9,61.031,61.031,0,0,0-11-5.9,65.36,65.36,0,0,0-25.1-5m0-1a65.468,65.468,0,0,1,65.5,65.5A65.468,65.468,0,0,1-720-180.2a65.468,65.468,0,0,1-65.5-65.5,65.441,65.441,0,0,1,5.2-25.6A65.454,65.454,0,0,1-720-311.2Z"/>
      </g>
      <g id="Group_2043" data-name="Group 2043" transform="translate(785 344.425)">
        <path id="Path_2211" data-name="Path 2211" class="cls-5" d="M-587.7-210.6h3.2v3.3h-3.2Z"/>
        <path id="Path_2212" data-name="Path 2212" class="cls-5" d="M-785.5-230.5v-3.3h3.3v3.3Z"/>
        <path id="Path_2213" data-name="Path 2213" class="cls-5" d="M-748.9-158.4h-3.3v-3.3h3.3Z"/>
      </g>
    </g>
    <g id="Group_2045" data-name="Group 2045">
      <path id="Path_2214" data-name="Path 2214" class="cls-1" d="M155.1,77.2a18.946,18.946,0,0,1-11.7,17.7,1.344,1.344,0,0,0-.6.7c-.4.6-.2,1.1.1,1.8a17.841,17.841,0,0,1,1.8,15.4,19.681,19.681,0,0,1-2.1,4.4c-.7,1-1.4,2-2.1,2.9a18.138,18.138,0,0,1-2.4,2.4,27.461,27.461,0,0,1-2.6,2.2,38.542,38.542,0,0,1-7.1,4.1,49.182,49.182,0,0,1-12.4,3.7,61.085,61.085,0,0,1-8.5.8,55.894,55.894,0,0,1-17.8-2.4,39.929,39.929,0,0,1-12.8-6.6,23.621,23.621,0,0,1-7.4-9.2,18.2,18.2,0,0,1,1.2-16.8.6.6,0,0,0,0-.7.367.367,0,0,1-.1-.3c-.1-.7-.7-.9-1.2-1.1a26.39,26.39,0,0,1-2.9-1.5,19.088,19.088,0,0,1-7.6-8.8,20.284,20.284,0,0,1-1.5-6.8,20.317,20.317,0,0,1,1.2-6.8,18.906,18.906,0,0,1,8.7-10A22.109,22.109,0,0,1,76,59.6a1.012,1.012,0,0,0,.7-.4,36.322,36.322,0,0,1,9.9-7.9,40.384,40.384,0,0,1,21.8-5.1,39.413,39.413,0,0,1,26.6,12,.908.908,0,0,0,.7.3c8.2.4,15.6,5.7,18.1,13.1A12.417,12.417,0,0,1,155.1,77.2Z"/>
      <path id="Path_2215" data-name="Path 2215" class="cls-5" d="M155.1,77.2a17.015,17.015,0,0,0-1.1-5.8,20.26,20.26,0,0,0-18.1-13.1.908.908,0,0,1-.7-.3,38.461,38.461,0,0,0-11.6-8.3,40.526,40.526,0,0,0-36.8,1.4A38.309,38.309,0,0,0,76.9,59c-.2.2-.3.4-.7.4A20.477,20.477,0,0,0,58.8,72.1a17.813,17.813,0,0,0,.3,13.6,18.535,18.535,0,0,0,7.6,8.8A26.39,26.39,0,0,0,69.6,96c.5.3,1.1.5,1.2,1.1,0,.1.1.2.1.3.2.2.1.4,0,.7a17.9,17.9,0,0,0-1.2,16.8,23.621,23.621,0,0,0,7.4,9.2,38.047,38.047,0,0,0,6.6,4.1c.5.2,1,.5,1.5.7a36.11,36.11,0,0,0,4.6,1.7,53.815,53.815,0,0,0,13.3,2.4c1.5.1,3,.1,4.5.1a64.068,64.068,0,0,0,8.5-.8,48.354,48.354,0,0,0,9.9-2.7c.2-.1.3-.1.5-.2l2.1-.9a38.542,38.542,0,0,0,7.1-4.1,27.464,27.464,0,0,0,2.6-2.2c.8-.8,1.6-1.5,2.4-2.4.2-.2.3-.4.4-.5.6-.8,1.1-1.5,1.7-2.3a18.591,18.591,0,0,0,.3-19.8,1.5,1.5,0,0,1-.1-1.8,2.036,2.036,0,0,1,.6-.7,19.341,19.341,0,0,0,11-12.4A20.534,20.534,0,0,0,155.1,77.2Zm-94.7-.1A16.907,16.907,0,0,1,74.2,62.4c-.3.4-.5.7-.7,1A43.983,43.983,0,0,0,70.4,69a.451.451,0,0,1-.3.3,10.981,10.981,0,0,0-3.5,4.2,19.452,19.452,0,0,0-.8,2.2A11.271,11.271,0,0,0,67.3,85a2.4,2.4,0,0,1,.4,1.6,31.364,31.364,0,0,0,1.2,6.1v.2A16.241,16.241,0,0,1,60.4,77.1Zm82.4,27.6a15.906,15.906,0,0,1-3.3,12.2,28.247,28.247,0,0,1-9,7.8,44.936,44.936,0,0,1-7.8,3.4c-1.4.5-2.8.8-4.2,1.2a11.8,11.8,0,0,1-2,.4,60.29,60.29,0,0,1-9.9,1H105c-1,0-2-.1-3-.1a48.633,48.633,0,0,1-13.3-2.8h0a8.651,8.651,0,0,1-1.7-.7,31.9,31.9,0,0,1-8.7-5.2,22.119,22.119,0,0,1-5.8-7.1,15.5,15.5,0,0,1,.3-14.5l.3-.6c.2-.4.5-.8.8-1.3.2-.2.2-.4,0-.7a5.937,5.937,0,0,1-.4-.8c-.2-.4-.4-.9-.6-1.4a32.717,32.717,0,0,1-1.7-5.3,33.984,33.984,0,0,1-.5-12.3,32.722,32.722,0,0,1,7-15.8,33.907,33.907,0,0,1,8.7-7.7A30.9,30.9,0,0,1,90.8,52a39.121,39.121,0,0,1,12.6-3.3,38.226,38.226,0,0,1,11.2.7A35.925,35.925,0,0,1,128,55.3a34.627,34.627,0,0,1,9.2,9.5,31.591,31.591,0,0,1,3.4,6.9,32.38,32.38,0,0,1-.2,22.4,6.117,6.117,0,0,1-.5,1.2c0,.1,0,.1-.1.2-.1.3-.3.6-.4.9v.1a.1.1,0,0,1-.1.1v.3A15.3,15.3,0,0,1,142.8,104.7Zm1.3-13.1a20.938,20.938,0,0,0,.5-2.1c.2-1.7.4-3.4.6-5.2,0-.2.1-.3.2-.5a11.426,11.426,0,0,0-.9-13.8,20.887,20.887,0,0,0-2.2-2c-.1-.1-.3-.2-.4-.4a35.5,35.5,0,0,0-3.8-6.2.349.349,0,0,1-.1-.2,15.982,15.982,0,0,1,5.8,2,16.139,16.139,0,0,1,.3,28.4Z"/>
    </g>
    <g id="Group_2046" data-name="Group 2046" transform="translate(968 227.304)">
      <path id="Path_2216" data-name="Path 2216" class="cls-5" d="M-795-206.3l4.4-4.4a.913.913,0,0,0,0-1.2.785.785,0,0,0-1.1,0l-4.4,4.4-4.4-4.4a.913.913,0,0,0-1.2,0,.785.785,0,0,0,0,1.1l4.4,4.4-4.4,4.4a.913.913,0,0,0,0,1.2.785.785,0,0,0,1.1,0l4.4-4.4,4.4,4.4a.91.91,0,0,0,1.2,0,.91.91,0,0,0,0-1.2h0Z"/>
    </g>
    <g id="Group_2047" data-name="Group 2047" transform="translate(968 227.304)">
      <path id="Path_2217" data-name="Path 2217" class="cls-5" d="M-795-206.3l4.4-4.4a.913.913,0,0,0,0-1.2.785.785,0,0,0-1.1,0l-4.4,4.4-4.4-4.4a.913.913,0,0,0-1.2,0,.785.785,0,0,0,0,1.1l4.4,4.4-4.4,4.4a.913.913,0,0,0,0,1.2.785.785,0,0,0,1.1,0l4.4-4.4,4.4,4.4a.91.91,0,0,0,1.2,0,.91.91,0,0,0,0-1.2h0Z"/>
    </g>
    <g id="Group_2048" data-name="Group 2048" transform="translate(804 367.304)">
      <path id="Path_2218" data-name="Path 2218" class="cls-5" d="M-797-213.3l4.4-4.4a.913.913,0,0,0,0-1.2.785.785,0,0,0-1.1,0l-4.4,4.4-4.4-4.4a.913.913,0,0,0-1.2,0,.785.785,0,0,0,0,1.1l4.4,4.4-4.4,4.4a.913.913,0,0,0,0,1.2.785.785,0,0,0,1.1,0l4.4-4.4,4.4,4.4a.91.91,0,0,0,1.2,0,.91.91,0,0,0,0-1.2h0Z"/>
    </g>
    <g id="Group_2049" data-name="Group 2049">
      <path id="Path_2219" data-name="Path 2219" class="cls-1" d="M142.1,98.7a13.941,13.941,0,0,0-4.8-3.4c1.4-3.9,2.2-7.9,1.4-12-3.8-18.8-26.6-18.1-31.6-.6-1.6-3.9-2.8-7.6-5.9-10.3-14.3-12.1-33,3.1-25.1,20.3-.6.7-3.6,5.8-4.2,6.6"/>
      <path id="Path_2220" data-name="Path 2220" class="cls-5" d="M72.9,100l-2.1-1.4c.2-.3,1-1.6,1.7-2.7,1-1.5,1.7-2.7,2.1-3.4-3-7.2-2.4-17.2,6-22.9,5.2-3.5,13.5-4.9,21.3,1.8,2.5,2.1,3.8,4.8,5,7.7,3.6-7.9,10.7-11.2,16.9-11,6.3.2,13.9,4.2,16,14.9a21.788,21.788,0,0,1-1.1,11.6,16.6,16.6,0,0,1,4.3,3.2l-2,1.5a11.839,11.839,0,0,0-4.4-3l-1.1-.4.4-1c1.6-4.4,2-8.1,1.4-11.4-1.9-9.3-8.3-12.8-13.6-12.9-5.9-.2-13,3.6-15.5,12.4l-1,3.5-1.4-3.4c-.2-.6-.5-1.2-.7-1.8-1.3-3.2-2.4-6-4.9-8.1-6.7-5.7-13.8-4.6-18.1-1.6-7.5,5.1-7.8,14.2-4.9,20.6l.3.7-.5.6c-.3.3-1.5,2.3-2.4,3.7C73.7,98.7,73.2,99.6,72.9,100Z"/>
    </g>
    <path id="Path_2221" data-name="Path 2221" class="cls-5" d="M126.1,93.7c0,2.2-1.2,4-2.6,4s-2.6-1.8-2.6-4.1c0-2.2,1.2-4,2.6-4S126.1,91.4,126.1,93.7Z"/>
    <path id="Path_2222" data-name="Path 2222" class="cls-5" d="M105.4,99.5a1.616,1.616,0,0,1-1.4,1.8,1.59,1.59,0,0,1-1.5-1.7,1.616,1.616,0,0,1,1.4-1.8C104.7,97.7,105.4,98.5,105.4,99.5Z"/>
    <path id="Path_2223" data-name="Path 2223" class="cls-5" d="M111.6,99.5a1.616,1.616,0,0,1-1.4,1.8,1.59,1.59,0,0,1-1.5-1.7,1.616,1.616,0,0,1,1.4-1.8C110.9,97.7,111.6,98.5,111.6,99.5Z"/>
    <path id="Path_2224" data-name="Path 2224" class="cls-5" d="M94,93.2c0,2.2-1.2,4-2.6,4s-2.6-1.8-2.6-4.1c0-2.2,1.2-4,2.6-4S94,90.9,94,93.2Z"/>
    <path id="Path_2225" data-name="Path 2225" class="cls-5" d="M127.3,104.4a2.37,2.37,0,0,1-1.7,2.3,2.42,2.42,0,0,1-2.6-1.2,8.955,8.955,0,0,1-.8-2.3c-.2-.9-.4-1.8-.6-2.8,0-.2-.1-.3-.1-.5,0-.3.2-.5.5-.4a4.951,4.951,0,0,1,1.3.4,7.44,7.44,0,0,1,3.1,2.1A3.583,3.583,0,0,1,127.3,104.4Z"/>
    <g id="Group_2051" data-name="Group 2051">
      <g id="Group_2050" data-name="Group 2050">
        <path id="Path_2226" data-name="Path 2226" class="cls-5" d="M85.7,85.2a13.965,13.965,0,0,0,4.7-2.4c1.1-.8,2.6-2.2,2.8-3.6.2-1.2-2.7-.7-2.9.3-.1,1-1.2,2-2,2.6a8.469,8.469,0,0,1-3,1.5c-.4.1-1.4.5-1.2,1.1.2.8,1.2.6,1.6.5Z"/>
      </g>
    </g>
    <g id="Group_2053" data-name="Group 2053">
      <g id="Group_2052" data-name="Group 2052">
        <path id="Path_2227" data-name="Path 2227" class="cls-5" d="M128,82.5a14.219,14.219,0,0,1-3.3-1.1c-.8-.3-2.2-1-2.4-1.9-.3-1.1-3.2-.3-2.9.8s1.7,1.9,2.7,2.4a16.592,16.592,0,0,0,4.1,1.4,2.364,2.364,0,0,0,2-.5c.5-.4.5-1-.2-1.1Z"/>
      </g>
    </g>
    <g id="Group_2056" data-name="Group 2056">
      <g id="Group_2054" data-name="Group 2054">
        <path id="Path_2228" data-name="Path 2228" class="cls-1" d="M93.4,136.2a17.854,17.854,0,0,1-2.3-.2,13.986,13.986,0,0,1-7.6-4.4,16.533,16.533,0,0,1-4.4-8.1,5.9,5.9,0,0,1-.2-1.4c-.1-1-.1-2-.1-3a16.185,16.185,0,0,1,2.1-7.4,3.508,3.508,0,0,1,.5-.8,4.627,4.627,0,0,1,3.5-1.6,4.357,4.357,0,0,1,2.9,1.1,1.606,1.606,0,0,1,.5,1.1,36.985,36.985,0,0,1,2.8-2.8,20.321,20.321,0,0,1,7.2-4.3c.2-.1.5-.1.8-.2h.5a1.425,1.425,0,0,1,1.2.6.758.758,0,0,1,.2.4,1.763,1.763,0,0,1,1.5-.9,1.952,1.952,0,0,1,.7.1,6.7,6.7,0,0,1,3.5,2.7c.1.1.1.2.2.3a1.95,1.95,0,0,1,0,1.5.349.349,0,0,1-.1.2c-.1.3-.3.5-.4.8a4.331,4.331,0,0,1,.5-.1h.4a1.383,1.383,0,0,1,1.1,1.2l.2,1.1a20.153,20.153,0,0,1-.2,5.5,35.726,35.726,0,0,1-4.2,11.7,11.966,11.966,0,0,1-3.7,4.4,11.807,11.807,0,0,1-7.1,2.5Z"/>
        <path id="Path_2229" data-name="Path 2229" class="cls-5" d="M99.7,105.6c-.3.5-.5.9-.7,1.3-1.6,2.8-3.3,5.7-4.9,8.5a1.535,1.535,0,0,0,0,1.6,1.193,1.193,0,0,0,.9.5,1.175,1.175,0,0,0,1.1-.7c1.3-2.2,2.6-4.5,3.9-6.7l2.4-4.2h0c.1-.1.2-.2.3-.2h.1a5.806,5.806,0,0,1,2.8,2.1.454.454,0,0,1,0,.5c-1.6,2.8-3.3,5.7-4.9,8.5-.4.6-.7,1.3-1.1,1.9v.1a1.174,1.174,0,0,0,.6,1.6,1.268,1.268,0,0,0,.6.1,1.167,1.167,0,0,0,1.1-.7c1.4-2.4,2.8-4.9,4.2-7.3.3-.5.6-1,.9-1.4.1.4.1.7.2,1.1a16.666,16.666,0,0,1-.2,5,34.952,34.952,0,0,1-4,11.2,11.286,11.286,0,0,1-3.3,3.9,10.46,10.46,0,0,1-6.1,2.1,13.554,13.554,0,0,1-2-.2,13.006,13.006,0,0,1-6.8-3.9,16.436,16.436,0,0,1-4.1-7.4,5.019,5.019,0,0,1-.2-1.2,26.2,26.2,0,0,1-.1-2.8,16.092,16.092,0,0,1,1.9-6.7,2.092,2.092,0,0,1,.4-.6,3.15,3.15,0,0,1,2.3-1.1,3.057,3.057,0,0,1,2,.7,9.549,9.549,0,0,0-1.2,1.6c-.9,1.2-1.7,2.4-2.6,3.7a5.582,5.582,0,0,0-.5.8,3.128,3.128,0,0,1-.5,1,1.183,1.183,0,0,0,.1,1c.3.3.5.6,1,.6h.1a1.23,1.23,0,0,0,1.1-.7,9.129,9.129,0,0,1,.8-1.3c.1-.1,2.6-3.7,2.9-4a39.709,39.709,0,0,1,4-4.2,18.99,18.99,0,0,1,6.7-4c.2.1.4,0,.8-.1m0-3a1.7,1.7,0,0,0-.7.1h-.2c-.3.1-.6.1-.9.2a22.061,22.061,0,0,0-7.8,4.6c-.5.5-1.1,1-1.6,1.5a6.162,6.162,0,0,0-3.7-1.3,6.06,6.06,0,0,0-4.6,2.1,4.129,4.129,0,0,0-.7,1.1,18.512,18.512,0,0,0-2.3,8v.1c0,1,0,2.1.1,3.1v.1c.1.5.2,1.1.3,1.6a19.07,19.07,0,0,0,4.8,8.8,15.192,15.192,0,0,0,8.4,4.8,11.529,11.529,0,0,0,2.6.3,12.88,12.88,0,0,0,8-2.7,14.932,14.932,0,0,0,4.1-4.9,37.254,37.254,0,0,0,4.3-12.1,19.363,19.363,0,0,0,.3-5.9V112l-.1-.5-.1-.6a2.956,2.956,0,0,0-1.3-2.1,3.132,3.132,0,0,0-.2-1.9l-.3-.6a8.555,8.555,0,0,0-4.2-3.3,5.019,5.019,0,0,0-1.2-.2,3.194,3.194,0,0,0-1.4.3,3.32,3.32,0,0,0-1.6-.5Z"/>
      </g>
      <g id="Group_2055" data-name="Group 2055">
        <path id="Path_2230" data-name="Path 2230" class="cls-1" d="M74.4,143.9a1.34,1.34,0,0,1-1.3-.8,1.357,1.357,0,0,1,.1-1.5c1.5-2.3,3-4.5,4.5-6.7.9-1.3,1.7-2.6,2.6-3.9a1.9,1.9,0,0,1,1.1-.7h.1a1.606,1.606,0,0,1,1.1.5l.2.2c.2.2.3.4.5.6a14.21,14.21,0,0,0,2.5,2.4c1.2.7,2.4,1.4,3.7,2a9.857,9.857,0,0,0,3.8.7h.9a1.4,1.4,0,0,1,1.2,2.1c-.3.7-.7,1.4-1,2.1l-.9,1.8a2.121,2.121,0,0,1-1.9,1.2Z"/>
        <path id="Path_2231" data-name="Path 2231" class="cls-5" d="M81.5,131.8a4.349,4.349,0,0,1,.6.7,14.98,14.98,0,0,0,2.9,2.7c1.3.8,2.6,1.5,3.9,2.2a13.172,13.172,0,0,0,4.4.8h.9c-.3.7-.7,1.4-1,2s-.6,1.2-.9,1.9a.55.55,0,0,1-.5.3H74.4c2.4-3.6,4.7-7.1,7.1-10.6m0-3h-.2a3.369,3.369,0,0,0-2.3,1.3c-.9,1.3-1.7,2.6-2.6,3.9-1.5,2.2-3,4.5-4.5,6.7a3.12,3.12,0,0,0-.2,3.1,2.883,2.883,0,0,0,2.6,1.6H91.6a3.563,3.563,0,0,0,3.2-2l.9-1.8h0c.3-.7.7-1.4,1-2.1a3.01,3.01,0,0,0-.2-2.9,3.15,3.15,0,0,0-2.3-1.4H93.1a8.662,8.662,0,0,1-3.2-.6,37.186,37.186,0,0,1-3.4-1.9,10.957,10.957,0,0,1-2.2-2.1,2.651,2.651,0,0,1-.5-.6l-.2-.2a2.512,2.512,0,0,0-2.1-1Z"/>
      </g>
    </g>
    <g id="Group_2059" data-name="Group 2059">
      <g id="Group_2057" data-name="Group 2057">
        <path id="Path_2232" data-name="Path 2232" class="cls-1" d="M118.9,136.6a11.7,11.7,0,0,1-7.1-2.4,12.446,12.446,0,0,1-3.7-4.5,39.312,39.312,0,0,1-4.2-11.6,19.573,19.573,0,0,1-.2-5.4l.2-1.2a1.383,1.383,0,0,1,1.1-1.2h.4a.9.9,0,0,1,.5.1c-.1-.3-.3-.5-.4-.8a.349.349,0,0,0-.1-.2,1.95,1.95,0,0,1,0-1.5c0-.1.1-.2.2-.3a6.7,6.7,0,0,1,3.5-2.7,1.483,1.483,0,0,1,.7-.1,1.65,1.65,0,0,1,1.5.9.758.758,0,0,1,.2-.4,1.425,1.425,0,0,1,1.2-.6h.5c.3.1.6.1.8.2a20.736,20.736,0,0,1,7.3,4.3,35.7,35.7,0,0,1,2.8,2.7,1.606,1.606,0,0,1,.5-1.1,4.556,4.556,0,0,1,2.9-1.1,4.79,4.79,0,0,1,3.5,1.6c.2.3.4.5.6.8a16.689,16.689,0,0,1,2.1,7.3c0,1,0,2-.1,3a5.769,5.769,0,0,1-.3,1.4,16.349,16.349,0,0,1-4.5,8.1,13.916,13.916,0,0,1-7.5,4.3,7.509,7.509,0,0,1-2.4.4Z"/>
        <path id="Path_2233" data-name="Path 2233" class="cls-5" d="M112.6,106.1c.4.1.6.1.9.2a17.623,17.623,0,0,1,6.7,4,31.636,31.636,0,0,1,4,4.2c.3.4,2.8,3.9,2.9,4a9.13,9.13,0,0,1,.8,1.3,1.23,1.23,0,0,0,1.1.7h.1c.5,0,.7-.4,1-.6a1.183,1.183,0,0,0,.1-1,9.252,9.252,0,0,0-.5-1,3.509,3.509,0,0,0-.5-.8c-.9-1.2-1.7-2.5-2.6-3.7-.4-.5-.8-1-1.2-1.6a3.057,3.057,0,0,1,2-.7,2.99,2.99,0,0,1,2.3,1.1c.1.2.3.4.4.6a15.291,15.291,0,0,1,1.9,6.7,26.2,26.2,0,0,1-.1,2.8,5.02,5.02,0,0,1-.2,1.2,15.1,15.1,0,0,1-4.1,7.4,12.373,12.373,0,0,1-6.8,3.9,13.551,13.551,0,0,1-2,.2,9.611,9.611,0,0,1-6.1-2.1,11.286,11.286,0,0,1-3.3-3.9,34.952,34.952,0,0,1-4-11.2,16.929,16.929,0,0,1-.2-5c.1-.4.1-.7.2-1.1.3.4.6.9.9,1.4,1.4,2.4,2.8,4.9,4.2,7.3a1.356,1.356,0,0,0,1.1.7,1.268,1.268,0,0,0,.6-.1,1.2,1.2,0,0,0,.6-1.6v-.1c-.4-.7-.7-1.3-1.1-1.9-1.6-2.8-3.3-5.7-4.9-8.5a.454.454,0,0,1,0-.5,5.381,5.381,0,0,1,2.8-2.1h.1c.1,0,.2.1.3.2h0l2.4,4.2c1.3,2.2,2.6,4.5,3.9,6.7l.6.6a.9.9,0,0,0,.5.1,1.05,1.05,0,0,0,.9-.5,1.35,1.35,0,0,0,0-1.6c-1.6-2.8-3.3-5.7-4.9-8.5-.3-.6-.6-.9-.8-1.4m0-3a4.193,4.193,0,0,0-1.6.4,3.194,3.194,0,0,0-1.4-.3,5.019,5.019,0,0,0-1.2.2,8.031,8.031,0,0,0-4.2,3.3l-.3.6a4.133,4.133,0,0,0-.2,1.9,2.956,2.956,0,0,0-1.3,2.1l-.1.6-.1.5v.1a19.526,19.526,0,0,0,.3,5.9,37.253,37.253,0,0,0,4.3,12.1,14.932,14.932,0,0,0,4.1,4.9,13.521,13.521,0,0,0,8,2.7,19.483,19.483,0,0,0,2.5-.2,15.81,15.81,0,0,0,8.4-4.8,18.591,18.591,0,0,0,4.8-8.8c.1-.5.2-1,.3-1.6v-.1c.1-1,.1-2.1.1-3.1v-.1a17.585,17.585,0,0,0-2.3-8,6.726,6.726,0,0,0-.7-1.1,5.883,5.883,0,0,0-4.6-2.1,5.77,5.77,0,0,0-3.7,1.3c-.5-.5-1-1-1.6-1.5a22.061,22.061,0,0,0-7.8-4.6c-.3-.1-.7-.2-1-.3h-.7Z"/>
      </g>
      <g id="Group_2058" data-name="Group 2058">
        <path id="Path_2234" data-name="Path 2234" class="cls-1" d="M120.6,144.3a2.241,2.241,0,0,1-1.9-1.2l-.9-1.8c-.3-.7-.7-1.4-1-2.1a1.392,1.392,0,0,1,.1-1.4,1.709,1.709,0,0,1,1.3-.7h.9a9.857,9.857,0,0,0,3.8-.7c1.2-.6,2.5-1.3,3.7-2a14.82,14.82,0,0,0,2.6-2.4,2.181,2.181,0,0,0,.4-.5l.2-.2a1.606,1.606,0,0,1,1.1-.5h.1a1.23,1.23,0,0,1,1.1.7c.9,1.3,1.7,2.6,2.6,3.9,1.5,2.2,3,4.5,4.5,6.7a1.617,1.617,0,0,1,.1,1.5,1.561,1.561,0,0,1-1.3.8Z"/>
        <path id="Path_2235" data-name="Path 2235" class="cls-5" d="M130.8,132.2c2.4,3.5,4.7,7.1,7.1,10.6H120.7a.55.55,0,0,1-.5-.3c-.3-.6-.6-1.2-.9-1.9s-.7-1.3-1-2h.9a13.172,13.172,0,0,0,4.4-.8c1.3-.7,2.6-1.4,3.9-2.2a18.567,18.567,0,0,0,2.9-2.7c0-.2.2-.4.4-.7m0-3a2.865,2.865,0,0,0-2.2,1l-.2.2c-.2.2-.3.4-.5.6a14.464,14.464,0,0,1-2.2,2.1,37.182,37.182,0,0,1-3.4,1.9,8.662,8.662,0,0,1-3.2.6H118a3.15,3.15,0,0,0-2.3,1.4,3.3,3.3,0,0,0-.2,2.9c.3.7.7,1.4,1,2.1h0l.9,1.8a3.678,3.678,0,0,0,3.2,2h17.3a2.986,2.986,0,0,0,2.4-4.7c-1.5-2.2-3-4.5-4.5-6.7-.9-1.3-1.7-2.6-2.6-3.9a2.772,2.772,0,0,0-2.3-1.3Z"/>
      </g>
    </g>
  </g>
</svg>
