<svg xmlns="http://www.w3.org/2000/svg" width="32.813" height="26.673" viewBox="0 0 32.813 26.673"><g transform="translate(0 0)"><path d="M456.814,2177.849q-6.2,0-12.4,0a3.915,3.915,0,0,1-3.912-3.013,4.643,4.643,0,0,1-.12-1.118q-.012-6.849,0-13.7a3.967,3.967,0,0,1,4.141-4.136c1.1,0,2.191,0,3.287,0,.5,0,.621-.09.775-.55.286-.854.566-1.711.854-2.564a2.2,2.2,0,0,1,2.19-1.586q5.154,0,10.307,0a2.146,2.146,0,0,1,2.206,1.592c.284.843.562,1.688.843,2.532.165.5.271.575.788.577,1.221.005,2.444-.029,3.663.022a3.924,3.924,0,0,1,3.744,3.714c.015.239.011.479.011.719q0,6.831,0,13.662a3.779,3.779,0,0,1-3.743,3.838c-4.212.026-8.423.008-12.635.008Zm0-1.623q6.095,0,12.19,0a3.509,3.509,0,0,0,.88-.087,2.29,2.29,0,0,0,1.749-2.426q0-6.814,0-13.628a2.359,2.359,0,0,0-2.576-2.576c-1.119,0-2.237.006-3.356,0a2.108,2.108,0,0,1-2.115-1.522q-.459-1.344-.9-2.695a.624.624,0,0,0-.656-.485q-5.188,0-10.375,0a.612.612,0,0,0-.655.479c-.264.837-.57,1.662-.815,2.505a2.374,2.374,0,0,1-2.446,1.776c-1.172-.06-2.349-.061-3.522-.031A2.331,2.331,0,0,0,442,2160c.009,4.577,0,9.154.015,13.731a2.892,2.892,0,0,0,.256,1.185,2.3,2.3,0,0,0,2.288,1.312Q450.69,2176.22,456.819,2176.225Z" transform="translate(-440.38 -2151.178)" fill="#e2e2e2"/><path d="M496.226,2206.4a8.642,8.642,0,1,1,8.634-8.5A8.611,8.611,0,0,1,496.226,2206.4Zm-6.978-8.647a7.009,7.009,0,1,0,7-6.977A6.97,6.97,0,0,0,489.248,2197.75Z" transform="translate(-479.811 -2182.854)" fill="#e2e2e2"/><path d="M599.848,2198.484a2.307,2.307,0,1,1-2.315-2.307A2.337,2.337,0,0,1,599.848,2198.484Zm-1.222-.006a1.086,1.086,0,1,0-1.063,1.108A1.092,1.092,0,0,0,598.627,2198.478Z" transform="translate(-569.684 -2188.752)" fill="#e2e2e2"/><path d="M512.121,2208.059a5.52,5.52,0,1,1-5.523,5.315A5.538,5.538,0,0,1,512.121,2208.059Zm0,1.657a3.9,3.9,0,1,0,3.9,3.951A3.948,3.948,0,0,0,512.123,2209.717Z" transform="translate(-495.671 -2198.674)" fill="#e2e2e2"/></g></svg>